# procedural asset
v -0.00600 0.00000 0.00000
v -0.00600 0.00000 0.06750
v -0.00600 0.00000 0.13500
v -0.00600 0.00000 0.20250
v -0.00600 0.00000 0.27000
v -0.00300 0.00520 0.00000
v -0.00300 0.00520 0.06750
v -0.00300 0.00520 0.13500
v -0.00300 0.00520 0.20250
v -0.00300 0.00520 0.27000
v 0.00300 0.00520 0.00000
v 0.00300 0.00520 0.06750
v 0.00300 0.00520 0.13500
v 0.00300 0.00520 0.20250
v 0.00300 0.00520 0.27000
v 0.00600 0.00000 0.00000
v 0.00600 0.00000 0.06750
v 0.00600 0.00000 0.13500
v 0.00600 0.00000 0.20250
v 0.00600 0.00000 0.27000
v 0.00300 -0.00520 0.00000
v 0.00300 -0.00520 0.06750
v 0.00300 -0.00520 0.13500
v 0.00300 -0.00520 0.20250
v 0.00300 -0.00520 0.27000
v -0.00300 -0.00520 0.00000
v -0.00300 -0.00520 0.06750
v -0.00300 -0.00520 0.13500
v -0.00300 -0.00520 0.20250
v -0.00300 -0.00520 0.27000
v -0.00600 -0.00000 0.00000
v -0.00600 -0.00000 0.06750
v -0.00600 -0.00000 0.13500
v -0.00600 -0.00000 0.20250
v -0.00600 -0.00000 0.27000
v -0.00600 0.00000 0.00000
v -0.00600 0.03375 0.05846
v -0.00600 0.06750 0.11691
v -0.00600 0.10125 0.17537
v -0.00600 0.13500 0.23383
v -0.00300 0.00450 -0.00260
v -0.00300 0.03825 0.05586
v -0.00300 0.07200 0.11432
v -0.00300 0.10575 0.17277
v -0.00300 0.13950 0.23123
v 0.00300 0.00450 -0.00260
v 0.00300 0.03825 0.05586
v 0.00300 0.07200 0.11432
v 0.00300 0.10575 0.17277
v 0.00300 0.13950 0.23123
v 0.00600 0.00000 -0.00000
v 0.00600 0.03375 0.05846
v 0.00600 0.06750 0.11691
v 0.00600 0.10125 0.17537
v 0.00600 0.13500 0.23383
v 0.00300 -0.00450 0.00260
v 0.00300 0.02925 0.06105
v 0.00300 0.06300 0.11951
v 0.00300 0.09675 0.17797
v 0.00300 0.13050 0.23642
v -0.00300 -0.00450 0.00260
v -0.00300 0.02925 0.06105
v -0.00300 0.06300 0.11951
v -0.00300 0.09675 0.17797
v -0.00300 0.13050 0.23642
v -0.00600 -0.00000 0.00000
v -0.00600 0.03375 0.05846
v -0.00600 0.06750 0.11691
v -0.00600 0.10125 0.17537
v -0.00600 0.13500 0.23383
v -0.00600 0.00000 0.00000
v -0.00600 0.05846 0.03375
v -0.00600 0.11691 0.06750
v -0.00600 0.17537 0.10125
v -0.00600 0.23383 0.13500
v -0.00300 0.00260 -0.00450
v -0.00300 0.06105 0.02925
v -0.00300 0.11951 0.06300
v -0.00300 0.17797 0.09675
v -0.00300 0.23642 0.13050
v 0.00300 0.00260 -0.00450
v 0.00300 0.06105 0.02925
v 0.00300 0.11951 0.06300
v 0.00300 0.17797 0.09675
v 0.00300 0.23642 0.13050
v 0.00600 0.00000 -0.00000
v 0.00600 0.05846 0.03375
v 0.00600 0.11691 0.06750
v 0.00600 0.17537 0.10125
v 0.00600 0.23383 0.13500
v 0.00300 -0.00260 0.00450
v 0.00300 0.05586 0.03825
v 0.00300 0.11432 0.07200
v 0.00300 0.17277 0.10575
v 0.00300 0.23123 0.13950
v -0.00300 -0.00260 0.00450
v -0.00300 0.05586 0.03825
v -0.00300 0.11432 0.07200
v -0.00300 0.17277 0.10575
v -0.00300 0.23123 0.13950
v -0.00600 -0.00000 0.00000
v -0.00600 0.05846 0.03375
v -0.00600 0.11691 0.06750
v -0.00600 0.17537 0.10125
v -0.00600 0.23383 0.13500
v 0.00000 0.00000 -0.00600
v 0.00000 0.06750 -0.00600
v 0.00000 0.13500 -0.00600
v 0.00000 0.20250 -0.00600
v 0.00000 0.27000 -0.00600
v 0.00520 0.00000 -0.00300
v 0.00520 0.06750 -0.00300
v 0.00520 0.13500 -0.00300
v 0.00520 0.20250 -0.00300
v 0.00520 0.27000 -0.00300
v 0.00520 -0.00000 0.00300
v 0.00520 0.06750 0.00300
v 0.00520 0.13500 0.00300
v 0.00520 0.20250 0.00300
v 0.00520 0.27000 0.00300
v 0.00000 -0.00000 0.00600
v 0.00000 0.06750 0.00600
v 0.00000 0.13500 0.00600
v 0.00000 0.20250 0.00600
v 0.00000 0.27000 0.00600
v -0.00520 -0.00000 0.00300
v -0.00520 0.06750 0.00300
v -0.00520 0.13500 0.00300
v -0.00520 0.20250 0.00300
v -0.00520 0.27000 0.00300
v -0.00520 0.00000 -0.00300
v -0.00520 0.06750 -0.00300
v -0.00520 0.13500 -0.00300
v -0.00520 0.20250 -0.00300
v -0.00520 0.27000 -0.00300
v -0.00000 0.00000 -0.00600
v -0.00000 0.06750 -0.00600
v -0.00000 0.13500 -0.00600
v -0.00000 0.20250 -0.00600
v -0.00000 0.27000 -0.00600
v 0.00600 0.00000 0.00000
v 0.00600 0.05846 -0.03375
v 0.00600 0.11691 -0.06750
v 0.00600 0.17537 -0.10125
v 0.00600 0.23383 -0.13500
v 0.00300 0.00260 0.00450
v 0.00300 0.06105 -0.02925
v 0.00300 0.11951 -0.06300
v 0.00300 0.17797 -0.09675
v 0.00300 0.23642 -0.13050
v -0.00300 0.00260 0.00450
v -0.00300 0.06105 -0.02925
v -0.00300 0.11951 -0.06300
v -0.00300 0.17797 -0.09675
v -0.00300 0.23642 -0.13050
v -0.00600 0.00000 0.00000
v -0.00600 0.05846 -0.03375
v -0.00600 0.11691 -0.06750
v -0.00600 0.17537 -0.10125
v -0.00600 0.23383 -0.13500
v -0.00300 -0.00260 -0.00450
v -0.00300 0.05586 -0.03825
v -0.00300 0.11432 -0.07200
v -0.00300 0.17277 -0.10575
v -0.00300 0.23123 -0.13950
v 0.00300 -0.00260 -0.00450
v 0.00300 0.05586 -0.03825
v 0.00300 0.11432 -0.07200
v 0.00300 0.17277 -0.10575
v 0.00300 0.23123 -0.13950
v 0.00600 -0.00000 -0.00000
v 0.00600 0.05846 -0.03375
v 0.00600 0.11691 -0.06750
v 0.00600 0.17537 -0.10125
v 0.00600 0.23383 -0.13500
v 0.00600 0.00000 0.00000
v 0.00600 0.03375 -0.05846
v 0.00600 0.06750 -0.11691
v 0.00600 0.10125 -0.17537
v 0.00600 0.13500 -0.23383
v 0.00300 0.00450 0.00260
v 0.00300 0.03825 -0.05586
v 0.00300 0.07200 -0.11432
v 0.00300 0.10575 -0.17277
v 0.00300 0.13950 -0.23123
v -0.00300 0.00450 0.00260
v -0.00300 0.03825 -0.05586
v -0.00300 0.07200 -0.11432
v -0.00300 0.10575 -0.17277
v -0.00300 0.13950 -0.23123
v -0.00600 0.00000 0.00000
v -0.00600 0.03375 -0.05846
v -0.00600 0.06750 -0.11691
v -0.00600 0.10125 -0.17537
v -0.00600 0.13500 -0.23383
v -0.00300 -0.00450 -0.00260
v -0.00300 0.02925 -0.06105
v -0.00300 0.06300 -0.11951
v -0.00300 0.09675 -0.17797
v -0.00300 0.13050 -0.23642
v 0.00300 -0.00450 -0.00260
v 0.00300 0.02925 -0.06105
v 0.00300 0.06300 -0.11951
v 0.00300 0.09675 -0.17797
v 0.00300 0.13050 -0.23642
v 0.00600 -0.00000 -0.00000
v 0.00600 0.03375 -0.05846
v 0.00600 0.06750 -0.11691
v 0.00600 0.10125 -0.17537
v 0.00600 0.13500 -0.23383
v 0.00600 0.00000 0.00000
v 0.00600 0.00000 -0.06750
v 0.00600 0.00000 -0.13500
v 0.00600 0.00000 -0.20250
v 0.00600 0.00000 -0.27000
v 0.00300 0.00520 0.00000
v 0.00300 0.00520 -0.06750
v 0.00300 0.00520 -0.13500
v 0.00300 0.00520 -0.20250
v 0.00300 0.00520 -0.27000
v -0.00300 0.00520 0.00000
v -0.00300 0.00520 -0.06750
v -0.00300 0.00520 -0.13500
v -0.00300 0.00520 -0.20250
v -0.00300 0.00520 -0.27000
v -0.00600 0.00000 0.00000
v -0.00600 0.00000 -0.06750
v -0.00600 0.00000 -0.13500
v -0.00600 0.00000 -0.20250
v -0.00600 0.00000 -0.27000
v -0.00300 -0.00520 -0.00000
v -0.00300 -0.00520 -0.06750
v -0.00300 -0.00520 -0.13500
v -0.00300 -0.00520 -0.20250
v -0.00300 -0.00520 -0.27000
v 0.00300 -0.00520 -0.00000
v 0.00300 -0.00520 -0.06750
v 0.00300 -0.00520 -0.13500
v 0.00300 -0.00520 -0.20250
v 0.00300 -0.00520 -0.27000
v 0.00600 -0.00000 -0.00000
v 0.00600 0.00000 -0.06750
v 0.00600 0.00000 -0.13500
v 0.00600 0.00000 -0.20250
v 0.00600 0.00000 -0.27000
v 0.00600 0.00000 0.00000
v 0.00600 -0.03375 -0.05846
v 0.00600 -0.06750 -0.11691
v 0.00600 -0.10125 -0.17537
v 0.00600 -0.13500 -0.23383
v 0.00300 0.00450 -0.00260
v 0.00300 -0.02925 -0.06105
v 0.00300 -0.06300 -0.11951
v 0.00300 -0.09675 -0.17797
v 0.00300 -0.13050 -0.23642
v -0.00300 0.00450 -0.00260
v -0.00300 -0.02925 -0.06105
v -0.00300 -0.06300 -0.11951
v -0.00300 -0.09675 -0.17797
v -0.00300 -0.13050 -0.23642
v -0.00600 0.00000 -0.00000
v -0.00600 -0.03375 -0.05846
v -0.00600 -0.06750 -0.11691
v -0.00600 -0.10125 -0.17537
v -0.00600 -0.13500 -0.23383
v -0.00300 -0.00450 0.00260
v -0.00300 -0.03825 -0.05586
v -0.00300 -0.07200 -0.11432
v -0.00300 -0.10575 -0.17277
v -0.00300 -0.13950 -0.23123
v 0.00300 -0.00450 0.00260
v 0.00300 -0.03825 -0.05586
v 0.00300 -0.07200 -0.11432
v 0.00300 -0.10575 -0.17277
v 0.00300 -0.13950 -0.23123
v 0.00600 -0.00000 0.00000
v 0.00600 -0.03375 -0.05846
v 0.00600 -0.06750 -0.11691
v 0.00600 -0.10125 -0.17537
v 0.00600 -0.13500 -0.23383
v 0.00600 0.00000 0.00000
v 0.00600 -0.05846 -0.03375
v 0.00600 -0.11691 -0.06750
v 0.00600 -0.17537 -0.10125
v 0.00600 -0.23383 -0.13500
v 0.00300 0.00260 -0.00450
v 0.00300 -0.05586 -0.03825
v 0.00300 -0.11432 -0.07200
v 0.00300 -0.17277 -0.10575
v 0.00300 -0.23123 -0.13950
v -0.00300 0.00260 -0.00450
v -0.00300 -0.05586 -0.03825
v -0.00300 -0.11432 -0.07200
v -0.00300 -0.17277 -0.10575
v -0.00300 -0.23123 -0.13950
v -0.00600 0.00000 -0.00000
v -0.00600 -0.05846 -0.03375
v -0.00600 -0.11691 -0.06750
v -0.00600 -0.17537 -0.10125
v -0.00600 -0.23383 -0.13500
v -0.00300 -0.00260 0.00450
v -0.00300 -0.06105 -0.02925
v -0.00300 -0.11951 -0.06300
v -0.00300 -0.17797 -0.09675
v -0.00300 -0.23642 -0.13050
v 0.00300 -0.00260 0.00450
v 0.00300 -0.06105 -0.02925
v 0.00300 -0.11951 -0.06300
v 0.00300 -0.17797 -0.09675
v 0.00300 -0.23642 -0.13050
v 0.00600 -0.00000 0.00000
v 0.00600 -0.05846 -0.03375
v 0.00600 -0.11691 -0.06750
v 0.00600 -0.17537 -0.10125
v 0.00600 -0.23383 -0.13500
v 0.00000 -0.00000 0.00600
v 0.00000 -0.06750 0.00600
v 0.00000 -0.13500 0.00600
v 0.00000 -0.20250 0.00600
v 0.00000 -0.27000 0.00600
v 0.00520 -0.00000 0.00300
v 0.00520 -0.06750 0.00300
v 0.00520 -0.13500 0.00300
v 0.00520 -0.20250 0.00300
v 0.00520 -0.27000 0.00300
v 0.00520 0.00000 -0.00300
v 0.00520 -0.06750 -0.00300
v 0.00520 -0.13500 -0.00300
v 0.00520 -0.20250 -0.00300
v 0.00520 -0.27000 -0.00300
v 0.00000 0.00000 -0.00600
v 0.00000 -0.06750 -0.00600
v 0.00000 -0.13500 -0.00600
v 0.00000 -0.20250 -0.00600
v 0.00000 -0.27000 -0.00600
v -0.00520 0.00000 -0.00300
v -0.00520 -0.06750 -0.00300
v -0.00520 -0.13500 -0.00300
v -0.00520 -0.20250 -0.00300
v -0.00520 -0.27000 -0.00300
v -0.00520 -0.00000 0.00300
v -0.00520 -0.06750 0.00300
v -0.00520 -0.13500 0.00300
v -0.00520 -0.20250 0.00300
v -0.00520 -0.27000 0.00300
v -0.00000 -0.00000 0.00600
v -0.00000 -0.06750 0.00600
v -0.00000 -0.13500 0.00600
v -0.00000 -0.20250 0.00600
v -0.00000 -0.27000 0.00600
v -0.00600 0.00000 0.00000
v -0.00600 -0.05846 0.03375
v -0.00600 -0.11691 0.06750
v -0.00600 -0.17537 0.10125
v -0.00600 -0.23383 0.13500
v -0.00300 0.00260 0.00450
v -0.00300 -0.05586 0.03825
v -0.00300 -0.11432 0.07200
v -0.00300 -0.17277 0.10575
v -0.00300 -0.23123 0.13950
v 0.00300 0.00260 0.00450
v 0.00300 -0.05586 0.03825
v 0.00300 -0.11432 0.07200
v 0.00300 -0.17277 0.10575
v 0.00300 -0.23123 0.13950
v 0.00600 0.00000 0.00000
v 0.00600 -0.05846 0.03375
v 0.00600 -0.11691 0.06750
v 0.00600 -0.17537 0.10125
v 0.00600 -0.23383 0.13500
v 0.00300 -0.00260 -0.00450
v 0.00300 -0.06105 0.02925
v 0.00300 -0.11951 0.06300
v 0.00300 -0.17797 0.09675
v 0.00300 -0.23642 0.13050
v -0.00300 -0.00260 -0.00450
v -0.00300 -0.06105 0.02925
v -0.00300 -0.11951 0.06300
v -0.00300 -0.17797 0.09675
v -0.00300 -0.23642 0.13050
v -0.00600 -0.00000 -0.00000
v -0.00600 -0.05846 0.03375
v -0.00600 -0.11691 0.06750
v -0.00600 -0.17537 0.10125
v -0.00600 -0.23383 0.13500
v -0.00600 0.00000 0.00000
v -0.00600 -0.03375 0.05846
v -0.00600 -0.06750 0.11691
v -0.00600 -0.10125 0.17537
v -0.00600 -0.13500 0.23383
v -0.00300 0.00450 0.00260
v -0.00300 -0.02925 0.06105
v -0.00300 -0.06300 0.11951
v -0.00300 -0.09675 0.17797
v -0.00300 -0.13050 0.23642
v 0.00300 0.00450 0.00260
v 0.00300 -0.02925 0.06105
v 0.00300 -0.06300 0.11951
v 0.00300 -0.09675 0.17797
v 0.00300 -0.13050 0.23642
v 0.00600 0.00000 0.00000
v 0.00600 -0.03375 0.05846
v 0.00600 -0.06750 0.11691
v 0.00600 -0.10125 0.17537
v 0.00600 -0.13500 0.23383
v 0.00300 -0.00450 -0.00260
v 0.00300 -0.03825 0.05586
v 0.00300 -0.07200 0.11432
v 0.00300 -0.10575 0.17277
v 0.00300 -0.13950 0.23123
v -0.00300 -0.00450 -0.00260
v -0.00300 -0.03825 0.05586
v -0.00300 -0.07200 0.11432
v -0.00300 -0.10575 0.17277
v -0.00300 -0.13950 0.23123
v -0.00600 -0.00000 -0.00000
v -0.00600 -0.03375 0.05846
v -0.00600 -0.06750 0.11691
v -0.00600 -0.10125 0.17537
v -0.00600 -0.13500 0.23383
vt 0.00000 0.00000
vt 0.00000 0.25000
vt 0.00000 0.50000
vt 0.00000 0.75000
vt 0.00000 1.00000
vt 0.16667 0.00000
vt 0.16667 0.25000
vt 0.16667 0.50000
vt 0.16667 0.75000
vt 0.16667 1.00000
vt 0.33333 0.00000
vt 0.33333 0.25000
vt 0.33333 0.50000
vt 0.33333 0.75000
vt 0.33333 1.00000
vt 0.50000 0.00000
vt 0.50000 0.25000
vt 0.50000 0.50000
vt 0.50000 0.75000
vt 0.50000 1.00000
vt 0.66667 0.00000
vt 0.66667 0.25000
vt 0.66667 0.50000
vt 0.66667 0.75000
vt 0.66667 1.00000
vt 0.83333 0.00000
vt 0.83333 0.25000
vt 0.83333 0.50000
vt 0.83333 0.75000
vt 0.83333 1.00000
vt 1.00000 0.00000
vt 1.00000 0.25000
vt 1.00000 0.50000
vt 1.00000 0.75000
vt 1.00000 1.00000
vt 0.00000 0.00000
vt 0.00000 0.25000
vt 0.00000 0.50000
vt 0.00000 0.75000
vt 0.00000 1.00000
vt 0.16667 0.00000
vt 0.16667 0.25000
vt 0.16667 0.50000
vt 0.16667 0.75000
vt 0.16667 1.00000
vt 0.33333 0.00000
vt 0.33333 0.25000
vt 0.33333 0.50000
vt 0.33333 0.75000
vt 0.33333 1.00000
vt 0.50000 0.00000
vt 0.50000 0.25000
vt 0.50000 0.50000
vt 0.50000 0.75000
vt 0.50000 1.00000
vt 0.66667 0.00000
vt 0.66667 0.25000
vt 0.66667 0.50000
vt 0.66667 0.75000
vt 0.66667 1.00000
vt 0.83333 0.00000
vt 0.83333 0.25000
vt 0.83333 0.50000
vt 0.83333 0.75000
vt 0.83333 1.00000
vt 1.00000 0.00000
vt 1.00000 0.25000
vt 1.00000 0.50000
vt 1.00000 0.75000
vt 1.00000 1.00000
vt 0.00000 0.00000
vt 0.00000 0.25000
vt 0.00000 0.50000
vt 0.00000 0.75000
vt 0.00000 1.00000
vt 0.16667 0.00000
vt 0.16667 0.25000
vt 0.16667 0.50000
vt 0.16667 0.75000
vt 0.16667 1.00000
vt 0.33333 0.00000
vt 0.33333 0.25000
vt 0.33333 0.50000
vt 0.33333 0.75000
vt 0.33333 1.00000
vt 0.50000 0.00000
vt 0.50000 0.25000
vt 0.50000 0.50000
vt 0.50000 0.75000
vt 0.50000 1.00000
vt 0.66667 0.00000
vt 0.66667 0.25000
vt 0.66667 0.50000
vt 0.66667 0.75000
vt 0.66667 1.00000
vt 0.83333 0.00000
vt 0.83333 0.25000
vt 0.83333 0.50000
vt 0.83333 0.75000
vt 0.83333 1.00000
vt 1.00000 0.00000
vt 1.00000 0.25000
vt 1.00000 0.50000
vt 1.00000 0.75000
vt 1.00000 1.00000
vt 0.00000 0.00000
vt 0.00000 0.25000
vt 0.00000 0.50000
vt 0.00000 0.75000
vt 0.00000 1.00000
vt 0.16667 0.00000
vt 0.16667 0.25000
vt 0.16667 0.50000
vt 0.16667 0.75000
vt 0.16667 1.00000
vt 0.33333 0.00000
vt 0.33333 0.25000
vt 0.33333 0.50000
vt 0.33333 0.75000
vt 0.33333 1.00000
vt 0.50000 0.00000
vt 0.50000 0.25000
vt 0.50000 0.50000
vt 0.50000 0.75000
vt 0.50000 1.00000
vt 0.66667 0.00000
vt 0.66667 0.25000
vt 0.66667 0.50000
vt 0.66667 0.75000
vt 0.66667 1.00000
vt 0.83333 0.00000
vt 0.83333 0.25000
vt 0.83333 0.50000
vt 0.83333 0.75000
vt 0.83333 1.00000
vt 1.00000 0.00000
vt 1.00000 0.25000
vt 1.00000 0.50000
vt 1.00000 0.75000
vt 1.00000 1.00000
vt 0.00000 0.00000
vt 0.00000 0.25000
vt 0.00000 0.50000
vt 0.00000 0.75000
vt 0.00000 1.00000
vt 0.16667 0.00000
vt 0.16667 0.25000
vt 0.16667 0.50000
vt 0.16667 0.75000
vt 0.16667 1.00000
vt 0.33333 0.00000
vt 0.33333 0.25000
vt 0.33333 0.50000
vt 0.33333 0.75000
vt 0.33333 1.00000
vt 0.50000 0.00000
vt 0.50000 0.25000
vt 0.50000 0.50000
vt 0.50000 0.75000
vt 0.50000 1.00000
vt 0.66667 0.00000
vt 0.66667 0.25000
vt 0.66667 0.50000
vt 0.66667 0.75000
vt 0.66667 1.00000
vt 0.83333 0.00000
vt 0.83333 0.25000
vt 0.83333 0.50000
vt 0.83333 0.75000
vt 0.83333 1.00000
vt 1.00000 0.00000
vt 1.00000 0.25000
vt 1.00000 0.50000
vt 1.00000 0.75000
vt 1.00000 1.00000
vt 0.00000 0.00000
vt 0.00000 0.25000
vt 0.00000 0.50000
vt 0.00000 0.75000
vt 0.00000 1.00000
vt 0.16667 0.00000
vt 0.16667 0.25000
vt 0.16667 0.50000
vt 0.16667 0.75000
vt 0.16667 1.00000
vt 0.33333 0.00000
vt 0.33333 0.25000
vt 0.33333 0.50000
vt 0.33333 0.75000
vt 0.33333 1.00000
vt 0.50000 0.00000
vt 0.50000 0.25000
vt 0.50000 0.50000
vt 0.50000 0.75000
vt 0.50000 1.00000
vt 0.66667 0.00000
vt 0.66667 0.25000
vt 0.66667 0.50000
vt 0.66667 0.75000
vt 0.66667 1.00000
vt 0.83333 0.00000
vt 0.83333 0.25000
vt 0.83333 0.50000
vt 0.83333 0.75000
vt 0.83333 1.00000
vt 1.00000 0.00000
vt 1.00000 0.25000
vt 1.00000 0.50000
vt 1.00000 0.75000
vt 1.00000 1.00000
vt 0.00000 0.00000
vt 0.00000 0.25000
vt 0.00000 0.50000
vt 0.00000 0.75000
vt 0.00000 1.00000
vt 0.16667 0.00000
vt 0.16667 0.25000
vt 0.16667 0.50000
vt 0.16667 0.75000
vt 0.16667 1.00000
vt 0.33333 0.00000
vt 0.33333 0.25000
vt 0.33333 0.50000
vt 0.33333 0.75000
vt 0.33333 1.00000
vt 0.50000 0.00000
vt 0.50000 0.25000
vt 0.50000 0.50000
vt 0.50000 0.75000
vt 0.50000 1.00000
vt 0.66667 0.00000
vt 0.66667 0.25000
vt 0.66667 0.50000
vt 0.66667 0.75000
vt 0.66667 1.00000
vt 0.83333 0.00000
vt 0.83333 0.25000
vt 0.83333 0.50000
vt 0.83333 0.75000
vt 0.83333 1.00000
vt 1.00000 0.00000
vt 1.00000 0.25000
vt 1.00000 0.50000
vt 1.00000 0.75000
vt 1.00000 1.00000
vt 0.00000 0.00000
vt 0.00000 0.25000
vt 0.00000 0.50000
vt 0.00000 0.75000
vt 0.00000 1.00000
vt 0.16667 0.00000
vt 0.16667 0.25000
vt 0.16667 0.50000
vt 0.16667 0.75000
vt 0.16667 1.00000
vt 0.33333 0.00000
vt 0.33333 0.25000
vt 0.33333 0.50000
vt 0.33333 0.75000
vt 0.33333 1.00000
vt 0.50000 0.00000
vt 0.50000 0.25000
vt 0.50000 0.50000
vt 0.50000 0.75000
vt 0.50000 1.00000
vt 0.66667 0.00000
vt 0.66667 0.25000
vt 0.66667 0.50000
vt 0.66667 0.75000
vt 0.66667 1.00000
vt 0.83333 0.00000
vt 0.83333 0.25000
vt 0.83333 0.50000
vt 0.83333 0.75000
vt 0.83333 1.00000
vt 1.00000 0.00000
vt 1.00000 0.25000
vt 1.00000 0.50000
vt 1.00000 0.75000
vt 1.00000 1.00000
vt 0.00000 0.00000
vt 0.00000 0.25000
vt 0.00000 0.50000
vt 0.00000 0.75000
vt 0.00000 1.00000
vt 0.16667 0.00000
vt 0.16667 0.25000
vt 0.16667 0.50000
vt 0.16667 0.75000
vt 0.16667 1.00000
vt 0.33333 0.00000
vt 0.33333 0.25000
vt 0.33333 0.50000
vt 0.33333 0.75000
vt 0.33333 1.00000
vt 0.50000 0.00000
vt 0.50000 0.25000
vt 0.50000 0.50000
vt 0.50000 0.75000
vt 0.50000 1.00000
vt 0.66667 0.00000
vt 0.66667 0.25000
vt 0.66667 0.50000
vt 0.66667 0.75000
vt 0.66667 1.00000
vt 0.83333 0.00000
vt 0.83333 0.25000
vt 0.83333 0.50000
vt 0.83333 0.75000
vt 0.83333 1.00000
vt 1.00000 0.00000
vt 1.00000 0.25000
vt 1.00000 0.50000
vt 1.00000 0.75000
vt 1.00000 1.00000
vt 0.00000 0.00000
vt 0.00000 0.25000
vt 0.00000 0.50000
vt 0.00000 0.75000
vt 0.00000 1.00000
vt 0.16667 0.00000
vt 0.16667 0.25000
vt 0.16667 0.50000
vt 0.16667 0.75000
vt 0.16667 1.00000
vt 0.33333 0.00000
vt 0.33333 0.25000
vt 0.33333 0.50000
vt 0.33333 0.75000
vt 0.33333 1.00000
vt 0.50000 0.00000
vt 0.50000 0.25000
vt 0.50000 0.50000
vt 0.50000 0.75000
vt 0.50000 1.00000
vt 0.66667 0.00000
vt 0.66667 0.25000
vt 0.66667 0.50000
vt 0.66667 0.75000
vt 0.66667 1.00000
vt 0.83333 0.00000
vt 0.83333 0.25000
vt 0.83333 0.50000
vt 0.83333 0.75000
vt 0.83333 1.00000
vt 1.00000 0.00000
vt 1.00000 0.25000
vt 1.00000 0.50000
vt 1.00000 0.75000
vt 1.00000 1.00000
vt 0.00000 0.00000
vt 0.00000 0.25000
vt 0.00000 0.50000
vt 0.00000 0.75000
vt 0.00000 1.00000
vt 0.16667 0.00000
vt 0.16667 0.25000
vt 0.16667 0.50000
vt 0.16667 0.75000
vt 0.16667 1.00000
vt 0.33333 0.00000
vt 0.33333 0.25000
vt 0.33333 0.50000
vt 0.33333 0.75000
vt 0.33333 1.00000
vt 0.50000 0.00000
vt 0.50000 0.25000
vt 0.50000 0.50000
vt 0.50000 0.75000
vt 0.50000 1.00000
vt 0.66667 0.00000
vt 0.66667 0.25000
vt 0.66667 0.50000
vt 0.66667 0.75000
vt 0.66667 1.00000
vt 0.83333 0.00000
vt 0.83333 0.25000
vt 0.83333 0.50000
vt 0.83333 0.75000
vt 0.83333 1.00000
vt 1.00000 0.00000
vt 1.00000 0.25000
vt 1.00000 0.50000
vt 1.00000 0.75000
vt 1.00000 1.00000
vt 0.00000 0.00000
vt 0.00000 0.25000
vt 0.00000 0.50000
vt 0.00000 0.75000
vt 0.00000 1.00000
vt 0.16667 0.00000
vt 0.16667 0.25000
vt 0.16667 0.50000
vt 0.16667 0.75000
vt 0.16667 1.00000
vt 0.33333 0.00000
vt 0.33333 0.25000
vt 0.33333 0.50000
vt 0.33333 0.75000
vt 0.33333 1.00000
vt 0.50000 0.00000
vt 0.50000 0.25000
vt 0.50000 0.50000
vt 0.50000 0.75000
vt 0.50000 1.00000
vt 0.66667 0.00000
vt 0.66667 0.25000
vt 0.66667 0.50000
vt 0.66667 0.75000
vt 0.66667 1.00000
vt 0.83333 0.00000
vt 0.83333 0.25000
vt 0.83333 0.50000
vt 0.83333 0.75000
vt 0.83333 1.00000
vt 1.00000 0.00000
vt 1.00000 0.25000
vt 1.00000 0.50000
vt 1.00000 0.75000
vt 1.00000 1.00000
vn -1.00000 0.00000 0.00000
vn -0.08854 0.00000 0.99607
vn -0.04440 0.00000 0.99901
vn -0.02962 0.00000 0.99956
vn -0.02222 0.00000 0.99975
vn -0.50000 0.86603 0.00000
vn -0.04427 0.07668 0.99607
vn -0.02220 0.03845 0.99901
vn -0.01481 0.02565 0.99956
vn -0.01111 0.01924 0.99975
vn 0.50000 0.86603 0.00000
vn 0.04427 0.07668 0.99607
vn 0.02220 0.03845 0.99901
vn 0.01481 0.02565 0.99956
vn 0.01111 0.01924 0.99975
vn 1.00000 0.00000 0.00000
vn 0.08854 0.00000 0.99607
vn 0.04440 0.00000 0.99901
vn 0.02962 0.00000 0.99956
vn 0.02222 0.00000 0.99975
vn 0.50000 -0.86603 0.00000
vn 0.04427 -0.07668 0.99607
vn 0.02220 -0.03845 0.99901
vn 0.01481 -0.02565 0.99956
vn 0.01111 -0.01924 0.99975
vn -0.50000 -0.86603 0.00000
vn -0.04427 -0.07668 0.99607
vn -0.02220 -0.03845 0.99901
vn -0.01481 -0.02565 0.99956
vn -0.01111 -0.01924 0.99975
vn -1.00000 -0.00000 0.00000
vn -0.08854 -0.00000 0.99607
vn -0.04440 -0.00000 0.99901
vn -0.02962 -0.00000 0.99956
vn -0.02222 -0.00000 0.99975
vn -1.00000 0.00000 0.00000
vn -0.08854 0.49804 0.86262
vn -0.04440 0.49951 0.86517
vn -0.02962 0.49978 0.86565
vn -0.02222 0.49988 0.86581
vn -0.50000 0.75000 -0.43301
vn -0.04427 0.56444 0.82429
vn -0.02220 0.53281 0.84595
vn -0.01481 0.52199 0.85282
vn -0.01111 0.51654 0.85619
vn 0.50000 0.75000 -0.43301
vn 0.04427 0.56444 0.82429
vn 0.02220 0.53281 0.84595
vn 0.01481 0.52199 0.85282
vn 0.01111 0.51654 0.85619
vn 1.00000 0.00000 -0.00000
vn 0.08854 0.49804 0.86262
vn 0.04440 0.49951 0.86517
vn 0.02962 0.49978 0.86565
vn 0.02222 0.49988 0.86581
vn 0.50000 -0.75000 0.43301
vn 0.04427 0.43163 0.90096
vn 0.02220 0.46621 0.88440
vn 0.01481 0.47757 0.87847
vn 0.01111 0.48321 0.87543
vn -0.50000 -0.75000 0.43301
vn -0.04427 0.43163 0.90096
vn -0.02220 0.46621 0.88440
vn -0.01481 0.47757 0.87847
vn -0.01111 0.48321 0.87543
vn -1.00000 -0.00000 0.00000
vn -0.08854 0.49804 0.86262
vn -0.04440 0.49951 0.86517
vn -0.02962 0.49978 0.86565
vn -0.02222 0.49988 0.86581
vn -1.00000 0.00000 0.00000
vn -0.08854 0.86262 0.49804
vn -0.04440 0.86517 0.49951
vn -0.02962 0.86565 0.49978
vn -0.02222 0.86581 0.49988
vn -0.50000 0.43301 -0.75000
vn -0.04427 0.90096 0.43163
vn -0.02220 0.88440 0.46621
vn -0.01481 0.87847 0.47757
vn -0.01111 0.87543 0.48321
vn 0.50000 0.43301 -0.75000
vn 0.04427 0.90096 0.43163
vn 0.02220 0.88440 0.46621
vn 0.01481 0.87847 0.47757
vn 0.01111 0.87543 0.48321
vn 1.00000 0.00000 -0.00000
vn 0.08854 0.86262 0.49804
vn 0.04440 0.86517 0.49951
vn 0.02962 0.86565 0.49978
vn 0.02222 0.86581 0.49988
vn 0.50000 -0.43301 0.75000
vn 0.04427 0.82429 0.56444
vn 0.02220 0.84595 0.53281
vn 0.01481 0.85282 0.52199
vn 0.01111 0.85619 0.51654
vn -0.50000 -0.43301 0.75000
vn -0.04427 0.82429 0.56444
vn -0.02220 0.84595 0.53281
vn -0.01481 0.85282 0.52199
vn -0.01111 0.85619 0.51654
vn -1.00000 -0.00000 0.00000
vn -0.08854 0.86262 0.49804
vn -0.04440 0.86517 0.49951
vn -0.02962 0.86565 0.49978
vn -0.02222 0.86581 0.49988
vn 0.00000 0.00000 -1.00000
vn 0.00000 0.99607 -0.08854
vn 0.00000 0.99901 -0.04440
vn 0.00000 0.99956 -0.02962
vn 0.00000 0.99975 -0.02222
vn 0.86603 0.00000 -0.50000
vn 0.07668 0.99607 -0.04427
vn 0.03845 0.99901 -0.02220
vn 0.02565 0.99956 -0.01481
vn 0.01924 0.99975 -0.01111
vn 0.86603 -0.00000 0.50000
vn 0.07668 0.99607 0.04427
vn 0.03845 0.99901 0.02220
vn 0.02565 0.99956 0.01481
vn 0.01924 0.99975 0.01111
vn 0.00000 -0.00000 1.00000
vn 0.00000 0.99607 0.08854
vn 0.00000 0.99901 0.04440
vn 0.00000 0.99956 0.02962
vn 0.00000 0.99975 0.02222
vn -0.86603 -0.00000 0.50000
vn -0.07668 0.99607 0.04427
vn -0.03845 0.99901 0.02220
vn -0.02565 0.99956 0.01481
vn -0.01924 0.99975 0.01111
vn -0.86603 0.00000 -0.50000
vn -0.07668 0.99607 -0.04427
vn -0.03845 0.99901 -0.02220
vn -0.02565 0.99956 -0.01481
vn -0.01924 0.99975 -0.01111
vn -0.00000 0.00000 -1.00000
vn -0.00000 0.99607 -0.08854
vn -0.00000 0.99901 -0.04440
vn -0.00000 0.99956 -0.02962
vn -0.00000 0.99975 -0.02222
vn 1.00000 0.00000 0.00000
vn 0.08854 0.86262 -0.49804
vn 0.04440 0.86517 -0.49951
vn 0.02962 0.86565 -0.49978
vn 0.02222 0.86581 -0.49988
vn 0.50000 0.43301 0.75000
vn 0.04427 0.90096 -0.43163
vn 0.02220 0.88440 -0.46621
vn 0.01481 0.87847 -0.47757
vn 0.01111 0.87543 -0.48321
vn -0.50000 0.43301 0.75000
vn -0.04427 0.90096 -0.43163
vn -0.02220 0.88440 -0.46621
vn -0.01481 0.87847 -0.47757
vn -0.01111 0.87543 -0.48321
vn -1.00000 0.00000 0.00000
vn -0.08854 0.86262 -0.49804
vn -0.04440 0.86517 -0.49951
vn -0.02962 0.86565 -0.49978
vn -0.02222 0.86581 -0.49988
vn -0.50000 -0.43301 -0.75000
vn -0.04427 0.82429 -0.56444
vn -0.02220 0.84595 -0.53281
vn -0.01481 0.85282 -0.52199
vn -0.01111 0.85619 -0.51654
vn 0.50000 -0.43301 -0.75000
vn 0.04427 0.82429 -0.56444
vn 0.02220 0.84595 -0.53281
vn 0.01481 0.85282 -0.52199
vn 0.01111 0.85619 -0.51654
vn 1.00000 -0.00000 -0.00000
vn 0.08854 0.86262 -0.49804
vn 0.04440 0.86517 -0.49951
vn 0.02962 0.86565 -0.49978
vn 0.02222 0.86581 -0.49988
vn 1.00000 0.00000 0.00000
vn 0.08854 0.49804 -0.86262
vn 0.04440 0.49951 -0.86517
vn 0.02962 0.49978 -0.86565
vn 0.02222 0.49988 -0.86581
vn 0.50000 0.75000 0.43301
vn 0.04427 0.56444 -0.82429
vn 0.02220 0.53281 -0.84595
vn 0.01481 0.52199 -0.85282
vn 0.01111 0.51654 -0.85619
vn -0.50000 0.75000 0.43301
vn -0.04427 0.56444 -0.82429
vn -0.02220 0.53281 -0.84595
vn -0.01481 0.52199 -0.85282
vn -0.01111 0.51654 -0.85619
vn -1.00000 0.00000 0.00000
vn -0.08854 0.49804 -0.86262
vn -0.04440 0.49951 -0.86517
vn -0.02962 0.49978 -0.86565
vn -0.02222 0.49988 -0.86581
vn -0.50000 -0.75000 -0.43301
vn -0.04427 0.43163 -0.90096
vn -0.02220 0.46621 -0.88440
vn -0.01481 0.47757 -0.87847
vn -0.01111 0.48321 -0.87543
vn 0.50000 -0.75000 -0.43301
vn 0.04427 0.43163 -0.90096
vn 0.02220 0.46621 -0.88440
vn 0.01481 0.47757 -0.87847
vn 0.01111 0.48321 -0.87543
vn 1.00000 -0.00000 -0.00000
vn 0.08854 0.49804 -0.86262
vn 0.04440 0.49951 -0.86517
vn 0.02962 0.49978 -0.86565
vn 0.02222 0.49988 -0.86581
vn 1.00000 0.00000 0.00000
vn 0.08854 0.00000 -0.99607
vn 0.04440 0.00000 -0.99901
vn 0.02962 0.00000 -0.99956
vn 0.02222 0.00000 -0.99975
vn 0.50000 0.86603 0.00000
vn 0.04427 0.07668 -0.99607
vn 0.02220 0.03845 -0.99901
vn 0.01481 0.02565 -0.99956
vn 0.01111 0.01924 -0.99975
vn -0.50000 0.86603 0.00000
vn -0.04427 0.07668 -0.99607
vn -0.02220 0.03845 -0.99901
vn -0.01481 0.02565 -0.99956
vn -0.01111 0.01924 -0.99975
vn -1.00000 0.00000 0.00000
vn -0.08854 0.00000 -0.99607
vn -0.04440 0.00000 -0.99901
vn -0.02962 0.00000 -0.99956
vn -0.02222 0.00000 -0.99975
vn -0.50000 -0.86603 -0.00000
vn -0.04427 -0.07668 -0.99607
vn -0.02220 -0.03845 -0.99901
vn -0.01481 -0.02565 -0.99956
vn -0.01111 -0.01924 -0.99975
vn 0.50000 -0.86603 -0.00000
vn 0.04427 -0.07668 -0.99607
vn 0.02220 -0.03845 -0.99901
vn 0.01481 -0.02565 -0.99956
vn 0.01111 -0.01924 -0.99975
vn 1.00000 -0.00000 -0.00000
vn 0.08854 0.00000 -0.99607
vn 0.04440 0.00000 -0.99901
vn 0.02962 0.00000 -0.99956
vn 0.02222 0.00000 -0.99975
vn 1.00000 0.00000 0.00000
vn 0.08854 -0.49804 -0.86262
vn 0.04440 -0.49951 -0.86517
vn 0.02962 -0.49978 -0.86565
vn 0.02222 -0.49988 -0.86581
vn 0.50000 0.75000 -0.43301
vn 0.04427 -0.43163 -0.90096
vn 0.02220 -0.46621 -0.88440
vn 0.01481 -0.47757 -0.87847
vn 0.01111 -0.48321 -0.87543
vn -0.50000 0.75000 -0.43301
vn -0.04427 -0.43163 -0.90096
vn -0.02220 -0.46621 -0.88440
vn -0.01481 -0.47757 -0.87847
vn -0.01111 -0.48321 -0.87543
vn -1.00000 0.00000 -0.00000
vn -0.08854 -0.49804 -0.86262
vn -0.04440 -0.49951 -0.86517
vn -0.02962 -0.49978 -0.86565
vn -0.02222 -0.49988 -0.86581
vn -0.50000 -0.75000 0.43301
vn -0.04427 -0.56444 -0.82429
vn -0.02220 -0.53281 -0.84595
vn -0.01481 -0.52199 -0.85282
vn -0.01111 -0.51654 -0.85619
vn 0.50000 -0.75000 0.43301
vn 0.04427 -0.56444 -0.82429
vn 0.02220 -0.53281 -0.84595
vn 0.01481 -0.52199 -0.85282
vn 0.01111 -0.51654 -0.85619
vn 1.00000 -0.00000 0.00000
vn 0.08854 -0.49804 -0.86262
vn 0.04440 -0.49951 -0.86517
vn 0.02962 -0.49978 -0.86565
vn 0.02222 -0.49988 -0.86581
vn 1.00000 0.00000 0.00000
vn 0.08854 -0.86262 -0.49804
vn 0.04440 -0.86517 -0.49951
vn 0.02962 -0.86565 -0.49978
vn 0.02222 -0.86581 -0.49988
vn 0.50000 0.43301 -0.75000
vn 0.04427 -0.82429 -0.56444
vn 0.02220 -0.84595 -0.53281
vn 0.01481 -0.85282 -0.52199
vn 0.01111 -0.85619 -0.51654
vn -0.50000 0.43301 -0.75000
vn -0.04427 -0.82429 -0.56444
vn -0.02220 -0.84595 -0.53281
vn -0.01481 -0.85282 -0.52199
vn -0.01111 -0.85619 -0.51654
vn -1.00000 0.00000 -0.00000
vn -0.08854 -0.86262 -0.49804
vn -0.04440 -0.86517 -0.49951
vn -0.02962 -0.86565 -0.49978
vn -0.02222 -0.86581 -0.49988
vn -0.50000 -0.43301 0.75000
vn -0.04427 -0.90096 -0.43163
vn -0.02220 -0.88440 -0.46621
vn -0.01481 -0.87847 -0.47757
vn -0.01111 -0.87543 -0.48321
vn 0.50000 -0.43301 0.75000
vn 0.04427 -0.90096 -0.43163
vn 0.02220 -0.88440 -0.46621
vn 0.01481 -0.87847 -0.47757
vn 0.01111 -0.87543 -0.48321
vn 1.00000 -0.00000 0.00000
vn 0.08854 -0.86262 -0.49804
vn 0.04440 -0.86517 -0.49951
vn 0.02962 -0.86565 -0.49978
vn 0.02222 -0.86581 -0.49988
vn 0.00000 -0.00000 1.00000
vn 0.00000 -0.99607 0.08854
vn 0.00000 -0.99901 0.04440
vn 0.00000 -0.99956 0.02962
vn 0.00000 -0.99975 0.02222
vn 0.86603 -0.00000 0.50000
vn 0.07668 -0.99607 0.04427
vn 0.03845 -0.99901 0.02220
vn 0.02565 -0.99956 0.01481
vn 0.01924 -0.99975 0.01111
vn 0.86603 0.00000 -0.50000
vn 0.07668 -0.99607 -0.04427
vn 0.03845 -0.99901 -0.02220
vn 0.02565 -0.99956 -0.01481
vn 0.01924 -0.99975 -0.01111
vn 0.00000 0.00000 -1.00000
vn 0.00000 -0.99607 -0.08854
vn 0.00000 -0.99901 -0.04440
vn 0.00000 -0.99956 -0.02962
vn 0.00000 -0.99975 -0.02222
vn -0.86603 0.00000 -0.50000
vn -0.07668 -0.99607 -0.04427
vn -0.03845 -0.99901 -0.02220
vn -0.02565 -0.99956 -0.01481
vn -0.01924 -0.99975 -0.01111
vn -0.86603 -0.00000 0.50000
vn -0.07668 -0.99607 0.04427
vn -0.03845 -0.99901 0.02220
vn -0.02565 -0.99956 0.01481
vn -0.01924 -0.99975 0.01111
vn -0.00000 -0.00000 1.00000
vn -0.00000 -0.99607 0.08854
vn -0.00000 -0.99901 0.04440
vn -0.00000 -0.99956 0.02962
vn -0.00000 -0.99975 0.02222
vn -1.00000 0.00000 0.00000
vn -0.08854 -0.86262 0.49804
vn -0.04440 -0.86517 0.49951
vn -0.02962 -0.86565 0.49978
vn -0.02222 -0.86581 0.49988
vn -0.50000 0.43301 0.75000
vn -0.04427 -0.82429 0.56444
vn -0.02220 -0.84595 0.53281
vn -0.01481 -0.85282 0.52199
vn -0.01111 -0.85619 0.51654
vn 0.50000 0.43301 0.75000
vn 0.04427 -0.82429 0.56444
vn 0.02220 -0.84595 0.53281
vn 0.01481 -0.85282 0.52199
vn 0.01111 -0.85619 0.51654
vn 1.00000 0.00000 0.00000
vn 0.08854 -0.86262 0.49804
vn 0.04440 -0.86517 0.49951
vn 0.02962 -0.86565 0.49978
vn 0.02222 -0.86581 0.49988
vn 0.50000 -0.43301 -0.75000
vn 0.04427 -0.90096 0.43163
vn 0.02220 -0.88440 0.46621
vn 0.01481 -0.87847 0.47757
vn 0.01111 -0.87543 0.48321
vn -0.50000 -0.43301 -0.75000
vn -0.04427 -0.90096 0.43163
vn -0.02220 -0.88440 0.46621
vn -0.01481 -0.87847 0.47757
vn -0.01111 -0.87543 0.48321
vn -1.00000 -0.00000 -0.00000
vn -0.08854 -0.86262 0.49804
vn -0.04440 -0.86517 0.49951
vn -0.02962 -0.86565 0.49978
vn -0.02222 -0.86581 0.49988
vn -1.00000 0.00000 0.00000
vn -0.08854 -0.49804 0.86262
vn -0.04440 -0.49951 0.86517
vn -0.02962 -0.49978 0.86565
vn -0.02222 -0.49988 0.86581
vn -0.50000 0.75000 0.43301
vn -0.04427 -0.43163 0.90096
vn -0.02220 -0.46621 0.88440
vn -0.01481 -0.47757 0.87847
vn -0.01111 -0.48321 0.87543
vn 0.50000 0.75000 0.43301
vn 0.04427 -0.43163 0.90096
vn 0.02220 -0.46621 0.88440
vn 0.01481 -0.47757 0.87847
vn 0.01111 -0.48321 0.87543
vn 1.00000 0.00000 0.00000
vn 0.08854 -0.49804 0.86262
vn 0.04440 -0.49951 0.86517
vn 0.02962 -0.49978 0.86565
vn 0.02222 -0.49988 0.86581
vn 0.50000 -0.75000 -0.43301
vn 0.04427 -0.56444 0.82429
vn 0.02220 -0.53281 0.84595
vn 0.01481 -0.52199 0.85282
vn 0.01111 -0.51654 0.85619
vn -0.50000 -0.75000 -0.43301
vn -0.04427 -0.56444 0.82429
vn -0.02220 -0.53281 0.84595
vn -0.01481 -0.52199 0.85282
vn -0.01111 -0.51654 0.85619
vn -1.00000 -0.00000 -0.00000
vn -0.08854 -0.49804 0.86262
vn -0.04440 -0.49951 0.86517
vn -0.02962 -0.49978 0.86565
vn -0.02222 -0.49988 0.86581
f 1/1/1 6/6/6 7/7/7
f 1/1/1 7/7/7 2/2/2
f 2/2/2 7/7/7 8/8/8
f 2/2/2 8/8/8 3/3/3
f 3/3/3 8/8/8 9/9/9
f 3/3/3 9/9/9 4/4/4
f 4/4/4 9/9/9 10/10/10
f 4/4/4 10/10/10 5/5/5
f 6/6/6 11/11/11 12/12/12
f 6/6/6 12/12/12 7/7/7
f 7/7/7 12/12/12 13/13/13
f 7/7/7 13/13/13 8/8/8
f 8/8/8 13/13/13 14/14/14
f 8/8/8 14/14/14 9/9/9
f 9/9/9 14/14/14 15/15/15
f 9/9/9 15/15/15 10/10/10
f 11/11/11 16/16/16 17/17/17
f 11/11/11 17/17/17 12/12/12
f 12/12/12 17/17/17 18/18/18
f 12/12/12 18/18/18 13/13/13
f 13/13/13 18/18/18 19/19/19
f 13/13/13 19/19/19 14/14/14
f 14/14/14 19/19/19 20/20/20
f 14/14/14 20/20/20 15/15/15
f 16/16/16 21/21/21 22/22/22
f 16/16/16 22/22/22 17/17/17
f 17/17/17 22/22/22 23/23/23
f 17/17/17 23/23/23 18/18/18
f 18/18/18 23/23/23 24/24/24
f 18/18/18 24/24/24 19/19/19
f 19/19/19 24/24/24 25/25/25
f 19/19/19 25/25/25 20/20/20
f 21/21/21 26/26/26 27/27/27
f 21/21/21 27/27/27 22/22/22
f 22/22/22 27/27/27 28/28/28
f 22/22/22 28/28/28 23/23/23
f 23/23/23 28/28/28 29/29/29
f 23/23/23 29/29/29 24/24/24
f 24/24/24 29/29/29 30/30/30
f 24/24/24 30/30/30 25/25/25
f 26/26/26 31/31/31 32/32/32
f 26/26/26 32/32/32 27/27/27
f 27/27/27 32/32/32 33/33/33
f 27/27/27 33/33/33 28/28/28
f 28/28/28 33/33/33 34/34/34
f 28/28/28 34/34/34 29/29/29
f 29/29/29 34/34/34 35/35/35
f 29/29/29 35/35/35 30/30/30
f 36/36/36 41/41/41 42/42/42
f 36/36/36 42/42/42 37/37/37
f 37/37/37 42/42/42 43/43/43
f 37/37/37 43/43/43 38/38/38
f 38/38/38 43/43/43 44/44/44
f 38/38/38 44/44/44 39/39/39
f 39/39/39 44/44/44 45/45/45
f 39/39/39 45/45/45 40/40/40
f 41/41/41 46/46/46 47/47/47
f 41/41/41 47/47/47 42/42/42
f 42/42/42 47/47/47 48/48/48
f 42/42/42 48/48/48 43/43/43
f 43/43/43 48/48/48 49/49/49
f 43/43/43 49/49/49 44/44/44
f 44/44/44 49/49/49 50/50/50
f 44/44/44 50/50/50 45/45/45
f 46/46/46 51/51/51 52/52/52
f 46/46/46 52/52/52 47/47/47
f 47/47/47 52/52/52 53/53/53
f 47/47/47 53/53/53 48/48/48
f 48/48/48 53/53/53 54/54/54
f 48/48/48 54/54/54 49/49/49
f 49/49/49 54/54/54 55/55/55
f 49/49/49 55/55/55 50/50/50
f 51/51/51 56/56/56 57/57/57
f 51/51/51 57/57/57 52/52/52
f 52/52/52 57/57/57 58/58/58
f 52/52/52 58/58/58 53/53/53
f 53/53/53 58/58/58 59/59/59
f 53/53/53 59/59/59 54/54/54
f 54/54/54 59/59/59 60/60/60
f 54/54/54 60/60/60 55/55/55
f 56/56/56 61/61/61 62/62/62
f 56/56/56 62/62/62 57/57/57
f 57/57/57 62/62/62 63/63/63
f 57/57/57 63/63/63 58/58/58
f 58/58/58 63/63/63 64/64/64
f 58/58/58 64/64/64 59/59/59
f 59/59/59 64/64/64 65/65/65
f 59/59/59 65/65/65 60/60/60
f 61/61/61 66/66/66 67/67/67
f 61/61/61 67/67/67 62/62/62
f 62/62/62 67/67/67 68/68/68
f 62/62/62 68/68/68 63/63/63
f 63/63/63 68/68/68 69/69/69
f 63/63/63 69/69/69 64/64/64
f 64/64/64 69/69/69 70/70/70
f 64/64/64 70/70/70 65/65/65
f 71/71/71 76/76/76 77/77/77
f 71/71/71 77/77/77 72/72/72
f 72/72/72 77/77/77 78/78/78
f 72/72/72 78/78/78 73/73/73
f 73/73/73 78/78/78 79/79/79
f 73/73/73 79/79/79 74/74/74
f 74/74/74 79/79/79 80/80/80
f 74/74/74 80/80/80 75/75/75
f 76/76/76 81/81/81 82/82/82
f 76/76/76 82/82/82 77/77/77
f 77/77/77 82/82/82 83/83/83
f 77/77/77 83/83/83 78/78/78
f 78/78/78 83/83/83 84/84/84
f 78/78/78 84/84/84 79/79/79
f 79/79/79 84/84/84 85/85/85
f 79/79/79 85/85/85 80/80/80
f 81/81/81 86/86/86 87/87/87
f 81/81/81 87/87/87 82/82/82
f 82/82/82 87/87/87 88/88/88
f 82/82/82 88/88/88 83/83/83
f 83/83/83 88/88/88 89/89/89
f 83/83/83 89/89/89 84/84/84
f 84/84/84 89/89/89 90/90/90
f 84/84/84 90/90/90 85/85/85
f 86/86/86 91/91/91 92/92/92
f 86/86/86 92/92/92 87/87/87
f 87/87/87 92/92/92 93/93/93
f 87/87/87 93/93/93 88/88/88
f 88/88/88 93/93/93 94/94/94
f 88/88/88 94/94/94 89/89/89
f 89/89/89 94/94/94 95/95/95
f 89/89/89 95/95/95 90/90/90
f 91/91/91 96/96/96 97/97/97
f 91/91/91 97/97/97 92/92/92
f 92/92/92 97/97/97 98/98/98
f 92/92/92 98/98/98 93/93/93
f 93/93/93 98/98/98 99/99/99
f 93/93/93 99/99/99 94/94/94
f 94/94/94 99/99/99 100/100/100
f 94/94/94 100/100/100 95/95/95
f 96/96/96 101/101/101 102/102/102
f 96/96/96 102/102/102 97/97/97
f 97/97/97 102/102/102 103/103/103
f 97/97/97 103/103/103 98/98/98
f 98/98/98 103/103/103 104/104/104
f 98/98/98 104/104/104 99/99/99
f 99/99/99 104/104/104 105/105/105
f 99/99/99 105/105/105 100/100/100
f 106/106/106 111/111/111 112/112/112
f 106/106/106 112/112/112 107/107/107
f 107/107/107 112/112/112 113/113/113
f 107/107/107 113/113/113 108/108/108
f 108/108/108 113/113/113 114/114/114
f 108/108/108 114/114/114 109/109/109
f 109/109/109 114/114/114 115/115/115
f 109/109/109 115/115/115 110/110/110
f 111/111/111 116/116/116 117/117/117
f 111/111/111 117/117/117 112/112/112
f 112/112/112 117/117/117 118/118/118
f 112/112/112 118/118/118 113/113/113
f 113/113/113 118/118/118 119/119/119
f 113/113/113 119/119/119 114/114/114
f 114/114/114 119/119/119 120/120/120
f 114/114/114 120/120/120 115/115/115
f 116/116/116 121/121/121 122/122/122
f 116/116/116 122/122/122 117/117/117
f 117/117/117 122/122/122 123/123/123
f 117/117/117 123/123/123 118/118/118
f 118/118/118 123/123/123 124/124/124
f 118/118/118 124/124/124 119/119/119
f 119/119/119 124/124/124 125/125/125
f 119/119/119 125/125/125 120/120/120
f 121/121/121 126/126/126 127/127/127
f 121/121/121 127/127/127 122/122/122
f 122/122/122 127/127/127 128/128/128
f 122/122/122 128/128/128 123/123/123
f 123/123/123 128/128/128 129/129/129
f 123/123/123 129/129/129 124/124/124
f 124/124/124 129/129/129 130/130/130
f 124/124/124 130/130/130 125/125/125
f 126/126/126 131/131/131 132/132/132
f 126/126/126 132/132/132 127/127/127
f 127/127/127 132/132/132 133/133/133
f 127/127/127 133/133/133 128/128/128
f 128/128/128 133/133/133 134/134/134
f 128/128/128 134/134/134 129/129/129
f 129/129/129 134/134/134 135/135/135
f 129/129/129 135/135/135 130/130/130
f 131/131/131 136/136/136 137/137/137
f 131/131/131 137/137/137 132/132/132
f 132/132/132 137/137/137 138/138/138
f 132/132/132 138/138/138 133/133/133
f 133/133/133 138/138/138 139/139/139
f 133/133/133 139/139/139 134/134/134
f 134/134/134 139/139/139 140/140/140
f 134/134/134 140/140/140 135/135/135
f 141/141/141 146/146/146 147/147/147
f 141/141/141 147/147/147 142/142/142
f 142/142/142 147/147/147 148/148/148
f 142/142/142 148/148/148 143/143/143
f 143/143/143 148/148/148 149/149/149
f 143/143/143 149/149/149 144/144/144
f 144/144/144 149/149/149 150/150/150
f 144/144/144 150/150/150 145/145/145
f 146/146/146 151/151/151 152/152/152
f 146/146/146 152/152/152 147/147/147
f 147/147/147 152/152/152 153/153/153
f 147/147/147 153/153/153 148/148/148
f 148/148/148 153/153/153 154/154/154
f 148/148/148 154/154/154 149/149/149
f 149/149/149 154/154/154 155/155/155
f 149/149/149 155/155/155 150/150/150
f 151/151/151 156/156/156 157/157/157
f 151/151/151 157/157/157 152/152/152
f 152/152/152 157/157/157 158/158/158
f 152/152/152 158/158/158 153/153/153
f 153/153/153 158/158/158 159/159/159
f 153/153/153 159/159/159 154/154/154
f 154/154/154 159/159/159 160/160/160
f 154/154/154 160/160/160 155/155/155
f 156/156/156 161/161/161 162/162/162
f 156/156/156 162/162/162 157/157/157
f 157/157/157 162/162/162 163/163/163
f 157/157/157 163/163/163 158/158/158
f 158/158/158 163/163/163 164/164/164
f 158/158/158 164/164/164 159/159/159
f 159/159/159 164/164/164 165/165/165
f 159/159/159 165/165/165 160/160/160
f 161/161/161 166/166/166 167/167/167
f 161/161/161 167/167/167 162/162/162
f 162/162/162 167/167/167 168/168/168
f 162/162/162 168/168/168 163/163/163
f 163/163/163 168/168/168 169/169/169
f 163/163/163 169/169/169 164/164/164
f 164/164/164 169/169/169 170/170/170
f 164/164/164 170/170/170 165/165/165
f 166/166/166 171/171/171 172/172/172
f 166/166/166 172/172/172 167/167/167
f 167/167/167 172/172/172 173/173/173
f 167/167/167 173/173/173 168/168/168
f 168/168/168 173/173/173 174/174/174
f 168/168/168 174/174/174 169/169/169
f 169/169/169 174/174/174 175/175/175
f 169/169/169 175/175/175 170/170/170
f 176/176/176 181/181/181 182/182/182
f 176/176/176 182/182/182 177/177/177
f 177/177/177 182/182/182 183/183/183
f 177/177/177 183/183/183 178/178/178
f 178/178/178 183/183/183 184/184/184
f 178/178/178 184/184/184 179/179/179
f 179/179/179 184/184/184 185/185/185
f 179/179/179 185/185/185 180/180/180
f 181/181/181 186/186/186 187/187/187
f 181/181/181 187/187/187 182/182/182
f 182/182/182 187/187/187 188/188/188
f 182/182/182 188/188/188 183/183/183
f 183/183/183 188/188/188 189/189/189
f 183/183/183 189/189/189 184/184/184
f 184/184/184 189/189/189 190/190/190
f 184/184/184 190/190/190 185/185/185
f 186/186/186 191/191/191 192/192/192
f 186/186/186 192/192/192 187/187/187
f 187/187/187 192/192/192 193/193/193
f 187/187/187 193/193/193 188/188/188
f 188/188/188 193/193/193 194/194/194
f 188/188/188 194/194/194 189/189/189
f 189/189/189 194/194/194 195/195/195
f 189/189/189 195/195/195 190/190/190
f 191/191/191 196/196/196 197/197/197
f 191/191/191 197/197/197 192/192/192
f 192/192/192 197/197/197 198/198/198
f 192/192/192 198/198/198 193/193/193
f 193/193/193 198/198/198 199/199/199
f 193/193/193 199/199/199 194/194/194
f 194/194/194 199/199/199 200/200/200
f 194/194/194 200/200/200 195/195/195
f 196/196/196 201/201/201 202/202/202
f 196/196/196 202/202/202 197/197/197
f 197/197/197 202/202/202 203/203/203
f 197/197/197 203/203/203 198/198/198
f 198/198/198 203/203/203 204/204/204
f 198/198/198 204/204/204 199/199/199
f 199/199/199 204/204/204 205/205/205
f 199/199/199 205/205/205 200/200/200
f 201/201/201 206/206/206 207/207/207
f 201/201/201 207/207/207 202/202/202
f 202/202/202 207/207/207 208/208/208
f 202/202/202 208/208/208 203/203/203
f 203/203/203 208/208/208 209/209/209
f 203/203/203 209/209/209 204/204/204
f 204/204/204 209/209/209 210/210/210
f 204/204/204 210/210/210 205/205/205
f 211/211/211 216/216/216 217/217/217
f 211/211/211 217/217/217 212/212/212
f 212/212/212 217/217/217 218/218/218
f 212/212/212 218/218/218 213/213/213
f 213/213/213 218/218/218 219/219/219
f 213/213/213 219/219/219 214/214/214
f 214/214/214 219/219/219 220/220/220
f 214/214/214 220/220/220 215/215/215
f 216/216/216 221/221/221 222/222/222
f 216/216/216 222/222/222 217/217/217
f 217/217/217 222/222/222 223/223/223
f 217/217/217 223/223/223 218/218/218
f 218/218/218 223/223/223 224/224/224
f 218/218/218 224/224/224 219/219/219
f 219/219/219 224/224/224 225/225/225
f 219/219/219 225/225/225 220/220/220
f 221/221/221 226/226/226 227/227/227
f 221/221/221 227/227/227 222/222/222
f 222/222/222 227/227/227 228/228/228
f 222/222/222 228/228/228 223/223/223
f 223/223/223 228/228/228 229/229/229
f 223/223/223 229/229/229 224/224/224
f 224/224/224 229/229/229 230/230/230
f 224/224/224 230/230/230 225/225/225
f 226/226/226 231/231/231 232/232/232
f 226/226/226 232/232/232 227/227/227
f 227/227/227 232/232/232 233/233/233
f 227/227/227 233/233/233 228/228/228
f 228/228/228 233/233/233 234/234/234
f 228/228/228 234/234/234 229/229/229
f 229/229/229 234/234/234 235/235/235
f 229/229/229 235/235/235 230/230/230
f 231/231/231 236/236/236 237/237/237
f 231/231/231 237/237/237 232/232/232
f 232/232/232 237/237/237 238/238/238
f 232/232/232 238/238/238 233/233/233
f 233/233/233 238/238/238 239/239/239
f 233/233/233 239/239/239 234/234/234
f 234/234/234 239/239/239 240/240/240
f 234/234/234 240/240/240 235/235/235
f 236/236/236 241/241/241 242/242/242
f 236/236/236 242/242/242 237/237/237
f 237/237/237 242/242/242 243/243/243
f 237/237/237 243/243/243 238/238/238
f 238/238/238 243/243/243 244/244/244
f 238/238/238 244/244/244 239/239/239
f 239/239/239 244/244/244 245/245/245
f 239/239/239 245/245/245 240/240/240
f 246/246/246 251/251/251 252/252/252
f 246/246/246 252/252/252 247/247/247
f 247/247/247 252/252/252 253/253/253
f 247/247/247 253/253/253 248/248/248
f 248/248/248 253/253/253 254/254/254
f 248/248/248 254/254/254 249/249/249
f 249/249/249 254/254/254 255/255/255
f 249/249/249 255/255/255 250/250/250
f 251/251/251 256/256/256 257/257/257
f 251/251/251 257/257/257 252/252/252
f 252/252/252 257/257/257 258/258/258
f 252/252/252 258/258/258 253/253/253
f 253/253/253 258/258/258 259/259/259
f 253/253/253 259/259/259 254/254/254
f 254/254/254 259/259/259 260/260/260
f 254/254/254 260/260/260 255/255/255
f 256/256/256 261/261/261 262/262/262
f 256/256/256 262/262/262 257/257/257
f 257/257/257 262/262/262 263/263/263
f 257/257/257 263/263/263 258/258/258
f 258/258/258 263/263/263 264/264/264
f 258/258/258 264/264/264 259/259/259
f 259/259/259 264/264/264 265/265/265
f 259/259/259 265/265/265 260/260/260
f 261/261/261 266/266/266 267/267/267
f 261/261/261 267/267/267 262/262/262
f 262/262/262 267/267/267 268/268/268
f 262/262/262 268/268/268 263/263/263
f 263/263/263 268/268/268 269/269/269
f 263/263/263 269/269/269 264/264/264
f 264/264/264 269/269/269 270/270/270
f 264/264/264 270/270/270 265/265/265
f 266/266/266 271/271/271 272/272/272
f 266/266/266 272/272/272 267/267/267
f 267/267/267 272/272/272 273/273/273
f 267/267/267 273/273/273 268/268/268
f 268/268/268 273/273/273 274/274/274
f 268/268/268 274/274/274 269/269/269
f 269/269/269 274/274/274 275/275/275
f 269/269/269 275/275/275 270/270/270
f 271/271/271 276/276/276 277/277/277
f 271/271/271 277/277/277 272/272/272
f 272/272/272 277/277/277 278/278/278
f 272/272/272 278/278/278 273/273/273
f 273/273/273 278/278/278 279/279/279
f 273/273/273 279/279/279 274/274/274
f 274/274/274 279/279/279 280/280/280
f 274/274/274 280/280/280 275/275/275
f 281/281/281 286/286/286 287/287/287
f 281/281/281 287/287/287 282/282/282
f 282/282/282 287/287/287 288/288/288
f 282/282/282 288/288/288 283/283/283
f 283/283/283 288/288/288 289/289/289
f 283/283/283 289/289/289 284/284/284
f 284/284/284 289/289/289 290/290/290
f 284/284/284 290/290/290 285/285/285
f 286/286/286 291/291/291 292/292/292
f 286/286/286 292/292/292 287/287/287
f 287/287/287 292/292/292 293/293/293
f 287/287/287 293/293/293 288/288/288
f 288/288/288 293/293/293 294/294/294
f 288/288/288 294/294/294 289/289/289
f 289/289/289 294/294/294 295/295/295
f 289/289/289 295/295/295 290/290/290
f 291/291/291 296/296/296 297/297/297
f 291/291/291 297/297/297 292/292/292
f 292/292/292 297/297/297 298/298/298
f 292/292/292 298/298/298 293/293/293
f 293/293/293 298/298/298 299/299/299
f 293/293/293 299/299/299 294/294/294
f 294/294/294 299/299/299 300/300/300
f 294/294/294 300/300/300 295/295/295
f 296/296/296 301/301/301 302/302/302
f 296/296/296 302/302/302 297/297/297
f 297/297/297 302/302/302 303/303/303
f 297/297/297 303/303/303 298/298/298
f 298/298/298 303/303/303 304/304/304
f 298/298/298 304/304/304 299/299/299
f 299/299/299 304/304/304 305/305/305
f 299/299/299 305/305/305 300/300/300
f 301/301/301 306/306/306 307/307/307
f 301/301/301 307/307/307 302/302/302
f 302/302/302 307/307/307 308/308/308
f 302/302/302 308/308/308 303/303/303
f 303/303/303 308/308/308 309/309/309
f 303/303/303 309/309/309 304/304/304
f 304/304/304 309/309/309 310/310/310
f 304/304/304 310/310/310 305/305/305
f 306/306/306 311/311/311 312/312/312
f 306/306/306 312/312/312 307/307/307
f 307/307/307 312/312/312 313/313/313
f 307/307/307 313/313/313 308/308/308
f 308/308/308 313/313/313 314/314/314
f 308/308/308 314/314/314 309/309/309
f 309/309/309 314/314/314 315/315/315
f 309/309/309 315/315/315 310/310/310
f 316/316/316 321/321/321 322/322/322
f 316/316/316 322/322/322 317/317/317
f 317/317/317 322/322/322 323/323/323
f 317/317/317 323/323/323 318/318/318
f 318/318/318 323/323/323 324/324/324
f 318/318/318 324/324/324 319/319/319
f 319/319/319 324/324/324 325/325/325
f 319/319/319 325/325/325 320/320/320
f 321/321/321 326/326/326 327/327/327
f 321/321/321 327/327/327 322/322/322
f 322/322/322 327/327/327 328/328/328
f 322/322/322 328/328/328 323/323/323
f 323/323/323 328/328/328 329/329/329
f 323/323/323 329/329/329 324/324/324
f 324/324/324 329/329/329 330/330/330
f 324/324/324 330/330/330 325/325/325
f 326/326/326 331/331/331 332/332/332
f 326/326/326 332/332/332 327/327/327
f 327/327/327 332/332/332 333/333/333
f 327/327/327 333/333/333 328/328/328
f 328/328/328 333/333/333 334/334/334
f 328/328/328 334/334/334 329/329/329
f 329/329/329 334/334/334 335/335/335
f 329/329/329 335/335/335 330/330/330
f 331/331/331 336/336/336 337/337/337
f 331/331/331 337/337/337 332/332/332
f 332/332/332 337/337/337 338/338/338
f 332/332/332 338/338/338 333/333/333
f 333/333/333 338/338/338 339/339/339
f 333/333/333 339/339/339 334/334/334
f 334/334/334 339/339/339 340/340/340
f 334/334/334 340/340/340 335/335/335
f 336/336/336 341/341/341 342/342/342
f 336/336/336 342/342/342 337/337/337
f 337/337/337 342/342/342 343/343/343
f 337/337/337 343/343/343 338/338/338
f 338/338/338 343/343/343 344/344/344
f 338/338/338 344/344/344 339/339/339
f 339/339/339 344/344/344 345/345/345
f 339/339/339 345/345/345 340/340/340
f 341/341/341 346/346/346 347/347/347
f 341/341/341 347/347/347 342/342/342
f 342/342/342 347/347/347 348/348/348
f 342/342/342 348/348/348 343/343/343
f 343/343/343 348/348/348 349/349/349
f 343/343/343 349/349/349 344/344/344
f 344/344/344 349/349/349 350/350/350
f 344/344/344 350/350/350 345/345/345
f 351/351/351 356/356/356 357/357/357
f 351/351/351 357/357/357 352/352/352
f 352/352/352 357/357/357 358/358/358
f 352/352/352 358/358/358 353/353/353
f 353/353/353 358/358/358 359/359/359
f 353/353/353 359/359/359 354/354/354
f 354/354/354 359/359/359 360/360/360
f 354/354/354 360/360/360 355/355/355
f 356/356/356 361/361/361 362/362/362
f 356/356/356 362/362/362 357/357/357
f 357/357/357 362/362/362 363/363/363
f 357/357/357 363/363/363 358/358/358
f 358/358/358 363/363/363 364/364/364
f 358/358/358 364/364/364 359/359/359
f 359/359/359 364/364/364 365/365/365
f 359/359/359 365/365/365 360/360/360
f 361/361/361 366/366/366 367/367/367
f 361/361/361 367/367/367 362/362/362
f 362/362/362 367/367/367 368/368/368
f 362/362/362 368/368/368 363/363/363
f 363/363/363 368/368/368 369/369/369
f 363/363/363 369/369/369 364/364/364
f 364/364/364 369/369/369 370/370/370
f 364/364/364 370/370/370 365/365/365
f 366/366/366 371/371/371 372/372/372
f 366/366/366 372/372/372 367/367/367
f 367/367/367 372/372/372 373/373/373
f 367/367/367 373/373/373 368/368/368
f 368/368/368 373/373/373 374/374/374
f 368/368/368 374/374/374 369/369/369
f 369/369/369 374/374/374 375/375/375
f 369/369/369 375/375/375 370/370/370
f 371/371/371 376/376/376 377/377/377
f 371/371/371 377/377/377 372/372/372
f 372/372/372 377/377/377 378/378/378
f 372/372/372 378/378/378 373/373/373
f 373/373/373 378/378/378 379/379/379
f 373/373/373 379/379/379 374/374/374
f 374/374/374 379/379/379 380/380/380
f 374/374/374 380/380/380 375/375/375
f 376/376/376 381/381/381 382/382/382
f 376/376/376 382/382/382 377/377/377
f 377/377/377 382/382/382 383/383/383
f 377/377/377 383/383/383 378/378/378
f 378/378/378 383/383/383 384/384/384
f 378/378/378 384/384/384 379/379/379
f 379/379/379 384/384/384 385/385/385
f 379/379/379 385/385/385 380/380/380
f 386/386/386 391/391/391 392/392/392
f 386/386/386 392/392/392 387/387/387
f 387/387/387 392/392/392 393/393/393
f 387/387/387 393/393/393 388/388/388
f 388/388/388 393/393/393 394/394/394
f 388/388/388 394/394/394 389/389/389
f 389/389/389 394/394/394 395/395/395
f 389/389/389 395/395/395 390/390/390
f 391/391/391 396/396/396 397/397/397
f 391/391/391 397/397/397 392/392/392
f 392/392/392 397/397/397 398/398/398
f 392/392/392 398/398/398 393/393/393
f 393/393/393 398/398/398 399/399/399
f 393/393/393 399/399/399 394/394/394
f 394/394/394 399/399/399 400/400/400
f 394/394/394 400/400/400 395/395/395
f 396/396/396 401/401/401 402/402/402
f 396/396/396 402/402/402 397/397/397
f 397/397/397 402/402/402 403/403/403
f 397/397/397 403/403/403 398/398/398
f 398/398/398 403/403/403 404/404/404
f 398/398/398 404/404/404 399/399/399
f 399/399/399 404/404/404 405/405/405
f 399/399/399 405/405/405 400/400/400
f 401/401/401 406/406/406 407/407/407
f 401/401/401 407/407/407 402/402/402
f 402/402/402 407/407/407 408/408/408
f 402/402/402 408/408/408 403/403/403
f 403/403/403 408/408/408 409/409/409
f 403/403/403 409/409/409 404/404/404
f 404/404/404 409/409/409 410/410/410
f 404/404/404 410/410/410 405/405/405
f 406/406/406 411/411/411 412/412/412
f 406/406/406 412/412/412 407/407/407
f 407/407/407 412/412/412 413/413/413
f 407/407/407 413/413/413 408/408/408
f 408/408/408 413/413/413 414/414/414
f 408/408/408 414/414/414 409/409/409
f 409/409/409 414/414/414 415/415/415
f 409/409/409 415/415/415 410/410/410
f 411/411/411 416/416/416 417/417/417
f 411/411/411 417/417/417 412/412/412
f 412/412/412 417/417/417 418/418/418
f 412/412/412 418/418/418 413/413/413
f 413/413/413 418/418/418 419/419/419
f 413/413/413 419/419/419 414/414/414
f 414/414/414 419/419/419 420/420/420
f 414/414/414 420/420/420 415/415/415
