# procedural asset
v 0.00298 0.98000 -0.40583
v -0.01702 0.98603 -0.40814
v -0.03702 0.99197 -0.41044
v -0.05702 0.99773 -0.41275
v -0.07702 1.00324 -0.41506
v -0.09702 1.00840 -0.41737
v -0.11702 1.01316 -0.41967
v -0.13702 1.01743 -0.42198
v -0.15702 1.02115 -0.42429
v -0.17702 1.02427 -0.42660
v -0.19702 1.02675 -0.42891
v -0.21702 1.02855 -0.43121
v -0.23702 1.02964 -0.43352
v -0.23400 1.03000 -0.41000
v -0.23702 1.02964 -0.38648
v -0.21702 1.02855 -0.38879
v -0.19702 1.02675 -0.39109
v -0.17702 1.02427 -0.39340
v -0.15702 1.02115 -0.39571
v -0.13702 1.01743 -0.39802
v -0.11702 1.01316 -0.40033
v -0.09702 1.00840 -0.40263
v -0.07702 1.00324 -0.40494
v -0.05702 0.99773 -0.40725
v -0.03702 0.99197 -0.40956
v -0.01702 0.98603 -0.41186
v 0.00298 0.98000 -0.41417
v 0.00559 0.98953 -0.40353
v -0.01442 0.99556 -0.40584
v -0.03448 1.00152 -0.40816
v -0.05458 1.00731 -0.41048
v -0.07471 1.01285 -0.41280
v -0.09488 1.01806 -0.41513
v -0.11508 1.02286 -0.41746
v -0.13532 1.02718 -0.41979
v -0.15559 1.03096 -0.42213
v -0.17588 1.03413 -0.42447
v -0.19620 1.03664 -0.42682
v -0.21654 1.03847 -0.42917
v -0.23689 1.03958 -0.43151
v -0.23598 1.03995 -0.41000
v -0.23689 1.03958 -0.38849
v -0.21654 1.03847 -0.39083
v -0.19620 1.03664 -0.39318
v -0.17588 1.03413 -0.39553
v -0.15559 1.03096 -0.39787
v -0.13532 1.02718 -0.40021
v -0.11508 1.02286 -0.40254
v -0.09488 1.01806 -0.40487
v -0.07471 1.01285 -0.40720
v -0.05458 1.00731 -0.40952
v -0.03448 1.00152 -0.41184
v -0.01442 0.99556 -0.41416
v 0.00559 0.98953 -0.41647
v 0.00736 0.99761 -0.39766
v -0.01268 1.00365 -0.39997
v -0.03278 1.00962 -0.40229
v -0.05296 1.01543 -0.40462
v -0.07320 1.02100 -0.40695
v -0.09351 1.02625 -0.40930
v -0.11389 1.03109 -0.41165
v -0.13433 1.03546 -0.41401
v -0.15482 1.03927 -0.41637
v -0.17537 1.04248 -0.41874
v -0.19596 1.04503 -0.42112
v -0.21658 1.04688 -0.42350
v -0.23723 1.04801 -0.42588
v -0.24162 1.04838 -0.41000
v -0.23723 1.04801 -0.39412
v -0.21658 1.04688 -0.39650
v -0.19596 1.04503 -0.39888
v -0.17537 1.04248 -0.40126
v -0.15482 1.03927 -0.40363
v -0.13433 1.03546 -0.40599
v -0.11389 1.03109 -0.40835
v -0.09351 1.02625 -0.41070
v -0.07320 1.02100 -0.41305
v -0.05296 1.01543 -0.41538
v -0.03278 1.00962 -0.41771
v -0.01268 1.00365 -0.42003
v 0.00736 0.99761 -0.42234
v 0.00800 1.00301 -0.38909
v -0.01205 1.00905 -0.39141
v -0.03218 1.01503 -0.39373
v -0.05241 1.02086 -0.39606
v -0.07273 1.02645 -0.39841
v -0.09314 1.03172 -0.40076
v -0.11363 1.03659 -0.40313
v -0.13420 1.04098 -0.40550
v -0.15485 1.04483 -0.40788
v -0.17556 1.04806 -0.41027
v -0.19633 1.05064 -0.41267
v -0.21715 1.05251 -0.41507
v -0.23800 1.05364 -0.41748
v -0.25005 1.05402 -0.41000
v -0.23800 1.05364 -0.40252
v -0.21715 1.05251 -0.40493
v -0.19633 1.05064 -0.40733
v -0.17556 1.04806 -0.40973
v -0.15485 1.04483 -0.41212
v -0.13420 1.04098 -0.41450
v -0.11363 1.03659 -0.41687
v -0.09314 1.03172 -0.41924
v -0.07273 1.02645 -0.42159
v -0.05241 1.02086 -0.42394
v -0.03218 1.01503 -0.42627
v -0.01205 1.00905 -0.42859
v 0.00800 1.00301 -0.43091
v 0.00742 1.00490 -0.37914
v -0.01263 1.01094 -0.38146
v -0.03277 1.01693 -0.38378
v -0.05302 1.02276 -0.38612
v -0.07337 1.02836 -0.38847
v -0.09381 1.03364 -0.39082
v -0.11434 1.03852 -0.39319
v -0.13496 1.04293 -0.39557
v -0.15566 1.04678 -0.39796
v -0.17643 1.05002 -0.40036
v -0.19727 1.05260 -0.40276
v -0.21815 1.05448 -0.40517
v -0.23907 1.05562 -0.40758
v -0.26000 1.05600 -0.41000
v -0.23907 1.05562 -0.41242
v -0.21815 1.05448 -0.41483
v -0.19727 1.05260 -0.41724
v -0.17643 1.05002 -0.41964
v -0.15566 1.04678 -0.42204
v -0.13496 1.04293 -0.42443
v -0.11434 1.03852 -0.42681
v -0.09381 1.03364 -0.42918
v -0.07337 1.02836 -0.43153
v -0.05302 1.02276 -0.43388
v -0.03277 1.01693 -0.43622
v -0.01263 1.01094 -0.43854
v 0.00742 1.00490 -0.44086
v 0.00572 1.00301 -0.36932
v -0.01433 1.00905 -0.37164
v -0.03447 1.01503 -0.37396
v -0.05469 1.02086 -0.37630
v -0.07501 1.02645 -0.37864
v -0.09542 1.03172 -0.38099
v -0.11591 1.03659 -0.38336
v -0.13648 1.04098 -0.38573
v -0.15713 1.04483 -0.38811
v -0.17784 1.04806 -0.39050
v -0.19862 1.05064 -0.39290
v -0.21943 1.05251 -0.39530
v -0.24028 1.05364 -0.39771
v -0.26995 1.05402 -0.41000
v -0.24028 1.05364 -0.42229
v -0.21943 1.05251 -0.42470
v -0.19862 1.05064 -0.42710
v -0.17784 1.04806 -0.42950
v -0.15713 1.04483 -0.43189
v -0.13648 1.04098 -0.43427
v -0.11591 1.03659 -0.43664
v -0.09542 1.03172 -0.43901
v -0.07501 1.02645 -0.44136
v -0.05469 1.02086 -0.44370
v -0.03447 1.01503 -0.44604
v -0.01433 1.00905 -0.44836
v 0.00572 1.00301 -0.45068
v 0.00314 0.99761 -0.36113
v -0.01689 1.00365 -0.36344
v -0.03700 1.00962 -0.36576
v -0.05717 1.01543 -0.36809
v -0.07742 1.02100 -0.37043
v -0.09773 1.02625 -0.37277
v -0.11810 1.03109 -0.37512
v -0.13854 1.03546 -0.37748
v -0.15904 1.03927 -0.37984
v -0.17958 1.04248 -0.38221
v -0.20017 1.04503 -0.38459
v -0.22080 1.04688 -0.38697
v -0.24145 1.04801 -0.38935
v -0.27838 1.04838 -0.41000
v -0.24145 1.04801 -0.43065
v -0.22080 1.04688 -0.43303
v -0.20017 1.04503 -0.43541
v -0.17958 1.04248 -0.43779
v -0.15904 1.03927 -0.44016
v -0.13854 1.03546 -0.44252
v -0.11810 1.03109 -0.44488
v -0.09773 1.02625 -0.44723
v -0.07742 1.02100 -0.44957
v -0.05717 1.01543 -0.45191
v -0.03700 1.00962 -0.45424
v -0.01689 1.00365 -0.45656
v 0.00314 0.99761 -0.45887
v 0.00009 0.98953 -0.35581
v -0.01993 0.99556 -0.35812
v -0.03999 1.00152 -0.36043
v -0.06008 1.00731 -0.36275
v -0.08022 1.01285 -0.36508
v -0.10038 1.01806 -0.36740
v -0.12059 1.02286 -0.36973
v -0.14082 1.02718 -0.37207
v -0.16109 1.03096 -0.37441
v -0.18139 1.03413 -0.37675
v -0.20171 1.03664 -0.37909
v -0.22205 1.03847 -0.38144
v -0.24240 1.03958 -0.38379
v -0.28402 1.03995 -0.41000
v -0.24240 1.03958 -0.43621
v -0.22205 1.03847 -0.43856
v -0.20171 1.03664 -0.44091
v -0.18139 1.03413 -0.44325
v -0.16109 1.03096 -0.44559
v -0.14082 1.02718 -0.44793
v -0.12059 1.02286 -0.45027
v -0.10038 1.01806 -0.45260
v -0.08022 1.01285 -0.45492
v -0.06008 1.00731 -0.45725
v -0.03999 1.00152 -0.45957
v -0.01993 0.99556 -0.46188
v 0.00009 0.98953 -0.46419
v -0.00298 0.98000 -0.35417
v -0.02298 0.98603 -0.35648
v -0.04298 0.99197 -0.35879
v -0.06298 0.99773 -0.36109
v -0.08298 1.00324 -0.36340
v -0.10298 1.00840 -0.36571
v -0.12298 1.01316 -0.36802
v -0.14298 1.01743 -0.37033
v -0.16298 1.02115 -0.37263
v -0.18298 1.02427 -0.37494
v -0.20298 1.02675 -0.37725
v -0.22298 1.02855 -0.37956
v -0.24298 1.02964 -0.38186
v -0.28600 1.03000 -0.41000
v -0.24298 1.02964 -0.43814
v -0.22298 1.02855 -0.44044
v -0.20298 1.02675 -0.44275
v -0.18298 1.02427 -0.44506
v -0.16298 1.02115 -0.44737
v -0.14298 1.01743 -0.44967
v -0.12298 1.01316 -0.45198
v -0.10298 1.00840 -0.45429
v -0.08298 1.00324 -0.45660
v -0.06298 0.99773 -0.45891
v -0.04298 0.99197 -0.46121
v -0.02298 0.98603 -0.46352
v -0.00298 0.98000 -0.46583
v -0.00559 0.97047 -0.35647
v -0.02558 0.97649 -0.35877
v -0.04552 0.98241 -0.36107
v -0.06542 0.98815 -0.36337
v -0.08529 0.99362 -0.36566
v -0.10512 0.99874 -0.36795
v -0.12492 1.00345 -0.37023
v -0.14468 1.00767 -0.37251
v -0.16441 1.01134 -0.37479
v -0.18412 1.01442 -0.37706
v -0.20380 1.01686 -0.37934
v -0.22346 1.01862 -0.38160
v -0.24311 1.01969 -0.38387
v -0.28402 1.02005 -0.41000
v -0.24311 1.01969 -0.43613
v -0.22346 1.01862 -0.43840
v -0.20380 1.01686 -0.44066
v -0.18412 1.01442 -0.44294
v -0.16441 1.01134 -0.44521
v -0.14468 1.00767 -0.44749
v -0.12492 1.00345 -0.44977
v -0.10512 0.99874 -0.45205
v -0.08529 0.99362 -0.45434
v -0.06542 0.98815 -0.45663
v -0.04552 0.98241 -0.45893
v -0.02558 0.97649 -0.46123
v -0.00559 0.97047 -0.46353
v -0.00736 0.96239 -0.36234
v -0.02732 0.96841 -0.36465
v -0.04722 0.97431 -0.36694
v -0.06704 0.98003 -0.36923
v -0.08680 0.98547 -0.37151
v -0.10649 0.99055 -0.37378
v -0.12611 0.99522 -0.37604
v -0.14567 0.99939 -0.37830
v -0.16518 1.00303 -0.38055
v -0.18463 1.00606 -0.38280
v -0.20404 1.00847 -0.38504
v -0.22342 1.01021 -0.38727
v -0.24277 1.01126 -0.38950
v -0.27838 1.01162 -0.41000
v -0.24277 1.01126 -0.43050
v -0.22342 1.01021 -0.43273
v -0.20404 1.00847 -0.43496
v -0.18463 1.00606 -0.43720
v -0.16518 1.00303 -0.43945
v -0.14567 0.99939 -0.44170
v -0.12611 0.99522 -0.44396
v -0.10649 0.99055 -0.44622
v -0.08680 0.98547 -0.44849
v -0.06704 0.98003 -0.45077
v -0.04722 0.97431 -0.45306
v -0.02732 0.96841 -0.45535
v -0.00736 0.96239 -0.45766
v -0.00800 0.95699 -0.37091
v -0.02795 0.96301 -0.37321
v -0.04782 0.96890 -0.37550
v -0.06759 0.97460 -0.37778
v -0.08727 0.98002 -0.38005
v -0.10686 0.98508 -0.38231
v -0.12637 0.98972 -0.38457
v -0.14580 0.99387 -0.38681
v -0.16515 0.99747 -0.38904
v -0.18444 1.00048 -0.39127
v -0.20367 1.00286 -0.39348
v -0.22285 1.00459 -0.39570
v -0.24200 1.00563 -0.39791
v -0.26995 1.00598 -0.41000
v -0.24200 1.00563 -0.42209
v -0.22285 1.00459 -0.42430
v -0.20367 1.00286 -0.42652
v -0.18444 1.00048 -0.42873
v -0.16515 0.99747 -0.43096
v -0.14580 0.99387 -0.43319
v -0.12637 0.98972 -0.43543
v -0.10686 0.98508 -0.43769
v -0.08727 0.98002 -0.43995
v -0.06759 0.97460 -0.44222
v -0.04782 0.96890 -0.44450
v -0.02795 0.96301 -0.44679
v -0.00800 0.95699 -0.44909
v -0.00742 0.95510 -0.38086
v -0.02737 0.96111 -0.38316
v -0.04723 0.96700 -0.38545
v -0.06698 0.97270 -0.38773
v -0.08663 0.97811 -0.39000
v -0.10619 0.98316 -0.39225
v -0.12566 0.98779 -0.39450
v -0.14504 0.99193 -0.39674
v -0.16434 0.99552 -0.39896
v -0.18357 0.99852 -0.40118
v -0.20273 1.00090 -0.40339
v -0.22185 1.00261 -0.40560
v -0.24093 1.00365 -0.40780
v -0.26000 1.00400 -0.41000
v -0.24093 1.00365 -0.41220
v -0.22185 1.00261 -0.41440
v -0.20273 1.00090 -0.41661
v -0.18357 0.99852 -0.41882
v -0.16434 0.99552 -0.42104
v -0.14504 0.99193 -0.42326
v -0.12566 0.98779 -0.42550
v -0.10619 0.98316 -0.42775
v -0.08663 0.97811 -0.43000
v -0.06698 0.97270 -0.43227
v -0.04723 0.96700 -0.43455
v -0.02737 0.96111 -0.43684
v -0.00742 0.95510 -0.43914
v -0.00572 0.95699 -0.39068
v -0.02567 0.96301 -0.39298
v -0.04553 0.96890 -0.39527
v -0.06531 0.97460 -0.39755
v -0.08499 0.98002 -0.39982
v -0.10458 0.98508 -0.40208
v -0.12409 0.98972 -0.40433
v -0.14352 0.99387 -0.40658
v -0.16287 0.99747 -0.40881
v -0.18216 1.00048 -0.41103
v -0.20138 1.00286 -0.41325
v -0.22057 1.00459 -0.41547
v -0.23972 1.00563 -0.41768
v -0.25005 1.00598 -0.41000
v -0.23972 1.00563 -0.40232
v -0.22057 1.00459 -0.40453
v -0.20138 1.00286 -0.40675
v -0.18216 1.00048 -0.40897
v -0.16287 0.99747 -0.41119
v -0.14352 0.99387 -0.41342
v -0.12409 0.98972 -0.41567
v -0.10458 0.98508 -0.41792
v -0.08499 0.98002 -0.42018
v -0.06531 0.97460 -0.42245
v -0.04553 0.96890 -0.42473
v -0.02567 0.96301 -0.42702
v -0.00572 0.95699 -0.42932
v -0.00314 0.96239 -0.39887
v -0.02311 0.96841 -0.40117
v -0.04300 0.97431 -0.40347
v -0.06283 0.98003 -0.40576
v -0.08258 0.98547 -0.40804
v -0.10227 0.99055 -0.41031
v -0.12190 0.99522 -0.41257
v -0.14146 0.99939 -0.41483
v -0.16096 1.00303 -0.41708
v -0.18042 1.00606 -0.41932
v -0.19983 1.00847 -0.42156
v -0.21920 1.01021 -0.42380
v -0.23855 1.01126 -0.42603
v -0.24162 1.01162 -0.41000
v -0.23855 1.01126 -0.39397
v -0.21920 1.01021 -0.39620
v -0.19983 1.00847 -0.39844
v -0.18042 1.00606 -0.40068
v -0.16096 1.00303 -0.40292
v -0.14146 0.99939 -0.40517
v -0.12190 0.99522 -0.40743
v -0.10227 0.99055 -0.40969
v -0.08258 0.98547 -0.41196
v -0.06283 0.98003 -0.41424
v -0.04300 0.97431 -0.41653
v -0.02311 0.96841 -0.41883
v -0.00314 0.96239 -0.42113
v -0.00009 0.97047 -0.40419
v -0.02007 0.97649 -0.40650
v -0.04001 0.98241 -0.40880
v -0.05992 0.98815 -0.41109
v -0.07978 0.99362 -0.41339
v -0.09962 0.99874 -0.41567
v -0.11941 1.00345 -0.41796
v -0.13918 1.00767 -0.42024
v -0.15891 1.01134 -0.42252
v -0.17861 1.01442 -0.42479
v -0.19829 1.01686 -0.42706
v -0.21795 1.01862 -0.42933
v -0.23760 1.01969 -0.43160
v -0.23598 1.02005 -0.41000
v -0.23760 1.01969 -0.38840
v -0.21795 1.01862 -0.39067
v -0.19829 1.01686 -0.39294
v -0.17861 1.01442 -0.39521
v -0.15891 1.01134 -0.39748
v -0.13918 1.00767 -0.39976
v -0.11941 1.00345 -0.40204
v -0.09962 0.99874 -0.40433
v -0.07978 0.99362 -0.40661
v -0.05992 0.98815 -0.40891
v -0.04001 0.98241 -0.41120
v -0.02007 0.97649 -0.41350
v -0.00009 0.97047 -0.41581
v 0.00298 0.98000 -0.40583
v -0.01702 0.98603 -0.40814
v -0.03702 0.99197 -0.41044
v -0.05702 0.99773 -0.41275
v -0.07702 1.00324 -0.41506
v -0.09702 1.00840 -0.41737
v -0.11702 1.01316 -0.41967
v -0.13702 1.01743 -0.42198
v -0.15702 1.02115 -0.42429
v -0.17702 1.02427 -0.42660
v -0.19702 1.02675 -0.42891
v -0.21702 1.02855 -0.43121
v -0.23702 1.02964 -0.43352
v -0.23400 1.03000 -0.41000
v -0.23702 1.02964 -0.38648
v -0.21702 1.02855 -0.38879
v -0.19702 1.02675 -0.39109
v -0.17702 1.02427 -0.39340
v -0.15702 1.02115 -0.39571
v -0.13702 1.01743 -0.39802
v -0.11702 1.01316 -0.40033
v -0.09702 1.00840 -0.40263
v -0.07702 1.00324 -0.40494
v -0.05702 0.99773 -0.40725
v -0.03702 0.99197 -0.40956
v -0.01702 0.98603 -0.41186
v 0.00298 0.98000 -0.41417
v 0.00000 0.92949 -0.42846
v 0.00000 0.93949 -0.42513
v 0.00000 0.94949 -0.42179
v 0.00000 0.95949 -0.41846
v 0.00000 0.96949 -0.41513
v 0.00000 0.97949 -0.41179
v 0.00000 0.98949 -0.40846
v 0.01302 0.92855 -0.42564
v 0.01302 0.93855 -0.42231
v 0.01302 0.94855 -0.41898
v 0.01302 0.95855 -0.41564
v 0.01302 0.96855 -0.41231
v 0.01302 0.97855 -0.40898
v 0.01302 0.98855 -0.40564
v 0.02345 0.92591 -0.41774
v 0.02345 0.93591 -0.41441
v 0.02345 0.94591 -0.41108
v 0.02345 0.95591 -0.40774
v 0.02345 0.96591 -0.40441
v 0.02345 0.97591 -0.40108
v 0.02345 0.98591 -0.39774
v 0.02925 0.92211 -0.40633
v 0.02925 0.93211 -0.40300
v 0.02925 0.94211 -0.39967
v 0.02925 0.95211 -0.39633
v 0.02925 0.96211 -0.39300
v 0.02925 0.97211 -0.38967
v 0.02925 0.98211 -0.38633
v 0.02925 0.91789 -0.39367
v 0.02925 0.92789 -0.39033
v 0.02925 0.93789 -0.38700
v 0.02925 0.94789 -0.38367
v 0.02925 0.95789 -0.38033
v 0.02925 0.96789 -0.37700
v 0.02925 0.97789 -0.37367
v 0.02345 0.91409 -0.38226
v 0.02345 0.92409 -0.37892
v 0.02345 0.93409 -0.37559
v 0.02345 0.94409 -0.37226
v 0.02345 0.95409 -0.36892
v 0.02345 0.96409 -0.36559
v 0.02345 0.97409 -0.36226
v 0.01302 0.91145 -0.37436
v 0.01302 0.92145 -0.37102
v 0.01302 0.93145 -0.36769
v 0.01302 0.94145 -0.36436
v 0.01302 0.95145 -0.36102
v 0.01302 0.96145 -0.35769
v 0.01302 0.97145 -0.35436
v 0.00000 0.91051 -0.37154
v 0.00000 0.92051 -0.36821
v 0.00000 0.93051 -0.36487
v 0.00000 0.94051 -0.36154
v 0.00000 0.95051 -0.35821
v 0.00000 0.96051 -0.35487
v 0.00000 0.97051 -0.35154
v -0.01302 0.91145 -0.37436
v -0.01302 0.92145 -0.37102
v -0.01302 0.93145 -0.36769
v -0.01302 0.94145 -0.36436
v -0.01302 0.95145 -0.36102
v -0.01302 0.96145 -0.35769
v -0.01302 0.97145 -0.35436
v -0.02345 0.91409 -0.38226
v -0.02345 0.92409 -0.37892
v -0.02345 0.93409 -0.37559
v -0.02345 0.94409 -0.37226
v -0.02345 0.95409 -0.36892
v -0.02345 0.96409 -0.36559
v -0.02345 0.97409 -0.36226
v -0.02925 0.91789 -0.39367
v -0.02925 0.92789 -0.39033
v -0.02925 0.93789 -0.38700
v -0.02925 0.94789 -0.38367
v -0.02925 0.95789 -0.38033
v -0.02925 0.96789 -0.37700
v -0.02925 0.97789 -0.37367
v -0.02925 0.92211 -0.40633
v -0.02925 0.93211 -0.40300
v -0.02925 0.94211 -0.39967
v -0.02925 0.95211 -0.39633
v -0.02925 0.96211 -0.39300
v -0.02925 0.97211 -0.38967
v -0.02925 0.98211 -0.38633
v -0.02345 0.92591 -0.41774
v -0.02345 0.93591 -0.41441
v -0.02345 0.94591 -0.41108
v -0.02345 0.95591 -0.40774
v -0.02345 0.96591 -0.40441
v -0.02345 0.97591 -0.40108
v -0.02345 0.98591 -0.39774
v -0.01302 0.92855 -0.42564
v -0.01302 0.93855 -0.42231
v -0.01302 0.94855 -0.41898
v -0.01302 0.95855 -0.41564
v -0.01302 0.96855 -0.41231
v -0.01302 0.97855 -0.40898
v -0.01302 0.98855 -0.40564
v -0.00000 0.92949 -0.42846
v -0.00000 0.93949 -0.42513
v -0.00000 0.94949 -0.42179
v -0.00000 0.95949 -0.41846
v -0.00000 0.96949 -0.41513
v -0.00000 0.97949 -0.41179
v -0.00000 0.98949 -0.40846
vt 0.00000 0.00000
vt 0.00000 0.03846
vt 0.00000 0.07692
vt 0.00000 0.11538
vt 0.00000 0.15385
vt 0.00000 0.19231
vt 0.00000 0.23077
vt 0.00000 0.26923
vt 0.00000 0.30769
vt 0.00000 0.34615
vt 0.00000 0.38462
vt 0.00000 0.42308
vt 0.00000 0.46154
vt 0.00000 0.50000
vt 0.00000 0.53846
vt 0.00000 0.57692
vt 0.00000 0.61538
vt 0.00000 0.65385
vt 0.00000 0.69231
vt 0.00000 0.73077
vt 0.00000 0.76923
vt 0.00000 0.80769
vt 0.00000 0.84615
vt 0.00000 0.88462
vt 0.00000 0.92308
vt 0.00000 0.96154
vt 0.00000 1.00000
vt 0.06250 0.00000
vt 0.06250 0.03846
vt 0.06250 0.07692
vt 0.06250 0.11538
vt 0.06250 0.15385
vt 0.06250 0.19231
vt 0.06250 0.23077
vt 0.06250 0.26923
vt 0.06250 0.30769
vt 0.06250 0.34615
vt 0.06250 0.38462
vt 0.06250 0.42308
vt 0.06250 0.46154
vt 0.06250 0.50000
vt 0.06250 0.53846
vt 0.06250 0.57692
vt 0.06250 0.61538
vt 0.06250 0.65385
vt 0.06250 0.69231
vt 0.06250 0.73077
vt 0.06250 0.76923
vt 0.06250 0.80769
vt 0.06250 0.84615
vt 0.06250 0.88462
vt 0.06250 0.92308
vt 0.06250 0.96154
vt 0.06250 1.00000
vt 0.12500 0.00000
vt 0.12500 0.03846
vt 0.12500 0.07692
vt 0.12500 0.11538
vt 0.12500 0.15385
vt 0.12500 0.19231
vt 0.12500 0.23077
vt 0.12500 0.26923
vt 0.12500 0.30769
vt 0.12500 0.34615
vt 0.12500 0.38462
vt 0.12500 0.42308
vt 0.12500 0.46154
vt 0.12500 0.50000
vt 0.12500 0.53846
vt 0.12500 0.57692
vt 0.12500 0.61538
vt 0.12500 0.65385
vt 0.12500 0.69231
vt 0.12500 0.73077
vt 0.12500 0.76923
vt 0.12500 0.80769
vt 0.12500 0.84615
vt 0.12500 0.88462
vt 0.12500 0.92308
vt 0.12500 0.96154
vt 0.12500 1.00000
vt 0.18750 0.00000
vt 0.18750 0.03846
vt 0.18750 0.07692
vt 0.18750 0.11538
vt 0.18750 0.15385
vt 0.18750 0.19231
vt 0.18750 0.23077
vt 0.18750 0.26923
vt 0.18750 0.30769
vt 0.18750 0.34615
vt 0.18750 0.38462
vt 0.18750 0.42308
vt 0.18750 0.46154
vt 0.18750 0.50000
vt 0.18750 0.53846
vt 0.18750 0.57692
vt 0.18750 0.61538
vt 0.18750 0.65385
vt 0.18750 0.69231
vt 0.18750 0.73077
vt 0.18750 0.76923
vt 0.18750 0.80769
vt 0.18750 0.84615
vt 0.18750 0.88462
vt 0.18750 0.92308
vt 0.18750 0.96154
vt 0.18750 1.00000
vt 0.25000 0.00000
vt 0.25000 0.03846
vt 0.25000 0.07692
vt 0.25000 0.11538
vt 0.25000 0.15385
vt 0.25000 0.19231
vt 0.25000 0.23077
vt 0.25000 0.26923
vt 0.25000 0.30769
vt 0.25000 0.34615
vt 0.25000 0.38462
vt 0.25000 0.42308
vt 0.25000 0.46154
vt 0.25000 0.50000
vt 0.25000 0.53846
vt 0.25000 0.57692
vt 0.25000 0.61538
vt 0.25000 0.65385
vt 0.25000 0.69231
vt 0.25000 0.73077
vt 0.25000 0.76923
vt 0.25000 0.80769
vt 0.25000 0.84615
vt 0.25000 0.88462
vt 0.25000 0.92308
vt 0.25000 0.96154
vt 0.25000 1.00000
vt 0.31250 0.00000
vt 0.31250 0.03846
vt 0.31250 0.07692
vt 0.31250 0.11538
vt 0.31250 0.15385
vt 0.31250 0.19231
vt 0.31250 0.23077
vt 0.31250 0.26923
vt 0.31250 0.30769
vt 0.31250 0.34615
vt 0.31250 0.38462
vt 0.31250 0.42308
vt 0.31250 0.46154
vt 0.31250 0.50000
vt 0.31250 0.53846
vt 0.31250 0.57692
vt 0.31250 0.61538
vt 0.31250 0.65385
vt 0.31250 0.69231
vt 0.31250 0.73077
vt 0.31250 0.76923
vt 0.31250 0.80769
vt 0.31250 0.84615
vt 0.31250 0.88462
vt 0.31250 0.92308
vt 0.31250 0.96154
vt 0.31250 1.00000
vt 0.37500 0.00000
vt 0.37500 0.03846
vt 0.37500 0.07692
vt 0.37500 0.11538
vt 0.37500 0.15385
vt 0.37500 0.19231
vt 0.37500 0.23077
vt 0.37500 0.26923
vt 0.37500 0.30769
vt 0.37500 0.34615
vt 0.37500 0.38462
vt 0.37500 0.42308
vt 0.37500 0.46154
vt 0.37500 0.50000
vt 0.37500 0.53846
vt 0.37500 0.57692
vt 0.37500 0.61538
vt 0.37500 0.65385
vt 0.37500 0.69231
vt 0.37500 0.73077
vt 0.37500 0.76923
vt 0.37500 0.80769
vt 0.37500 0.84615
vt 0.37500 0.88462
vt 0.37500 0.92308
vt 0.37500 0.96154
vt 0.37500 1.00000
vt 0.43750 0.00000
vt 0.43750 0.03846
vt 0.43750 0.07692
vt 0.43750 0.11538
vt 0.43750 0.15385
vt 0.43750 0.19231
vt 0.43750 0.23077
vt 0.43750 0.26923
vt 0.43750 0.30769
vt 0.43750 0.34615
vt 0.43750 0.38462
vt 0.43750 0.42308
vt 0.43750 0.46154
vt 0.43750 0.50000
vt 0.43750 0.53846
vt 0.43750 0.57692
vt 0.43750 0.61538
vt 0.43750 0.65385
vt 0.43750 0.69231
vt 0.43750 0.73077
vt 0.43750 0.76923
vt 0.43750 0.80769
vt 0.43750 0.84615
vt 0.43750 0.88462
vt 0.43750 0.92308
vt 0.43750 0.96154
vt 0.43750 1.00000
vt 0.50000 0.00000
vt 0.50000 0.03846
vt 0.50000 0.07692
vt 0.50000 0.11538
vt 0.50000 0.15385
vt 0.50000 0.19231
vt 0.50000 0.23077
vt 0.50000 0.26923
vt 0.50000 0.30769
vt 0.50000 0.34615
vt 0.50000 0.38462
vt 0.50000 0.42308
vt 0.50000 0.46154
vt 0.50000 0.50000
vt 0.50000 0.53846
vt 0.50000 0.57692
vt 0.50000 0.61538
vt 0.50000 0.65385
vt 0.50000 0.69231
vt 0.50000 0.73077
vt 0.50000 0.76923
vt 0.50000 0.80769
vt 0.50000 0.84615
vt 0.50000 0.88462
vt 0.50000 0.92308
vt 0.50000 0.96154
vt 0.50000 1.00000
vt 0.56250 0.00000
vt 0.56250 0.03846
vt 0.56250 0.07692
vt 0.56250 0.11538
vt 0.56250 0.15385
vt 0.56250 0.19231
vt 0.56250 0.23077
vt 0.56250 0.26923
vt 0.56250 0.30769
vt 0.56250 0.34615
vt 0.56250 0.38462
vt 0.56250 0.42308
vt 0.56250 0.46154
vt 0.56250 0.50000
vt 0.56250 0.53846
vt 0.56250 0.57692
vt 0.56250 0.61538
vt 0.56250 0.65385
vt 0.56250 0.69231
vt 0.56250 0.73077
vt 0.56250 0.76923
vt 0.56250 0.80769
vt 0.56250 0.84615
vt 0.56250 0.88462
vt 0.56250 0.92308
vt 0.56250 0.96154
vt 0.56250 1.00000
vt 0.62500 0.00000
vt 0.62500 0.03846
vt 0.62500 0.07692
vt 0.62500 0.11538
vt 0.62500 0.15385
vt 0.62500 0.19231
vt 0.62500 0.23077
vt 0.62500 0.26923
vt 0.62500 0.30769
vt 0.62500 0.34615
vt 0.62500 0.38462
vt 0.62500 0.42308
vt 0.62500 0.46154
vt 0.62500 0.50000
vt 0.62500 0.53846
vt 0.62500 0.57692
vt 0.62500 0.61538
vt 0.62500 0.65385
vt 0.62500 0.69231
vt 0.62500 0.73077
vt 0.62500 0.76923
vt 0.62500 0.80769
vt 0.62500 0.84615
vt 0.62500 0.88462
vt 0.62500 0.92308
vt 0.62500 0.96154
vt 0.62500 1.00000
vt 0.68750 0.00000
vt 0.68750 0.03846
vt 0.68750 0.07692
vt 0.68750 0.11538
vt 0.68750 0.15385
vt 0.68750 0.19231
vt 0.68750 0.23077
vt 0.68750 0.26923
vt 0.68750 0.30769
vt 0.68750 0.34615
vt 0.68750 0.38462
vt 0.68750 0.42308
vt 0.68750 0.46154
vt 0.68750 0.50000
vt 0.68750 0.53846
vt 0.68750 0.57692
vt 0.68750 0.61538
vt 0.68750 0.65385
vt 0.68750 0.69231
vt 0.68750 0.73077
vt 0.68750 0.76923
vt 0.68750 0.80769
vt 0.68750 0.84615
vt 0.68750 0.88462
vt 0.68750 0.92308
vt 0.68750 0.96154
vt 0.68750 1.00000
vt 0.75000 0.00000
vt 0.75000 0.03846
vt 0.75000 0.07692
vt 0.75000 0.11538
vt 0.75000 0.15385
vt 0.75000 0.19231
vt 0.75000 0.23077
vt 0.75000 0.26923
vt 0.75000 0.30769
vt 0.75000 0.34615
vt 0.75000 0.38462
vt 0.75000 0.42308
vt 0.75000 0.46154
vt 0.75000 0.50000
vt 0.75000 0.53846
vt 0.75000 0.57692
vt 0.75000 0.61538
vt 0.75000 0.65385
vt 0.75000 0.69231
vt 0.75000 0.73077
vt 0.75000 0.76923
vt 0.75000 0.80769
vt 0.75000 0.84615
vt 0.75000 0.88462
vt 0.75000 0.92308
vt 0.75000 0.96154
vt 0.75000 1.00000
vt 0.81250 0.00000
vt 0.81250 0.03846
vt 0.81250 0.07692
vt 0.81250 0.11538
vt 0.81250 0.15385
vt 0.81250 0.19231
vt 0.81250 0.23077
vt 0.81250 0.26923
vt 0.81250 0.30769
vt 0.81250 0.34615
vt 0.81250 0.38462
vt 0.81250 0.42308
vt 0.81250 0.46154
vt 0.81250 0.50000
vt 0.81250 0.53846
vt 0.81250 0.57692
vt 0.81250 0.61538
vt 0.81250 0.65385
vt 0.81250 0.69231
vt 0.81250 0.73077
vt 0.81250 0.76923
vt 0.81250 0.80769
vt 0.81250 0.84615
vt 0.81250 0.88462
vt 0.81250 0.92308
vt 0.81250 0.96154
vt 0.81250 1.00000
vt 0.87500 0.00000
vt 0.87500 0.03846
vt 0.87500 0.07692
vt 0.87500 0.11538
vt 0.87500 0.15385
vt 0.87500 0.19231
vt 0.87500 0.23077
vt 0.87500 0.26923
vt 0.87500 0.30769
vt 0.87500 0.34615
vt 0.87500 0.38462
vt 0.87500 0.42308
vt 0.87500 0.46154
vt 0.87500 0.50000
vt 0.87500 0.53846
vt 0.87500 0.57692
vt 0.87500 0.61538
vt 0.87500 0.65385
vt 0.87500 0.69231
vt 0.87500 0.73077
vt 0.87500 0.76923
vt 0.87500 0.80769
vt 0.87500 0.84615
vt 0.87500 0.88462
vt 0.87500 0.92308
vt 0.87500 0.96154
vt 0.87500 1.00000
vt 0.93750 0.00000
vt 0.93750 0.03846
vt 0.93750 0.07692
vt 0.93750 0.11538
vt 0.93750 0.15385
vt 0.93750 0.19231
vt 0.93750 0.23077
vt 0.93750 0.26923
vt 0.93750 0.30769
vt 0.93750 0.34615
vt 0.93750 0.38462
vt 0.93750 0.42308
vt 0.93750 0.46154
vt 0.93750 0.50000
vt 0.93750 0.53846
vt 0.93750 0.57692
vt 0.93750 0.61538
vt 0.93750 0.65385
vt 0.93750 0.69231
vt 0.93750 0.73077
vt 0.93750 0.76923
vt 0.93750 0.80769
vt 0.93750 0.84615
vt 0.93750 0.88462
vt 0.93750 0.92308
vt 0.93750 0.96154
vt 0.93750 1.00000
vt 1.00000 0.00000
vt 1.00000 0.03846
vt 1.00000 0.07692
vt 1.00000 0.11538
vt 1.00000 0.15385
vt 1.00000 0.19231
vt 1.00000 0.23077
vt 1.00000 0.26923
vt 1.00000 0.30769
vt 1.00000 0.34615
vt 1.00000 0.38462
vt 1.00000 0.42308
vt 1.00000 0.46154
vt 1.00000 0.50000
vt 1.00000 0.53846
vt 1.00000 0.57692
vt 1.00000 0.61538
vt 1.00000 0.65385
vt 1.00000 0.69231
vt 1.00000 0.73077
vt 1.00000 0.76923
vt 1.00000 0.80769
vt 1.00000 0.84615
vt 1.00000 0.88462
vt 1.00000 0.92308
vt 1.00000 0.96154
vt 1.00000 1.00000
vt 0.00000 0.00000
vt 0.00000 0.16667
vt 0.00000 0.33333
vt 0.00000 0.50000
vt 0.00000 0.66667
vt 0.00000 0.83333
vt 0.00000 1.00000
vt 0.07143 0.00000
vt 0.07143 0.16667
vt 0.07143 0.33333
vt 0.07143 0.50000
vt 0.07143 0.66667
vt 0.07143 0.83333
vt 0.07143 1.00000
vt 0.14286 0.00000
vt 0.14286 0.16667
vt 0.14286 0.33333
vt 0.14286 0.50000
vt 0.14286 0.66667
vt 0.14286 0.83333
vt 0.14286 1.00000
vt 0.21429 0.00000
vt 0.21429 0.16667
vt 0.21429 0.33333
vt 0.21429 0.50000
vt 0.21429 0.66667
vt 0.21429 0.83333
vt 0.21429 1.00000
vt 0.28571 0.00000
vt 0.28571 0.16667
vt 0.28571 0.33333
vt 0.28571 0.50000
vt 0.28571 0.66667
vt 0.28571 0.83333
vt 0.28571 1.00000
vt 0.35714 0.00000
vt 0.35714 0.16667
vt 0.35714 0.33333
vt 0.35714 0.50000
vt 0.35714 0.66667
vt 0.35714 0.83333
vt 0.35714 1.00000
vt 0.42857 0.00000
vt 0.42857 0.16667
vt 0.42857 0.33333
vt 0.42857 0.50000
vt 0.42857 0.66667
vt 0.42857 0.83333
vt 0.42857 1.00000
vt 0.50000 0.00000
vt 0.50000 0.16667
vt 0.50000 0.33333
vt 0.50000 0.50000
vt 0.50000 0.66667
vt 0.50000 0.83333
vt 0.50000 1.00000
vt 0.57143 0.00000
vt 0.57143 0.16667
vt 0.57143 0.33333
vt 0.57143 0.50000
vt 0.57143 0.66667
vt 0.57143 0.83333
vt 0.57143 1.00000
vt 0.64286 0.00000
vt 0.64286 0.16667
vt 0.64286 0.33333
vt 0.64286 0.50000
vt 0.64286 0.66667
vt 0.64286 0.83333
vt 0.64286 1.00000
vt 0.71429 0.00000
vt 0.71429 0.16667
vt 0.71429 0.33333
vt 0.71429 0.50000
vt 0.71429 0.66667
vt 0.71429 0.83333
vt 0.71429 1.00000
vt 0.78571 0.00000
vt 0.78571 0.16667
vt 0.78571 0.33333
vt 0.78571 0.50000
vt 0.78571 0.66667
vt 0.78571 0.83333
vt 0.78571 1.00000
vt 0.85714 0.00000
vt 0.85714 0.16667
vt 0.85714 0.33333
vt 0.85714 0.50000
vt 0.85714 0.66667
vt 0.85714 0.83333
vt 0.85714 1.00000
vt 0.92857 0.00000
vt 0.92857 0.16667
vt 0.92857 0.33333
vt 0.92857 0.50000
vt 0.92857 0.66667
vt 0.92857 0.83333
vt 0.92857 1.00000
vt 1.00000 0.00000
vt 1.00000 0.16667
vt 1.00000 0.33333
vt 1.00000 0.50000
vt 1.00000 0.66667
vt 1.00000 0.83333
vt 1.00000 1.00000
vn 0.00281 0.92391 -0.38260
vn -0.01595 0.92386 -0.38240
vn -0.03446 0.92348 -0.38211
vn -0.05274 0.92276 -0.38174
vn -0.07076 0.92172 -0.38134
vn -0.08855 0.92036 -0.38093
vn -0.10611 0.91866 -0.38053
vn -0.12345 0.91664 -0.38018
vn -0.14059 0.91429 -0.37989
vn -0.15755 0.91161 -0.37967
vn -0.17435 0.90860 -0.37955
vn -0.19100 0.90525 -0.37952
vn -0.20754 0.90157 -0.37960
vn 1.00000 0.00314 0.00000
vn -0.21068 0.91521 -0.34353
vn -0.19363 0.91770 -0.34689
vn -0.17650 0.91983 -0.35037
vn -0.15927 0.92160 -0.35397
vn -0.14193 0.92300 -0.35767
vn -0.12444 0.92404 -0.36148
vn -0.10680 0.92471 -0.36538
vn -0.08900 0.92502 -0.36934
vn -0.07101 0.92497 -0.37335
vn -0.05284 0.92455 -0.37738
vn -0.03447 0.92377 -0.38140
vn -0.01593 0.92262 -0.38538
vn 0.00280 0.92111 -0.38928
vn 0.00523 0.92595 -0.37761
vn -0.01342 0.92593 -0.37746
vn -0.03187 0.92558 -0.37721
vn -0.05011 0.92490 -0.37690
vn -0.06815 0.92389 -0.37654
vn -0.08598 0.92255 -0.37618
vn -0.10361 0.92088 -0.37583
vn -0.12105 0.91887 -0.37553
vn -0.13832 0.91653 -0.37528
vn -0.15543 0.91386 -0.37511
vn -0.17239 0.91085 -0.37502
vn -0.18923 0.90749 -0.37504
vn -0.20595 0.90380 -0.37515
vn 0.92388 0.38268 0.00000
vn -0.20875 0.91609 -0.34234
vn -0.19154 0.91858 -0.34571
vn -0.17426 0.92070 -0.34921
vn -0.15689 0.92245 -0.35281
vn -0.13942 0.92383 -0.35652
vn -0.12183 0.92483 -0.36033
vn -0.10412 0.92548 -0.36421
vn -0.08627 0.92575 -0.36816
vn -0.06828 0.92566 -0.37215
vn -0.05013 0.92520 -0.37614
vn -0.03183 0.92439 -0.38012
vn -0.01338 0.92321 -0.38406
vn 0.00521 0.92168 -0.38791
vn 0.00685 0.92890 -0.37027
vn -0.01173 0.92889 -0.37018
vn -0.03015 0.92855 -0.36999
vn -0.04839 0.92788 -0.36973
vn -0.06645 0.92688 -0.36944
vn -0.08434 0.92554 -0.36913
vn -0.10205 0.92387 -0.36884
vn -0.11959 0.92187 -0.36859
vn -0.13698 0.91952 -0.36839
vn -0.15423 0.91684 -0.36827
vn -0.17135 0.91381 -0.36824
vn -0.18835 0.91043 -0.36830
vn -0.20525 0.90670 -0.36846
vn 0.70711 0.70711 0.00000
vn -0.20728 0.91567 -0.34435
vn -0.18995 0.91815 -0.34774
vn -0.17256 0.92024 -0.35125
vn -0.15510 0.92196 -0.35487
vn -0.13755 0.92331 -0.35859
vn -0.11991 0.92428 -0.36240
vn -0.10216 0.92488 -0.36629
vn -0.08430 0.92511 -0.37023
vn -0.06632 0.92497 -0.37420
vn -0.04822 0.92448 -0.37818
vn -0.02999 0.92362 -0.38213
vn -0.01165 0.92241 -0.38603
vn 0.00679 0.92085 -0.38985
vn 0.00744 0.93228 -0.36166
vn -0.01113 0.93226 -0.36162
vn -0.02955 0.93191 -0.36149
vn -0.04781 0.93123 -0.36129
vn -0.06591 0.93021 -0.36105
vn -0.08385 0.92886 -0.36081
vn -0.10164 0.92718 -0.36058
vn -0.11927 0.92515 -0.36038
vn -0.13676 0.92278 -0.36024
vn -0.15412 0.92007 -0.36017
vn -0.17136 0.91701 -0.36018
vn -0.18849 0.91360 -0.36029
vn -0.20551 0.90984 -0.36050
vn 0.38268 0.92388 0.00000
vn -0.20646 0.91403 -0.34919
vn -0.18908 0.91647 -0.35259
vn -0.17165 0.91854 -0.35612
vn -0.15415 0.92023 -0.35975
vn -0.13658 0.92153 -0.36349
vn -0.11892 0.92247 -0.36731
vn -0.10118 0.92302 -0.37120
vn -0.08334 0.92321 -0.37514
vn -0.06540 0.92303 -0.37912
vn -0.04736 0.92250 -0.38309
vn -0.02922 0.92160 -0.38704
vn -0.01099 0.92036 -0.39092
vn 0.00733 0.91877 -0.39472
vn 0.00691 0.93560 -0.35300
vn -0.01168 0.93555 -0.35301
vn -0.03014 0.93517 -0.35293
vn -0.04844 0.93445 -0.35278
vn -0.06659 0.93340 -0.35259
vn -0.08458 0.93202 -0.35240
vn -0.10242 0.93030 -0.35222
vn -0.12012 0.92823 -0.35207
vn -0.13767 0.92583 -0.35198
vn -0.15510 0.92308 -0.35195
vn -0.17241 0.91998 -0.35201
vn -0.18961 0.91653 -0.35217
vn -0.20671 0.91273 -0.35241
vn -0.22370 0.90858 -0.35276
vn -0.20640 0.91138 -0.35606
vn -0.18905 0.91380 -0.35949
vn -0.17164 0.91584 -0.36302
vn -0.15416 0.91749 -0.36667
vn -0.13662 0.91876 -0.37042
vn -0.11901 0.91966 -0.37426
vn -0.10131 0.92018 -0.37817
vn -0.08352 0.92033 -0.38213
vn -0.06564 0.92011 -0.38611
vn -0.04767 0.91954 -0.39009
vn -0.02961 0.91861 -0.39405
vn -0.01146 0.91734 -0.39794
vn 0.00676 0.91573 -0.40174
vn 0.00535 0.93839 -0.34553
vn -0.01332 0.93830 -0.34558
vn -0.03185 0.93787 -0.34553
vn -0.05021 0.93710 -0.34542
vn -0.06840 0.93601 -0.34528
vn -0.08643 0.93457 -0.34512
vn -0.10430 0.93280 -0.34497
vn -0.12202 0.93069 -0.34486
vn -0.13960 0.92824 -0.34480
vn -0.15704 0.92544 -0.34482
vn -0.17435 0.92230 -0.34491
vn -0.19156 0.91881 -0.34509
vn -0.20866 0.91498 -0.34537
vn 0.38268 -0.92388 0.00000
vn -0.20709 0.90810 -0.36396
vn -0.18982 0.91049 -0.36739
vn -0.17250 0.91249 -0.37094
vn -0.15512 0.91412 -0.37460
vn -0.13766 0.91536 -0.37837
vn -0.12013 0.91623 -0.38222
vn -0.10251 0.91672 -0.38615
vn -0.08479 0.91685 -0.39013
vn -0.06699 0.91661 -0.39413
vn -0.04908 0.91601 -0.39814
vn -0.03107 0.91506 -0.40211
vn -0.01297 0.91377 -0.40603
vn 0.00520 0.91214 -0.40985
vn 0.00296 0.94028 -0.34038
vn -0.01582 0.94013 -0.34044
vn -0.03443 0.93965 -0.34041
vn -0.05286 0.93882 -0.34032
vn -0.07110 0.93767 -0.34019
vn -0.08915 0.93617 -0.34005
vn -0.10702 0.93434 -0.33992
vn -0.12472 0.93218 -0.33983
vn -0.14227 0.92968 -0.33979
vn -0.15966 0.92684 -0.33982
vn -0.17693 0.92366 -0.33992
vn -0.19407 0.92014 -0.34012
vn -0.21110 0.91627 -0.34041
vn 0.70711 -0.70711 0.00000
vn -0.20842 0.90464 -0.37174
vn -0.19130 0.90700 -0.37517
vn -0.17411 0.90898 -0.37873
vn -0.15686 0.91059 -0.38240
vn -0.13953 0.91181 -0.38617
vn -0.12211 0.91266 -0.39004
vn -0.10459 0.91314 -0.39399
vn -0.08697 0.91326 -0.39799
vn -0.06923 0.91301 -0.40202
vn -0.05137 0.91240 -0.40606
vn -0.03340 0.91144 -0.41007
vn -0.01532 0.91014 -0.41402
vn 0.00286 0.90850 -0.41788
vn 0.00008 0.94101 -0.33836
vn -0.01884 0.94081 -0.33842
vn -0.03754 0.94026 -0.33839
vn -0.05603 0.93937 -0.33829
vn -0.07430 0.93815 -0.33815
vn -0.09235 0.93660 -0.33800
vn -0.11020 0.93472 -0.33787
vn -0.12784 0.93250 -0.33777
vn -0.14531 0.92996 -0.33773
vn -0.16261 0.92708 -0.33775
vn -0.17976 0.92387 -0.33785
vn -0.19678 0.92033 -0.33804
vn -0.21369 0.91644 -0.33833
vn 0.92388 -0.38268 0.00000
vn -0.21020 0.90151 -0.37828
vn -0.19326 0.90385 -0.38171
vn -0.17625 0.90582 -0.38526
vn -0.15916 0.90741 -0.38894
vn -0.14198 0.90863 -0.39272
vn -0.12469 0.90948 -0.39660
vn -0.10728 0.90997 -0.40057
vn -0.08974 0.91008 -0.40459
vn -0.07206 0.90984 -0.40866
vn -0.05423 0.90924 -0.41273
vn -0.03627 0.90828 -0.41678
vn -0.01816 0.90698 -0.42078
vn 0.00008 0.90534 -0.42470
vn -0.00286 0.94046 -0.33988
vn -0.02191 0.94020 -0.33991
vn -0.04071 0.93960 -0.33985
vn -0.05925 0.93866 -0.33972
vn -0.07753 0.93739 -0.33955
vn -0.09556 0.93578 -0.33937
vn -0.11335 0.93386 -0.33921
vn -0.13092 0.93160 -0.33909
vn -0.14828 0.92902 -0.33901
vn -0.16545 0.92612 -0.33901
vn -0.18245 0.92289 -0.33909
vn -0.19930 0.91934 -0.33926
vn -0.21604 0.91545 -0.33952
vn 1.00000 0.00000 0.00000
vn -0.21220 0.89920 -0.38263
vn -0.19544 0.90153 -0.38605
vn -0.17861 0.90350 -0.38960
vn -0.16169 0.90509 -0.39327
vn -0.14465 0.90632 -0.39706
vn -0.12749 0.90719 -0.40095
vn -0.11018 0.90769 -0.40493
vn -0.09271 0.90782 -0.40898
vn -0.07507 0.90760 -0.41307
vn -0.05725 0.90702 -0.41718
vn -0.03926 0.90608 -0.42128
vn -0.02109 0.90479 -0.42533
vn -0.00275 0.90316 -0.42930
vn -0.00541 0.93867 -0.34478
vn -0.02458 0.93837 -0.34476
vn -0.04345 0.93773 -0.34465
vn -0.06202 0.93675 -0.34447
vn -0.08030 0.93544 -0.34425
vn -0.09829 0.93380 -0.34402
vn -0.11601 0.93184 -0.34381
vn -0.13347 0.92957 -0.34364
vn -0.15070 0.92697 -0.34353
vn -0.16772 0.92406 -0.34348
vn -0.18455 0.92084 -0.34351
vn -0.20123 0.91729 -0.34364
vn -0.21777 0.91342 -0.34386
vn 0.92388 0.38268 0.00000
vn -0.21412 0.89811 -0.38413
vn -0.19754 0.90044 -0.38753
vn -0.18086 0.90241 -0.39107
vn -0.16408 0.90403 -0.39473
vn -0.14717 0.90528 -0.39852
vn -0.13011 0.90617 -0.40241
vn -0.11287 0.90670 -0.40640
vn -0.09545 0.90687 -0.41047
vn -0.07783 0.90668 -0.41458
vn -0.05999 0.90613 -0.41873
vn -0.04194 0.90522 -0.42287
vn -0.02368 0.90396 -0.42697
vn -0.00520 0.90234 -0.43099
vn -0.00715 0.93584 -0.35235
vn -0.02639 0.93553 -0.35227
vn -0.04530 0.93487 -0.35209
vn -0.06388 0.93388 -0.35184
vn -0.08214 0.93255 -0.35156
vn -0.10007 0.93091 -0.35127
vn -0.11771 0.92895 -0.35100
vn -0.13507 0.92667 -0.35077
vn -0.15218 0.92408 -0.35060
vn -0.16905 0.92118 -0.35050
vn -0.18573 0.91797 -0.35048
vn -0.20224 0.91444 -0.35056
vn -0.21860 0.91060 -0.35073
vn 0.70711 0.70711 0.00000
vn -0.21568 0.89844 -0.38247
vn -0.19922 0.90079 -0.38586
vn -0.18266 0.90278 -0.38938
vn -0.16598 0.90442 -0.39303
vn -0.14915 0.90570 -0.39681
vn -0.13215 0.90663 -0.40070
vn -0.11496 0.90720 -0.40469
vn -0.09755 0.90741 -0.40877
vn -0.07991 0.90726 -0.41290
vn -0.06203 0.90676 -0.41707
vn -0.04390 0.90589 -0.42124
vn -0.02552 0.90466 -0.42538
vn -0.00690 0.90307 -0.42945
vn -0.00779 0.93239 -0.36137
vn -0.02706 0.93209 -0.36123
vn -0.04597 0.93144 -0.36098
vn -0.06453 0.93046 -0.36067
vn -0.08274 0.92915 -0.36033
vn -0.10062 0.92752 -0.35997
vn -0.11818 0.92558 -0.35964
vn -0.13545 0.92332 -0.35935
vn -0.15245 0.92076 -0.35912
vn -0.16921 0.91789 -0.35896
vn -0.18576 0.91471 -0.35889
vn -0.20214 0.91122 -0.35892
vn -0.21837 0.90741 -0.35905
vn 0.38268 0.92388 0.00000
vn -0.21663 0.90018 -0.37783
vn -0.20021 0.90255 -0.38121
vn -0.18370 0.90457 -0.38471
vn -0.16706 0.90624 -0.38835
vn -0.15026 0.90756 -0.39211
vn -0.13328 0.90853 -0.39600
vn -0.11608 0.90914 -0.39998
vn -0.09865 0.90940 -0.40406
vn -0.08097 0.90930 -0.40820
vn -0.06303 0.90883 -0.41237
vn -0.04481 0.90800 -0.41656
vn -0.02632 0.90681 -0.42072
vn -0.00757 0.90525 -0.42481
vn -0.00722 0.92885 -0.37039
vn -0.02645 0.92858 -0.37019
vn -0.04532 0.92797 -0.36989
vn -0.06383 0.92703 -0.36952
vn -0.08200 0.92576 -0.36912
vn -0.09982 0.92417 -0.36872
vn -0.11732 0.92226 -0.36833
vn -0.13453 0.92005 -0.36799
vn -0.15146 0.91752 -0.36771
vn -0.16816 0.91469 -0.36750
vn -0.18464 0.91156 -0.36739
vn -0.20094 0.90811 -0.36737
vn -0.21710 0.90435 -0.36745
vn -0.23314 0.90027 -0.36764
vn -0.21678 0.90303 -0.37087
vn -0.20035 0.90543 -0.37424
vn -0.18381 0.90749 -0.37773
vn -0.16715 0.90919 -0.38135
vn -0.15031 0.91055 -0.38510
vn -0.13329 0.91156 -0.38897
vn -0.11605 0.91221 -0.39294
vn -0.09856 0.91251 -0.39701
vn -0.08082 0.91245 -0.40114
vn -0.06280 0.91202 -0.40531
vn -0.04450 0.91123 -0.40949
vn -0.02592 0.91007 -0.41364
vn -0.00706 0.90854 -0.41774
vn -0.00553 0.92581 -0.37795
vn -0.02467 0.92559 -0.37771
vn -0.04347 0.92504 -0.37738
vn -0.06193 0.92415 -0.37697
vn -0.08004 0.92294 -0.37653
vn -0.09782 0.92140 -0.37609
vn -0.11529 0.91955 -0.37567
vn -0.13247 0.91739 -0.37529
vn -0.14939 0.91492 -0.37498
vn -0.16607 0.91214 -0.37474
vn -0.18254 0.90904 -0.37459
vn -0.19884 0.90564 -0.37454
vn -0.21500 0.90192 -0.37460
vn 0.38268 -0.92388 0.00000
vn -0.21610 0.90652 -0.36267
vn -0.19957 0.90895 -0.36602
vn -0.18295 0.91104 -0.36951
vn -0.16619 0.91278 -0.37312
vn -0.14927 0.91417 -0.37685
vn -0.13216 0.91520 -0.38070
vn -0.11483 0.91589 -0.38466
vn -0.09727 0.91622 -0.38870
vn -0.07945 0.91618 -0.39281
vn -0.06136 0.91578 -0.39695
vn -0.04300 0.91502 -0.40111
vn -0.02436 0.91389 -0.40524
vn -0.00545 0.91238 -0.40931
vn -0.00302 0.92380 -0.38287
vn -0.02204 0.92364 -0.38263
vn -0.04074 0.92315 -0.38228
vn -0.05913 0.92232 -0.38187
vn -0.07719 0.92118 -0.38141
vn -0.09496 0.91970 -0.38096
vn -0.11243 0.91791 -0.38052
vn -0.12963 0.91580 -0.38013
vn -0.14658 0.91338 -0.37980
vn -0.16330 0.91064 -0.37955
vn -0.17984 0.90759 -0.37939
vn -0.19620 0.90422 -0.37933
vn -0.21243 0.90052 -0.37938
vn 0.70711 -0.70711 0.00000
vn -0.21468 0.91006 -0.35454
vn -0.19801 0.91253 -0.35789
vn -0.18123 0.91464 -0.36137
vn -0.16434 0.91640 -0.36497
vn -0.14729 0.91781 -0.36869
vn -0.13006 0.91886 -0.37252
vn -0.11263 0.91956 -0.37646
vn -0.09498 0.91990 -0.38047
vn -0.07709 0.91988 -0.38455
vn -0.05895 0.91949 -0.38866
vn -0.04055 0.91874 -0.39277
vn -0.02190 0.91762 -0.39686
vn -0.00299 0.91612 -0.40088
vn -0.00008 0.92314 -0.38448
vn -0.01897 0.92304 -0.38424
vn -0.03758 0.92261 -0.38391
vn -0.05590 0.92184 -0.38351
vn -0.07393 0.92076 -0.38307
vn -0.09170 0.91934 -0.38263
vn -0.10920 0.91760 -0.38220
vn -0.12645 0.91555 -0.38182
vn -0.14348 0.91317 -0.38150
vn -0.16031 0.91046 -0.38126
vn -0.17696 0.90744 -0.38111
vn -0.19345 0.90409 -0.38105
vn -0.20981 0.90041 -0.38111
vn 0.92388 -0.38268 0.00000
vn -0.21277 0.91311 -0.34780
vn -0.19591 0.91559 -0.35116
vn -0.17896 0.91772 -0.35463
vn -0.16190 0.91949 -0.35823
vn -0.14470 0.92090 -0.36194
vn -0.12734 0.92196 -0.36576
vn -0.10980 0.92265 -0.36967
vn -0.09206 0.92299 -0.37366
vn -0.07411 0.92296 -0.37770
vn -0.05594 0.92256 -0.38177
vn -0.03754 0.92180 -0.38583
vn -0.01892 0.92068 -0.38987
vn -0.00008 0.91918 -0.39383
vn 0.00281 0.92391 -0.38260
vn -0.01595 0.92386 -0.38240
vn -0.03446 0.92348 -0.38211
vn -0.05274 0.92276 -0.38174
vn -0.07076 0.92172 -0.38134
vn -0.08855 0.92036 -0.38093
vn -0.10611 0.91866 -0.38053
vn -0.12345 0.91664 -0.38018
vn -0.14059 0.91429 -0.37989
vn -0.15755 0.91161 -0.37967
vn -0.17435 0.90860 -0.37955
vn -0.19100 0.90525 -0.37952
vn -0.20754 0.90157 -0.37960
vn 1.00000 -0.00314 0.00000
vn -0.21068 0.91521 -0.34353
vn -0.19363 0.91770 -0.34689
vn -0.17650 0.91983 -0.35037
vn -0.15927 0.92160 -0.35397
vn -0.14193 0.92300 -0.35767
vn -0.12444 0.92404 -0.36148
vn -0.10680 0.92471 -0.36538
vn -0.08900 0.92502 -0.36934
vn -0.07101 0.92497 -0.37335
vn -0.05284 0.92455 -0.37738
vn -0.03447 0.92377 -0.38140
vn -0.01593 0.92262 -0.38538
vn 0.00280 0.92111 -0.38928
vn 0.00000 0.90816 -0.41863
vn 0.00000 0.91106 -0.41227
vn 0.00000 0.91388 -0.40598
vn 0.00000 0.91662 -0.39976
vn 0.00000 0.91927 -0.39363
vn 0.00000 0.92184 -0.38756
vn 0.00000 0.92434 -0.38157
vn 0.01274 0.90897 -0.41667
vn 0.01265 0.91186 -0.41030
vn 0.01255 0.91467 -0.40401
vn 0.01246 0.91739 -0.39780
vn 0.01236 0.92003 -0.39165
vn 0.01227 0.92259 -0.38559
vn 0.01218 0.92507 -0.37960
vn 0.02308 0.91128 -0.41114
vn 0.02291 0.91413 -0.40477
vn 0.02274 0.91690 -0.39847
vn 0.02256 0.91958 -0.39225
vn 0.02239 0.92218 -0.38610
vn 0.02222 0.92471 -0.38003
vn 0.02206 0.92715 -0.37404
vn 0.02901 0.91471 -0.40307
vn 0.02879 0.91750 -0.39668
vn 0.02857 0.92021 -0.39038
vn 0.02835 0.92284 -0.38415
vn 0.02813 0.92538 -0.37800
vn 0.02792 0.92784 -0.37192
vn 0.02770 0.93023 -0.36593
vn 0.02927 0.91865 -0.39399
vn 0.02904 0.92137 -0.38759
vn 0.02882 0.92401 -0.38127
vn 0.02859 0.92657 -0.37504
vn 0.02837 0.92904 -0.36888
vn 0.02815 0.93144 -0.36280
vn 0.02793 0.93376 -0.35681
vn 0.02367 0.92232 -0.38570
vn 0.02348 0.92498 -0.37929
vn 0.02329 0.92755 -0.37296
vn 0.02311 0.93004 -0.36672
vn 0.02292 0.93246 -0.36056
vn 0.02274 0.93479 -0.35448
vn 0.02256 0.93704 -0.34848
vn 0.01321 0.92494 -0.37990
vn 0.01310 0.92755 -0.37348
vn 0.01300 0.93007 -0.36715
vn 0.01289 0.93252 -0.36090
vn 0.01279 0.93488 -0.35474
vn 0.01269 0.93717 -0.34866
vn 0.01259 0.93938 -0.34266
vn 0.00000 0.92588 -0.37781
vn 0.00000 0.92848 -0.37139
vn 0.00000 0.93098 -0.36506
vn 0.00000 0.93341 -0.35881
vn 0.00000 0.93576 -0.35265
vn 0.00000 0.93803 -0.34656
vn 0.00000 0.94022 -0.34057
vn -0.01321 0.92494 -0.37990
vn -0.01310 0.92755 -0.37348
vn -0.01300 0.93007 -0.36715
vn -0.01289 0.93252 -0.36090
vn -0.01279 0.93488 -0.35474
vn -0.01269 0.93717 -0.34866
vn -0.01259 0.93938 -0.34266
vn -0.02367 0.92232 -0.38570
vn -0.02348 0.92498 -0.37929
vn -0.02329 0.92755 -0.37296
vn -0.02311 0.93004 -0.36672
vn -0.02292 0.93246 -0.36056
vn -0.02274 0.93479 -0.35448
vn -0.02256 0.93704 -0.34848
vn -0.02927 0.91865 -0.39399
vn -0.02904 0.92137 -0.38759
vn -0.02882 0.92401 -0.38127
vn -0.02859 0.92657 -0.37504
vn -0.02837 0.92904 -0.36888
vn -0.02815 0.93144 -0.36280
vn -0.02793 0.93376 -0.35681
vn -0.02901 0.91471 -0.40307
vn -0.02879 0.91750 -0.39668
vn -0.02857 0.92021 -0.39038
vn -0.02835 0.92284 -0.38415
vn -0.02813 0.92538 -0.37800
vn -0.02792 0.92784 -0.37192
vn -0.02770 0.93023 -0.36593
vn -0.02308 0.91128 -0.41114
vn -0.02291 0.91413 -0.40477
vn -0.02274 0.91690 -0.39847
vn -0.02256 0.91958 -0.39225
vn -0.02239 0.92218 -0.38610
vn -0.02222 0.92471 -0.38003
vn -0.02206 0.92715 -0.37404
vn -0.01274 0.90897 -0.41667
vn -0.01265 0.91186 -0.41030
vn -0.01255 0.91467 -0.40401
vn -0.01246 0.91739 -0.39780
vn -0.01236 0.92003 -0.39165
vn -0.01227 0.92259 -0.38559
vn -0.01218 0.92507 -0.37960
vn -0.00000 0.90816 -0.41863
vn -0.00000 0.91106 -0.41227
vn -0.00000 0.91388 -0.40598
vn -0.00000 0.91662 -0.39976
vn -0.00000 0.91927 -0.39363
vn -0.00000 0.92184 -0.38756
vn -0.00000 0.92434 -0.38157
f 1/1/1 28/28/28 29/29/29
f 1/1/1 29/29/29 2/2/2
f 2/2/2 29/29/29 30/30/30
f 2/2/2 30/30/30 3/3/3
f 3/3/3 30/30/30 31/31/31
f 3/3/3 31/31/31 4/4/4
f 4/4/4 31/31/31 32/32/32
f 4/4/4 32/32/32 5/5/5
f 5/5/5 32/32/32 33/33/33
f 5/5/5 33/33/33 6/6/6
f 6/6/6 33/33/33 34/34/34
f 6/6/6 34/34/34 7/7/7
f 7/7/7 34/34/34 35/35/35
f 7/7/7 35/35/35 8/8/8
f 8/8/8 35/35/35 36/36/36
f 8/8/8 36/36/36 9/9/9
f 9/9/9 36/36/36 37/37/37
f 9/9/9 37/37/37 10/10/10
f 10/10/10 37/37/37 38/38/38
f 10/10/10 38/38/38 11/11/11
f 11/11/11 38/38/38 39/39/39
f 11/11/11 39/39/39 12/12/12
f 12/12/12 39/39/39 40/40/40
f 12/12/12 40/40/40 13/13/13
f 13/13/13 40/40/40 41/41/41
f 13/13/13 41/41/41 14/14/14
f 14/14/14 41/41/41 42/42/42
f 14/14/14 42/42/42 15/15/15
f 15/15/15 42/42/42 43/43/43
f 15/15/15 43/43/43 16/16/16
f 16/16/16 43/43/43 44/44/44
f 16/16/16 44/44/44 17/17/17
f 17/17/17 44/44/44 45/45/45
f 17/17/17 45/45/45 18/18/18
f 18/18/18 45/45/45 46/46/46
f 18/18/18 46/46/46 19/19/19
f 19/19/19 46/46/46 47/47/47
f 19/19/19 47/47/47 20/20/20
f 20/20/20 47/47/47 48/48/48
f 20/20/20 48/48/48 21/21/21
f 21/21/21 48/48/48 49/49/49
f 21/21/21 49/49/49 22/22/22
f 22/22/22 49/49/49 50/50/50
f 22/22/22 50/50/50 23/23/23
f 23/23/23 50/50/50 51/51/51
f 23/23/23 51/51/51 24/24/24
f 24/24/24 51/51/51 52/52/52
f 24/24/24 52/52/52 25/25/25
f 25/25/25 52/52/52 53/53/53
f 25/25/25 53/53/53 26/26/26
f 26/26/26 53/53/53 54/54/54
f 26/26/26 54/54/54 27/27/27
f 28/28/28 55/55/55 56/56/56
f 28/28/28 56/56/56 29/29/29
f 29/29/29 56/56/56 57/57/57
f 29/29/29 57/57/57 30/30/30
f 30/30/30 57/57/57 58/58/58
f 30/30/30 58/58/58 31/31/31
f 31/31/31 58/58/58 59/59/59
f 31/31/31 59/59/59 32/32/32
f 32/32/32 59/59/59 60/60/60
f 32/32/32 60/60/60 33/33/33
f 33/33/33 60/60/60 61/61/61
f 33/33/33 61/61/61 34/34/34
f 34/34/34 61/61/61 62/62/62
f 34/34/34 62/62/62 35/35/35
f 35/35/35 62/62/62 63/63/63
f 35/35/35 63/63/63 36/36/36
f 36/36/36 63/63/63 64/64/64
f 36/36/36 64/64/64 37/37/37
f 37/37/37 64/64/64 65/65/65
f 37/37/37 65/65/65 38/38/38
f 38/38/38 65/65/65 66/66/66
f 38/38/38 66/66/66 39/39/39
f 39/39/39 66/66/66 67/67/67
f 39/39/39 67/67/67 40/40/40
f 40/40/40 67/67/67 68/68/68
f 40/40/40 68/68/68 41/41/41
f 41/41/41 68/68/68 69/69/69
f 41/41/41 69/69/69 42/42/42
f 42/42/42 69/69/69 70/70/70
f 42/42/42 70/70/70 43/43/43
f 43/43/43 70/70/70 71/71/71
f 43/43/43 71/71/71 44/44/44
f 44/44/44 71/71/71 72/72/72
f 44/44/44 72/72/72 45/45/45
f 45/45/45 72/72/72 73/73/73
f 45/45/45 73/73/73 46/46/46
f 46/46/46 73/73/73 74/74/74
f 46/46/46 74/74/74 47/47/47
f 47/47/47 74/74/74 75/75/75
f 47/47/47 75/75/75 48/48/48
f 48/48/48 75/75/75 76/76/76
f 48/48/48 76/76/76 49/49/49
f 49/49/49 76/76/76 77/77/77
f 49/49/49 77/77/77 50/50/50
f 50/50/50 77/77/77 78/78/78
f 50/50/50 78/78/78 51/51/51
f 51/51/51 78/78/78 79/79/79
f 51/51/51 79/79/79 52/52/52
f 52/52/52 79/79/79 80/80/80
f 52/52/52 80/80/80 53/53/53
f 53/53/53 80/80/80 81/81/81
f 53/53/53 81/81/81 54/54/54
f 55/55/55 82/82/82 83/83/83
f 55/55/55 83/83/83 56/56/56
f 56/56/56 83/83/83 84/84/84
f 56/56/56 84/84/84 57/57/57
f 57/57/57 84/84/84 85/85/85
f 57/57/57 85/85/85 58/58/58
f 58/58/58 85/85/85 86/86/86
f 58/58/58 86/86/86 59/59/59
f 59/59/59 86/86/86 87/87/87
f 59/59/59 87/87/87 60/60/60
f 60/60/60 87/87/87 88/88/88
f 60/60/60 88/88/88 61/61/61
f 61/61/61 88/88/88 89/89/89
f 61/61/61 89/89/89 62/62/62
f 62/62/62 89/89/89 90/90/90
f 62/62/62 90/90/90 63/63/63
f 63/63/63 90/90/90 91/91/91
f 63/63/63 91/91/91 64/64/64
f 64/64/64 91/91/91 92/92/92
f 64/64/64 92/92/92 65/65/65
f 65/65/65 92/92/92 93/93/93
f 65/65/65 93/93/93 66/66/66
f 66/66/66 93/93/93 94/94/94
f 66/66/66 94/94/94 67/67/67
f 67/67/67 94/94/94 95/95/95
f 67/67/67 95/95/95 68/68/68
f 68/68/68 95/95/95 96/96/96
f 68/68/68 96/96/96 69/69/69
f 69/69/69 96/96/96 97/97/97
f 69/69/69 97/97/97 70/70/70
f 70/70/70 97/97/97 98/98/98
f 70/70/70 98/98/98 71/71/71
f 71/71/71 98/98/98 99/99/99
f 71/71/71 99/99/99 72/72/72
f 72/72/72 99/99/99 100/100/100
f 72/72/72 100/100/100 73/73/73
f 73/73/73 100/100/100 101/101/101
f 73/73/73 101/101/101 74/74/74
f 74/74/74 101/101/101 102/102/102
f 74/74/74 102/102/102 75/75/75
f 75/75/75 102/102/102 103/103/103
f 75/75/75 103/103/103 76/76/76
f 76/76/76 103/103/103 104/104/104
f 76/76/76 104/104/104 77/77/77
f 77/77/77 104/104/104 105/105/105
f 77/77/77 105/105/105 78/78/78
f 78/78/78 105/105/105 106/106/106
f 78/78/78 106/106/106 79/79/79
f 79/79/79 106/106/106 107/107/107
f 79/79/79 107/107/107 80/80/80
f 80/80/80 107/107/107 108/108/108
f 80/80/80 108/108/108 81/81/81
f 82/82/82 109/109/109 110/110/110
f 82/82/82 110/110/110 83/83/83
f 83/83/83 110/110/110 111/111/111
f 83/83/83 111/111/111 84/84/84
f 84/84/84 111/111/111 112/112/112
f 84/84/84 112/112/112 85/85/85
f 85/85/85 112/112/112 113/113/113
f 85/85/85 113/113/113 86/86/86
f 86/86/86 113/113/113 114/114/114
f 86/86/86 114/114/114 87/87/87
f 87/87/87 114/114/114 115/115/115
f 87/87/87 115/115/115 88/88/88
f 88/88/88 115/115/115 116/116/116
f 88/88/88 116/116/116 89/89/89
f 89/89/89 116/116/116 117/117/117
f 89/89/89 117/117/117 90/90/90
f 90/90/90 117/117/117 118/118/118
f 90/90/90 118/118/118 91/91/91
f 91/91/91 118/118/118 119/119/119
f 91/91/91 119/119/119 92/92/92
f 92/92/92 119/119/119 120/120/120
f 92/92/92 120/120/120 93/93/93
f 93/93/93 120/120/120 121/121/121
f 93/93/93 121/121/121 94/94/94
f 94/94/94 121/121/121 122/122/122
f 94/94/94 122/122/122 95/95/95
f 95/95/95 122/122/122 123/123/123
f 95/95/95 123/123/123 96/96/96
f 96/96/96 123/123/123 124/124/124
f 96/96/96 124/124/124 97/97/97
f 97/97/97 124/124/124 125/125/125
f 97/97/97 125/125/125 98/98/98
f 98/98/98 125/125/125 126/126/126
f 98/98/98 126/126/126 99/99/99
f 99/99/99 126/126/126 127/127/127
f 99/99/99 127/127/127 100/100/100
f 100/100/100 127/127/127 128/128/128
f 100/100/100 128/128/128 101/101/101
f 101/101/101 128/128/128 129/129/129
f 101/101/101 129/129/129 102/102/102
f 102/102/102 129/129/129 130/130/130
f 102/102/102 130/130/130 103/103/103
f 103/103/103 130/130/130 131/131/131
f 103/103/103 131/131/131 104/104/104
f 104/104/104 131/131/131 132/132/132
f 104/104/104 132/132/132 105/105/105
f 105/105/105 132/132/132 133/133/133
f 105/105/105 133/133/133 106/106/106
f 106/106/106 133/133/133 134/134/134
f 106/106/106 134/134/134 107/107/107
f 107/107/107 134/134/134 135/135/135
f 107/107/107 135/135/135 108/108/108
f 109/109/109 136/136/136 137/137/137
f 109/109/109 137/137/137 110/110/110
f 110/110/110 137/137/137 138/138/138
f 110/110/110 138/138/138 111/111/111
f 111/111/111 138/138/138 139/139/139
f 111/111/111 139/139/139 112/112/112
f 112/112/112 139/139/139 140/140/140
f 112/112/112 140/140/140 113/113/113
f 113/113/113 140/140/140 141/141/141
f 113/113/113 141/141/141 114/114/114
f 114/114/114 141/141/141 142/142/142
f 114/114/114 142/142/142 115/115/115
f 115/115/115 142/142/142 143/143/143
f 115/115/115 143/143/143 116/116/116
f 116/116/116 143/143/143 144/144/144
f 116/116/116 144/144/144 117/117/117
f 117/117/117 144/144/144 145/145/145
f 117/117/117 145/145/145 118/118/118
f 118/118/118 145/145/145 146/146/146
f 118/118/118 146/146/146 119/119/119
f 119/119/119 146/146/146 147/147/147
f 119/119/119 147/147/147 120/120/120
f 120/120/120 147/147/147 148/148/148
f 120/120/120 148/148/148 121/121/121
f 121/121/121 148/148/148 149/149/149
f 121/121/121 149/149/149 122/122/122
f 122/122/122 149/149/149 150/150/150
f 122/122/122 150/150/150 123/123/123
f 123/123/123 150/150/150 151/151/151
f 123/123/123 151/151/151 124/124/124
f 124/124/124 151/151/151 152/152/152
f 124/124/124 152/152/152 125/125/125
f 125/125/125 152/152/152 153/153/153
f 125/125/125 153/153/153 126/126/126
f 126/126/126 153/153/153 154/154/154
f 126/126/126 154/154/154 127/127/127
f 127/127/127 154/154/154 155/155/155
f 127/127/127 155/155/155 128/128/128
f 128/128/128 155/155/155 156/156/156
f 128/128/128 156/156/156 129/129/129
f 129/129/129 156/156/156 157/157/157
f 129/129/129 157/157/157 130/130/130
f 130/130/130 157/157/157 158/158/158
f 130/130/130 158/158/158 131/131/131
f 131/131/131 158/158/158 159/159/159
f 131/131/131 159/159/159 132/132/132
f 132/132/132 159/159/159 160/160/160
f 132/132/132 160/160/160 133/133/133
f 133/133/133 160/160/160 161/161/161
f 133/133/133 161/161/161 134/134/134
f 134/134/134 161/161/161 162/162/162
f 134/134/134 162/162/162 135/135/135
f 136/136/136 163/163/163 164/164/164
f 136/136/136 164/164/164 137/137/137
f 137/137/137 164/164/164 165/165/165
f 137/137/137 165/165/165 138/138/138
f 138/138/138 165/165/165 166/166/166
f 138/138/138 166/166/166 139/139/139
f 139/139/139 166/166/166 167/167/167
f 139/139/139 167/167/167 140/140/140
f 140/140/140 167/167/167 168/168/168
f 140/140/140 168/168/168 141/141/141
f 141/141/141 168/168/168 169/169/169
f 141/141/141 169/169/169 142/142/142
f 142/142/142 169/169/169 170/170/170
f 142/142/142 170/170/170 143/143/143
f 143/143/143 170/170/170 171/171/171
f 143/143/143 171/171/171 144/144/144
f 144/144/144 171/171/171 172/172/172
f 144/144/144 172/172/172 145/145/145
f 145/145/145 172/172/172 173/173/173
f 145/145/145 173/173/173 146/146/146
f 146/146/146 173/173/173 174/174/174
f 146/146/146 174/174/174 147/147/147
f 147/147/147 174/174/174 175/175/175
f 147/147/147 175/175/175 148/148/148
f 148/148/148 175/175/175 176/176/176
f 148/148/148 176/176/176 149/149/149
f 149/149/149 176/176/176 177/177/177
f 149/149/149 177/177/177 150/150/150
f 150/150/150 177/177/177 178/178/178
f 150/150/150 178/178/178 151/151/151
f 151/151/151 178/178/178 179/179/179
f 151/151/151 179/179/179 152/152/152
f 152/152/152 179/179/179 180/180/180
f 152/152/152 180/180/180 153/153/153
f 153/153/153 180/180/180 181/181/181
f 153/153/153 181/181/181 154/154/154
f 154/154/154 181/181/181 182/182/182
f 154/154/154 182/182/182 155/155/155
f 155/155/155 182/182/182 183/183/183
f 155/155/155 183/183/183 156/156/156
f 156/156/156 183/183/183 184/184/184
f 156/156/156 184/184/184 157/157/157
f 157/157/157 184/184/184 185/185/185
f 157/157/157 185/185/185 158/158/158
f 158/158/158 185/185/185 186/186/186
f 158/158/158 186/186/186 159/159/159
f 159/159/159 186/186/186 187/187/187
f 159/159/159 187/187/187 160/160/160
f 160/160/160 187/187/187 188/188/188
f 160/160/160 188/188/188 161/161/161
f 161/161/161 188/188/188 189/189/189
f 161/161/161 189/189/189 162/162/162
f 163/163/163 190/190/190 191/191/191
f 163/163/163 191/191/191 164/164/164
f 164/164/164 191/191/191 192/192/192
f 164/164/164 192/192/192 165/165/165
f 165/165/165 192/192/192 193/193/193
f 165/165/165 193/193/193 166/166/166
f 166/166/166 193/193/193 194/194/194
f 166/166/166 194/194/194 167/167/167
f 167/167/167 194/194/194 195/195/195
f 167/167/167 195/195/195 168/168/168
f 168/168/168 195/195/195 196/196/196
f 168/168/168 196/196/196 169/169/169
f 169/169/169 196/196/196 197/197/197
f 169/169/169 197/197/197 170/170/170
f 170/170/170 197/197/197 198/198/198
f 170/170/170 198/198/198 171/171/171
f 171/171/171 198/198/198 199/199/199
f 171/171/171 199/199/199 172/172/172
f 172/172/172 199/199/199 200/200/200
f 172/172/172 200/200/200 173/173/173
f 173/173/173 200/200/200 201/201/201
f 173/173/173 201/201/201 174/174/174
f 174/174/174 201/201/201 202/202/202
f 174/174/174 202/202/202 175/175/175
f 175/175/175 202/202/202 203/203/203
f 175/175/175 203/203/203 176/176/176
f 176/176/176 203/203/203 204/204/204
f 176/176/176 204/204/204 177/177/177
f 177/177/177 204/204/204 205/205/205
f 177/177/177 205/205/205 178/178/178
f 178/178/178 205/205/205 206/206/206
f 178/178/178 206/206/206 179/179/179
f 179/179/179 206/206/206 207/207/207
f 179/179/179 207/207/207 180/180/180
f 180/180/180 207/207/207 208/208/208
f 180/180/180 208/208/208 181/181/181
f 181/181/181 208/208/208 209/209/209
f 181/181/181 209/209/209 182/182/182
f 182/182/182 209/209/209 210/210/210
f 182/182/182 210/210/210 183/183/183
f 183/183/183 210/210/210 211/211/211
f 183/183/183 211/211/211 184/184/184
f 184/184/184 211/211/211 212/212/212
f 184/184/184 212/212/212 185/185/185
f 185/185/185 212/212/212 213/213/213
f 185/185/185 213/213/213 186/186/186
f 186/186/186 213/213/213 214/214/214
f 186/186/186 214/214/214 187/187/187
f 187/187/187 214/214/214 215/215/215
f 187/187/187 215/215/215 188/188/188
f 188/188/188 215/215/215 216/216/216
f 188/188/188 216/216/216 189/189/189
f 190/190/190 217/217/217 218/218/218
f 190/190/190 218/218/218 191/191/191
f 191/191/191 218/218/218 219/219/219
f 191/191/191 219/219/219 192/192/192
f 192/192/192 219/219/219 220/220/220
f 192/192/192 220/220/220 193/193/193
f 193/193/193 220/220/220 221/221/221
f 193/193/193 221/221/221 194/194/194
f 194/194/194 221/221/221 222/222/222
f 194/194/194 222/222/222 195/195/195
f 195/195/195 222/222/222 223/223/223
f 195/195/195 223/223/223 196/196/196
f 196/196/196 223/223/223 224/224/224
f 196/196/196 224/224/224 197/197/197
f 197/197/197 224/224/224 225/225/225
f 197/197/197 225/225/225 198/198/198
f 198/198/198 225/225/225 226/226/226
f 198/198/198 226/226/226 199/199/199
f 199/199/199 226/226/226 227/227/227
f 199/199/199 227/227/227 200/200/200
f 200/200/200 227/227/227 228/228/228
f 200/200/200 228/228/228 201/201/201
f 201/201/201 228/228/228 229/229/229
f 201/201/201 229/229/229 202/202/202
f 202/202/202 229/229/229 230/230/230
f 202/202/202 230/230/230 203/203/203
f 203/203/203 230/230/230 231/231/231
f 203/203/203 231/231/231 204/204/204
f 204/204/204 231/231/231 232/232/232
f 204/204/204 232/232/232 205/205/205
f 205/205/205 232/232/232 233/233/233
f 205/205/205 233/233/233 206/206/206
f 206/206/206 233/233/233 234/234/234
f 206/206/206 234/234/234 207/207/207
f 207/207/207 234/234/234 235/235/235
f 207/207/207 235/235/235 208/208/208
f 208/208/208 235/235/235 236/236/236
f 208/208/208 236/236/236 209/209/209
f 209/209/209 236/236/236 237/237/237
f 209/209/209 237/237/237 210/210/210
f 210/210/210 237/237/237 238/238/238
f 210/210/210 238/238/238 211/211/211
f 211/211/211 238/238/238 239/239/239
f 211/211/211 239/239/239 212/212/212
f 212/212/212 239/239/239 240/240/240
f 212/212/212 240/240/240 213/213/213
f 213/213/213 240/240/240 241/241/241
f 213/213/213 241/241/241 214/214/214
f 214/214/214 241/241/241 242/242/242
f 214/214/214 242/242/242 215/215/215
f 215/215/215 242/242/242 243/243/243
f 215/215/215 243/243/243 216/216/216
f 217/217/217 244/244/244 245/245/245
f 217/217/217 245/245/245 218/218/218
f 218/218/218 245/245/245 246/246/246
f 218/218/218 246/246/246 219/219/219
f 219/219/219 246/246/246 247/247/247
f 219/219/219 247/247/247 220/220/220
f 220/220/220 247/247/247 248/248/248
f 220/220/220 248/248/248 221/221/221
f 221/221/221 248/248/248 249/249/249
f 221/221/221 249/249/249 222/222/222
f 222/222/222 249/249/249 250/250/250
f 222/222/222 250/250/250 223/223/223
f 223/223/223 250/250/250 251/251/251
f 223/223/223 251/251/251 224/224/224
f 224/224/224 251/251/251 252/252/252
f 224/224/224 252/252/252 225/225/225
f 225/225/225 252/252/252 253/253/253
f 225/225/225 253/253/253 226/226/226
f 226/226/226 253/253/253 254/254/254
f 226/226/226 254/254/254 227/227/227
f 227/227/227 254/254/254 255/255/255
f 227/227/227 255/255/255 228/228/228
f 228/228/228 255/255/255 256/256/256
f 228/228/228 256/256/256 229/229/229
f 229/229/229 256/256/256 257/257/257
f 229/229/229 257/257/257 230/230/230
f 230/230/230 257/257/257 258/258/258
f 230/230/230 258/258/258 231/231/231
f 231/231/231 258/258/258 259/259/259
f 231/231/231 259/259/259 232/232/232
f 232/232/232 259/259/259 260/260/260
f 232/232/232 260/260/260 233/233/233
f 233/233/233 260/260/260 261/261/261
f 233/233/233 261/261/261 234/234/234
f 234/234/234 261/261/261 262/262/262
f 234/234/234 262/262/262 235/235/235
f 235/235/235 262/262/262 263/263/263
f 235/235/235 263/263/263 236/236/236
f 236/236/236 263/263/263 264/264/264
f 236/236/236 264/264/264 237/237/237
f 237/237/237 264/264/264 265/265/265
f 237/237/237 265/265/265 238/238/238
f 238/238/238 265/265/265 266/266/266
f 238/238/238 266/266/266 239/239/239
f 239/239/239 266/266/266 267/267/267
f 239/239/239 267/267/267 240/240/240
f 240/240/240 267/267/267 268/268/268
f 240/240/240 268/268/268 241/241/241
f 241/241/241 268/268/268 269/269/269
f 241/241/241 269/269/269 242/242/242
f 242/242/242 269/269/269 270/270/270
f 242/242/242 270/270/270 243/243/243
f 244/244/244 271/271/271 272/272/272
f 244/244/244 272/272/272 245/245/245
f 245/245/245 272/272/272 273/273/273
f 245/245/245 273/273/273 246/246/246
f 246/246/246 273/273/273 274/274/274
f 246/246/246 274/274/274 247/247/247
f 247/247/247 274/274/274 275/275/275
f 247/247/247 275/275/275 248/248/248
f 248/248/248 275/275/275 276/276/276
f 248/248/248 276/276/276 249/249/249
f 249/249/249 276/276/276 277/277/277
f 249/249/249 277/277/277 250/250/250
f 250/250/250 277/277/277 278/278/278
f 250/250/250 278/278/278 251/251/251
f 251/251/251 278/278/278 279/279/279
f 251/251/251 279/279/279 252/252/252
f 252/252/252 279/279/279 280/280/280
f 252/252/252 280/280/280 253/253/253
f 253/253/253 280/280/280 281/281/281
f 253/253/253 281/281/281 254/254/254
f 254/254/254 281/281/281 282/282/282
f 254/254/254 282/282/282 255/255/255
f 255/255/255 282/282/282 283/283/283
f 255/255/255 283/283/283 256/256/256
f 256/256/256 283/283/283 284/284/284
f 256/256/256 284/284/284 257/257/257
f 257/257/257 284/284/284 285/285/285
f 257/257/257 285/285/285 258/258/258
f 258/258/258 285/285/285 286/286/286
f 258/258/258 286/286/286 259/259/259
f 259/259/259 286/286/286 287/287/287
f 259/259/259 287/287/287 260/260/260
f 260/260/260 287/287/287 288/288/288
f 260/260/260 288/288/288 261/261/261
f 261/261/261 288/288/288 289/289/289
f 261/261/261 289/289/289 262/262/262
f 262/262/262 289/289/289 290/290/290
f 262/262/262 290/290/290 263/263/263
f 263/263/263 290/290/290 291/291/291
f 263/263/263 291/291/291 264/264/264
f 264/264/264 291/291/291 292/292/292
f 264/264/264 292/292/292 265/265/265
f 265/265/265 292/292/292 293/293/293
f 265/265/265 293/293/293 266/266/266
f 266/266/266 293/293/293 294/294/294
f 266/266/266 294/294/294 267/267/267
f 267/267/267 294/294/294 295/295/295
f 267/267/267 295/295/295 268/268/268
f 268/268/268 295/295/295 296/296/296
f 268/268/268 296/296/296 269/269/269
f 269/269/269 296/296/296 297/297/297
f 269/269/269 297/297/297 270/270/270
f 271/271/271 298/298/298 299/299/299
f 271/271/271 299/299/299 272/272/272
f 272/272/272 299/299/299 300/300/300
f 272/272/272 300/300/300 273/273/273
f 273/273/273 300/300/300 301/301/301
f 273/273/273 301/301/301 274/274/274
f 274/274/274 301/301/301 302/302/302
f 274/274/274 302/302/302 275/275/275
f 275/275/275 302/302/302 303/303/303
f 275/275/275 303/303/303 276/276/276
f 276/276/276 303/303/303 304/304/304
f 276/276/276 304/304/304 277/277/277
f 277/277/277 304/304/304 305/305/305
f 277/277/277 305/305/305 278/278/278
f 278/278/278 305/305/305 306/306/306
f 278/278/278 306/306/306 279/279/279
f 279/279/279 306/306/306 307/307/307
f 279/279/279 307/307/307 280/280/280
f 280/280/280 307/307/307 308/308/308
f 280/280/280 308/308/308 281/281/281
f 281/281/281 308/308/308 309/309/309
f 281/281/281 309/309/309 282/282/282
f 282/282/282 309/309/309 310/310/310
f 282/282/282 310/310/310 283/283/283
f 283/283/283 310/310/310 311/311/311
f 283/283/283 311/311/311 284/284/284
f 284/284/284 311/311/311 312/312/312
f 284/284/284 312/312/312 285/285/285
f 285/285/285 312/312/312 313/313/313
f 285/285/285 313/313/313 286/286/286
f 286/286/286 313/313/313 314/314/314
f 286/286/286 314/314/314 287/287/287
f 287/287/287 314/314/314 315/315/315
f 287/287/287 315/315/315 288/288/288
f 288/288/288 315/315/315 316/316/316
f 288/288/288 316/316/316 289/289/289
f 289/289/289 316/316/316 317/317/317
f 289/289/289 317/317/317 290/290/290
f 290/290/290 317/317/317 318/318/318
f 290/290/290 318/318/318 291/291/291
f 291/291/291 318/318/318 319/319/319
f 291/291/291 319/319/319 292/292/292
f 292/292/292 319/319/319 320/320/320
f 292/292/292 320/320/320 293/293/293
f 293/293/293 320/320/320 321/321/321
f 293/293/293 321/321/321 294/294/294
f 294/294/294 321/321/321 322/322/322
f 294/294/294 322/322/322 295/295/295
f 295/295/295 322/322/322 323/323/323
f 295/295/295 323/323/323 296/296/296
f 296/296/296 323/323/323 324/324/324
f 296/296/296 324/324/324 297/297/297
f 298/298/298 325/325/325 326/326/326
f 298/298/298 326/326/326 299/299/299
f 299/299/299 326/326/326 327/327/327
f 299/299/299 327/327/327 300/300/300
f 300/300/300 327/327/327 328/328/328
f 300/300/300 328/328/328 301/301/301
f 301/301/301 328/328/328 329/329/329
f 301/301/301 329/329/329 302/302/302
f 302/302/302 329/329/329 330/330/330
f 302/302/302 330/330/330 303/303/303
f 303/303/303 330/330/330 331/331/331
f 303/303/303 331/331/331 304/304/304
f 304/304/304 331/331/331 332/332/332
f 304/304/304 332/332/332 305/305/305
f 305/305/305 332/332/332 333/333/333
f 305/305/305 333/333/333 306/306/306
f 306/306/306 333/333/333 334/334/334
f 306/306/306 334/334/334 307/307/307
f 307/307/307 334/334/334 335/335/335
f 307/307/307 335/335/335 308/308/308
f 308/308/308 335/335/335 336/336/336
f 308/308/308 336/336/336 309/309/309
f 309/309/309 336/336/336 337/337/337
f 309/309/309 337/337/337 310/310/310
f 310/310/310 337/337/337 338/338/338
f 310/310/310 338/338/338 311/311/311
f 311/311/311 338/338/338 339/339/339
f 311/311/311 339/339/339 312/312/312
f 312/312/312 339/339/339 340/340/340
f 312/312/312 340/340/340 313/313/313
f 313/313/313 340/340/340 341/341/341
f 313/313/313 341/341/341 314/314/314
f 314/314/314 341/341/341 342/342/342
f 314/314/314 342/342/342 315/315/315
f 315/315/315 342/342/342 343/343/343
f 315/315/315 343/343/343 316/316/316
f 316/316/316 343/343/343 344/344/344
f 316/316/316 344/344/344 317/317/317
f 317/317/317 344/344/344 345/345/345
f 317/317/317 345/345/345 318/318/318
f 318/318/318 345/345/345 346/346/346
f 318/318/318 346/346/346 319/319/319
f 319/319/319 346/346/346 347/347/347
f 319/319/319 347/347/347 320/320/320
f 320/320/320 347/347/347 348/348/348
f 320/320/320 348/348/348 321/321/321
f 321/321/321 348/348/348 349/349/349
f 321/321/321 349/349/349 322/322/322
f 322/322/322 349/349/349 350/350/350
f 322/322/322 350/350/350 323/323/323
f 323/323/323 350/350/350 351/351/351
f 323/323/323 351/351/351 324/324/324
f 325/325/325 352/352/352 353/353/353
f 325/325/325 353/353/353 326/326/326
f 326/326/326 353/353/353 354/354/354
f 326/326/326 354/354/354 327/327/327
f 327/327/327 354/354/354 355/355/355
f 327/327/327 355/355/355 328/328/328
f 328/328/328 355/355/355 356/356/356
f 328/328/328 356/356/356 329/329/329
f 329/329/329 356/356/356 357/357/357
f 329/329/329 357/357/357 330/330/330
f 330/330/330 357/357/357 358/358/358
f 330/330/330 358/358/358 331/331/331
f 331/331/331 358/358/358 359/359/359
f 331/331/331 359/359/359 332/332/332
f 332/332/332 359/359/359 360/360/360
f 332/332/332 360/360/360 333/333/333
f 333/333/333 360/360/360 361/361/361
f 333/333/333 361/361/361 334/334/334
f 334/334/334 361/361/361 362/362/362
f 334/334/334 362/362/362 335/335/335
f 335/335/335 362/362/362 363/363/363
f 335/335/335 363/363/363 336/336/336
f 336/336/336 363/363/363 364/364/364
f 336/336/336 364/364/364 337/337/337
f 337/337/337 364/364/364 365/365/365
f 337/337/337 365/365/365 338/338/338
f 338/338/338 365/365/365 366/366/366
f 338/338/338 366/366/366 339/339/339
f 339/339/339 366/366/366 367/367/367
f 339/339/339 367/367/367 340/340/340
f 340/340/340 367/367/367 368/368/368
f 340/340/340 368/368/368 341/341/341
f 341/341/341 368/368/368 369/369/369
f 341/341/341 369/369/369 342/342/342
f 342/342/342 369/369/369 370/370/370
f 342/342/342 370/370/370 343/343/343
f 343/343/343 370/370/370 371/371/371
f 343/343/343 371/371/371 344/344/344
f 344/344/344 371/371/371 372/372/372
f 344/344/344 372/372/372 345/345/345
f 345/345/345 372/372/372 373/373/373
f 345/345/345 373/373/373 346/346/346
f 346/346/346 373/373/373 374/374/374
f 346/346/346 374/374/374 347/347/347
f 347/347/347 374/374/374 375/375/375
f 347/347/347 375/375/375 348/348/348
f 348/348/348 375/375/375 376/376/376
f 348/348/348 376/376/376 349/349/349
f 349/349/349 376/376/376 377/377/377
f 349/349/349 377/377/377 350/350/350
f 350/350/350 377/377/377 378/378/378
f 350/350/350 378/378/378 351/351/351
f 352/352/352 379/379/379 380/380/380
f 352/352/352 380/380/380 353/353/353
f 353/353/353 380/380/380 381/381/381
f 353/353/353 381/381/381 354/354/354
f 354/354/354 381/381/381 382/382/382
f 354/354/354 382/382/382 355/355/355
f 355/355/355 382/382/382 383/383/383
f 355/355/355 383/383/383 356/356/356
f 356/356/356 383/383/383 384/384/384
f 356/356/356 384/384/384 357/357/357
f 357/357/357 384/384/384 385/385/385
f 357/357/357 385/385/385 358/358/358
f 358/358/358 385/385/385 386/386/386
f 358/358/358 386/386/386 359/359/359
f 359/359/359 386/386/386 387/387/387
f 359/359/359 387/387/387 360/360/360
f 360/360/360 387/387/387 388/388/388
f 360/360/360 388/388/388 361/361/361
f 361/361/361 388/388/388 389/389/389
f 361/361/361 389/389/389 362/362/362
f 362/362/362 389/389/389 390/390/390
f 362/362/362 390/390/390 363/363/363
f 363/363/363 390/390/390 391/391/391
f 363/363/363 391/391/391 364/364/364
f 364/364/364 391/391/391 392/392/392
f 364/364/364 392/392/392 365/365/365
f 365/365/365 392/392/392 393/393/393
f 365/365/365 393/393/393 366/366/366
f 366/366/366 393/393/393 394/394/394
f 366/366/366 394/394/394 367/367/367
f 367/367/367 394/394/394 395/395/395
f 367/367/367 395/395/395 368/368/368
f 368/368/368 395/395/395 396/396/396
f 368/368/368 396/396/396 369/369/369
f 369/369/369 396/396/396 397/397/397
f 369/369/369 397/397/397 370/370/370
f 370/370/370 397/397/397 398/398/398
f 370/370/370 398/398/398 371/371/371
f 371/371/371 398/398/398 399/399/399
f 371/371/371 399/399/399 372/372/372
f 372/372/372 399/399/399 400/400/400
f 372/372/372 400/400/400 373/373/373
f 373/373/373 400/400/400 401/401/401
f 373/373/373 401/401/401 374/374/374
f 374/374/374 401/401/401 402/402/402
f 374/374/374 402/402/402 375/375/375
f 375/375/375 402/402/402 403/403/403
f 375/375/375 403/403/403 376/376/376
f 376/376/376 403/403/403 404/404/404
f 376/376/376 404/404/404 377/377/377
f 377/377/377 404/404/404 405/405/405
f 377/377/377 405/405/405 378/378/378
f 379/379/379 406/406/406 407/407/407
f 379/379/379 407/407/407 380/380/380
f 380/380/380 407/407/407 408/408/408
f 380/380/380 408/408/408 381/381/381
f 381/381/381 408/408/408 409/409/409
f 381/381/381 409/409/409 382/382/382
f 382/382/382 409/409/409 410/410/410
f 382/382/382 410/410/410 383/383/383
f 383/383/383 410/410/410 411/411/411
f 383/383/383 411/411/411 384/384/384
f 384/384/384 411/411/411 412/412/412
f 384/384/384 412/412/412 385/385/385
f 385/385/385 412/412/412 413/413/413
f 385/385/385 413/413/413 386/386/386
f 386/386/386 413/413/413 414/414/414
f 386/386/386 414/414/414 387/387/387
f 387/387/387 414/414/414 415/415/415
f 387/387/387 415/415/415 388/388/388
f 388/388/388 415/415/415 416/416/416
f 388/388/388 416/416/416 389/389/389
f 389/389/389 416/416/416 417/417/417
f 389/389/389 417/417/417 390/390/390
f 390/390/390 417/417/417 418/418/418
f 390/390/390 418/418/418 391/391/391
f 391/391/391 418/418/418 419/419/419
f 391/391/391 419/419/419 392/392/392
f 392/392/392 419/419/419 420/420/420
f 392/392/392 420/420/420 393/393/393
f 393/393/393 420/420/420 421/421/421
f 393/393/393 421/421/421 394/394/394
f 394/394/394 421/421/421 422/422/422
f 394/394/394 422/422/422 395/395/395
f 395/395/395 422/422/422 423/423/423
f 395/395/395 423/423/423 396/396/396
f 396/396/396 423/423/423 424/424/424
f 396/396/396 424/424/424 397/397/397
f 397/397/397 424/424/424 425/425/425
f 397/397/397 425/425/425 398/398/398
f 398/398/398 425/425/425 426/426/426
f 398/398/398 426/426/426 399/399/399
f 399/399/399 426/426/426 427/427/427
f 399/399/399 427/427/427 400/400/400
f 400/400/400 427/427/427 428/428/428
f 400/400/400 428/428/428 401/401/401
f 401/401/401 428/428/428 429/429/429
f 401/401/401 429/429/429 402/402/402
f 402/402/402 429/429/429 430/430/430
f 402/402/402 430/430/430 403/403/403
f 403/403/403 430/430/430 431/431/431
f 403/403/403 431/431/431 404/404/404
f 404/404/404 431/431/431 432/432/432
f 404/404/404 432/432/432 405/405/405
f 406/406/406 433/433/433 434/434/434
f 406/406/406 434/434/434 407/407/407
f 407/407/407 434/434/434 435/435/435
f 407/407/407 435/435/435 408/408/408
f 408/408/408 435/435/435 436/436/436
f 408/408/408 436/436/436 409/409/409
f 409/409/409 436/436/436 437/437/437
f 409/409/409 437/437/437 410/410/410
f 410/410/410 437/437/437 438/438/438
f 410/410/410 438/438/438 411/411/411
f 411/411/411 438/438/438 439/439/439
f 411/411/411 439/439/439 412/412/412
f 412/412/412 439/439/439 440/440/440
f 412/412/412 440/440/440 413/413/413
f 413/413/413 440/440/440 441/441/441
f 413/413/413 441/441/441 414/414/414
f 414/414/414 441/441/441 442/442/442
f 414/414/414 442/442/442 415/415/415
f 415/415/415 442/442/442 443/443/443
f 415/415/415 443/443/443 416/416/416
f 416/416/416 443/443/443 444/444/444
f 416/416/416 444/444/444 417/417/417
f 417/417/417 444/444/444 445/445/445
f 417/417/417 445/445/445 418/418/418
f 418/418/418 445/445/445 446/446/446
f 418/418/418 446/446/446 419/419/419
f 419/419/419 446/446/446 447/447/447
f 419/419/419 447/447/447 420/420/420
f 420/420/420 447/447/447 448/448/448
f 420/420/420 448/448/448 421/421/421
f 421/421/421 448/448/448 449/449/449
f 421/421/421 449/449/449 422/422/422
f 422/422/422 449/449/449 450/450/450
f 422/422/422 450/450/450 423/423/423
f 423/423/423 450/450/450 451/451/451
f 423/423/423 451/451/451 424/424/424
f 424/424/424 451/451/451 452/452/452
f 424/424/424 452/452/452 425/425/425
f 425/425/425 452/452/452 453/453/453
f 425/425/425 453/453/453 426/426/426
f 426/426/426 453/453/453 454/454/454
f 426/426/426 454/454/454 427/427/427
f 427/427/427 454/454/454 455/455/455
f 427/427/427 455/455/455 428/428/428
f 428/428/428 455/455/455 456/456/456
f 428/428/428 456/456/456 429/429/429
f 429/429/429 456/456/456 457/457/457
f 429/429/429 457/457/457 430/430/430
f 430/430/430 457/457/457 458/458/458
f 430/430/430 458/458/458 431/431/431
f 431/431/431 458/458/458 459/459/459
f 431/431/431 459/459/459 432/432/432
f 460/460/460 467/467/467 468/468/468
f 460/460/460 468/468/468 461/461/461
f 461/461/461 468/468/468 469/469/469
f 461/461/461 469/469/469 462/462/462
f 462/462/462 469/469/469 470/470/470
f 462/462/462 470/470/470 463/463/463
f 463/463/463 470/470/470 471/471/471
f 463/463/463 471/471/471 464/464/464
f 464/464/464 471/471/471 472/472/472
f 464/464/464 472/472/472 465/465/465
f 465/465/465 472/472/472 473/473/473
f 465/465/465 473/473/473 466/466/466
f 467/467/467 474/474/474 475/475/475
f 467/467/467 475/475/475 468/468/468
f 468/468/468 475/475/475 476/476/476
f 468/468/468 476/476/476 469/469/469
f 469/469/469 476/476/476 477/477/477
f 469/469/469 477/477/477 470/470/470
f 470/470/470 477/477/477 478/478/478
f 470/470/470 478/478/478 471/471/471
f 471/471/471 478/478/478 479/479/479
f 471/471/471 479/479/479 472/472/472
f 472/472/472 479/479/479 480/480/480
f 472/472/472 480/480/480 473/473/473
f 474/474/474 481/481/481 482/482/482
f 474/474/474 482/482/482 475/475/475
f 475/475/475 482/482/482 483/483/483
f 475/475/475 483/483/483 476/476/476
f 476/476/476 483/483/483 484/484/484
f 476/476/476 484/484/484 477/477/477
f 477/477/477 484/484/484 485/485/485
f 477/477/477 485/485/485 478/478/478
f 478/478/478 485/485/485 486/486/486
f 478/478/478 486/486/486 479/479/479
f 479/479/479 486/486/486 487/487/487
f 479/479/479 487/487/487 480/480/480
f 481/481/481 488/488/488 489/489/489
f 481/481/481 489/489/489 482/482/482
f 482/482/482 489/489/489 490/490/490
f 482/482/482 490/490/490 483/483/483
f 483/483/483 490/490/490 491/491/491
f 483/483/483 491/491/491 484/484/484
f 484/484/484 491/491/491 492/492/492
f 484/484/484 492/492/492 485/485/485
f 485/485/485 492/492/492 493/493/493
f 485/485/485 493/493/493 486/486/486
f 486/486/486 493/493/493 494/494/494
f 486/486/486 494/494/494 487/487/487
f 488/488/488 495/495/495 496/496/496
f 488/488/488 496/496/496 489/489/489
f 489/489/489 496/496/496 497/497/497
f 489/489/489 497/497/497 490/490/490
f 490/490/490 497/497/497 498/498/498
f 490/490/490 498/498/498 491/491/491
f 491/491/491 498/498/498 499/499/499
f 491/491/491 499/499/499 492/492/492
f 492/492/492 499/499/499 500/500/500
f 492/492/492 500/500/500 493/493/493
f 493/493/493 500/500/500 501/501/501
f 493/493/493 501/501/501 494/494/494
f 495/495/495 502/502/502 503/503/503
f 495/495/495 503/503/503 496/496/496
f 496/496/496 503/503/503 504/504/504
f 496/496/496 504/504/504 497/497/497
f 497/497/497 504/504/504 505/505/505
f 497/497/497 505/505/505 498/498/498
f 498/498/498 505/505/505 506/506/506
f 498/498/498 506/506/506 499/499/499
f 499/499/499 506/506/506 507/507/507
f 499/499/499 507/507/507 500/500/500
f 500/500/500 507/507/507 508/508/508
f 500/500/500 508/508/508 501/501/501
f 502/502/502 509/509/509 510/510/510
f 502/502/502 510/510/510 503/503/503
f 503/503/503 510/510/510 511/511/511
f 503/503/503 511/511/511 504/504/504
f 504/504/504 511/511/511 512/512/512
f 504/504/504 512/512/512 505/505/505
f 505/505/505 512/512/512 513/513/513
f 505/505/505 513/513/513 506/506/506
f 506/506/506 513/513/513 514/514/514
f 506/506/506 514/514/514 507/507/507
f 507/507/507 514/514/514 515/515/515
f 507/507/507 515/515/515 508/508/508
f 509/509/509 516/516/516 517/517/517
f 509/509/509 517/517/517 510/510/510
f 510/510/510 517/517/517 518/518/518
f 510/510/510 518/518/518 511/511/511
f 511/511/511 518/518/518 519/519/519
f 511/511/511 519/519/519 512/512/512
f 512/512/512 519/519/519 520/520/520
f 512/512/512 520/520/520 513/513/513
f 513/513/513 520/520/520 521/521/521
f 513/513/513 521/521/521 514/514/514
f 514/514/514 521/521/521 522/522/522
f 514/514/514 522/522/522 515/515/515
f 516/516/516 523/523/523 524/524/524
f 516/516/516 524/524/524 517/517/517
f 517/517/517 524/524/524 525/525/525
f 517/517/517 525/525/525 518/518/518
f 518/518/518 525/525/525 526/526/526
f 518/518/518 526/526/526 519/519/519
f 519/519/519 526/526/526 527/527/527
f 519/519/519 527/527/527 520/520/520
f 520/520/520 527/527/527 528/528/528
f 520/520/520 528/528/528 521/521/521
f 521/521/521 528/528/528 529/529/529
f 521/521/521 529/529/529 522/522/522
f 523/523/523 530/530/530 531/531/531
f 523/523/523 531/531/531 524/524/524
f 524/524/524 531/531/531 532/532/532
f 524/524/524 532/532/532 525/525/525
f 525/525/525 532/532/532 533/533/533
f 525/525/525 533/533/533 526/526/526
f 526/526/526 533/533/533 534/534/534
f 526/526/526 534/534/534 527/527/527
f 527/527/527 534/534/534 535/535/535
f 527/527/527 535/535/535 528/528/528
f 528/528/528 535/535/535 536/536/536
f 528/528/528 536/536/536 529/529/529
f 530/530/530 537/537/537 538/538/538
f 530/530/530 538/538/538 531/531/531
f 531/531/531 538/538/538 539/539/539
f 531/531/531 539/539/539 532/532/532
f 532/532/532 539/539/539 540/540/540
f 532/532/532 540/540/540 533/533/533
f 533/533/533 540/540/540 541/541/541
f 533/533/533 541/541/541 534/534/534
f 534/534/534 541/541/541 542/542/542
f 534/534/534 542/542/542 535/535/535
f 535/535/535 542/542/542 543/543/543
f 535/535/535 543/543/543 536/536/536
f 537/537/537 544/544/544 545/545/545
f 537/537/537 545/545/545 538/538/538
f 538/538/538 545/545/545 546/546/546
f 538/538/538 546/546/546 539/539/539
f 539/539/539 546/546/546 547/547/547
f 539/539/539 547/547/547 540/540/540
f 540/540/540 547/547/547 548/548/548
f 540/540/540 548/548/548 541/541/541
f 541/541/541 548/548/548 549/549/549
f 541/541/541 549/549/549 542/542/542
f 542/542/542 549/549/549 550/550/550
f 542/542/542 550/550/550 543/543/543
f 544/544/544 551/551/551 552/552/552
f 544/544/544 552/552/552 545/545/545
f 545/545/545 552/552/552 553/553/553
f 545/545/545 553/553/553 546/546/546
f 546/546/546 553/553/553 554/554/554
f 546/546/546 554/554/554 547/547/547
f 547/547/547 554/554/554 555/555/555
f 547/547/547 555/555/555 548/548/548
f 548/548/548 555/555/555 556/556/556
f 548/548/548 556/556/556 549/549/549
f 549/549/549 556/556/556 557/557/557
f 549/549/549 557/557/557 550/550/550
f 551/551/551 558/558/558 559/559/559
f 551/551/551 559/559/559 552/552/552
f 552/552/552 559/559/559 560/560/560
f 552/552/552 560/560/560 553/553/553
f 553/553/553 560/560/560 561/561/561
f 553/553/553 561/561/561 554/554/554
f 554/554/554 561/561/561 562/562/562
f 554/554/554 562/562/562 555/555/555
f 555/555/555 562/562/562 563/563/563
f 555/555/555 563/563/563 556/556/556
f 556/556/556 563/563/563 564/564/564
f 556/556/556 564/564/564 557/557/557
