# procedural asset
v 0.39600 3.40000 0.10000
v 0.40798 3.30055 0.37054
v 0.42071 3.17055 0.64109
v 0.43444 3.00999 0.91163
v 0.44965 2.81888 1.18217
v 0.46747 2.59721 1.45271
v 0.49600 2.34499 1.72326
v 0.41586 3.45836 0.11818
v 0.42556 3.35035 0.39166
v 0.43585 3.21161 0.66313
v 0.44696 3.04230 0.93263
v 0.45927 2.84241 1.20012
v 0.47368 2.61159 1.46531
v 0.49676 2.34666 1.72491
v 0.46786 3.49444 0.12941
v 0.47156 3.38112 0.40471
v 0.47550 3.23699 0.67676
v 0.47974 3.06227 0.94561
v 0.48444 2.85695 1.21121
v 0.48995 2.62048 1.47310
v 0.49876 2.34769 1.72593
v 0.53214 3.49444 0.12941
v 0.52844 3.38112 0.40471
v 0.52450 3.23699 0.67676
v 0.52026 3.06227 0.94561
v 0.51556 2.85695 1.21121
v 0.51005 2.62048 1.47310
v 0.50124 2.34769 1.72593
v 0.58414 3.45836 0.11818
v 0.57444 3.35035 0.39166
v 0.56415 3.21161 0.66313
v 0.55304 3.04230 0.93263
v 0.54073 2.84241 1.20012
v 0.52632 2.61159 1.46531
v 0.50324 2.34666 1.72491
v 0.60400 3.40000 0.10000
v 0.59202 3.30055 0.37054
v 0.57929 3.17055 0.64109
v 0.56556 3.00999 0.91163
v 0.55035 2.81888 1.18217
v 0.53253 2.59721 1.45271
v 0.50400 2.34499 1.72326
v 0.58414 3.34164 0.08182
v 0.57444 3.25076 0.34943
v 0.56415 3.12949 0.61904
v 0.55304 2.97768 0.89063
v 0.54073 2.79535 1.16422
v 0.52632 2.58283 1.44012
v 0.50324 2.34331 1.72160
v 0.53214 3.30556 0.07059
v 0.52844 3.21998 0.33638
v 0.52450 3.10412 0.60541
v 0.52026 2.95772 0.87765
v 0.51556 2.78081 1.15313
v 0.51005 2.57394 1.43233
v 0.50124 2.34228 1.72058
v 0.46786 3.30556 0.07059
v 0.47156 3.21998 0.33638
v 0.47550 3.10412 0.60541
v 0.47974 2.95772 0.87765
v 0.48444 2.78081 1.15313
v 0.48995 2.57394 1.43233
v 0.49876 2.34228 1.72058
v 0.41586 3.34164 0.08182
v 0.42556 3.25076 0.34943
v 0.43585 3.12949 0.61904
v 0.44696 2.97768 0.89063
v 0.45927 2.79535 1.16422
v 0.47368 2.58283 1.44012
v 0.49676 2.34331 1.72160
v 0.39600 3.40000 0.10000
v 0.40798 3.30055 0.37054
v 0.42071 3.17055 0.64109
v 0.43444 3.00999 0.91163
v 0.44965 2.81888 1.18217
v 0.46747 2.59721 1.45271
v 0.49600 2.34499 1.72326
v 0.43516 3.40000 0.18131
v 0.68119 3.27284 0.36219
v 0.92769 3.11512 0.54249
v 1.17482 2.92685 0.72200
v 1.42287 2.70802 0.90036
v 1.67254 2.45864 1.07667
v 1.92889 2.17870 1.24462
v 0.46401 3.45739 0.17891
v 0.71004 3.32185 0.36272
v 0.95510 3.15567 0.54498
v 1.19934 2.95891 0.72554
v 1.44294 2.73150 0.90407
v 1.68621 2.47309 1.07963
v 1.93064 2.18039 1.24504
v 0.50660 3.49286 0.14637
v 0.74978 3.35214 0.33556
v 0.99093 3.18072 0.52284
v 1.23011 2.97872 0.70816
v 1.46734 2.74601 0.89133
v 1.70240 2.48201 1.07174
v 1.93268 2.18144 1.24411
v 0.54668 3.49286 0.09612
v 0.78523 3.35214 0.29110
v 1.02148 3.18072 0.48453
v 1.25537 2.97872 0.67648
v 1.48674 2.74601 0.86700
v 1.71494 2.48201 1.05602
v 1.93422 2.18144 1.24217
v 0.56892 3.45739 0.04735
v 0.80287 3.32185 0.24631
v 1.03509 3.15567 0.44468
v 1.26548 2.95891 0.64261
v 1.49373 2.73150 0.84038
v 1.71902 2.47309 1.03848
v 1.93468 2.18039 1.23998
v 0.56484 3.40000 0.01869
v 0.79594 3.27284 0.21831
v 1.02656 3.11512 0.41851
v 1.25657 2.92685 0.61949
v 1.48565 2.70802 0.82163
v 1.71310 2.45864 1.02581
v 1.93388 2.17870 1.23836
v 0.53599 3.34261 0.02109
v 0.76709 3.22383 0.21778
v 0.99915 3.07458 0.41601
v 1.23204 2.89480 0.61595
v 1.46557 2.68455 0.81792
v 1.69943 2.44420 1.02286
v 1.93212 2.17701 1.23794
v 0.49340 3.30714 0.05363
v 0.72735 3.19354 0.24494
v 0.96333 3.04952 0.43815
v 1.20127 2.87498 0.63333
v 1.44117 2.67004 0.83066
v 1.68324 2.43527 1.03074
v 1.93009 2.17597 1.23888
v 0.45332 3.30714 0.10388
v 0.69189 3.19354 0.28940
v 0.93277 3.04952 0.47646
v 1.17601 2.87498 0.66501
v 1.42177 2.67004 0.85499
v 1.67070 2.43527 1.04646
v 1.92855 2.17597 1.24081
v 0.43108 3.34261 0.15265
v 0.67426 3.22383 0.33419
v 0.91916 3.07458 0.51632
v 1.16591 2.89480 0.69888
v 1.41478 2.68455 0.88161
v 1.66662 2.44420 1.06401
v 1.92809 2.17701 1.24300
v 0.43516 3.40000 0.18131
v 0.68119 3.27284 0.36219
v 0.92769 3.11512 0.54249
v 1.17482 2.92685 0.72200
v 1.42287 2.70802 0.90036
v 1.67254 2.45864 1.07667
v 1.92889 2.17870 1.24462
v 0.52314 3.40000 0.20139
v 0.84980 3.24210 0.11455
v 1.17629 3.05364 0.02697
v 1.50255 2.83463 -0.06158
v 1.82849 2.58506 -0.15158
v 2.15385 2.30494 -0.24411
v 2.47682 1.99426 -0.34709
v 0.54192 3.45631 0.17673
v 0.86994 3.29023 0.09192
v 1.19639 3.09355 0.00685
v 1.52118 2.86629 -0.07868
v 1.84415 2.60835 -0.16502
v 2.16474 2.31933 -0.25297
v 2.47825 1.99595 -0.34820
v 0.54468 3.49111 0.12277
v 0.87457 3.31998 0.04367
v 1.20207 3.11822 -0.03511
v 1.52712 2.88586 -0.11365
v 1.84955 2.62274 -0.19207
v 2.16870 2.32823 -0.27056
v 2.47878 1.99700 -0.35038
v 0.53038 3.49111 0.06010
v 0.86192 3.31998 -0.01177
v 1.19116 3.11822 -0.08289
v 1.51810 2.88586 -0.15315
v 1.84263 2.62274 -0.22240
v 2.16423 2.32823 -0.29016
v 2.47823 1.99700 -0.35279
v 0.50447 3.45631 0.01268
v 0.83681 3.29023 -0.05323
v 1.16784 3.09355 -0.11823
v 1.49758 2.86629 -0.18209
v 1.82603 2.60835 -0.24444
v 2.15303 2.31933 -0.30429
v 2.47681 1.99595 -0.35451
v 0.47686 3.40000 -0.00139
v 0.80885 3.24210 -0.06488
v 1.14100 3.05364 -0.12763
v 1.47338 2.83463 -0.18941
v 1.80609 2.58506 -0.24975
v 2.13937 2.30494 -0.30754
v 2.47504 1.99426 -0.35489
v 0.45808 3.34369 0.02327
v 0.78870 3.19397 -0.04225
v 1.12090 3.01373 -0.10751
v 1.45475 2.80297 -0.17232
v 1.79042 2.56178 -0.23631
v 2.12848 2.29055 -0.29868
v 2.47362 1.99257 -0.35379
v 0.45532 3.30889 0.07723
v 0.78407 3.16422 0.00600
v 1.11522 2.98907 -0.06555
v 1.44882 2.78340 -0.13734
v 1.78502 2.54738 -0.20926
v 2.12452 2.28165 -0.28110
v 2.47308 1.99152 -0.35161
v 0.46962 3.30889 0.13990
v 0.79673 3.16422 0.06144
v 1.12613 2.98907 -0.01778
v 1.45783 2.78340 -0.09784
v 1.79195 2.54738 -0.17892
v 2.12899 2.28165 -0.26150
v 2.47363 1.99152 -0.34920
v 0.49553 3.34369 0.18732
v 0.82183 3.19397 0.10290
v 1.14945 3.01373 0.01756
v 1.47836 2.80297 -0.06890
v 1.80855 2.56178 -0.15689
v 2.14020 2.29055 -0.24737
v 2.47506 1.99257 -0.34748
v 0.52314 3.40000 0.20139
v 0.84980 3.24210 0.11455
v 1.17629 3.05364 0.02697
v 1.50255 2.83463 -0.06158
v 1.82849 2.58506 -0.15158
v 2.15385 2.30494 -0.24411
v 2.47682 1.99426 -0.34709
v 0.59370 3.40000 0.14512
v 0.70029 3.30055 -0.10383
v 0.80621 3.17055 -0.35310
v 0.91122 3.00999 -0.60281
v 1.01490 2.81888 -0.85316
v 1.11623 2.59721 -1.10464
v 1.20791 2.34499 -1.36077
v 0.58369 3.45836 0.12013
v 0.69362 3.35035 -0.13047
v 0.80213 3.21161 -0.37953
v 0.90905 3.04230 -0.62716
v 1.01402 2.84241 -0.87350
v 1.11610 2.61159 -1.11868
v 1.20794 2.34666 -1.36259
v 0.54172 3.49444 0.08744
v 0.65783 3.38112 -0.16220
v 0.77232 3.23699 -0.40901
v 0.88515 3.06227 -0.65307
v 0.99615 2.85695 -0.89442
v 1.10482 2.62048 -1.13276
v 1.20658 2.34769 -1.36438
v 0.48381 3.49444 0.05956
v 0.60659 3.38112 -0.18687
v 0.72817 3.23699 -0.43027
v 0.84864 3.06227 -0.67065
v 0.96812 2.85695 -0.90792
v 1.08671 2.62048 -1.14148
v 1.20435 2.34769 -1.36545
v 0.43208 3.45836 0.04712
v 0.55947 3.35035 -0.19508
v 0.68654 3.21161 -0.43520
v 0.81348 3.04230 -0.67318
v 0.94063 2.84241 -0.90885
v 1.06868 2.61159 -1.14152
v 1.20211 2.34666 -1.36540
v 0.40630 3.40000 0.05488
v 0.53448 3.30055 -0.18368
v 0.66333 3.17055 -0.42190
v 0.79309 3.00999 -0.65970
v 0.92418 2.81888 -0.89685
v 1.05761 2.59721 -1.13287
v 1.20070 2.34499 -1.36424
v 0.41631 3.34164 0.07987
v 0.54115 3.25076 -0.15703
v 0.66741 3.12949 -0.39547
v 0.79526 2.97768 -0.63534
v 0.92505 2.79535 -0.87650
v 1.05774 2.58283 -1.11882
v 1.20067 2.34331 -1.36242
v 0.45828 3.30556 0.11256
v 0.57694 3.21998 -0.12531
v 0.69721 3.10412 -0.36599
v 0.81916 2.95772 -0.60943
v 0.94292 2.78081 -0.85559
v 1.06902 2.57394 -1.10475
v 1.20203 2.34228 -1.36063
v 0.51619 3.30556 0.14044
v 0.62818 3.21998 -0.10063
v 0.74136 3.10412 -0.34473
v 0.85566 2.95772 -0.59185
v 0.97095 2.78081 -0.84209
v 1.08713 2.57394 -1.09603
v 1.20426 2.34228 -1.35956
v 0.56792 3.34164 0.15288
v 0.67529 3.25076 -0.09243
v 0.78300 3.12949 -0.33980
v 0.89083 2.97768 -0.58932
v 0.99845 2.79535 -0.84116
v 1.10517 2.58283 -1.09598
v 1.20650 2.34331 -1.35961
v 0.59370 3.40000 0.14512
v 0.70029 3.30055 -0.10383
v 0.80621 3.17055 -0.35310
v 0.91122 3.00999 -0.60281
v 1.01490 2.81888 -0.85316
v 1.11623 2.59721 -1.10464
v 1.20791 2.34499 -1.36077
v 0.59370 3.40000 0.05488
v 0.45051 3.27284 -0.21484
v 0.30665 3.11512 -0.48424
v 0.16189 2.92685 -0.75320
v 0.01579 2.70802 -1.02151
v -0.13266 2.45864 -1.28870
v -0.29075 2.17870 -1.55124
v 0.56667 3.45739 0.04452
v 0.42475 3.32185 -0.22783
v 0.28304 3.15567 -0.49838
v 0.14133 2.95891 -0.76703
v -0.00069 2.73150 -1.03357
v -0.14369 2.47309 -1.29729
v -0.29215 2.18039 -1.55238
v 0.51417 3.49286 0.05536
v 0.37716 3.35214 -0.22061
v 0.24115 3.18072 -0.49397
v 0.10606 2.97872 -0.76471
v -0.02820 2.74601 -1.03268
v -0.16170 2.48201 -1.29721
v -0.29439 2.18144 -1.55242
v 0.45626 3.49286 0.08324
v 0.32593 3.35214 -0.19593
v 0.19700 3.18072 -0.47271
v 0.06956 2.97872 -0.74713
v -0.05624 2.74601 -1.01918
v -0.17982 2.48201 -1.28849
v -0.29662 2.18144 -1.55135
v 0.41506 3.45739 0.11753
v 0.29061 3.32185 -0.16323
v 0.16745 3.15567 -0.44271
v 0.04576 2.95891 -0.72101
v -0.07409 2.73150 -0.99822
v -0.19111 2.47309 -1.27445
v -0.29798 2.18039 -1.54957
v 0.40630 3.40000 0.14512
v 0.28470 3.27284 -0.13499
v 0.16378 3.11512 -0.41543
v 0.04376 2.92685 -0.69631
v -0.07493 2.70802 -0.97782
v -0.19127 2.45864 -1.26047
v -0.29796 2.17870 -1.54777
v 0.43333 3.34261 0.15548
v 0.31046 3.22383 -0.12200
v 0.18739 3.07458 -0.40129
v 0.06431 2.89480 -0.68247
v -0.05845 2.68455 -0.96577
v -0.18024 2.44420 -1.25188
v -0.29656 2.17701 -1.54662
v 0.48583 3.30714 0.14464
v 0.35805 3.19354 -0.12923
v 0.22928 3.04952 -0.40569
v 0.09958 2.87498 -0.68479
v -0.03094 2.67004 -0.96666
v -0.16223 2.43527 -1.25196
v -0.29432 2.17597 -1.54658
v 0.54374 3.30714 0.11676
v 0.40929 3.19354 -0.15390
v 0.27343 3.04952 -0.42696
v 0.13609 2.87498 -0.70237
v -0.00291 2.67004 -0.98016
v -0.14411 2.43527 -1.26068
v -0.29210 2.17597 -1.54766
v 0.58494 3.34261 0.08247
v 0.44461 3.22383 -0.18660
v 0.30298 3.07458 -0.45696
v 0.15988 2.89480 -0.72850
v 0.01494 2.68455 -1.00111
v -0.13282 2.44420 -1.27472
v -0.29073 2.17701 -1.54943
v 0.59370 3.40000 0.05488
v 0.45051 3.27284 -0.21484
v 0.30665 3.11512 -0.48424
v 0.16189 2.92685 -0.75320
v 0.01579 2.70802 -1.02151
v -0.13266 2.45864 -1.28870
v -0.29075 2.17870 -1.55124
v 0.52314 3.40000 -0.00139
v 0.19115 3.24210 -0.06488
v -0.14100 3.05364 -0.12763
v -0.47338 2.83463 -0.18941
v -0.80609 2.58506 -0.24975
v -1.13937 2.30494 -0.30754
v -1.47504 1.99426 -0.35489
v 0.49553 3.45631 0.01268
v 0.16319 3.29023 -0.05323
v -0.16784 3.09355 -0.11823
v -0.49758 2.86629 -0.18209
v -0.82603 2.60835 -0.24444
v -1.15303 2.31933 -0.30429
v -1.47681 1.99595 -0.35451
v 0.46962 3.49111 0.06010
v 0.13808 3.31998 -0.01177
v -0.19116 3.11822 -0.08289
v -0.51810 2.88586 -0.15315
v -0.84263 2.62274 -0.22240
v -1.16423 2.32823 -0.29016
v -1.47823 1.99700 -0.35279
v 0.45532 3.49111 0.12277
v 0.12543 3.31998 0.04367
v -0.20207 3.11822 -0.03511
v -0.52712 2.88586 -0.11365
v -0.84955 2.62274 -0.19207
v -1.16870 2.32823 -0.27056
v -1.47878 1.99700 -0.35038
v 0.45808 3.45631 0.17673
v 0.13006 3.29023 0.09192
v -0.19639 3.09355 0.00685
v -0.52118 2.86629 -0.07868
v -0.84415 2.60835 -0.16502
v -1.16474 2.31933 -0.25297
v -1.47825 1.99595 -0.34820
v 0.47686 3.40000 0.20139
v 0.15020 3.24210 0.11455
v -0.17629 3.05364 0.02697
v -0.50255 2.83463 -0.06158
v -0.82849 2.58506 -0.15158
v -1.15385 2.30494 -0.24411
v -1.47682 1.99426 -0.34709
v 0.50447 3.34369 0.18732
v 0.17817 3.19397 0.10290
v -0.14945 3.01373 0.01756
v -0.47836 2.80297 -0.06890
v -0.80855 2.56178 -0.15689
v -1.14020 2.29055 -0.24737
v -1.47506 1.99257 -0.34748
v 0.53038 3.30889 0.13990
v 0.20327 3.16422 0.06144
v -0.12613 2.98907 -0.01778
v -0.45783 2.78340 -0.09784
v -0.79195 2.54738 -0.17892
v -1.12899 2.28165 -0.26150
v -1.47363 1.99152 -0.34920
v 0.54468 3.30889 0.07723
v 0.21593 3.16422 0.00600
v -0.11522 2.98907 -0.06555
v -0.44882 2.78340 -0.13734
v -0.78502 2.54738 -0.20926
v -1.12452 2.28165 -0.28110
v -1.47308 1.99152 -0.35161
v 0.54192 3.34369 0.02327
v 0.21130 3.19397 -0.04225
v -0.12090 3.01373 -0.10751
v -0.45475 2.80297 -0.17232
v -0.79042 2.56178 -0.23631
v -1.12848 2.29055 -0.29868
v -1.47362 1.99257 -0.35379
v 0.52314 3.40000 -0.00139
v 0.19115 3.24210 -0.06488
v -0.14100 3.05364 -0.12763
v -0.47338 2.83463 -0.18941
v -0.80609 2.58506 -0.24975
v -1.13937 2.30494 -0.30754
v -1.47504 1.99426 -0.35489
v 0.43516 3.40000 0.01869
v 0.23111 3.30055 0.19674
v 0.02753 3.17055 0.37537
v -0.17543 3.00999 0.55479
v -0.37747 2.81888 0.73536
v -0.57788 2.59721 0.91797
v -0.77161 2.34499 1.10896
v 0.43333 3.45836 0.04555
v 0.22556 3.35035 0.22364
v 0.01973 3.21161 0.40096
v -0.18404 3.04230 0.57767
v -0.38550 2.84241 0.75407
v -0.58385 2.61159 0.93068
v -0.77242 2.34666 1.11058
v 0.45697 3.49444 0.09321
v 0.24404 3.38112 0.26775
v 0.03379 3.23699 0.44045
v -0.17375 3.06227 0.61139
v -0.37848 2.85695 0.78067
v -0.57980 2.62048 0.94825
v -0.77197 2.34769 1.11278
v 0.49704 3.49444 0.14346
v 0.27950 3.38112 0.31221
v 0.06435 3.23699 0.47876
v -0.14849 3.06227 0.64306
v -0.35908 2.85695 0.80499
v -0.56726 2.62048 0.96397
v -0.77043 2.34769 1.11472
v 0.53825 3.45836 0.17712
v 0.31839 3.35035 0.34005
v 0.09972 3.21161 0.50126
v -0.11791 3.04230 0.66060
v -0.33471 2.84241 0.81776
v -0.55104 2.61159 0.97183
v -0.76839 2.34666 1.11564
v 0.56484 3.40000 0.18131
v 0.34585 3.30055 0.34062
v 0.12640 3.17055 0.49935
v -0.09368 3.00999 0.65730
v -0.31468 2.81888 0.81408
v -0.53731 2.59721 0.96884
v -0.76662 2.34499 1.11521
v 0.56667 3.34164 0.15445
v 0.35141 3.25076 0.31372
v 0.13420 3.12949 0.47377
v -0.08507 2.97768 0.63442
v -0.30665 2.79535 0.79538
v -0.53134 2.58283 0.95612
v -0.76580 2.34331 1.11358
v 0.54303 3.30556 0.10679
v 0.33292 3.21998 0.26961
v 0.12013 3.10412 0.43427
v -0.09536 2.95772 0.60070
v -0.31367 2.78081 0.76878
v -0.53539 2.57394 0.93855
v -0.76625 2.34228 1.11138
v 0.50296 3.30556 0.05654
v 0.29746 3.21998 0.22515
v 0.08958 3.10412 0.39596
v -0.12062 2.95772 0.56902
v -0.33307 2.78081 0.74445
v -0.54793 2.57394 0.92284
v -0.76779 2.34228 1.10945
v 0.46175 3.34164 0.02288
v 0.25857 3.25076 0.19731
v 0.05421 3.12949 0.37346
v -0.15121 2.97768 0.55148
v -0.35744 2.79535 0.73169
v -0.56415 2.58283 0.91497
v -0.76984 2.34331 1.10852
v 0.43516 3.40000 0.01869
v 0.23111 3.30055 0.19674
v 0.02753 3.17055 0.37537
v -0.17543 3.00999 0.55479
v -0.37747 2.81888 0.73536
v -0.57788 2.59721 0.91797
v -0.77161 2.34499 1.10896
vt 0.00000 0.00000
vt 0.00000 0.16667
vt 0.00000 0.33333
vt 0.00000 0.50000
vt 0.00000 0.66667
vt 0.00000 0.83333
vt 0.00000 1.00000
vt 0.10000 0.00000
vt 0.10000 0.16667
vt 0.10000 0.33333
vt 0.10000 0.50000
vt 0.10000 0.66667
vt 0.10000 0.83333
vt 0.10000 1.00000
vt 0.20000 0.00000
vt 0.20000 0.16667
vt 0.20000 0.33333
vt 0.20000 0.50000
vt 0.20000 0.66667
vt 0.20000 0.83333
vt 0.20000 1.00000
vt 0.30000 0.00000
vt 0.30000 0.16667
vt 0.30000 0.33333
vt 0.30000 0.50000
vt 0.30000 0.66667
vt 0.30000 0.83333
vt 0.30000 1.00000
vt 0.40000 0.00000
vt 0.40000 0.16667
vt 0.40000 0.33333
vt 0.40000 0.50000
vt 0.40000 0.66667
vt 0.40000 0.83333
vt 0.40000 1.00000
vt 0.50000 0.00000
vt 0.50000 0.16667
vt 0.50000 0.33333
vt 0.50000 0.50000
vt 0.50000 0.66667
vt 0.50000 0.83333
vt 0.50000 1.00000
vt 0.60000 0.00000
vt 0.60000 0.16667
vt 0.60000 0.33333
vt 0.60000 0.50000
vt 0.60000 0.66667
vt 0.60000 0.83333
vt 0.60000 1.00000
vt 0.70000 0.00000
vt 0.70000 0.16667
vt 0.70000 0.33333
vt 0.70000 0.50000
vt 0.70000 0.66667
vt 0.70000 0.83333
vt 0.70000 1.00000
vt 0.80000 0.00000
vt 0.80000 0.16667
vt 0.80000 0.33333
vt 0.80000 0.50000
vt 0.80000 0.66667
vt 0.80000 0.83333
vt 0.80000 1.00000
vt 0.90000 0.00000
vt 0.90000 0.16667
vt 0.90000 0.33333
vt 0.90000 0.50000
vt 0.90000 0.66667
vt 0.90000 0.83333
vt 0.90000 1.00000
vt 1.00000 0.00000
vt 1.00000 0.16667
vt 1.00000 0.33333
vt 1.00000 0.50000
vt 1.00000 0.66667
vt 1.00000 0.83333
vt 1.00000 1.00000
vt 0.00000 0.00000
vt 0.00000 0.16667
vt 0.00000 0.33333
vt 0.00000 0.50000
vt 0.00000 0.66667
vt 0.00000 0.83333
vt 0.00000 1.00000
vt 0.10000 0.00000
vt 0.10000 0.16667
vt 0.10000 0.33333
vt 0.10000 0.50000
vt 0.10000 0.66667
vt 0.10000 0.83333
vt 0.10000 1.00000
vt 0.20000 0.00000
vt 0.20000 0.16667
vt 0.20000 0.33333
vt 0.20000 0.50000
vt 0.20000 0.66667
vt 0.20000 0.83333
vt 0.20000 1.00000
vt 0.30000 0.00000
vt 0.30000 0.16667
vt 0.30000 0.33333
vt 0.30000 0.50000
vt 0.30000 0.66667
vt 0.30000 0.83333
vt 0.30000 1.00000
vt 0.40000 0.00000
vt 0.40000 0.16667
vt 0.40000 0.33333
vt 0.40000 0.50000
vt 0.40000 0.66667
vt 0.40000 0.83333
vt 0.40000 1.00000
vt 0.50000 0.00000
vt 0.50000 0.16667
vt 0.50000 0.33333
vt 0.50000 0.50000
vt 0.50000 0.66667
vt 0.50000 0.83333
vt 0.50000 1.00000
vt 0.60000 0.00000
vt 0.60000 0.16667
vt 0.60000 0.33333
vt 0.60000 0.50000
vt 0.60000 0.66667
vt 0.60000 0.83333
vt 0.60000 1.00000
vt 0.70000 0.00000
vt 0.70000 0.16667
vt 0.70000 0.33333
vt 0.70000 0.50000
vt 0.70000 0.66667
vt 0.70000 0.83333
vt 0.70000 1.00000
vt 0.80000 0.00000
vt 0.80000 0.16667
vt 0.80000 0.33333
vt 0.80000 0.50000
vt 0.80000 0.66667
vt 0.80000 0.83333
vt 0.80000 1.00000
vt 0.90000 0.00000
vt 0.90000 0.16667
vt 0.90000 0.33333
vt 0.90000 0.50000
vt 0.90000 0.66667
vt 0.90000 0.83333
vt 0.90000 1.00000
vt 1.00000 0.00000
vt 1.00000 0.16667
vt 1.00000 0.33333
vt 1.00000 0.50000
vt 1.00000 0.66667
vt 1.00000 0.83333
vt 1.00000 1.00000
vt 0.00000 0.00000
vt 0.00000 0.16667
vt 0.00000 0.33333
vt 0.00000 0.50000
vt 0.00000 0.66667
vt 0.00000 0.83333
vt 0.00000 1.00000
vt 0.10000 0.00000
vt 0.10000 0.16667
vt 0.10000 0.33333
vt 0.10000 0.50000
vt 0.10000 0.66667
vt 0.10000 0.83333
vt 0.10000 1.00000
vt 0.20000 0.00000
vt 0.20000 0.16667
vt 0.20000 0.33333
vt 0.20000 0.50000
vt 0.20000 0.66667
vt 0.20000 0.83333
vt 0.20000 1.00000
vt 0.30000 0.00000
vt 0.30000 0.16667
vt 0.30000 0.33333
vt 0.30000 0.50000
vt 0.30000 0.66667
vt 0.30000 0.83333
vt 0.30000 1.00000
vt 0.40000 0.00000
vt 0.40000 0.16667
vt 0.40000 0.33333
vt 0.40000 0.50000
vt 0.40000 0.66667
vt 0.40000 0.83333
vt 0.40000 1.00000
vt 0.50000 0.00000
vt 0.50000 0.16667
vt 0.50000 0.33333
vt 0.50000 0.50000
vt 0.50000 0.66667
vt 0.50000 0.83333
vt 0.50000 1.00000
vt 0.60000 0.00000
vt 0.60000 0.16667
vt 0.60000 0.33333
vt 0.60000 0.50000
vt 0.60000 0.66667
vt 0.60000 0.83333
vt 0.60000 1.00000
vt 0.70000 0.00000
vt 0.70000 0.16667
vt 0.70000 0.33333
vt 0.70000 0.50000
vt 0.70000 0.66667
vt 0.70000 0.83333
vt 0.70000 1.00000
vt 0.80000 0.00000
vt 0.80000 0.16667
vt 0.80000 0.33333
vt 0.80000 0.50000
vt 0.80000 0.66667
vt 0.80000 0.83333
vt 0.80000 1.00000
vt 0.90000 0.00000
vt 0.90000 0.16667
vt 0.90000 0.33333
vt 0.90000 0.50000
vt 0.90000 0.66667
vt 0.90000 0.83333
vt 0.90000 1.00000
vt 1.00000 0.00000
vt 1.00000 0.16667
vt 1.00000 0.33333
vt 1.00000 0.50000
vt 1.00000 0.66667
vt 1.00000 0.83333
vt 1.00000 1.00000
vt 0.00000 0.00000
vt 0.00000 0.16667
vt 0.00000 0.33333
vt 0.00000 0.50000
vt 0.00000 0.66667
vt 0.00000 0.83333
vt 0.00000 1.00000
vt 0.10000 0.00000
vt 0.10000 0.16667
vt 0.10000 0.33333
vt 0.10000 0.50000
vt 0.10000 0.66667
vt 0.10000 0.83333
vt 0.10000 1.00000
vt 0.20000 0.00000
vt 0.20000 0.16667
vt 0.20000 0.33333
vt 0.20000 0.50000
vt 0.20000 0.66667
vt 0.20000 0.83333
vt 0.20000 1.00000
vt 0.30000 0.00000
vt 0.30000 0.16667
vt 0.30000 0.33333
vt 0.30000 0.50000
vt 0.30000 0.66667
vt 0.30000 0.83333
vt 0.30000 1.00000
vt 0.40000 0.00000
vt 0.40000 0.16667
vt 0.40000 0.33333
vt 0.40000 0.50000
vt 0.40000 0.66667
vt 0.40000 0.83333
vt 0.40000 1.00000
vt 0.50000 0.00000
vt 0.50000 0.16667
vt 0.50000 0.33333
vt 0.50000 0.50000
vt 0.50000 0.66667
vt 0.50000 0.83333
vt 0.50000 1.00000
vt 0.60000 0.00000
vt 0.60000 0.16667
vt 0.60000 0.33333
vt 0.60000 0.50000
vt 0.60000 0.66667
vt 0.60000 0.83333
vt 0.60000 1.00000
vt 0.70000 0.00000
vt 0.70000 0.16667
vt 0.70000 0.33333
vt 0.70000 0.50000
vt 0.70000 0.66667
vt 0.70000 0.83333
vt 0.70000 1.00000
vt 0.80000 0.00000
vt 0.80000 0.16667
vt 0.80000 0.33333
vt 0.80000 0.50000
vt 0.80000 0.66667
vt 0.80000 0.83333
vt 0.80000 1.00000
vt 0.90000 0.00000
vt 0.90000 0.16667
vt 0.90000 0.33333
vt 0.90000 0.50000
vt 0.90000 0.66667
vt 0.90000 0.83333
vt 0.90000 1.00000
vt 1.00000 0.00000
vt 1.00000 0.16667
vt 1.00000 0.33333
vt 1.00000 0.50000
vt 1.00000 0.66667
vt 1.00000 0.83333
vt 1.00000 1.00000
vt 0.00000 0.00000
vt 0.00000 0.16667
vt 0.00000 0.33333
vt 0.00000 0.50000
vt 0.00000 0.66667
vt 0.00000 0.83333
vt 0.00000 1.00000
vt 0.10000 0.00000
vt 0.10000 0.16667
vt 0.10000 0.33333
vt 0.10000 0.50000
vt 0.10000 0.66667
vt 0.10000 0.83333
vt 0.10000 1.00000
vt 0.20000 0.00000
vt 0.20000 0.16667
vt 0.20000 0.33333
vt 0.20000 0.50000
vt 0.20000 0.66667
vt 0.20000 0.83333
vt 0.20000 1.00000
vt 0.30000 0.00000
vt 0.30000 0.16667
vt 0.30000 0.33333
vt 0.30000 0.50000
vt 0.30000 0.66667
vt 0.30000 0.83333
vt 0.30000 1.00000
vt 0.40000 0.00000
vt 0.40000 0.16667
vt 0.40000 0.33333
vt 0.40000 0.50000
vt 0.40000 0.66667
vt 0.40000 0.83333
vt 0.40000 1.00000
vt 0.50000 0.00000
vt 0.50000 0.16667
vt 0.50000 0.33333
vt 0.50000 0.50000
vt 0.50000 0.66667
vt 0.50000 0.83333
vt 0.50000 1.00000
vt 0.60000 0.00000
vt 0.60000 0.16667
vt 0.60000 0.33333
vt 0.60000 0.50000
vt 0.60000 0.66667
vt 0.60000 0.83333
vt 0.60000 1.00000
vt 0.70000 0.00000
vt 0.70000 0.16667
vt 0.70000 0.33333
vt 0.70000 0.50000
vt 0.70000 0.66667
vt 0.70000 0.83333
vt 0.70000 1.00000
vt 0.80000 0.00000
vt 0.80000 0.16667
vt 0.80000 0.33333
vt 0.80000 0.50000
vt 0.80000 0.66667
vt 0.80000 0.83333
vt 0.80000 1.00000
vt 0.90000 0.00000
vt 0.90000 0.16667
vt 0.90000 0.33333
vt 0.90000 0.50000
vt 0.90000 0.66667
vt 0.90000 0.83333
vt 0.90000 1.00000
vt 1.00000 0.00000
vt 1.00000 0.16667
vt 1.00000 0.33333
vt 1.00000 0.50000
vt 1.00000 0.66667
vt 1.00000 0.83333
vt 1.00000 1.00000
vt 0.00000 0.00000
vt 0.00000 0.16667
vt 0.00000 0.33333
vt 0.00000 0.50000
vt 0.00000 0.66667
vt 0.00000 0.83333
vt 0.00000 1.00000
vt 0.10000 0.00000
vt 0.10000 0.16667
vt 0.10000 0.33333
vt 0.10000 0.50000
vt 0.10000 0.66667
vt 0.10000 0.83333
vt 0.10000 1.00000
vt 0.20000 0.00000
vt 0.20000 0.16667
vt 0.20000 0.33333
vt 0.20000 0.50000
vt 0.20000 0.66667
vt 0.20000 0.83333
vt 0.20000 1.00000
vt 0.30000 0.00000
vt 0.30000 0.16667
vt 0.30000 0.33333
vt 0.30000 0.50000
vt 0.30000 0.66667
vt 0.30000 0.83333
vt 0.30000 1.00000
vt 0.40000 0.00000
vt 0.40000 0.16667
vt 0.40000 0.33333
vt 0.40000 0.50000
vt 0.40000 0.66667
vt 0.40000 0.83333
vt 0.40000 1.00000
vt 0.50000 0.00000
vt 0.50000 0.16667
vt 0.50000 0.33333
vt 0.50000 0.50000
vt 0.50000 0.66667
vt 0.50000 0.83333
vt 0.50000 1.00000
vt 0.60000 0.00000
vt 0.60000 0.16667
vt 0.60000 0.33333
vt 0.60000 0.50000
vt 0.60000 0.66667
vt 0.60000 0.83333
vt 0.60000 1.00000
vt 0.70000 0.00000
vt 0.70000 0.16667
vt 0.70000 0.33333
vt 0.70000 0.50000
vt 0.70000 0.66667
vt 0.70000 0.83333
vt 0.70000 1.00000
vt 0.80000 0.00000
vt 0.80000 0.16667
vt 0.80000 0.33333
vt 0.80000 0.50000
vt 0.80000 0.66667
vt 0.80000 0.83333
vt 0.80000 1.00000
vt 0.90000 0.00000
vt 0.90000 0.16667
vt 0.90000 0.33333
vt 0.90000 0.50000
vt 0.90000 0.66667
vt 0.90000 0.83333
vt 0.90000 1.00000
vt 1.00000 0.00000
vt 1.00000 0.16667
vt 1.00000 0.33333
vt 1.00000 0.50000
vt 1.00000 0.66667
vt 1.00000 0.83333
vt 1.00000 1.00000
vt 0.00000 0.00000
vt 0.00000 0.16667
vt 0.00000 0.33333
vt 0.00000 0.50000
vt 0.00000 0.66667
vt 0.00000 0.83333
vt 0.00000 1.00000
vt 0.10000 0.00000
vt 0.10000 0.16667
vt 0.10000 0.33333
vt 0.10000 0.50000
vt 0.10000 0.66667
vt 0.10000 0.83333
vt 0.10000 1.00000
vt 0.20000 0.00000
vt 0.20000 0.16667
vt 0.20000 0.33333
vt 0.20000 0.50000
vt 0.20000 0.66667
vt 0.20000 0.83333
vt 0.20000 1.00000
vt 0.30000 0.00000
vt 0.30000 0.16667
vt 0.30000 0.33333
vt 0.30000 0.50000
vt 0.30000 0.66667
vt 0.30000 0.83333
vt 0.30000 1.00000
vt 0.40000 0.00000
vt 0.40000 0.16667
vt 0.40000 0.33333
vt 0.40000 0.50000
vt 0.40000 0.66667
vt 0.40000 0.83333
vt 0.40000 1.00000
vt 0.50000 0.00000
vt 0.50000 0.16667
vt 0.50000 0.33333
vt 0.50000 0.50000
vt 0.50000 0.66667
vt 0.50000 0.83333
vt 0.50000 1.00000
vt 0.60000 0.00000
vt 0.60000 0.16667
vt 0.60000 0.33333
vt 0.60000 0.50000
vt 0.60000 0.66667
vt 0.60000 0.83333
vt 0.60000 1.00000
vt 0.70000 0.00000
vt 0.70000 0.16667
vt 0.70000 0.33333
vt 0.70000 0.50000
vt 0.70000 0.66667
vt 0.70000 0.83333
vt 0.70000 1.00000
vt 0.80000 0.00000
vt 0.80000 0.16667
vt 0.80000 0.33333
vt 0.80000 0.50000
vt 0.80000 0.66667
vt 0.80000 0.83333
vt 0.80000 1.00000
vt 0.90000 0.00000
vt 0.90000 0.16667
vt 0.90000 0.33333
vt 0.90000 0.50000
vt 0.90000 0.66667
vt 0.90000 0.83333
vt 0.90000 1.00000
vt 1.00000 0.00000
vt 1.00000 0.16667
vt 1.00000 0.33333
vt 1.00000 0.50000
vt 1.00000 0.66667
vt 1.00000 0.83333
vt 1.00000 1.00000
vn 0.99915 0.00924 -0.04022
vn 0.99912 0.01347 -0.03980
vn 0.99908 0.01751 -0.03925
vn 0.99901 0.02160 -0.03900
vn 0.99886 0.02639 -0.03976
vn 0.15518 0.86218 0.48225
vn 0.16802 0.79436 0.58375
vn 0.80835 -0.54863 -0.21349
vn 0.80833 -0.52461 -0.26718
vn 0.80829 -0.49737 -0.31510
vn 0.80823 -0.46835 -0.35694
vn 0.80811 -0.43810 -0.39374
vn 0.80778 -0.40509 -0.42824
vn 0.16814 0.79427 0.58383
vn 0.30876 -0.89527 -0.32117
vn 0.30876 -0.85895 -0.40849
vn 0.30874 -0.81730 -0.48652
vn 0.30872 -0.77280 -0.55451
vn 0.30867 -0.72671 -0.61369
vn 0.30855 -0.67803 -0.66714
vn 0.16872 0.79415 0.58383
vn -0.30876 -0.89527 -0.32117
vn -0.30876 -0.85895 -0.40849
vn -0.30874 -0.81730 -0.48652
vn -0.30872 -0.77280 -0.55451
vn -0.30867 -0.72671 -0.61369
vn -0.30855 -0.67803 -0.66714
vn 0.16953 0.79404 0.58375
vn -0.80835 -0.54863 -0.21349
vn -0.80833 -0.52461 -0.26718
vn -0.80829 -0.49737 -0.31510
vn -0.80823 -0.46835 -0.35694
vn -0.80811 -0.43810 -0.39374
vn -0.80778 -0.40509 -0.42824
vn 0.17027 0.79398 0.58361
vn -0.99915 0.01223 -0.03928
vn -0.99912 0.01636 -0.03857
vn -0.99908 0.02028 -0.03777
vn -0.99901 0.02423 -0.03729
vn -0.99887 0.02888 -0.03786
vn -0.99846 0.03653 -0.04171
vn 0.17065 0.79399 0.58348
vn -0.80832 0.57308 0.13491
vn -0.80828 0.55730 0.19000
vn -0.80825 0.53791 0.23954
vn -0.80820 0.51681 0.28235
vn -0.80809 0.49585 0.31801
vn -0.80776 0.47814 0.34481
vn 0.17053 0.79408 0.58340
vn -0.30875 0.91970 0.24256
vn -0.30873 0.89161 0.33125
vn -0.30872 0.85781 0.41092
vn -0.30870 0.82123 0.47988
vn -0.30866 0.78444 0.53794
vn -0.30854 0.75107 0.58369
vn 0.16996 0.79420 0.58340
vn 0.30875 0.91970 0.24256
vn 0.30873 0.89161 0.33125
vn 0.30872 0.85781 0.41092
vn 0.30870 0.82123 0.47988
vn 0.30866 0.78444 0.53794
vn 0.30854 0.75107 0.58369
vn 0.16914 0.79432 0.58348
vn 0.80832 0.57308 0.13491
vn 0.80828 0.55730 0.19000
vn 0.80825 0.53791 0.23954
vn 0.80820 0.51681 0.28235
vn 0.80809 0.49585 0.31801
vn 0.80776 0.47814 0.34481
vn 0.16840 0.79438 0.58362
vn 0.99915 0.01523 -0.03835
vn 0.99912 0.01925 -0.03735
vn 0.99908 0.02305 -0.03628
vn 0.99901 0.02687 -0.03558
vn 0.99886 0.03138 -0.03595
vn 0.15518 0.86218 0.48225
vn 0.16802 0.79436 0.58375
vn 0.59591 0.00941 -0.80300
vn 0.59612 0.01262 -0.80279
vn 0.59631 0.01578 -0.80260
vn 0.59620 0.01910 -0.80261
vn 0.59530 0.02316 -0.80317
vn 0.52886 0.77743 0.34045
vn 0.60947 0.68840 0.39326
vn 0.31976 -0.53920 -0.77911
vn 0.28426 -0.51700 -0.80741
vn 0.25230 -0.49264 -0.83285
vn 0.22394 -0.46705 -0.85541
vn 0.19847 -0.44041 -0.87559
vn 0.17397 -0.41122 -0.89478
vn 0.60956 0.68841 0.39310
vn -0.08944 -0.88008 -0.46632
vn -0.14714 -0.84609 -0.51233
vn -0.19906 -0.80856 -0.55372
vn -0.24495 -0.76912 -0.59030
vn -0.28565 -0.72845 -0.62270
vn -0.32322 -0.68537 -0.65253
vn 0.60990 0.68840 0.39260
vn -0.47453 -0.88008 0.01657
vn -0.53223 -0.84609 -0.02944
vn -0.58413 -0.80856 -0.07085
vn -0.63000 -0.76912 -0.10746
vn -0.67065 -0.72845 -0.13993
vn -0.70809 -0.68537 -0.16991
vn 0.61035 0.68836 0.39197
vn -0.68843 -0.53920 0.48511
vn -0.72391 -0.51700 0.45680
vn -0.75583 -0.49264 0.43130
vn -0.78413 -0.46705 0.40867
vn -0.80947 -0.44041 0.38833
vn -0.83363 -0.41122 0.36872
vn 0.61074 0.68831 0.39144
vn -0.64942 0.01236 0.76033
vn -0.64898 0.01547 0.76065
vn -0.64858 0.01851 0.76092
vn -0.64846 0.02171 0.76094
vn -0.64908 0.02565 0.76029
vn -0.65189 0.03236 0.75762
vn 0.61093 0.68827 0.39121
vn -0.37242 0.56391 0.73710
vn -0.33607 0.54792 0.76605
vn -0.30336 0.52966 0.79211
vn -0.27483 0.51047 0.81479
vn -0.25075 0.49170 0.83388
vn -0.23230 0.47593 0.84825
vn 0.61084 0.68826 0.39137
vn 0.03676 0.90478 0.42430
vn 0.09529 0.87699 0.47097
vn 0.14797 0.84556 0.51297
vn 0.19404 0.81253 0.54968
vn 0.23336 0.77974 0.58099
vn 0.26488 0.75007 0.60600
vn 0.61050 0.68828 0.39187
vn 0.42184 0.90478 -0.05858
vn 0.48036 0.87699 -0.01190
vn 0.53303 0.84556 0.03012
vn 0.57908 0.81253 0.06686
vn 0.61835 0.77974 0.09823
vn 0.64974 0.75007 0.12339
vn 0.61005 0.68832 0.39250
vn 0.63574 0.56391 -0.52711
vn 0.67206 0.54792 -0.49811
vn 0.70475 0.52966 -0.47201
vn 0.73321 0.51047 -0.44925
vn 0.75717 0.49170 -0.43002
vn 0.77529 0.47593 -0.41523
vn 0.60966 0.68836 0.39303
vn 0.59760 0.01531 -0.80165
vn 0.59820 0.01831 -0.80114
vn 0.59873 0.02124 -0.80067
vn 0.59892 0.02433 -0.80044
vn 0.59829 0.02814 -0.80079
vn 0.52886 0.77743 0.34045
vn 0.60947 0.68840 0.39326
vn -0.25216 0.00949 -0.96764
vn -0.25195 0.01201 -0.96767
vn -0.25185 0.01455 -0.96766
vn -0.25210 0.01732 -0.96755
vn -0.25322 0.02083 -0.96718
vn -0.25694 0.02691 -0.96605
vn 0.77430 0.62344 -0.10851
vn -0.43122 -0.52887 -0.73098
vn -0.46909 -0.50813 -0.72233
vn -0.50338 -0.48594 -0.71447
vn -0.53413 -0.46290 -0.70741
vn -0.56208 -0.43902 -0.70094
vn -0.58927 -0.41282 -0.69451
vn 0.77420 0.62353 -0.10878
vn -0.45768 -0.86339 -0.21235
vn -0.51921 -0.83132 -0.19830
vn -0.57486 -0.79693 -0.18558
vn -0.62456 -0.76129 -0.17422
vn -0.66920 -0.72475 -0.16400
vn -0.71099 -0.68605 -0.15437
vn 0.77405 0.62360 -0.10941
vn -0.32022 -0.86339 0.38989
vn -0.38176 -0.83132 0.40394
vn -0.43741 -0.79693 0.41663
vn -0.48712 -0.76129 0.42796
vn -0.53178 -0.72475 0.43812
vn -0.57360 -0.68605 0.44757
vn 0.77392 0.62363 -0.11017
vn -0.07136 -0.52887 0.84569
vn -0.10923 -0.50813 0.85433
vn -0.14353 -0.48594 0.86213
vn -0.17430 -0.46290 0.86910
vn -0.20229 -0.43902 0.87541
vn -0.22957 -0.41282 0.88140
vn 0.77385 0.62361 -0.11076
vn 0.19385 0.01238 0.98095
vn 0.19426 0.01480 0.98084
vn 0.19453 0.01724 0.98075
vn 0.19441 0.01990 0.98072
vn 0.19339 0.02330 0.98085
vn 0.18967 0.02927 0.98141
vn 0.77387 0.62355 -0.11096
vn 0.37409 0.55362 0.74401
vn 0.41278 0.53773 0.73516
vn 0.44763 0.52042 0.72718
vn 0.47817 0.50270 0.72017
vn 0.50413 0.48562 0.71416
vn 0.52400 0.47135 0.70940
vn 0.77398 0.62346 -0.11070
vn 0.40054 0.88813 0.22538
vn 0.46288 0.86090 0.21114
vn 0.51910 0.83139 0.19830
vn 0.56860 0.80108 0.18699
vn 0.61124 0.77134 0.17722
vn 0.64572 0.74458 0.16927
vn 0.77413 0.62339 -0.11006
vn 0.26308 0.88813 -0.37685
vn 0.32543 0.86090 -0.39107
vn 0.38165 0.83139 -0.40389
vn 0.43116 0.80108 -0.41518
vn 0.47382 0.77134 -0.42488
vn 0.50833 0.74458 -0.43267
vn 0.77426 0.62336 -0.10930
vn 0.01423 0.55362 -0.83265
vn 0.05293 0.53773 -0.84146
vn 0.08778 0.52042 -0.84939
vn 0.11835 0.50270 -0.85632
vn 0.14434 0.48562 -0.86217
vn 0.16432 0.47135 -0.86650
vn 0.77433 0.62338 -0.10871
vn -0.24978 0.01527 -0.96818
vn -0.24915 0.01760 -0.96830
vn -0.24868 0.01993 -0.96838
vn -0.24861 0.02248 -0.96834
vn -0.24945 0.02577 -0.96805
vn -0.25291 0.03163 -0.96697
vn 0.77430 0.62344 -0.10851
vn -0.91765 0.00924 -0.39728
vn -0.91744 0.01347 -0.39764
vn -0.91717 0.01751 -0.39812
vn -0.91699 0.02160 -0.39832
vn -0.91719 0.02639 -0.39757
vn 0.36778 0.85573 -0.36396
vn 0.40696 0.79006 -0.45846
vn -0.82093 -0.54863 -0.15838
vn -0.84421 -0.52461 -0.11000
vn -0.86496 -0.49737 -0.06681
vn -0.88306 -0.46835 -0.02909
vn -0.89892 -0.43810 0.00412
vn -0.91359 -0.40509 0.03535
vn 0.40667 0.79005 -0.45874
vn -0.41754 -0.89527 0.15540
vn -0.45542 -0.85895 0.23407
vn -0.48926 -0.81730 0.30438
vn -0.51874 -0.77280 0.36564
vn -0.54437 -0.72671 0.41898
vn -0.56745 -0.67803 0.46720
vn 0.40607 0.79011 -0.45917
vn 0.13884 -0.89527 0.42333
vn 0.10095 -0.85895 0.50200
vn 0.06708 -0.81730 0.57230
vn 0.03756 -0.77280 0.63354
vn 0.01184 -0.72671 0.68684
vn -0.01147 -0.67803 0.73494
vn 0.40538 0.79021 -0.45960
vn 0.63566 -0.54863 0.54308
vn 0.61235 -0.52461 0.59145
vn 0.59153 -0.49737 0.63460
vn 0.57332 -0.46835 0.67227
vn 0.55725 -0.43810 0.70537
vn 0.54198 -0.40509 0.73632
vn 0.40486 0.79033 -0.45985
vn 0.88316 0.01223 0.46891
vn 0.88344 0.01636 0.46825
vn 0.88375 0.02028 0.46751
vn 0.88390 0.02423 0.46705
vn 0.88352 0.02888 0.46750
vn 0.88149 0.03653 0.47080
vn 0.40471 0.79041 -0.45984
vn 0.78680 0.57308 0.22917
vn 0.81067 0.55730 0.17951
vn 0.83214 0.53791 0.13487
vn 0.85067 0.51681 0.09628
vn 0.86604 0.49585 0.06410
vn 0.87738 0.47814 0.03981
vn 0.40500 0.79043 -0.45956
vn 0.38341 0.91970 -0.08458
vn 0.42188 0.89161 -0.16449
vn 0.45644 0.85781 -0.23627
vn 0.48634 0.82123 -0.29842
vn 0.51150 0.78444 -0.35074
vn 0.53124 0.75107 -0.39202
vn 0.40561 0.79037 -0.45913
vn -0.17293 0.91970 -0.35250
vn -0.13443 0.89161 -0.43240
vn -0.09986 0.85781 -0.50417
vn -0.06992 0.82123 -0.56630
vn -0.04469 0.78444 -0.61859
vn -0.02473 0.75107 -0.65976
vn 0.40630 0.79026 -0.45870
vn -0.66973 0.57308 -0.47226
vn -0.64580 0.55730 -0.52189
vn -0.62428 0.53791 -0.56651
vn -0.60566 0.51681 -0.60505
vn -0.59008 0.49585 -0.63713
vn -0.57816 0.47814 -0.66114
vn 0.40682 0.79014 -0.45845
vn -0.91684 0.01523 -0.39896
vn -0.91638 0.01925 -0.39985
vn -0.91588 0.02305 -0.40079
vn -0.91551 0.02687 -0.40140
vn -0.91554 0.03138 -0.40100
vn 0.36778 0.85573 -0.36396
vn 0.40696 0.79006 -0.45846
vn -0.88530 0.00941 0.46492
vn -0.88541 0.01262 0.46464
vn -0.88549 0.01578 0.46439
vn -0.88540 0.01910 0.46445
vn -0.88483 0.02316 0.46534
vn -0.04773 0.88470 -0.46371
vn -0.10808 0.80984 -0.57661
vn -0.62614 -0.53920 0.56322
vn -0.60643 -0.51700 0.60412
vn -0.58868 -0.49264 0.64091
vn -0.57291 -0.46705 0.67353
vn -0.55872 -0.44041 0.70276
vn -0.54497 -0.41122 0.73069
vn -0.10851 0.80981 -0.57656
vn -0.12175 -0.88008 0.45895
vn -0.08973 -0.84609 0.52544
vn -0.06091 -0.80856 0.58525
vn -0.03542 -0.76912 0.63812
vn -0.01282 -0.72845 0.68498
vn 0.00809 -0.68537 0.72815
vn -0.10929 0.80987 -0.57634
vn 0.43473 -0.88008 0.19096
vn 0.46675 -0.84609 0.25745
vn 0.49554 -0.80856 0.31728
vn 0.52099 -0.76912 0.37017
vn 0.54353 -0.72845 0.41706
vn 0.56424 -0.68537 0.46032
vn -0.11014 0.80998 -0.57602
vn 0.83073 -0.53920 -0.13838
vn 0.85042 -0.51700 -0.09747
vn 0.86812 -0.49264 -0.06065
vn 0.88379 -0.46705 -0.02798
vn 0.89780 -0.44041 0.00134
vn 0.91106 -0.41122 0.02950
vn -0.11071 0.81011 -0.57573
vn 0.91500 0.01236 -0.40326
vn 0.91474 0.01547 -0.40374
vn 0.91450 0.01851 -0.40416
vn 0.91440 0.02171 -0.40422
vn 0.91467 0.02565 -0.40338
vn 0.91606 0.03236 -0.39974
vn -0.11080 0.81021 -0.57558
vn 0.65536 0.56391 -0.50251
vn 0.63517 0.54792 -0.54437
vn 0.61700 0.52966 -0.58204
vn 0.60114 0.51047 -0.61486
vn 0.58772 0.49170 -0.64250
vn 0.57734 0.47593 -0.66346
vn -0.11037 0.81023 -0.57562
vn 0.15098 0.90478 -0.39823
vn 0.11849 0.87699 -0.46567
vn 0.08925 0.84556 -0.52637
vn 0.06367 0.81253 -0.57943
vn 0.04183 0.77974 -0.62471
vn 0.02428 0.75007 -0.66091
vn -0.10959 0.81018 -0.57584
vn -0.40548 0.90478 -0.13025
vn -0.43795 0.87699 -0.19770
vn -0.46718 0.84556 -0.25841
vn -0.49272 0.81253 -0.31149
vn -0.51450 0.77974 -0.35680
vn -0.53186 0.75007 -0.39309
vn -0.10874 0.81007 -0.57616
vn -0.80149 0.56391 0.19907
vn -0.82163 0.54792 0.15718
vn -0.83975 0.52966 0.11949
vn -0.85552 0.51047 0.08663
vn -0.86877 0.49170 0.05891
vn -0.87867 0.47593 0.03772
vn -0.10816 0.80994 -0.57645
vn -0.88624 0.01531 0.46297
vn -0.88656 0.01831 0.46225
vn -0.88683 0.02124 0.46160
vn -0.88691 0.02433 0.46131
vn -0.88649 0.02814 0.46190
vn -0.04773 0.88470 -0.46371
vn -0.10808 0.80984 -0.57661
vn -0.19265 0.00949 0.98122
vn -0.19286 0.01201 0.98115
vn -0.19295 0.01455 0.98110
vn -0.19267 0.01732 0.98111
vn -0.19150 0.02083 0.98127
vn -0.18766 0.02691 0.98187
vn -0.58866 0.79587 -0.14163
vn 0.07136 -0.52887 0.84569
vn 0.10923 -0.50813 0.85433
vn 0.14353 -0.48594 0.86213
vn 0.17430 -0.46290 0.86910
vn 0.20229 -0.43902 0.87541
vn 0.22957 -0.41282 0.88140
vn -0.58882 0.79581 -0.14135
vn 0.32022 -0.86339 0.38989
vn 0.38176 -0.83132 0.40394
vn 0.43741 -0.79693 0.41663
vn 0.48712 -0.76129 0.42796
vn 0.53178 -0.72475 0.43812
vn 0.57360 -0.68605 0.44757
vn -0.58905 0.79577 -0.14058
vn 0.45768 -0.86339 -0.21235
vn 0.51921 -0.83132 -0.19830
vn 0.57486 -0.79693 -0.18558
vn 0.62456 -0.76129 -0.17422
vn 0.66920 -0.72475 -0.16400
vn 0.71099 -0.68605 -0.15437
vn -0.58928 0.79578 -0.13962
vn 0.43122 -0.52887 -0.73098
vn 0.46909 -0.50813 -0.72233
vn 0.50338 -0.48594 -0.71447
vn 0.53413 -0.46290 -0.70741
vn 0.56208 -0.43902 -0.70094
vn 0.58927 -0.41282 -0.69451
vn -0.58940 0.79582 -0.13883
vn 0.25097 0.01238 -0.96792
vn 0.25055 0.01480 -0.96799
vn 0.25027 0.01724 -0.96802
vn 0.25036 0.01990 -0.96795
vn 0.25134 0.02330 -0.96762
vn 0.25493 0.02927 -0.96652
vn -0.58938 0.79589 -0.13852
vn -0.01423 0.55362 -0.83265
vn -0.05293 0.53773 -0.84146
vn -0.08778 0.52042 -0.84939
vn -0.11835 0.50270 -0.85632
vn -0.14434 0.48562 -0.86217
vn -0.16432 0.47135 -0.86650
vn -0.58923 0.79595 -0.13880
vn -0.26308 0.88813 -0.37685
vn -0.32543 0.86090 -0.39107
vn -0.38165 0.83139 -0.40389
vn -0.43116 0.80108 -0.41518
vn -0.47382 0.77134 -0.42488
vn -0.50833 0.74458 -0.43267
vn -0.58900 0.79599 -0.13957
vn -0.40054 0.88813 0.22538
vn -0.46288 0.86090 0.21114
vn -0.51910 0.83139 0.19830
vn -0.56860 0.80108 0.18699
vn -0.61124 0.77134 0.17722
vn -0.64572 0.74458 0.16927
vn -0.58877 0.79599 -0.14053
vn -0.37409 0.55362 0.74401
vn -0.41278 0.53773 0.73516
vn -0.44763 0.52042 0.72718
vn -0.47817 0.50270 0.72017
vn -0.50413 0.48562 0.71416
vn -0.52400 0.47135 0.70940
vn -0.58865 0.79594 -0.14132
vn -0.19504 0.01527 0.98068
vn -0.19565 0.01760 0.98052
vn -0.19611 0.01993 0.98038
vn -0.19616 0.02248 0.98032
vn -0.19528 0.02577 0.98041
vn -0.19169 0.03163 0.98095
vn -0.58866 0.79587 -0.14163
vn 0.65440 0.00924 0.75609
vn 0.65405 0.01347 0.75633
vn 0.65360 0.01751 0.75664
vn 0.65336 0.02160 0.75674
vn 0.65387 0.02639 0.75615
vn -0.20531 0.92276 0.32614
vn -0.28511 0.86649 0.40977
vn 0.67091 -0.54863 0.49888
vn 0.71288 -0.52461 0.46539
vn 0.75032 -0.49737 0.43549
vn 0.78299 -0.46835 0.40935
vn 0.81168 -0.43810 0.38632
vn 0.83846 -0.40509 0.36454
vn -0.28517 0.86635 0.41001
vn 0.44361 -0.89527 0.04116
vn 0.51188 -0.85895 -0.01329
vn 0.57287 -0.81730 -0.06195
vn 0.62601 -0.77280 -0.10436
vn 0.67225 -0.72671 -0.14130
vn 0.71396 -0.67803 -0.17472
vn -0.28483 0.86620 0.41057
vn 0.05859 -0.89527 -0.44165
vn 0.12686 -0.85895 -0.49609
vn 0.18788 -0.81730 -0.54473
vn 0.24105 -0.77280 -0.58710
vn 0.28735 -0.72671 -0.62396
vn 0.32921 -0.67803 -0.65718
vn -0.28422 0.86609 0.41123
vn -0.33708 -0.54863 -0.76510
vn -0.29509 -0.52461 -0.79856
vn -0.25761 -0.49737 -0.82841
vn -0.22486 -0.46835 -0.85445
vn -0.19601 -0.43810 -0.87730
vn -0.16883 -0.40509 -0.89855
vn -0.28358 0.86606 0.41174
vn -0.59225 0.01223 -0.80566
vn -0.59279 0.01636 -0.80519
vn -0.59339 0.02028 -0.80466
vn -0.59372 0.02423 -0.80431
vn -0.59318 0.02888 -0.80455
vn -0.58992 0.03653 -0.80663
vn -0.28315 0.86612 0.41190
vn -0.60945 0.57308 -0.54785
vn -0.65250 0.55730 -0.51348
vn -0.69122 0.53791 -0.48257
vn -0.72465 0.51681 -0.45584
vn -0.75246 0.49585 -0.43351
vn -0.77322 0.47814 -0.41655
vn -0.28309 0.86625 0.41166
vn -0.38214 0.91970 -0.09016
vn -0.45147 0.89161 -0.03485
vn -0.51375 0.85781 0.01483
vn -0.56766 0.82123 0.05785
vn -0.61302 0.78444 0.09408
vn -0.64872 0.75107 0.12270
vn -0.28344 0.86641 0.41110
vn 0.00286 0.91970 0.39262
vn -0.06649 0.89161 0.44790
vn -0.12878 0.85781 0.49757
vn -0.18272 0.82123 0.54055
vn -0.22813 0.78444 0.57672
vn -0.26398 0.75107 0.60515
vn -0.28404 0.86652 0.41044
vn 0.39850 0.57308 0.71608
vn 0.35541 0.55730 0.75040
vn 0.31666 0.53791 0.78127
vn 0.28316 0.51681 0.80792
vn 0.25521 0.49585 0.83006
vn 0.23405 0.47814 0.84652
vn -0.28468 0.86655 0.40993
vn 0.65294 0.01523 0.75726
vn 0.65214 0.01925 0.75786
vn 0.65128 0.02305 0.75849
vn 0.65069 0.02687 0.75887
vn 0.65089 0.03138 0.75852
vn -0.20531 0.92276 0.32614
vn -0.28511 0.86649 0.40977
f 1/1/1 8/8/8 9/9/9
f 1/1/1 9/9/9 2/2/2
f 2/2/2 9/9/9 10/10/10
f 2/2/2 10/10/10 3/3/3
f 3/3/3 10/10/10 11/11/11
f 3/3/3 11/11/11 4/4/4
f 4/4/4 11/11/11 12/12/12
f 4/4/4 12/12/12 5/5/5
f 5/5/5 12/12/12 13/13/13
f 5/5/5 13/13/13 6/6/6
f 6/6/6 13/13/13 14/14/14
f 6/6/6 14/14/14 7/7/7
f 8/8/8 15/15/15 16/16/16
f 8/8/8 16/16/16 9/9/9
f 9/9/9 16/16/16 17/17/17
f 9/9/9 17/17/17 10/10/10
f 10/10/10 17/17/17 18/18/18
f 10/10/10 18/18/18 11/11/11
f 11/11/11 18/18/18 19/19/19
f 11/11/11 19/19/19 12/12/12
f 12/12/12 19/19/19 20/20/20
f 12/12/12 20/20/20 13/13/13
f 13/13/13 20/20/20 21/21/21
f 13/13/13 21/21/21 14/14/14
f 15/15/15 22/22/22 23/23/23
f 15/15/15 23/23/23 16/16/16
f 16/16/16 23/23/23 24/24/24
f 16/16/16 24/24/24 17/17/17
f 17/17/17 24/24/24 25/25/25
f 17/17/17 25/25/25 18/18/18
f 18/18/18 25/25/25 26/26/26
f 18/18/18 26/26/26 19/19/19
f 19/19/19 26/26/26 27/27/27
f 19/19/19 27/27/27 20/20/20
f 20/20/20 27/27/27 28/28/28
f 20/20/20 28/28/28 21/21/21
f 22/22/22 29/29/29 30/30/30
f 22/22/22 30/30/30 23/23/23
f 23/23/23 30/30/30 31/31/31
f 23/23/23 31/31/31 24/24/24
f 24/24/24 31/31/31 32/32/32
f 24/24/24 32/32/32 25/25/25
f 25/25/25 32/32/32 33/33/33
f 25/25/25 33/33/33 26/26/26
f 26/26/26 33/33/33 34/34/34
f 26/26/26 34/34/34 27/27/27
f 27/27/27 34/34/34 35/35/35
f 27/27/27 35/35/35 28/28/28
f 29/29/29 36/36/36 37/37/37
f 29/29/29 37/37/37 30/30/30
f 30/30/30 37/37/37 38/38/38
f 30/30/30 38/38/38 31/31/31
f 31/31/31 38/38/38 39/39/39
f 31/31/31 39/39/39 32/32/32
f 32/32/32 39/39/39 40/40/40
f 32/32/32 40/40/40 33/33/33
f 33/33/33 40/40/40 41/41/41
f 33/33/33 41/41/41 34/34/34
f 34/34/34 41/41/41 42/42/42
f 34/34/34 42/42/42 35/35/35
f 36/36/36 43/43/43 44/44/44
f 36/36/36 44/44/44 37/37/37
f 37/37/37 44/44/44 45/45/45
f 37/37/37 45/45/45 38/38/38
f 38/38/38 45/45/45 46/46/46
f 38/38/38 46/46/46 39/39/39
f 39/39/39 46/46/46 47/47/47
f 39/39/39 47/47/47 40/40/40
f 40/40/40 47/47/47 48/48/48
f 40/40/40 48/48/48 41/41/41
f 41/41/41 48/48/48 49/49/49
f 41/41/41 49/49/49 42/42/42
f 43/43/43 50/50/50 51/51/51
f 43/43/43 51/51/51 44/44/44
f 44/44/44 51/51/51 52/52/52
f 44/44/44 52/52/52 45/45/45
f 45/45/45 52/52/52 53/53/53
f 45/45/45 53/53/53 46/46/46
f 46/46/46 53/53/53 54/54/54
f 46/46/46 54/54/54 47/47/47
f 47/47/47 54/54/54 55/55/55
f 47/47/47 55/55/55 48/48/48
f 48/48/48 55/55/55 56/56/56
f 48/48/48 56/56/56 49/49/49
f 50/50/50 57/57/57 58/58/58
f 50/50/50 58/58/58 51/51/51
f 51/51/51 58/58/58 59/59/59
f 51/51/51 59/59/59 52/52/52
f 52/52/52 59/59/59 60/60/60
f 52/52/52 60/60/60 53/53/53
f 53/53/53 60/60/60 61/61/61
f 53/53/53 61/61/61 54/54/54
f 54/54/54 61/61/61 62/62/62
f 54/54/54 62/62/62 55/55/55
f 55/55/55 62/62/62 63/63/63
f 55/55/55 63/63/63 56/56/56
f 57/57/57 64/64/64 65/65/65
f 57/57/57 65/65/65 58/58/58
f 58/58/58 65/65/65 66/66/66
f 58/58/58 66/66/66 59/59/59
f 59/59/59 66/66/66 67/67/67
f 59/59/59 67/67/67 60/60/60
f 60/60/60 67/67/67 68/68/68
f 60/60/60 68/68/68 61/61/61
f 61/61/61 68/68/68 69/69/69
f 61/61/61 69/69/69 62/62/62
f 62/62/62 69/69/69 70/70/70
f 62/62/62 70/70/70 63/63/63
f 64/64/64 71/71/71 72/72/72
f 64/64/64 72/72/72 65/65/65
f 65/65/65 72/72/72 73/73/73
f 65/65/65 73/73/73 66/66/66
f 66/66/66 73/73/73 74/74/74
f 66/66/66 74/74/74 67/67/67
f 67/67/67 74/74/74 75/75/75
f 67/67/67 75/75/75 68/68/68
f 68/68/68 75/75/75 76/76/76
f 68/68/68 76/76/76 69/69/69
f 69/69/69 76/76/76 77/77/77
f 69/69/69 77/77/77 70/70/70
f 78/78/78 85/85/85 86/86/86
f 78/78/78 86/86/86 79/79/79
f 79/79/79 86/86/86 87/87/87
f 79/79/79 87/87/87 80/80/80
f 80/80/80 87/87/87 88/88/88
f 80/80/80 88/88/88 81/81/81
f 81/81/81 88/88/88 89/89/89
f 81/81/81 89/89/89 82/82/82
f 82/82/82 89/89/89 90/90/90
f 82/82/82 90/90/90 83/83/83
f 83/83/83 90/90/90 91/91/91
f 83/83/83 91/91/91 84/84/84
f 85/85/85 92/92/92 93/93/93
f 85/85/85 93/93/93 86/86/86
f 86/86/86 93/93/93 94/94/94
f 86/86/86 94/94/94 87/87/87
f 87/87/87 94/94/94 95/95/95
f 87/87/87 95/95/95 88/88/88
f 88/88/88 95/95/95 96/96/96
f 88/88/88 96/96/96 89/89/89
f 89/89/89 96/96/96 97/97/97
f 89/89/89 97/97/97 90/90/90
f 90/90/90 97/97/97 98/98/98
f 90/90/90 98/98/98 91/91/91
f 92/92/92 99/99/99 100/100/100
f 92/92/92 100/100/100 93/93/93
f 93/93/93 100/100/100 101/101/101
f 93/93/93 101/101/101 94/94/94
f 94/94/94 101/101/101 102/102/102
f 94/94/94 102/102/102 95/95/95
f 95/95/95 102/102/102 103/103/103
f 95/95/95 103/103/103 96/96/96
f 96/96/96 103/103/103 104/104/104
f 96/96/96 104/104/104 97/97/97
f 97/97/97 104/104/104 105/105/105
f 97/97/97 105/105/105 98/98/98
f 99/99/99 106/106/106 107/107/107
f 99/99/99 107/107/107 100/100/100
f 100/100/100 107/107/107 108/108/108
f 100/100/100 108/108/108 101/101/101
f 101/101/101 108/108/108 109/109/109
f 101/101/101 109/109/109 102/102/102
f 102/102/102 109/109/109 110/110/110
f 102/102/102 110/110/110 103/103/103
f 103/103/103 110/110/110 111/111/111
f 103/103/103 111/111/111 104/104/104
f 104/104/104 111/111/111 112/112/112
f 104/104/104 112/112/112 105/105/105
f 106/106/106 113/113/113 114/114/114
f 106/106/106 114/114/114 107/107/107
f 107/107/107 114/114/114 115/115/115
f 107/107/107 115/115/115 108/108/108
f 108/108/108 115/115/115 116/116/116
f 108/108/108 116/116/116 109/109/109
f 109/109/109 116/116/116 117/117/117
f 109/109/109 117/117/117 110/110/110
f 110/110/110 117/117/117 118/118/118
f 110/110/110 118/118/118 111/111/111
f 111/111/111 118/118/118 119/119/119
f 111/111/111 119/119/119 112/112/112
f 113/113/113 120/120/120 121/121/121
f 113/113/113 121/121/121 114/114/114
f 114/114/114 121/121/121 122/122/122
f 114/114/114 122/122/122 115/115/115
f 115/115/115 122/122/122 123/123/123
f 115/115/115 123/123/123 116/116/116
f 116/116/116 123/123/123 124/124/124
f 116/116/116 124/124/124 117/117/117
f 117/117/117 124/124/124 125/125/125
f 117/117/117 125/125/125 118/118/118
f 118/118/118 125/125/125 126/126/126
f 118/118/118 126/126/126 119/119/119
f 120/120/120 127/127/127 128/128/128
f 120/120/120 128/128/128 121/121/121
f 121/121/121 128/128/128 129/129/129
f 121/121/121 129/129/129 122/122/122
f 122/122/122 129/129/129 130/130/130
f 122/122/122 130/130/130 123/123/123
f 123/123/123 130/130/130 131/131/131
f 123/123/123 131/131/131 124/124/124
f 124/124/124 131/131/131 132/132/132
f 124/124/124 132/132/132 125/125/125
f 125/125/125 132/132/132 133/133/133
f 125/125/125 133/133/133 126/126/126
f 127/127/127 134/134/134 135/135/135
f 127/127/127 135/135/135 128/128/128
f 128/128/128 135/135/135 136/136/136
f 128/128/128 136/136/136 129/129/129
f 129/129/129 136/136/136 137/137/137
f 129/129/129 137/137/137 130/130/130
f 130/130/130 137/137/137 138/138/138
f 130/130/130 138/138/138 131/131/131
f 131/131/131 138/138/138 139/139/139
f 131/131/131 139/139/139 132/132/132
f 132/132/132 139/139/139 140/140/140
f 132/132/132 140/140/140 133/133/133
f 134/134/134 141/141/141 142/142/142
f 134/134/134 142/142/142 135/135/135
f 135/135/135 142/142/142 143/143/143
f 135/135/135 143/143/143 136/136/136
f 136/136/136 143/143/143 144/144/144
f 136/136/136 144/144/144 137/137/137
f 137/137/137 144/144/144 145/145/145
f 137/137/137 145/145/145 138/138/138
f 138/138/138 145/145/145 146/146/146
f 138/138/138 146/146/146 139/139/139
f 139/139/139 146/146/146 147/147/147
f 139/139/139 147/147/147 140/140/140
f 141/141/141 148/148/148 149/149/149
f 141/141/141 149/149/149 142/142/142
f 142/142/142 149/149/149 150/150/150
f 142/142/142 150/150/150 143/143/143
f 143/143/143 150/150/150 151/151/151
f 143/143/143 151/151/151 144/144/144
f 144/144/144 151/151/151 152/152/152
f 144/144/144 152/152/152 145/145/145
f 145/145/145 152/152/152 153/153/153
f 145/145/145 153/153/153 146/146/146
f 146/146/146 153/153/153 154/154/154
f 146/146/146 154/154/154 147/147/147
f 155/155/155 162/162/162 163/163/163
f 155/155/155 163/163/163 156/156/156
f 156/156/156 163/163/163 164/164/164
f 156/156/156 164/164/164 157/157/157
f 157/157/157 164/164/164 165/165/165
f 157/157/157 165/165/165 158/158/158
f 158/158/158 165/165/165 166/166/166
f 158/158/158 166/166/166 159/159/159
f 159/159/159 166/166/166 167/167/167
f 159/159/159 167/167/167 160/160/160
f 160/160/160 167/167/167 168/168/168
f 160/160/160 168/168/168 161/161/161
f 162/162/162 169/169/169 170/170/170
f 162/162/162 170/170/170 163/163/163
f 163/163/163 170/170/170 171/171/171
f 163/163/163 171/171/171 164/164/164
f 164/164/164 171/171/171 172/172/172
f 164/164/164 172/172/172 165/165/165
f 165/165/165 172/172/172 173/173/173
f 165/165/165 173/173/173 166/166/166
f 166/166/166 173/173/173 174/174/174
f 166/166/166 174/174/174 167/167/167
f 167/167/167 174/174/174 175/175/175
f 167/167/167 175/175/175 168/168/168
f 169/169/169 176/176/176 177/177/177
f 169/169/169 177/177/177 170/170/170
f 170/170/170 177/177/177 178/178/178
f 170/170/170 178/178/178 171/171/171
f 171/171/171 178/178/178 179/179/179
f 171/171/171 179/179/179 172/172/172
f 172/172/172 179/179/179 180/180/180
f 172/172/172 180/180/180 173/173/173
f 173/173/173 180/180/180 181/181/181
f 173/173/173 181/181/181 174/174/174
f 174/174/174 181/181/181 182/182/182
f 174/174/174 182/182/182 175/175/175
f 176/176/176 183/183/183 184/184/184
f 176/176/176 184/184/184 177/177/177
f 177/177/177 184/184/184 185/185/185
f 177/177/177 185/185/185 178/178/178
f 178/178/178 185/185/185 186/186/186
f 178/178/178 186/186/186 179/179/179
f 179/179/179 186/186/186 187/187/187
f 179/179/179 187/187/187 180/180/180
f 180/180/180 187/187/187 188/188/188
f 180/180/180 188/188/188 181/181/181
f 181/181/181 188/188/188 189/189/189
f 181/181/181 189/189/189 182/182/182
f 183/183/183 190/190/190 191/191/191
f 183/183/183 191/191/191 184/184/184
f 184/184/184 191/191/191 192/192/192
f 184/184/184 192/192/192 185/185/185
f 185/185/185 192/192/192 193/193/193
f 185/185/185 193/193/193 186/186/186
f 186/186/186 193/193/193 194/194/194
f 186/186/186 194/194/194 187/187/187
f 187/187/187 194/194/194 195/195/195
f 187/187/187 195/195/195 188/188/188
f 188/188/188 195/195/195 196/196/196
f 188/188/188 196/196/196 189/189/189
f 190/190/190 197/197/197 198/198/198
f 190/190/190 198/198/198 191/191/191
f 191/191/191 198/198/198 199/199/199
f 191/191/191 199/199/199 192/192/192
f 192/192/192 199/199/199 200/200/200
f 192/192/192 200/200/200 193/193/193
f 193/193/193 200/200/200 201/201/201
f 193/193/193 201/201/201 194/194/194
f 194/194/194 201/201/201 202/202/202
f 194/194/194 202/202/202 195/195/195
f 195/195/195 202/202/202 203/203/203
f 195/195/195 203/203/203 196/196/196
f 197/197/197 204/204/204 205/205/205
f 197/197/197 205/205/205 198/198/198
f 198/198/198 205/205/205 206/206/206
f 198/198/198 206/206/206 199/199/199
f 199/199/199 206/206/206 207/207/207
f 199/199/199 207/207/207 200/200/200
f 200/200/200 207/207/207 208/208/208
f 200/200/200 208/208/208 201/201/201
f 201/201/201 208/208/208 209/209/209
f 201/201/201 209/209/209 202/202/202
f 202/202/202 209/209/209 210/210/210
f 202/202/202 210/210/210 203/203/203
f 204/204/204 211/211/211 212/212/212
f 204/204/204 212/212/212 205/205/205
f 205/205/205 212/212/212 213/213/213
f 205/205/205 213/213/213 206/206/206
f 206/206/206 213/213/213 214/214/214
f 206/206/206 214/214/214 207/207/207
f 207/207/207 214/214/214 215/215/215
f 207/207/207 215/215/215 208/208/208
f 208/208/208 215/215/215 216/216/216
f 208/208/208 216/216/216 209/209/209
f 209/209/209 216/216/216 217/217/217
f 209/209/209 217/217/217 210/210/210
f 211/211/211 218/218/218 219/219/219
f 211/211/211 219/219/219 212/212/212
f 212/212/212 219/219/219 220/220/220
f 212/212/212 220/220/220 213/213/213
f 213/213/213 220/220/220 221/221/221
f 213/213/213 221/221/221 214/214/214
f 214/214/214 221/221/221 222/222/222
f 214/214/214 222/222/222 215/215/215
f 215/215/215 222/222/222 223/223/223
f 215/215/215 223/223/223 216/216/216
f 216/216/216 223/223/223 224/224/224
f 216/216/216 224/224/224 217/217/217
f 218/218/218 225/225/225 226/226/226
f 218/218/218 226/226/226 219/219/219
f 219/219/219 226/226/226 227/227/227
f 219/219/219 227/227/227 220/220/220
f 220/220/220 227/227/227 228/228/228
f 220/220/220 228/228/228 221/221/221
f 221/221/221 228/228/228 229/229/229
f 221/221/221 229/229/229 222/222/222
f 222/222/222 229/229/229 230/230/230
f 222/222/222 230/230/230 223/223/223
f 223/223/223 230/230/230 231/231/231
f 223/223/223 231/231/231 224/224/224
f 232/232/232 239/239/239 240/240/240
f 232/232/232 240/240/240 233/233/233
f 233/233/233 240/240/240 241/241/241
f 233/233/233 241/241/241 234/234/234
f 234/234/234 241/241/241 242/242/242
f 234/234/234 242/242/242 235/235/235
f 235/235/235 242/242/242 243/243/243
f 235/235/235 243/243/243 236/236/236
f 236/236/236 243/243/243 244/244/244
f 236/236/236 244/244/244 237/237/237
f 237/237/237 244/244/244 245/245/245
f 237/237/237 245/245/245 238/238/238
f 239/239/239 246/246/246 247/247/247
f 239/239/239 247/247/247 240/240/240
f 240/240/240 247/247/247 248/248/248
f 240/240/240 248/248/248 241/241/241
f 241/241/241 248/248/248 249/249/249
f 241/241/241 249/249/249 242/242/242
f 242/242/242 249/249/249 250/250/250
f 242/242/242 250/250/250 243/243/243
f 243/243/243 250/250/250 251/251/251
f 243/243/243 251/251/251 244/244/244
f 244/244/244 251/251/251 252/252/252
f 244/244/244 252/252/252 245/245/245
f 246/246/246 253/253/253 254/254/254
f 246/246/246 254/254/254 247/247/247
f 247/247/247 254/254/254 255/255/255
f 247/247/247 255/255/255 248/248/248
f 248/248/248 255/255/255 256/256/256
f 248/248/248 256/256/256 249/249/249
f 249/249/249 256/256/256 257/257/257
f 249/249/249 257/257/257 250/250/250
f 250/250/250 257/257/257 258/258/258
f 250/250/250 258/258/258 251/251/251
f 251/251/251 258/258/258 259/259/259
f 251/251/251 259/259/259 252/252/252
f 253/253/253 260/260/260 261/261/261
f 253/253/253 261/261/261 254/254/254
f 254/254/254 261/261/261 262/262/262
f 254/254/254 262/262/262 255/255/255
f 255/255/255 262/262/262 263/263/263
f 255/255/255 263/263/263 256/256/256
f 256/256/256 263/263/263 264/264/264
f 256/256/256 264/264/264 257/257/257
f 257/257/257 264/264/264 265/265/265
f 257/257/257 265/265/265 258/258/258
f 258/258/258 265/265/265 266/266/266
f 258/258/258 266/266/266 259/259/259
f 260/260/260 267/267/267 268/268/268
f 260/260/260 268/268/268 261/261/261
f 261/261/261 268/268/268 269/269/269
f 261/261/261 269/269/269 262/262/262
f 262/262/262 269/269/269 270/270/270
f 262/262/262 270/270/270 263/263/263
f 263/263/263 270/270/270 271/271/271
f 263/263/263 271/271/271 264/264/264
f 264/264/264 271/271/271 272/272/272
f 264/264/264 272/272/272 265/265/265
f 265/265/265 272/272/272 273/273/273
f 265/265/265 273/273/273 266/266/266
f 267/267/267 274/274/274 275/275/275
f 267/267/267 275/275/275 268/268/268
f 268/268/268 275/275/275 276/276/276
f 268/268/268 276/276/276 269/269/269
f 269/269/269 276/276/276 277/277/277
f 269/269/269 277/277/277 270/270/270
f 270/270/270 277/277/277 278/278/278
f 270/270/270 278/278/278 271/271/271
f 271/271/271 278/278/278 279/279/279
f 271/271/271 279/279/279 272/272/272
f 272/272/272 279/279/279 280/280/280
f 272/272/272 280/280/280 273/273/273
f 274/274/274 281/281/281 282/282/282
f 274/274/274 282/282/282 275/275/275
f 275/275/275 282/282/282 283/283/283
f 275/275/275 283/283/283 276/276/276
f 276/276/276 283/283/283 284/284/284
f 276/276/276 284/284/284 277/277/277
f 277/277/277 284/284/284 285/285/285
f 277/277/277 285/285/285 278/278/278
f 278/278/278 285/285/285 286/286/286
f 278/278/278 286/286/286 279/279/279
f 279/279/279 286/286/286 287/287/287
f 279/279/279 287/287/287 280/280/280
f 281/281/281 288/288/288 289/289/289
f 281/281/281 289/289/289 282/282/282
f 282/282/282 289/289/289 290/290/290
f 282/282/282 290/290/290 283/283/283
f 283/283/283 290/290/290 291/291/291
f 283/283/283 291/291/291 284/284/284
f 284/284/284 291/291/291 292/292/292
f 284/284/284 292/292/292 285/285/285
f 285/285/285 292/292/292 293/293/293
f 285/285/285 293/293/293 286/286/286
f 286/286/286 293/293/293 294/294/294
f 286/286/286 294/294/294 287/287/287
f 288/288/288 295/295/295 296/296/296
f 288/288/288 296/296/296 289/289/289
f 289/289/289 296/296/296 297/297/297
f 289/289/289 297/297/297 290/290/290
f 290/290/290 297/297/297 298/298/298
f 290/290/290 298/298/298 291/291/291
f 291/291/291 298/298/298 299/299/299
f 291/291/291 299/299/299 292/292/292
f 292/292/292 299/299/299 300/300/300
f 292/292/292 300/300/300 293/293/293
f 293/293/293 300/300/300 301/301/301
f 293/293/293 301/301/301 294/294/294
f 295/295/295 302/302/302 303/303/303
f 295/295/295 303/303/303 296/296/296
f 296/296/296 303/303/303 304/304/304
f 296/296/296 304/304/304 297/297/297
f 297/297/297 304/304/304 305/305/305
f 297/297/297 305/305/305 298/298/298
f 298/298/298 305/305/305 306/306/306
f 298/298/298 306/306/306 299/299/299
f 299/299/299 306/306/306 307/307/307
f 299/299/299 307/307/307 300/300/300
f 300/300/300 307/307/307 308/308/308
f 300/300/300 308/308/308 301/301/301
f 309/309/309 316/316/316 317/317/317
f 309/309/309 317/317/317 310/310/310
f 310/310/310 317/317/317 318/318/318
f 310/310/310 318/318/318 311/311/311
f 311/311/311 318/318/318 319/319/319
f 311/311/311 319/319/319 312/312/312
f 312/312/312 319/319/319 320/320/320
f 312/312/312 320/320/320 313/313/313
f 313/313/313 320/320/320 321/321/321
f 313/313/313 321/321/321 314/314/314
f 314/314/314 321/321/321 322/322/322
f 314/314/314 322/322/322 315/315/315
f 316/316/316 323/323/323 324/324/324
f 316/316/316 324/324/324 317/317/317
f 317/317/317 324/324/324 325/325/325
f 317/317/317 325/325/325 318/318/318
f 318/318/318 325/325/325 326/326/326
f 318/318/318 326/326/326 319/319/319
f 319/319/319 326/326/326 327/327/327
f 319/319/319 327/327/327 320/320/320
f 320/320/320 327/327/327 328/328/328
f 320/320/320 328/328/328 321/321/321
f 321/321/321 328/328/328 329/329/329
f 321/321/321 329/329/329 322/322/322
f 323/323/323 330/330/330 331/331/331
f 323/323/323 331/331/331 324/324/324
f 324/324/324 331/331/331 332/332/332
f 324/324/324 332/332/332 325/325/325
f 325/325/325 332/332/332 333/333/333
f 325/325/325 333/333/333 326/326/326
f 326/326/326 333/333/333 334/334/334
f 326/326/326 334/334/334 327/327/327
f 327/327/327 334/334/334 335/335/335
f 327/327/327 335/335/335 328/328/328
f 328/328/328 335/335/335 336/336/336
f 328/328/328 336/336/336 329/329/329
f 330/330/330 337/337/337 338/338/338
f 330/330/330 338/338/338 331/331/331
f 331/331/331 338/338/338 339/339/339
f 331/331/331 339/339/339 332/332/332
f 332/332/332 339/339/339 340/340/340
f 332/332/332 340/340/340 333/333/333
f 333/333/333 340/340/340 341/341/341
f 333/333/333 341/341/341 334/334/334
f 334/334/334 341/341/341 342/342/342
f 334/334/334 342/342/342 335/335/335
f 335/335/335 342/342/342 343/343/343
f 335/335/335 343/343/343 336/336/336
f 337/337/337 344/344/344 345/345/345
f 337/337/337 345/345/345 338/338/338
f 338/338/338 345/345/345 346/346/346
f 338/338/338 346/346/346 339/339/339
f 339/339/339 346/346/346 347/347/347
f 339/339/339 347/347/347 340/340/340
f 340/340/340 347/347/347 348/348/348
f 340/340/340 348/348/348 341/341/341
f 341/341/341 348/348/348 349/349/349
f 341/341/341 349/349/349 342/342/342
f 342/342/342 349/349/349 350/350/350
f 342/342/342 350/350/350 343/343/343
f 344/344/344 351/351/351 352/352/352
f 344/344/344 352/352/352 345/345/345
f 345/345/345 352/352/352 353/353/353
f 345/345/345 353/353/353 346/346/346
f 346/346/346 353/353/353 354/354/354
f 346/346/346 354/354/354 347/347/347
f 347/347/347 354/354/354 355/355/355
f 347/347/347 355/355/355 348/348/348
f 348/348/348 355/355/355 356/356/356
f 348/348/348 356/356/356 349/349/349
f 349/349/349 356/356/356 357/357/357
f 349/349/349 357/357/357 350/350/350
f 351/351/351 358/358/358 359/359/359
f 351/351/351 359/359/359 352/352/352
f 352/352/352 359/359/359 360/360/360
f 352/352/352 360/360/360 353/353/353
f 353/353/353 360/360/360 361/361/361
f 353/353/353 361/361/361 354/354/354
f 354/354/354 361/361/361 362/362/362
f 354/354/354 362/362/362 355/355/355
f 355/355/355 362/362/362 363/363/363
f 355/355/355 363/363/363 356/356/356
f 356/356/356 363/363/363 364/364/364
f 356/356/356 364/364/364 357/357/357
f 358/358/358 365/365/365 366/366/366
f 358/358/358 366/366/366 359/359/359
f 359/359/359 366/366/366 367/367/367
f 359/359/359 367/367/367 360/360/360
f 360/360/360 367/367/367 368/368/368
f 360/360/360 368/368/368 361/361/361
f 361/361/361 368/368/368 369/369/369
f 361/361/361 369/369/369 362/362/362
f 362/362/362 369/369/369 370/370/370
f 362/362/362 370/370/370 363/363/363
f 363/363/363 370/370/370 371/371/371
f 363/363/363 371/371/371 364/364/364
f 365/365/365 372/372/372 373/373/373
f 365/365/365 373/373/373 366/366/366
f 366/366/366 373/373/373 374/374/374
f 366/366/366 374/374/374 367/367/367
f 367/367/367 374/374/374 375/375/375
f 367/367/367 375/375/375 368/368/368
f 368/368/368 375/375/375 376/376/376
f 368/368/368 376/376/376 369/369/369
f 369/369/369 376/376/376 377/377/377
f 369/369/369 377/377/377 370/370/370
f 370/370/370 377/377/377 378/378/378
f 370/370/370 378/378/378 371/371/371
f 372/372/372 379/379/379 380/380/380
f 372/372/372 380/380/380 373/373/373
f 373/373/373 380/380/380 381/381/381
f 373/373/373 381/381/381 374/374/374
f 374/374/374 381/381/381 382/382/382
f 374/374/374 382/382/382 375/375/375
f 375/375/375 382/382/382 383/383/383
f 375/375/375 383/383/383 376/376/376
f 376/376/376 383/383/383 384/384/384
f 376/376/376 384/384/384 377/377/377
f 377/377/377 384/384/384 385/385/385
f 377/377/377 385/385/385 378/378/378
f 386/386/386 393/393/393 394/394/394
f 386/386/386 394/394/394 387/387/387
f 387/387/387 394/394/394 395/395/395
f 387/387/387 395/395/395 388/388/388
f 388/388/388 395/395/395 396/396/396
f 388/388/388 396/396/396 389/389/389
f 389/389/389 396/396/396 397/397/397
f 389/389/389 397/397/397 390/390/390
f 390/390/390 397/397/397 398/398/398
f 390/390/390 398/398/398 391/391/391
f 391/391/391 398/398/398 399/399/399
f 391/391/391 399/399/399 392/392/392
f 393/393/393 400/400/400 401/401/401
f 393/393/393 401/401/401 394/394/394
f 394/394/394 401/401/401 402/402/402
f 394/394/394 402/402/402 395/395/395
f 395/395/395 402/402/402 403/403/403
f 395/395/395 403/403/403 396/396/396
f 396/396/396 403/403/403 404/404/404
f 396/396/396 404/404/404 397/397/397
f 397/397/397 404/404/404 405/405/405
f 397/397/397 405/405/405 398/398/398
f 398/398/398 405/405/405 406/406/406
f 398/398/398 406/406/406 399/399/399
f 400/400/400 407/407/407 408/408/408
f 400/400/400 408/408/408 401/401/401
f 401/401/401 408/408/408 409/409/409
f 401/401/401 409/409/409 402/402/402
f 402/402/402 409/409/409 410/410/410
f 402/402/402 410/410/410 403/403/403
f 403/403/403 410/410/410 411/411/411
f 403/403/403 411/411/411 404/404/404
f 404/404/404 411/411/411 412/412/412
f 404/404/404 412/412/412 405/405/405
f 405/405/405 412/412/412 413/413/413
f 405/405/405 413/413/413 406/406/406
f 407/407/407 414/414/414 415/415/415
f 407/407/407 415/415/415 408/408/408
f 408/408/408 415/415/415 416/416/416
f 408/408/408 416/416/416 409/409/409
f 409/409/409 416/416/416 417/417/417
f 409/409/409 417/417/417 410/410/410
f 410/410/410 417/417/417 418/418/418
f 410/410/410 418/418/418 411/411/411
f 411/411/411 418/418/418 419/419/419
f 411/411/411 419/419/419 412/412/412
f 412/412/412 419/419/419 420/420/420
f 412/412/412 420/420/420 413/413/413
f 414/414/414 421/421/421 422/422/422
f 414/414/414 422/422/422 415/415/415
f 415/415/415 422/422/422 423/423/423
f 415/415/415 423/423/423 416/416/416
f 416/416/416 423/423/423 424/424/424
f 416/416/416 424/424/424 417/417/417
f 417/417/417 424/424/424 425/425/425
f 417/417/417 425/425/425 418/418/418
f 418/418/418 425/425/425 426/426/426
f 418/418/418 426/426/426 419/419/419
f 419/419/419 426/426/426 427/427/427
f 419/419/419 427/427/427 420/420/420
f 421/421/421 428/428/428 429/429/429
f 421/421/421 429/429/429 422/422/422
f 422/422/422 429/429/429 430/430/430
f 422/422/422 430/430/430 423/423/423
f 423/423/423 430/430/430 431/431/431
f 423/423/423 431/431/431 424/424/424
f 424/424/424 431/431/431 432/432/432
f 424/424/424 432/432/432 425/425/425
f 425/425/425 432/432/432 433/433/433
f 425/425/425 433/433/433 426/426/426
f 426/426/426 433/433/433 434/434/434
f 426/426/426 434/434/434 427/427/427
f 428/428/428 435/435/435 436/436/436
f 428/428/428 436/436/436 429/429/429
f 429/429/429 436/436/436 437/437/437
f 429/429/429 437/437/437 430/430/430
f 430/430/430 437/437/437 438/438/438
f 430/430/430 438/438/438 431/431/431
f 431/431/431 438/438/438 439/439/439
f 431/431/431 439/439/439 432/432/432
f 432/432/432 439/439/439 440/440/440
f 432/432/432 440/440/440 433/433/433
f 433/433/433 440/440/440 441/441/441
f 433/433/433 441/441/441 434/434/434
f 435/435/435 442/442/442 443/443/443
f 435/435/435 443/443/443 436/436/436
f 436/436/436 443/443/443 444/444/444
f 436/436/436 444/444/444 437/437/437
f 437/437/437 444/444/444 445/445/445
f 437/437/437 445/445/445 438/438/438
f 438/438/438 445/445/445 446/446/446
f 438/438/438 446/446/446 439/439/439
f 439/439/439 446/446/446 447/447/447
f 439/439/439 447/447/447 440/440/440
f 440/440/440 447/447/447 448/448/448
f 440/440/440 448/448/448 441/441/441
f 442/442/442 449/449/449 450/450/450
f 442/442/442 450/450/450 443/443/443
f 443/443/443 450/450/450 451/451/451
f 443/443/443 451/451/451 444/444/444
f 444/444/444 451/451/451 452/452/452
f 444/444/444 452/452/452 445/445/445
f 445/445/445 452/452/452 453/453/453
f 445/445/445 453/453/453 446/446/446
f 446/446/446 453/453/453 454/454/454
f 446/446/446 454/454/454 447/447/447
f 447/447/447 454/454/454 455/455/455
f 447/447/447 455/455/455 448/448/448
f 449/449/449 456/456/456 457/457/457
f 449/449/449 457/457/457 450/450/450
f 450/450/450 457/457/457 458/458/458
f 450/450/450 458/458/458 451/451/451
f 451/451/451 458/458/458 459/459/459
f 451/451/451 459/459/459 452/452/452
f 452/452/452 459/459/459 460/460/460
f 452/452/452 460/460/460 453/453/453
f 453/453/453 460/460/460 461/461/461
f 453/453/453 461/461/461 454/454/454
f 454/454/454 461/461/461 462/462/462
f 454/454/454 462/462/462 455/455/455
f 463/463/463 470/470/470 471/471/471
f 463/463/463 471/471/471 464/464/464
f 464/464/464 471/471/471 472/472/472
f 464/464/464 472/472/472 465/465/465
f 465/465/465 472/472/472 473/473/473
f 465/465/465 473/473/473 466/466/466
f 466/466/466 473/473/473 474/474/474
f 466/466/466 474/474/474 467/467/467
f 467/467/467 474/474/474 475/475/475
f 467/467/467 475/475/475 468/468/468
f 468/468/468 475/475/475 476/476/476
f 468/468/468 476/476/476 469/469/469
f 470/470/470 477/477/477 478/478/478
f 470/470/470 478/478/478 471/471/471
f 471/471/471 478/478/478 479/479/479
f 471/471/471 479/479/479 472/472/472
f 472/472/472 479/479/479 480/480/480
f 472/472/472 480/480/480 473/473/473
f 473/473/473 480/480/480 481/481/481
f 473/473/473 481/481/481 474/474/474
f 474/474/474 481/481/481 482/482/482
f 474/474/474 482/482/482 475/475/475
f 475/475/475 482/482/482 483/483/483
f 475/475/475 483/483/483 476/476/476
f 477/477/477 484/484/484 485/485/485
f 477/477/477 485/485/485 478/478/478
f 478/478/478 485/485/485 486/486/486
f 478/478/478 486/486/486 479/479/479
f 479/479/479 486/486/486 487/487/487
f 479/479/479 487/487/487 480/480/480
f 480/480/480 487/487/487 488/488/488
f 480/480/480 488/488/488 481/481/481
f 481/481/481 488/488/488 489/489/489
f 481/481/481 489/489/489 482/482/482
f 482/482/482 489/489/489 490/490/490
f 482/482/482 490/490/490 483/483/483
f 484/484/484 491/491/491 492/492/492
f 484/484/484 492/492/492 485/485/485
f 485/485/485 492/492/492 493/493/493
f 485/485/485 493/493/493 486/486/486
f 486/486/486 493/493/493 494/494/494
f 486/486/486 494/494/494 487/487/487
f 487/487/487 494/494/494 495/495/495
f 487/487/487 495/495/495 488/488/488
f 488/488/488 495/495/495 496/496/496
f 488/488/488 496/496/496 489/489/489
f 489/489/489 496/496/496 497/497/497
f 489/489/489 497/497/497 490/490/490
f 491/491/491 498/498/498 499/499/499
f 491/491/491 499/499/499 492/492/492
f 492/492/492 499/499/499 500/500/500
f 492/492/492 500/500/500 493/493/493
f 493/493/493 500/500/500 501/501/501
f 493/493/493 501/501/501 494/494/494
f 494/494/494 501/501/501 502/502/502
f 494/494/494 502/502/502 495/495/495
f 495/495/495 502/502/502 503/503/503
f 495/495/495 503/503/503 496/496/496
f 496/496/496 503/503/503 504/504/504
f 496/496/496 504/504/504 497/497/497
f 498/498/498 505/505/505 506/506/506
f 498/498/498 506/506/506 499/499/499
f 499/499/499 506/506/506 507/507/507
f 499/499/499 507/507/507 500/500/500
f 500/500/500 507/507/507 508/508/508
f 500/500/500 508/508/508 501/501/501
f 501/501/501 508/508/508 509/509/509
f 501/501/501 509/509/509 502/502/502
f 502/502/502 509/509/509 510/510/510
f 502/502/502 510/510/510 503/503/503
f 503/503/503 510/510/510 511/511/511
f 503/503/503 511/511/511 504/504/504
f 505/505/505 512/512/512 513/513/513
f 505/505/505 513/513/513 506/506/506
f 506/506/506 513/513/513 514/514/514
f 506/506/506 514/514/514 507/507/507
f 507/507/507 514/514/514 515/515/515
f 507/507/507 515/515/515 508/508/508
f 508/508/508 515/515/515 516/516/516
f 508/508/508 516/516/516 509/509/509
f 509/509/509 516/516/516 517/517/517
f 509/509/509 517/517/517 510/510/510
f 510/510/510 517/517/517 518/518/518
f 510/510/510 518/518/518 511/511/511
f 512/512/512 519/519/519 520/520/520
f 512/512/512 520/520/520 513/513/513
f 513/513/513 520/520/520 521/521/521
f 513/513/513 521/521/521 514/514/514
f 514/514/514 521/521/521 522/522/522
f 514/514/514 522/522/522 515/515/515
f 515/515/515 522/522/522 523/523/523
f 515/515/515 523/523/523 516/516/516
f 516/516/516 523/523/523 524/524/524
f 516/516/516 524/524/524 517/517/517
f 517/517/517 524/524/524 525/525/525
f 517/517/517 525/525/525 518/518/518
f 519/519/519 526/526/526 527/527/527
f 519/519/519 527/527/527 520/520/520
f 520/520/520 527/527/527 528/528/528
f 520/520/520 528/528/528 521/521/521
f 521/521/521 528/528/528 529/529/529
f 521/521/521 529/529/529 522/522/522
f 522/522/522 529/529/529 530/530/530
f 522/522/522 530/530/530 523/523/523
f 523/523/523 530/530/530 531/531/531
f 523/523/523 531/531/531 524/524/524
f 524/524/524 531/531/531 532/532/532
f 524/524/524 532/532/532 525/525/525
f 526/526/526 533/533/533 534/534/534
f 526/526/526 534/534/534 527/527/527
f 527/527/527 534/534/534 535/535/535
f 527/527/527 535/535/535 528/528/528
f 528/528/528 535/535/535 536/536/536
f 528/528/528 536/536/536 529/529/529
f 529/529/529 536/536/536 537/537/537
f 529/529/529 537/537/537 530/530/530
f 530/530/530 537/537/537 538/538/538
f 530/530/530 538/538/538 531/531/531
f 531/531/531 538/538/538 539/539/539
f 531/531/531 539/539/539 532/532/532
