# procedural asset
v 0.00000 0.00500 -0.16993
v 0.00500 0.34482 -0.15393
v 0.02000 0.68465 -0.13793
v 0.04500 1.02447 -0.12193
v 0.08000 1.36429 -0.10594
v 0.12500 1.70412 -0.08994
v 0.18000 2.04394 -0.07394
v 0.24500 2.38376 -0.05794
v 0.32000 2.72359 -0.04195
v 0.40500 3.06341 -0.02595
v 0.50000 3.40323 -0.00995
v 0.07376 0.00449 -0.15310
v 0.07613 0.34225 -0.13776
v 0.08844 0.68016 -0.12241
v 0.11070 1.01823 -0.10706
v 0.14291 1.35647 -0.09170
v 0.18510 1.69488 -0.07634
v 0.23726 2.03345 -0.06097
v 0.29940 2.37220 -0.04560
v 0.37153 2.71112 -0.03023
v 0.45366 3.05020 -0.01485
v 0.54579 3.38946 0.00054
v 0.13291 0.00310 -0.10595
v 0.13316 0.33924 -0.09232
v 0.14332 0.67565 -0.07868
v 0.16338 1.01235 -0.06504
v 0.19337 1.34935 -0.05138
v 0.23329 1.68665 -0.03772
v 0.28317 2.02427 -0.02405
v 0.34302 2.36218 -0.01037
v 0.41285 2.70041 0.00333
v 0.49268 3.03894 0.01702
v 0.58251 3.37778 0.03073
v 0.16574 0.00109 -0.03781
v 0.16482 0.33638 -0.02662
v 0.17377 0.67200 -0.01541
v 0.19262 1.00798 -0.00419
v 0.22137 1.34434 0.00704
v 0.26004 1.68107 0.01828
v 0.30865 2.01819 0.02953
v 0.36723 2.35569 0.04079
v 0.43578 2.69358 0.05206
v 0.51433 3.03184 0.06335
v 0.60289 3.37050 0.07464
v 0.16574 -0.00114 0.03781
v 0.16482 0.33423 0.04634
v 0.17377 0.66993 0.05488
v 0.19262 1.00599 0.06343
v 0.22137 1.34243 0.07199
v 0.26004 1.67924 0.08056
v 0.30865 2.01644 0.08914
v 0.36723 2.35402 0.09773
v 0.43578 2.69198 0.10634
v 0.51433 3.03033 0.11495
v 0.60289 3.36906 0.12358
v 0.13291 -0.00314 0.10595
v 0.13316 0.33323 0.11210
v 0.14332 0.66986 0.11826
v 0.16338 1.00678 0.12442
v 0.19337 1.34400 0.13060
v 0.23329 1.68152 0.13678
v 0.28317 2.01935 0.14298
v 0.34302 2.35749 0.14918
v 0.41285 2.69594 0.15539
v 0.49268 3.03469 0.16161
v 0.58251 3.37375 0.16784
v 0.07376 -0.00451 0.15310
v 0.07613 0.33357 0.15763
v 0.08844 0.67179 0.16217
v 0.11070 1.01018 0.16672
v 0.14291 1.34874 0.17127
v 0.18510 1.68746 0.17582
v 0.23726 2.02636 0.18038
v 0.29940 2.36542 0.18495
v 0.37153 2.70465 0.18951
v 0.45366 3.04406 0.19409
v 0.54579 3.38364 0.19867
v 0.00000 -0.00500 0.16993
v 0.00500 0.33518 0.17393
v 0.02000 0.67535 0.17793
v 0.04500 1.01553 0.18193
v 0.08000 1.35571 0.18594
v 0.12500 1.69588 0.18994
v 0.18000 2.03606 0.19394
v 0.24500 2.37624 0.19794
v 0.32000 2.71641 0.20195
v 0.40500 3.05659 0.20595
v 0.50000 3.39677 0.20995
v -0.07376 -0.00449 0.15310
v -0.06613 0.33775 0.15776
v -0.04844 0.67984 0.16241
v -0.02070 1.02177 0.16706
v 0.01709 1.36353 0.17170
v 0.06490 1.70512 0.17634
v 0.12274 2.04655 0.18097
v 0.19060 2.38780 0.18560
v 0.26847 2.72888 0.19023
v 0.35634 3.06980 0.19485
v 0.45421 3.41054 0.19946
v -0.13291 -0.00310 0.10595
v -0.12316 0.34076 0.11232
v -0.10332 0.68435 0.11868
v -0.07338 1.02765 0.12504
v -0.03337 1.37065 0.13138
v 0.01671 1.71335 0.13772
v 0.07683 2.05573 0.14405
v 0.14698 2.39782 0.15037
v 0.22715 2.73959 0.15667
v 0.31732 3.08106 0.16298
v 0.41749 3.42222 0.16927
v -0.16574 -0.00109 0.03781
v -0.15482 0.34362 0.04662
v -0.13377 0.68800 0.05541
v -0.10262 1.03202 0.06419
v -0.06137 1.37566 0.07296
v -0.01004 1.71893 0.08172
v 0.05135 2.06181 0.09047
v 0.12277 2.40431 0.09921
v 0.20422 2.74642 0.10794
v 0.29567 3.08816 0.11665
v 0.39711 3.42950 0.12536
v -0.16574 0.00114 -0.03781
v -0.15482 0.34577 -0.02634
v -0.13377 0.69007 -0.01488
v -0.10262 1.03401 -0.00343
v -0.06137 1.37757 0.00801
v -0.01004 1.72076 0.01944
v 0.05135 2.06356 0.03086
v 0.12277 2.40598 0.04227
v 0.20422 2.74802 0.05366
v 0.29567 3.08967 0.06505
v 0.39711 3.43094 0.07642
v -0.13291 0.00314 -0.10595
v -0.12316 0.34677 -0.09210
v -0.10332 0.69014 -0.07826
v -0.07338 1.03322 -0.06442
v -0.03337 1.37600 -0.05060
v 0.01671 1.71848 -0.03678
v 0.07683 2.06065 -0.02298
v 0.14698 2.40251 -0.00918
v 0.22715 2.74406 0.00461
v 0.31732 3.08531 0.01839
v 0.41749 3.42625 0.03216
v -0.07376 0.00451 -0.15310
v -0.06613 0.34643 -0.13763
v -0.04844 0.68821 -0.12217
v -0.02070 1.02982 -0.10672
v 0.01709 1.37126 -0.09127
v 0.06490 1.71254 -0.07582
v 0.12274 2.05364 -0.06038
v 0.19060 2.39458 -0.04495
v 0.26847 2.73535 -0.02951
v 0.35634 3.07594 -0.01409
v 0.45421 3.41636 0.00133
v -0.00000 0.00500 -0.16993
v 0.00500 0.34482 -0.15393
v 0.02000 0.68465 -0.13793
v 0.04500 1.02447 -0.12193
v 0.08000 1.36429 -0.10594
v 0.12500 1.70412 -0.08994
v 0.18000 2.04394 -0.07394
v 0.24500 2.38376 -0.05794
v 0.32000 2.72359 -0.04195
v 0.40500 3.06341 -0.02595
v 0.50000 3.40323 -0.00995
vt 0.00000 0.00000
vt 0.00000 0.10000
vt 0.00000 0.20000
vt 0.00000 0.30000
vt 0.00000 0.40000
vt 0.00000 0.50000
vt 0.00000 0.60000
vt 0.00000 0.70000
vt 0.00000 0.80000
vt 0.00000 0.90000
vt 0.00000 1.00000
vt 0.07143 0.00000
vt 0.07143 0.10000
vt 0.07143 0.20000
vt 0.07143 0.30000
vt 0.07143 0.40000
vt 0.07143 0.50000
vt 0.07143 0.60000
vt 0.07143 0.70000
vt 0.07143 0.80000
vt 0.07143 0.90000
vt 0.07143 1.00000
vt 0.14286 0.00000
vt 0.14286 0.10000
vt 0.14286 0.20000
vt 0.14286 0.30000
vt 0.14286 0.40000
vt 0.14286 0.50000
vt 0.14286 0.60000
vt 0.14286 0.70000
vt 0.14286 0.80000
vt 0.14286 0.90000
vt 0.14286 1.00000
vt 0.21429 0.00000
vt 0.21429 0.10000
vt 0.21429 0.20000
vt 0.21429 0.30000
vt 0.21429 0.40000
vt 0.21429 0.50000
vt 0.21429 0.60000
vt 0.21429 0.70000
vt 0.21429 0.80000
vt 0.21429 0.90000
vt 0.21429 1.00000
vt 0.28571 0.00000
vt 0.28571 0.10000
vt 0.28571 0.20000
vt 0.28571 0.30000
vt 0.28571 0.40000
vt 0.28571 0.50000
vt 0.28571 0.60000
vt 0.28571 0.70000
vt 0.28571 0.80000
vt 0.28571 0.90000
vt 0.28571 1.00000
vt 0.35714 0.00000
vt 0.35714 0.10000
vt 0.35714 0.20000
vt 0.35714 0.30000
vt 0.35714 0.40000
vt 0.35714 0.50000
vt 0.35714 0.60000
vt 0.35714 0.70000
vt 0.35714 0.80000
vt 0.35714 0.90000
vt 0.35714 1.00000
vt 0.42857 0.00000
vt 0.42857 0.10000
vt 0.42857 0.20000
vt 0.42857 0.30000
vt 0.42857 0.40000
vt 0.42857 0.50000
vt 0.42857 0.60000
vt 0.42857 0.70000
vt 0.42857 0.80000
vt 0.42857 0.90000
vt 0.42857 1.00000
vt 0.50000 0.00000
vt 0.50000 0.10000
vt 0.50000 0.20000
vt 0.50000 0.30000
vt 0.50000 0.40000
vt 0.50000 0.50000
vt 0.50000 0.60000
vt 0.50000 0.70000
vt 0.50000 0.80000
vt 0.50000 0.90000
vt 0.50000 1.00000
vt 0.57143 0.00000
vt 0.57143 0.10000
vt 0.57143 0.20000
vt 0.57143 0.30000
vt 0.57143 0.40000
vt 0.57143 0.50000
vt 0.57143 0.60000
vt 0.57143 0.70000
vt 0.57143 0.80000
vt 0.57143 0.90000
vt 0.57143 1.00000
vt 0.64286 0.00000
vt 0.64286 0.10000
vt 0.64286 0.20000
vt 0.64286 0.30000
vt 0.64286 0.40000
vt 0.64286 0.50000
vt 0.64286 0.60000
vt 0.64286 0.70000
vt 0.64286 0.80000
vt 0.64286 0.90000
vt 0.64286 1.00000
vt 0.71429 0.00000
vt 0.71429 0.10000
vt 0.71429 0.20000
vt 0.71429 0.30000
vt 0.71429 0.40000
vt 0.71429 0.50000
vt 0.71429 0.60000
vt 0.71429 0.70000
vt 0.71429 0.80000
vt 0.71429 0.90000
vt 0.71429 1.00000
vt 0.78571 0.00000
vt 0.78571 0.10000
vt 0.78571 0.20000
vt 0.78571 0.30000
vt 0.78571 0.40000
vt 0.78571 0.50000
vt 0.78571 0.60000
vt 0.78571 0.70000
vt 0.78571 0.80000
vt 0.78571 0.90000
vt 0.78571 1.00000
vt 0.85714 0.00000
vt 0.85714 0.10000
vt 0.85714 0.20000
vt 0.85714 0.30000
vt 0.85714 0.40000
vt 0.85714 0.50000
vt 0.85714 0.60000
vt 0.85714 0.70000
vt 0.85714 0.80000
vt 0.85714 0.90000
vt 0.85714 1.00000
vt 0.92857 0.00000
vt 0.92857 0.10000
vt 0.92857 0.20000
vt 0.92857 0.30000
vt 0.92857 0.40000
vt 0.92857 0.50000
vt 0.92857 0.60000
vt 0.92857 0.70000
vt 0.92857 0.80000
vt 0.92857 0.90000
vt 0.92857 1.00000
vt 1.00000 0.00000
vt 1.00000 0.10000
vt 1.00000 0.20000
vt 1.00000 0.30000
vt 1.00000 0.40000
vt 1.00000 0.50000
vt 1.00000 0.60000
vt 1.00000 0.70000
vt 1.00000 0.80000
vt 1.00000 0.90000
vt 1.00000 1.00000
vn -0.00314 -0.04702 0.99889
vn -0.00366 -0.04692 0.99889
vn -0.00417 -0.04678 0.99890
vn -0.00467 -0.04661 0.99890
vn -0.00517 -0.04642 0.99891
vn -0.00565 -0.04619 0.99892
vn -0.00611 -0.04595 0.99893
vn -0.00656 -0.04567 0.99893
vn -0.00699 -0.04538 0.99895
vn -0.00740 -0.04507 0.99896
vn -0.00778 -0.04474 0.99897
vn -0.43382 -0.04411 0.89992
vn -0.43415 -0.03146 0.90029
vn -0.43411 -0.01870 0.90067
vn -0.43369 -0.00598 0.90104
vn -0.43290 0.00668 0.90142
vn -0.43176 0.01924 0.90179
vn -0.43025 0.03166 0.90215
vn -0.42841 0.04393 0.90251
vn -0.42624 0.05602 0.90287
vn -0.42377 0.06789 0.90322
vn -0.42100 0.07951 0.90357
vn -0.78171 -0.03594 0.62260
vn -0.78189 -0.01318 0.62327
vn -0.78140 0.00978 0.62395
vn -0.78024 0.03265 0.62462
vn -0.77843 0.05537 0.62529
vn -0.77596 0.07789 0.62595
vn -0.77287 0.10016 0.62661
vn -0.76918 0.12212 0.62726
vn -0.76491 0.14373 0.62789
vn -0.76010 0.16495 0.62852
vn -0.75480 0.18568 0.62913
vn -0.97478 -0.02415 0.22187
vn -0.97488 0.00423 0.22271
vn -0.97414 0.03285 0.22355
vn -0.97257 0.06134 0.22439
vn -0.97017 0.08965 0.22522
vn -0.96698 0.11771 0.22604
vn -0.96301 0.14543 0.22686
vn -0.95829 0.17277 0.22766
vn -0.95286 0.19967 0.22846
vn -0.94676 0.22607 0.22923
vn -0.94004 0.25186 0.22999
vn -0.97478 -0.01107 -0.22291
vn -0.97488 0.01731 -0.22207
vn -0.97414 0.04593 -0.22123
vn -0.97257 0.07443 -0.22039
vn -0.97017 0.10274 -0.21956
vn -0.96698 0.13079 -0.21874
vn -0.96301 0.15852 -0.21792
vn -0.95829 0.18586 -0.21712
vn -0.95286 0.21275 -0.21633
vn -0.94676 0.23915 -0.21555
vn -0.94004 0.26494 -0.21479
vn -0.78171 0.00071 -0.62364
vn -0.78189 0.02348 -0.62297
vn -0.78140 0.04643 -0.62229
vn -0.78024 0.06930 -0.62162
vn -0.77843 0.09203 -0.62096
vn -0.77596 0.11455 -0.62029
vn -0.77287 0.13682 -0.61964
vn -0.76918 0.15878 -0.61899
vn -0.76491 0.18039 -0.61836
vn -0.76010 0.20160 -0.61774
vn -0.75480 0.22234 -0.61713
vn -0.43382 0.00886 -0.90096
vn -0.43415 0.02150 -0.90058
vn -0.43411 0.03426 -0.90021
vn -0.43369 0.04699 -0.89984
vn -0.43290 0.05965 -0.89946
vn -0.43176 0.07220 -0.89910
vn -0.43025 0.08463 -0.89873
vn -0.42841 0.09690 -0.89837
vn -0.42624 0.10899 -0.89802
vn -0.42377 0.12086 -0.89767
vn -0.42100 0.13248 -0.89733
vn -0.00000 0.01177 -0.99993
vn -0.00052 0.01178 -0.99993
vn -0.00103 0.01183 -0.99993
vn -0.00154 0.01190 -0.99993
vn -0.00205 0.01201 -0.99993
vn -0.00254 0.01214 -0.99992
vn -0.00302 0.01230 -0.99992
vn -0.00348 0.01248 -0.99992
vn -0.00393 0.01269 -0.99991
vn -0.00436 0.01292 -0.99991
vn -0.00477 0.01317 -0.99990
vn 0.43381 0.00885 -0.90096
vn 0.43311 -0.00377 -0.90133
vn 0.43204 -0.01643 -0.90170
vn 0.43061 -0.02901 -0.90207
vn 0.42881 -0.04146 -0.90244
vn 0.42668 -0.05375 -0.90280
vn 0.42422 -0.06586 -0.90316
vn 0.42145 -0.07776 -0.90351
vn 0.41838 -0.08943 -0.90386
vn 0.41504 -0.10085 -0.90419
vn 0.41146 -0.11197 -0.90452
vn 0.78171 0.00068 -0.62364
vn 0.78086 -0.02206 -0.62431
vn 0.77934 -0.04492 -0.62499
vn 0.77716 -0.06764 -0.62565
vn 0.77434 -0.09015 -0.62632
vn 0.77089 -0.11241 -0.62697
vn 0.76684 -0.13436 -0.62762
vn 0.76222 -0.15595 -0.62825
vn 0.75705 -0.17715 -0.62888
vn 0.75138 -0.19790 -0.62949
vn 0.74526 -0.21814 -0.63009
vn 0.97478 -0.01111 -0.22291
vn 0.97385 -0.03947 -0.22374
vn 0.97208 -0.06799 -0.22458
vn 0.96949 -0.09634 -0.22542
vn 0.96609 -0.12444 -0.22624
vn 0.96191 -0.15222 -0.22706
vn 0.95698 -0.17963 -0.22787
vn 0.95133 -0.20660 -0.22866
vn 0.94500 -0.23308 -0.22944
vn 0.93804 -0.25902 -0.23020
vn 0.93050 -0.28432 -0.23095
vn 0.97478 -0.02419 0.22187
vn 0.97385 -0.05255 0.22104
vn 0.97208 -0.08107 0.22020
vn 0.96949 -0.10942 0.21937
vn 0.96609 -0.13752 0.21854
vn 0.96191 -0.16531 0.21772
vn 0.95698 -0.19271 0.21692
vn 0.95133 -0.21969 0.21612
vn 0.94500 -0.24617 0.21534
vn 0.93804 -0.27211 0.21458
vn 0.93050 -0.29740 0.21384
vn 0.78171 -0.03597 0.62261
vn 0.78086 -0.05871 0.62194
vn 0.77934 -0.08158 0.62127
vn 0.77716 -0.10429 0.62060
vn 0.77434 -0.12681 0.61994
vn 0.77089 -0.14906 0.61928
vn 0.76684 -0.17101 0.61864
vn 0.76222 -0.19261 0.61800
vn 0.75705 -0.21380 0.61738
vn 0.75138 -0.23456 0.61677
vn 0.74526 -0.25479 0.61618
vn 0.43381 -0.04412 0.89992
vn 0.43311 -0.05673 0.89955
vn 0.43204 -0.06940 0.89918
vn 0.43061 -0.08198 0.89881
vn 0.42881 -0.09442 0.89844
vn 0.42668 -0.10672 0.89808
vn 0.42422 -0.11883 0.89773
vn 0.42145 -0.13073 0.89738
vn 0.41838 -0.14240 0.89704
vn 0.41504 -0.15381 0.89670
vn 0.41146 -0.16493 0.89638
vn 0.00314 -0.04702 0.99889
vn 0.00262 -0.04710 0.99889
vn 0.00210 -0.04715 0.99889
vn 0.00159 -0.04716 0.99889
vn 0.00107 -0.04715 0.99889
vn 0.00057 -0.04711 0.99889
vn 0.00008 -0.04704 0.99889
vn -0.00041 -0.04694 0.99890
vn -0.00087 -0.04682 0.99890
vn -0.00132 -0.04667 0.99891
vn -0.00176 -0.04651 0.99892
f 1/1/1 12/12/12 13/13/13
f 1/1/1 13/13/13 2/2/2
f 2/2/2 13/13/13 14/14/14
f 2/2/2 14/14/14 3/3/3
f 3/3/3 14/14/14 15/15/15
f 3/3/3 15/15/15 4/4/4
f 4/4/4 15/15/15 16/16/16
f 4/4/4 16/16/16 5/5/5
f 5/5/5 16/16/16 17/17/17
f 5/5/5 17/17/17 6/6/6
f 6/6/6 17/17/17 18/18/18
f 6/6/6 18/18/18 7/7/7
f 7/7/7 18/18/18 19/19/19
f 7/7/7 19/19/19 8/8/8
f 8/8/8 19/19/19 20/20/20
f 8/8/8 20/20/20 9/9/9
f 9/9/9 20/20/20 21/21/21
f 9/9/9 21/21/21 10/10/10
f 10/10/10 21/21/21 22/22/22
f 10/10/10 22/22/22 11/11/11
f 12/12/12 23/23/23 24/24/24
f 12/12/12 24/24/24 13/13/13
f 13/13/13 24/24/24 25/25/25
f 13/13/13 25/25/25 14/14/14
f 14/14/14 25/25/25 26/26/26
f 14/14/14 26/26/26 15/15/15
f 15/15/15 26/26/26 27/27/27
f 15/15/15 27/27/27 16/16/16
f 16/16/16 27/27/27 28/28/28
f 16/16/16 28/28/28 17/17/17
f 17/17/17 28/28/28 29/29/29
f 17/17/17 29/29/29 18/18/18
f 18/18/18 29/29/29 30/30/30
f 18/18/18 30/30/30 19/19/19
f 19/19/19 30/30/30 31/31/31
f 19/19/19 31/31/31 20/20/20
f 20/20/20 31/31/31 32/32/32
f 20/20/20 32/32/32 21/21/21
f 21/21/21 32/32/32 33/33/33
f 21/21/21 33/33/33 22/22/22
f 23/23/23 34/34/34 35/35/35
f 23/23/23 35/35/35 24/24/24
f 24/24/24 35/35/35 36/36/36
f 24/24/24 36/36/36 25/25/25
f 25/25/25 36/36/36 37/37/37
f 25/25/25 37/37/37 26/26/26
f 26/26/26 37/37/37 38/38/38
f 26/26/26 38/38/38 27/27/27
f 27/27/27 38/38/38 39/39/39
f 27/27/27 39/39/39 28/28/28
f 28/28/28 39/39/39 40/40/40
f 28/28/28 40/40/40 29/29/29
f 29/29/29 40/40/40 41/41/41
f 29/29/29 41/41/41 30/30/30
f 30/30/30 41/41/41 42/42/42
f 30/30/30 42/42/42 31/31/31
f 31/31/31 42/42/42 43/43/43
f 31/31/31 43/43/43 32/32/32
f 32/32/32 43/43/43 44/44/44
f 32/32/32 44/44/44 33/33/33
f 34/34/34 45/45/45 46/46/46
f 34/34/34 46/46/46 35/35/35
f 35/35/35 46/46/46 47/47/47
f 35/35/35 47/47/47 36/36/36
f 36/36/36 47/47/47 48/48/48
f 36/36/36 48/48/48 37/37/37
f 37/37/37 48/48/48 49/49/49
f 37/37/37 49/49/49 38/38/38
f 38/38/38 49/49/49 50/50/50
f 38/38/38 50/50/50 39/39/39
f 39/39/39 50/50/50 51/51/51
f 39/39/39 51/51/51 40/40/40
f 40/40/40 51/51/51 52/52/52
f 40/40/40 52/52/52 41/41/41
f 41/41/41 52/52/52 53/53/53
f 41/41/41 53/53/53 42/42/42
f 42/42/42 53/53/53 54/54/54
f 42/42/42 54/54/54 43/43/43
f 43/43/43 54/54/54 55/55/55
f 43/43/43 55/55/55 44/44/44
f 45/45/45 56/56/56 57/57/57
f 45/45/45 57/57/57 46/46/46
f 46/46/46 57/57/57 58/58/58
f 46/46/46 58/58/58 47/47/47
f 47/47/47 58/58/58 59/59/59
f 47/47/47 59/59/59 48/48/48
f 48/48/48 59/59/59 60/60/60
f 48/48/48 60/60/60 49/49/49
f 49/49/49 60/60/60 61/61/61
f 49/49/49 61/61/61 50/50/50
f 50/50/50 61/61/61 62/62/62
f 50/50/50 62/62/62 51/51/51
f 51/51/51 62/62/62 63/63/63
f 51/51/51 63/63/63 52/52/52
f 52/52/52 63/63/63 64/64/64
f 52/52/52 64/64/64 53/53/53
f 53/53/53 64/64/64 65/65/65
f 53/53/53 65/65/65 54/54/54
f 54/54/54 65/65/65 66/66/66
f 54/54/54 66/66/66 55/55/55
f 56/56/56 67/67/67 68/68/68
f 56/56/56 68/68/68 57/57/57
f 57/57/57 68/68/68 69/69/69
f 57/57/57 69/69/69 58/58/58
f 58/58/58 69/69/69 70/70/70
f 58/58/58 70/70/70 59/59/59
f 59/59/59 70/70/70 71/71/71
f 59/59/59 71/71/71 60/60/60
f 60/60/60 71/71/71 72/72/72
f 60/60/60 72/72/72 61/61/61
f 61/61/61 72/72/72 73/73/73
f 61/61/61 73/73/73 62/62/62
f 62/62/62 73/73/73 74/74/74
f 62/62/62 74/74/74 63/63/63
f 63/63/63 74/74/74 75/75/75
f 63/63/63 75/75/75 64/64/64
f 64/64/64 75/75/75 76/76/76
f 64/64/64 76/76/76 65/65/65
f 65/65/65 76/76/76 77/77/77
f 65/65/65 77/77/77 66/66/66
f 67/67/67 78/78/78 79/79/79
f 67/67/67 79/79/79 68/68/68
f 68/68/68 79/79/79 80/80/80
f 68/68/68 80/80/80 69/69/69
f 69/69/69 80/80/80 81/81/81
f 69/69/69 81/81/81 70/70/70
f 70/70/70 81/81/81 82/82/82
f 70/70/70 82/82/82 71/71/71
f 71/71/71 82/82/82 83/83/83
f 71/71/71 83/83/83 72/72/72
f 72/72/72 83/83/83 84/84/84
f 72/72/72 84/84/84 73/73/73
f 73/73/73 84/84/84 85/85/85
f 73/73/73 85/85/85 74/74/74
f 74/74/74 85/85/85 86/86/86
f 74/74/74 86/86/86 75/75/75
f 75/75/75 86/86/86 87/87/87
f 75/75/75 87/87/87 76/76/76
f 76/76/76 87/87/87 88/88/88
f 76/76/76 88/88/88 77/77/77
f 78/78/78 89/89/89 90/90/90
f 78/78/78 90/90/90 79/79/79
f 79/79/79 90/90/90 91/91/91
f 79/79/79 91/91/91 80/80/80
f 80/80/80 91/91/91 92/92/92
f 80/80/80 92/92/92 81/81/81
f 81/81/81 92/92/92 93/93/93
f 81/81/81 93/93/93 82/82/82
f 82/82/82 93/93/93 94/94/94
f 82/82/82 94/94/94 83/83/83
f 83/83/83 94/94/94 95/95/95
f 83/83/83 95/95/95 84/84/84
f 84/84/84 95/95/95 96/96/96
f 84/84/84 96/96/96 85/85/85
f 85/85/85 96/96/96 97/97/97
f 85/85/85 97/97/97 86/86/86
f 86/86/86 97/97/97 98/98/98
f 86/86/86 98/98/98 87/87/87
f 87/87/87 98/98/98 99/99/99
f 87/87/87 99/99/99 88/88/88
f 89/89/89 100/100/100 101/101/101
f 89/89/89 101/101/101 90/90/90
f 90/90/90 101/101/101 102/102/102
f 90/90/90 102/102/102 91/91/91
f 91/91/91 102/102/102 103/103/103
f 91/91/91 103/103/103 92/92/92
f 92/92/92 103/103/103 104/104/104
f 92/92/92 104/104/104 93/93/93
f 93/93/93 104/104/104 105/105/105
f 93/93/93 105/105/105 94/94/94
f 94/94/94 105/105/105 106/106/106
f 94/94/94 106/106/106 95/95/95
f 95/95/95 106/106/106 107/107/107
f 95/95/95 107/107/107 96/96/96
f 96/96/96 107/107/107 108/108/108
f 96/96/96 108/108/108 97/97/97
f 97/97/97 108/108/108 109/109/109
f 97/97/97 109/109/109 98/98/98
f 98/98/98 109/109/109 110/110/110
f 98/98/98 110/110/110 99/99/99
f 100/100/100 111/111/111 112/112/112
f 100/100/100 112/112/112 101/101/101
f 101/101/101 112/112/112 113/113/113
f 101/101/101 113/113/113 102/102/102
f 102/102/102 113/113/113 114/114/114
f 102/102/102 114/114/114 103/103/103
f 103/103/103 114/114/114 115/115/115
f 103/103/103 115/115/115 104/104/104
f 104/104/104 115/115/115 116/116/116
f 104/104/104 116/116/116 105/105/105
f 105/105/105 116/116/116 117/117/117
f 105/105/105 117/117/117 106/106/106
f 106/106/106 117/117/117 118/118/118
f 106/106/106 118/118/118 107/107/107
f 107/107/107 118/118/118 119/119/119
f 107/107/107 119/119/119 108/108/108
f 108/108/108 119/119/119 120/120/120
f 108/108/108 120/120/120 109/109/109
f 109/109/109 120/120/120 121/121/121
f 109/109/109 121/121/121 110/110/110
f 111/111/111 122/122/122 123/123/123
f 111/111/111 123/123/123 112/112/112
f 112/112/112 123/123/123 124/124/124
f 112/112/112 124/124/124 113/113/113
f 113/113/113 124/124/124 125/125/125
f 113/113/113 125/125/125 114/114/114
f 114/114/114 125/125/125 126/126/126
f 114/114/114 126/126/126 115/115/115
f 115/115/115 126/126/126 127/127/127
f 115/115/115 127/127/127 116/116/116
f 116/116/116 127/127/127 128/128/128
f 116/116/116 128/128/128 117/117/117
f 117/117/117 128/128/128 129/129/129
f 117/117/117 129/129/129 118/118/118
f 118/118/118 129/129/129 130/130/130
f 118/118/118 130/130/130 119/119/119
f 119/119/119 130/130/130 131/131/131
f 119/119/119 131/131/131 120/120/120
f 120/120/120 131/131/131 132/132/132
f 120/120/120 132/132/132 121/121/121
f 122/122/122 133/133/133 134/134/134
f 122/122/122 134/134/134 123/123/123
f 123/123/123 134/134/134 135/135/135
f 123/123/123 135/135/135 124/124/124
f 124/124/124 135/135/135 136/136/136
f 124/124/124 136/136/136 125/125/125
f 125/125/125 136/136/136 137/137/137
f 125/125/125 137/137/137 126/126/126
f 126/126/126 137/137/137 138/138/138
f 126/126/126 138/138/138 127/127/127
f 127/127/127 138/138/138 139/139/139
f 127/127/127 139/139/139 128/128/128
f 128/128/128 139/139/139 140/140/140
f 128/128/128 140/140/140 129/129/129
f 129/129/129 140/140/140 141/141/141
f 129/129/129 141/141/141 130/130/130
f 130/130/130 141/141/141 142/142/142
f 130/130/130 142/142/142 131/131/131
f 131/131/131 142/142/142 143/143/143
f 131/131/131 143/143/143 132/132/132
f 133/133/133 144/144/144 145/145/145
f 133/133/133 145/145/145 134/134/134
f 134/134/134 145/145/145 146/146/146
f 134/134/134 146/146/146 135/135/135
f 135/135/135 146/146/146 147/147/147
f 135/135/135 147/147/147 136/136/136
f 136/136/136 147/147/147 148/148/148
f 136/136/136 148/148/148 137/137/137
f 137/137/137 148/148/148 149/149/149
f 137/137/137 149/149/149 138/138/138
f 138/138/138 149/149/149 150/150/150
f 138/138/138 150/150/150 139/139/139
f 139/139/139 150/150/150 151/151/151
f 139/139/139 151/151/151 140/140/140
f 140/140/140 151/151/151 152/152/152
f 140/140/140 152/152/152 141/141/141
f 141/141/141 152/152/152 153/153/153
f 141/141/141 153/153/153 142/142/142
f 142/142/142 153/153/153 154/154/154
f 142/142/142 154/154/154 143/143/143
f 144/144/144 155/155/155 156/156/156
f 144/144/144 156/156/156 145/145/145
f 145/145/145 156/156/156 157/157/157
f 145/145/145 157/157/157 146/146/146
f 146/146/146 157/157/157 158/158/158
f 146/146/146 158/158/158 147/147/147
f 147/147/147 158/158/158 159/159/159
f 147/147/147 159/159/159 148/148/148
f 148/148/148 159/159/159 160/160/160
f 148/148/148 160/160/160 149/149/149
f 149/149/149 160/160/160 161/161/161
f 149/149/149 161/161/161 150/150/150
f 150/150/150 161/161/161 162/162/162
f 150/150/150 162/162/162 151/151/151
f 151/151/151 162/162/162 163/163/163
f 151/151/151 163/163/163 152/152/152
f 152/152/152 163/163/163 164/164/164
f 152/152/152 164/164/164 153/153/153
f 153/153/153 164/164/164 165/165/165
f 153/153/153 165/165/165 154/154/154
