# procedural asset
v 0.00000 1.52000 0.10000
v 0.05006 1.51557 0.10000
v 0.09889 1.50238 0.10000
v 0.14528 1.48076 0.10000
v 0.18809 1.45125 0.10000
v 0.22627 1.41456 0.10000
v 0.25889 1.37160 0.10000
v 0.28512 1.32344 0.10000
v 0.30434 1.27125 0.10000
v 0.31606 1.21632 0.10000
v 0.32000 1.16000 0.10000
v 0.31606 1.10368 0.10000
v 0.30434 1.04875 0.10000
v 0.28512 0.99656 0.10000
v 0.25889 0.94840 0.10000
v 0.22627 0.90544 0.10000
v 0.18809 0.86875 0.10000
v 0.14528 0.83924 0.10000
v 0.09889 0.81762 0.10000
v 0.05006 0.80443 0.10000
v 0.00000 0.80000 0.10000
v 0.00000 1.52000 0.10000
v 0.04855 1.51557 0.11366
v 0.09511 1.50238 0.12698
v 0.13861 1.48076 0.13964
v 0.17814 1.45125 0.15133
v 0.21287 1.41456 0.16175
v 0.24215 1.37160 0.17065
v 0.26546 1.32344 0.17781
v 0.28238 1.27125 0.18305
v 0.29265 1.21632 0.18625
v 0.29609 1.16000 0.18732
v 0.29265 1.10368 0.18625
v 0.28238 1.04875 0.18305
v 0.26546 0.99656 0.17781
v 0.24215 0.94840 0.17065
v 0.21287 0.90544 0.16175
v 0.17814 0.86875 0.15133
v 0.13861 0.83924 0.13964
v 0.09511 0.81762 0.12698
v 0.04855 0.80443 0.11366
v 0.00000 0.80000 0.10000
v 0.00000 1.52000 0.10000
v 0.04497 1.51557 0.12672
v 0.08738 1.50238 0.15279
v 0.12635 1.48076 0.17755
v 0.16115 1.45125 0.20041
v 0.19125 1.41456 0.22079
v 0.21627 1.37160 0.23820
v 0.23593 1.32344 0.25221
v 0.25006 1.27125 0.26247
v 0.25858 1.21632 0.26873
v 0.26142 1.16000 0.27083
v 0.25858 1.10368 0.26873
v 0.25006 1.04875 0.26247
v 0.23593 0.99656 0.25221
v 0.21627 0.94840 0.23820
v 0.19125 0.90544 0.22079
v 0.16115 0.86875 0.20041
v 0.12635 0.83924 0.17755
v 0.08738 0.81762 0.15279
v 0.04497 0.80443 0.12672
v 0.00000 0.80000 0.10000
v 0.00000 1.52000 0.10000
v 0.03953 1.51557 0.13862
v 0.07622 1.50238 0.17629
v 0.10938 1.48076 0.21208
v 0.13850 1.45125 0.24511
v 0.16328 1.41456 0.27456
v 0.18355 1.37160 0.29972
v 0.19926 1.32344 0.31996
v 0.21043 1.27125 0.33479
v 0.21710 1.21632 0.34383
v 0.21932 1.16000 0.34687
v 0.21710 1.10368 0.34383
v 0.21043 1.04875 0.33479
v 0.19926 0.99656 0.31996
v 0.18355 0.94840 0.29972
v 0.16328 0.90544 0.27456
v 0.13850 0.86875 0.24511
v 0.10938 0.83924 0.21208
v 0.07622 0.81762 0.17629
v 0.03953 0.80443 0.13862
v 0.00000 0.80000 0.10000
v 0.00000 1.52000 0.10000
v 0.03248 1.51557 0.14883
v 0.06222 1.50238 0.19645
v 0.08868 1.48076 0.24170
v 0.11156 1.45125 0.28346
v 0.13072 1.41456 0.32070
v 0.14615 1.37160 0.35251
v 0.15794 1.32344 0.37810
v 0.16622 1.27125 0.39684
v 0.17113 1.21632 0.40828
v 0.17275 1.16000 0.41212
v 0.17113 1.10368 0.40828
v 0.16622 1.04875 0.39684
v 0.15794 0.99656 0.37810
v 0.14615 0.94840 0.35251
v 0.13072 0.90544 0.32070
v 0.11156 0.86875 0.28346
v 0.08868 0.83924 0.24170
v 0.06222 0.81762 0.19645
v 0.03248 0.80443 0.14883
v 0.00000 0.80000 0.10000
v 0.00000 1.52000 0.10000
v 0.02415 1.51557 0.15690
v 0.04600 1.50238 0.21240
v 0.06521 1.48076 0.26513
v 0.08160 1.45125 0.31380
v 0.09512 1.41456 0.35720
v 0.10586 1.37160 0.39426
v 0.11396 1.32344 0.42409
v 0.11958 1.27125 0.44593
v 0.12289 1.21632 0.45925
v 0.12397 1.16000 0.46373
v 0.12289 1.10368 0.45925
v 0.11958 1.04875 0.44593
v 0.11396 0.99656 0.42409
v 0.10586 0.94840 0.39426
v 0.09512 0.90544 0.35720
v 0.08160 0.86875 0.31380
v 0.06521 0.83924 0.26513
v 0.04600 0.81762 0.21240
v 0.02415 0.80443 0.15690
v 0.00000 0.80000 0.10000
v 0.00000 1.52000 0.10000
v 0.01487 1.51557 0.16249
v 0.02822 1.50238 0.22343
v 0.03985 1.48076 0.28134
v 0.04968 1.45125 0.33479
v 0.05770 1.41456 0.38245
v 0.06400 1.37160 0.42316
v 0.06870 1.32344 0.45591
v 0.07193 1.27125 0.47989
v 0.07381 1.21632 0.49453
v 0.07443 1.16000 0.49944
v 0.07381 1.10368 0.49453
v 0.07193 1.04875 0.47989
v 0.06870 0.99656 0.45591
v 0.06400 0.94840 0.42316
v 0.05770 0.90544 0.38245
v 0.04968 0.86875 0.33479
v 0.03985 0.83924 0.28134
v 0.02822 0.81762 0.22343
v 0.01487 0.80443 0.16249
v 0.00000 0.80000 0.10000
v 0.00000 1.52000 0.10000
v 0.00502 1.51557 0.16534
v 0.00951 1.50238 0.22908
v 0.01340 1.48076 0.28963
v 0.01667 1.45125 0.34552
v 0.01933 1.41456 0.39536
v 0.02140 1.37160 0.43793
v 0.02294 1.32344 0.47217
v 0.02399 1.27125 0.49726
v 0.02460 1.21632 0.51256
v 0.02480 1.16000 0.51770
v 0.02460 1.10368 0.51256
v 0.02399 1.04875 0.49726
v 0.02294 0.99656 0.47217
v 0.02140 0.94840 0.43793
v 0.01933 0.90544 0.39536
v 0.01667 0.86875 0.34552
v 0.01340 0.83924 0.28963
v 0.00951 0.81762 0.22908
v 0.00502 0.80443 0.16534
v 0.00000 0.80000 0.10000
v 0.00000 1.52000 0.10000
v -0.00502 1.51557 0.16534
v -0.00951 1.50238 0.22908
v -0.01340 1.48076 0.28963
v -0.01667 1.45125 0.34552
v -0.01933 1.41456 0.39536
v -0.02140 1.37160 0.43793
v -0.02294 1.32344 0.47217
v -0.02399 1.27125 0.49726
v -0.02460 1.21632 0.51256
v -0.02480 1.16000 0.51770
v -0.02460 1.10368 0.51256
v -0.02399 1.04875 0.49726
v -0.02294 0.99656 0.47217
v -0.02140 0.94840 0.43793
v -0.01933 0.90544 0.39536
v -0.01667 0.86875 0.34552
v -0.01340 0.83924 0.28963
v -0.00951 0.81762 0.22908
v -0.00502 0.80443 0.16534
v -0.00000 0.80000 0.10000
v 0.00000 1.52000 0.10000
v -0.01487 1.51557 0.16249
v -0.02822 1.50238 0.22343
v -0.03985 1.48076 0.28134
v -0.04968 1.45125 0.33479
v -0.05770 1.41456 0.38245
v -0.06400 1.37160 0.42316
v -0.06870 1.32344 0.45591
v -0.07193 1.27125 0.47989
v -0.07381 1.21632 0.49453
v -0.07443 1.16000 0.49944
v -0.07381 1.10368 0.49453
v -0.07193 1.04875 0.47989
v -0.06870 0.99656 0.45591
v -0.06400 0.94840 0.42316
v -0.05770 0.90544 0.38245
v -0.04968 0.86875 0.33479
v -0.03985 0.83924 0.28134
v -0.02822 0.81762 0.22343
v -0.01487 0.80443 0.16249
v -0.00000 0.80000 0.10000
v 0.00000 1.52000 0.10000
v -0.02415 1.51557 0.15690
v -0.04600 1.50238 0.21240
v -0.06521 1.48076 0.26513
v -0.08160 1.45125 0.31380
v -0.09512 1.41456 0.35720
v -0.10586 1.37160 0.39426
v -0.11396 1.32344 0.42409
v -0.11958 1.27125 0.44593
v -0.12289 1.21632 0.45925
v -0.12397 1.16000 0.46373
v -0.12289 1.10368 0.45925
v -0.11958 1.04875 0.44593
v -0.11396 0.99656 0.42409
v -0.10586 0.94840 0.39426
v -0.09512 0.90544 0.35720
v -0.08160 0.86875 0.31380
v -0.06521 0.83924 0.26513
v -0.04600 0.81762 0.21240
v -0.02415 0.80443 0.15690
v -0.00000 0.80000 0.10000
v 0.00000 1.52000 0.10000
v -0.03248 1.51557 0.14883
v -0.06222 1.50238 0.19645
v -0.08868 1.48076 0.24170
v -0.11156 1.45125 0.28346
v -0.13072 1.41456 0.32070
v -0.14615 1.37160 0.35251
v -0.15794 1.32344 0.37810
v -0.16622 1.27125 0.39684
v -0.17113 1.21632 0.40828
v -0.17275 1.16000 0.41212
v -0.17113 1.10368 0.40828
v -0.16622 1.04875 0.39684
v -0.15794 0.99656 0.37810
v -0.14615 0.94840 0.35251
v -0.13072 0.90544 0.32070
v -0.11156 0.86875 0.28346
v -0.08868 0.83924 0.24170
v -0.06222 0.81762 0.19645
v -0.03248 0.80443 0.14883
v -0.00000 0.80000 0.10000
v 0.00000 1.52000 0.10000
v -0.03953 1.51557 0.13862
v -0.07622 1.50238 0.17629
v -0.10938 1.48076 0.21208
v -0.13850 1.45125 0.24511
v -0.16328 1.41456 0.27456
v -0.18355 1.37160 0.29972
v -0.19926 1.32344 0.31996
v -0.21043 1.27125 0.33479
v -0.21710 1.21632 0.34383
v -0.21932 1.16000 0.34687
v -0.21710 1.10368 0.34383
v -0.21043 1.04875 0.33479
v -0.19926 0.99656 0.31996
v -0.18355 0.94840 0.29972
v -0.16328 0.90544 0.27456
v -0.13850 0.86875 0.24511
v -0.10938 0.83924 0.21208
v -0.07622 0.81762 0.17629
v -0.03953 0.80443 0.13862
v -0.00000 0.80000 0.10000
v 0.00000 1.52000 0.10000
v -0.04497 1.51557 0.12672
v -0.08738 1.50238 0.15279
v -0.12635 1.48076 0.17755
v -0.16115 1.45125 0.20041
v -0.19125 1.41456 0.22079
v -0.21627 1.37160 0.23820
v -0.23593 1.32344 0.25221
v -0.25006 1.27125 0.26247
v -0.25858 1.21632 0.26873
v -0.26142 1.16000 0.27083
v -0.25858 1.10368 0.26873
v -0.25006 1.04875 0.26247
v -0.23593 0.99656 0.25221
v -0.21627 0.94840 0.23820
v -0.19125 0.90544 0.22079
v -0.16115 0.86875 0.20041
v -0.12635 0.83924 0.17755
v -0.08738 0.81762 0.15279
v -0.04497 0.80443 0.12672
v -0.00000 0.80000 0.10000
v 0.00000 1.52000 0.10000
v -0.04855 1.51557 0.11366
v -0.09511 1.50238 0.12698
v -0.13861 1.48076 0.13964
v -0.17814 1.45125 0.15133
v -0.21287 1.41456 0.16175
v -0.24215 1.37160 0.17065
v -0.26546 1.32344 0.17781
v -0.28238 1.27125 0.18305
v -0.29265 1.21632 0.18625
v -0.29609 1.16000 0.18732
v -0.29265 1.10368 0.18625
v -0.28238 1.04875 0.18305
v -0.26546 0.99656 0.17781
v -0.24215 0.94840 0.17065
v -0.21287 0.90544 0.16175
v -0.17814 0.86875 0.15133
v -0.13861 0.83924 0.13964
v -0.09511 0.81762 0.12698
v -0.04855 0.80443 0.11366
v -0.00000 0.80000 0.10000
v 0.00000 1.52000 0.10000
v -0.05006 1.51557 0.10000
v -0.09889 1.50238 0.10000
v -0.14528 1.48076 0.10000
v -0.18809 1.45125 0.10000
v -0.22627 1.41456 0.10000
v -0.25889 1.37160 0.10000
v -0.28512 1.32344 0.10000
v -0.30434 1.27125 0.10000
v -0.31606 1.21632 0.10000
v -0.32000 1.16000 0.10000
v -0.31606 1.10368 0.10000
v -0.30434 1.04875 0.10000
v -0.28512 0.99656 0.10000
v -0.25889 0.94840 0.10000
v -0.22627 0.90544 0.10000
v -0.18809 0.86875 0.10000
v -0.14528 0.83924 0.10000
v -0.09889 0.81762 0.10000
v -0.05006 0.80443 0.10000
v -0.00000 0.80000 0.10000
v 0.00000 1.52000 0.10000
v -0.04938 1.51557 0.08634
v -0.09834 1.50238 0.07302
v -0.14559 1.48076 0.06036
v -0.18983 1.45125 0.04867
v -0.22979 1.41456 0.03825
v -0.26430 1.37160 0.02935
v -0.29232 1.32344 0.02219
v -0.31299 1.27125 0.01695
v -0.32566 1.21632 0.01375
v -0.32993 1.16000 0.01268
v -0.32566 1.10368 0.01375
v -0.31299 1.04875 0.01695
v -0.29232 0.99656 0.02219
v -0.26430 0.94840 0.02935
v -0.22979 0.90544 0.03825
v -0.18983 0.86875 0.04867
v -0.14559 0.83924 0.06036
v -0.09834 0.81762 0.07302
v -0.04938 0.80443 0.08634
v -0.00000 0.80000 0.10000
v 0.00000 1.52000 0.10000
v -0.04649 1.51557 0.07328
v -0.09329 1.50238 0.04721
v -0.13909 1.48076 0.02245
v -0.18251 1.45125 -0.00041
v -0.22217 1.41456 -0.02079
v -0.25674 1.37160 -0.03820
v -0.28502 1.32344 -0.05221
v -0.30599 1.27125 -0.06247
v -0.31889 1.21632 -0.06873
v -0.32325 1.16000 -0.07083
v -0.31889 1.10368 -0.06873
v -0.30599 1.04875 -0.06247
v -0.28502 0.99656 -0.05221
v -0.25674 0.94840 -0.03820
v -0.22217 0.90544 -0.02079
v -0.18251 0.86875 -0.00041
v -0.13909 0.83924 0.02245
v -0.09329 0.81762 0.04721
v -0.04649 0.80443 0.07328
v -0.00000 0.80000 0.10000
v 0.00000 1.52000 0.10000
v -0.04147 1.51557 0.06138
v -0.08378 1.50238 0.02371
v -0.12569 1.48076 -0.01208
v -0.16584 1.45125 -0.04511
v -0.20284 1.41456 -0.07456
v -0.23534 1.37160 -0.09972
v -0.26208 1.32344 -0.11996
v -0.28200 1.27125 -0.13479
v -0.29429 1.21632 -0.14383
v -0.29845 1.16000 -0.14687
v -0.29429 1.10368 -0.14383
v -0.28200 1.04875 -0.13479
v -0.26208 0.99656 -0.11996
v -0.23534 0.94840 -0.09972
v -0.20284 0.90544 -0.07456
v -0.16584 0.86875 -0.04511
v -0.12569 0.83924 -0.01208
v -0.08378 0.81762 0.02371
v -0.04147 0.80443 0.06138
v -0.00000 0.80000 0.10000
v 0.00000 1.52000 0.10000
v -0.03451 1.51557 0.05117
v -0.07012 1.50238 0.00355
v -0.10574 1.48076 -0.04170
v -0.14015 1.45125 -0.08346
v -0.17209 1.41456 -0.12070
v -0.20031 1.37160 -0.15251
v -0.22363 1.32344 -0.17810
v -0.24106 1.27125 -0.19684
v -0.25185 1.21632 -0.20828
v -0.25549 1.16000 -0.21212
v -0.25185 1.10368 -0.20828
v -0.24106 1.04875 -0.19684
v -0.22363 0.99656 -0.17810
v -0.20031 0.94840 -0.15251
v -0.17209 0.90544 -0.12070
v -0.14015 0.86875 -0.08346
v -0.10574 0.83924 -0.04170
v -0.07012 0.81762 0.00355
v -0.03451 0.80443 0.05117
v -0.00000 0.80000 0.10000
v 0.00000 1.52000 0.10000
v -0.02591 1.51557 0.04310
v -0.05288 1.50238 -0.01240
v -0.08006 1.48076 -0.06513
v -0.10649 1.45125 -0.11380
v -0.13115 1.41456 -0.15720
v -0.15302 1.37160 -0.19426
v -0.17116 1.32344 -0.22409
v -0.18476 1.27125 -0.24593
v -0.19318 1.21632 -0.25925
v -0.19603 1.16000 -0.26373
v -0.19318 1.10368 -0.25925
v -0.18476 1.04875 -0.24593
v -0.17116 0.99656 -0.22409
v -0.15302 0.94840 -0.19426
v -0.13115 0.90544 -0.15720
v -0.10649 0.86875 -0.11380
v -0.08006 0.83924 -0.06513
v -0.05288 0.81762 -0.01240
v -0.02591 0.80443 0.04310
v -0.00000 0.80000 0.10000
v 0.00000 1.52000 0.10000
v -0.01607 1.51557 0.03751
v -0.03289 1.50238 -0.02343
v -0.04993 1.48076 -0.08134
v -0.06657 1.45125 -0.13479
v -0.08215 1.41456 -0.18245
v -0.09600 1.37160 -0.22316
v -0.10752 1.32344 -0.25591
v -0.11616 1.27125 -0.27989
v -0.12152 1.21632 -0.29453
v -0.12334 1.16000 -0.29944
v -0.12152 1.10368 -0.29453
v -0.11616 1.04875 -0.27989
v -0.10752 0.99656 -0.25591
v -0.09600 0.94840 -0.22316
v -0.08215 0.90544 -0.18245
v -0.06657 0.86875 -0.13479
v -0.04993 0.83924 -0.08134
v -0.03289 0.81762 -0.02343
v -0.01607 0.80443 0.03751
v -0.00000 0.80000 0.10000
v 0.00000 1.52000 0.10000
v -0.00544 1.51557 0.03466
v -0.01116 1.50238 -0.02908
v -0.01697 1.48076 -0.08963
v -0.02265 1.45125 -0.14552
v -0.02798 1.41456 -0.19536
v -0.03272 1.37160 -0.23793
v -0.03667 1.32344 -0.27217
v -0.03964 1.27125 -0.29726
v -0.04147 1.21632 -0.31256
v -0.04210 1.16000 -0.31770
v -0.04147 1.10368 -0.31256
v -0.03964 1.04875 -0.29726
v -0.03667 0.99656 -0.27217
v -0.03272 0.94840 -0.23793
v -0.02798 0.90544 -0.19536
v -0.02265 0.86875 -0.14552
v -0.01697 0.83924 -0.08963
v -0.01116 0.81762 -0.02908
v -0.00544 0.80443 0.03466
v -0.00000 0.80000 0.10000
v 0.00000 1.52000 0.10000
v 0.00544 1.51557 0.03466
v 0.01116 1.50238 -0.02908
v 0.01697 1.48076 -0.08963
v 0.02265 1.45125 -0.14552
v 0.02798 1.41456 -0.19536
v 0.03272 1.37160 -0.23793
v 0.03667 1.32344 -0.27217
v 0.03964 1.27125 -0.29726
v 0.04147 1.21632 -0.31256
v 0.04210 1.16000 -0.31770
v 0.04147 1.10368 -0.31256
v 0.03964 1.04875 -0.29726
v 0.03667 0.99656 -0.27217
v 0.03272 0.94840 -0.23793
v 0.02798 0.90544 -0.19536
v 0.02265 0.86875 -0.14552
v 0.01697 0.83924 -0.08963
v 0.01116 0.81762 -0.02908
v 0.00544 0.80443 0.03466
v 0.00000 0.80000 0.10000
v 0.00000 1.52000 0.10000
v 0.01607 1.51557 0.03751
v 0.03289 1.50238 -0.02343
v 0.04993 1.48076 -0.08134
v 0.06657 1.45125 -0.13479
v 0.08215 1.41456 -0.18245
v 0.09600 1.37160 -0.22316
v 0.10752 1.32344 -0.25591
v 0.11616 1.27125 -0.27989
v 0.12152 1.21632 -0.29453
v 0.12334 1.16000 -0.29944
v 0.12152 1.10368 -0.29453
v 0.11616 1.04875 -0.27989
v 0.10752 0.99656 -0.25591
v 0.09600 0.94840 -0.22316
v 0.08215 0.90544 -0.18245
v 0.06657 0.86875 -0.13479
v 0.04993 0.83924 -0.08134
v 0.03289 0.81762 -0.02343
v 0.01607 0.80443 0.03751
v 0.00000 0.80000 0.10000
v 0.00000 1.52000 0.10000
v 0.02591 1.51557 0.04310
v 0.05288 1.50238 -0.01240
v 0.08006 1.48076 -0.06513
v 0.10649 1.45125 -0.11380
v 0.13115 1.41456 -0.15720
v 0.15302 1.37160 -0.19426
v 0.17116 1.32344 -0.22409
v 0.18476 1.27125 -0.24593
v 0.19318 1.21632 -0.25925
v 0.19603 1.16000 -0.26373
v 0.19318 1.10368 -0.25925
v 0.18476 1.04875 -0.24593
v 0.17116 0.99656 -0.22409
v 0.15302 0.94840 -0.19426
v 0.13115 0.90544 -0.15720
v 0.10649 0.86875 -0.11380
v 0.08006 0.83924 -0.06513
v 0.05288 0.81762 -0.01240
v 0.02591 0.80443 0.04310
v 0.00000 0.80000 0.10000
v 0.00000 1.52000 0.10000
v 0.03451 1.51557 0.05117
v 0.07012 1.50238 0.00355
v 0.10574 1.48076 -0.04170
v 0.14015 1.45125 -0.08346
v 0.17209 1.41456 -0.12070
v 0.20031 1.37160 -0.15251
v 0.22363 1.32344 -0.17810
v 0.24106 1.27125 -0.19684
v 0.25185 1.21632 -0.20828
v 0.25549 1.16000 -0.21212
v 0.25185 1.10368 -0.20828
v 0.24106 1.04875 -0.19684
v 0.22363 0.99656 -0.17810
v 0.20031 0.94840 -0.15251
v 0.17209 0.90544 -0.12070
v 0.14015 0.86875 -0.08346
v 0.10574 0.83924 -0.04170
v 0.07012 0.81762 0.00355
v 0.03451 0.80443 0.05117
v 0.00000 0.80000 0.10000
v 0.00000 1.52000 0.10000
v 0.04147 1.51557 0.06138
v 0.08378 1.50238 0.02371
v 0.12569 1.48076 -0.01208
v 0.16584 1.45125 -0.04511
v 0.20284 1.41456 -0.07456
v 0.23534 1.37160 -0.09972
v 0.26208 1.32344 -0.11996
v 0.28200 1.27125 -0.13479
v 0.29429 1.21632 -0.14383
v 0.29845 1.16000 -0.14687
v 0.29429 1.10368 -0.14383
v 0.28200 1.04875 -0.13479
v 0.26208 0.99656 -0.11996
v 0.23534 0.94840 -0.09972
v 0.20284 0.90544 -0.07456
v 0.16584 0.86875 -0.04511
v 0.12569 0.83924 -0.01208
v 0.08378 0.81762 0.02371
v 0.04147 0.80443 0.06138
v 0.00000 0.80000 0.10000
v 0.00000 1.52000 0.10000
v 0.04649 1.51557 0.07328
v 0.09329 1.50238 0.04721
v 0.13909 1.48076 0.02245
v 0.18251 1.45125 -0.00041
v 0.22217 1.41456 -0.02079
v 0.25674 1.37160 -0.03820
v 0.28502 1.32344 -0.05221
v 0.30599 1.27125 -0.06247
v 0.31889 1.21632 -0.06873
v 0.32325 1.16000 -0.07083
v 0.31889 1.10368 -0.06873
v 0.30599 1.04875 -0.06247
v 0.28502 0.99656 -0.05221
v 0.25674 0.94840 -0.03820
v 0.22217 0.90544 -0.02079
v 0.18251 0.86875 -0.00041
v 0.13909 0.83924 0.02245
v 0.09329 0.81762 0.04721
v 0.04649 0.80443 0.07328
v 0.00000 0.80000 0.10000
v 0.00000 1.52000 0.10000
v 0.04938 1.51557 0.08634
v 0.09834 1.50238 0.07302
v 0.14559 1.48076 0.06036
v 0.18983 1.45125 0.04867
v 0.22979 1.41456 0.03825
v 0.26430 1.37160 0.02935
v 0.29232 1.32344 0.02219
v 0.31299 1.27125 0.01695
v 0.32566 1.21632 0.01375
v 0.32993 1.16000 0.01268
v 0.32566 1.10368 0.01375
v 0.31299 1.04875 0.01695
v 0.29232 0.99656 0.02219
v 0.26430 0.94840 0.02935
v 0.22979 0.90544 0.03825
v 0.18983 0.86875 0.04867
v 0.14559 0.83924 0.06036
v 0.09834 0.81762 0.07302
v 0.04938 0.80443 0.08634
v 0.00000 0.80000 0.10000
v 0.00000 1.52000 0.10000
v 0.05006 1.51557 0.10000
v 0.09889 1.50238 0.10000
v 0.14528 1.48076 0.10000
v 0.18809 1.45125 0.10000
v 0.22627 1.41456 0.10000
v 0.25889 1.37160 0.10000
v 0.28512 1.32344 0.10000
v 0.30434 1.27125 0.10000
v 0.31606 1.21632 0.10000
v 0.32000 1.16000 0.10000
v 0.31606 1.10368 0.10000
v 0.30434 1.04875 0.10000
v 0.28512 0.99656 0.10000
v 0.25889 0.94840 0.10000
v 0.22627 0.90544 0.10000
v 0.18809 0.86875 0.10000
v 0.14528 0.83924 0.10000
v 0.09889 0.81762 0.10000
v 0.05006 0.80443 0.10000
v 0.00000 0.80000 0.10000
vt 0.00000 0.00000
vt 0.00000 0.05000
vt 0.00000 0.10000
vt 0.00000 0.15000
vt 0.00000 0.20000
vt 0.00000 0.25000
vt 0.00000 0.30000
vt 0.00000 0.35000
vt 0.00000 0.40000
vt 0.00000 0.45000
vt 0.00000 0.50000
vt 0.00000 0.55000
vt 0.00000 0.60000
vt 0.00000 0.65000
vt 0.00000 0.70000
vt 0.00000 0.75000
vt 0.00000 0.80000
vt 0.00000 0.85000
vt 0.00000 0.90000
vt 0.00000 0.95000
vt 0.00000 1.00000
vt 0.03333 0.00000
vt 0.03333 0.05000
vt 0.03333 0.10000
vt 0.03333 0.15000
vt 0.03333 0.20000
vt 0.03333 0.25000
vt 0.03333 0.30000
vt 0.03333 0.35000
vt 0.03333 0.40000
vt 0.03333 0.45000
vt 0.03333 0.50000
vt 0.03333 0.55000
vt 0.03333 0.60000
vt 0.03333 0.65000
vt 0.03333 0.70000
vt 0.03333 0.75000
vt 0.03333 0.80000
vt 0.03333 0.85000
vt 0.03333 0.90000
vt 0.03333 0.95000
vt 0.03333 1.00000
vt 0.06667 0.00000
vt 0.06667 0.05000
vt 0.06667 0.10000
vt 0.06667 0.15000
vt 0.06667 0.20000
vt 0.06667 0.25000
vt 0.06667 0.30000
vt 0.06667 0.35000
vt 0.06667 0.40000
vt 0.06667 0.45000
vt 0.06667 0.50000
vt 0.06667 0.55000
vt 0.06667 0.60000
vt 0.06667 0.65000
vt 0.06667 0.70000
vt 0.06667 0.75000
vt 0.06667 0.80000
vt 0.06667 0.85000
vt 0.06667 0.90000
vt 0.06667 0.95000
vt 0.06667 1.00000
vt 0.10000 0.00000
vt 0.10000 0.05000
vt 0.10000 0.10000
vt 0.10000 0.15000
vt 0.10000 0.20000
vt 0.10000 0.25000
vt 0.10000 0.30000
vt 0.10000 0.35000
vt 0.10000 0.40000
vt 0.10000 0.45000
vt 0.10000 0.50000
vt 0.10000 0.55000
vt 0.10000 0.60000
vt 0.10000 0.65000
vt 0.10000 0.70000
vt 0.10000 0.75000
vt 0.10000 0.80000
vt 0.10000 0.85000
vt 0.10000 0.90000
vt 0.10000 0.95000
vt 0.10000 1.00000
vt 0.13333 0.00000
vt 0.13333 0.05000
vt 0.13333 0.10000
vt 0.13333 0.15000
vt 0.13333 0.20000
vt 0.13333 0.25000
vt 0.13333 0.30000
vt 0.13333 0.35000
vt 0.13333 0.40000
vt 0.13333 0.45000
vt 0.13333 0.50000
vt 0.13333 0.55000
vt 0.13333 0.60000
vt 0.13333 0.65000
vt 0.13333 0.70000
vt 0.13333 0.75000
vt 0.13333 0.80000
vt 0.13333 0.85000
vt 0.13333 0.90000
vt 0.13333 0.95000
vt 0.13333 1.00000
vt 0.16667 0.00000
vt 0.16667 0.05000
vt 0.16667 0.10000
vt 0.16667 0.15000
vt 0.16667 0.20000
vt 0.16667 0.25000
vt 0.16667 0.30000
vt 0.16667 0.35000
vt 0.16667 0.40000
vt 0.16667 0.45000
vt 0.16667 0.50000
vt 0.16667 0.55000
vt 0.16667 0.60000
vt 0.16667 0.65000
vt 0.16667 0.70000
vt 0.16667 0.75000
vt 0.16667 0.80000
vt 0.16667 0.85000
vt 0.16667 0.90000
vt 0.16667 0.95000
vt 0.16667 1.00000
vt 0.20000 0.00000
vt 0.20000 0.05000
vt 0.20000 0.10000
vt 0.20000 0.15000
vt 0.20000 0.20000
vt 0.20000 0.25000
vt 0.20000 0.30000
vt 0.20000 0.35000
vt 0.20000 0.40000
vt 0.20000 0.45000
vt 0.20000 0.50000
vt 0.20000 0.55000
vt 0.20000 0.60000
vt 0.20000 0.65000
vt 0.20000 0.70000
vt 0.20000 0.75000
vt 0.20000 0.80000
vt 0.20000 0.85000
vt 0.20000 0.90000
vt 0.20000 0.95000
vt 0.20000 1.00000
vt 0.23333 0.00000
vt 0.23333 0.05000
vt 0.23333 0.10000
vt 0.23333 0.15000
vt 0.23333 0.20000
vt 0.23333 0.25000
vt 0.23333 0.30000
vt 0.23333 0.35000
vt 0.23333 0.40000
vt 0.23333 0.45000
vt 0.23333 0.50000
vt 0.23333 0.55000
vt 0.23333 0.60000
vt 0.23333 0.65000
vt 0.23333 0.70000
vt 0.23333 0.75000
vt 0.23333 0.80000
vt 0.23333 0.85000
vt 0.23333 0.90000
vt 0.23333 0.95000
vt 0.23333 1.00000
vt 0.26667 0.00000
vt 0.26667 0.05000
vt 0.26667 0.10000
vt 0.26667 0.15000
vt 0.26667 0.20000
vt 0.26667 0.25000
vt 0.26667 0.30000
vt 0.26667 0.35000
vt 0.26667 0.40000
vt 0.26667 0.45000
vt 0.26667 0.50000
vt 0.26667 0.55000
vt 0.26667 0.60000
vt 0.26667 0.65000
vt 0.26667 0.70000
vt 0.26667 0.75000
vt 0.26667 0.80000
vt 0.26667 0.85000
vt 0.26667 0.90000
vt 0.26667 0.95000
vt 0.26667 1.00000
vt 0.30000 0.00000
vt 0.30000 0.05000
vt 0.30000 0.10000
vt 0.30000 0.15000
vt 0.30000 0.20000
vt 0.30000 0.25000
vt 0.30000 0.30000
vt 0.30000 0.35000
vt 0.30000 0.40000
vt 0.30000 0.45000
vt 0.30000 0.50000
vt 0.30000 0.55000
vt 0.30000 0.60000
vt 0.30000 0.65000
vt 0.30000 0.70000
vt 0.30000 0.75000
vt 0.30000 0.80000
vt 0.30000 0.85000
vt 0.30000 0.90000
vt 0.30000 0.95000
vt 0.30000 1.00000
vt 0.33333 0.00000
vt 0.33333 0.05000
vt 0.33333 0.10000
vt 0.33333 0.15000
vt 0.33333 0.20000
vt 0.33333 0.25000
vt 0.33333 0.30000
vt 0.33333 0.35000
vt 0.33333 0.40000
vt 0.33333 0.45000
vt 0.33333 0.50000
vt 0.33333 0.55000
vt 0.33333 0.60000
vt 0.33333 0.65000
vt 0.33333 0.70000
vt 0.33333 0.75000
vt 0.33333 0.80000
vt 0.33333 0.85000
vt 0.33333 0.90000
vt 0.33333 0.95000
vt 0.33333 1.00000
vt 0.36667 0.00000
vt 0.36667 0.05000
vt 0.36667 0.10000
vt 0.36667 0.15000
vt 0.36667 0.20000
vt 0.36667 0.25000
vt 0.36667 0.30000
vt 0.36667 0.35000
vt 0.36667 0.40000
vt 0.36667 0.45000
vt 0.36667 0.50000
vt 0.36667 0.55000
vt 0.36667 0.60000
vt 0.36667 0.65000
vt 0.36667 0.70000
vt 0.36667 0.75000
vt 0.36667 0.80000
vt 0.36667 0.85000
vt 0.36667 0.90000
vt 0.36667 0.95000
vt 0.36667 1.00000
vt 0.40000 0.00000
vt 0.40000 0.05000
vt 0.40000 0.10000
vt 0.40000 0.15000
vt 0.40000 0.20000
vt 0.40000 0.25000
vt 0.40000 0.30000
vt 0.40000 0.35000
vt 0.40000 0.40000
vt 0.40000 0.45000
vt 0.40000 0.50000
vt 0.40000 0.55000
vt 0.40000 0.60000
vt 0.40000 0.65000
vt 0.40000 0.70000
vt 0.40000 0.75000
vt 0.40000 0.80000
vt 0.40000 0.85000
vt 0.40000 0.90000
vt 0.40000 0.95000
vt 0.40000 1.00000
vt 0.43333 0.00000
vt 0.43333 0.05000
vt 0.43333 0.10000
vt 0.43333 0.15000
vt 0.43333 0.20000
vt 0.43333 0.25000
vt 0.43333 0.30000
vt 0.43333 0.35000
vt 0.43333 0.40000
vt 0.43333 0.45000
vt 0.43333 0.50000
vt 0.43333 0.55000
vt 0.43333 0.60000
vt 0.43333 0.65000
vt 0.43333 0.70000
vt 0.43333 0.75000
vt 0.43333 0.80000
vt 0.43333 0.85000
vt 0.43333 0.90000
vt 0.43333 0.95000
vt 0.43333 1.00000
vt 0.46667 0.00000
vt 0.46667 0.05000
vt 0.46667 0.10000
vt 0.46667 0.15000
vt 0.46667 0.20000
vt 0.46667 0.25000
vt 0.46667 0.30000
vt 0.46667 0.35000
vt 0.46667 0.40000
vt 0.46667 0.45000
vt 0.46667 0.50000
vt 0.46667 0.55000
vt 0.46667 0.60000
vt 0.46667 0.65000
vt 0.46667 0.70000
vt 0.46667 0.75000
vt 0.46667 0.80000
vt 0.46667 0.85000
vt 0.46667 0.90000
vt 0.46667 0.95000
vt 0.46667 1.00000
vt 0.50000 0.00000
vt 0.50000 0.05000
vt 0.50000 0.10000
vt 0.50000 0.15000
vt 0.50000 0.20000
vt 0.50000 0.25000
vt 0.50000 0.30000
vt 0.50000 0.35000
vt 0.50000 0.40000
vt 0.50000 0.45000
vt 0.50000 0.50000
vt 0.50000 0.55000
vt 0.50000 0.60000
vt 0.50000 0.65000
vt 0.50000 0.70000
vt 0.50000 0.75000
vt 0.50000 0.80000
vt 0.50000 0.85000
vt 0.50000 0.90000
vt 0.50000 0.95000
vt 0.50000 1.00000
vt 0.53333 0.00000
vt 0.53333 0.05000
vt 0.53333 0.10000
vt 0.53333 0.15000
vt 0.53333 0.20000
vt 0.53333 0.25000
vt 0.53333 0.30000
vt 0.53333 0.35000
vt 0.53333 0.40000
vt 0.53333 0.45000
vt 0.53333 0.50000
vt 0.53333 0.55000
vt 0.53333 0.60000
vt 0.53333 0.65000
vt 0.53333 0.70000
vt 0.53333 0.75000
vt 0.53333 0.80000
vt 0.53333 0.85000
vt 0.53333 0.90000
vt 0.53333 0.95000
vt 0.53333 1.00000
vt 0.56667 0.00000
vt 0.56667 0.05000
vt 0.56667 0.10000
vt 0.56667 0.15000
vt 0.56667 0.20000
vt 0.56667 0.25000
vt 0.56667 0.30000
vt 0.56667 0.35000
vt 0.56667 0.40000
vt 0.56667 0.45000
vt 0.56667 0.50000
vt 0.56667 0.55000
vt 0.56667 0.60000
vt 0.56667 0.65000
vt 0.56667 0.70000
vt 0.56667 0.75000
vt 0.56667 0.80000
vt 0.56667 0.85000
vt 0.56667 0.90000
vt 0.56667 0.95000
vt 0.56667 1.00000
vt 0.60000 0.00000
vt 0.60000 0.05000
vt 0.60000 0.10000
vt 0.60000 0.15000
vt 0.60000 0.20000
vt 0.60000 0.25000
vt 0.60000 0.30000
vt 0.60000 0.35000
vt 0.60000 0.40000
vt 0.60000 0.45000
vt 0.60000 0.50000
vt 0.60000 0.55000
vt 0.60000 0.60000
vt 0.60000 0.65000
vt 0.60000 0.70000
vt 0.60000 0.75000
vt 0.60000 0.80000
vt 0.60000 0.85000
vt 0.60000 0.90000
vt 0.60000 0.95000
vt 0.60000 1.00000
vt 0.63333 0.00000
vt 0.63333 0.05000
vt 0.63333 0.10000
vt 0.63333 0.15000
vt 0.63333 0.20000
vt 0.63333 0.25000
vt 0.63333 0.30000
vt 0.63333 0.35000
vt 0.63333 0.40000
vt 0.63333 0.45000
vt 0.63333 0.50000
vt 0.63333 0.55000
vt 0.63333 0.60000
vt 0.63333 0.65000
vt 0.63333 0.70000
vt 0.63333 0.75000
vt 0.63333 0.80000
vt 0.63333 0.85000
vt 0.63333 0.90000
vt 0.63333 0.95000
vt 0.63333 1.00000
vt 0.66667 0.00000
vt 0.66667 0.05000
vt 0.66667 0.10000
vt 0.66667 0.15000
vt 0.66667 0.20000
vt 0.66667 0.25000
vt 0.66667 0.30000
vt 0.66667 0.35000
vt 0.66667 0.40000
vt 0.66667 0.45000
vt 0.66667 0.50000
vt 0.66667 0.55000
vt 0.66667 0.60000
vt 0.66667 0.65000
vt 0.66667 0.70000
vt 0.66667 0.75000
vt 0.66667 0.80000
vt 0.66667 0.85000
vt 0.66667 0.90000
vt 0.66667 0.95000
vt 0.66667 1.00000
vt 0.70000 0.00000
vt 0.70000 0.05000
vt 0.70000 0.10000
vt 0.70000 0.15000
vt 0.70000 0.20000
vt 0.70000 0.25000
vt 0.70000 0.30000
vt 0.70000 0.35000
vt 0.70000 0.40000
vt 0.70000 0.45000
vt 0.70000 0.50000
vt 0.70000 0.55000
vt 0.70000 0.60000
vt 0.70000 0.65000
vt 0.70000 0.70000
vt 0.70000 0.75000
vt 0.70000 0.80000
vt 0.70000 0.85000
vt 0.70000 0.90000
vt 0.70000 0.95000
vt 0.70000 1.00000
vt 0.73333 0.00000
vt 0.73333 0.05000
vt 0.73333 0.10000
vt 0.73333 0.15000
vt 0.73333 0.20000
vt 0.73333 0.25000
vt 0.73333 0.30000
vt 0.73333 0.35000
vt 0.73333 0.40000
vt 0.73333 0.45000
vt 0.73333 0.50000
vt 0.73333 0.55000
vt 0.73333 0.60000
vt 0.73333 0.65000
vt 0.73333 0.70000
vt 0.73333 0.75000
vt 0.73333 0.80000
vt 0.73333 0.85000
vt 0.73333 0.90000
vt 0.73333 0.95000
vt 0.73333 1.00000
vt 0.76667 0.00000
vt 0.76667 0.05000
vt 0.76667 0.10000
vt 0.76667 0.15000
vt 0.76667 0.20000
vt 0.76667 0.25000
vt 0.76667 0.30000
vt 0.76667 0.35000
vt 0.76667 0.40000
vt 0.76667 0.45000
vt 0.76667 0.50000
vt 0.76667 0.55000
vt 0.76667 0.60000
vt 0.76667 0.65000
vt 0.76667 0.70000
vt 0.76667 0.75000
vt 0.76667 0.80000
vt 0.76667 0.85000
vt 0.76667 0.90000
vt 0.76667 0.95000
vt 0.76667 1.00000
vt 0.80000 0.00000
vt 0.80000 0.05000
vt 0.80000 0.10000
vt 0.80000 0.15000
vt 0.80000 0.20000
vt 0.80000 0.25000
vt 0.80000 0.30000
vt 0.80000 0.35000
vt 0.80000 0.40000
vt 0.80000 0.45000
vt 0.80000 0.50000
vt 0.80000 0.55000
vt 0.80000 0.60000
vt 0.80000 0.65000
vt 0.80000 0.70000
vt 0.80000 0.75000
vt 0.80000 0.80000
vt 0.80000 0.85000
vt 0.80000 0.90000
vt 0.80000 0.95000
vt 0.80000 1.00000
vt 0.83333 0.00000
vt 0.83333 0.05000
vt 0.83333 0.10000
vt 0.83333 0.15000
vt 0.83333 0.20000
vt 0.83333 0.25000
vt 0.83333 0.30000
vt 0.83333 0.35000
vt 0.83333 0.40000
vt 0.83333 0.45000
vt 0.83333 0.50000
vt 0.83333 0.55000
vt 0.83333 0.60000
vt 0.83333 0.65000
vt 0.83333 0.70000
vt 0.83333 0.75000
vt 0.83333 0.80000
vt 0.83333 0.85000
vt 0.83333 0.90000
vt 0.83333 0.95000
vt 0.83333 1.00000
vt 0.86667 0.00000
vt 0.86667 0.05000
vt 0.86667 0.10000
vt 0.86667 0.15000
vt 0.86667 0.20000
vt 0.86667 0.25000
vt 0.86667 0.30000
vt 0.86667 0.35000
vt 0.86667 0.40000
vt 0.86667 0.45000
vt 0.86667 0.50000
vt 0.86667 0.55000
vt 0.86667 0.60000
vt 0.86667 0.65000
vt 0.86667 0.70000
vt 0.86667 0.75000
vt 0.86667 0.80000
vt 0.86667 0.85000
vt 0.86667 0.90000
vt 0.86667 0.95000
vt 0.86667 1.00000
vt 0.90000 0.00000
vt 0.90000 0.05000
vt 0.90000 0.10000
vt 0.90000 0.15000
vt 0.90000 0.20000
vt 0.90000 0.25000
vt 0.90000 0.30000
vt 0.90000 0.35000
vt 0.90000 0.40000
vt 0.90000 0.45000
vt 0.90000 0.50000
vt 0.90000 0.55000
vt 0.90000 0.60000
vt 0.90000 0.65000
vt 0.90000 0.70000
vt 0.90000 0.75000
vt 0.90000 0.80000
vt 0.90000 0.85000
vt 0.90000 0.90000
vt 0.90000 0.95000
vt 0.90000 1.00000
vt 0.93333 0.00000
vt 0.93333 0.05000
vt 0.93333 0.10000
vt 0.93333 0.15000
vt 0.93333 0.20000
vt 0.93333 0.25000
vt 0.93333 0.30000
vt 0.93333 0.35000
vt 0.93333 0.40000
vt 0.93333 0.45000
vt 0.93333 0.50000
vt 0.93333 0.55000
vt 0.93333 0.60000
vt 0.93333 0.65000
vt 0.93333 0.70000
vt 0.93333 0.75000
vt 0.93333 0.80000
vt 0.93333 0.85000
vt 0.93333 0.90000
vt 0.93333 0.95000
vt 0.93333 1.00000
vt 0.96667 0.00000
vt 0.96667 0.05000
vt 0.96667 0.10000
vt 0.96667 0.15000
vt 0.96667 0.20000
vt 0.96667 0.25000
vt 0.96667 0.30000
vt 0.96667 0.35000
vt 0.96667 0.40000
vt 0.96667 0.45000
vt 0.96667 0.50000
vt 0.96667 0.55000
vt 0.96667 0.60000
vt 0.96667 0.65000
vt 0.96667 0.70000
vt 0.96667 0.75000
vt 0.96667 0.80000
vt 0.96667 0.85000
vt 0.96667 0.90000
vt 0.96667 0.95000
vt 0.96667 1.00000
vt 1.00000 0.00000
vt 1.00000 0.05000
vt 1.00000 0.10000
vt 1.00000 0.15000
vt 1.00000 0.20000
vt 1.00000 0.25000
vt 1.00000 0.30000
vt 1.00000 0.35000
vt 1.00000 0.40000
vt 1.00000 0.45000
vt 1.00000 0.50000
vt 1.00000 0.55000
vt 1.00000 0.60000
vt 1.00000 0.65000
vt 1.00000 0.70000
vt 1.00000 0.75000
vt 1.00000 0.80000
vt 1.00000 0.85000
vt 1.00000 0.90000
vt 1.00000 0.95000
vt 1.00000 1.00000
vn 0.00000 0.99784 0.06565
vn 0.03294 0.99729 0.06580
vn 0.34324 0.93900 0.02183
vn 0.49678 0.86666 0.04587
vn 0.63107 0.77209 0.07499
vn 0.74321 0.66063 0.10588
vn 0.83231 0.53752 0.13538
vn 0.89907 0.40720 0.16084
vn 0.94499 0.27293 0.18029
vn 0.97172 0.13681 0.19245
vn 0.98049 0.00000 0.19657
vn 0.97172 -0.13681 0.19245
vn 0.94499 -0.27293 0.18029
vn 0.89907 -0.40720 0.16084
vn 0.83231 -0.53752 0.13538
vn 0.74321 -0.66063 0.10588
vn 0.63107 -0.77209 0.07499
vn 0.49678 -0.86666 0.04587
vn 0.34324 -0.93900 0.02183
vn 0.06164 0.99047 0.12313
vn 0.00000 0.99228 0.12403
vn 0.00000 0.99784 0.06565
vn 0.17303 0.98436 0.03303
vn 0.34078 0.93717 0.07467
vn 0.49464 0.86054 0.12165
vn 0.62747 0.75989 0.16985
vn 0.73529 0.64265 0.21527
vn 0.81766 0.51624 0.25480
vn 0.87671 0.38639 0.28650
vn 0.91569 0.25647 0.30941
vn 0.93767 0.12775 0.32319
vn 0.94475 0.00000 0.32779
vn 0.93767 -0.12775 0.32319
vn 0.91569 -0.25647 0.30941
vn 0.87671 -0.38639 0.28650
vn 0.81766 -0.51624 0.25480
vn 0.73529 -0.64265 0.21527
vn 0.62747 -0.75989 0.16985
vn 0.49464 -0.86054 0.12165
vn 0.34078 -0.93717 0.07467
vn 0.17303 -0.98436 0.03303
vn 0.00000 0.99228 0.12403
vn 0.00000 0.99784 0.06565
vn 0.16301 0.98486 0.05900
vn 0.32378 0.93792 0.12435
vn 0.47303 0.85995 0.19162
vn 0.60218 0.75633 0.25563
vn 0.70611 0.63568 0.31197
vn 0.78413 0.50690 0.35804
vn 0.83884 0.37669 0.39300
vn 0.87417 0.24857 0.41717
vn 0.89375 0.12335 0.43126
vn 0.90000 0.00000 0.43588
vn 0.89375 -0.12335 0.43126
vn 0.87417 -0.24857 0.41717
vn 0.83884 -0.37669 0.39300
vn 0.78413 -0.50690 0.35804
vn 0.70611 -0.63568 0.31197
vn 0.60218 -0.75633 0.25563
vn 0.47303 -0.85995 0.19162
vn 0.32378 -0.93792 0.12435
vn 0.16301 -0.98486 0.05900
vn 0.00000 0.99228 0.12403
vn 0.00000 0.99784 0.06565
vn 0.14560 0.98591 0.08232
vn 0.29219 0.94139 0.16857
vn 0.43142 0.86576 0.25364
vn 0.55451 0.76325 0.33162
vn 0.65527 0.64217 0.39779
vn 0.73179 0.51194 0.44988
vn 0.78580 0.38001 0.48796
vn 0.82079 0.25043 0.51342
vn 0.84019 0.12414 0.52788
vn 0.84639 0.00000 0.53257
vn 0.84019 -0.12414 0.52788
vn 0.82079 -0.25043 0.51342
vn 0.78580 -0.38001 0.48796
vn 0.73179 -0.51194 0.44988
vn 0.65527 -0.64217 0.39779
vn 0.55451 -0.76325 0.33162
vn 0.43142 -0.86576 0.25364
vn 0.29219 -0.94139 0.16857
vn 0.14560 -0.98591 0.08232
vn 0.00000 0.99228 0.12403
vn 0.00000 0.99784 0.06565
vn 0.12139 0.98734 0.10213
vn 0.24634 0.94702 0.20609
vn 0.36887 0.87734 0.30694
vn 0.48155 0.78047 0.39872
vn 0.57784 0.66274 0.47631
vn 0.65409 0.53262 0.53710
vn 0.70993 0.39780 0.58116
vn 0.74718 0.26324 0.61026
vn 0.76827 0.13080 0.62662
vn 0.77508 0.00000 0.63187
vn 0.76827 -0.13080 0.62662
vn 0.74718 -0.26324 0.61026
vn 0.70993 -0.39780 0.58116
vn 0.65409 -0.53262 0.53710
vn 0.57784 -0.66274 0.47631
vn 0.48155 -0.78047 0.39872
vn 0.36887 -0.87734 0.30694
vn 0.24634 -0.94702 0.20609
vn 0.12139 -0.98734 0.10213
vn 0.00000 0.99228 0.12403
vn 0.00000 0.99784 0.06565
vn 0.09131 0.98885 0.11767
vn 0.18732 0.95359 0.23573
vn 0.28485 0.89228 0.35029
vn 0.37918 0.80503 0.45624
vn 0.46496 0.69499 0.54846
vn 0.53760 0.56789 0.62329
vn 0.59432 0.43034 0.67940
vn 0.63426 0.28791 0.71751
vn 0.65776 0.14402 0.73933
vn 0.66550 0.00000 0.74640
vn 0.65776 -0.14402 0.73933
vn 0.63426 -0.28791 0.71751
vn 0.59432 -0.43034 0.67940
vn 0.53760 -0.56789 0.62329
vn 0.46496 -0.69499 0.54846
vn 0.37918 -0.80503 0.45624
vn 0.28485 -0.89228 0.35029
vn 0.18732 -0.95359 0.23573
vn 0.09131 -0.98885 0.11767
vn 0.00000 0.99228 0.12403
vn 0.00000 0.99784 0.06565
vn 0.05671 0.99010 0.12838
vn 0.11734 0.95944 0.25635
vn 0.18087 0.90648 0.38154
vn 0.24535 0.83022 0.50054
vn 0.30792 0.73086 0.60912
vn 0.36510 0.61039 0.70294
vn 0.41342 0.47243 0.77839
vn 0.44994 0.32163 0.83313
vn 0.47260 0.16273 0.86612
vn 0.48027 0.00000 0.87712
vn 0.47260 -0.16273 0.86612
vn 0.44994 -0.32163 0.83313
vn 0.41342 -0.47243 0.77839
vn 0.36510 -0.61039 0.70294
vn 0.30792 -0.73086 0.60912
vn 0.24535 -0.83022 0.50054
vn 0.18087 -0.90648 0.38154
vn 0.11734 -0.95944 0.25635
vn 0.05671 -0.99010 0.12838
vn 0.00000 0.99228 0.12403
vn 0.00000 0.99784 0.06565
vn 0.01923 0.99082 0.13384
vn 0.03999 0.96288 0.26695
vn 0.06213 0.91523 0.39811
vn 0.08529 0.84659 0.52537
vn 0.10875 0.75572 0.64580
vn 0.13139 0.64195 0.75540
vn 0.15171 0.50589 0.84916
vn 0.16798 0.35000 0.92156
vn 0.17856 0.17908 0.96749
vn 0.18224 0.00000 0.98325
vn 0.17856 -0.17908 0.96749
vn 0.16798 -0.35000 0.92156
vn 0.15171 -0.50589 0.84916
vn 0.13139 -0.64195 0.75540
vn 0.10875 -0.75572 0.64580
vn 0.08529 -0.84659 0.52537
vn 0.06213 -0.91523 0.39811
vn 0.03999 -0.96288 0.26695
vn 0.01923 -0.99082 0.13384
vn 0.00000 0.99228 0.12403
vn 0.00000 0.99784 0.06565
vn -0.01923 0.99082 0.13384
vn -0.03999 0.96288 0.26695
vn -0.06213 0.91523 0.39811
vn -0.08529 0.84659 0.52537
vn -0.10875 0.75572 0.64580
vn -0.13139 0.64195 0.75540
vn -0.15171 0.50589 0.84916
vn -0.16798 0.35000 0.92156
vn -0.17856 0.17908 0.96749
vn -0.18224 0.00000 0.98325
vn -0.17856 -0.17908 0.96749
vn -0.16798 -0.35000 0.92156
vn -0.15171 -0.50589 0.84916
vn -0.13139 -0.64195 0.75540
vn -0.10875 -0.75572 0.64580
vn -0.08529 -0.84659 0.52537
vn -0.06213 -0.91523 0.39811
vn -0.03999 -0.96288 0.26695
vn -0.01923 -0.99082 0.13384
vn -0.00000 0.99228 0.12403
vn 0.00000 0.99784 0.06565
vn -0.05671 0.99010 0.12838
vn -0.11734 0.95944 0.25635
vn -0.18087 0.90648 0.38154
vn -0.24535 0.83022 0.50054
vn -0.30792 0.73086 0.60912
vn -0.36510 0.61039 0.70294
vn -0.41342 0.47243 0.77839
vn -0.44994 0.32163 0.83313
vn -0.47260 0.16273 0.86612
vn -0.48027 0.00000 0.87712
vn -0.47260 -0.16273 0.86612
vn -0.44994 -0.32163 0.83313
vn -0.41342 -0.47243 0.77839
vn -0.36510 -0.61039 0.70294
vn -0.30792 -0.73086 0.60912
vn -0.24535 -0.83022 0.50054
vn -0.18087 -0.90648 0.38154
vn -0.11734 -0.95944 0.25635
vn -0.05671 -0.99010 0.12838
vn -0.00000 0.99228 0.12403
vn 0.00000 0.99784 0.06565
vn -0.09131 0.98885 0.11767
vn -0.18732 0.95359 0.23573
vn -0.28485 0.89228 0.35029
vn -0.37918 0.80503 0.45624
vn -0.46496 0.69499 0.54846
vn -0.53760 0.56789 0.62329
vn -0.59432 0.43034 0.67940
vn -0.63426 0.28791 0.71751
vn -0.65776 0.14402 0.73933
vn -0.66550 0.00000 0.74640
vn -0.65776 -0.14402 0.73933
vn -0.63426 -0.28791 0.71751
vn -0.59432 -0.43034 0.67940
vn -0.53760 -0.56789 0.62329
vn -0.46496 -0.69499 0.54846
vn -0.37918 -0.80503 0.45624
vn -0.28485 -0.89228 0.35029
vn -0.18732 -0.95359 0.23573
vn -0.09131 -0.98885 0.11767
vn -0.00000 0.99228 0.12403
vn 0.00000 0.99784 0.06565
vn -0.12139 0.98734 0.10213
vn -0.24634 0.94702 0.20609
vn -0.36887 0.87734 0.30694
vn -0.48155 0.78047 0.39872
vn -0.57784 0.66274 0.47631
vn -0.65409 0.53262 0.53710
vn -0.70993 0.39780 0.58116
vn -0.74718 0.26324 0.61026
vn -0.76827 0.13080 0.62662
vn -0.77508 0.00000 0.63187
vn -0.76827 -0.13080 0.62662
vn -0.74718 -0.26324 0.61026
vn -0.70993 -0.39780 0.58116
vn -0.65409 -0.53262 0.53710
vn -0.57784 -0.66274 0.47631
vn -0.48155 -0.78047 0.39872
vn -0.36887 -0.87734 0.30694
vn -0.24634 -0.94702 0.20609
vn -0.12139 -0.98734 0.10213
vn -0.00000 0.99228 0.12403
vn 0.00000 0.99784 0.06565
vn -0.14560 0.98591 0.08232
vn -0.29219 0.94139 0.16857
vn -0.43142 0.86576 0.25364
vn -0.55451 0.76325 0.33162
vn -0.65527 0.64217 0.39779
vn -0.73179 0.51194 0.44988
vn -0.78580 0.38001 0.48796
vn -0.82079 0.25043 0.51342
vn -0.84019 0.12414 0.52788
vn -0.84639 0.00000 0.53257
vn -0.84019 -0.12414 0.52788
vn -0.82079 -0.25043 0.51342
vn -0.78580 -0.38001 0.48796
vn -0.73179 -0.51194 0.44988
vn -0.65527 -0.64217 0.39779
vn -0.55451 -0.76325 0.33162
vn -0.43142 -0.86576 0.25364
vn -0.29219 -0.94139 0.16857
vn -0.14560 -0.98591 0.08232
vn -0.00000 0.99228 0.12403
vn 0.00000 0.99784 0.06565
vn -0.16301 0.98486 0.05900
vn -0.32378 0.93792 0.12435
vn -0.47303 0.85995 0.19162
vn -0.60218 0.75633 0.25563
vn -0.70611 0.63568 0.31197
vn -0.78413 0.50690 0.35804
vn -0.83884 0.37669 0.39300
vn -0.87417 0.24857 0.41717
vn -0.89375 0.12335 0.43126
vn -0.90000 0.00000 0.43588
vn -0.89375 -0.12335 0.43126
vn -0.87417 -0.24857 0.41717
vn -0.83884 -0.37669 0.39300
vn -0.78413 -0.50690 0.35804
vn -0.70611 -0.63568 0.31197
vn -0.60218 -0.75633 0.25563
vn -0.47303 -0.85995 0.19162
vn -0.32378 -0.93792 0.12435
vn -0.16301 -0.98486 0.05900
vn -0.00000 0.99228 0.12403
vn 0.00000 0.99784 0.06565
vn -0.17303 0.98436 0.03303
vn -0.34078 0.93717 0.07467
vn -0.49464 0.86054 0.12165
vn -0.62747 0.75989 0.16985
vn -0.73529 0.64265 0.21527
vn -0.81766 0.51624 0.25480
vn -0.87671 0.38639 0.28650
vn -0.91569 0.25647 0.30941
vn -0.93767 0.12775 0.32319
vn -0.94475 0.00000 0.32779
vn -0.93767 -0.12775 0.32319
vn -0.91569 -0.25647 0.30941
vn -0.87671 -0.38639 0.28650
vn -0.81766 -0.51624 0.25480
vn -0.73529 -0.64265 0.21527
vn -0.62747 -0.75989 0.16985
vn -0.49464 -0.86054 0.12165
vn -0.34078 -0.93717 0.07467
vn -0.17303 -0.98436 0.03303
vn -0.00000 0.99228 0.12403
vn 0.00000 0.99784 0.06565
vn -0.17542 0.98448 0.00544
vn -0.34324 0.93901 0.02101
vn -0.49681 0.86671 0.04468
vn -0.63115 0.77218 0.07349
vn -0.74335 0.66075 0.10412
vn -0.83254 0.53766 0.13342
vn -0.89938 0.40734 0.15874
vn -0.94537 0.27304 0.17810
vn -0.97216 0.13687 0.19020
vn -0.98094 0.00000 0.19432
vn -0.97216 -0.13687 0.19020
vn -0.94537 -0.27304 0.17810
vn -0.89938 -0.40734 0.15874
vn -0.83254 -0.53766 0.13342
vn -0.74335 -0.66075 0.10412
vn -0.63115 -0.77218 0.07349
vn -0.49681 -0.86671 0.04468
vn -0.34324 -0.93901 0.02101
vn -0.17542 -0.98448 0.00544
vn -0.00000 0.99228 0.12403
vn 0.00000 0.99784 0.06565
vn -0.17026 0.98514 -0.02265
vn -0.33156 0.94280 -0.03474
vn -0.47974 0.87662 -0.03740
vn -0.61219 0.79004 -0.03257
vn -0.72718 0.68608 -0.02263
vn -0.82338 0.56740 -0.01011
vn -0.89964 0.43662 0.00261
vn -0.95495 0.29646 0.01337
vn -0.98849 0.14987 0.02054
vn -0.99973 0.00000 0.02305
vn -0.98849 -0.14987 0.02054
vn -0.95495 -0.29646 0.01337
vn -0.89964 -0.43662 0.00261
vn -0.82338 -0.56740 -0.01011
vn -0.72718 -0.68608 -0.02263
vn -0.61219 -0.79004 -0.03257
vn -0.47974 -0.87662 -0.03740
vn -0.33156 -0.94280 -0.03474
vn -0.17026 -0.98514 -0.02265
vn -0.00000 0.99228 0.12403
vn 0.00000 0.99784 0.06565
vn -0.15792 0.98619 -0.04998
vn -0.30642 0.94761 -0.09021
vn -0.44368 0.88794 -0.12128
vn -0.56907 0.80949 -0.14451
vn -0.68205 0.71327 -0.16139
vn -0.78131 0.59959 -0.17333
vn -0.86439 0.46892 -0.18147
vn -0.92785 0.32284 -0.18671
vn -0.96793 0.16475 -0.18963
vn -0.98167 -0.00000 -0.19057
vn -0.96793 -0.16475 -0.18963
vn -0.92785 -0.32284 -0.18671
vn -0.86439 -0.46892 -0.18147
vn -0.78131 -0.59959 -0.17333
vn -0.68205 -0.71327 -0.16139
vn -0.56907 -0.80949 -0.14451
vn -0.44368 -0.88794 -0.12128
vn -0.30642 -0.94761 -0.09021
vn -0.15792 -0.98619 -0.04998
vn -0.00000 0.99228 0.12403
vn 0.00000 0.99784 0.06565
vn -0.13902 0.98742 -0.07531
vn -0.26898 0.95253 -0.14261
vn -0.38963 0.89848 -0.20230
vn -0.50154 0.82660 -0.25533
vn -0.60498 0.73653 -0.30252
vn -0.69895 0.62694 -0.34412
vn -0.78065 0.49654 -0.37951
vn -0.84542 0.34568 -0.40715
vn -0.88757 0.17777 -0.42499
vn -0.90226 -0.00000 -0.43118
vn -0.88757 -0.17777 -0.42499
vn -0.84542 -0.34568 -0.40715
vn -0.78065 -0.49654 -0.37951
vn -0.69895 -0.62694 -0.34412
vn -0.60498 -0.73653 -0.30252
vn -0.50154 -0.82660 -0.25533
vn -0.38963 -0.89848 -0.20230
vn -0.26898 -0.95253 -0.14261
vn -0.13902 -0.98742 -0.07531
vn -0.00000 0.99228 0.12403
vn 0.00000 0.99784 0.06565
vn -0.11442 0.98865 -0.09737
vn -0.22084 0.95682 -0.18899
vn -0.31973 0.90671 -0.27504
vn -0.41195 0.83875 -0.35608
vn -0.49793 0.75183 -0.43223
vn -0.57691 0.64385 -0.50262
vn -0.64645 0.51289 -0.56484
vn -0.70225 0.35881 -0.61490
vn -0.73893 0.18514 -0.64785
vn -0.75178 -0.00000 -0.65941
vn -0.73893 -0.18514 -0.64785
vn -0.70225 -0.35881 -0.61490
vn -0.64645 -0.51289 -0.56484
vn -0.57691 -0.64385 -0.50262
vn -0.49793 -0.75183 -0.43223
vn -0.41195 -0.83875 -0.35608
vn -0.31973 -0.90671 -0.27504
vn -0.22084 -0.95682 -0.18899
vn -0.11442 -0.98865 -0.09737
vn -0.00000 0.99228 0.12403
vn 0.00000 0.99784 0.06565
vn -0.08517 0.98970 -0.11504
vn -0.16406 0.96009 -0.22654
vn -0.23718 0.91213 -0.33432
vn -0.30515 0.84549 -0.43822
vn -0.36816 0.75871 -0.53741
vn -0.42557 0.64980 -0.62980
vn -0.47558 0.51722 -0.71155
vn -0.51529 0.36139 -0.77709
vn -0.54116 0.18626 -0.82003
vn -0.55019 -0.00000 -0.83504
vn -0.54116 -0.18626 -0.82003
vn -0.51529 -0.36139 -0.77709
vn -0.47558 -0.51722 -0.71155
vn -0.42557 -0.64980 -0.62980
vn -0.36816 -0.75871 -0.53741
vn -0.30515 -0.84549 -0.43822
vn -0.23718 -0.91213 -0.33432
vn -0.16406 -0.96009 -0.22654
vn -0.08517 -0.98970 -0.11504
vn -0.00000 0.99228 0.12403
vn 0.00000 0.99784 0.06565
vn -0.05251 0.99046 -0.12738
vn -0.10097 0.96220 -0.25295
vn -0.14573 0.91507 -0.37604
vn -0.18704 0.84816 -0.49561
vn -0.22488 0.75998 -0.60980
vn -0.25878 0.64903 -0.71540
vn -0.28774 0.51464 -0.80768
vn -0.31027 0.35819 -0.88059
vn -0.32471 0.18406 -0.92773
vn -0.32970 -0.00000 -0.94409
vn -0.32471 -0.18406 -0.92773
vn -0.31027 -0.35819 -0.88059
vn -0.28774 -0.51464 -0.80768
vn -0.25878 -0.64903 -0.71540
vn -0.22488 -0.75998 -0.60980
vn -0.18704 -0.84816 -0.49561
vn -0.14573 -0.91507 -0.37604
vn -0.10097 -0.96220 -0.25295
vn -0.05251 -0.99046 -0.12738
vn -0.00000 0.99228 0.12403
vn 0.00000 0.99784 0.06565
vn -0.01774 0.99086 -0.13372
vn -0.03408 0.96321 -0.26657
vn -0.04913 0.91628 -0.39752
vn -0.06295 0.84881 -0.52494
vn -0.07550 0.75939 -0.64624
vn -0.08660 0.64694 -0.75760
vn -0.09594 0.51147 -0.85393
vn -0.10311 0.35494 -0.92918
vn -0.10764 0.18201 -0.97739
vn -0.10920 -0.00000 -0.99402
vn -0.10764 -0.18201 -0.97739
vn -0.10311 -0.35494 -0.92918
vn -0.09594 -0.51147 -0.85393
vn -0.08660 -0.64694 -0.75760
vn -0.07550 -0.75939 -0.64624
vn -0.06295 -0.84881 -0.52494
vn -0.04913 -0.91628 -0.39752
vn -0.03408 -0.96321 -0.26657
vn -0.01774 -0.99086 -0.13372
vn -0.00000 0.99228 0.12403
vn 0.00000 0.99784 0.06565
vn 0.01774 0.99086 -0.13372
vn 0.03408 0.96321 -0.26657
vn 0.04913 0.91628 -0.39752
vn 0.06295 0.84881 -0.52494
vn 0.07550 0.75939 -0.64624
vn 0.08660 0.64694 -0.75760
vn 0.09594 0.51147 -0.85393
vn 0.10311 0.35494 -0.92918
vn 0.10764 0.18201 -0.97739
vn 0.10920 0.00000 -0.99402
vn 0.10764 -0.18201 -0.97739
vn 0.10311 -0.35494 -0.92918
vn 0.09594 -0.51147 -0.85393
vn 0.08660 -0.64694 -0.75760
vn 0.07550 -0.75939 -0.64624
vn 0.06295 -0.84881 -0.52494
vn 0.04913 -0.91628 -0.39752
vn 0.03408 -0.96321 -0.26657
vn 0.01774 -0.99086 -0.13372
vn 0.00000 0.99228 0.12403
vn 0.00000 0.99784 0.06565
vn 0.05251 0.99046 -0.12738
vn 0.10097 0.96220 -0.25295
vn 0.14573 0.91507 -0.37604
vn 0.18704 0.84816 -0.49561
vn 0.22488 0.75998 -0.60980
vn 0.25878 0.64903 -0.71540
vn 0.28774 0.51464 -0.80768
vn 0.31027 0.35819 -0.88059
vn 0.32471 0.18406 -0.92773
vn 0.32970 0.00000 -0.94409
vn 0.32471 -0.18406 -0.92773
vn 0.31027 -0.35819 -0.88059
vn 0.28774 -0.51464 -0.80768
vn 0.25878 -0.64903 -0.71540
vn 0.22488 -0.75998 -0.60980
vn 0.18704 -0.84816 -0.49561
vn 0.14573 -0.91507 -0.37604
vn 0.10097 -0.96220 -0.25295
vn 0.05251 -0.99046 -0.12738
vn 0.00000 0.99228 0.12403
vn 0.00000 0.99784 0.06565
vn 0.08517 0.98970 -0.11504
vn 0.16406 0.96009 -0.22654
vn 0.23718 0.91213 -0.33432
vn 0.30515 0.84549 -0.43822
vn 0.36816 0.75871 -0.53741
vn 0.42557 0.64980 -0.62980
vn 0.47558 0.51722 -0.71155
vn 0.51529 0.36139 -0.77709
vn 0.54116 0.18626 -0.82003
vn 0.55019 0.00000 -0.83504
vn 0.54116 -0.18626 -0.82003
vn 0.51529 -0.36139 -0.77709
vn 0.47558 -0.51722 -0.71155
vn 0.42557 -0.64980 -0.62980
vn 0.36816 -0.75871 -0.53741
vn 0.30515 -0.84549 -0.43822
vn 0.23718 -0.91213 -0.33432
vn 0.16406 -0.96009 -0.22654
vn 0.08517 -0.98970 -0.11504
vn 0.00000 0.99228 0.12403
vn 0.00000 0.99784 0.06565
vn 0.11442 0.98865 -0.09737
vn 0.22084 0.95682 -0.18899
vn 0.31973 0.90671 -0.27504
vn 0.41195 0.83875 -0.35608
vn 0.49793 0.75183 -0.43223
vn 0.57691 0.64385 -0.50262
vn 0.64645 0.51289 -0.56484
vn 0.70225 0.35881 -0.61490
vn 0.73893 0.18514 -0.64785
vn 0.75178 0.00000 -0.65941
vn 0.73893 -0.18514 -0.64785
vn 0.70225 -0.35881 -0.61490
vn 0.64645 -0.51289 -0.56484
vn 0.57691 -0.64385 -0.50262
vn 0.49793 -0.75183 -0.43223
vn 0.41195 -0.83875 -0.35608
vn 0.31973 -0.90671 -0.27504
vn 0.22084 -0.95682 -0.18899
vn 0.11442 -0.98865 -0.09737
vn 0.00000 0.99228 0.12403
vn 0.00000 0.99784 0.06565
vn 0.13902 0.98742 -0.07531
vn 0.26898 0.95253 -0.14261
vn 0.38963 0.89848 -0.20230
vn 0.50154 0.82660 -0.25533
vn 0.60498 0.73653 -0.30252
vn 0.69895 0.62694 -0.34412
vn 0.78065 0.49654 -0.37951
vn 0.84542 0.34568 -0.40715
vn 0.88757 0.17777 -0.42499
vn 0.90226 0.00000 -0.43118
vn 0.88757 -0.17777 -0.42499
vn 0.84542 -0.34568 -0.40715
vn 0.78065 -0.49654 -0.37951
vn 0.69895 -0.62694 -0.34412
vn 0.60498 -0.73653 -0.30252
vn 0.50154 -0.82660 -0.25533
vn 0.38963 -0.89848 -0.20230
vn 0.26898 -0.95253 -0.14261
vn 0.13902 -0.98742 -0.07531
vn 0.00000 0.99228 0.12403
vn 0.00000 0.99784 0.06565
vn 0.15792 0.98619 -0.04998
vn 0.30642 0.94761 -0.09021
vn 0.44368 0.88794 -0.12128
vn 0.56907 0.80949 -0.14451
vn 0.68205 0.71327 -0.16139
vn 0.78131 0.59959 -0.17333
vn 0.86439 0.46892 -0.18147
vn 0.92785 0.32284 -0.18671
vn 0.96793 0.16475 -0.18963
vn 0.98167 0.00000 -0.19057
vn 0.96793 -0.16475 -0.18963
vn 0.92785 -0.32284 -0.18671
vn 0.86439 -0.46892 -0.18147
vn 0.78131 -0.59959 -0.17333
vn 0.68205 -0.71327 -0.16139
vn 0.56907 -0.80949 -0.14451
vn 0.44368 -0.88794 -0.12128
vn 0.30642 -0.94761 -0.09021
vn 0.15792 -0.98619 -0.04998
vn 0.00000 0.99228 0.12403
vn 0.00000 0.99784 0.06565
vn 0.17026 0.98514 -0.02265
vn 0.33156 0.94280 -0.03474
vn 0.47974 0.87662 -0.03740
vn 0.61219 0.79004 -0.03257
vn 0.72718 0.68608 -0.02263
vn 0.82338 0.56740 -0.01011
vn 0.89964 0.43662 0.00261
vn 0.95495 0.29646 0.01337
vn 0.98849 0.14987 0.02054
vn 0.99973 0.00000 0.02305
vn 0.98849 -0.14987 0.02054
vn 0.95495 -0.29646 0.01337
vn 0.89964 -0.43662 0.00261
vn 0.82338 -0.56740 -0.01011
vn 0.72718 -0.68608 -0.02263
vn 0.61219 -0.79004 -0.03257
vn 0.47974 -0.87662 -0.03740
vn 0.33156 -0.94280 -0.03474
vn 0.17026 -0.98514 -0.02265
vn 0.00000 0.99228 0.12403
vn 0.00000 0.99784 0.06565
vn 0.03294 0.99729 0.06580
vn 0.34325 0.93903 0.02019
vn 0.49684 0.86675 0.04349
vn 0.63121 0.77226 0.07198
vn 0.74348 0.66087 0.10236
vn 0.83276 0.53781 0.13146
vn 0.89968 0.40748 0.15664
vn 0.94575 0.27315 0.17591
vn 0.97259 0.13693 0.18796
vn 0.98138 0.00000 0.19205
vn 0.97259 -0.13693 0.18796
vn 0.94575 -0.27315 0.17591
vn 0.89968 -0.40748 0.15664
vn 0.83276 -0.53781 0.13146
vn 0.74348 -0.66087 0.10236
vn 0.63121 -0.77226 0.07198
vn 0.49684 -0.86675 0.04349
vn 0.34325 -0.93903 0.02019
vn 0.06164 0.99047 0.12313
vn 0.00000 0.99228 0.12403
f 1/1/1 22/22/22 23/23/23
f 1/1/1 23/23/23 2/2/2
f 2/2/2 23/23/23 24/24/24
f 2/2/2 24/24/24 3/3/3
f 3/3/3 24/24/24 25/25/25
f 3/3/3 25/25/25 4/4/4
f 4/4/4 25/25/25 26/26/26
f 4/4/4 26/26/26 5/5/5
f 5/5/5 26/26/26 27/27/27
f 5/5/5 27/27/27 6/6/6
f 6/6/6 27/27/27 28/28/28
f 6/6/6 28/28/28 7/7/7
f 7/7/7 28/28/28 29/29/29
f 7/7/7 29/29/29 8/8/8
f 8/8/8 29/29/29 30/30/30
f 8/8/8 30/30/30 9/9/9
f 9/9/9 30/30/30 31/31/31
f 9/9/9 31/31/31 10/10/10
f 10/10/10 31/31/31 32/32/32
f 10/10/10 32/32/32 11/11/11
f 11/11/11 32/32/32 33/33/33
f 11/11/11 33/33/33 12/12/12
f 12/12/12 33/33/33 34/34/34
f 12/12/12 34/34/34 13/13/13
f 13/13/13 34/34/34 35/35/35
f 13/13/13 35/35/35 14/14/14
f 14/14/14 35/35/35 36/36/36
f 14/14/14 36/36/36 15/15/15
f 15/15/15 36/36/36 37/37/37
f 15/15/15 37/37/37 16/16/16
f 16/16/16 37/37/37 38/38/38
f 16/16/16 38/38/38 17/17/17
f 17/17/17 38/38/38 39/39/39
f 17/17/17 39/39/39 18/18/18
f 18/18/18 39/39/39 40/40/40
f 18/18/18 40/40/40 19/19/19
f 19/19/19 40/40/40 41/41/41
f 19/19/19 41/41/41 20/20/20
f 20/20/20 41/41/41 42/42/42
f 20/20/20 42/42/42 21/21/21
f 22/22/22 43/43/43 44/44/44
f 22/22/22 44/44/44 23/23/23
f 23/23/23 44/44/44 45/45/45
f 23/23/23 45/45/45 24/24/24
f 24/24/24 45/45/45 46/46/46
f 24/24/24 46/46/46 25/25/25
f 25/25/25 46/46/46 47/47/47
f 25/25/25 47/47/47 26/26/26
f 26/26/26 47/47/47 48/48/48
f 26/26/26 48/48/48 27/27/27
f 27/27/27 48/48/48 49/49/49
f 27/27/27 49/49/49 28/28/28
f 28/28/28 49/49/49 50/50/50
f 28/28/28 50/50/50 29/29/29
f 29/29/29 50/50/50 51/51/51
f 29/29/29 51/51/51 30/30/30
f 30/30/30 51/51/51 52/52/52
f 30/30/30 52/52/52 31/31/31
f 31/31/31 52/52/52 53/53/53
f 31/31/31 53/53/53 32/32/32
f 32/32/32 53/53/53 54/54/54
f 32/32/32 54/54/54 33/33/33
f 33/33/33 54/54/54 55/55/55
f 33/33/33 55/55/55 34/34/34
f 34/34/34 55/55/55 56/56/56
f 34/34/34 56/56/56 35/35/35
f 35/35/35 56/56/56 57/57/57
f 35/35/35 57/57/57 36/36/36
f 36/36/36 57/57/57 58/58/58
f 36/36/36 58/58/58 37/37/37
f 37/37/37 58/58/58 59/59/59
f 37/37/37 59/59/59 38/38/38
f 38/38/38 59/59/59 60/60/60
f 38/38/38 60/60/60 39/39/39
f 39/39/39 60/60/60 61/61/61
f 39/39/39 61/61/61 40/40/40
f 40/40/40 61/61/61 62/62/62
f 40/40/40 62/62/62 41/41/41
f 41/41/41 62/62/62 63/63/63
f 41/41/41 63/63/63 42/42/42
f 43/43/43 64/64/64 65/65/65
f 43/43/43 65/65/65 44/44/44
f 44/44/44 65/65/65 66/66/66
f 44/44/44 66/66/66 45/45/45
f 45/45/45 66/66/66 67/67/67
f 45/45/45 67/67/67 46/46/46
f 46/46/46 67/67/67 68/68/68
f 46/46/46 68/68/68 47/47/47
f 47/47/47 68/68/68 69/69/69
f 47/47/47 69/69/69 48/48/48
f 48/48/48 69/69/69 70/70/70
f 48/48/48 70/70/70 49/49/49
f 49/49/49 70/70/70 71/71/71
f 49/49/49 71/71/71 50/50/50
f 50/50/50 71/71/71 72/72/72
f 50/50/50 72/72/72 51/51/51
f 51/51/51 72/72/72 73/73/73
f 51/51/51 73/73/73 52/52/52
f 52/52/52 73/73/73 74/74/74
f 52/52/52 74/74/74 53/53/53
f 53/53/53 74/74/74 75/75/75
f 53/53/53 75/75/75 54/54/54
f 54/54/54 75/75/75 76/76/76
f 54/54/54 76/76/76 55/55/55
f 55/55/55 76/76/76 77/77/77
f 55/55/55 77/77/77 56/56/56
f 56/56/56 77/77/77 78/78/78
f 56/56/56 78/78/78 57/57/57
f 57/57/57 78/78/78 79/79/79
f 57/57/57 79/79/79 58/58/58
f 58/58/58 79/79/79 80/80/80
f 58/58/58 80/80/80 59/59/59
f 59/59/59 80/80/80 81/81/81
f 59/59/59 81/81/81 60/60/60
f 60/60/60 81/81/81 82/82/82
f 60/60/60 82/82/82 61/61/61
f 61/61/61 82/82/82 83/83/83
f 61/61/61 83/83/83 62/62/62
f 62/62/62 83/83/83 84/84/84
f 62/62/62 84/84/84 63/63/63
f 64/64/64 85/85/85 86/86/86
f 64/64/64 86/86/86 65/65/65
f 65/65/65 86/86/86 87/87/87
f 65/65/65 87/87/87 66/66/66
f 66/66/66 87/87/87 88/88/88
f 66/66/66 88/88/88 67/67/67
f 67/67/67 88/88/88 89/89/89
f 67/67/67 89/89/89 68/68/68
f 68/68/68 89/89/89 90/90/90
f 68/68/68 90/90/90 69/69/69
f 69/69/69 90/90/90 91/91/91
f 69/69/69 91/91/91 70/70/70
f 70/70/70 91/91/91 92/92/92
f 70/70/70 92/92/92 71/71/71
f 71/71/71 92/92/92 93/93/93
f 71/71/71 93/93/93 72/72/72
f 72/72/72 93/93/93 94/94/94
f 72/72/72 94/94/94 73/73/73
f 73/73/73 94/94/94 95/95/95
f 73/73/73 95/95/95 74/74/74
f 74/74/74 95/95/95 96/96/96
f 74/74/74 96/96/96 75/75/75
f 75/75/75 96/96/96 97/97/97
f 75/75/75 97/97/97 76/76/76
f 76/76/76 97/97/97 98/98/98
f 76/76/76 98/98/98 77/77/77
f 77/77/77 98/98/98 99/99/99
f 77/77/77 99/99/99 78/78/78
f 78/78/78 99/99/99 100/100/100
f 78/78/78 100/100/100 79/79/79
f 79/79/79 100/100/100 101/101/101
f 79/79/79 101/101/101 80/80/80
f 80/80/80 101/101/101 102/102/102
f 80/80/80 102/102/102 81/81/81
f 81/81/81 102/102/102 103/103/103
f 81/81/81 103/103/103 82/82/82
f 82/82/82 103/103/103 104/104/104
f 82/82/82 104/104/104 83/83/83
f 83/83/83 104/104/104 105/105/105
f 83/83/83 105/105/105 84/84/84
f 85/85/85 106/106/106 107/107/107
f 85/85/85 107/107/107 86/86/86
f 86/86/86 107/107/107 108/108/108
f 86/86/86 108/108/108 87/87/87
f 87/87/87 108/108/108 109/109/109
f 87/87/87 109/109/109 88/88/88
f 88/88/88 109/109/109 110/110/110
f 88/88/88 110/110/110 89/89/89
f 89/89/89 110/110/110 111/111/111
f 89/89/89 111/111/111 90/90/90
f 90/90/90 111/111/111 112/112/112
f 90/90/90 112/112/112 91/91/91
f 91/91/91 112/112/112 113/113/113
f 91/91/91 113/113/113 92/92/92
f 92/92/92 113/113/113 114/114/114
f 92/92/92 114/114/114 93/93/93
f 93/93/93 114/114/114 115/115/115
f 93/93/93 115/115/115 94/94/94
f 94/94/94 115/115/115 116/116/116
f 94/94/94 116/116/116 95/95/95
f 95/95/95 116/116/116 117/117/117
f 95/95/95 117/117/117 96/96/96
f 96/96/96 117/117/117 118/118/118
f 96/96/96 118/118/118 97/97/97
f 97/97/97 118/118/118 119/119/119
f 97/97/97 119/119/119 98/98/98
f 98/98/98 119/119/119 120/120/120
f 98/98/98 120/120/120 99/99/99
f 99/99/99 120/120/120 121/121/121
f 99/99/99 121/121/121 100/100/100
f 100/100/100 121/121/121 122/122/122
f 100/100/100 122/122/122 101/101/101
f 101/101/101 122/122/122 123/123/123
f 101/101/101 123/123/123 102/102/102
f 102/102/102 123/123/123 124/124/124
f 102/102/102 124/124/124 103/103/103
f 103/103/103 124/124/124 125/125/125
f 103/103/103 125/125/125 104/104/104
f 104/104/104 125/125/125 126/126/126
f 104/104/104 126/126/126 105/105/105
f 106/106/106 127/127/127 128/128/128
f 106/106/106 128/128/128 107/107/107
f 107/107/107 128/128/128 129/129/129
f 107/107/107 129/129/129 108/108/108
f 108/108/108 129/129/129 130/130/130
f 108/108/108 130/130/130 109/109/109
f 109/109/109 130/130/130 131/131/131
f 109/109/109 131/131/131 110/110/110
f 110/110/110 131/131/131 132/132/132
f 110/110/110 132/132/132 111/111/111
f 111/111/111 132/132/132 133/133/133
f 111/111/111 133/133/133 112/112/112
f 112/112/112 133/133/133 134/134/134
f 112/112/112 134/134/134 113/113/113
f 113/113/113 134/134/134 135/135/135
f 113/113/113 135/135/135 114/114/114
f 114/114/114 135/135/135 136/136/136
f 114/114/114 136/136/136 115/115/115
f 115/115/115 136/136/136 137/137/137
f 115/115/115 137/137/137 116/116/116
f 116/116/116 137/137/137 138/138/138
f 116/116/116 138/138/138 117/117/117
f 117/117/117 138/138/138 139/139/139
f 117/117/117 139/139/139 118/118/118
f 118/118/118 139/139/139 140/140/140
f 118/118/118 140/140/140 119/119/119
f 119/119/119 140/140/140 141/141/141
f 119/119/119 141/141/141 120/120/120
f 120/120/120 141/141/141 142/142/142
f 120/120/120 142/142/142 121/121/121
f 121/121/121 142/142/142 143/143/143
f 121/121/121 143/143/143 122/122/122
f 122/122/122 143/143/143 144/144/144
f 122/122/122 144/144/144 123/123/123
f 123/123/123 144/144/144 145/145/145
f 123/123/123 145/145/145 124/124/124
f 124/124/124 145/145/145 146/146/146
f 124/124/124 146/146/146 125/125/125
f 125/125/125 146/146/146 147/147/147
f 125/125/125 147/147/147 126/126/126
f 127/127/127 148/148/148 149/149/149
f 127/127/127 149/149/149 128/128/128
f 128/128/128 149/149/149 150/150/150
f 128/128/128 150/150/150 129/129/129
f 129/129/129 150/150/150 151/151/151
f 129/129/129 151/151/151 130/130/130
f 130/130/130 151/151/151 152/152/152
f 130/130/130 152/152/152 131/131/131
f 131/131/131 152/152/152 153/153/153
f 131/131/131 153/153/153 132/132/132
f 132/132/132 153/153/153 154/154/154
f 132/132/132 154/154/154 133/133/133
f 133/133/133 154/154/154 155/155/155
f 133/133/133 155/155/155 134/134/134
f 134/134/134 155/155/155 156/156/156
f 134/134/134 156/156/156 135/135/135
f 135/135/135 156/156/156 157/157/157
f 135/135/135 157/157/157 136/136/136
f 136/136/136 157/157/157 158/158/158
f 136/136/136 158/158/158 137/137/137
f 137/137/137 158/158/158 159/159/159
f 137/137/137 159/159/159 138/138/138
f 138/138/138 159/159/159 160/160/160
f 138/138/138 160/160/160 139/139/139
f 139/139/139 160/160/160 161/161/161
f 139/139/139 161/161/161 140/140/140
f 140/140/140 161/161/161 162/162/162
f 140/140/140 162/162/162 141/141/141
f 141/141/141 162/162/162 163/163/163
f 141/141/141 163/163/163 142/142/142
f 142/142/142 163/163/163 164/164/164
f 142/142/142 164/164/164 143/143/143
f 143/143/143 164/164/164 165/165/165
f 143/143/143 165/165/165 144/144/144
f 144/144/144 165/165/165 166/166/166
f 144/144/144 166/166/166 145/145/145
f 145/145/145 166/166/166 167/167/167
f 145/145/145 167/167/167 146/146/146
f 146/146/146 167/167/167 168/168/168
f 146/146/146 168/168/168 147/147/147
f 148/148/148 169/169/169 170/170/170
f 148/148/148 170/170/170 149/149/149
f 149/149/149 170/170/170 171/171/171
f 149/149/149 171/171/171 150/150/150
f 150/150/150 171/171/171 172/172/172
f 150/150/150 172/172/172 151/151/151
f 151/151/151 172/172/172 173/173/173
f 151/151/151 173/173/173 152/152/152
f 152/152/152 173/173/173 174/174/174
f 152/152/152 174/174/174 153/153/153
f 153/153/153 174/174/174 175/175/175
f 153/153/153 175/175/175 154/154/154
f 154/154/154 175/175/175 176/176/176
f 154/154/154 176/176/176 155/155/155
f 155/155/155 176/176/176 177/177/177
f 155/155/155 177/177/177 156/156/156
f 156/156/156 177/177/177 178/178/178
f 156/156/156 178/178/178 157/157/157
f 157/157/157 178/178/178 179/179/179
f 157/157/157 179/179/179 158/158/158
f 158/158/158 179/179/179 180/180/180
f 158/158/158 180/180/180 159/159/159
f 159/159/159 180/180/180 181/181/181
f 159/159/159 181/181/181 160/160/160
f 160/160/160 181/181/181 182/182/182
f 160/160/160 182/182/182 161/161/161
f 161/161/161 182/182/182 183/183/183
f 161/161/161 183/183/183 162/162/162
f 162/162/162 183/183/183 184/184/184
f 162/162/162 184/184/184 163/163/163
f 163/163/163 184/184/184 185/185/185
f 163/163/163 185/185/185 164/164/164
f 164/164/164 185/185/185 186/186/186
f 164/164/164 186/186/186 165/165/165
f 165/165/165 186/186/186 187/187/187
f 165/165/165 187/187/187 166/166/166
f 166/166/166 187/187/187 188/188/188
f 166/166/166 188/188/188 167/167/167
f 167/167/167 188/188/188 189/189/189
f 167/167/167 189/189/189 168/168/168
f 169/169/169 190/190/190 191/191/191
f 169/169/169 191/191/191 170/170/170
f 170/170/170 191/191/191 192/192/192
f 170/170/170 192/192/192 171/171/171
f 171/171/171 192/192/192 193/193/193
f 171/171/171 193/193/193 172/172/172
f 172/172/172 193/193/193 194/194/194
f 172/172/172 194/194/194 173/173/173
f 173/173/173 194/194/194 195/195/195
f 173/173/173 195/195/195 174/174/174
f 174/174/174 195/195/195 196/196/196
f 174/174/174 196/196/196 175/175/175
f 175/175/175 196/196/196 197/197/197
f 175/175/175 197/197/197 176/176/176
f 176/176/176 197/197/197 198/198/198
f 176/176/176 198/198/198 177/177/177
f 177/177/177 198/198/198 199/199/199
f 177/177/177 199/199/199 178/178/178
f 178/178/178 199/199/199 200/200/200
f 178/178/178 200/200/200 179/179/179
f 179/179/179 200/200/200 201/201/201
f 179/179/179 201/201/201 180/180/180
f 180/180/180 201/201/201 202/202/202
f 180/180/180 202/202/202 181/181/181
f 181/181/181 202/202/202 203/203/203
f 181/181/181 203/203/203 182/182/182
f 182/182/182 203/203/203 204/204/204
f 182/182/182 204/204/204 183/183/183
f 183/183/183 204/204/204 205/205/205
f 183/183/183 205/205/205 184/184/184
f 184/184/184 205/205/205 206/206/206
f 184/184/184 206/206/206 185/185/185
f 185/185/185 206/206/206 207/207/207
f 185/185/185 207/207/207 186/186/186
f 186/186/186 207/207/207 208/208/208
f 186/186/186 208/208/208 187/187/187
f 187/187/187 208/208/208 209/209/209
f 187/187/187 209/209/209 188/188/188
f 188/188/188 209/209/209 210/210/210
f 188/188/188 210/210/210 189/189/189
f 190/190/190 211/211/211 212/212/212
f 190/190/190 212/212/212 191/191/191
f 191/191/191 212/212/212 213/213/213
f 191/191/191 213/213/213 192/192/192
f 192/192/192 213/213/213 214/214/214
f 192/192/192 214/214/214 193/193/193
f 193/193/193 214/214/214 215/215/215
f 193/193/193 215/215/215 194/194/194
f 194/194/194 215/215/215 216/216/216
f 194/194/194 216/216/216 195/195/195
f 195/195/195 216/216/216 217/217/217
f 195/195/195 217/217/217 196/196/196
f 196/196/196 217/217/217 218/218/218
f 196/196/196 218/218/218 197/197/197
f 197/197/197 218/218/218 219/219/219
f 197/197/197 219/219/219 198/198/198
f 198/198/198 219/219/219 220/220/220
f 198/198/198 220/220/220 199/199/199
f 199/199/199 220/220/220 221/221/221
f 199/199/199 221/221/221 200/200/200
f 200/200/200 221/221/221 222/222/222
f 200/200/200 222/222/222 201/201/201
f 201/201/201 222/222/222 223/223/223
f 201/201/201 223/223/223 202/202/202
f 202/202/202 223/223/223 224/224/224
f 202/202/202 224/224/224 203/203/203
f 203/203/203 224/224/224 225/225/225
f 203/203/203 225/225/225 204/204/204
f 204/204/204 225/225/225 226/226/226
f 204/204/204 226/226/226 205/205/205
f 205/205/205 226/226/226 227/227/227
f 205/205/205 227/227/227 206/206/206
f 206/206/206 227/227/227 228/228/228
f 206/206/206 228/228/228 207/207/207
f 207/207/207 228/228/228 229/229/229
f 207/207/207 229/229/229 208/208/208
f 208/208/208 229/229/229 230/230/230
f 208/208/208 230/230/230 209/209/209
f 209/209/209 230/230/230 231/231/231
f 209/209/209 231/231/231 210/210/210
f 211/211/211 232/232/232 233/233/233
f 211/211/211 233/233/233 212/212/212
f 212/212/212 233/233/233 234/234/234
f 212/212/212 234/234/234 213/213/213
f 213/213/213 234/234/234 235/235/235
f 213/213/213 235/235/235 214/214/214
f 214/214/214 235/235/235 236/236/236
f 214/214/214 236/236/236 215/215/215
f 215/215/215 236/236/236 237/237/237
f 215/215/215 237/237/237 216/216/216
f 216/216/216 237/237/237 238/238/238
f 216/216/216 238/238/238 217/217/217
f 217/217/217 238/238/238 239/239/239
f 217/217/217 239/239/239 218/218/218
f 218/218/218 239/239/239 240/240/240
f 218/218/218 240/240/240 219/219/219
f 219/219/219 240/240/240 241/241/241
f 219/219/219 241/241/241 220/220/220
f 220/220/220 241/241/241 242/242/242
f 220/220/220 242/242/242 221/221/221
f 221/221/221 242/242/242 243/243/243
f 221/221/221 243/243/243 222/222/222
f 222/222/222 243/243/243 244/244/244
f 222/222/222 244/244/244 223/223/223
f 223/223/223 244/244/244 245/245/245
f 223/223/223 245/245/245 224/224/224
f 224/224/224 245/245/245 246/246/246
f 224/224/224 246/246/246 225/225/225
f 225/225/225 246/246/246 247/247/247
f 225/225/225 247/247/247 226/226/226
f 226/226/226 247/247/247 248/248/248
f 226/226/226 248/248/248 227/227/227
f 227/227/227 248/248/248 249/249/249
f 227/227/227 249/249/249 228/228/228
f 228/228/228 249/249/249 250/250/250
f 228/228/228 250/250/250 229/229/229
f 229/229/229 250/250/250 251/251/251
f 229/229/229 251/251/251 230/230/230
f 230/230/230 251/251/251 252/252/252
f 230/230/230 252/252/252 231/231/231
f 232/232/232 253/253/253 254/254/254
f 232/232/232 254/254/254 233/233/233
f 233/233/233 254/254/254 255/255/255
f 233/233/233 255/255/255 234/234/234
f 234/234/234 255/255/255 256/256/256
f 234/234/234 256/256/256 235/235/235
f 235/235/235 256/256/256 257/257/257
f 235/235/235 257/257/257 236/236/236
f 236/236/236 257/257/257 258/258/258
f 236/236/236 258/258/258 237/237/237
f 237/237/237 258/258/258 259/259/259
f 237/237/237 259/259/259 238/238/238
f 238/238/238 259/259/259 260/260/260
f 238/238/238 260/260/260 239/239/239
f 239/239/239 260/260/260 261/261/261
f 239/239/239 261/261/261 240/240/240
f 240/240/240 261/261/261 262/262/262
f 240/240/240 262/262/262 241/241/241
f 241/241/241 262/262/262 263/263/263
f 241/241/241 263/263/263 242/242/242
f 242/242/242 263/263/263 264/264/264
f 242/242/242 264/264/264 243/243/243
f 243/243/243 264/264/264 265/265/265
f 243/243/243 265/265/265 244/244/244
f 244/244/244 265/265/265 266/266/266
f 244/244/244 266/266/266 245/245/245
f 245/245/245 266/266/266 267/267/267
f 245/245/245 267/267/267 246/246/246
f 246/246/246 267/267/267 268/268/268
f 246/246/246 268/268/268 247/247/247
f 247/247/247 268/268/268 269/269/269
f 247/247/247 269/269/269 248/248/248
f 248/248/248 269/269/269 270/270/270
f 248/248/248 270/270/270 249/249/249
f 249/249/249 270/270/270 271/271/271
f 249/249/249 271/271/271 250/250/250
f 250/250/250 271/271/271 272/272/272
f 250/250/250 272/272/272 251/251/251
f 251/251/251 272/272/272 273/273/273
f 251/251/251 273/273/273 252/252/252
f 253/253/253 274/274/274 275/275/275
f 253/253/253 275/275/275 254/254/254
f 254/254/254 275/275/275 276/276/276
f 254/254/254 276/276/276 255/255/255
f 255/255/255 276/276/276 277/277/277
f 255/255/255 277/277/277 256/256/256
f 256/256/256 277/277/277 278/278/278
f 256/256/256 278/278/278 257/257/257
f 257/257/257 278/278/278 279/279/279
f 257/257/257 279/279/279 258/258/258
f 258/258/258 279/279/279 280/280/280
f 258/258/258 280/280/280 259/259/259
f 259/259/259 280/280/280 281/281/281
f 259/259/259 281/281/281 260/260/260
f 260/260/260 281/281/281 282/282/282
f 260/260/260 282/282/282 261/261/261
f 261/261/261 282/282/282 283/283/283
f 261/261/261 283/283/283 262/262/262
f 262/262/262 283/283/283 284/284/284
f 262/262/262 284/284/284 263/263/263
f 263/263/263 284/284/284 285/285/285
f 263/263/263 285/285/285 264/264/264
f 264/264/264 285/285/285 286/286/286
f 264/264/264 286/286/286 265/265/265
f 265/265/265 286/286/286 287/287/287
f 265/265/265 287/287/287 266/266/266
f 266/266/266 287/287/287 288/288/288
f 266/266/266 288/288/288 267/267/267
f 267/267/267 288/288/288 289/289/289
f 267/267/267 289/289/289 268/268/268
f 268/268/268 289/289/289 290/290/290
f 268/268/268 290/290/290 269/269/269
f 269/269/269 290/290/290 291/291/291
f 269/269/269 291/291/291 270/270/270
f 270/270/270 291/291/291 292/292/292
f 270/270/270 292/292/292 271/271/271
f 271/271/271 292/292/292 293/293/293
f 271/271/271 293/293/293 272/272/272
f 272/272/272 293/293/293 294/294/294
f 272/272/272 294/294/294 273/273/273
f 274/274/274 295/295/295 296/296/296
f 274/274/274 296/296/296 275/275/275
f 275/275/275 296/296/296 297/297/297
f 275/275/275 297/297/297 276/276/276
f 276/276/276 297/297/297 298/298/298
f 276/276/276 298/298/298 277/277/277
f 277/277/277 298/298/298 299/299/299
f 277/277/277 299/299/299 278/278/278
f 278/278/278 299/299/299 300/300/300
f 278/278/278 300/300/300 279/279/279
f 279/279/279 300/300/300 301/301/301
f 279/279/279 301/301/301 280/280/280
f 280/280/280 301/301/301 302/302/302
f 280/280/280 302/302/302 281/281/281
f 281/281/281 302/302/302 303/303/303
f 281/281/281 303/303/303 282/282/282
f 282/282/282 303/303/303 304/304/304
f 282/282/282 304/304/304 283/283/283
f 283/283/283 304/304/304 305/305/305
f 283/283/283 305/305/305 284/284/284
f 284/284/284 305/305/305 306/306/306
f 284/284/284 306/306/306 285/285/285
f 285/285/285 306/306/306 307/307/307
f 285/285/285 307/307/307 286/286/286
f 286/286/286 307/307/307 308/308/308
f 286/286/286 308/308/308 287/287/287
f 287/287/287 308/308/308 309/309/309
f 287/287/287 309/309/309 288/288/288
f 288/288/288 309/309/309 310/310/310
f 288/288/288 310/310/310 289/289/289
f 289/289/289 310/310/310 311/311/311
f 289/289/289 311/311/311 290/290/290
f 290/290/290 311/311/311 312/312/312
f 290/290/290 312/312/312 291/291/291
f 291/291/291 312/312/312 313/313/313
f 291/291/291 313/313/313 292/292/292
f 292/292/292 313/313/313 314/314/314
f 292/292/292 314/314/314 293/293/293
f 293/293/293 314/314/314 315/315/315
f 293/293/293 315/315/315 294/294/294
f 295/295/295 316/316/316 317/317/317
f 295/295/295 317/317/317 296/296/296
f 296/296/296 317/317/317 318/318/318
f 296/296/296 318/318/318 297/297/297
f 297/297/297 318/318/318 319/319/319
f 297/297/297 319/319/319 298/298/298
f 298/298/298 319/319/319 320/320/320
f 298/298/298 320/320/320 299/299/299
f 299/299/299 320/320/320 321/321/321
f 299/299/299 321/321/321 300/300/300
f 300/300/300 321/321/321 322/322/322
f 300/300/300 322/322/322 301/301/301
f 301/301/301 322/322/322 323/323/323
f 301/301/301 323/323/323 302/302/302
f 302/302/302 323/323/323 324/324/324
f 302/302/302 324/324/324 303/303/303
f 303/303/303 324/324/324 325/325/325
f 303/303/303 325/325/325 304/304/304
f 304/304/304 325/325/325 326/326/326
f 304/304/304 326/326/326 305/305/305
f 305/305/305 326/326/326 327/327/327
f 305/305/305 327/327/327 306/306/306
f 306/306/306 327/327/327 328/328/328
f 306/306/306 328/328/328 307/307/307
f 307/307/307 328/328/328 329/329/329
f 307/307/307 329/329/329 308/308/308
f 308/308/308 329/329/329 330/330/330
f 308/308/308 330/330/330 309/309/309
f 309/309/309 330/330/330 331/331/331
f 309/309/309 331/331/331 310/310/310
f 310/310/310 331/331/331 332/332/332
f 310/310/310 332/332/332 311/311/311
f 311/311/311 332/332/332 333/333/333
f 311/311/311 333/333/333 312/312/312
f 312/312/312 333/333/333 334/334/334
f 312/312/312 334/334/334 313/313/313
f 313/313/313 334/334/334 335/335/335
f 313/313/313 335/335/335 314/314/314
f 314/314/314 335/335/335 336/336/336
f 314/314/314 336/336/336 315/315/315
f 316/316/316 337/337/337 338/338/338
f 316/316/316 338/338/338 317/317/317
f 317/317/317 338/338/338 339/339/339
f 317/317/317 339/339/339 318/318/318
f 318/318/318 339/339/339 340/340/340
f 318/318/318 340/340/340 319/319/319
f 319/319/319 340/340/340 341/341/341
f 319/319/319 341/341/341 320/320/320
f 320/320/320 341/341/341 342/342/342
f 320/320/320 342/342/342 321/321/321
f 321/321/321 342/342/342 343/343/343
f 321/321/321 343/343/343 322/322/322
f 322/322/322 343/343/343 344/344/344
f 322/322/322 344/344/344 323/323/323
f 323/323/323 344/344/344 345/345/345
f 323/323/323 345/345/345 324/324/324
f 324/324/324 345/345/345 346/346/346
f 324/324/324 346/346/346 325/325/325
f 325/325/325 346/346/346 347/347/347
f 325/325/325 347/347/347 326/326/326
f 326/326/326 347/347/347 348/348/348
f 326/326/326 348/348/348 327/327/327
f 327/327/327 348/348/348 349/349/349
f 327/327/327 349/349/349 328/328/328
f 328/328/328 349/349/349 350/350/350
f 328/328/328 350/350/350 329/329/329
f 329/329/329 350/350/350 351/351/351
f 329/329/329 351/351/351 330/330/330
f 330/330/330 351/351/351 352/352/352
f 330/330/330 352/352/352 331/331/331
f 331/331/331 352/352/352 353/353/353
f 331/331/331 353/353/353 332/332/332
f 332/332/332 353/353/353 354/354/354
f 332/332/332 354/354/354 333/333/333
f 333/333/333 354/354/354 355/355/355
f 333/333/333 355/355/355 334/334/334
f 334/334/334 355/355/355 356/356/356
f 334/334/334 356/356/356 335/335/335
f 335/335/335 356/356/356 357/357/357
f 335/335/335 357/357/357 336/336/336
f 337/337/337 358/358/358 359/359/359
f 337/337/337 359/359/359 338/338/338
f 338/338/338 359/359/359 360/360/360
f 338/338/338 360/360/360 339/339/339
f 339/339/339 360/360/360 361/361/361
f 339/339/339 361/361/361 340/340/340
f 340/340/340 361/361/361 362/362/362
f 340/340/340 362/362/362 341/341/341
f 341/341/341 362/362/362 363/363/363
f 341/341/341 363/363/363 342/342/342
f 342/342/342 363/363/363 364/364/364
f 342/342/342 364/364/364 343/343/343
f 343/343/343 364/364/364 365/365/365
f 343/343/343 365/365/365 344/344/344
f 344/344/344 365/365/365 366/366/366
f 344/344/344 366/366/366 345/345/345
f 345/345/345 366/366/366 367/367/367
f 345/345/345 367/367/367 346/346/346
f 346/346/346 367/367/367 368/368/368
f 346/346/346 368/368/368 347/347/347
f 347/347/347 368/368/368 369/369/369
f 347/347/347 369/369/369 348/348/348
f 348/348/348 369/369/369 370/370/370
f 348/348/348 370/370/370 349/349/349
f 349/349/349 370/370/370 371/371/371
f 349/349/349 371/371/371 350/350/350
f 350/350/350 371/371/371 372/372/372
f 350/350/350 372/372/372 351/351/351
f 351/351/351 372/372/372 373/373/373
f 351/351/351 373/373/373 352/352/352
f 352/352/352 373/373/373 374/374/374
f 352/352/352 374/374/374 353/353/353
f 353/353/353 374/374/374 375/375/375
f 353/353/353 375/375/375 354/354/354
f 354/354/354 375/375/375 376/376/376
f 354/354/354 376/376/376 355/355/355
f 355/355/355 376/376/376 377/377/377
f 355/355/355 377/377/377 356/356/356
f 356/356/356 377/377/377 378/378/378
f 356/356/356 378/378/378 357/357/357
f 358/358/358 379/379/379 380/380/380
f 358/358/358 380/380/380 359/359/359
f 359/359/359 380/380/380 381/381/381
f 359/359/359 381/381/381 360/360/360
f 360/360/360 381/381/381 382/382/382
f 360/360/360 382/382/382 361/361/361
f 361/361/361 382/382/382 383/383/383
f 361/361/361 383/383/383 362/362/362
f 362/362/362 383/383/383 384/384/384
f 362/362/362 384/384/384 363/363/363
f 363/363/363 384/384/384 385/385/385
f 363/363/363 385/385/385 364/364/364
f 364/364/364 385/385/385 386/386/386
f 364/364/364 386/386/386 365/365/365
f 365/365/365 386/386/386 387/387/387
f 365/365/365 387/387/387 366/366/366
f 366/366/366 387/387/387 388/388/388
f 366/366/366 388/388/388 367/367/367
f 367/367/367 388/388/388 389/389/389
f 367/367/367 389/389/389 368/368/368
f 368/368/368 389/389/389 390/390/390
f 368/368/368 390/390/390 369/369/369
f 369/369/369 390/390/390 391/391/391
f 369/369/369 391/391/391 370/370/370
f 370/370/370 391/391/391 392/392/392
f 370/370/370 392/392/392 371/371/371
f 371/371/371 392/392/392 393/393/393
f 371/371/371 393/393/393 372/372/372
f 372/372/372 393/393/393 394/394/394
f 372/372/372 394/394/394 373/373/373
f 373/373/373 394/394/394 395/395/395
f 373/373/373 395/395/395 374/374/374
f 374/374/374 395/395/395 396/396/396
f 374/374/374 396/396/396 375/375/375
f 375/375/375 396/396/396 397/397/397
f 375/375/375 397/397/397 376/376/376
f 376/376/376 397/397/397 398/398/398
f 376/376/376 398/398/398 377/377/377
f 377/377/377 398/398/398 399/399/399
f 377/377/377 399/399/399 378/378/378
f 379/379/379 400/400/400 401/401/401
f 379/379/379 401/401/401 380/380/380
f 380/380/380 401/401/401 402/402/402
f 380/380/380 402/402/402 381/381/381
f 381/381/381 402/402/402 403/403/403
f 381/381/381 403/403/403 382/382/382
f 382/382/382 403/403/403 404/404/404
f 382/382/382 404/404/404 383/383/383
f 383/383/383 404/404/404 405/405/405
f 383/383/383 405/405/405 384/384/384
f 384/384/384 405/405/405 406/406/406
f 384/384/384 406/406/406 385/385/385
f 385/385/385 406/406/406 407/407/407
f 385/385/385 407/407/407 386/386/386
f 386/386/386 407/407/407 408/408/408
f 386/386/386 408/408/408 387/387/387
f 387/387/387 408/408/408 409/409/409
f 387/387/387 409/409/409 388/388/388
f 388/388/388 409/409/409 410/410/410
f 388/388/388 410/410/410 389/389/389
f 389/389/389 410/410/410 411/411/411
f 389/389/389 411/411/411 390/390/390
f 390/390/390 411/411/411 412/412/412
f 390/390/390 412/412/412 391/391/391
f 391/391/391 412/412/412 413/413/413
f 391/391/391 413/413/413 392/392/392
f 392/392/392 413/413/413 414/414/414
f 392/392/392 414/414/414 393/393/393
f 393/393/393 414/414/414 415/415/415
f 393/393/393 415/415/415 394/394/394
f 394/394/394 415/415/415 416/416/416
f 394/394/394 416/416/416 395/395/395
f 395/395/395 416/416/416 417/417/417
f 395/395/395 417/417/417 396/396/396
f 396/396/396 417/417/417 418/418/418
f 396/396/396 418/418/418 397/397/397
f 397/397/397 418/418/418 419/419/419
f 397/397/397 419/419/419 398/398/398
f 398/398/398 419/419/419 420/420/420
f 398/398/398 420/420/420 399/399/399
f 400/400/400 421/421/421 422/422/422
f 400/400/400 422/422/422 401/401/401
f 401/401/401 422/422/422 423/423/423
f 401/401/401 423/423/423 402/402/402
f 402/402/402 423/423/423 424/424/424
f 402/402/402 424/424/424 403/403/403
f 403/403/403 424/424/424 425/425/425
f 403/403/403 425/425/425 404/404/404
f 404/404/404 425/425/425 426/426/426
f 404/404/404 426/426/426 405/405/405
f 405/405/405 426/426/426 427/427/427
f 405/405/405 427/427/427 406/406/406
f 406/406/406 427/427/427 428/428/428
f 406/406/406 428/428/428 407/407/407
f 407/407/407 428/428/428 429/429/429
f 407/407/407 429/429/429 408/408/408
f 408/408/408 429/429/429 430/430/430
f 408/408/408 430/430/430 409/409/409
f 409/409/409 430/430/430 431/431/431
f 409/409/409 431/431/431 410/410/410
f 410/410/410 431/431/431 432/432/432
f 410/410/410 432/432/432 411/411/411
f 411/411/411 432/432/432 433/433/433
f 411/411/411 433/433/433 412/412/412
f 412/412/412 433/433/433 434/434/434
f 412/412/412 434/434/434 413/413/413
f 413/413/413 434/434/434 435/435/435
f 413/413/413 435/435/435 414/414/414
f 414/414/414 435/435/435 436/436/436
f 414/414/414 436/436/436 415/415/415
f 415/415/415 436/436/436 437/437/437
f 415/415/415 437/437/437 416/416/416
f 416/416/416 437/437/437 438/438/438
f 416/416/416 438/438/438 417/417/417
f 417/417/417 438/438/438 439/439/439
f 417/417/417 439/439/439 418/418/418
f 418/418/418 439/439/439 440/440/440
f 418/418/418 440/440/440 419/419/419
f 419/419/419 440/440/440 441/441/441
f 419/419/419 441/441/441 420/420/420
f 421/421/421 442/442/442 443/443/443
f 421/421/421 443/443/443 422/422/422
f 422/422/422 443/443/443 444/444/444
f 422/422/422 444/444/444 423/423/423
f 423/423/423 444/444/444 445/445/445
f 423/423/423 445/445/445 424/424/424
f 424/424/424 445/445/445 446/446/446
f 424/424/424 446/446/446 425/425/425
f 425/425/425 446/446/446 447/447/447
f 425/425/425 447/447/447 426/426/426
f 426/426/426 447/447/447 448/448/448
f 426/426/426 448/448/448 427/427/427
f 427/427/427 448/448/448 449/449/449
f 427/427/427 449/449/449 428/428/428
f 428/428/428 449/449/449 450/450/450
f 428/428/428 450/450/450 429/429/429
f 429/429/429 450/450/450 451/451/451
f 429/429/429 451/451/451 430/430/430
f 430/430/430 451/451/451 452/452/452
f 430/430/430 452/452/452 431/431/431
f 431/431/431 452/452/452 453/453/453
f 431/431/431 453/453/453 432/432/432
f 432/432/432 453/453/453 454/454/454
f 432/432/432 454/454/454 433/433/433
f 433/433/433 454/454/454 455/455/455
f 433/433/433 455/455/455 434/434/434
f 434/434/434 455/455/455 456/456/456
f 434/434/434 456/456/456 435/435/435
f 435/435/435 456/456/456 457/457/457
f 435/435/435 457/457/457 436/436/436
f 436/436/436 457/457/457 458/458/458
f 436/436/436 458/458/458 437/437/437
f 437/437/437 458/458/458 459/459/459
f 437/437/437 459/459/459 438/438/438
f 438/438/438 459/459/459 460/460/460
f 438/438/438 460/460/460 439/439/439
f 439/439/439 460/460/460 461/461/461
f 439/439/439 461/461/461 440/440/440
f 440/440/440 461/461/461 462/462/462
f 440/440/440 462/462/462 441/441/441
f 442/442/442 463/463/463 464/464/464
f 442/442/442 464/464/464 443/443/443
f 443/443/443 464/464/464 465/465/465
f 443/443/443 465/465/465 444/444/444
f 444/444/444 465/465/465 466/466/466
f 444/444/444 466/466/466 445/445/445
f 445/445/445 466/466/466 467/467/467
f 445/445/445 467/467/467 446/446/446
f 446/446/446 467/467/467 468/468/468
f 446/446/446 468/468/468 447/447/447
f 447/447/447 468/468/468 469/469/469
f 447/447/447 469/469/469 448/448/448
f 448/448/448 469/469/469 470/470/470
f 448/448/448 470/470/470 449/449/449
f 449/449/449 470/470/470 471/471/471
f 449/449/449 471/471/471 450/450/450
f 450/450/450 471/471/471 472/472/472
f 450/450/450 472/472/472 451/451/451
f 451/451/451 472/472/472 473/473/473
f 451/451/451 473/473/473 452/452/452
f 452/452/452 473/473/473 474/474/474
f 452/452/452 474/474/474 453/453/453
f 453/453/453 474/474/474 475/475/475
f 453/453/453 475/475/475 454/454/454
f 454/454/454 475/475/475 476/476/476
f 454/454/454 476/476/476 455/455/455
f 455/455/455 476/476/476 477/477/477
f 455/455/455 477/477/477 456/456/456
f 456/456/456 477/477/477 478/478/478
f 456/456/456 478/478/478 457/457/457
f 457/457/457 478/478/478 479/479/479
f 457/457/457 479/479/479 458/458/458
f 458/458/458 479/479/479 480/480/480
f 458/458/458 480/480/480 459/459/459
f 459/459/459 480/480/480 481/481/481
f 459/459/459 481/481/481 460/460/460
f 460/460/460 481/481/481 482/482/482
f 460/460/460 482/482/482 461/461/461
f 461/461/461 482/482/482 483/483/483
f 461/461/461 483/483/483 462/462/462
f 463/463/463 484/484/484 485/485/485
f 463/463/463 485/485/485 464/464/464
f 464/464/464 485/485/485 486/486/486
f 464/464/464 486/486/486 465/465/465
f 465/465/465 486/486/486 487/487/487
f 465/465/465 487/487/487 466/466/466
f 466/466/466 487/487/487 488/488/488
f 466/466/466 488/488/488 467/467/467
f 467/467/467 488/488/488 489/489/489
f 467/467/467 489/489/489 468/468/468
f 468/468/468 489/489/489 490/490/490
f 468/468/468 490/490/490 469/469/469
f 469/469/469 490/490/490 491/491/491
f 469/469/469 491/491/491 470/470/470
f 470/470/470 491/491/491 492/492/492
f 470/470/470 492/492/492 471/471/471
f 471/471/471 492/492/492 493/493/493
f 471/471/471 493/493/493 472/472/472
f 472/472/472 493/493/493 494/494/494
f 472/472/472 494/494/494 473/473/473
f 473/473/473 494/494/494 495/495/495
f 473/473/473 495/495/495 474/474/474
f 474/474/474 495/495/495 496/496/496
f 474/474/474 496/496/496 475/475/475
f 475/475/475 496/496/496 497/497/497
f 475/475/475 497/497/497 476/476/476
f 476/476/476 497/497/497 498/498/498
f 476/476/476 498/498/498 477/477/477
f 477/477/477 498/498/498 499/499/499
f 477/477/477 499/499/499 478/478/478
f 478/478/478 499/499/499 500/500/500
f 478/478/478 500/500/500 479/479/479
f 479/479/479 500/500/500 501/501/501
f 479/479/479 501/501/501 480/480/480
f 480/480/480 501/501/501 502/502/502
f 480/480/480 502/502/502 481/481/481
f 481/481/481 502/502/502 503/503/503
f 481/481/481 503/503/503 482/482/482
f 482/482/482 503/503/503 504/504/504
f 482/482/482 504/504/504 483/483/483
f 484/484/484 505/505/505 506/506/506
f 484/484/484 506/506/506 485/485/485
f 485/485/485 506/506/506 507/507/507
f 485/485/485 507/507/507 486/486/486
f 486/486/486 507/507/507 508/508/508
f 486/486/486 508/508/508 487/487/487
f 487/487/487 508/508/508 509/509/509
f 487/487/487 509/509/509 488/488/488
f 488/488/488 509/509/509 510/510/510
f 488/488/488 510/510/510 489/489/489
f 489/489/489 510/510/510 511/511/511
f 489/489/489 511/511/511 490/490/490
f 490/490/490 511/511/511 512/512/512
f 490/490/490 512/512/512 491/491/491
f 491/491/491 512/512/512 513/513/513
f 491/491/491 513/513/513 492/492/492
f 492/492/492 513/513/513 514/514/514
f 492/492/492 514/514/514 493/493/493
f 493/493/493 514/514/514 515/515/515
f 493/493/493 515/515/515 494/494/494
f 494/494/494 515/515/515 516/516/516
f 494/494/494 516/516/516 495/495/495
f 495/495/495 516/516/516 517/517/517
f 495/495/495 517/517/517 496/496/496
f 496/496/496 517/517/517 518/518/518
f 496/496/496 518/518/518 497/497/497
f 497/497/497 518/518/518 519/519/519
f 497/497/497 519/519/519 498/498/498
f 498/498/498 519/519/519 520/520/520
f 498/498/498 520/520/520 499/499/499
f 499/499/499 520/520/520 521/521/521
f 499/499/499 521/521/521 500/500/500
f 500/500/500 521/521/521 522/522/522
f 500/500/500 522/522/522 501/501/501
f 501/501/501 522/522/522 523/523/523
f 501/501/501 523/523/523 502/502/502
f 502/502/502 523/523/523 524/524/524
f 502/502/502 524/524/524 503/503/503
f 503/503/503 524/524/524 525/525/525
f 503/503/503 525/525/525 504/504/504
f 505/505/505 526/526/526 527/527/527
f 505/505/505 527/527/527 506/506/506
f 506/506/506 527/527/527 528/528/528
f 506/506/506 528/528/528 507/507/507
f 507/507/507 528/528/528 529/529/529
f 507/507/507 529/529/529 508/508/508
f 508/508/508 529/529/529 530/530/530
f 508/508/508 530/530/530 509/509/509
f 509/509/509 530/530/530 531/531/531
f 509/509/509 531/531/531 510/510/510
f 510/510/510 531/531/531 532/532/532
f 510/510/510 532/532/532 511/511/511
f 511/511/511 532/532/532 533/533/533
f 511/511/511 533/533/533 512/512/512
f 512/512/512 533/533/533 534/534/534
f 512/512/512 534/534/534 513/513/513
f 513/513/513 534/534/534 535/535/535
f 513/513/513 535/535/535 514/514/514
f 514/514/514 535/535/535 536/536/536
f 514/514/514 536/536/536 515/515/515
f 515/515/515 536/536/536 537/537/537
f 515/515/515 537/537/537 516/516/516
f 516/516/516 537/537/537 538/538/538
f 516/516/516 538/538/538 517/517/517
f 517/517/517 538/538/538 539/539/539
f 517/517/517 539/539/539 518/518/518
f 518/518/518 539/539/539 540/540/540
f 518/518/518 540/540/540 519/519/519
f 519/519/519 540/540/540 541/541/541
f 519/519/519 541/541/541 520/520/520
f 520/520/520 541/541/541 542/542/542
f 520/520/520 542/542/542 521/521/521
f 521/521/521 542/542/542 543/543/543
f 521/521/521 543/543/543 522/522/522
f 522/522/522 543/543/543 544/544/544
f 522/522/522 544/544/544 523/523/523
f 523/523/523 544/544/544 545/545/545
f 523/523/523 545/545/545 524/524/524
f 524/524/524 545/545/545 546/546/546
f 524/524/524 546/546/546 525/525/525
f 526/526/526 547/547/547 548/548/548
f 526/526/526 548/548/548 527/527/527
f 527/527/527 548/548/548 549/549/549
f 527/527/527 549/549/549 528/528/528
f 528/528/528 549/549/549 550/550/550
f 528/528/528 550/550/550 529/529/529
f 529/529/529 550/550/550 551/551/551
f 529/529/529 551/551/551 530/530/530
f 530/530/530 551/551/551 552/552/552
f 530/530/530 552/552/552 531/531/531
f 531/531/531 552/552/552 553/553/553
f 531/531/531 553/553/553 532/532/532
f 532/532/532 553/553/553 554/554/554
f 532/532/532 554/554/554 533/533/533
f 533/533/533 554/554/554 555/555/555
f 533/533/533 555/555/555 534/534/534
f 534/534/534 555/555/555 556/556/556
f 534/534/534 556/556/556 535/535/535
f 535/535/535 556/556/556 557/557/557
f 535/535/535 557/557/557 536/536/536
f 536/536/536 557/557/557 558/558/558
f 536/536/536 558/558/558 537/537/537
f 537/537/537 558/558/558 559/559/559
f 537/537/537 559/559/559 538/538/538
f 538/538/538 559/559/559 560/560/560
f 538/538/538 560/560/560 539/539/539
f 539/539/539 560/560/560 561/561/561
f 539/539/539 561/561/561 540/540/540
f 540/540/540 561/561/561 562/562/562
f 540/540/540 562/562/562 541/541/541
f 541/541/541 562/562/562 563/563/563
f 541/541/541 563/563/563 542/542/542
f 542/542/542 563/563/563 564/564/564
f 542/542/542 564/564/564 543/543/543
f 543/543/543 564/564/564 565/565/565
f 543/543/543 565/565/565 544/544/544
f 544/544/544 565/565/565 566/566/566
f 544/544/544 566/566/566 545/545/545
f 545/545/545 566/566/566 567/567/567
f 545/545/545 567/567/567 546/546/546
f 547/547/547 568/568/568 569/569/569
f 547/547/547 569/569/569 548/548/548
f 548/548/548 569/569/569 570/570/570
f 548/548/548 570/570/570 549/549/549
f 549/549/549 570/570/570 571/571/571
f 549/549/549 571/571/571 550/550/550
f 550/550/550 571/571/571 572/572/572
f 550/550/550 572/572/572 551/551/551
f 551/551/551 572/572/572 573/573/573
f 551/551/551 573/573/573 552/552/552
f 552/552/552 573/573/573 574/574/574
f 552/552/552 574/574/574 553/553/553
f 553/553/553 574/574/574 575/575/575
f 553/553/553 575/575/575 554/554/554
f 554/554/554 575/575/575 576/576/576
f 554/554/554 576/576/576 555/555/555
f 555/555/555 576/576/576 577/577/577
f 555/555/555 577/577/577 556/556/556
f 556/556/556 577/577/577 578/578/578
f 556/556/556 578/578/578 557/557/557
f 557/557/557 578/578/578 579/579/579
f 557/557/557 579/579/579 558/558/558
f 558/558/558 579/579/579 580/580/580
f 558/558/558 580/580/580 559/559/559
f 559/559/559 580/580/580 581/581/581
f 559/559/559 581/581/581 560/560/560
f 560/560/560 581/581/581 582/582/582
f 560/560/560 582/582/582 561/561/561
f 561/561/561 582/582/582 583/583/583
f 561/561/561 583/583/583 562/562/562
f 562/562/562 583/583/583 584/584/584
f 562/562/562 584/584/584 563/563/563
f 563/563/563 584/584/584 585/585/585
f 563/563/563 585/585/585 564/564/564
f 564/564/564 585/585/585 586/586/586
f 564/564/564 586/586/586 565/565/565
f 565/565/565 586/586/586 587/587/587
f 565/565/565 587/587/587 566/566/566
f 566/566/566 587/587/587 588/588/588
f 566/566/566 588/588/588 567/567/567
f 568/568/568 589/589/589 590/590/590
f 568/568/568 590/590/590 569/569/569
f 569/569/569 590/590/590 591/591/591
f 569/569/569 591/591/591 570/570/570
f 570/570/570 591/591/591 592/592/592
f 570/570/570 592/592/592 571/571/571
f 571/571/571 592/592/592 593/593/593
f 571/571/571 593/593/593 572/572/572
f 572/572/572 593/593/593 594/594/594
f 572/572/572 594/594/594 573/573/573
f 573/573/573 594/594/594 595/595/595
f 573/573/573 595/595/595 574/574/574
f 574/574/574 595/595/595 596/596/596
f 574/574/574 596/596/596 575/575/575
f 575/575/575 596/596/596 597/597/597
f 575/575/575 597/597/597 576/576/576
f 576/576/576 597/597/597 598/598/598
f 576/576/576 598/598/598 577/577/577
f 577/577/577 598/598/598 599/599/599
f 577/577/577 599/599/599 578/578/578
f 578/578/578 599/599/599 600/600/600
f 578/578/578 600/600/600 579/579/579
f 579/579/579 600/600/600 601/601/601
f 579/579/579 601/601/601 580/580/580
f 580/580/580 601/601/601 602/602/602
f 580/580/580 602/602/602 581/581/581
f 581/581/581 602/602/602 603/603/603
f 581/581/581 603/603/603 582/582/582
f 582/582/582 603/603/603 604/604/604
f 582/582/582 604/604/604 583/583/583
f 583/583/583 604/604/604 605/605/605
f 583/583/583 605/605/605 584/584/584
f 584/584/584 605/605/605 606/606/606
f 584/584/584 606/606/606 585/585/585
f 585/585/585 606/606/606 607/607/607
f 585/585/585 607/607/607 586/586/586
f 586/586/586 607/607/607 608/608/608
f 586/586/586 608/608/608 587/587/587
f 587/587/587 608/608/608 609/609/609
f 587/587/587 609/609/609 588/588/588
f 589/589/589 610/610/610 611/611/611
f 589/589/589 611/611/611 590/590/590
f 590/590/590 611/611/611 612/612/612
f 590/590/590 612/612/612 591/591/591
f 591/591/591 612/612/612 613/613/613
f 591/591/591 613/613/613 592/592/592
f 592/592/592 613/613/613 614/614/614
f 592/592/592 614/614/614 593/593/593
f 593/593/593 614/614/614 615/615/615
f 593/593/593 615/615/615 594/594/594
f 594/594/594 615/615/615 616/616/616
f 594/594/594 616/616/616 595/595/595
f 595/595/595 616/616/616 617/617/617
f 595/595/595 617/617/617 596/596/596
f 596/596/596 617/617/617 618/618/618
f 596/596/596 618/618/618 597/597/597
f 597/597/597 618/618/618 619/619/619
f 597/597/597 619/619/619 598/598/598
f 598/598/598 619/619/619 620/620/620
f 598/598/598 620/620/620 599/599/599
f 599/599/599 620/620/620 621/621/621
f 599/599/599 621/621/621 600/600/600
f 600/600/600 621/621/621 622/622/622
f 600/600/600 622/622/622 601/601/601
f 601/601/601 622/622/622 623/623/623
f 601/601/601 623/623/623 602/602/602
f 602/602/602 623/623/623 624/624/624
f 602/602/602 624/624/624 603/603/603
f 603/603/603 624/624/624 625/625/625
f 603/603/603 625/625/625 604/604/604
f 604/604/604 625/625/625 626/626/626
f 604/604/604 626/626/626 605/605/605
f 605/605/605 626/626/626 627/627/627
f 605/605/605 627/627/627 606/606/606
f 606/606/606 627/627/627 628/628/628
f 606/606/606 628/628/628 607/607/607
f 607/607/607 628/628/628 629/629/629
f 607/607/607 629/629/629 608/608/608
f 608/608/608 629/629/629 630/630/630
f 608/608/608 630/630/630 609/609/609
f 610/610/610 631/631/631 632/632/632
f 610/610/610 632/632/632 611/611/611
f 611/611/611 632/632/632 633/633/633
f 611/611/611 633/633/633 612/612/612
f 612/612/612 633/633/633 634/634/634
f 612/612/612 634/634/634 613/613/613
f 613/613/613 634/634/634 635/635/635
f 613/613/613 635/635/635 614/614/614
f 614/614/614 635/635/635 636/636/636
f 614/614/614 636/636/636 615/615/615
f 615/615/615 636/636/636 637/637/637
f 615/615/615 637/637/637 616/616/616
f 616/616/616 637/637/637 638/638/638
f 616/616/616 638/638/638 617/617/617
f 617/617/617 638/638/638 639/639/639
f 617/617/617 639/639/639 618/618/618
f 618/618/618 639/639/639 640/640/640
f 618/618/618 640/640/640 619/619/619
f 619/619/619 640/640/640 641/641/641
f 619/619/619 641/641/641 620/620/620
f 620/620/620 641/641/641 642/642/642
f 620/620/620 642/642/642 621/621/621
f 621/621/621 642/642/642 643/643/643
f 621/621/621 643/643/643 622/622/622
f 622/622/622 643/643/643 644/644/644
f 622/622/622 644/644/644 623/623/623
f 623/623/623 644/644/644 645/645/645
f 623/623/623 645/645/645 624/624/624
f 624/624/624 645/645/645 646/646/646
f 624/624/624 646/646/646 625/625/625
f 625/625/625 646/646/646 647/647/647
f 625/625/625 647/647/647 626/626/626
f 626/626/626 647/647/647 648/648/648
f 626/626/626 648/648/648 627/627/627
f 627/627/627 648/648/648 649/649/649
f 627/627/627 649/649/649 628/628/628
f 628/628/628 649/649/649 650/650/650
f 628/628/628 650/650/650 629/629/629
f 629/629/629 650/650/650 651/651/651
f 629/629/629 651/651/651 630/630/630
