# procedural asset
v 0.17500 1.58000 -0.02000
v 0.16641 1.60645 -0.02000
v 0.14391 1.62280 -0.02000
v 0.11609 1.62280 -0.02000
v 0.09359 1.60645 -0.02000
v 0.08500 1.58000 -0.02000
v 0.09359 1.55355 -0.02000
v 0.11609 1.53720 -0.02000
v 0.14391 1.53720 -0.02000
v 0.16641 1.55355 -0.02000
v 0.17500 1.58000 -0.02000
v 0.16904 1.58000 0.02529
v 0.16074 1.60645 0.02307
v 0.13900 1.62280 0.01725
v 0.11214 1.62280 0.01005
v 0.09041 1.60645 0.00422
v 0.08210 1.58000 0.00200
v 0.09041 1.55355 0.00422
v 0.11214 1.53720 0.01005
v 0.13900 1.53720 0.01725
v 0.16074 1.55355 0.02307
v 0.16904 1.58000 0.02529
v 0.15155 1.58000 0.06750
v 0.14411 1.60645 0.06320
v 0.12463 1.62280 0.05195
v 0.10054 1.62280 0.03805
v 0.08105 1.60645 0.02680
v 0.07361 1.58000 0.02250
v 0.08105 1.55355 0.02680
v 0.10054 1.53720 0.03805
v 0.12463 1.53720 0.05195
v 0.14411 1.55355 0.06320
v 0.15155 1.58000 0.06750
v 0.12374 1.58000 0.10374
v 0.11767 1.60645 0.09767
v 0.10176 1.62280 0.08176
v 0.08209 1.62280 0.06209
v 0.06618 1.60645 0.04618
v 0.06010 1.58000 0.04010
v 0.06618 1.55355 0.04618
v 0.08209 1.53720 0.06209
v 0.10176 1.53720 0.08176
v 0.11767 1.55355 0.09767
v 0.12374 1.58000 0.10374
v 0.08750 1.58000 0.13155
v 0.08320 1.60645 0.12411
v 0.07195 1.62280 0.10463
v 0.05805 1.62280 0.08054
v 0.04680 1.60645 0.06105
v 0.04250 1.58000 0.05361
v 0.04680 1.55355 0.06105
v 0.05805 1.53720 0.08054
v 0.07195 1.53720 0.10463
v 0.08320 1.55355 0.12411
v 0.08750 1.58000 0.13155
v 0.04529 1.58000 0.14904
v 0.04307 1.60645 0.14074
v 0.03725 1.62280 0.11900
v 0.03005 1.62280 0.09214
v 0.02422 1.60645 0.07041
v 0.02200 1.58000 0.06210
v 0.02422 1.55355 0.07041
v 0.03005 1.53720 0.09214
v 0.03725 1.53720 0.11900
v 0.04307 1.55355 0.14074
v 0.04529 1.58000 0.14904
v 0.00000 1.58000 0.15500
v 0.00000 1.60645 0.14641
v 0.00000 1.62280 0.12391
v 0.00000 1.62280 0.09609
v 0.00000 1.60645 0.07359
v 0.00000 1.58000 0.06500
v 0.00000 1.55355 0.07359
v 0.00000 1.53720 0.09609
v 0.00000 1.53720 0.12391
v 0.00000 1.55355 0.14641
v 0.00000 1.58000 0.15500
v -0.04529 1.58000 0.14904
v -0.04307 1.60645 0.14074
v -0.03725 1.62280 0.11900
v -0.03005 1.62280 0.09214
v -0.02422 1.60645 0.07041
v -0.02200 1.58000 0.06210
v -0.02422 1.55355 0.07041
v -0.03005 1.53720 0.09214
v -0.03725 1.53720 0.11900
v -0.04307 1.55355 0.14074
v -0.04529 1.58000 0.14904
v -0.08750 1.58000 0.13155
v -0.08320 1.60645 0.12411
v -0.07195 1.62280 0.10463
v -0.05805 1.62280 0.08054
v -0.04680 1.60645 0.06105
v -0.04250 1.58000 0.05361
v -0.04680 1.55355 0.06105
v -0.05805 1.53720 0.08054
v -0.07195 1.53720 0.10463
v -0.08320 1.55355 0.12411
v -0.08750 1.58000 0.13155
v -0.12374 1.58000 0.10374
v -0.11767 1.60645 0.09767
v -0.10176 1.62280 0.08176
v -0.08209 1.62280 0.06209
v -0.06618 1.60645 0.04618
v -0.06010 1.58000 0.04010
v -0.06618 1.55355 0.04618
v -0.08209 1.53720 0.06209
v -0.10176 1.53720 0.08176
v -0.11767 1.55355 0.09767
v -0.12374 1.58000 0.10374
v -0.15155 1.58000 0.06750
v -0.14411 1.60645 0.06320
v -0.12463 1.62280 0.05195
v -0.10054 1.62280 0.03805
v -0.08105 1.60645 0.02680
v -0.07361 1.58000 0.02250
v -0.08105 1.55355 0.02680
v -0.10054 1.53720 0.03805
v -0.12463 1.53720 0.05195
v -0.14411 1.55355 0.06320
v -0.15155 1.58000 0.06750
v -0.16904 1.58000 0.02529
v -0.16074 1.60645 0.02307
v -0.13900 1.62280 0.01725
v -0.11214 1.62280 0.01005
v -0.09041 1.60645 0.00422
v -0.08210 1.58000 0.00200
v -0.09041 1.55355 0.00422
v -0.11214 1.53720 0.01005
v -0.13900 1.53720 0.01725
v -0.16074 1.55355 0.02307
v -0.16904 1.58000 0.02529
v -0.17500 1.58000 -0.02000
v -0.16641 1.60645 -0.02000
v -0.14391 1.62280 -0.02000
v -0.11609 1.62280 -0.02000
v -0.09359 1.60645 -0.02000
v -0.08500 1.58000 -0.02000
v -0.09359 1.55355 -0.02000
v -0.11609 1.53720 -0.02000
v -0.14391 1.53720 -0.02000
v -0.16641 1.55355 -0.02000
v -0.17500 1.58000 -0.02000
v -0.16904 1.58000 -0.06529
v -0.16074 1.60645 -0.06307
v -0.13900 1.62280 -0.05725
v -0.11214 1.62280 -0.05005
v -0.09041 1.60645 -0.04422
v -0.08210 1.58000 -0.04200
v -0.09041 1.55355 -0.04422
v -0.11214 1.53720 -0.05005
v -0.13900 1.53720 -0.05725
v -0.16074 1.55355 -0.06307
v -0.16904 1.58000 -0.06529
v -0.15155 1.58000 -0.10750
v -0.14411 1.60645 -0.10320
v -0.12463 1.62280 -0.09195
v -0.10054 1.62280 -0.07805
v -0.08105 1.60645 -0.06680
v -0.07361 1.58000 -0.06250
v -0.08105 1.55355 -0.06680
v -0.10054 1.53720 -0.07805
v -0.12463 1.53720 -0.09195
v -0.14411 1.55355 -0.10320
v -0.15155 1.58000 -0.10750
v -0.12374 1.58000 -0.14374
v -0.11767 1.60645 -0.13767
v -0.10176 1.62280 -0.12176
v -0.08209 1.62280 -0.10209
v -0.06618 1.60645 -0.08618
v -0.06010 1.58000 -0.08010
v -0.06618 1.55355 -0.08618
v -0.08209 1.53720 -0.10209
v -0.10176 1.53720 -0.12176
v -0.11767 1.55355 -0.13767
v -0.12374 1.58000 -0.14374
v -0.08750 1.58000 -0.17155
v -0.08320 1.60645 -0.16411
v -0.07195 1.62280 -0.14463
v -0.05805 1.62280 -0.12054
v -0.04680 1.60645 -0.10105
v -0.04250 1.58000 -0.09361
v -0.04680 1.55355 -0.10105
v -0.05805 1.53720 -0.12054
v -0.07195 1.53720 -0.14463
v -0.08320 1.55355 -0.16411
v -0.08750 1.58000 -0.17155
v -0.04529 1.58000 -0.18904
v -0.04307 1.60645 -0.18074
v -0.03725 1.62280 -0.15900
v -0.03005 1.62280 -0.13214
v -0.02422 1.60645 -0.11041
v -0.02200 1.58000 -0.10210
v -0.02422 1.55355 -0.11041
v -0.03005 1.53720 -0.13214
v -0.03725 1.53720 -0.15900
v -0.04307 1.55355 -0.18074
v -0.04529 1.58000 -0.18904
v -0.00000 1.58000 -0.19500
v -0.00000 1.60645 -0.18641
v -0.00000 1.62280 -0.16391
v -0.00000 1.62280 -0.13609
v -0.00000 1.60645 -0.11359
v -0.00000 1.58000 -0.10500
v -0.00000 1.55355 -0.11359
v -0.00000 1.53720 -0.13609
v -0.00000 1.53720 -0.16391
v -0.00000 1.55355 -0.18641
v -0.00000 1.58000 -0.19500
v 0.04529 1.58000 -0.18904
v 0.04307 1.60645 -0.18074
v 0.03725 1.62280 -0.15900
v 0.03005 1.62280 -0.13214
v 0.02422 1.60645 -0.11041
v 0.02200 1.58000 -0.10210
v 0.02422 1.55355 -0.11041
v 0.03005 1.53720 -0.13214
v 0.03725 1.53720 -0.15900
v 0.04307 1.55355 -0.18074
v 0.04529 1.58000 -0.18904
v 0.08750 1.58000 -0.17155
v 0.08320 1.60645 -0.16411
v 0.07195 1.62280 -0.14463
v 0.05805 1.62280 -0.12054
v 0.04680 1.60645 -0.10105
v 0.04250 1.58000 -0.09361
v 0.04680 1.55355 -0.10105
v 0.05805 1.53720 -0.12054
v 0.07195 1.53720 -0.14463
v 0.08320 1.55355 -0.16411
v 0.08750 1.58000 -0.17155
v 0.12374 1.58000 -0.14374
v 0.11767 1.60645 -0.13767
v 0.10176 1.62280 -0.12176
v 0.08209 1.62280 -0.10209
v 0.06618 1.60645 -0.08618
v 0.06010 1.58000 -0.08010
v 0.06618 1.55355 -0.08618
v 0.08209 1.53720 -0.10209
v 0.10176 1.53720 -0.12176
v 0.11767 1.55355 -0.13767
v 0.12374 1.58000 -0.14374
v 0.15155 1.58000 -0.10750
v 0.14411 1.60645 -0.10320
v 0.12463 1.62280 -0.09195
v 0.10054 1.62280 -0.07805
v 0.08105 1.60645 -0.06680
v 0.07361 1.58000 -0.06250
v 0.08105 1.55355 -0.06680
v 0.10054 1.53720 -0.07805
v 0.12463 1.53720 -0.09195
v 0.14411 1.55355 -0.10320
v 0.15155 1.58000 -0.10750
v 0.16904 1.58000 -0.06529
v 0.16074 1.60645 -0.06307
v 0.13900 1.62280 -0.05725
v 0.11214 1.62280 -0.05005
v 0.09041 1.60645 -0.04422
v 0.08210 1.58000 -0.04200
v 0.09041 1.55355 -0.04422
v 0.11214 1.53720 -0.05005
v 0.13900 1.53720 -0.05725
v 0.16074 1.55355 -0.06307
v 0.16904 1.58000 -0.06529
v 0.17500 1.58000 -0.02000
v 0.16641 1.60645 -0.02000
v 0.14391 1.62280 -0.02000
v 0.11609 1.62280 -0.02000
v 0.09359 1.60645 -0.02000
v 0.08500 1.58000 -0.02000
v 0.09359 1.55355 -0.02000
v 0.11609 1.53720 -0.02000
v 0.14391 1.53720 -0.02000
v 0.16641 1.55355 -0.02000
v 0.17500 1.58000 -0.02000
v -0.10340 1.56000 0.07199
v -0.10830 1.56444 0.14505
v -0.11284 1.56332 0.21816
v -0.11687 1.55665 0.29135
v -0.12017 1.54442 0.36465
v -0.12219 1.52664 0.43814
v -0.11891 1.50330 0.51243
v -0.09274 1.59159 0.07044
v -0.09914 1.59265 0.14577
v -0.10516 1.58777 0.22063
v -0.11069 1.57692 0.29493
v -0.11552 1.56007 0.36860
v -0.11917 1.53697 0.44154
v -0.11827 1.50552 0.51332
v -0.06575 1.61111 0.07254
v -0.07534 1.61009 0.14894
v -0.08469 1.60287 0.22452
v -0.09373 1.58945 0.29912
v -0.10238 1.56974 0.37258
v -0.11041 1.54336 0.44467
v -0.11637 1.50688 0.51410
v -0.03275 1.61111 0.07749
v -0.04600 1.61009 0.15334
v -0.05924 1.60287 0.22834
v -0.07248 1.58945 0.30230
v -0.08577 1.56974 0.37507
v -0.09924 1.54336 0.44635
v -0.11392 1.50688 0.51447
v -0.00633 1.59159 0.08340
v -0.02232 1.59265 0.15730
v -0.03853 1.58777 0.23063
v -0.05504 1.57692 0.30328
v -0.07204 1.56007 0.37512
v -0.08995 1.53697 0.44592
v -0.11187 1.50552 0.51428
v 0.00340 1.56000 0.08801
v -0.01335 1.56444 0.15929
v -0.03047 1.56332 0.23052
v -0.04808 1.55665 0.30167
v -0.06643 1.54442 0.37271
v -0.08606 1.52664 0.44356
v -0.11100 1.50330 0.51361
v -0.00726 1.52841 0.08956
v -0.02251 1.53623 0.15857
v -0.03814 1.53888 0.22805
v -0.05426 1.53638 0.29809
v -0.07108 1.52878 0.36876
v -0.08908 1.51631 0.44016
v -0.11164 1.50109 0.51272
v -0.03425 1.50889 0.08746
v -0.04631 1.51879 0.15540
v -0.05861 1.52377 0.22416
v -0.07122 1.52385 0.29390
v -0.08423 1.51911 0.36478
v -0.09785 1.50992 0.43703
v -0.11354 1.49972 0.51194
v -0.06725 1.50889 0.08251
v -0.07565 1.51879 0.15100
v -0.08406 1.52377 0.22034
v -0.09247 1.52385 0.29072
v -0.10083 1.51911 0.36229
v -0.10901 1.50992 0.43535
v -0.11599 1.49972 0.51157
v -0.09367 1.52841 0.07660
v -0.09933 1.53623 0.14704
v -0.10478 1.53888 0.21805
v -0.10991 1.53638 0.28974
v -0.11457 1.52878 0.36224
v -0.11831 1.51631 0.43578
v -0.11804 1.50109 0.51176
v -0.10340 1.56000 0.07199
v -0.10830 1.56444 0.14505
v -0.11284 1.56332 0.21816
v -0.11687 1.55665 0.29135
v -0.12017 1.54442 0.36465
v -0.12219 1.52664 0.43814
v -0.11891 1.50330 0.51243
v 0.00685 1.56000 0.08957
v 0.02568 1.56440 0.16033
v 0.04487 1.56325 0.23103
v 0.06456 1.55655 0.30164
v 0.08497 1.54429 0.37212
v 0.10667 1.52647 0.44237
v 0.13364 1.50310 0.51167
v 0.01645 1.59159 0.08469
v 0.03459 1.59262 0.15809
v 0.05293 1.58770 0.23092
v 0.07156 1.57682 0.30306
v 0.09065 1.55993 0.37437
v 0.11062 1.53680 0.44462
v 0.13453 1.50531 0.51231
v 0.04269 1.61111 0.07802
v 0.05815 1.61005 0.15345
v 0.07357 1.60280 0.22803
v 0.08896 1.58935 0.30158
v 0.10437 1.56960 0.37393
v 0.11992 1.54319 0.44478
v 0.13658 1.50668 0.51244
v 0.07553 1.61111 0.07210
v 0.08735 1.61005 0.14820
v 0.09890 1.60280 0.22347
v 0.11012 1.58935 0.29777
v 0.12090 1.56960 0.37095
v 0.13103 1.54319 0.44278
v 0.13902 1.50668 0.51200
v 0.10245 1.59159 0.06921
v 0.11104 1.59262 0.14433
v 0.11925 1.58770 0.21898
v 0.12694 1.57682 0.29309
v 0.13392 1.55993 0.36658
v 0.13970 1.53680 0.43938
v 0.14090 1.50531 0.51117
v 0.11315 1.56000 0.07043
v 0.12018 1.56440 0.14332
v 0.12684 1.56325 0.21628
v 0.13301 1.55655 0.28932
v 0.13846 1.54429 0.36249
v 0.14262 1.52647 0.43590
v 0.14151 1.50310 0.51025
v 0.10355 1.52841 0.07531
v 0.11127 1.53619 0.14556
v 0.11878 1.53881 0.21639
v 0.12601 1.53628 0.28790
v 0.13278 1.52864 0.36024
v 0.13867 1.51614 0.43364
v 0.14062 1.50088 0.50961
v 0.07731 1.50889 0.08198
v 0.08771 1.51876 0.15020
v 0.09815 1.52370 0.21928
v 0.10861 1.52375 0.28938
v 0.11906 1.51897 0.36068
v 0.12936 1.50975 0.43349
v 0.13856 1.49951 0.50948
v 0.04447 1.50889 0.08790
v 0.05851 1.51876 0.15546
v 0.07281 1.52370 0.22384
v 0.08745 1.52375 0.29319
v 0.10253 1.51897 0.36366
v 0.11825 1.50975 0.43549
v 0.13613 1.49951 0.50992
v 0.01755 1.52841 0.09079
v 0.03481 1.53619 0.15933
v 0.05247 1.53881 0.22833
v 0.07063 1.53628 0.29787
v 0.08951 1.52864 0.36803
v 0.10958 1.51614 0.43888
v 0.13425 1.50088 0.51075
v 0.00685 1.56000 0.08957
v 0.02568 1.56440 0.16033
v 0.04487 1.56325 0.23103
v 0.06456 1.55655 0.30164
v 0.08497 1.54429 0.37212
v 0.10667 1.52647 0.44237
v 0.13364 1.50310 0.51167
vt 0.00000 0.00000
vt 0.00000 0.10000
vt 0.00000 0.20000
vt 0.00000 0.30000
vt 0.00000 0.40000
vt 0.00000 0.50000
vt 0.00000 0.60000
vt 0.00000 0.70000
vt 0.00000 0.80000
vt 0.00000 0.90000
vt 0.00000 1.00000
vt 0.04167 0.00000
vt 0.04167 0.10000
vt 0.04167 0.20000
vt 0.04167 0.30000
vt 0.04167 0.40000
vt 0.04167 0.50000
vt 0.04167 0.60000
vt 0.04167 0.70000
vt 0.04167 0.80000
vt 0.04167 0.90000
vt 0.04167 1.00000
vt 0.08333 0.00000
vt 0.08333 0.10000
vt 0.08333 0.20000
vt 0.08333 0.30000
vt 0.08333 0.40000
vt 0.08333 0.50000
vt 0.08333 0.60000
vt 0.08333 0.70000
vt 0.08333 0.80000
vt 0.08333 0.90000
vt 0.08333 1.00000
vt 0.12500 0.00000
vt 0.12500 0.10000
vt 0.12500 0.20000
vt 0.12500 0.30000
vt 0.12500 0.40000
vt 0.12500 0.50000
vt 0.12500 0.60000
vt 0.12500 0.70000
vt 0.12500 0.80000
vt 0.12500 0.90000
vt 0.12500 1.00000
vt 0.16667 0.00000
vt 0.16667 0.10000
vt 0.16667 0.20000
vt 0.16667 0.30000
vt 0.16667 0.40000
vt 0.16667 0.50000
vt 0.16667 0.60000
vt 0.16667 0.70000
vt 0.16667 0.80000
vt 0.16667 0.90000
vt 0.16667 1.00000
vt 0.20833 0.00000
vt 0.20833 0.10000
vt 0.20833 0.20000
vt 0.20833 0.30000
vt 0.20833 0.40000
vt 0.20833 0.50000
vt 0.20833 0.60000
vt 0.20833 0.70000
vt 0.20833 0.80000
vt 0.20833 0.90000
vt 0.20833 1.00000
vt 0.25000 0.00000
vt 0.25000 0.10000
vt 0.25000 0.20000
vt 0.25000 0.30000
vt 0.25000 0.40000
vt 0.25000 0.50000
vt 0.25000 0.60000
vt 0.25000 0.70000
vt 0.25000 0.80000
vt 0.25000 0.90000
vt 0.25000 1.00000
vt 0.29167 0.00000
vt 0.29167 0.10000
vt 0.29167 0.20000
vt 0.29167 0.30000
vt 0.29167 0.40000
vt 0.29167 0.50000
vt 0.29167 0.60000
vt 0.29167 0.70000
vt 0.29167 0.80000
vt 0.29167 0.90000
vt 0.29167 1.00000
vt 0.33333 0.00000
vt 0.33333 0.10000
vt 0.33333 0.20000
vt 0.33333 0.30000
vt 0.33333 0.40000
vt 0.33333 0.50000
vt 0.33333 0.60000
vt 0.33333 0.70000
vt 0.33333 0.80000
vt 0.33333 0.90000
vt 0.33333 1.00000
vt 0.37500 0.00000
vt 0.37500 0.10000
vt 0.37500 0.20000
vt 0.37500 0.30000
vt 0.37500 0.40000
vt 0.37500 0.50000
vt 0.37500 0.60000
vt 0.37500 0.70000
vt 0.37500 0.80000
vt 0.37500 0.90000
vt 0.37500 1.00000
vt 0.41667 0.00000
vt 0.41667 0.10000
vt 0.41667 0.20000
vt 0.41667 0.30000
vt 0.41667 0.40000
vt 0.41667 0.50000
vt 0.41667 0.60000
vt 0.41667 0.70000
vt 0.41667 0.80000
vt 0.41667 0.90000
vt 0.41667 1.00000
vt 0.45833 0.00000
vt 0.45833 0.10000
vt 0.45833 0.20000
vt 0.45833 0.30000
vt 0.45833 0.40000
vt 0.45833 0.50000
vt 0.45833 0.60000
vt 0.45833 0.70000
vt 0.45833 0.80000
vt 0.45833 0.90000
vt 0.45833 1.00000
vt 0.50000 0.00000
vt 0.50000 0.10000
vt 0.50000 0.20000
vt 0.50000 0.30000
vt 0.50000 0.40000
vt 0.50000 0.50000
vt 0.50000 0.60000
vt 0.50000 0.70000
vt 0.50000 0.80000
vt 0.50000 0.90000
vt 0.50000 1.00000
vt 0.54167 0.00000
vt 0.54167 0.10000
vt 0.54167 0.20000
vt 0.54167 0.30000
vt 0.54167 0.40000
vt 0.54167 0.50000
vt 0.54167 0.60000
vt 0.54167 0.70000
vt 0.54167 0.80000
vt 0.54167 0.90000
vt 0.54167 1.00000
vt 0.58333 0.00000
vt 0.58333 0.10000
vt 0.58333 0.20000
vt 0.58333 0.30000
vt 0.58333 0.40000
vt 0.58333 0.50000
vt 0.58333 0.60000
vt 0.58333 0.70000
vt 0.58333 0.80000
vt 0.58333 0.90000
vt 0.58333 1.00000
vt 0.62500 0.00000
vt 0.62500 0.10000
vt 0.62500 0.20000
vt 0.62500 0.30000
vt 0.62500 0.40000
vt 0.62500 0.50000
vt 0.62500 0.60000
vt 0.62500 0.70000
vt 0.62500 0.80000
vt 0.62500 0.90000
vt 0.62500 1.00000
vt 0.66667 0.00000
vt 0.66667 0.10000
vt 0.66667 0.20000
vt 0.66667 0.30000
vt 0.66667 0.40000
vt 0.66667 0.50000
vt 0.66667 0.60000
vt 0.66667 0.70000
vt 0.66667 0.80000
vt 0.66667 0.90000
vt 0.66667 1.00000
vt 0.70833 0.00000
vt 0.70833 0.10000
vt 0.70833 0.20000
vt 0.70833 0.30000
vt 0.70833 0.40000
vt 0.70833 0.50000
vt 0.70833 0.60000
vt 0.70833 0.70000
vt 0.70833 0.80000
vt 0.70833 0.90000
vt 0.70833 1.00000
vt 0.75000 0.00000
vt 0.75000 0.10000
vt 0.75000 0.20000
vt 0.75000 0.30000
vt 0.75000 0.40000
vt 0.75000 0.50000
vt 0.75000 0.60000
vt 0.75000 0.70000
vt 0.75000 0.80000
vt 0.75000 0.90000
vt 0.75000 1.00000
vt 0.79167 0.00000
vt 0.79167 0.10000
vt 0.79167 0.20000
vt 0.79167 0.30000
vt 0.79167 0.40000
vt 0.79167 0.50000
vt 0.79167 0.60000
vt 0.79167 0.70000
vt 0.79167 0.80000
vt 0.79167 0.90000
vt 0.79167 1.00000
vt 0.83333 0.00000
vt 0.83333 0.10000
vt 0.83333 0.20000
vt 0.83333 0.30000
vt 0.83333 0.40000
vt 0.83333 0.50000
vt 0.83333 0.60000
vt 0.83333 0.70000
vt 0.83333 0.80000
vt 0.83333 0.90000
vt 0.83333 1.00000
vt 0.87500 0.00000
vt 0.87500 0.10000
vt 0.87500 0.20000
vt 0.87500 0.30000
vt 0.87500 0.40000
vt 0.87500 0.50000
vt 0.87500 0.60000
vt 0.87500 0.70000
vt 0.87500 0.80000
vt 0.87500 0.90000
vt 0.87500 1.00000
vt 0.91667 0.00000
vt 0.91667 0.10000
vt 0.91667 0.20000
vt 0.91667 0.30000
vt 0.91667 0.40000
vt 0.91667 0.50000
vt 0.91667 0.60000
vt 0.91667 0.70000
vt 0.91667 0.80000
vt 0.91667 0.90000
vt 0.91667 1.00000
vt 0.95833 0.00000
vt 0.95833 0.10000
vt 0.95833 0.20000
vt 0.95833 0.30000
vt 0.95833 0.40000
vt 0.95833 0.50000
vt 0.95833 0.60000
vt 0.95833 0.70000
vt 0.95833 0.80000
vt 0.95833 0.90000
vt 0.95833 1.00000
vt 1.00000 0.00000
vt 1.00000 0.10000
vt 1.00000 0.20000
vt 1.00000 0.30000
vt 1.00000 0.40000
vt 1.00000 0.50000
vt 1.00000 0.60000
vt 1.00000 0.70000
vt 1.00000 0.80000
vt 1.00000 0.90000
vt 1.00000 1.00000
vt 0.00000 0.00000
vt 0.00000 0.16667
vt 0.00000 0.33333
vt 0.00000 0.50000
vt 0.00000 0.66667
vt 0.00000 0.83333
vt 0.00000 1.00000
vt 0.10000 0.00000
vt 0.10000 0.16667
vt 0.10000 0.33333
vt 0.10000 0.50000
vt 0.10000 0.66667
vt 0.10000 0.83333
vt 0.10000 1.00000
vt 0.20000 0.00000
vt 0.20000 0.16667
vt 0.20000 0.33333
vt 0.20000 0.50000
vt 0.20000 0.66667
vt 0.20000 0.83333
vt 0.20000 1.00000
vt 0.30000 0.00000
vt 0.30000 0.16667
vt 0.30000 0.33333
vt 0.30000 0.50000
vt 0.30000 0.66667
vt 0.30000 0.83333
vt 0.30000 1.00000
vt 0.40000 0.00000
vt 0.40000 0.16667
vt 0.40000 0.33333
vt 0.40000 0.50000
vt 0.40000 0.66667
vt 0.40000 0.83333
vt 0.40000 1.00000
vt 0.50000 0.00000
vt 0.50000 0.16667
vt 0.50000 0.33333
vt 0.50000 0.50000
vt 0.50000 0.66667
vt 0.50000 0.83333
vt 0.50000 1.00000
vt 0.60000 0.00000
vt 0.60000 0.16667
vt 0.60000 0.33333
vt 0.60000 0.50000
vt 0.60000 0.66667
vt 0.60000 0.83333
vt 0.60000 1.00000
vt 0.70000 0.00000
vt 0.70000 0.16667
vt 0.70000 0.33333
vt 0.70000 0.50000
vt 0.70000 0.66667
vt 0.70000 0.83333
vt 0.70000 1.00000
vt 0.80000 0.00000
vt 0.80000 0.16667
vt 0.80000 0.33333
vt 0.80000 0.50000
vt 0.80000 0.66667
vt 0.80000 0.83333
vt 0.80000 1.00000
vt 0.90000 0.00000
vt 0.90000 0.16667
vt 0.90000 0.33333
vt 0.90000 0.50000
vt 0.90000 0.66667
vt 0.90000 0.83333
vt 0.90000 1.00000
vt 1.00000 0.00000
vt 1.00000 0.16667
vt 1.00000 0.33333
vt 1.00000 0.50000
vt 1.00000 0.66667
vt 1.00000 0.83333
vt 1.00000 1.00000
vt 0.00000 0.00000
vt 0.00000 0.16667
vt 0.00000 0.33333
vt 0.00000 0.50000
vt 0.00000 0.66667
vt 0.00000 0.83333
vt 0.00000 1.00000
vt 0.10000 0.00000
vt 0.10000 0.16667
vt 0.10000 0.33333
vt 0.10000 0.50000
vt 0.10000 0.66667
vt 0.10000 0.83333
vt 0.10000 1.00000
vt 0.20000 0.00000
vt 0.20000 0.16667
vt 0.20000 0.33333
vt 0.20000 0.50000
vt 0.20000 0.66667
vt 0.20000 0.83333
vt 0.20000 1.00000
vt 0.30000 0.00000
vt 0.30000 0.16667
vt 0.30000 0.33333
vt 0.30000 0.50000
vt 0.30000 0.66667
vt 0.30000 0.83333
vt 0.30000 1.00000
vt 0.40000 0.00000
vt 0.40000 0.16667
vt 0.40000 0.33333
vt 0.40000 0.50000
vt 0.40000 0.66667
vt 0.40000 0.83333
vt 0.40000 1.00000
vt 0.50000 0.00000
vt 0.50000 0.16667
vt 0.50000 0.33333
vt 0.50000 0.50000
vt 0.50000 0.66667
vt 0.50000 0.83333
vt 0.50000 1.00000
vt 0.60000 0.00000
vt 0.60000 0.16667
vt 0.60000 0.33333
vt 0.60000 0.50000
vt 0.60000 0.66667
vt 0.60000 0.83333
vt 0.60000 1.00000
vt 0.70000 0.00000
vt 0.70000 0.16667
vt 0.70000 0.33333
vt 0.70000 0.50000
vt 0.70000 0.66667
vt 0.70000 0.83333
vt 0.70000 1.00000
vt 0.80000 0.00000
vt 0.80000 0.16667
vt 0.80000 0.33333
vt 0.80000 0.50000
vt 0.80000 0.66667
vt 0.80000 0.83333
vt 0.80000 1.00000
vt 0.90000 0.00000
vt 0.90000 0.16667
vt 0.90000 0.33333
vt 0.90000 0.50000
vt 0.90000 0.66667
vt 0.90000 0.83333
vt 0.90000 1.00000
vt 1.00000 0.00000
vt 1.00000 0.16667
vt 1.00000 0.33333
vt 1.00000 0.50000
vt 1.00000 0.66667
vt 1.00000 0.83333
vt 1.00000 1.00000
vn 0.11008 0.99384 -0.01258
vn 0.10303 0.99460 -0.01238
vn 0.08832 0.99602 -0.01228
vn 0.07135 0.99738 -0.01229
vn 0.05816 0.99823 -0.01243
vn 0.05372 0.99848 -0.01264
vn 0.06013 0.99811 -0.01285
vn 0.07530 0.99708 -0.01297
vn 0.09320 0.99556 -0.01295
vn 0.10650 0.99423 -0.01280
vn 0.11008 0.99384 -0.01258
vn 0.10636 0.99420 0.01592
vn -0.78145 -0.58779 -0.20939
vn -0.29849 -0.95106 -0.07998
vn 0.06894 0.99760 0.00618
vn 0.05619 0.99842 0.00263
vn 0.05189 0.99865 0.00126
vn 0.05809 0.99831 0.00271
vn 0.07275 0.99733 0.00652
vn -0.29849 0.95106 -0.07998
vn -0.78145 0.58779 -0.20939
vn 0.10636 0.99420 0.01592
vn 0.09540 0.99453 0.04249
vn -0.70063 -0.58779 -0.40451
vn -0.26762 -0.95106 -0.15451
vn 0.06182 0.99781 0.02339
vn 0.05038 0.99859 0.01666
vn 0.04653 0.99882 0.01422
vn 0.05210 0.99849 0.01722
vn 0.06525 0.99756 0.02469
vn -0.26762 0.95106 -0.15451
vn -0.70063 0.58779 -0.40451
vn 0.09540 0.99453 0.04249
vn 0.07791 0.99482 0.06532
vn -0.57206 -0.58779 -0.57206
vn -0.21851 -0.95106 -0.21851
vn 0.05048 0.99799 0.03818
vn 0.04115 0.99874 0.02871
vn 0.03800 0.99896 0.02536
vn 0.04254 0.99865 0.02969
vn 0.05328 0.99777 0.04030
vn -0.21851 0.95106 -0.21851
vn -0.57206 0.58779 -0.57206
vn 0.07791 0.99482 0.06532
vn 0.05510 0.99504 0.08285
vn -0.40451 -0.58779 -0.70063
vn -0.15451 -0.95106 -0.26762
vn 0.03570 0.99813 0.04954
vn 0.02910 0.99886 0.03796
vn 0.02687 0.99906 0.03390
vn 0.03009 0.99878 0.03925
vn 0.03768 0.99792 0.05229
vn -0.15451 0.95106 -0.26762
vn -0.40451 0.58779 -0.70063
vn 0.05510 0.99504 0.08285
vn 0.02853 0.99518 0.09387
vn -0.20939 -0.58779 -0.78145
vn -0.07998 -0.95106 -0.29849
vn 0.01848 0.99822 0.05668
vn 0.01506 0.99893 0.04378
vn 0.01391 0.99913 0.03927
vn 0.01557 0.99885 0.04527
vn 0.01951 0.99802 0.05982
vn -0.07998 0.95106 -0.29849
vn -0.20939 0.58779 -0.78145
vn 0.02853 0.99518 0.09387
vn 0.00000 0.99522 0.09763
vn -0.00000 -0.58779 -0.80902
vn -0.00000 -0.95106 -0.30902
vn 0.00000 0.99825 0.05911
vn 0.00000 0.99895 0.04576
vn 0.00000 0.99915 0.04110
vn 0.00000 0.99888 0.04732
vn 0.00000 0.99805 0.06239
vn 0.00000 0.95106 -0.30902
vn 0.00000 0.58779 -0.80902
vn 0.00000 0.99522 0.09763
vn -0.02853 0.99518 0.09387
vn 0.20939 -0.58779 -0.78145
vn 0.07998 -0.95106 -0.29849
vn -0.01848 0.99822 0.05668
vn -0.01506 0.99893 0.04378
vn -0.01391 0.99913 0.03927
vn -0.01557 0.99885 0.04527
vn -0.01951 0.99802 0.05982
vn 0.07998 0.95106 -0.29849
vn 0.20939 0.58779 -0.78145
vn -0.02853 0.99518 0.09387
vn -0.05510 0.99504 0.08285
vn 0.40451 -0.58779 -0.70063
vn 0.15451 -0.95106 -0.26762
vn -0.03570 0.99813 0.04954
vn -0.02910 0.99886 0.03796
vn -0.02687 0.99906 0.03390
vn -0.03009 0.99878 0.03925
vn -0.03768 0.99792 0.05229
vn 0.15451 0.95106 -0.26762
vn 0.40451 0.58779 -0.70063
vn -0.05510 0.99504 0.08285
vn -0.07791 0.99482 0.06532
vn 0.57206 -0.58779 -0.57206
vn 0.21851 -0.95106 -0.21851
vn -0.05048 0.99799 0.03818
vn -0.04115 0.99874 0.02871
vn -0.03800 0.99896 0.02536
vn -0.04254 0.99865 0.02969
vn -0.05328 0.99777 0.04030
vn 0.21851 0.95106 -0.21851
vn 0.57206 0.58779 -0.57206
vn -0.07791 0.99482 0.06532
vn -0.09540 0.99453 0.04249
vn 0.70063 -0.58779 -0.40451
vn 0.26762 -0.95106 -0.15451
vn -0.06182 0.99781 0.02339
vn -0.05038 0.99859 0.01666
vn -0.04653 0.99882 0.01422
vn -0.05210 0.99849 0.01722
vn -0.06525 0.99756 0.02469
vn 0.26762 0.95106 -0.15451
vn 0.70063 0.58779 -0.40451
vn -0.09540 0.99453 0.04249
vn -0.10636 0.99420 0.01592
vn 0.78145 -0.58779 -0.20939
vn 0.29849 -0.95106 -0.07998
vn -0.06894 0.99760 0.00618
vn -0.05619 0.99842 0.00263
vn -0.05189 0.99865 0.00126
vn -0.05809 0.99831 0.00271
vn -0.07275 0.99733 0.00652
vn 0.29849 0.95106 -0.07998
vn 0.78145 0.58779 -0.20939
vn -0.10636 0.99420 0.01592
vn -0.11008 0.99384 -0.01258
vn 0.80902 -0.58779 0.00000
vn 0.30902 -0.95106 0.00000
vn -0.07135 0.99738 -0.01229
vn -0.05816 0.99823 -0.01243
vn -0.05372 0.99848 -0.01264
vn -0.06013 0.99811 -0.01285
vn -0.07530 0.99708 -0.01297
vn 0.30902 0.95106 0.00000
vn 0.80902 0.58779 0.00000
vn -0.11008 0.99384 -0.01258
vn -0.10629 0.99349 -0.04106
vn 0.78145 -0.58779 0.20939
vn 0.29849 -0.95106 0.07998
vn -0.06890 0.99715 -0.03075
vn -0.05617 0.99804 -0.02748
vn -0.05188 0.99830 -0.02654
vn -0.05807 0.99791 -0.02841
vn -0.07272 0.99682 -0.03245
vn 0.29849 0.95106 0.07998
vn 0.78145 0.58779 0.20939
vn -0.10629 0.99349 -0.04106
vn -0.09526 0.99316 -0.06757
vn 0.70063 -0.58779 0.40451
vn 0.26762 -0.95106 0.15451
vn -0.06177 0.99694 -0.04795
vn -0.05035 0.99787 -0.04149
vn -0.04650 0.99814 -0.03948
vn -0.05206 0.99772 -0.04290
vn -0.06518 0.99659 -0.05060
vn 0.26762 0.95106 0.15451
vn 0.70063 0.58779 0.40451
vn -0.09526 0.99316 -0.06757
vn -0.07776 0.99287 -0.09033
vn 0.57206 -0.58779 0.57206
vn 0.21851 -0.95106 0.21851
vn -0.05042 0.99676 -0.06271
vn -0.04110 0.99772 -0.05352
vn -0.03796 0.99800 -0.05060
vn -0.04250 0.99756 -0.05534
vn -0.05321 0.99639 -0.06617
vn 0.21851 0.95106 0.21851
vn 0.57206 0.58779 0.57206
vn -0.07776 0.99287 -0.09033
vn -0.05497 0.99265 -0.10778
vn 0.40451 -0.58779 0.70063
vn 0.15451 -0.95106 0.26762
vn -0.03565 0.99662 -0.07403
vn -0.02906 0.99761 -0.06276
vn -0.02684 0.99789 -0.05912
vn -0.03005 0.99744 -0.06488
vn -0.03762 0.99623 -0.07812
vn 0.15451 0.95106 0.26762
vn 0.40451 0.58779 0.70063
vn -0.05497 0.99265 -0.10778
vn -0.02845 0.99252 -0.11875
vn 0.20939 -0.58779 0.78145
vn 0.07998 -0.95106 0.29849
vn -0.01845 0.99653 -0.08114
vn -0.01504 0.99753 -0.06856
vn -0.01389 0.99782 -0.06448
vn -0.01555 0.99736 -0.07088
vn -0.01947 0.99614 -0.08563
vn 0.07998 0.95106 0.29849
vn 0.20939 0.58779 0.78145
vn -0.02845 0.99252 -0.11875
vn -0.00000 0.99247 -0.12249
vn 0.00000 -0.58779 0.80902
vn 0.00000 -0.95106 0.30902
vn -0.00000 0.99650 -0.08357
vn -0.00000 0.99751 -0.07054
vn -0.00000 0.99780 -0.06631
vn -0.00000 0.99734 -0.07292
vn -0.00000 0.99610 -0.08819
vn -0.00000 0.95106 0.30902
vn -0.00000 0.58779 0.80902
vn -0.00000 0.99247 -0.12249
vn 0.02845 0.99252 -0.11875
vn -0.20939 -0.58779 0.78145
vn -0.07998 -0.95106 0.29849
vn 0.01845 0.99653 -0.08114
vn 0.01504 0.99753 -0.06856
vn 0.01389 0.99782 -0.06448
vn 0.01555 0.99736 -0.07088
vn 0.01947 0.99614 -0.08563
vn -0.07998 0.95106 0.29849
vn -0.20939 0.58779 0.78145
vn 0.02845 0.99252 -0.11875
vn 0.05497 0.99265 -0.10778
vn -0.40451 -0.58779 0.70063
vn -0.15451 -0.95106 0.26762
vn 0.03565 0.99662 -0.07403
vn 0.02906 0.99761 -0.06276
vn 0.02684 0.99789 -0.05912
vn 0.03005 0.99744 -0.06488
vn 0.03762 0.99623 -0.07812
vn -0.15451 0.95106 0.26762
vn -0.40451 0.58779 0.70063
vn 0.05497 0.99265 -0.10778
vn 0.07776 0.99287 -0.09033
vn -0.57206 -0.58779 0.57206
vn -0.21851 -0.95106 0.21851
vn 0.05042 0.99676 -0.06271
vn 0.04110 0.99772 -0.05352
vn 0.03796 0.99800 -0.05060
vn 0.04250 0.99756 -0.05534
vn 0.05321 0.99639 -0.06617
vn -0.21851 0.95106 0.21851
vn -0.57206 0.58779 0.57206
vn 0.07776 0.99287 -0.09033
vn 0.09526 0.99316 -0.06757
vn -0.70063 -0.58779 0.40451
vn -0.26762 -0.95106 0.15451
vn 0.06177 0.99694 -0.04795
vn 0.05035 0.99787 -0.04149
vn 0.04650 0.99814 -0.03948
vn 0.05206 0.99772 -0.04290
vn 0.06518 0.99659 -0.05060
vn -0.26762 0.95106 0.15451
vn -0.70063 0.58779 0.40451
vn 0.09526 0.99316 -0.06757
vn 0.10629 0.99349 -0.04106
vn -0.78145 -0.58779 0.20939
vn -0.29849 -0.95106 0.07998
vn 0.06890 0.99715 -0.03075
vn 0.05617 0.99804 -0.02748
vn 0.05188 0.99830 -0.02654
vn 0.05807 0.99791 -0.02841
vn 0.07272 0.99682 -0.03245
vn -0.29849 0.95106 0.07998
vn -0.78145 0.58779 0.20939
vn 0.10629 0.99349 -0.04106
vn 0.11008 0.99384 -0.01258
vn 0.10303 0.99460 -0.01238
vn 0.08832 0.99602 -0.01228
vn 0.07135 0.99738 -0.01229
vn 0.05816 0.99823 -0.01243
vn 0.05372 0.99848 -0.01264
vn 0.06013 0.99811 -0.01285
vn 0.07530 0.99708 -0.01297
vn 0.09320 0.99556 -0.01295
vn 0.10650 0.99423 -0.01280
vn 0.11008 0.99384 -0.01258
vn -0.06607 0.99675 0.04600
vn -0.06877 0.99337 0.09210
vn -0.07130 0.98788 0.13786
vn -0.07360 0.98027 0.18347
vn -0.07551 0.97046 0.22913
vn -0.07671 0.95837 0.27505
vn -0.07466 0.94388 0.32174
vn -0.05811 0.99733 0.04414
vn -0.06187 0.99393 0.09097
vn -0.06546 0.98836 0.13734
vn -0.06883 0.98062 0.18341
vn -0.07188 0.97069 0.22935
vn -0.07432 0.95847 0.27535
vn -0.07415 0.94389 0.32183
vn -0.04074 0.99816 0.04494
vn -0.04654 0.99467 0.09201
vn -0.05225 0.98898 0.13853
vn -0.05786 0.98110 0.18463
vn -0.06333 0.97102 0.23047
vn -0.06858 0.95865 0.27620
vn -0.07289 0.94392 0.32204
vn -0.02030 0.99864 0.04803
vn -0.02843 0.99509 0.09477
vn -0.03656 0.98934 0.14094
vn -0.04475 0.98141 0.18666
vn -0.05307 0.97125 0.23207
vn -0.06166 0.95881 0.27729
vn -0.07136 0.94395 0.32228
vn -0.00397 0.99862 0.05233
vn -0.01394 0.99506 0.09828
vn -0.02401 0.98933 0.14370
vn -0.03426 0.98143 0.18875
vn -0.04485 0.97131 0.23355
vn -0.05612 0.95888 0.27820
vn -0.07014 0.94398 0.32246
vn 0.00218 0.99841 0.05633
vn -0.00849 0.99482 0.10129
vn -0.01928 0.98912 0.14585
vn -0.03031 0.98128 0.19017
vn -0.04178 0.97125 0.23439
vn -0.05406 0.95888 0.27860
vn -0.06970 0.94399 0.32252
vn -0.00474 0.99828 0.05850
vn -0.01457 0.99461 0.10266
vn -0.02451 0.98890 0.14655
vn -0.03465 0.98110 0.19035
vn -0.04516 0.97113 0.23425
vn -0.05633 0.95883 0.27834
vn -0.07020 0.94399 0.32243
vn -0.02265 0.99807 0.05785
vn -0.03032 0.99435 0.10174
vn -0.03803 0.98864 0.14544
vn -0.04584 0.98087 0.18918
vn -0.05383 0.97095 0.23315
vn -0.06213 0.95872 0.27749
vn -0.07147 0.94396 0.32223
vn -0.04446 0.99752 0.05455
vn -0.04950 0.99387 0.09881
vn -0.05452 0.98823 0.14290
vn -0.05950 0.98054 0.18707
vn -0.06443 0.97070 0.23150
vn -0.06920 0.95855 0.27638
vn -0.07300 0.94393 0.32198
vn -0.06109 0.99688 0.04996
vn -0.06423 0.99339 0.09509
vn -0.06726 0.98787 0.13998
vn -0.07013 0.98026 0.18486
vn -0.07273 0.97048 0.22995
vn -0.07478 0.95841 0.27544
vn -0.07422 0.94390 0.32180
vn -0.06607 0.99675 0.04600
vn -0.06877 0.99337 0.09210
vn -0.07130 0.98788 0.13786
vn -0.07360 0.98027 0.18347
vn -0.07551 0.97046 0.22913
vn -0.07671 0.95837 0.27505
vn -0.07466 0.94388 0.32174
vn 0.00439 0.99835 0.05732
vn 0.01633 0.99466 0.10194
vn 0.02838 0.98886 0.14614
vn 0.04068 0.98092 0.19009
vn 0.05342 0.97079 0.23393
vn 0.06697 0.95832 0.27772
vn 0.08387 0.94332 0.32111
vn 0.01032 0.99853 0.05313
vn 0.02161 0.99488 0.09875
vn 0.03297 0.98905 0.14385
vn 0.04452 0.98105 0.18855
vn 0.05642 0.97084 0.23300
vn 0.06898 0.95832 0.27726
vn 0.08430 0.94331 0.32104
vn 0.02646 0.99848 0.04835
vn 0.03593 0.99485 0.09482
vn 0.04540 0.98901 0.14070
vn 0.05491 0.98099 0.18614
vn 0.06455 0.97075 0.23126
vn 0.07447 0.95822 0.27618
vn 0.08551 0.94327 0.32082
vn 0.04678 0.99791 0.04466
vn 0.05395 0.99434 0.09152
vn 0.06100 0.98858 0.13783
vn 0.06794 0.98063 0.18372
vn 0.07475 0.97047 0.22936
vn 0.08135 0.95803 0.27488
vn 0.08703 0.94323 0.32053
vn 0.06417 0.99700 0.04335
vn 0.06927 0.99353 0.09004
vn 0.07420 0.98789 0.13625
vn 0.07890 0.98010 0.18217
vn 0.08328 0.97010 0.22797
vn 0.08707 0.95782 0.27385
vn 0.08828 0.94320 0.32029
vn 0.07227 0.99637 0.04499
vn 0.07628 0.99293 0.09097
vn 0.08012 0.98738 0.13660
vn 0.08372 0.97971 0.18210
vn 0.08696 0.96985 0.22765
vn 0.08948 0.95771 0.27348
vn 0.08880 0.94319 0.32018
vn 0.06751 0.99651 0.04910
vn 0.07192 0.99296 0.09409
vn 0.07622 0.98738 0.13885
vn 0.08036 0.97971 0.18360
vn 0.08424 0.96988 0.22856
vn 0.08760 0.95775 0.27394
vn 0.08837 0.94320 0.32025
vn 0.05110 0.99722 0.05418
vn 0.05738 0.99351 0.09825
vn 0.06363 0.98780 0.14215
vn 0.06985 0.98004 0.18612
vn 0.07604 0.97013 0.23036
vn 0.08208 0.95792 0.27504
vn 0.08716 0.94324 0.32048
vn 0.02941 0.99788 0.05813
vn 0.03830 0.99407 0.10175
vn 0.04723 0.98828 0.14518
vn 0.05627 0.98043 0.18865
vn 0.06550 0.97043 0.23233
vn 0.07505 0.95812 0.27637
vn 0.08563 0.94328 0.32077
vn 0.01146 0.99817 0.05929
vn 0.02254 0.99441 0.10314
vn 0.03371 0.98861 0.14669
vn 0.04509 0.98072 0.19015
vn 0.05684 0.97065 0.23369
vn 0.06926 0.95826 0.27739
vn 0.08437 0.94331 0.32101
vn 0.00439 0.99835 0.05732
vn 0.01633 0.99466 0.10194
vn 0.02838 0.98886 0.14614
vn 0.04068 0.98092 0.19009
vn 0.05342 0.97079 0.23393
vn 0.06697 0.95832 0.27772
vn 0.08387 0.94332 0.32111
f 1/1/1 12/12/12 13/13/13
f 1/1/1 13/13/13 2/2/2
f 2/2/2 13/13/13 14/14/14
f 2/2/2 14/14/14 3/3/3
f 3/3/3 14/14/14 15/15/15
f 3/3/3 15/15/15 4/4/4
f 4/4/4 15/15/15 16/16/16
f 4/4/4 16/16/16 5/5/5
f 5/5/5 16/16/16 17/17/17
f 5/5/5 17/17/17 6/6/6
f 6/6/6 17/17/17 18/18/18
f 6/6/6 18/18/18 7/7/7
f 7/7/7 18/18/18 19/19/19
f 7/7/7 19/19/19 8/8/8
f 8/8/8 19/19/19 20/20/20
f 8/8/8 20/20/20 9/9/9
f 9/9/9 20/20/20 21/21/21
f 9/9/9 21/21/21 10/10/10
f 10/10/10 21/21/21 22/22/22
f 10/10/10 22/22/22 11/11/11
f 12/12/12 23/23/23 24/24/24
f 12/12/12 24/24/24 13/13/13
f 13/13/13 24/24/24 25/25/25
f 13/13/13 25/25/25 14/14/14
f 14/14/14 25/25/25 26/26/26
f 14/14/14 26/26/26 15/15/15
f 15/15/15 26/26/26 27/27/27
f 15/15/15 27/27/27 16/16/16
f 16/16/16 27/27/27 28/28/28
f 16/16/16 28/28/28 17/17/17
f 17/17/17 28/28/28 29/29/29
f 17/17/17 29/29/29 18/18/18
f 18/18/18 29/29/29 30/30/30
f 18/18/18 30/30/30 19/19/19
f 19/19/19 30/30/30 31/31/31
f 19/19/19 31/31/31 20/20/20
f 20/20/20 31/31/31 32/32/32
f 20/20/20 32/32/32 21/21/21
f 21/21/21 32/32/32 33/33/33
f 21/21/21 33/33/33 22/22/22
f 23/23/23 34/34/34 35/35/35
f 23/23/23 35/35/35 24/24/24
f 24/24/24 35/35/35 36/36/36
f 24/24/24 36/36/36 25/25/25
f 25/25/25 36/36/36 37/37/37
f 25/25/25 37/37/37 26/26/26
f 26/26/26 37/37/37 38/38/38
f 26/26/26 38/38/38 27/27/27
f 27/27/27 38/38/38 39/39/39
f 27/27/27 39/39/39 28/28/28
f 28/28/28 39/39/39 40/40/40
f 28/28/28 40/40/40 29/29/29
f 29/29/29 40/40/40 41/41/41
f 29/29/29 41/41/41 30/30/30
f 30/30/30 41/41/41 42/42/42
f 30/30/30 42/42/42 31/31/31
f 31/31/31 42/42/42 43/43/43
f 31/31/31 43/43/43 32/32/32
f 32/32/32 43/43/43 44/44/44
f 32/32/32 44/44/44 33/33/33
f 34/34/34 45/45/45 46/46/46
f 34/34/34 46/46/46 35/35/35
f 35/35/35 46/46/46 47/47/47
f 35/35/35 47/47/47 36/36/36
f 36/36/36 47/47/47 48/48/48
f 36/36/36 48/48/48 37/37/37
f 37/37/37 48/48/48 49/49/49
f 37/37/37 49/49/49 38/38/38
f 38/38/38 49/49/49 50/50/50
f 38/38/38 50/50/50 39/39/39
f 39/39/39 50/50/50 51/51/51
f 39/39/39 51/51/51 40/40/40
f 40/40/40 51/51/51 52/52/52
f 40/40/40 52/52/52 41/41/41
f 41/41/41 52/52/52 53/53/53
f 41/41/41 53/53/53 42/42/42
f 42/42/42 53/53/53 54/54/54
f 42/42/42 54/54/54 43/43/43
f 43/43/43 54/54/54 55/55/55
f 43/43/43 55/55/55 44/44/44
f 45/45/45 56/56/56 57/57/57
f 45/45/45 57/57/57 46/46/46
f 46/46/46 57/57/57 58/58/58
f 46/46/46 58/58/58 47/47/47
f 47/47/47 58/58/58 59/59/59
f 47/47/47 59/59/59 48/48/48
f 48/48/48 59/59/59 60/60/60
f 48/48/48 60/60/60 49/49/49
f 49/49/49 60/60/60 61/61/61
f 49/49/49 61/61/61 50/50/50
f 50/50/50 61/61/61 62/62/62
f 50/50/50 62/62/62 51/51/51
f 51/51/51 62/62/62 63/63/63
f 51/51/51 63/63/63 52/52/52
f 52/52/52 63/63/63 64/64/64
f 52/52/52 64/64/64 53/53/53
f 53/53/53 64/64/64 65/65/65
f 53/53/53 65/65/65 54/54/54
f 54/54/54 65/65/65 66/66/66
f 54/54/54 66/66/66 55/55/55
f 56/56/56 67/67/67 68/68/68
f 56/56/56 68/68/68 57/57/57
f 57/57/57 68/68/68 69/69/69
f 57/57/57 69/69/69 58/58/58
f 58/58/58 69/69/69 70/70/70
f 58/58/58 70/70/70 59/59/59
f 59/59/59 70/70/70 71/71/71
f 59/59/59 71/71/71 60/60/60
f 60/60/60 71/71/71 72/72/72
f 60/60/60 72/72/72 61/61/61
f 61/61/61 72/72/72 73/73/73
f 61/61/61 73/73/73 62/62/62
f 62/62/62 73/73/73 74/74/74
f 62/62/62 74/74/74 63/63/63
f 63/63/63 74/74/74 75/75/75
f 63/63/63 75/75/75 64/64/64
f 64/64/64 75/75/75 76/76/76
f 64/64/64 76/76/76 65/65/65
f 65/65/65 76/76/76 77/77/77
f 65/65/65 77/77/77 66/66/66
f 67/67/67 78/78/78 79/79/79
f 67/67/67 79/79/79 68/68/68
f 68/68/68 79/79/79 80/80/80
f 68/68/68 80/80/80 69/69/69
f 69/69/69 80/80/80 81/81/81
f 69/69/69 81/81/81 70/70/70
f 70/70/70 81/81/81 82/82/82
f 70/70/70 82/82/82 71/71/71
f 71/71/71 82/82/82 83/83/83
f 71/71/71 83/83/83 72/72/72
f 72/72/72 83/83/83 84/84/84
f 72/72/72 84/84/84 73/73/73
f 73/73/73 84/84/84 85/85/85
f 73/73/73 85/85/85 74/74/74
f 74/74/74 85/85/85 86/86/86
f 74/74/74 86/86/86 75/75/75
f 75/75/75 86/86/86 87/87/87
f 75/75/75 87/87/87 76/76/76
f 76/76/76 87/87/87 88/88/88
f 76/76/76 88/88/88 77/77/77
f 78/78/78 89/89/89 90/90/90
f 78/78/78 90/90/90 79/79/79
f 79/79/79 90/90/90 91/91/91
f 79/79/79 91/91/91 80/80/80
f 80/80/80 91/91/91 92/92/92
f 80/80/80 92/92/92 81/81/81
f 81/81/81 92/92/92 93/93/93
f 81/81/81 93/93/93 82/82/82
f 82/82/82 93/93/93 94/94/94
f 82/82/82 94/94/94 83/83/83
f 83/83/83 94/94/94 95/95/95
f 83/83/83 95/95/95 84/84/84
f 84/84/84 95/95/95 96/96/96
f 84/84/84 96/96/96 85/85/85
f 85/85/85 96/96/96 97/97/97
f 85/85/85 97/97/97 86/86/86
f 86/86/86 97/97/97 98/98/98
f 86/86/86 98/98/98 87/87/87
f 87/87/87 98/98/98 99/99/99
f 87/87/87 99/99/99 88/88/88
f 89/89/89 100/100/100 101/101/101
f 89/89/89 101/101/101 90/90/90
f 90/90/90 101/101/101 102/102/102
f 90/90/90 102/102/102 91/91/91
f 91/91/91 102/102/102 103/103/103
f 91/91/91 103/103/103 92/92/92
f 92/92/92 103/103/103 104/104/104
f 92/92/92 104/104/104 93/93/93
f 93/93/93 104/104/104 105/105/105
f 93/93/93 105/105/105 94/94/94
f 94/94/94 105/105/105 106/106/106
f 94/94/94 106/106/106 95/95/95
f 95/95/95 106/106/106 107/107/107
f 95/95/95 107/107/107 96/96/96
f 96/96/96 107/107/107 108/108/108
f 96/96/96 108/108/108 97/97/97
f 97/97/97 108/108/108 109/109/109
f 97/97/97 109/109/109 98/98/98
f 98/98/98 109/109/109 110/110/110
f 98/98/98 110/110/110 99/99/99
f 100/100/100 111/111/111 112/112/112
f 100/100/100 112/112/112 101/101/101
f 101/101/101 112/112/112 113/113/113
f 101/101/101 113/113/113 102/102/102
f 102/102/102 113/113/113 114/114/114
f 102/102/102 114/114/114 103/103/103
f 103/103/103 114/114/114 115/115/115
f 103/103/103 115/115/115 104/104/104
f 104/104/104 115/115/115 116/116/116
f 104/104/104 116/116/116 105/105/105
f 105/105/105 116/116/116 117/117/117
f 105/105/105 117/117/117 106/106/106
f 106/106/106 117/117/117 118/118/118
f 106/106/106 118/118/118 107/107/107
f 107/107/107 118/118/118 119/119/119
f 107/107/107 119/119/119 108/108/108
f 108/108/108 119/119/119 120/120/120
f 108/108/108 120/120/120 109/109/109
f 109/109/109 120/120/120 121/121/121
f 109/109/109 121/121/121 110/110/110
f 111/111/111 122/122/122 123/123/123
f 111/111/111 123/123/123 112/112/112
f 112/112/112 123/123/123 124/124/124
f 112/112/112 124/124/124 113/113/113
f 113/113/113 124/124/124 125/125/125
f 113/113/113 125/125/125 114/114/114
f 114/114/114 125/125/125 126/126/126
f 114/114/114 126/126/126 115/115/115
f 115/115/115 126/126/126 127/127/127
f 115/115/115 127/127/127 116/116/116
f 116/116/116 127/127/127 128/128/128
f 116/116/116 128/128/128 117/117/117
f 117/117/117 128/128/128 129/129/129
f 117/117/117 129/129/129 118/118/118
f 118/118/118 129/129/129 130/130/130
f 118/118/118 130/130/130 119/119/119
f 119/119/119 130/130/130 131/131/131
f 119/119/119 131/131/131 120/120/120
f 120/120/120 131/131/131 132/132/132
f 120/120/120 132/132/132 121/121/121
f 122/122/122 133/133/133 134/134/134
f 122/122/122 134/134/134 123/123/123
f 123/123/123 134/134/134 135/135/135
f 123/123/123 135/135/135 124/124/124
f 124/124/124 135/135/135 136/136/136
f 124/124/124 136/136/136 125/125/125
f 125/125/125 136/136/136 137/137/137
f 125/125/125 137/137/137 126/126/126
f 126/126/126 137/137/137 138/138/138
f 126/126/126 138/138/138 127/127/127
f 127/127/127 138/138/138 139/139/139
f 127/127/127 139/139/139 128/128/128
f 128/128/128 139/139/139 140/140/140
f 128/128/128 140/140/140 129/129/129
f 129/129/129 140/140/140 141/141/141
f 129/129/129 141/141/141 130/130/130
f 130/130/130 141/141/141 142/142/142
f 130/130/130 142/142/142 131/131/131
f 131/131/131 142/142/142 143/143/143
f 131/131/131 143/143/143 132/132/132
f 133/133/133 144/144/144 145/145/145
f 133/133/133 145/145/145 134/134/134
f 134/134/134 145/145/145 146/146/146
f 134/134/134 146/146/146 135/135/135
f 135/135/135 146/146/146 147/147/147
f 135/135/135 147/147/147 136/136/136
f 136/136/136 147/147/147 148/148/148
f 136/136/136 148/148/148 137/137/137
f 137/137/137 148/148/148 149/149/149
f 137/137/137 149/149/149 138/138/138
f 138/138/138 149/149/149 150/150/150
f 138/138/138 150/150/150 139/139/139
f 139/139/139 150/150/150 151/151/151
f 139/139/139 151/151/151 140/140/140
f 140/140/140 151/151/151 152/152/152
f 140/140/140 152/152/152 141/141/141
f 141/141/141 152/152/152 153/153/153
f 141/141/141 153/153/153 142/142/142
f 142/142/142 153/153/153 154/154/154
f 142/142/142 154/154/154 143/143/143
f 144/144/144 155/155/155 156/156/156
f 144/144/144 156/156/156 145/145/145
f 145/145/145 156/156/156 157/157/157
f 145/145/145 157/157/157 146/146/146
f 146/146/146 157/157/157 158/158/158
f 146/146/146 158/158/158 147/147/147
f 147/147/147 158/158/158 159/159/159
f 147/147/147 159/159/159 148/148/148
f 148/148/148 159/159/159 160/160/160
f 148/148/148 160/160/160 149/149/149
f 149/149/149 160/160/160 161/161/161
f 149/149/149 161/161/161 150/150/150
f 150/150/150 161/161/161 162/162/162
f 150/150/150 162/162/162 151/151/151
f 151/151/151 162/162/162 163/163/163
f 151/151/151 163/163/163 152/152/152
f 152/152/152 163/163/163 164/164/164
f 152/152/152 164/164/164 153/153/153
f 153/153/153 164/164/164 165/165/165
f 153/153/153 165/165/165 154/154/154
f 155/155/155 166/166/166 167/167/167
f 155/155/155 167/167/167 156/156/156
f 156/156/156 167/167/167 168/168/168
f 156/156/156 168/168/168 157/157/157
f 157/157/157 168/168/168 169/169/169
f 157/157/157 169/169/169 158/158/158
f 158/158/158 169/169/169 170/170/170
f 158/158/158 170/170/170 159/159/159
f 159/159/159 170/170/170 171/171/171
f 159/159/159 171/171/171 160/160/160
f 160/160/160 171/171/171 172/172/172
f 160/160/160 172/172/172 161/161/161
f 161/161/161 172/172/172 173/173/173
f 161/161/161 173/173/173 162/162/162
f 162/162/162 173/173/173 174/174/174
f 162/162/162 174/174/174 163/163/163
f 163/163/163 174/174/174 175/175/175
f 163/163/163 175/175/175 164/164/164
f 164/164/164 175/175/175 176/176/176
f 164/164/164 176/176/176 165/165/165
f 166/166/166 177/177/177 178/178/178
f 166/166/166 178/178/178 167/167/167
f 167/167/167 178/178/178 179/179/179
f 167/167/167 179/179/179 168/168/168
f 168/168/168 179/179/179 180/180/180
f 168/168/168 180/180/180 169/169/169
f 169/169/169 180/180/180 181/181/181
f 169/169/169 181/181/181 170/170/170
f 170/170/170 181/181/181 182/182/182
f 170/170/170 182/182/182 171/171/171
f 171/171/171 182/182/182 183/183/183
f 171/171/171 183/183/183 172/172/172
f 172/172/172 183/183/183 184/184/184
f 172/172/172 184/184/184 173/173/173
f 173/173/173 184/184/184 185/185/185
f 173/173/173 185/185/185 174/174/174
f 174/174/174 185/185/185 186/186/186
f 174/174/174 186/186/186 175/175/175
f 175/175/175 186/186/186 187/187/187
f 175/175/175 187/187/187 176/176/176
f 177/177/177 188/188/188 189/189/189
f 177/177/177 189/189/189 178/178/178
f 178/178/178 189/189/189 190/190/190
f 178/178/178 190/190/190 179/179/179
f 179/179/179 190/190/190 191/191/191
f 179/179/179 191/191/191 180/180/180
f 180/180/180 191/191/191 192/192/192
f 180/180/180 192/192/192 181/181/181
f 181/181/181 192/192/192 193/193/193
f 181/181/181 193/193/193 182/182/182
f 182/182/182 193/193/193 194/194/194
f 182/182/182 194/194/194 183/183/183
f 183/183/183 194/194/194 195/195/195
f 183/183/183 195/195/195 184/184/184
f 184/184/184 195/195/195 196/196/196
f 184/184/184 196/196/196 185/185/185
f 185/185/185 196/196/196 197/197/197
f 185/185/185 197/197/197 186/186/186
f 186/186/186 197/197/197 198/198/198
f 186/186/186 198/198/198 187/187/187
f 188/188/188 199/199/199 200/200/200
f 188/188/188 200/200/200 189/189/189
f 189/189/189 200/200/200 201/201/201
f 189/189/189 201/201/201 190/190/190
f 190/190/190 201/201/201 202/202/202
f 190/190/190 202/202/202 191/191/191
f 191/191/191 202/202/202 203/203/203
f 191/191/191 203/203/203 192/192/192
f 192/192/192 203/203/203 204/204/204
f 192/192/192 204/204/204 193/193/193
f 193/193/193 204/204/204 205/205/205
f 193/193/193 205/205/205 194/194/194
f 194/194/194 205/205/205 206/206/206
f 194/194/194 206/206/206 195/195/195
f 195/195/195 206/206/206 207/207/207
f 195/195/195 207/207/207 196/196/196
f 196/196/196 207/207/207 208/208/208
f 196/196/196 208/208/208 197/197/197
f 197/197/197 208/208/208 209/209/209
f 197/197/197 209/209/209 198/198/198
f 199/199/199 210/210/210 211/211/211
f 199/199/199 211/211/211 200/200/200
f 200/200/200 211/211/211 212/212/212
f 200/200/200 212/212/212 201/201/201
f 201/201/201 212/212/212 213/213/213
f 201/201/201 213/213/213 202/202/202
f 202/202/202 213/213/213 214/214/214
f 202/202/202 214/214/214 203/203/203
f 203/203/203 214/214/214 215/215/215
f 203/203/203 215/215/215 204/204/204
f 204/204/204 215/215/215 216/216/216
f 204/204/204 216/216/216 205/205/205
f 205/205/205 216/216/216 217/217/217
f 205/205/205 217/217/217 206/206/206
f 206/206/206 217/217/217 218/218/218
f 206/206/206 218/218/218 207/207/207
f 207/207/207 218/218/218 219/219/219
f 207/207/207 219/219/219 208/208/208
f 208/208/208 219/219/219 220/220/220
f 208/208/208 220/220/220 209/209/209
f 210/210/210 221/221/221 222/222/222
f 210/210/210 222/222/222 211/211/211
f 211/211/211 222/222/222 223/223/223
f 211/211/211 223/223/223 212/212/212
f 212/212/212 223/223/223 224/224/224
f 212/212/212 224/224/224 213/213/213
f 213/213/213 224/224/224 225/225/225
f 213/213/213 225/225/225 214/214/214
f 214/214/214 225/225/225 226/226/226
f 214/214/214 226/226/226 215/215/215
f 215/215/215 226/226/226 227/227/227
f 215/215/215 227/227/227 216/216/216
f 216/216/216 227/227/227 228/228/228
f 216/216/216 228/228/228 217/217/217
f 217/217/217 228/228/228 229/229/229
f 217/217/217 229/229/229 218/218/218
f 218/218/218 229/229/229 230/230/230
f 218/218/218 230/230/230 219/219/219
f 219/219/219 230/230/230 231/231/231
f 219/219/219 231/231/231 220/220/220
f 221/221/221 232/232/232 233/233/233
f 221/221/221 233/233/233 222/222/222
f 222/222/222 233/233/233 234/234/234
f 222/222/222 234/234/234 223/223/223
f 223/223/223 234/234/234 235/235/235
f 223/223/223 235/235/235 224/224/224
f 224/224/224 235/235/235 236/236/236
f 224/224/224 236/236/236 225/225/225
f 225/225/225 236/236/236 237/237/237
f 225/225/225 237/237/237 226/226/226
f 226/226/226 237/237/237 238/238/238
f 226/226/226 238/238/238 227/227/227
f 227/227/227 238/238/238 239/239/239
f 227/227/227 239/239/239 228/228/228
f 228/228/228 239/239/239 240/240/240
f 228/228/228 240/240/240 229/229/229
f 229/229/229 240/240/240 241/241/241
f 229/229/229 241/241/241 230/230/230
f 230/230/230 241/241/241 242/242/242
f 230/230/230 242/242/242 231/231/231
f 232/232/232 243/243/243 244/244/244
f 232/232/232 244/244/244 233/233/233
f 233/233/233 244/244/244 245/245/245
f 233/233/233 245/245/245 234/234/234
f 234/234/234 245/245/245 246/246/246
f 234/234/234 246/246/246 235/235/235
f 235/235/235 246/246/246 247/247/247
f 235/235/235 247/247/247 236/236/236
f 236/236/236 247/247/247 248/248/248
f 236/236/236 248/248/248 237/237/237
f 237/237/237 248/248/248 249/249/249
f 237/237/237 249/249/249 238/238/238
f 238/238/238 249/249/249 250/250/250
f 238/238/238 250/250/250 239/239/239
f 239/239/239 250/250/250 251/251/251
f 239/239/239 251/251/251 240/240/240
f 240/240/240 251/251/251 252/252/252
f 240/240/240 252/252/252 241/241/241
f 241/241/241 252/252/252 253/253/253
f 241/241/241 253/253/253 242/242/242
f 243/243/243 254/254/254 255/255/255
f 243/243/243 255/255/255 244/244/244
f 244/244/244 255/255/255 256/256/256
f 244/244/244 256/256/256 245/245/245
f 245/245/245 256/256/256 257/257/257
f 245/245/245 257/257/257 246/246/246
f 246/246/246 257/257/257 258/258/258
f 246/246/246 258/258/258 247/247/247
f 247/247/247 258/258/258 259/259/259
f 247/247/247 259/259/259 248/248/248
f 248/248/248 259/259/259 260/260/260
f 248/248/248 260/260/260 249/249/249
f 249/249/249 260/260/260 261/261/261
f 249/249/249 261/261/261 250/250/250
f 250/250/250 261/261/261 262/262/262
f 250/250/250 262/262/262 251/251/251
f 251/251/251 262/262/262 263/263/263
f 251/251/251 263/263/263 252/252/252
f 252/252/252 263/263/263 264/264/264
f 252/252/252 264/264/264 253/253/253
f 254/254/254 265/265/265 266/266/266
f 254/254/254 266/266/266 255/255/255
f 255/255/255 266/266/266 267/267/267
f 255/255/255 267/267/267 256/256/256
f 256/256/256 267/267/267 268/268/268
f 256/256/256 268/268/268 257/257/257
f 257/257/257 268/268/268 269/269/269
f 257/257/257 269/269/269 258/258/258
f 258/258/258 269/269/269 270/270/270
f 258/258/258 270/270/270 259/259/259
f 259/259/259 270/270/270 271/271/271
f 259/259/259 271/271/271 260/260/260
f 260/260/260 271/271/271 272/272/272
f 260/260/260 272/272/272 261/261/261
f 261/261/261 272/272/272 273/273/273
f 261/261/261 273/273/273 262/262/262
f 262/262/262 273/273/273 274/274/274
f 262/262/262 274/274/274 263/263/263
f 263/263/263 274/274/274 275/275/275
f 263/263/263 275/275/275 264/264/264
f 276/276/276 283/283/283 284/284/284
f 276/276/276 284/284/284 277/277/277
f 277/277/277 284/284/284 285/285/285
f 277/277/277 285/285/285 278/278/278
f 278/278/278 285/285/285 286/286/286
f 278/278/278 286/286/286 279/279/279
f 279/279/279 286/286/286 287/287/287
f 279/279/279 287/287/287 280/280/280
f 280/280/280 287/287/287 288/288/288
f 280/280/280 288/288/288 281/281/281
f 281/281/281 288/288/288 289/289/289
f 281/281/281 289/289/289 282/282/282
f 283/283/283 290/290/290 291/291/291
f 283/283/283 291/291/291 284/284/284
f 284/284/284 291/291/291 292/292/292
f 284/284/284 292/292/292 285/285/285
f 285/285/285 292/292/292 293/293/293
f 285/285/285 293/293/293 286/286/286
f 286/286/286 293/293/293 294/294/294
f 286/286/286 294/294/294 287/287/287
f 287/287/287 294/294/294 295/295/295
f 287/287/287 295/295/295 288/288/288
f 288/288/288 295/295/295 296/296/296
f 288/288/288 296/296/296 289/289/289
f 290/290/290 297/297/297 298/298/298
f 290/290/290 298/298/298 291/291/291
f 291/291/291 298/298/298 299/299/299
f 291/291/291 299/299/299 292/292/292
f 292/292/292 299/299/299 300/300/300
f 292/292/292 300/300/300 293/293/293
f 293/293/293 300/300/300 301/301/301
f 293/293/293 301/301/301 294/294/294
f 294/294/294 301/301/301 302/302/302
f 294/294/294 302/302/302 295/295/295
f 295/295/295 302/302/302 303/303/303
f 295/295/295 303/303/303 296/296/296
f 297/297/297 304/304/304 305/305/305
f 297/297/297 305/305/305 298/298/298
f 298/298/298 305/305/305 306/306/306
f 298/298/298 306/306/306 299/299/299
f 299/299/299 306/306/306 307/307/307
f 299/299/299 307/307/307 300/300/300
f 300/300/300 307/307/307 308/308/308
f 300/300/300 308/308/308 301/301/301
f 301/301/301 308/308/308 309/309/309
f 301/301/301 309/309/309 302/302/302
f 302/302/302 309/309/309 310/310/310
f 302/302/302 310/310/310 303/303/303
f 304/304/304 311/311/311 312/312/312
f 304/304/304 312/312/312 305/305/305
f 305/305/305 312/312/312 313/313/313
f 305/305/305 313/313/313 306/306/306
f 306/306/306 313/313/313 314/314/314
f 306/306/306 314/314/314 307/307/307
f 307/307/307 314/314/314 315/315/315
f 307/307/307 315/315/315 308/308/308
f 308/308/308 315/315/315 316/316/316
f 308/308/308 316/316/316 309/309/309
f 309/309/309 316/316/316 317/317/317
f 309/309/309 317/317/317 310/310/310
f 311/311/311 318/318/318 319/319/319
f 311/311/311 319/319/319 312/312/312
f 312/312/312 319/319/319 320/320/320
f 312/312/312 320/320/320 313/313/313
f 313/313/313 320/320/320 321/321/321
f 313/313/313 321/321/321 314/314/314
f 314/314/314 321/321/321 322/322/322
f 314/314/314 322/322/322 315/315/315
f 315/315/315 322/322/322 323/323/323
f 315/315/315 323/323/323 316/316/316
f 316/316/316 323/323/323 324/324/324
f 316/316/316 324/324/324 317/317/317
f 318/318/318 325/325/325 326/326/326
f 318/318/318 326/326/326 319/319/319
f 319/319/319 326/326/326 327/327/327
f 319/319/319 327/327/327 320/320/320
f 320/320/320 327/327/327 328/328/328
f 320/320/320 328/328/328 321/321/321
f 321/321/321 328/328/328 329/329/329
f 321/321/321 329/329/329 322/322/322
f 322/322/322 329/329/329 330/330/330
f 322/322/322 330/330/330 323/323/323
f 323/323/323 330/330/330 331/331/331
f 323/323/323 331/331/331 324/324/324
f 325/325/325 332/332/332 333/333/333
f 325/325/325 333/333/333 326/326/326
f 326/326/326 333/333/333 334/334/334
f 326/326/326 334/334/334 327/327/327
f 327/327/327 334/334/334 335/335/335
f 327/327/327 335/335/335 328/328/328
f 328/328/328 335/335/335 336/336/336
f 328/328/328 336/336/336 329/329/329
f 329/329/329 336/336/336 337/337/337
f 329/329/329 337/337/337 330/330/330
f 330/330/330 337/337/337 338/338/338
f 330/330/330 338/338/338 331/331/331
f 332/332/332 339/339/339 340/340/340
f 332/332/332 340/340/340 333/333/333
f 333/333/333 340/340/340 341/341/341
f 333/333/333 341/341/341 334/334/334
f 334/334/334 341/341/341 342/342/342
f 334/334/334 342/342/342 335/335/335
f 335/335/335 342/342/342 343/343/343
f 335/335/335 343/343/343 336/336/336
f 336/336/336 343/343/343 344/344/344
f 336/336/336 344/344/344 337/337/337
f 337/337/337 344/344/344 345/345/345
f 337/337/337 345/345/345 338/338/338
f 339/339/339 346/346/346 347/347/347
f 339/339/339 347/347/347 340/340/340
f 340/340/340 347/347/347 348/348/348
f 340/340/340 348/348/348 341/341/341
f 341/341/341 348/348/348 349/349/349
f 341/341/341 349/349/349 342/342/342
f 342/342/342 349/349/349 350/350/350
f 342/342/342 350/350/350 343/343/343
f 343/343/343 350/350/350 351/351/351
f 343/343/343 351/351/351 344/344/344
f 344/344/344 351/351/351 352/352/352
f 344/344/344 352/352/352 345/345/345
f 353/353/353 360/360/360 361/361/361
f 353/353/353 361/361/361 354/354/354
f 354/354/354 361/361/361 362/362/362
f 354/354/354 362/362/362 355/355/355
f 355/355/355 362/362/362 363/363/363
f 355/355/355 363/363/363 356/356/356
f 356/356/356 363/363/363 364/364/364
f 356/356/356 364/364/364 357/357/357
f 357/357/357 364/364/364 365/365/365
f 357/357/357 365/365/365 358/358/358
f 358/358/358 365/365/365 366/366/366
f 358/358/358 366/366/366 359/359/359
f 360/360/360 367/367/367 368/368/368
f 360/360/360 368/368/368 361/361/361
f 361/361/361 368/368/368 369/369/369
f 361/361/361 369/369/369 362/362/362
f 362/362/362 369/369/369 370/370/370
f 362/362/362 370/370/370 363/363/363
f 363/363/363 370/370/370 371/371/371
f 363/363/363 371/371/371 364/364/364
f 364/364/364 371/371/371 372/372/372
f 364/364/364 372/372/372 365/365/365
f 365/365/365 372/372/372 373/373/373
f 365/365/365 373/373/373 366/366/366
f 367/367/367 374/374/374 375/375/375
f 367/367/367 375/375/375 368/368/368
f 368/368/368 375/375/375 376/376/376
f 368/368/368 376/376/376 369/369/369
f 369/369/369 376/376/376 377/377/377
f 369/369/369 377/377/377 370/370/370
f 370/370/370 377/377/377 378/378/378
f 370/370/370 378/378/378 371/371/371
f 371/371/371 378/378/378 379/379/379
f 371/371/371 379/379/379 372/372/372
f 372/372/372 379/379/379 380/380/380
f 372/372/372 380/380/380 373/373/373
f 374/374/374 381/381/381 382/382/382
f 374/374/374 382/382/382 375/375/375
f 375/375/375 382/382/382 383/383/383
f 375/375/375 383/383/383 376/376/376
f 376/376/376 383/383/383 384/384/384
f 376/376/376 384/384/384 377/377/377
f 377/377/377 384/384/384 385/385/385
f 377/377/377 385/385/385 378/378/378
f 378/378/378 385/385/385 386/386/386
f 378/378/378 386/386/386 379/379/379
f 379/379/379 386/386/386 387/387/387
f 379/379/379 387/387/387 380/380/380
f 381/381/381 388/388/388 389/389/389
f 381/381/381 389/389/389 382/382/382
f 382/382/382 389/389/389 390/390/390
f 382/382/382 390/390/390 383/383/383
f 383/383/383 390/390/390 391/391/391
f 383/383/383 391/391/391 384/384/384
f 384/384/384 391/391/391 392/392/392
f 384/384/384 392/392/392 385/385/385
f 385/385/385 392/392/392 393/393/393
f 385/385/385 393/393/393 386/386/386
f 386/386/386 393/393/393 394/394/394
f 386/386/386 394/394/394 387/387/387
f 388/388/388 395/395/395 396/396/396
f 388/388/388 396/396/396 389/389/389
f 389/389/389 396/396/396 397/397/397
f 389/389/389 397/397/397 390/390/390
f 390/390/390 397/397/397 398/398/398
f 390/390/390 398/398/398 391/391/391
f 391/391/391 398/398/398 399/399/399
f 391/391/391 399/399/399 392/392/392
f 392/392/392 399/399/399 400/400/400
f 392/392/392 400/400/400 393/393/393
f 393/393/393 400/400/400 401/401/401
f 393/393/393 401/401/401 394/394/394
f 395/395/395 402/402/402 403/403/403
f 395/395/395 403/403/403 396/396/396
f 396/396/396 403/403/403 404/404/404
f 396/396/396 404/404/404 397/397/397
f 397/397/397 404/404/404 405/405/405
f 397/397/397 405/405/405 398/398/398
f 398/398/398 405/405/405 406/406/406
f 398/398/398 406/406/406 399/399/399
f 399/399/399 406/406/406 407/407/407
f 399/399/399 407/407/407 400/400/400
f 400/400/400 407/407/407 408/408/408
f 400/400/400 408/408/408 401/401/401
f 402/402/402 409/409/409 410/410/410
f 402/402/402 410/410/410 403/403/403
f 403/403/403 410/410/410 411/411/411
f 403/403/403 411/411/411 404/404/404
f 404/404/404 411/411/411 412/412/412
f 404/404/404 412/412/412 405/405/405
f 405/405/405 412/412/412 413/413/413
f 405/405/405 413/413/413 406/406/406
f 406/406/406 413/413/413 414/414/414
f 406/406/406 414/414/414 407/407/407
f 407/407/407 414/414/414 415/415/415
f 407/407/407 415/415/415 408/408/408
f 409/409/409 416/416/416 417/417/417
f 409/409/409 417/417/417 410/410/410
f 410/410/410 417/417/417 418/418/418
f 410/410/410 418/418/418 411/411/411
f 411/411/411 418/418/418 419/419/419
f 411/411/411 419/419/419 412/412/412
f 412/412/412 419/419/419 420/420/420
f 412/412/412 420/420/420 413/413/413
f 413/413/413 420/420/420 421/421/421
f 413/413/413 421/421/421 414/414/414
f 414/414/414 421/421/421 422/422/422
f 414/414/414 422/422/422 415/415/415
f 416/416/416 423/423/423 424/424/424
f 416/416/416 424/424/424 417/417/417
f 417/417/417 424/424/424 425/425/425
f 417/417/417 425/425/425 418/418/418
f 418/418/418 425/425/425 426/426/426
f 418/418/418 426/426/426 419/419/419
f 419/419/419 426/426/426 427/427/427
f 419/419/419 427/427/427 420/420/420
f 420/420/420 427/427/427 428/428/428
f 420/420/420 428/428/428 421/421/421
f 421/421/421 428/428/428 429/429/429
f 421/421/421 429/429/429 422/422/422
