# procedural asset
v 0.09800 1.70000 -0.24000
v 0.09533 1.69600 -0.27600
v 0.09261 1.69200 -0.31200
v 0.08982 1.68800 -0.34800
v 0.08697 1.68400 -0.38400
v 0.08405 1.68000 -0.42000
v 0.08105 1.67600 -0.45600
v 0.07796 1.67200 -0.49200
v 0.07477 1.66800 -0.52800
v 0.07148 1.66400 -0.56400
v 0.06806 1.66000 -0.60000
v 0.06450 1.65600 -0.63600
v 0.06078 1.65200 -0.67200
v 0.05687 1.64800 -0.70800
v 0.05273 1.64400 -0.74400
v 0.04830 1.64000 -0.78000
v 0.04350 1.63600 -0.81600
v 0.03819 1.63200 -0.85200
v 0.03210 1.62800 -0.88800
v 0.02458 1.62400 -0.92400
v 0.01000 1.62000 -0.96000
v 0.09466 1.72521 -0.24280
v 0.09208 1.72052 -0.27872
v 0.08945 1.71582 -0.31465
v 0.08676 1.71111 -0.35057
v 0.08401 1.70637 -0.38649
v 0.08119 1.70162 -0.42240
v 0.07828 1.69685 -0.45832
v 0.07530 1.69205 -0.49423
v 0.07222 1.68723 -0.53014
v 0.06904 1.68239 -0.56604
v 0.06574 1.67751 -0.60195
v 0.06230 1.67259 -0.63784
v 0.05871 1.66764 -0.67374
v 0.05494 1.66263 -0.70963
v 0.05094 1.65756 -0.74551
v 0.04666 1.65243 -0.78138
v 0.04202 1.64719 -0.81724
v 0.03689 1.64182 -0.85309
v 0.03101 1.63626 -0.88892
v 0.02375 1.63032 -0.92470
v 0.00966 1.62257 -0.96029
v 0.08487 1.74870 -0.24541
v 0.08256 1.74337 -0.28126
v 0.08020 1.73802 -0.31711
v 0.07779 1.73264 -0.35296
v 0.07532 1.72722 -0.38880
v 0.07279 1.72177 -0.42464
v 0.07019 1.71628 -0.46048
v 0.06751 1.71074 -0.49630
v 0.06475 1.70516 -0.53213
v 0.06190 1.69952 -0.56795
v 0.05894 1.69382 -0.60376
v 0.05586 1.68805 -0.63956
v 0.05264 1.68221 -0.67536
v 0.04925 1.67626 -0.71114
v 0.04567 1.67020 -0.74691
v 0.04183 1.66400 -0.78267
v 0.03768 1.65762 -0.81840
v 0.03308 1.65098 -0.85411
v 0.02780 1.64395 -0.88977
v 0.02129 1.63622 -0.92536
v 0.00866 1.62497 -0.96055
v 0.06930 1.76887 -0.24765
v 0.06741 1.76300 -0.28344
v 0.06548 1.75708 -0.31923
v 0.06352 1.75113 -0.35501
v 0.06150 1.74512 -0.39079
v 0.05943 1.73907 -0.42656
v 0.05731 1.73296 -0.46233
v 0.05512 1.72679 -0.49809
v 0.05287 1.72055 -0.53384
v 0.05054 1.71423 -0.56958
v 0.04812 1.70783 -0.60531
v 0.04561 1.70133 -0.64104
v 0.04298 1.69472 -0.67675
v 0.04022 1.68797 -0.71244
v 0.03729 1.68106 -0.74812
v 0.03416 1.67395 -0.78377
v 0.03076 1.66657 -0.81940
v 0.02701 1.65884 -0.85498
v 0.02270 1.65056 -0.89051
v 0.01738 1.64128 -0.92592
v 0.00707 1.62703 -0.96078
v 0.04900 1.78435 -0.24937
v 0.04767 1.77806 -0.28512
v 0.04630 1.77171 -0.32086
v 0.04491 1.76531 -0.35659
v 0.04349 1.75886 -0.39232
v 0.04202 1.75234 -0.42804
v 0.04052 1.74576 -0.46375
v 0.03898 1.73910 -0.49946
v 0.03738 1.73236 -0.53515
v 0.03574 1.72552 -0.57084
v 0.03403 1.71858 -0.60651
v 0.03225 1.71152 -0.64217
v 0.03039 1.70432 -0.67781
v 0.02844 1.69695 -0.71344
v 0.02637 1.68939 -0.74904
v 0.02415 1.68158 -0.78462
v 0.02175 1.67345 -0.82016
v 0.01910 1.66487 -0.85565
v 0.01605 1.65563 -0.89107
v 0.01229 1.64516 -0.92635
v 0.00500 1.62861 -0.96096
v 0.02536 1.79408 -0.25045
v 0.02467 1.78752 -0.28617
v 0.02397 1.78091 -0.32188
v 0.02325 1.77423 -0.35758
v 0.02251 1.76750 -0.39328
v 0.02175 1.76069 -0.42897
v 0.02098 1.75381 -0.46465
v 0.02018 1.74684 -0.50032
v 0.01935 1.73978 -0.53598
v 0.01850 1.73262 -0.57162
v 0.01761 1.72534 -0.60726
v 0.01669 1.71792 -0.64288
v 0.01573 1.71035 -0.67848
v 0.01472 1.70260 -0.71407
v 0.01365 1.69462 -0.74962
v 0.01250 1.68637 -0.78515
v 0.01126 1.67776 -0.82064
v 0.00989 1.66867 -0.85607
v 0.00831 1.65882 -0.89142
v 0.00636 1.64760 -0.92662
v 0.00259 1.62960 -0.96107
v 0.00000 1.79740 -0.25082
v 0.00000 1.79075 -0.28653
v 0.00000 1.78404 -0.32223
v 0.00000 1.77727 -0.35792
v 0.00000 1.77044 -0.39360
v 0.00000 1.76353 -0.42928
v 0.00000 1.75655 -0.46495
v 0.00000 1.74948 -0.50061
v 0.00000 1.74231 -0.53626
v 0.00000 1.73504 -0.57189
v 0.00000 1.72764 -0.60752
v 0.00000 1.72011 -0.64312
v 0.00000 1.71241 -0.67871
v 0.00000 1.70453 -0.71428
v 0.00000 1.69641 -0.74982
v 0.00000 1.68801 -0.78533
v 0.00000 1.67924 -0.82080
v 0.00000 1.66996 -0.85622
v 0.00000 1.65991 -0.89155
v 0.00000 1.64843 -0.92671
v 0.00000 1.62994 -0.96110
v -0.02536 1.79408 -0.25045
v -0.02467 1.78752 -0.28617
v -0.02397 1.78091 -0.32188
v -0.02325 1.77423 -0.35758
v -0.02251 1.76750 -0.39328
v -0.02175 1.76069 -0.42897
v -0.02098 1.75381 -0.46465
v -0.02018 1.74684 -0.50032
v -0.01935 1.73978 -0.53598
v -0.01850 1.73262 -0.57162
v -0.01761 1.72534 -0.60726
v -0.01669 1.71792 -0.64288
v -0.01573 1.71035 -0.67848
v -0.01472 1.70260 -0.71407
v -0.01365 1.69462 -0.74962
v -0.01250 1.68637 -0.78515
v -0.01126 1.67776 -0.82064
v -0.00989 1.66867 -0.85607
v -0.00831 1.65882 -0.89142
v -0.00636 1.64760 -0.92662
v -0.00259 1.62960 -0.96107
v -0.04900 1.78435 -0.24937
v -0.04767 1.77806 -0.28512
v -0.04630 1.77171 -0.32086
v -0.04491 1.76531 -0.35659
v -0.04349 1.75886 -0.39232
v -0.04202 1.75234 -0.42804
v -0.04052 1.74576 -0.46375
v -0.03898 1.73910 -0.49946
v -0.03738 1.73236 -0.53515
v -0.03574 1.72552 -0.57084
v -0.03403 1.71858 -0.60651
v -0.03225 1.71152 -0.64217
v -0.03039 1.70432 -0.67781
v -0.02844 1.69695 -0.71344
v -0.02637 1.68939 -0.74904
v -0.02415 1.68158 -0.78462
v -0.02175 1.67345 -0.82016
v -0.01910 1.66487 -0.85565
v -0.01605 1.65563 -0.89107
v -0.01229 1.64516 -0.92635
v -0.00500 1.62861 -0.96096
v -0.06930 1.76887 -0.24765
v -0.06741 1.76300 -0.28344
v -0.06548 1.75708 -0.31923
v -0.06352 1.75113 -0.35501
v -0.06150 1.74512 -0.39079
v -0.05943 1.73907 -0.42656
v -0.05731 1.73296 -0.46233
v -0.05512 1.72679 -0.49809
v -0.05287 1.72055 -0.53384
v -0.05054 1.71423 -0.56958
v -0.04812 1.70783 -0.60531
v -0.04561 1.70133 -0.64104
v -0.04298 1.69472 -0.67675
v -0.04022 1.68797 -0.71244
v -0.03729 1.68106 -0.74812
v -0.03416 1.67395 -0.78377
v -0.03076 1.66657 -0.81940
v -0.02701 1.65884 -0.85498
v -0.02270 1.65056 -0.89051
v -0.01738 1.64128 -0.92592
v -0.00707 1.62703 -0.96078
v -0.08487 1.74870 -0.24541
v -0.08256 1.74337 -0.28126
v -0.08020 1.73802 -0.31711
v -0.07779 1.73264 -0.35296
v -0.07532 1.72722 -0.38880
v -0.07279 1.72177 -0.42464
v -0.07019 1.71628 -0.46048
v -0.06751 1.71074 -0.49630
v -0.06475 1.70516 -0.53213
v -0.06190 1.69952 -0.56795
v -0.05894 1.69382 -0.60376
v -0.05586 1.68805 -0.63956
v -0.05264 1.68221 -0.67536
v -0.04925 1.67626 -0.71114
v -0.04567 1.67020 -0.74691
v -0.04183 1.66400 -0.78267
v -0.03768 1.65762 -0.81840
v -0.03308 1.65098 -0.85411
v -0.02780 1.64395 -0.88977
v -0.02129 1.63622 -0.92536
v -0.00866 1.62497 -0.96055
v -0.09466 1.72521 -0.24280
v -0.09208 1.72052 -0.27872
v -0.08945 1.71582 -0.31465
v -0.08676 1.71111 -0.35057
v -0.08401 1.70637 -0.38649
v -0.08119 1.70162 -0.42240
v -0.07828 1.69685 -0.45832
v -0.07530 1.69205 -0.49423
v -0.07222 1.68723 -0.53014
v -0.06904 1.68239 -0.56604
v -0.06574 1.67751 -0.60195
v -0.06230 1.67259 -0.63784
v -0.05871 1.66764 -0.67374
v -0.05494 1.66263 -0.70963
v -0.05094 1.65756 -0.74551
v -0.04666 1.65243 -0.78138
v -0.04202 1.64719 -0.81724
v -0.03689 1.64182 -0.85309
v -0.03101 1.63626 -0.88892
v -0.02375 1.63032 -0.92470
v -0.00966 1.62257 -0.96029
v -0.09800 1.70000 -0.24000
v -0.09533 1.69600 -0.27600
v -0.09261 1.69200 -0.31200
v -0.08982 1.68800 -0.34800
v -0.08697 1.68400 -0.38400
v -0.08405 1.68000 -0.42000
v -0.08105 1.67600 -0.45600
v -0.07796 1.67200 -0.49200
v -0.07477 1.66800 -0.52800
v -0.07148 1.66400 -0.56400
v -0.06806 1.66000 -0.60000
v -0.06450 1.65600 -0.63600
v -0.06078 1.65200 -0.67200
v -0.05687 1.64800 -0.70800
v -0.05273 1.64400 -0.74400
v -0.04830 1.64000 -0.78000
v -0.04350 1.63600 -0.81600
v -0.03819 1.63200 -0.85200
v -0.03210 1.62800 -0.88800
v -0.02458 1.62400 -0.92400
v -0.01000 1.62000 -0.96000
v -0.09466 1.67479 -0.23720
v -0.09208 1.67148 -0.27328
v -0.08945 1.66818 -0.30935
v -0.08676 1.66489 -0.34543
v -0.08401 1.66163 -0.38151
v -0.08119 1.65838 -0.41760
v -0.07828 1.65515 -0.45368
v -0.07530 1.65195 -0.48977
v -0.07222 1.64877 -0.52586
v -0.06904 1.64561 -0.56196
v -0.06574 1.64249 -0.59805
v -0.06230 1.63941 -0.63416
v -0.05871 1.63636 -0.67026
v -0.05494 1.63337 -0.70637
v -0.05094 1.63044 -0.74249
v -0.04666 1.62757 -0.77862
v -0.04202 1.62481 -0.81476
v -0.03689 1.62218 -0.85091
v -0.03101 1.61974 -0.88708
v -0.02375 1.61768 -0.92330
v -0.00966 1.61743 -0.95971
v -0.08487 1.65130 -0.23459
v -0.08256 1.64863 -0.27074
v -0.08020 1.64598 -0.30689
v -0.07779 1.64336 -0.34304
v -0.07532 1.64078 -0.37920
v -0.07279 1.63823 -0.41536
v -0.07019 1.63572 -0.45152
v -0.06751 1.63326 -0.48770
v -0.06475 1.63084 -0.52387
v -0.06190 1.62848 -0.56005
v -0.05894 1.62618 -0.59624
v -0.05586 1.62395 -0.63244
v -0.05264 1.62179 -0.66864
v -0.04925 1.61974 -0.70486
v -0.04567 1.61780 -0.74109
v -0.04183 1.61600 -0.77733
v -0.03768 1.61438 -0.81360
v -0.03308 1.61302 -0.84989
v -0.02780 1.61205 -0.88623
v -0.02129 1.61178 -0.92264
v -0.00866 1.61503 -0.95945
v -0.06930 1.63113 -0.23235
v -0.06741 1.62900 -0.26856
v -0.06548 1.62692 -0.30477
v -0.06352 1.62487 -0.34099
v -0.06150 1.62288 -0.37721
v -0.05943 1.62093 -0.41344
v -0.05731 1.61904 -0.44967
v -0.05512 1.61721 -0.48591
v -0.05287 1.61545 -0.52216
v -0.05054 1.61377 -0.55842
v -0.04812 1.61217 -0.59469
v -0.04561 1.61067 -0.63096
v -0.04298 1.60928 -0.66725
v -0.04022 1.60803 -0.70356
v -0.03729 1.60694 -0.73988
v -0.03416 1.60605 -0.77623
v -0.03076 1.60543 -0.81260
v -0.02701 1.60516 -0.84902
v -0.02270 1.60544 -0.88549
v -0.01738 1.60672 -0.92208
v -0.00707 1.61297 -0.95922
v -0.04900 1.61565 -0.23063
v -0.04767 1.61394 -0.26688
v -0.04630 1.61229 -0.30314
v -0.04491 1.61069 -0.33941
v -0.04349 1.60914 -0.37568
v -0.04202 1.60766 -0.41196
v -0.04052 1.60624 -0.44825
v -0.03898 1.60490 -0.48454
v -0.03738 1.60364 -0.52085
v -0.03574 1.60248 -0.55716
v -0.03403 1.60142 -0.59349
v -0.03225 1.60048 -0.62983
v -0.03039 1.59968 -0.66619
v -0.02844 1.59905 -0.70256
v -0.02637 1.59861 -0.73896
v -0.02415 1.59842 -0.77538
v -0.02175 1.59855 -0.81184
v -0.01910 1.59913 -0.84835
v -0.01605 1.60037 -0.88493
v -0.01229 1.60284 -0.92165
v -0.00500 1.61139 -0.95904
v -0.02536 1.60592 -0.22955
v -0.02467 1.60448 -0.26583
v -0.02397 1.60309 -0.30212
v -0.02325 1.60177 -0.33842
v -0.02251 1.60050 -0.37472
v -0.02175 1.59931 -0.41103
v -0.02098 1.59819 -0.44735
v -0.02018 1.59716 -0.48368
v -0.01935 1.59622 -0.52002
v -0.01850 1.59538 -0.55638
v -0.01761 1.59466 -0.59274
v -0.01669 1.59408 -0.62912
v -0.01573 1.59365 -0.66552
v -0.01472 1.59340 -0.70193
v -0.01365 1.59338 -0.73838
v -0.01250 1.59363 -0.77485
v -0.01126 1.59424 -0.81136
v -0.00989 1.59533 -0.84793
v -0.00831 1.59718 -0.88458
v -0.00636 1.60040 -0.92138
v -0.00259 1.61040 -0.95893
v -0.00000 1.60260 -0.22918
v -0.00000 1.60125 -0.26547
v -0.00000 1.59996 -0.30177
v -0.00000 1.59873 -0.33808
v -0.00000 1.59756 -0.37440
v -0.00000 1.59647 -0.41072
v -0.00000 1.59545 -0.44705
v -0.00000 1.59452 -0.48339
v -0.00000 1.59369 -0.51974
v -0.00000 1.59296 -0.55611
v -0.00000 1.59236 -0.59248
v -0.00000 1.59189 -0.62888
v -0.00000 1.59159 -0.66529
v -0.00000 1.59147 -0.70172
v -0.00000 1.59159 -0.73818
v -0.00000 1.59199 -0.77467
v -0.00000 1.59276 -0.81120
v -0.00000 1.59404 -0.84778
v -0.00000 1.59609 -0.88445
v -0.00000 1.59957 -0.92129
v -0.00000 1.61006 -0.95890
v 0.02536 1.60592 -0.22955
v 0.02467 1.60448 -0.26583
v 0.02397 1.60309 -0.30212
v 0.02325 1.60177 -0.33842
v 0.02251 1.60050 -0.37472
v 0.02175 1.59931 -0.41103
v 0.02098 1.59819 -0.44735
v 0.02018 1.59716 -0.48368
v 0.01935 1.59622 -0.52002
v 0.01850 1.59538 -0.55638
v 0.01761 1.59466 -0.59274
v 0.01669 1.59408 -0.62912
v 0.01573 1.59365 -0.66552
v 0.01472 1.59340 -0.70193
v 0.01365 1.59338 -0.73838
v 0.01250 1.59363 -0.77485
v 0.01126 1.59424 -0.81136
v 0.00989 1.59533 -0.84793
v 0.00831 1.59718 -0.88458
v 0.00636 1.60040 -0.92138
v 0.00259 1.61040 -0.95893
v 0.04900 1.61565 -0.23063
v 0.04767 1.61394 -0.26688
v 0.04630 1.61229 -0.30314
v 0.04491 1.61069 -0.33941
v 0.04349 1.60914 -0.37568
v 0.04202 1.60766 -0.41196
v 0.04052 1.60624 -0.44825
v 0.03898 1.60490 -0.48454
v 0.03738 1.60364 -0.52085
v 0.03574 1.60248 -0.55716
v 0.03403 1.60142 -0.59349
v 0.03225 1.60048 -0.62983
v 0.03039 1.59968 -0.66619
v 0.02844 1.59905 -0.70256
v 0.02637 1.59861 -0.73896
v 0.02415 1.59842 -0.77538
v 0.02175 1.59855 -0.81184
v 0.01910 1.59913 -0.84835
v 0.01605 1.60037 -0.88493
v 0.01229 1.60284 -0.92165
v 0.00500 1.61139 -0.95904
v 0.06930 1.63113 -0.23235
v 0.06741 1.62900 -0.26856
v 0.06548 1.62692 -0.30477
v 0.06352 1.62487 -0.34099
v 0.06150 1.62288 -0.37721
v 0.05943 1.62093 -0.41344
v 0.05731 1.61904 -0.44967
v 0.05512 1.61721 -0.48591
v 0.05287 1.61545 -0.52216
v 0.05054 1.61377 -0.55842
v 0.04812 1.61217 -0.59469
v 0.04561 1.61067 -0.63096
v 0.04298 1.60928 -0.66725
v 0.04022 1.60803 -0.70356
v 0.03729 1.60694 -0.73988
v 0.03416 1.60605 -0.77623
v 0.03076 1.60543 -0.81260
v 0.02701 1.60516 -0.84902
v 0.02270 1.60544 -0.88549
v 0.01738 1.60672 -0.92208
v 0.00707 1.61297 -0.95922
v 0.08487 1.65130 -0.23459
v 0.08256 1.64863 -0.27074
v 0.08020 1.64598 -0.30689
v 0.07779 1.64336 -0.34304
v 0.07532 1.64078 -0.37920
v 0.07279 1.63823 -0.41536
v 0.07019 1.63572 -0.45152
v 0.06751 1.63326 -0.48770
v 0.06475 1.63084 -0.52387
v 0.06190 1.62848 -0.56005
v 0.05894 1.62618 -0.59624
v 0.05586 1.62395 -0.63244
v 0.05264 1.62179 -0.66864
v 0.04925 1.61974 -0.70486
v 0.04567 1.61780 -0.74109
v 0.04183 1.61600 -0.77733
v 0.03768 1.61438 -0.81360
v 0.03308 1.61302 -0.84989
v 0.02780 1.61205 -0.88623
v 0.02129 1.61178 -0.92264
v 0.00866 1.61503 -0.95945
v 0.09466 1.67479 -0.23720
v 0.09208 1.67148 -0.27328
v 0.08945 1.66818 -0.30935
v 0.08676 1.66489 -0.34543
v 0.08401 1.66163 -0.38151
v 0.08119 1.65838 -0.41760
v 0.07828 1.65515 -0.45368
v 0.07530 1.65195 -0.48977
v 0.07222 1.64877 -0.52586
v 0.06904 1.64561 -0.56196
v 0.06574 1.64249 -0.59805
v 0.06230 1.63941 -0.63416
v 0.05871 1.63636 -0.67026
v 0.05494 1.63337 -0.70637
v 0.05094 1.63044 -0.74249
v 0.04666 1.62757 -0.77862
v 0.04202 1.62481 -0.81476
v 0.03689 1.62218 -0.85091
v 0.03101 1.61974 -0.88708
v 0.02375 1.61768 -0.92330
v 0.00966 1.61743 -0.95971
v 0.09800 1.70000 -0.24000
v 0.09533 1.69600 -0.27600
v 0.09261 1.69200 -0.31200
v 0.08982 1.68800 -0.34800
v 0.08697 1.68400 -0.38400
v 0.08405 1.68000 -0.42000
v 0.08105 1.67600 -0.45600
v 0.07796 1.67200 -0.49200
v 0.07477 1.66800 -0.52800
v 0.07148 1.66400 -0.56400
v 0.06806 1.66000 -0.60000
v 0.06450 1.65600 -0.63600
v 0.06078 1.65200 -0.67200
v 0.05687 1.64800 -0.70800
v 0.05273 1.64400 -0.74400
v 0.04830 1.64000 -0.78000
v 0.04350 1.63600 -0.81600
v 0.03819 1.63200 -0.85200
v 0.03210 1.62800 -0.88800
v 0.02458 1.62400 -0.92400
v 0.01000 1.62000 -0.96000
vt 0.00000 0.00000
vt 0.00000 0.05000
vt 0.00000 0.10000
vt 0.00000 0.15000
vt 0.00000 0.20000
vt 0.00000 0.25000
vt 0.00000 0.30000
vt 0.00000 0.35000
vt 0.00000 0.40000
vt 0.00000 0.45000
vt 0.00000 0.50000
vt 0.00000 0.55000
vt 0.00000 0.60000
vt 0.00000 0.65000
vt 0.00000 0.70000
vt 0.00000 0.75000
vt 0.00000 0.80000
vt 0.00000 0.85000
vt 0.00000 0.90000
vt 0.00000 0.95000
vt 0.00000 1.00000
vt 0.04167 0.00000
vt 0.04167 0.05000
vt 0.04167 0.10000
vt 0.04167 0.15000
vt 0.04167 0.20000
vt 0.04167 0.25000
vt 0.04167 0.30000
vt 0.04167 0.35000
vt 0.04167 0.40000
vt 0.04167 0.45000
vt 0.04167 0.50000
vt 0.04167 0.55000
vt 0.04167 0.60000
vt 0.04167 0.65000
vt 0.04167 0.70000
vt 0.04167 0.75000
vt 0.04167 0.80000
vt 0.04167 0.85000
vt 0.04167 0.90000
vt 0.04167 0.95000
vt 0.04167 1.00000
vt 0.08333 0.00000
vt 0.08333 0.05000
vt 0.08333 0.10000
vt 0.08333 0.15000
vt 0.08333 0.20000
vt 0.08333 0.25000
vt 0.08333 0.30000
vt 0.08333 0.35000
vt 0.08333 0.40000
vt 0.08333 0.45000
vt 0.08333 0.50000
vt 0.08333 0.55000
vt 0.08333 0.60000
vt 0.08333 0.65000
vt 0.08333 0.70000
vt 0.08333 0.75000
vt 0.08333 0.80000
vt 0.08333 0.85000
vt 0.08333 0.90000
vt 0.08333 0.95000
vt 0.08333 1.00000
vt 0.12500 0.00000
vt 0.12500 0.05000
vt 0.12500 0.10000
vt 0.12500 0.15000
vt 0.12500 0.20000
vt 0.12500 0.25000
vt 0.12500 0.30000
vt 0.12500 0.35000
vt 0.12500 0.40000
vt 0.12500 0.45000
vt 0.12500 0.50000
vt 0.12500 0.55000
vt 0.12500 0.60000
vt 0.12500 0.65000
vt 0.12500 0.70000
vt 0.12500 0.75000
vt 0.12500 0.80000
vt 0.12500 0.85000
vt 0.12500 0.90000
vt 0.12500 0.95000
vt 0.12500 1.00000
vt 0.16667 0.00000
vt 0.16667 0.05000
vt 0.16667 0.10000
vt 0.16667 0.15000
vt 0.16667 0.20000
vt 0.16667 0.25000
vt 0.16667 0.30000
vt 0.16667 0.35000
vt 0.16667 0.40000
vt 0.16667 0.45000
vt 0.16667 0.50000
vt 0.16667 0.55000
vt 0.16667 0.60000
vt 0.16667 0.65000
vt 0.16667 0.70000
vt 0.16667 0.75000
vt 0.16667 0.80000
vt 0.16667 0.85000
vt 0.16667 0.90000
vt 0.16667 0.95000
vt 0.16667 1.00000
vt 0.20833 0.00000
vt 0.20833 0.05000
vt 0.20833 0.10000
vt 0.20833 0.15000
vt 0.20833 0.20000
vt 0.20833 0.25000
vt 0.20833 0.30000
vt 0.20833 0.35000
vt 0.20833 0.40000
vt 0.20833 0.45000
vt 0.20833 0.50000
vt 0.20833 0.55000
vt 0.20833 0.60000
vt 0.20833 0.65000
vt 0.20833 0.70000
vt 0.20833 0.75000
vt 0.20833 0.80000
vt 0.20833 0.85000
vt 0.20833 0.90000
vt 0.20833 0.95000
vt 0.20833 1.00000
vt 0.25000 0.00000
vt 0.25000 0.05000
vt 0.25000 0.10000
vt 0.25000 0.15000
vt 0.25000 0.20000
vt 0.25000 0.25000
vt 0.25000 0.30000
vt 0.25000 0.35000
vt 0.25000 0.40000
vt 0.25000 0.45000
vt 0.25000 0.50000
vt 0.25000 0.55000
vt 0.25000 0.60000
vt 0.25000 0.65000
vt 0.25000 0.70000
vt 0.25000 0.75000
vt 0.25000 0.80000
vt 0.25000 0.85000
vt 0.25000 0.90000
vt 0.25000 0.95000
vt 0.25000 1.00000
vt 0.29167 0.00000
vt 0.29167 0.05000
vt 0.29167 0.10000
vt 0.29167 0.15000
vt 0.29167 0.20000
vt 0.29167 0.25000
vt 0.29167 0.30000
vt 0.29167 0.35000
vt 0.29167 0.40000
vt 0.29167 0.45000
vt 0.29167 0.50000
vt 0.29167 0.55000
vt 0.29167 0.60000
vt 0.29167 0.65000
vt 0.29167 0.70000
vt 0.29167 0.75000
vt 0.29167 0.80000
vt 0.29167 0.85000
vt 0.29167 0.90000
vt 0.29167 0.95000
vt 0.29167 1.00000
vt 0.33333 0.00000
vt 0.33333 0.05000
vt 0.33333 0.10000
vt 0.33333 0.15000
vt 0.33333 0.20000
vt 0.33333 0.25000
vt 0.33333 0.30000
vt 0.33333 0.35000
vt 0.33333 0.40000
vt 0.33333 0.45000
vt 0.33333 0.50000
vt 0.33333 0.55000
vt 0.33333 0.60000
vt 0.33333 0.65000
vt 0.33333 0.70000
vt 0.33333 0.75000
vt 0.33333 0.80000
vt 0.33333 0.85000
vt 0.33333 0.90000
vt 0.33333 0.95000
vt 0.33333 1.00000
vt 0.37500 0.00000
vt 0.37500 0.05000
vt 0.37500 0.10000
vt 0.37500 0.15000
vt 0.37500 0.20000
vt 0.37500 0.25000
vt 0.37500 0.30000
vt 0.37500 0.35000
vt 0.37500 0.40000
vt 0.37500 0.45000
vt 0.37500 0.50000
vt 0.37500 0.55000
vt 0.37500 0.60000
vt 0.37500 0.65000
vt 0.37500 0.70000
vt 0.37500 0.75000
vt 0.37500 0.80000
vt 0.37500 0.85000
vt 0.37500 0.90000
vt 0.37500 0.95000
vt 0.37500 1.00000
vt 0.41667 0.00000
vt 0.41667 0.05000
vt 0.41667 0.10000
vt 0.41667 0.15000
vt 0.41667 0.20000
vt 0.41667 0.25000
vt 0.41667 0.30000
vt 0.41667 0.35000
vt 0.41667 0.40000
vt 0.41667 0.45000
vt 0.41667 0.50000
vt 0.41667 0.55000
vt 0.41667 0.60000
vt 0.41667 0.65000
vt 0.41667 0.70000
vt 0.41667 0.75000
vt 0.41667 0.80000
vt 0.41667 0.85000
vt 0.41667 0.90000
vt 0.41667 0.95000
vt 0.41667 1.00000
vt 0.45833 0.00000
vt 0.45833 0.05000
vt 0.45833 0.10000
vt 0.45833 0.15000
vt 0.45833 0.20000
vt 0.45833 0.25000
vt 0.45833 0.30000
vt 0.45833 0.35000
vt 0.45833 0.40000
vt 0.45833 0.45000
vt 0.45833 0.50000
vt 0.45833 0.55000
vt 0.45833 0.60000
vt 0.45833 0.65000
vt 0.45833 0.70000
vt 0.45833 0.75000
vt 0.45833 0.80000
vt 0.45833 0.85000
vt 0.45833 0.90000
vt 0.45833 0.95000
vt 0.45833 1.00000
vt 0.50000 0.00000
vt 0.50000 0.05000
vt 0.50000 0.10000
vt 0.50000 0.15000
vt 0.50000 0.20000
vt 0.50000 0.25000
vt 0.50000 0.30000
vt 0.50000 0.35000
vt 0.50000 0.40000
vt 0.50000 0.45000
vt 0.50000 0.50000
vt 0.50000 0.55000
vt 0.50000 0.60000
vt 0.50000 0.65000
vt 0.50000 0.70000
vt 0.50000 0.75000
vt 0.50000 0.80000
vt 0.50000 0.85000
vt 0.50000 0.90000
vt 0.50000 0.95000
vt 0.50000 1.00000
vt 0.54167 0.00000
vt 0.54167 0.05000
vt 0.54167 0.10000
vt 0.54167 0.15000
vt 0.54167 0.20000
vt 0.54167 0.25000
vt 0.54167 0.30000
vt 0.54167 0.35000
vt 0.54167 0.40000
vt 0.54167 0.45000
vt 0.54167 0.50000
vt 0.54167 0.55000
vt 0.54167 0.60000
vt 0.54167 0.65000
vt 0.54167 0.70000
vt 0.54167 0.75000
vt 0.54167 0.80000
vt 0.54167 0.85000
vt 0.54167 0.90000
vt 0.54167 0.95000
vt 0.54167 1.00000
vt 0.58333 0.00000
vt 0.58333 0.05000
vt 0.58333 0.10000
vt 0.58333 0.15000
vt 0.58333 0.20000
vt 0.58333 0.25000
vt 0.58333 0.30000
vt 0.58333 0.35000
vt 0.58333 0.40000
vt 0.58333 0.45000
vt 0.58333 0.50000
vt 0.58333 0.55000
vt 0.58333 0.60000
vt 0.58333 0.65000
vt 0.58333 0.70000
vt 0.58333 0.75000
vt 0.58333 0.80000
vt 0.58333 0.85000
vt 0.58333 0.90000
vt 0.58333 0.95000
vt 0.58333 1.00000
vt 0.62500 0.00000
vt 0.62500 0.05000
vt 0.62500 0.10000
vt 0.62500 0.15000
vt 0.62500 0.20000
vt 0.62500 0.25000
vt 0.62500 0.30000
vt 0.62500 0.35000
vt 0.62500 0.40000
vt 0.62500 0.45000
vt 0.62500 0.50000
vt 0.62500 0.55000
vt 0.62500 0.60000
vt 0.62500 0.65000
vt 0.62500 0.70000
vt 0.62500 0.75000
vt 0.62500 0.80000
vt 0.62500 0.85000
vt 0.62500 0.90000
vt 0.62500 0.95000
vt 0.62500 1.00000
vt 0.66667 0.00000
vt 0.66667 0.05000
vt 0.66667 0.10000
vt 0.66667 0.15000
vt 0.66667 0.20000
vt 0.66667 0.25000
vt 0.66667 0.30000
vt 0.66667 0.35000
vt 0.66667 0.40000
vt 0.66667 0.45000
vt 0.66667 0.50000
vt 0.66667 0.55000
vt 0.66667 0.60000
vt 0.66667 0.65000
vt 0.66667 0.70000
vt 0.66667 0.75000
vt 0.66667 0.80000
vt 0.66667 0.85000
vt 0.66667 0.90000
vt 0.66667 0.95000
vt 0.66667 1.00000
vt 0.70833 0.00000
vt 0.70833 0.05000
vt 0.70833 0.10000
vt 0.70833 0.15000
vt 0.70833 0.20000
vt 0.70833 0.25000
vt 0.70833 0.30000
vt 0.70833 0.35000
vt 0.70833 0.40000
vt 0.70833 0.45000
vt 0.70833 0.50000
vt 0.70833 0.55000
vt 0.70833 0.60000
vt 0.70833 0.65000
vt 0.70833 0.70000
vt 0.70833 0.75000
vt 0.70833 0.80000
vt 0.70833 0.85000
vt 0.70833 0.90000
vt 0.70833 0.95000
vt 0.70833 1.00000
vt 0.75000 0.00000
vt 0.75000 0.05000
vt 0.75000 0.10000
vt 0.75000 0.15000
vt 0.75000 0.20000
vt 0.75000 0.25000
vt 0.75000 0.30000
vt 0.75000 0.35000
vt 0.75000 0.40000
vt 0.75000 0.45000
vt 0.75000 0.50000
vt 0.75000 0.55000
vt 0.75000 0.60000
vt 0.75000 0.65000
vt 0.75000 0.70000
vt 0.75000 0.75000
vt 0.75000 0.80000
vt 0.75000 0.85000
vt 0.75000 0.90000
vt 0.75000 0.95000
vt 0.75000 1.00000
vt 0.79167 0.00000
vt 0.79167 0.05000
vt 0.79167 0.10000
vt 0.79167 0.15000
vt 0.79167 0.20000
vt 0.79167 0.25000
vt 0.79167 0.30000
vt 0.79167 0.35000
vt 0.79167 0.40000
vt 0.79167 0.45000
vt 0.79167 0.50000
vt 0.79167 0.55000
vt 0.79167 0.60000
vt 0.79167 0.65000
vt 0.79167 0.70000
vt 0.79167 0.75000
vt 0.79167 0.80000
vt 0.79167 0.85000
vt 0.79167 0.90000
vt 0.79167 0.95000
vt 0.79167 1.00000
vt 0.83333 0.00000
vt 0.83333 0.05000
vt 0.83333 0.10000
vt 0.83333 0.15000
vt 0.83333 0.20000
vt 0.83333 0.25000
vt 0.83333 0.30000
vt 0.83333 0.35000
vt 0.83333 0.40000
vt 0.83333 0.45000
vt 0.83333 0.50000
vt 0.83333 0.55000
vt 0.83333 0.60000
vt 0.83333 0.65000
vt 0.83333 0.70000
vt 0.83333 0.75000
vt 0.83333 0.80000
vt 0.83333 0.85000
vt 0.83333 0.90000
vt 0.83333 0.95000
vt 0.83333 1.00000
vt 0.87500 0.00000
vt 0.87500 0.05000
vt 0.87500 0.10000
vt 0.87500 0.15000
vt 0.87500 0.20000
vt 0.87500 0.25000
vt 0.87500 0.30000
vt 0.87500 0.35000
vt 0.87500 0.40000
vt 0.87500 0.45000
vt 0.87500 0.50000
vt 0.87500 0.55000
vt 0.87500 0.60000
vt 0.87500 0.65000
vt 0.87500 0.70000
vt 0.87500 0.75000
vt 0.87500 0.80000
vt 0.87500 0.85000
vt 0.87500 0.90000
vt 0.87500 0.95000
vt 0.87500 1.00000
vt 0.91667 0.00000
vt 0.91667 0.05000
vt 0.91667 0.10000
vt 0.91667 0.15000
vt 0.91667 0.20000
vt 0.91667 0.25000
vt 0.91667 0.30000
vt 0.91667 0.35000
vt 0.91667 0.40000
vt 0.91667 0.45000
vt 0.91667 0.50000
vt 0.91667 0.55000
vt 0.91667 0.60000
vt 0.91667 0.65000
vt 0.91667 0.70000
vt 0.91667 0.75000
vt 0.91667 0.80000
vt 0.91667 0.85000
vt 0.91667 0.90000
vt 0.91667 0.95000
vt 0.91667 1.00000
vt 0.95833 0.00000
vt 0.95833 0.05000
vt 0.95833 0.10000
vt 0.95833 0.15000
vt 0.95833 0.20000
vt 0.95833 0.25000
vt 0.95833 0.30000
vt 0.95833 0.35000
vt 0.95833 0.40000
vt 0.95833 0.45000
vt 0.95833 0.50000
vt 0.95833 0.55000
vt 0.95833 0.60000
vt 0.95833 0.65000
vt 0.95833 0.70000
vt 0.95833 0.75000
vt 0.95833 0.80000
vt 0.95833 0.85000
vt 0.95833 0.90000
vt 0.95833 0.95000
vt 0.95833 1.00000
vt 1.00000 0.00000
vt 1.00000 0.05000
vt 1.00000 0.10000
vt 1.00000 0.15000
vt 1.00000 0.20000
vt 1.00000 0.25000
vt 1.00000 0.30000
vt 1.00000 0.35000
vt 1.00000 0.40000
vt 1.00000 0.45000
vt 1.00000 0.50000
vt 1.00000 0.55000
vt 1.00000 0.60000
vt 1.00000 0.65000
vt 1.00000 0.70000
vt 1.00000 0.75000
vt 1.00000 0.80000
vt 1.00000 0.85000
vt 1.00000 0.90000
vt 1.00000 0.95000
vt 1.00000 1.00000
vn 0.05699 0.98857 -0.13956
vn 0.05540 0.98550 -0.16038
vn 0.05375 0.98200 -0.18108
vn 0.05205 0.97808 -0.20164
vn 0.05029 0.97374 -0.22204
vn 0.04848 0.96900 -0.24225
vn 0.04661 0.96387 -0.26225
vn 0.04468 0.95837 -0.28201
vn 0.04270 0.95251 -0.30151
vn 0.04065 0.94629 -0.32074
vn 0.03853 0.93976 -0.33967
vn 0.03634 0.93290 -0.35829
vn 0.03406 0.92576 -0.37658
vn 0.03169 0.91834 -0.39453
vn 0.02921 0.91066 -0.41212
vn 0.02659 0.90274 -0.42935
vn 0.02379 0.89461 -0.44621
vn 0.02074 0.88628 -0.46269
vn 0.01731 0.87776 -0.47878
vn 0.01316 0.86909 -0.49448
vn 0.00531 0.86028 -0.50980
vn 0.05425 0.98878 -0.13916
vn -0.96326 -0.24833 0.10224
vn -0.96315 -0.24812 0.10384
vn -0.96302 -0.24790 0.10557
vn -0.96287 -0.24765 0.10744
vn -0.96271 -0.24738 0.10949
vn -0.96253 -0.24708 0.11174
vn -0.96232 -0.24675 0.11422
vn -0.96209 -0.24638 0.11698
vn -0.96181 -0.24596 0.12008
vn -0.96149 -0.24548 0.12360
vn -0.96110 -0.24493 0.12764
vn -0.96063 -0.24428 0.13236
vn -0.96004 -0.24349 0.13798
vn 0.02801 0.91165 -0.41002
vn 0.02552 0.90373 -0.42735
vn 0.02285 0.89557 -0.44433
vn 0.01993 0.88719 -0.46098
vn 0.01665 0.87858 -0.47730
vn 0.01267 0.86976 -0.49332
vn 0.00512 0.86057 -0.50931
vn 0.04801 0.98915 -0.13882
vn -0.86364 -0.48738 0.12880
vn -0.86353 -0.48714 0.13040
vn -0.86342 -0.48688 0.13212
vn -0.86329 -0.48660 0.13399
vn -0.86314 -0.48629 0.13604
vn -0.86298 -0.48594 0.13828
vn -0.86280 -0.48556 0.14075
vn -0.86258 -0.48513 0.14350
vn -0.86234 -0.48465 0.14660
vn -0.86205 -0.48409 0.15011
vn -0.86170 -0.48344 0.15414
vn -0.86128 -0.48267 0.15885
vn -0.86075 -0.48174 0.16445
vn 0.02495 0.91259 -0.40811
vn 0.02274 0.90467 -0.42551
vn 0.02038 0.89648 -0.44261
vn 0.01779 0.88804 -0.45942
vn 0.01487 0.87935 -0.47594
vn 0.01133 0.87038 -0.49224
vn 0.00459 0.86084 -0.50886
vn 0.03877 0.98960 -0.13855
vn -0.70516 -0.69265 0.15161
vn -0.70507 -0.69239 0.15320
vn -0.70498 -0.69210 0.15492
vn -0.70487 -0.69179 0.15679
vn -0.70475 -0.69144 0.15883
vn -0.70462 -0.69106 0.16107
vn -0.70447 -0.69064 0.16354
vn -0.70430 -0.69016 0.16628
vn -0.70410 -0.68961 0.16937
vn -0.70386 -0.68898 0.17287
vn -0.70358 -0.68825 0.17690
vn -0.70323 -0.68738 0.18159
vn -0.70280 -0.68632 0.18718
vn 0.02026 0.91343 -0.40650
vn 0.01848 0.90549 -0.42397
vn 0.01656 0.89728 -0.44116
vn 0.01447 0.88879 -0.45809
vn 0.01210 0.88002 -0.47479
vn 0.00922 0.87093 -0.49133
vn 0.00374 0.86107 -0.50847
vn 0.02719 0.99001 -0.13836
vn -0.49862 -0.85016 0.16911
vn -0.49856 -0.84988 0.17070
vn -0.49849 -0.84957 0.17242
vn -0.49842 -0.84924 0.17429
vn -0.49834 -0.84886 0.17632
vn -0.49824 -0.84845 0.17855
vn -0.49814 -0.84799 0.18102
vn -0.49801 -0.84747 0.18376
vn -0.49787 -0.84688 0.18685
vn -0.49770 -0.84620 0.19034
vn -0.49750 -0.84541 0.19436
vn -0.49726 -0.84446 0.19905
vn -0.49695 -0.84331 0.20462
vn 0.01427 0.91408 -0.40529
vn 0.01301 0.90613 -0.42280
vn 0.01167 0.89789 -0.44006
vn 0.01020 0.88936 -0.45708
vn 0.00854 0.88053 -0.47391
vn 0.00651 0.87134 -0.49063
vn 0.00264 0.86125 -0.50818
vn 0.01400 0.99030 -0.13825
vn -0.25811 -0.94918 0.18011
vn -0.25807 -0.94888 0.18170
vn -0.25804 -0.94856 0.18342
vn -0.25800 -0.94821 0.18528
vn -0.25796 -0.94782 0.18732
vn -0.25791 -0.94739 0.18955
vn -0.25785 -0.94691 0.19201
vn -0.25779 -0.94637 0.19475
vn -0.25772 -0.94575 0.19783
vn -0.25763 -0.94504 0.20132
vn -0.25753 -0.94420 0.20534
vn -0.25740 -0.94321 0.21002
vn -0.25724 -0.94199 0.21559
vn 0.00737 0.91449 -0.40453
vn 0.00672 0.90654 -0.42207
vn 0.00603 0.89828 -0.43937
vn 0.00527 0.88973 -0.45646
vn 0.00441 0.88086 -0.47336
vn 0.00337 0.87161 -0.49020
vn 0.00137 0.86136 -0.50799
vn 0.00000 0.99040 -0.13821
vn 0.00000 -0.98295 0.18386
vn 0.00000 -0.98265 0.18545
vn 0.00000 -0.98233 0.18717
vn 0.00000 -0.98197 0.18903
vn 0.00000 -0.98158 0.19107
vn 0.00000 -0.98114 0.19330
vn 0.00000 -0.98065 0.19576
vn 0.00000 -0.98010 0.19850
vn 0.00000 -0.97947 0.20158
vn 0.00000 -0.97875 0.20507
vn 0.00000 -0.97790 0.20908
vn 0.00000 -0.97689 0.21376
vn 0.00000 -0.97565 0.21933
vn 0.00000 0.91464 -0.40428
vn 0.00000 0.90668 -0.42183
vn 0.00000 0.89842 -0.43914
vn 0.00000 0.88985 -0.45624
vn 0.00000 0.88097 -0.47317
vn 0.00000 0.87170 -0.49005
vn 0.00000 0.86140 -0.50793
vn -0.01400 0.99030 -0.13825
vn 0.25811 -0.94918 0.18011
vn 0.25807 -0.94888 0.18170
vn 0.25804 -0.94856 0.18342
vn 0.25800 -0.94821 0.18528
vn 0.25796 -0.94782 0.18732
vn 0.25791 -0.94739 0.18955
vn 0.25785 -0.94691 0.19201
vn 0.25779 -0.94637 0.19475
vn 0.25772 -0.94575 0.19783
vn 0.25763 -0.94504 0.20132
vn 0.25753 -0.94420 0.20534
vn 0.25740 -0.94321 0.21002
vn 0.25724 -0.94199 0.21559
vn -0.00737 0.91449 -0.40453
vn -0.00672 0.90654 -0.42207
vn -0.00603 0.89828 -0.43937
vn -0.00527 0.88973 -0.45646
vn -0.00441 0.88086 -0.47336
vn -0.00337 0.87161 -0.49020
vn -0.00137 0.86136 -0.50799
vn -0.02719 0.99001 -0.13836
vn 0.49862 -0.85016 0.16911
vn 0.49856 -0.84988 0.17070
vn 0.49849 -0.84957 0.17242
vn 0.49842 -0.84924 0.17429
vn 0.49834 -0.84886 0.17632
vn 0.49824 -0.84845 0.17855
vn 0.49814 -0.84799 0.18102
vn 0.49801 -0.84747 0.18376
vn 0.49787 -0.84688 0.18685
vn 0.49770 -0.84620 0.19034
vn 0.49750 -0.84541 0.19436
vn 0.49726 -0.84446 0.19905
vn 0.49695 -0.84331 0.20462
vn -0.01427 0.91408 -0.40529
vn -0.01301 0.90613 -0.42280
vn -0.01167 0.89789 -0.44006
vn -0.01020 0.88936 -0.45708
vn -0.00854 0.88053 -0.47391
vn -0.00651 0.87134 -0.49063
vn -0.00264 0.86125 -0.50818
vn -0.03877 0.98960 -0.13855
vn 0.70516 -0.69265 0.15161
vn 0.70507 -0.69239 0.15320
vn 0.70498 -0.69210 0.15492
vn 0.70487 -0.69179 0.15679
vn 0.70475 -0.69144 0.15883
vn 0.70462 -0.69106 0.16107
vn 0.70447 -0.69064 0.16354
vn 0.70430 -0.69016 0.16628
vn 0.70410 -0.68961 0.16937
vn 0.70386 -0.68898 0.17287
vn 0.70358 -0.68825 0.17690
vn 0.70323 -0.68738 0.18159
vn 0.70280 -0.68632 0.18718
vn -0.02026 0.91343 -0.40650
vn -0.01848 0.90549 -0.42397
vn -0.01656 0.89728 -0.44116
vn -0.01447 0.88879 -0.45809
vn -0.01210 0.88002 -0.47479
vn -0.00922 0.87093 -0.49133
vn -0.00374 0.86107 -0.50847
vn -0.04801 0.98915 -0.13882
vn 0.86364 -0.48738 0.12880
vn 0.86353 -0.48714 0.13040
vn 0.86342 -0.48688 0.13212
vn 0.86329 -0.48660 0.13399
vn 0.86314 -0.48629 0.13604
vn 0.86298 -0.48594 0.13828
vn 0.86280 -0.48556 0.14075
vn 0.86258 -0.48513 0.14350
vn 0.86234 -0.48465 0.14660
vn 0.86205 -0.48409 0.15011
vn 0.86170 -0.48344 0.15414
vn 0.86128 -0.48267 0.15885
vn 0.86075 -0.48174 0.16445
vn -0.02495 0.91259 -0.40811
vn -0.02274 0.90467 -0.42551
vn -0.02038 0.89648 -0.44261
vn -0.01779 0.88804 -0.45942
vn -0.01487 0.87935 -0.47594
vn -0.01133 0.87038 -0.49224
vn -0.00459 0.86084 -0.50886
vn -0.05425 0.98878 -0.13916
vn 0.96326 -0.24833 0.10224
vn 0.96315 -0.24812 0.10384
vn 0.96302 -0.24790 0.10557
vn 0.96287 -0.24765 0.10744
vn 0.96271 -0.24738 0.10949
vn 0.96253 -0.24708 0.11174
vn 0.96232 -0.24675 0.11422
vn 0.96209 -0.24638 0.11698
vn 0.96181 -0.24596 0.12008
vn 0.96149 -0.24548 0.12360
vn 0.96110 -0.24493 0.12764
vn 0.96063 -0.24428 0.13236
vn 0.96004 -0.24349 0.13798
vn -0.02801 0.91165 -0.41002
vn -0.02552 0.90373 -0.42735
vn -0.02285 0.89557 -0.44433
vn -0.01993 0.88719 -0.46098
vn -0.01665 0.87858 -0.47730
vn -0.01267 0.86976 -0.49332
vn -0.00512 0.86057 -0.50931
vn -0.05699 0.98857 -0.13956
vn 0.99724 0.00819 0.07374
vn 0.99712 0.00837 0.07534
vn 0.99699 0.00856 0.07707
vn 0.99684 0.00877 0.07895
vn 0.99667 0.00900 0.08100
vn 0.99649 0.00925 0.08325
vn 0.99627 0.00953 0.08574
vn 0.99603 0.00983 0.08851
vn 0.99574 0.01018 0.09162
vn 0.99541 0.01057 0.09514
vn 0.99501 0.01102 0.09920
vn 0.99452 0.01155 0.10393
vn 0.99390 0.01217 0.10957
vn -0.02921 0.91066 -0.41212
vn -0.02659 0.90274 -0.42935
vn -0.02379 0.89461 -0.44621
vn -0.02074 0.88628 -0.46269
vn -0.01731 0.87776 -0.47878
vn -0.01316 0.86909 -0.49448
vn -0.00531 0.86028 -0.50980
vn -0.05588 0.98857 -0.14001
vn 0.96326 0.26472 0.04523
vn 0.96315 0.26487 0.04684
vn 0.96302 0.26502 0.04858
vn 0.96287 0.26520 0.05046
vn 0.96271 0.26538 0.05252
vn 0.96253 0.26558 0.05477
vn 0.96232 0.26580 0.05727
vn 0.96209 0.26605 0.06004
vn 0.96181 0.26632 0.06316
vn 0.96149 0.26663 0.06669
vn 0.96110 0.26697 0.07076
vn 0.96063 0.26737 0.07551
vn 0.96004 0.26784 0.08116
vn -0.02842 0.90971 -0.41428
vn -0.02585 0.90179 -0.43141
vn -0.02311 0.89367 -0.44813
vn -0.02014 0.88538 -0.46443
vn -0.01679 0.87695 -0.48028
vn -0.01275 0.86842 -0.49566
vn -0.00514 0.85999 -0.51028
vn -0.05082 0.98878 -0.14047
vn 0.86364 0.50377 0.01867
vn 0.86353 0.50388 0.02028
vn 0.86342 0.50401 0.02202
vn 0.86329 0.50414 0.02391
vn 0.86314 0.50429 0.02597
vn 0.86298 0.50445 0.02823
vn 0.86280 0.50462 0.03073
vn 0.86258 0.50480 0.03351
vn 0.86234 0.50501 0.03664
vn 0.86205 0.50523 0.04018
vn 0.86170 0.50548 0.04426
vn 0.86128 0.50577 0.04902
vn 0.86075 0.50609 0.05469
vn -0.02566 0.90885 -0.41633
vn -0.02332 0.90092 -0.43336
vn -0.02084 0.89281 -0.44995
vn -0.01814 0.88456 -0.46607
vn -0.01511 0.87621 -0.48170
vn -0.01146 0.86781 -0.49677
vn -0.00461 0.85972 -0.51074
vn -0.04202 0.98913 -0.14090
vn 0.70516 0.70904 -0.00413
vn 0.70507 0.70913 -0.00252
vn 0.70498 0.70923 -0.00078
vn 0.70487 0.70933 0.00111
vn 0.70475 0.70944 0.00318
vn 0.70462 0.70956 0.00544
vn 0.70447 0.70969 0.00794
vn 0.70430 0.70982 0.01073
vn 0.70410 0.70997 0.01386
vn 0.70386 0.71013 0.01742
vn 0.70358 0.71029 0.02150
vn 0.70323 0.71048 0.02628
vn 0.70280 0.71067 0.03196
vn -0.02107 0.90814 -0.41813
vn -0.01914 0.90019 -0.43507
vn -0.01709 0.89209 -0.45154
vn -0.01487 0.88387 -0.46750
vn -0.01238 0.87557 -0.48293
vn -0.00938 0.86728 -0.49772
vn -0.00377 0.85949 -0.51113
vn -0.03001 0.98952 -0.14125
vn 0.49862 0.86655 -0.02164
vn 0.49856 0.86662 -0.02002
vn 0.49849 0.86670 -0.01828
vn 0.49842 0.86678 -0.01638
vn 0.49834 0.86687 -0.01432
vn 0.49824 0.86695 -0.01205
vn 0.49814 0.86705 -0.00954
vn 0.49801 0.86714 -0.00675
vn 0.49787 0.86724 -0.00361
vn 0.49770 0.86735 -0.00005
vn 0.49750 0.86745 0.00404
vn 0.49726 0.86756 0.00882
vn 0.49695 0.86766 0.01452
vn -0.01497 0.90761 -0.41954
vn -0.01359 0.89965 -0.43641
vn -0.01213 0.89154 -0.45278
vn -0.01055 0.88334 -0.46862
vn -0.00878 0.87509 -0.48388
vn -0.00665 0.86688 -0.49847
vn -0.00267 0.85932 -0.51144
vn -0.01563 0.98982 -0.14148
vn 0.25811 0.96557 -0.03264
vn 0.25807 0.96563 -0.03102
vn 0.25804 0.96569 -0.02928
vn 0.25800 0.96576 -0.02738
vn 0.25796 0.96582 -0.02531
vn 0.25791 0.96589 -0.02304
vn 0.25785 0.96597 -0.02053
vn 0.25779 0.96604 -0.01774
vn 0.25772 0.96611 -0.01460
vn 0.25763 0.96618 -0.01103
vn 0.25753 0.96625 -0.00694
vn 0.25740 0.96630 -0.00215
vn 0.25724 0.96634 0.00355
vn -0.00777 0.90729 -0.42044
vn -0.00706 0.89931 -0.43726
vn -0.00629 0.89120 -0.45356
vn -0.00547 0.88301 -0.46932
vn -0.00455 0.87479 -0.48449
vn -0.00345 0.86663 -0.49894
vn -0.00138 0.85921 -0.51163
vn -0.00000 0.98993 -0.14156
vn 0.00000 0.99934 -0.03639
vn 0.00000 0.99940 -0.03477
vn 0.00000 0.99945 -0.03303
vn 0.00000 0.99952 -0.03113
vn 0.00000 0.99958 -0.02906
vn 0.00000 0.99964 -0.02679
vn 0.00000 0.99971 -0.02428
vn 0.00000 0.99977 -0.02148
vn 0.00000 0.99983 -0.01834
vn 0.00000 0.99989 -0.01478
vn 0.00000 0.99994 -0.01068
vn 0.00000 0.99998 -0.00589
vn 0.00000 1.00000 -0.00019
vn -0.00000 0.90718 -0.42075
vn -0.00000 0.89919 -0.43755
vn -0.00000 0.89109 -0.45383
vn -0.00000 0.88290 -0.46956
vn -0.00000 0.87468 -0.48469
vn -0.00000 0.86655 -0.49910
vn -0.00000 0.85917 -0.51169
vn 0.01563 0.98982 -0.14148
vn -0.25811 0.96557 -0.03264
vn -0.25807 0.96563 -0.03102
vn -0.25804 0.96569 -0.02928
vn -0.25800 0.96576 -0.02738
vn -0.25796 0.96582 -0.02531
vn -0.25791 0.96589 -0.02304
vn -0.25785 0.96597 -0.02053
vn -0.25779 0.96604 -0.01774
vn -0.25772 0.96611 -0.01460
vn -0.25763 0.96618 -0.01103
vn -0.25753 0.96625 -0.00694
vn -0.25740 0.96630 -0.00215
vn -0.25724 0.96634 0.00355
vn 0.00777 0.90729 -0.42044
vn 0.00706 0.89931 -0.43726
vn 0.00629 0.89120 -0.45356
vn 0.00547 0.88301 -0.46932
vn 0.00455 0.87479 -0.48449
vn 0.00345 0.86663 -0.49894
vn 0.00138 0.85921 -0.51163
vn 0.03001 0.98952 -0.14125
vn -0.49862 0.86655 -0.02164
vn -0.49856 0.86662 -0.02002
vn -0.49849 0.86670 -0.01828
vn -0.49842 0.86678 -0.01638
vn -0.49834 0.86687 -0.01432
vn -0.49824 0.86695 -0.01205
vn -0.49814 0.86705 -0.00954
vn -0.49801 0.86714 -0.00675
vn -0.49787 0.86724 -0.00361
vn -0.49770 0.86735 -0.00005
vn -0.49750 0.86745 0.00404
vn -0.49726 0.86756 0.00882
vn -0.49695 0.86766 0.01452
vn 0.01497 0.90761 -0.41954
vn 0.01359 0.89965 -0.43641
vn 0.01213 0.89154 -0.45278
vn 0.01055 0.88334 -0.46862
vn 0.00878 0.87509 -0.48388
vn 0.00665 0.86688 -0.49847
vn 0.00267 0.85932 -0.51144
vn 0.04202 0.98913 -0.14090
vn -0.70516 0.70904 -0.00413
vn -0.70507 0.70913 -0.00252
vn -0.70498 0.70923 -0.00078
vn -0.70487 0.70933 0.00111
vn -0.70475 0.70944 0.00318
vn -0.70462 0.70956 0.00544
vn -0.70447 0.70969 0.00794
vn -0.70430 0.70982 0.01073
vn -0.70410 0.70997 0.01386
vn -0.70386 0.71013 0.01742
vn -0.70358 0.71029 0.02150
vn -0.70323 0.71048 0.02628
vn -0.70280 0.71067 0.03196
vn 0.02107 0.90814 -0.41813
vn 0.01914 0.90019 -0.43507
vn 0.01709 0.89209 -0.45154
vn 0.01487 0.88387 -0.46750
vn 0.01238 0.87557 -0.48293
vn 0.00938 0.86728 -0.49772
vn 0.00377 0.85949 -0.51113
vn 0.05082 0.98878 -0.14047
vn -0.86364 0.50377 0.01867
vn -0.86353 0.50388 0.02028
vn -0.86342 0.50401 0.02202
vn -0.86329 0.50414 0.02391
vn -0.86314 0.50429 0.02597
vn -0.86298 0.50445 0.02823
vn -0.86280 0.50462 0.03073
vn -0.86258 0.50480 0.03351
vn -0.86234 0.50501 0.03664
vn -0.86205 0.50523 0.04018
vn -0.86170 0.50548 0.04426
vn -0.86128 0.50577 0.04902
vn -0.86075 0.50609 0.05469
vn 0.02566 0.90885 -0.41633
vn 0.02332 0.90092 -0.43336
vn 0.02084 0.89281 -0.44995
vn 0.01814 0.88456 -0.46607
vn 0.01511 0.87621 -0.48170
vn 0.01146 0.86781 -0.49677
vn 0.00461 0.85972 -0.51074
vn 0.05588 0.98857 -0.14001
vn -0.96326 0.26472 0.04523
vn -0.96315 0.26487 0.04684
vn -0.96302 0.26502 0.04858
vn -0.96287 0.26520 0.05046
vn -0.96271 0.26538 0.05252
vn -0.96253 0.26558 0.05477
vn -0.96232 0.26580 0.05727
vn -0.96209 0.26605 0.06004
vn -0.96181 0.26632 0.06316
vn -0.96149 0.26663 0.06669
vn -0.96110 0.26697 0.07076
vn -0.96063 0.26737 0.07551
vn -0.96004 0.26784 0.08116
vn 0.02842 0.90971 -0.41428
vn 0.02585 0.90179 -0.43141
vn 0.02311 0.89367 -0.44813
vn 0.02014 0.88538 -0.46443
vn 0.01679 0.87695 -0.48028
vn 0.01275 0.86842 -0.49566
vn 0.00514 0.85999 -0.51028
vn 0.05699 0.98857 -0.13956
vn 0.05540 0.98550 -0.16038
vn 0.05375 0.98200 -0.18108
vn 0.05205 0.97808 -0.20164
vn 0.05029 0.97374 -0.22204
vn 0.04848 0.96900 -0.24225
vn 0.04661 0.96387 -0.26225
vn 0.04468 0.95837 -0.28201
vn 0.04270 0.95251 -0.30151
vn 0.04065 0.94629 -0.32074
vn 0.03853 0.93976 -0.33967
vn 0.03634 0.93290 -0.35829
vn 0.03406 0.92576 -0.37658
vn 0.03169 0.91834 -0.39453
vn 0.02921 0.91066 -0.41212
vn 0.02659 0.90274 -0.42935
vn 0.02379 0.89461 -0.44621
vn 0.02074 0.88628 -0.46269
vn 0.01731 0.87776 -0.47878
vn 0.01316 0.86909 -0.49448
vn 0.00531 0.86028 -0.50980
f 1/1/1 22/22/22 23/23/23
f 1/1/1 23/23/23 2/2/2
f 2/2/2 23/23/23 24/24/24
f 2/2/2 24/24/24 3/3/3
f 3/3/3 24/24/24 25/25/25
f 3/3/3 25/25/25 4/4/4
f 4/4/4 25/25/25 26/26/26
f 4/4/4 26/26/26 5/5/5
f 5/5/5 26/26/26 27/27/27
f 5/5/5 27/27/27 6/6/6
f 6/6/6 27/27/27 28/28/28
f 6/6/6 28/28/28 7/7/7
f 7/7/7 28/28/28 29/29/29
f 7/7/7 29/29/29 8/8/8
f 8/8/8 29/29/29 30/30/30
f 8/8/8 30/30/30 9/9/9
f 9/9/9 30/30/30 31/31/31
f 9/9/9 31/31/31 10/10/10
f 10/10/10 31/31/31 32/32/32
f 10/10/10 32/32/32 11/11/11
f 11/11/11 32/32/32 33/33/33
f 11/11/11 33/33/33 12/12/12
f 12/12/12 33/33/33 34/34/34
f 12/12/12 34/34/34 13/13/13
f 13/13/13 34/34/34 35/35/35
f 13/13/13 35/35/35 14/14/14
f 14/14/14 35/35/35 36/36/36
f 14/14/14 36/36/36 15/15/15
f 15/15/15 36/36/36 37/37/37
f 15/15/15 37/37/37 16/16/16
f 16/16/16 37/37/37 38/38/38
f 16/16/16 38/38/38 17/17/17
f 17/17/17 38/38/38 39/39/39
f 17/17/17 39/39/39 18/18/18
f 18/18/18 39/39/39 40/40/40
f 18/18/18 40/40/40 19/19/19
f 19/19/19 40/40/40 41/41/41
f 19/19/19 41/41/41 20/20/20
f 20/20/20 41/41/41 42/42/42
f 20/20/20 42/42/42 21/21/21
f 22/22/22 43/43/43 44/44/44
f 22/22/22 44/44/44 23/23/23
f 23/23/23 44/44/44 45/45/45
f 23/23/23 45/45/45 24/24/24
f 24/24/24 45/45/45 46/46/46
f 24/24/24 46/46/46 25/25/25
f 25/25/25 46/46/46 47/47/47
f 25/25/25 47/47/47 26/26/26
f 26/26/26 47/47/47 48/48/48
f 26/26/26 48/48/48 27/27/27
f 27/27/27 48/48/48 49/49/49
f 27/27/27 49/49/49 28/28/28
f 28/28/28 49/49/49 50/50/50
f 28/28/28 50/50/50 29/29/29
f 29/29/29 50/50/50 51/51/51
f 29/29/29 51/51/51 30/30/30
f 30/30/30 51/51/51 52/52/52
f 30/30/30 52/52/52 31/31/31
f 31/31/31 52/52/52 53/53/53
f 31/31/31 53/53/53 32/32/32
f 32/32/32 53/53/53 54/54/54
f 32/32/32 54/54/54 33/33/33
f 33/33/33 54/54/54 55/55/55
f 33/33/33 55/55/55 34/34/34
f 34/34/34 55/55/55 56/56/56
f 34/34/34 56/56/56 35/35/35
f 35/35/35 56/56/56 57/57/57
f 35/35/35 57/57/57 36/36/36
f 36/36/36 57/57/57 58/58/58
f 36/36/36 58/58/58 37/37/37
f 37/37/37 58/58/58 59/59/59
f 37/37/37 59/59/59 38/38/38
f 38/38/38 59/59/59 60/60/60
f 38/38/38 60/60/60 39/39/39
f 39/39/39 60/60/60 61/61/61
f 39/39/39 61/61/61 40/40/40
f 40/40/40 61/61/61 62/62/62
f 40/40/40 62/62/62 41/41/41
f 41/41/41 62/62/62 63/63/63
f 41/41/41 63/63/63 42/42/42
f 43/43/43 64/64/64 65/65/65
f 43/43/43 65/65/65 44/44/44
f 44/44/44 65/65/65 66/66/66
f 44/44/44 66/66/66 45/45/45
f 45/45/45 66/66/66 67/67/67
f 45/45/45 67/67/67 46/46/46
f 46/46/46 67/67/67 68/68/68
f 46/46/46 68/68/68 47/47/47
f 47/47/47 68/68/68 69/69/69
f 47/47/47 69/69/69 48/48/48
f 48/48/48 69/69/69 70/70/70
f 48/48/48 70/70/70 49/49/49
f 49/49/49 70/70/70 71/71/71
f 49/49/49 71/71/71 50/50/50
f 50/50/50 71/71/71 72/72/72
f 50/50/50 72/72/72 51/51/51
f 51/51/51 72/72/72 73/73/73
f 51/51/51 73/73/73 52/52/52
f 52/52/52 73/73/73 74/74/74
f 52/52/52 74/74/74 53/53/53
f 53/53/53 74/74/74 75/75/75
f 53/53/53 75/75/75 54/54/54
f 54/54/54 75/75/75 76/76/76
f 54/54/54 76/76/76 55/55/55
f 55/55/55 76/76/76 77/77/77
f 55/55/55 77/77/77 56/56/56
f 56/56/56 77/77/77 78/78/78
f 56/56/56 78/78/78 57/57/57
f 57/57/57 78/78/78 79/79/79
f 57/57/57 79/79/79 58/58/58
f 58/58/58 79/79/79 80/80/80
f 58/58/58 80/80/80 59/59/59
f 59/59/59 80/80/80 81/81/81
f 59/59/59 81/81/81 60/60/60
f 60/60/60 81/81/81 82/82/82
f 60/60/60 82/82/82 61/61/61
f 61/61/61 82/82/82 83/83/83
f 61/61/61 83/83/83 62/62/62
f 62/62/62 83/83/83 84/84/84
f 62/62/62 84/84/84 63/63/63
f 64/64/64 85/85/85 86/86/86
f 64/64/64 86/86/86 65/65/65
f 65/65/65 86/86/86 87/87/87
f 65/65/65 87/87/87 66/66/66
f 66/66/66 87/87/87 88/88/88
f 66/66/66 88/88/88 67/67/67
f 67/67/67 88/88/88 89/89/89
f 67/67/67 89/89/89 68/68/68
f 68/68/68 89/89/89 90/90/90
f 68/68/68 90/90/90 69/69/69
f 69/69/69 90/90/90 91/91/91
f 69/69/69 91/91/91 70/70/70
f 70/70/70 91/91/91 92/92/92
f 70/70/70 92/92/92 71/71/71
f 71/71/71 92/92/92 93/93/93
f 71/71/71 93/93/93 72/72/72
f 72/72/72 93/93/93 94/94/94
f 72/72/72 94/94/94 73/73/73
f 73/73/73 94/94/94 95/95/95
f 73/73/73 95/95/95 74/74/74
f 74/74/74 95/95/95 96/96/96
f 74/74/74 96/96/96 75/75/75
f 75/75/75 96/96/96 97/97/97
f 75/75/75 97/97/97 76/76/76
f 76/76/76 97/97/97 98/98/98
f 76/76/76 98/98/98 77/77/77
f 77/77/77 98/98/98 99/99/99
f 77/77/77 99/99/99 78/78/78
f 78/78/78 99/99/99 100/100/100
f 78/78/78 100/100/100 79/79/79
f 79/79/79 100/100/100 101/101/101
f 79/79/79 101/101/101 80/80/80
f 80/80/80 101/101/101 102/102/102
f 80/80/80 102/102/102 81/81/81
f 81/81/81 102/102/102 103/103/103
f 81/81/81 103/103/103 82/82/82
f 82/82/82 103/103/103 104/104/104
f 82/82/82 104/104/104 83/83/83
f 83/83/83 104/104/104 105/105/105
f 83/83/83 105/105/105 84/84/84
f 85/85/85 106/106/106 107/107/107
f 85/85/85 107/107/107 86/86/86
f 86/86/86 107/107/107 108/108/108
f 86/86/86 108/108/108 87/87/87
f 87/87/87 108/108/108 109/109/109
f 87/87/87 109/109/109 88/88/88
f 88/88/88 109/109/109 110/110/110
f 88/88/88 110/110/110 89/89/89
f 89/89/89 110/110/110 111/111/111
f 89/89/89 111/111/111 90/90/90
f 90/90/90 111/111/111 112/112/112
f 90/90/90 112/112/112 91/91/91
f 91/91/91 112/112/112 113/113/113
f 91/91/91 113/113/113 92/92/92
f 92/92/92 113/113/113 114/114/114
f 92/92/92 114/114/114 93/93/93
f 93/93/93 114/114/114 115/115/115
f 93/93/93 115/115/115 94/94/94
f 94/94/94 115/115/115 116/116/116
f 94/94/94 116/116/116 95/95/95
f 95/95/95 116/116/116 117/117/117
f 95/95/95 117/117/117 96/96/96
f 96/96/96 117/117/117 118/118/118
f 96/96/96 118/118/118 97/97/97
f 97/97/97 118/118/118 119/119/119
f 97/97/97 119/119/119 98/98/98
f 98/98/98 119/119/119 120/120/120
f 98/98/98 120/120/120 99/99/99
f 99/99/99 120/120/120 121/121/121
f 99/99/99 121/121/121 100/100/100
f 100/100/100 121/121/121 122/122/122
f 100/100/100 122/122/122 101/101/101
f 101/101/101 122/122/122 123/123/123
f 101/101/101 123/123/123 102/102/102
f 102/102/102 123/123/123 124/124/124
f 102/102/102 124/124/124 103/103/103
f 103/103/103 124/124/124 125/125/125
f 103/103/103 125/125/125 104/104/104
f 104/104/104 125/125/125 126/126/126
f 104/104/104 126/126/126 105/105/105
f 106/106/106 127/127/127 128/128/128
f 106/106/106 128/128/128 107/107/107
f 107/107/107 128/128/128 129/129/129
f 107/107/107 129/129/129 108/108/108
f 108/108/108 129/129/129 130/130/130
f 108/108/108 130/130/130 109/109/109
f 109/109/109 130/130/130 131/131/131
f 109/109/109 131/131/131 110/110/110
f 110/110/110 131/131/131 132/132/132
f 110/110/110 132/132/132 111/111/111
f 111/111/111 132/132/132 133/133/133
f 111/111/111 133/133/133 112/112/112
f 112/112/112 133/133/133 134/134/134
f 112/112/112 134/134/134 113/113/113
f 113/113/113 134/134/134 135/135/135
f 113/113/113 135/135/135 114/114/114
f 114/114/114 135/135/135 136/136/136
f 114/114/114 136/136/136 115/115/115
f 115/115/115 136/136/136 137/137/137
f 115/115/115 137/137/137 116/116/116
f 116/116/116 137/137/137 138/138/138
f 116/116/116 138/138/138 117/117/117
f 117/117/117 138/138/138 139/139/139
f 117/117/117 139/139/139 118/118/118
f 118/118/118 139/139/139 140/140/140
f 118/118/118 140/140/140 119/119/119
f 119/119/119 140/140/140 141/141/141
f 119/119/119 141/141/141 120/120/120
f 120/120/120 141/141/141 142/142/142
f 120/120/120 142/142/142 121/121/121
f 121/121/121 142/142/142 143/143/143
f 121/121/121 143/143/143 122/122/122
f 122/122/122 143/143/143 144/144/144
f 122/122/122 144/144/144 123/123/123
f 123/123/123 144/144/144 145/145/145
f 123/123/123 145/145/145 124/124/124
f 124/124/124 145/145/145 146/146/146
f 124/124/124 146/146/146 125/125/125
f 125/125/125 146/146/146 147/147/147
f 125/125/125 147/147/147 126/126/126
f 127/127/127 148/148/148 149/149/149
f 127/127/127 149/149/149 128/128/128
f 128/128/128 149/149/149 150/150/150
f 128/128/128 150/150/150 129/129/129
f 129/129/129 150/150/150 151/151/151
f 129/129/129 151/151/151 130/130/130
f 130/130/130 151/151/151 152/152/152
f 130/130/130 152/152/152 131/131/131
f 131/131/131 152/152/152 153/153/153
f 131/131/131 153/153/153 132/132/132
f 132/132/132 153/153/153 154/154/154
f 132/132/132 154/154/154 133/133/133
f 133/133/133 154/154/154 155/155/155
f 133/133/133 155/155/155 134/134/134
f 134/134/134 155/155/155 156/156/156
f 134/134/134 156/156/156 135/135/135
f 135/135/135 156/156/156 157/157/157
f 135/135/135 157/157/157 136/136/136
f 136/136/136 157/157/157 158/158/158
f 136/136/136 158/158/158 137/137/137
f 137/137/137 158/158/158 159/159/159
f 137/137/137 159/159/159 138/138/138
f 138/138/138 159/159/159 160/160/160
f 138/138/138 160/160/160 139/139/139
f 139/139/139 160/160/160 161/161/161
f 139/139/139 161/161/161 140/140/140
f 140/140/140 161/161/161 162/162/162
f 140/140/140 162/162/162 141/141/141
f 141/141/141 162/162/162 163/163/163
f 141/141/141 163/163/163 142/142/142
f 142/142/142 163/163/163 164/164/164
f 142/142/142 164/164/164 143/143/143
f 143/143/143 164/164/164 165/165/165
f 143/143/143 165/165/165 144/144/144
f 144/144/144 165/165/165 166/166/166
f 144/144/144 166/166/166 145/145/145
f 145/145/145 166/166/166 167/167/167
f 145/145/145 167/167/167 146/146/146
f 146/146/146 167/167/167 168/168/168
f 146/146/146 168/168/168 147/147/147
f 148/148/148 169/169/169 170/170/170
f 148/148/148 170/170/170 149/149/149
f 149/149/149 170/170/170 171/171/171
f 149/149/149 171/171/171 150/150/150
f 150/150/150 171/171/171 172/172/172
f 150/150/150 172/172/172 151/151/151
f 151/151/151 172/172/172 173/173/173
f 151/151/151 173/173/173 152/152/152
f 152/152/152 173/173/173 174/174/174
f 152/152/152 174/174/174 153/153/153
f 153/153/153 174/174/174 175/175/175
f 153/153/153 175/175/175 154/154/154
f 154/154/154 175/175/175 176/176/176
f 154/154/154 176/176/176 155/155/155
f 155/155/155 176/176/176 177/177/177
f 155/155/155 177/177/177 156/156/156
f 156/156/156 177/177/177 178/178/178
f 156/156/156 178/178/178 157/157/157
f 157/157/157 178/178/178 179/179/179
f 157/157/157 179/179/179 158/158/158
f 158/158/158 179/179/179 180/180/180
f 158/158/158 180/180/180 159/159/159
f 159/159/159 180/180/180 181/181/181
f 159/159/159 181/181/181 160/160/160
f 160/160/160 181/181/181 182/182/182
f 160/160/160 182/182/182 161/161/161
f 161/161/161 182/182/182 183/183/183
f 161/161/161 183/183/183 162/162/162
f 162/162/162 183/183/183 184/184/184
f 162/162/162 184/184/184 163/163/163
f 163/163/163 184/184/184 185/185/185
f 163/163/163 185/185/185 164/164/164
f 164/164/164 185/185/185 186/186/186
f 164/164/164 186/186/186 165/165/165
f 165/165/165 186/186/186 187/187/187
f 165/165/165 187/187/187 166/166/166
f 166/166/166 187/187/187 188/188/188
f 166/166/166 188/188/188 167/167/167
f 167/167/167 188/188/188 189/189/189
f 167/167/167 189/189/189 168/168/168
f 169/169/169 190/190/190 191/191/191
f 169/169/169 191/191/191 170/170/170
f 170/170/170 191/191/191 192/192/192
f 170/170/170 192/192/192 171/171/171
f 171/171/171 192/192/192 193/193/193
f 171/171/171 193/193/193 172/172/172
f 172/172/172 193/193/193 194/194/194
f 172/172/172 194/194/194 173/173/173
f 173/173/173 194/194/194 195/195/195
f 173/173/173 195/195/195 174/174/174
f 174/174/174 195/195/195 196/196/196
f 174/174/174 196/196/196 175/175/175
f 175/175/175 196/196/196 197/197/197
f 175/175/175 197/197/197 176/176/176
f 176/176/176 197/197/197 198/198/198
f 176/176/176 198/198/198 177/177/177
f 177/177/177 198/198/198 199/199/199
f 177/177/177 199/199/199 178/178/178
f 178/178/178 199/199/199 200/200/200
f 178/178/178 200/200/200 179/179/179
f 179/179/179 200/200/200 201/201/201
f 179/179/179 201/201/201 180/180/180
f 180/180/180 201/201/201 202/202/202
f 180/180/180 202/202/202 181/181/181
f 181/181/181 202/202/202 203/203/203
f 181/181/181 203/203/203 182/182/182
f 182/182/182 203/203/203 204/204/204
f 182/182/182 204/204/204 183/183/183
f 183/183/183 204/204/204 205/205/205
f 183/183/183 205/205/205 184/184/184
f 184/184/184 205/205/205 206/206/206
f 184/184/184 206/206/206 185/185/185
f 185/185/185 206/206/206 207/207/207
f 185/185/185 207/207/207 186/186/186
f 186/186/186 207/207/207 208/208/208
f 186/186/186 208/208/208 187/187/187
f 187/187/187 208/208/208 209/209/209
f 187/187/187 209/209/209 188/188/188
f 188/188/188 209/209/209 210/210/210
f 188/188/188 210/210/210 189/189/189
f 190/190/190 211/211/211 212/212/212
f 190/190/190 212/212/212 191/191/191
f 191/191/191 212/212/212 213/213/213
f 191/191/191 213/213/213 192/192/192
f 192/192/192 213/213/213 214/214/214
f 192/192/192 214/214/214 193/193/193
f 193/193/193 214/214/214 215/215/215
f 193/193/193 215/215/215 194/194/194
f 194/194/194 215/215/215 216/216/216
f 194/194/194 216/216/216 195/195/195
f 195/195/195 216/216/216 217/217/217
f 195/195/195 217/217/217 196/196/196
f 196/196/196 217/217/217 218/218/218
f 196/196/196 218/218/218 197/197/197
f 197/197/197 218/218/218 219/219/219
f 197/197/197 219/219/219 198/198/198
f 198/198/198 219/219/219 220/220/220
f 198/198/198 220/220/220 199/199/199
f 199/199/199 220/220/220 221/221/221
f 199/199/199 221/221/221 200/200/200
f 200/200/200 221/221/221 222/222/222
f 200/200/200 222/222/222 201/201/201
f 201/201/201 222/222/222 223/223/223
f 201/201/201 223/223/223 202/202/202
f 202/202/202 223/223/223 224/224/224
f 202/202/202 224/224/224 203/203/203
f 203/203/203 224/224/224 225/225/225
f 203/203/203 225/225/225 204/204/204
f 204/204/204 225/225/225 226/226/226
f 204/204/204 226/226/226 205/205/205
f 205/205/205 226/226/226 227/227/227
f 205/205/205 227/227/227 206/206/206
f 206/206/206 227/227/227 228/228/228
f 206/206/206 228/228/228 207/207/207
f 207/207/207 228/228/228 229/229/229
f 207/207/207 229/229/229 208/208/208
f 208/208/208 229/229/229 230/230/230
f 208/208/208 230/230/230 209/209/209
f 209/209/209 230/230/230 231/231/231
f 209/209/209 231/231/231 210/210/210
f 211/211/211 232/232/232 233/233/233
f 211/211/211 233/233/233 212/212/212
f 212/212/212 233/233/233 234/234/234
f 212/212/212 234/234/234 213/213/213
f 213/213/213 234/234/234 235/235/235
f 213/213/213 235/235/235 214/214/214
f 214/214/214 235/235/235 236/236/236
f 214/214/214 236/236/236 215/215/215
f 215/215/215 236/236/236 237/237/237
f 215/215/215 237/237/237 216/216/216
f 216/216/216 237/237/237 238/238/238
f 216/216/216 238/238/238 217/217/217
f 217/217/217 238/238/238 239/239/239
f 217/217/217 239/239/239 218/218/218
f 218/218/218 239/239/239 240/240/240
f 218/218/218 240/240/240 219/219/219
f 219/219/219 240/240/240 241/241/241
f 219/219/219 241/241/241 220/220/220
f 220/220/220 241/241/241 242/242/242
f 220/220/220 242/242/242 221/221/221
f 221/221/221 242/242/242 243/243/243
f 221/221/221 243/243/243 222/222/222
f 222/222/222 243/243/243 244/244/244
f 222/222/222 244/244/244 223/223/223
f 223/223/223 244/244/244 245/245/245
f 223/223/223 245/245/245 224/224/224
f 224/224/224 245/245/245 246/246/246
f 224/224/224 246/246/246 225/225/225
f 225/225/225 246/246/246 247/247/247
f 225/225/225 247/247/247 226/226/226
f 226/226/226 247/247/247 248/248/248
f 226/226/226 248/248/248 227/227/227
f 227/227/227 248/248/248 249/249/249
f 227/227/227 249/249/249 228/228/228
f 228/228/228 249/249/249 250/250/250
f 228/228/228 250/250/250 229/229/229
f 229/229/229 250/250/250 251/251/251
f 229/229/229 251/251/251 230/230/230
f 230/230/230 251/251/251 252/252/252
f 230/230/230 252/252/252 231/231/231
f 232/232/232 253/253/253 254/254/254
f 232/232/232 254/254/254 233/233/233
f 233/233/233 254/254/254 255/255/255
f 233/233/233 255/255/255 234/234/234
f 234/234/234 255/255/255 256/256/256
f 234/234/234 256/256/256 235/235/235
f 235/235/235 256/256/256 257/257/257
f 235/235/235 257/257/257 236/236/236
f 236/236/236 257/257/257 258/258/258
f 236/236/236 258/258/258 237/237/237
f 237/237/237 258/258/258 259/259/259
f 237/237/237 259/259/259 238/238/238
f 238/238/238 259/259/259 260/260/260
f 238/238/238 260/260/260 239/239/239
f 239/239/239 260/260/260 261/261/261
f 239/239/239 261/261/261 240/240/240
f 240/240/240 261/261/261 262/262/262
f 240/240/240 262/262/262 241/241/241
f 241/241/241 262/262/262 263/263/263
f 241/241/241 263/263/263 242/242/242
f 242/242/242 263/263/263 264/264/264
f 242/242/242 264/264/264 243/243/243
f 243/243/243 264/264/264 265/265/265
f 243/243/243 265/265/265 244/244/244
f 244/244/244 265/265/265 266/266/266
f 244/244/244 266/266/266 245/245/245
f 245/245/245 266/266/266 267/267/267
f 245/245/245 267/267/267 246/246/246
f 246/246/246 267/267/267 268/268/268
f 246/246/246 268/268/268 247/247/247
f 247/247/247 268/268/268 269/269/269
f 247/247/247 269/269/269 248/248/248
f 248/248/248 269/269/269 270/270/270
f 248/248/248 270/270/270 249/249/249
f 249/249/249 270/270/270 271/271/271
f 249/249/249 271/271/271 250/250/250
f 250/250/250 271/271/271 272/272/272
f 250/250/250 272/272/272 251/251/251
f 251/251/251 272/272/272 273/273/273
f 251/251/251 273/273/273 252/252/252
f 253/253/253 274/274/274 275/275/275
f 253/253/253 275/275/275 254/254/254
f 254/254/254 275/275/275 276/276/276
f 254/254/254 276/276/276 255/255/255
f 255/255/255 276/276/276 277/277/277
f 255/255/255 277/277/277 256/256/256
f 256/256/256 277/277/277 278/278/278
f 256/256/256 278/278/278 257/257/257
f 257/257/257 278/278/278 279/279/279
f 257/257/257 279/279/279 258/258/258
f 258/258/258 279/279/279 280/280/280
f 258/258/258 280/280/280 259/259/259
f 259/259/259 280/280/280 281/281/281
f 259/259/259 281/281/281 260/260/260
f 260/260/260 281/281/281 282/282/282
f 260/260/260 282/282/282 261/261/261
f 261/261/261 282/282/282 283/283/283
f 261/261/261 283/283/283 262/262/262
f 262/262/262 283/283/283 284/284/284
f 262/262/262 284/284/284 263/263/263
f 263/263/263 284/284/284 285/285/285
f 263/263/263 285/285/285 264/264/264
f 264/264/264 285/285/285 286/286/286
f 264/264/264 286/286/286 265/265/265
f 265/265/265 286/286/286 287/287/287
f 265/265/265 287/287/287 266/266/266
f 266/266/266 287/287/287 288/288/288
f 266/266/266 288/288/288 267/267/267
f 267/267/267 288/288/288 289/289/289
f 267/267/267 289/289/289 268/268/268
f 268/268/268 289/289/289 290/290/290
f 268/268/268 290/290/290 269/269/269
f 269/269/269 290/290/290 291/291/291
f 269/269/269 291/291/291 270/270/270
f 270/270/270 291/291/291 292/292/292
f 270/270/270 292/292/292 271/271/271
f 271/271/271 292/292/292 293/293/293
f 271/271/271 293/293/293 272/272/272
f 272/272/272 293/293/293 294/294/294
f 272/272/272 294/294/294 273/273/273
f 274/274/274 295/295/295 296/296/296
f 274/274/274 296/296/296 275/275/275
f 275/275/275 296/296/296 297/297/297
f 275/275/275 297/297/297 276/276/276
f 276/276/276 297/297/297 298/298/298
f 276/276/276 298/298/298 277/277/277
f 277/277/277 298/298/298 299/299/299
f 277/277/277 299/299/299 278/278/278
f 278/278/278 299/299/299 300/300/300
f 278/278/278 300/300/300 279/279/279
f 279/279/279 300/300/300 301/301/301
f 279/279/279 301/301/301 280/280/280
f 280/280/280 301/301/301 302/302/302
f 280/280/280 302/302/302 281/281/281
f 281/281/281 302/302/302 303/303/303
f 281/281/281 303/303/303 282/282/282
f 282/282/282 303/303/303 304/304/304
f 282/282/282 304/304/304 283/283/283
f 283/283/283 304/304/304 305/305/305
f 283/283/283 305/305/305 284/284/284
f 284/284/284 305/305/305 306/306/306
f 284/284/284 306/306/306 285/285/285
f 285/285/285 306/306/306 307/307/307
f 285/285/285 307/307/307 286/286/286
f 286/286/286 307/307/307 308/308/308
f 286/286/286 308/308/308 287/287/287
f 287/287/287 308/308/308 309/309/309
f 287/287/287 309/309/309 288/288/288
f 288/288/288 309/309/309 310/310/310
f 288/288/288 310/310/310 289/289/289
f 289/289/289 310/310/310 311/311/311
f 289/289/289 311/311/311 290/290/290
f 290/290/290 311/311/311 312/312/312
f 290/290/290 312/312/312 291/291/291
f 291/291/291 312/312/312 313/313/313
f 291/291/291 313/313/313 292/292/292
f 292/292/292 313/313/313 314/314/314
f 292/292/292 314/314/314 293/293/293
f 293/293/293 314/314/314 315/315/315
f 293/293/293 315/315/315 294/294/294
f 295/295/295 316/316/316 317/317/317
f 295/295/295 317/317/317 296/296/296
f 296/296/296 317/317/317 318/318/318
f 296/296/296 318/318/318 297/297/297
f 297/297/297 318/318/318 319/319/319
f 297/297/297 319/319/319 298/298/298
f 298/298/298 319/319/319 320/320/320
f 298/298/298 320/320/320 299/299/299
f 299/299/299 320/320/320 321/321/321
f 299/299/299 321/321/321 300/300/300
f 300/300/300 321/321/321 322/322/322
f 300/300/300 322/322/322 301/301/301
f 301/301/301 322/322/322 323/323/323
f 301/301/301 323/323/323 302/302/302
f 302/302/302 323/323/323 324/324/324
f 302/302/302 324/324/324 303/303/303
f 303/303/303 324/324/324 325/325/325
f 303/303/303 325/325/325 304/304/304
f 304/304/304 325/325/325 326/326/326
f 304/304/304 326/326/326 305/305/305
f 305/305/305 326/326/326 327/327/327
f 305/305/305 327/327/327 306/306/306
f 306/306/306 327/327/327 328/328/328
f 306/306/306 328/328/328 307/307/307
f 307/307/307 328/328/328 329/329/329
f 307/307/307 329/329/329 308/308/308
f 308/308/308 329/329/329 330/330/330
f 308/308/308 330/330/330 309/309/309
f 309/309/309 330/330/330 331/331/331
f 309/309/309 331/331/331 310/310/310
f 310/310/310 331/331/331 332/332/332
f 310/310/310 332/332/332 311/311/311
f 311/311/311 332/332/332 333/333/333
f 311/311/311 333/333/333 312/312/312
f 312/312/312 333/333/333 334/334/334
f 312/312/312 334/334/334 313/313/313
f 313/313/313 334/334/334 335/335/335
f 313/313/313 335/335/335 314/314/314
f 314/314/314 335/335/335 336/336/336
f 314/314/314 336/336/336 315/315/315
f 316/316/316 337/337/337 338/338/338
f 316/316/316 338/338/338 317/317/317
f 317/317/317 338/338/338 339/339/339
f 317/317/317 339/339/339 318/318/318
f 318/318/318 339/339/339 340/340/340
f 318/318/318 340/340/340 319/319/319
f 319/319/319 340/340/340 341/341/341
f 319/319/319 341/341/341 320/320/320
f 320/320/320 341/341/341 342/342/342
f 320/320/320 342/342/342 321/321/321
f 321/321/321 342/342/342 343/343/343
f 321/321/321 343/343/343 322/322/322
f 322/322/322 343/343/343 344/344/344
f 322/322/322 344/344/344 323/323/323
f 323/323/323 344/344/344 345/345/345
f 323/323/323 345/345/345 324/324/324
f 324/324/324 345/345/345 346/346/346
f 324/324/324 346/346/346 325/325/325
f 325/325/325 346/346/346 347/347/347
f 325/325/325 347/347/347 326/326/326
f 326/326/326 347/347/347 348/348/348
f 326/326/326 348/348/348 327/327/327
f 327/327/327 348/348/348 349/349/349
f 327/327/327 349/349/349 328/328/328
f 328/328/328 349/349/349 350/350/350
f 328/328/328 350/350/350 329/329/329
f 329/329/329 350/350/350 351/351/351
f 329/329/329 351/351/351 330/330/330
f 330/330/330 351/351/351 352/352/352
f 330/330/330 352/352/352 331/331/331
f 331/331/331 352/352/352 353/353/353
f 331/331/331 353/353/353 332/332/332
f 332/332/332 353/353/353 354/354/354
f 332/332/332 354/354/354 333/333/333
f 333/333/333 354/354/354 355/355/355
f 333/333/333 355/355/355 334/334/334
f 334/334/334 355/355/355 356/356/356
f 334/334/334 356/356/356 335/335/335
f 335/335/335 356/356/356 357/357/357
f 335/335/335 357/357/357 336/336/336
f 337/337/337 358/358/358 359/359/359
f 337/337/337 359/359/359 338/338/338
f 338/338/338 359/359/359 360/360/360
f 338/338/338 360/360/360 339/339/339
f 339/339/339 360/360/360 361/361/361
f 339/339/339 361/361/361 340/340/340
f 340/340/340 361/361/361 362/362/362
f 340/340/340 362/362/362 341/341/341
f 341/341/341 362/362/362 363/363/363
f 341/341/341 363/363/363 342/342/342
f 342/342/342 363/363/363 364/364/364
f 342/342/342 364/364/364 343/343/343
f 343/343/343 364/364/364 365/365/365
f 343/343/343 365/365/365 344/344/344
f 344/344/344 365/365/365 366/366/366
f 344/344/344 366/366/366 345/345/345
f 345/345/345 366/366/366 367/367/367
f 345/345/345 367/367/367 346/346/346
f 346/346/346 367/367/367 368/368/368
f 346/346/346 368/368/368 347/347/347
f 347/347/347 368/368/368 369/369/369
f 347/347/347 369/369/369 348/348/348
f 348/348/348 369/369/369 370/370/370
f 348/348/348 370/370/370 349/349/349
f 349/349/349 370/370/370 371/371/371
f 349/349/349 371/371/371 350/350/350
f 350/350/350 371/371/371 372/372/372
f 350/350/350 372/372/372 351/351/351
f 351/351/351 372/372/372 373/373/373
f 351/351/351 373/373/373 352/352/352
f 352/352/352 373/373/373 374/374/374
f 352/352/352 374/374/374 353/353/353
f 353/353/353 374/374/374 375/375/375
f 353/353/353 375/375/375 354/354/354
f 354/354/354 375/375/375 376/376/376
f 354/354/354 376/376/376 355/355/355
f 355/355/355 376/376/376 377/377/377
f 355/355/355 377/377/377 356/356/356
f 356/356/356 377/377/377 378/378/378
f 356/356/356 378/378/378 357/357/357
f 358/358/358 379/379/379 380/380/380
f 358/358/358 380/380/380 359/359/359
f 359/359/359 380/380/380 381/381/381
f 359/359/359 381/381/381 360/360/360
f 360/360/360 381/381/381 382/382/382
f 360/360/360 382/382/382 361/361/361
f 361/361/361 382/382/382 383/383/383
f 361/361/361 383/383/383 362/362/362
f 362/362/362 383/383/383 384/384/384
f 362/362/362 384/384/384 363/363/363
f 363/363/363 384/384/384 385/385/385
f 363/363/363 385/385/385 364/364/364
f 364/364/364 385/385/385 386/386/386
f 364/364/364 386/386/386 365/365/365
f 365/365/365 386/386/386 387/387/387
f 365/365/365 387/387/387 366/366/366
f 366/366/366 387/387/387 388/388/388
f 366/366/366 388/388/388 367/367/367
f 367/367/367 388/388/388 389/389/389
f 367/367/367 389/389/389 368/368/368
f 368/368/368 389/389/389 390/390/390
f 368/368/368 390/390/390 369/369/369
f 369/369/369 390/390/390 391/391/391
f 369/369/369 391/391/391 370/370/370
f 370/370/370 391/391/391 392/392/392
f 370/370/370 392/392/392 371/371/371
f 371/371/371 392/392/392 393/393/393
f 371/371/371 393/393/393 372/372/372
f 372/372/372 393/393/393 394/394/394
f 372/372/372 394/394/394 373/373/373
f 373/373/373 394/394/394 395/395/395
f 373/373/373 395/395/395 374/374/374
f 374/374/374 395/395/395 396/396/396
f 374/374/374 396/396/396 375/375/375
f 375/375/375 396/396/396 397/397/397
f 375/375/375 397/397/397 376/376/376
f 376/376/376 397/397/397 398/398/398
f 376/376/376 398/398/398 377/377/377
f 377/377/377 398/398/398 399/399/399
f 377/377/377 399/399/399 378/378/378
f 379/379/379 400/400/400 401/401/401
f 379/379/379 401/401/401 380/380/380
f 380/380/380 401/401/401 402/402/402
f 380/380/380 402/402/402 381/381/381
f 381/381/381 402/402/402 403/403/403
f 381/381/381 403/403/403 382/382/382
f 382/382/382 403/403/403 404/404/404
f 382/382/382 404/404/404 383/383/383
f 383/383/383 404/404/404 405/405/405
f 383/383/383 405/405/405 384/384/384
f 384/384/384 405/405/405 406/406/406
f 384/384/384 406/406/406 385/385/385
f 385/385/385 406/406/406 407/407/407
f 385/385/385 407/407/407 386/386/386
f 386/386/386 407/407/407 408/408/408
f 386/386/386 408/408/408 387/387/387
f 387/387/387 408/408/408 409/409/409
f 387/387/387 409/409/409 388/388/388
f 388/388/388 409/409/409 410/410/410
f 388/388/388 410/410/410 389/389/389
f 389/389/389 410/410/410 411/411/411
f 389/389/389 411/411/411 390/390/390
f 390/390/390 411/411/411 412/412/412
f 390/390/390 412/412/412 391/391/391
f 391/391/391 412/412/412 413/413/413
f 391/391/391 413/413/413 392/392/392
f 392/392/392 413/413/413 414/414/414
f 392/392/392 414/414/414 393/393/393
f 393/393/393 414/414/414 415/415/415
f 393/393/393 415/415/415 394/394/394
f 394/394/394 415/415/415 416/416/416
f 394/394/394 416/416/416 395/395/395
f 395/395/395 416/416/416 417/417/417
f 395/395/395 417/417/417 396/396/396
f 396/396/396 417/417/417 418/418/418
f 396/396/396 418/418/418 397/397/397
f 397/397/397 418/418/418 419/419/419
f 397/397/397 419/419/419 398/398/398
f 398/398/398 419/419/419 420/420/420
f 398/398/398 420/420/420 399/399/399
f 400/400/400 421/421/421 422/422/422
f 400/400/400 422/422/422 401/401/401
f 401/401/401 422/422/422 423/423/423
f 401/401/401 423/423/423 402/402/402
f 402/402/402 423/423/423 424/424/424
f 402/402/402 424/424/424 403/403/403
f 403/403/403 424/424/424 425/425/425
f 403/403/403 425/425/425 404/404/404
f 404/404/404 425/425/425 426/426/426
f 404/404/404 426/426/426 405/405/405
f 405/405/405 426/426/426 427/427/427
f 405/405/405 427/427/427 406/406/406
f 406/406/406 427/427/427 428/428/428
f 406/406/406 428/428/428 407/407/407
f 407/407/407 428/428/428 429/429/429
f 407/407/407 429/429/429 408/408/408
f 408/408/408 429/429/429 430/430/430
f 408/408/408 430/430/430 409/409/409
f 409/409/409 430/430/430 431/431/431
f 409/409/409 431/431/431 410/410/410
f 410/410/410 431/431/431 432/432/432
f 410/410/410 432/432/432 411/411/411
f 411/411/411 432/432/432 433/433/433
f 411/411/411 433/433/433 412/412/412
f 412/412/412 433/433/433 434/434/434
f 412/412/412 434/434/434 413/413/413
f 413/413/413 434/434/434 435/435/435
f 413/413/413 435/435/435 414/414/414
f 414/414/414 435/435/435 436/436/436
f 414/414/414 436/436/436 415/415/415
f 415/415/415 436/436/436 437/437/437
f 415/415/415 437/437/437 416/416/416
f 416/416/416 437/437/437 438/438/438
f 416/416/416 438/438/438 417/417/417
f 417/417/417 438/438/438 439/439/439
f 417/417/417 439/439/439 418/418/418
f 418/418/418 439/439/439 440/440/440
f 418/418/418 440/440/440 419/419/419
f 419/419/419 440/440/440 441/441/441
f 419/419/419 441/441/441 420/420/420
f 421/421/421 442/442/442 443/443/443
f 421/421/421 443/443/443 422/422/422
f 422/422/422 443/443/443 444/444/444
f 422/422/422 444/444/444 423/423/423
f 423/423/423 444/444/444 445/445/445
f 423/423/423 445/445/445 424/424/424
f 424/424/424 445/445/445 446/446/446
f 424/424/424 446/446/446 425/425/425
f 425/425/425 446/446/446 447/447/447
f 425/425/425 447/447/447 426/426/426
f 426/426/426 447/447/447 448/448/448
f 426/426/426 448/448/448 427/427/427
f 427/427/427 448/448/448 449/449/449
f 427/427/427 449/449/449 428/428/428
f 428/428/428 449/449/449 450/450/450
f 428/428/428 450/450/450 429/429/429
f 429/429/429 450/450/450 451/451/451
f 429/429/429 451/451/451 430/430/430
f 430/430/430 451/451/451 452/452/452
f 430/430/430 452/452/452 431/431/431
f 431/431/431 452/452/452 453/453/453
f 431/431/431 453/453/453 432/432/432
f 432/432/432 453/453/453 454/454/454
f 432/432/432 454/454/454 433/433/433
f 433/433/433 454/454/454 455/455/455
f 433/433/433 455/455/455 434/434/434
f 434/434/434 455/455/455 456/456/456
f 434/434/434 456/456/456 435/435/435
f 435/435/435 456/456/456 457/457/457
f 435/435/435 457/457/457 436/436/436
f 436/436/436 457/457/457 458/458/458
f 436/436/436 458/458/458 437/437/437
f 437/437/437 458/458/458 459/459/459
f 437/437/437 459/459/459 438/438/438
f 438/438/438 459/459/459 460/460/460
f 438/438/438 460/460/460 439/439/439
f 439/439/439 460/460/460 461/461/461
f 439/439/439 461/461/461 440/440/440
f 440/440/440 461/461/461 462/462/462
f 440/440/440 462/462/462 441/441/441
f 442/442/442 463/463/463 464/464/464
f 442/442/442 464/464/464 443/443/443
f 443/443/443 464/464/464 465/465/465
f 443/443/443 465/465/465 444/444/444
f 444/444/444 465/465/465 466/466/466
f 444/444/444 466/466/466 445/445/445
f 445/445/445 466/466/466 467/467/467
f 445/445/445 467/467/467 446/446/446
f 446/446/446 467/467/467 468/468/468
f 446/446/446 468/468/468 447/447/447
f 447/447/447 468/468/468 469/469/469
f 447/447/447 469/469/469 448/448/448
f 448/448/448 469/469/469 470/470/470
f 448/448/448 470/470/470 449/449/449
f 449/449/449 470/470/470 471/471/471
f 449/449/449 471/471/471 450/450/450
f 450/450/450 471/471/471 472/472/472
f 450/450/450 472/472/472 451/451/451
f 451/451/451 472/472/472 473/473/473
f 451/451/451 473/473/473 452/452/452
f 452/452/452 473/473/473 474/474/474
f 452/452/452 474/474/474 453/453/453
f 453/453/453 474/474/474 475/475/475
f 453/453/453 475/475/475 454/454/454
f 454/454/454 475/475/475 476/476/476
f 454/454/454 476/476/476 455/455/455
f 455/455/455 476/476/476 477/477/477
f 455/455/455 477/477/477 456/456/456
f 456/456/456 477/477/477 478/478/478
f 456/456/456 478/478/478 457/457/457
f 457/457/457 478/478/478 479/479/479
f 457/457/457 479/479/479 458/458/458
f 458/458/458 479/479/479 480/480/480
f 458/458/458 480/480/480 459/459/459
f 459/459/459 480/480/480 481/481/481
f 459/459/459 481/481/481 460/460/460
f 460/460/460 481/481/481 482/482/482
f 460/460/460 482/482/482 461/461/461
f 461/461/461 482/482/482 483/483/483
f 461/461/461 483/483/483 462/462/462
f 463/463/463 484/484/484 485/485/485
f 463/463/463 485/485/485 464/464/464
f 464/464/464 485/485/485 486/486/486
f 464/464/464 486/486/486 465/465/465
f 465/465/465 486/486/486 487/487/487
f 465/465/465 487/487/487 466/466/466
f 466/466/466 487/487/487 488/488/488
f 466/466/466 488/488/488 467/467/467
f 467/467/467 488/488/488 489/489/489
f 467/467/467 489/489/489 468/468/468
f 468/468/468 489/489/489 490/490/490
f 468/468/468 490/490/490 469/469/469
f 469/469/469 490/490/490 491/491/491
f 469/469/469 491/491/491 470/470/470
f 470/470/470 491/491/491 492/492/492
f 470/470/470 492/492/492 471/471/471
f 471/471/471 492/492/492 493/493/493
f 471/471/471 493/493/493 472/472/472
f 472/472/472 493/493/493 494/494/494
f 472/472/472 494/494/494 473/473/473
f 473/473/473 494/494/494 495/495/495
f 473/473/473 495/495/495 474/474/474
f 474/474/474 495/495/495 496/496/496
f 474/474/474 496/496/496 475/475/475
f 475/475/475 496/496/496 497/497/497
f 475/475/475 497/497/497 476/476/476
f 476/476/476 497/497/497 498/498/498
f 476/476/476 498/498/498 477/477/477
f 477/477/477 498/498/498 499/499/499
f 477/477/477 499/499/499 478/478/478
f 478/478/478 499/499/499 500/500/500
f 478/478/478 500/500/500 479/479/479
f 479/479/479 500/500/500 501/501/501
f 479/479/479 501/501/501 480/480/480
f 480/480/480 501/501/501 502/502/502
f 480/480/480 502/502/502 481/481/481
f 481/481/481 502/502/502 503/503/503
f 481/481/481 503/503/503 482/482/482
f 482/482/482 503/503/503 504/504/504
f 482/482/482 504/504/504 483/483/483
f 484/484/484 505/505/505 506/506/506
f 484/484/484 506/506/506 485/485/485
f 485/485/485 506/506/506 507/507/507
f 485/485/485 507/507/507 486/486/486
f 486/486/486 507/507/507 508/508/508
f 486/486/486 508/508/508 487/487/487
f 487/487/487 508/508/508 509/509/509
f 487/487/487 509/509/509 488/488/488
f 488/488/488 509/509/509 510/510/510
f 488/488/488 510/510/510 489/489/489
f 489/489/489 510/510/510 511/511/511
f 489/489/489 511/511/511 490/490/490
f 490/490/490 511/511/511 512/512/512
f 490/490/490 512/512/512 491/491/491
f 491/491/491 512/512/512 513/513/513
f 491/491/491 513/513/513 492/492/492
f 492/492/492 513/513/513 514/514/514
f 492/492/492 514/514/514 493/493/493
f 493/493/493 514/514/514 515/515/515
f 493/493/493 515/515/515 494/494/494
f 494/494/494 515/515/515 516/516/516
f 494/494/494 516/516/516 495/495/495
f 495/495/495 516/516/516 517/517/517
f 495/495/495 517/517/517 496/496/496
f 496/496/496 517/517/517 518/518/518
f 496/496/496 518/518/518 497/497/497
f 497/497/497 518/518/518 519/519/519
f 497/497/497 519/519/519 498/498/498
f 498/498/498 519/519/519 520/520/520
f 498/498/498 520/520/520 499/499/499
f 499/499/499 520/520/520 521/521/521
f 499/499/499 521/521/521 500/500/500
f 500/500/500 521/521/521 522/522/522
f 500/500/500 522/522/522 501/501/501
f 501/501/501 522/522/522 523/523/523
f 501/501/501 523/523/523 502/502/502
f 502/502/502 523/523/523 524/524/524
f 502/502/502 524/524/524 503/503/503
f 503/503/503 524/524/524 525/525/525
f 503/503/503 525/525/525 504/504/504
