# procedural asset
v -0.05500 0.00000 -0.05500
v -0.05500 0.00000 0.05500
v -0.05500 1.10000 0.05500
v -0.05500 0.00000 -0.05500
v -0.05500 1.10000 0.05500
v -0.05500 1.10000 -0.05500
v 0.05500 0.00000 -0.05500
v 0.05500 1.10000 -0.05500
v 0.05500 1.10000 0.05500
v 0.05500 0.00000 -0.05500
v 0.05500 1.10000 0.05500
v 0.05500 0.00000 0.05500
v -0.05500 0.00000 -0.05500
v 0.05500 0.00000 -0.05500
v 0.05500 0.00000 0.05500
v -0.05500 0.00000 -0.05500
v 0.05500 0.00000 0.05500
v -0.05500 0.00000 0.05500
v -0.05500 1.10000 -0.05500
v -0.05500 1.10000 0.05500
v 0.05500 1.10000 0.05500
v -0.05500 1.10000 -0.05500
v 0.05500 1.10000 0.05500
v 0.05500 1.10000 -0.05500
v -0.05500 0.00000 -0.05500
v -0.05500 1.10000 -0.05500
v 0.05500 1.10000 -0.05500
v -0.05500 0.00000 -0.05500
v 0.05500 1.10000 -0.05500
v 0.05500 0.00000 -0.05500
v -0.05500 0.00000 0.05500
v 0.05500 0.00000 0.05500
v 0.05500 1.10000 0.05500
v -0.05500 0.00000 0.05500
v 0.05500 1.10000 0.05500
v -0.05500 1.10000 0.05500
v 1.94500 0.00000 -0.05500
v 1.94500 0.00000 0.05500
v 1.94500 1.10000 0.05500
v 1.94500 0.00000 -0.05500
v 1.94500 1.10000 0.05500
v 1.94500 1.10000 -0.05500
v 2.05500 0.00000 -0.05500
v 2.05500 1.10000 -0.05500
v 2.05500 1.10000 0.05500
v 2.05500 0.00000 -0.05500
v 2.05500 1.10000 0.05500
v 2.05500 0.00000 0.05500
v 1.94500 0.00000 -0.05500
v 2.05500 0.00000 -0.05500
v 2.05500 0.00000 0.05500
v 1.94500 0.00000 -0.05500
v 2.05500 0.00000 0.05500
v 1.94500 0.00000 0.05500
v 1.94500 1.10000 -0.05500
v 1.94500 1.10000 0.05500
v 2.05500 1.10000 0.05500
v 1.94500 1.10000 -0.05500
v 2.05500 1.10000 0.05500
v 2.05500 1.10000 -0.05500
v 1.94500 0.00000 -0.05500
v 1.94500 1.10000 -0.05500
v 2.05500 1.10000 -0.05500
v 1.94500 0.00000 -0.05500
v 2.05500 1.10000 -0.05500
v 2.05500 0.00000 -0.05500
v 1.94500 0.00000 0.05500
v 2.05500 0.00000 0.05500
v 2.05500 1.10000 0.05500
v 1.94500 0.00000 0.05500
v 2.05500 1.10000 0.05500
v 1.94500 1.10000 0.05500
v 3.94500 0.00000 -0.05500
v 3.94500 0.00000 0.05500
v 3.94500 1.10000 0.05500
v 3.94500 0.00000 -0.05500
v 3.94500 1.10000 0.05500
v 3.94500 1.10000 -0.05500
v 4.05500 0.00000 -0.05500
v 4.05500 1.10000 -0.05500
v 4.05500 1.10000 0.05500
v 4.05500 0.00000 -0.05500
v 4.05500 1.10000 0.05500
v 4.05500 0.00000 0.05500
v 3.94500 0.00000 -0.05500
v 4.05500 0.00000 -0.05500
v 4.05500 0.00000 0.05500
v 3.94500 0.00000 -0.05500
v 4.05500 0.00000 0.05500
v 3.94500 0.00000 0.05500
v 3.94500 1.10000 -0.05500
v 3.94500 1.10000 0.05500
v 4.05500 1.10000 0.05500
v 3.94500 1.10000 -0.05500
v 4.05500 1.10000 0.05500
v 4.05500 1.10000 -0.05500
v 3.94500 0.00000 -0.05500
v 3.94500 1.10000 -0.05500
v 4.05500 1.10000 -0.05500
v 3.94500 0.00000 -0.05500
v 4.05500 1.10000 -0.05500
v 4.05500 0.00000 -0.05500
v 3.94500 0.00000 0.05500
v 4.05500 0.00000 0.05500
v 4.05500 1.10000 0.05500
v 3.94500 0.00000 0.05500
v 4.05500 1.10000 0.05500
v 3.94500 1.10000 0.05500
v 0.00000 0.88000 0.05000
v 0.50000 0.88000 0.05000
v 1.00000 0.88000 0.05000
v 1.50000 0.88000 0.05000
v 2.00000 0.88000 0.05000
v 2.50000 0.88000 0.05000
v 3.00000 0.88000 0.05000
v 3.50000 0.88000 0.05000
v 4.00000 0.88000 0.05000
v 0.00000 0.90939 0.04045
v 0.50000 0.90939 0.04045
v 1.00000 0.90939 0.04045
v 1.50000 0.90939 0.04045
v 2.00000 0.90939 0.04045
v 2.50000 0.90939 0.04045
v 3.00000 0.90939 0.04045
v 3.50000 0.90939 0.04045
v 4.00000 0.90939 0.04045
v 0.00000 0.92755 0.01545
v 0.50000 0.92755 0.01545
v 1.00000 0.92755 0.01545
v 1.50000 0.92755 0.01545
v 2.00000 0.92755 0.01545
v 2.50000 0.92755 0.01545
v 3.00000 0.92755 0.01545
v 3.50000 0.92755 0.01545
v 4.00000 0.92755 0.01545
v 0.00000 0.92755 -0.01545
v 0.50000 0.92755 -0.01545
v 1.00000 0.92755 -0.01545
v 1.50000 0.92755 -0.01545
v 2.00000 0.92755 -0.01545
v 2.50000 0.92755 -0.01545
v 3.00000 0.92755 -0.01545
v 3.50000 0.92755 -0.01545
v 4.00000 0.92755 -0.01545
v 0.00000 0.90939 -0.04045
v 0.50000 0.90939 -0.04045
v 1.00000 0.90939 -0.04045
v 1.50000 0.90939 -0.04045
v 2.00000 0.90939 -0.04045
v 2.50000 0.90939 -0.04045
v 3.00000 0.90939 -0.04045
v 3.50000 0.90939 -0.04045
v 4.00000 0.90939 -0.04045
v 0.00000 0.88000 -0.05000
v 0.50000 0.88000 -0.05000
v 1.00000 0.88000 -0.05000
v 1.50000 0.88000 -0.05000
v 2.00000 0.88000 -0.05000
v 2.50000 0.88000 -0.05000
v 3.00000 0.88000 -0.05000
v 3.50000 0.88000 -0.05000
v 4.00000 0.88000 -0.05000
v 0.00000 0.85061 -0.04045
v 0.50000 0.85061 -0.04045
v 1.00000 0.85061 -0.04045
v 1.50000 0.85061 -0.04045
v 2.00000 0.85061 -0.04045
v 2.50000 0.85061 -0.04045
v 3.00000 0.85061 -0.04045
v 3.50000 0.85061 -0.04045
v 4.00000 0.85061 -0.04045
v 0.00000 0.83245 -0.01545
v 0.50000 0.83245 -0.01545
v 1.00000 0.83245 -0.01545
v 1.50000 0.83245 -0.01545
v 2.00000 0.83245 -0.01545
v 2.50000 0.83245 -0.01545
v 3.00000 0.83245 -0.01545
v 3.50000 0.83245 -0.01545
v 4.00000 0.83245 -0.01545
v 0.00000 0.83245 0.01545
v 0.50000 0.83245 0.01545
v 1.00000 0.83245 0.01545
v 1.50000 0.83245 0.01545
v 2.00000 0.83245 0.01545
v 2.50000 0.83245 0.01545
v 3.00000 0.83245 0.01545
v 3.50000 0.83245 0.01545
v 4.00000 0.83245 0.01545
v 0.00000 0.85061 0.04045
v 0.50000 0.85061 0.04045
v 1.00000 0.85061 0.04045
v 1.50000 0.85061 0.04045
v 2.00000 0.85061 0.04045
v 2.50000 0.85061 0.04045
v 3.00000 0.85061 0.04045
v 3.50000 0.85061 0.04045
v 4.00000 0.85061 0.04045
v 0.00000 0.88000 0.05000
v 0.50000 0.88000 0.05000
v 1.00000 0.88000 0.05000
v 1.50000 0.88000 0.05000
v 2.00000 0.88000 0.05000
v 2.50000 0.88000 0.05000
v 3.00000 0.88000 0.05000
v 3.50000 0.88000 0.05000
v 4.00000 0.88000 0.05000
v 0.00000 0.42000 0.04500
v 0.50000 0.42000 0.04500
v 1.00000 0.42000 0.04500
v 1.50000 0.42000 0.04500
v 2.00000 0.42000 0.04500
v 2.50000 0.42000 0.04500
v 3.00000 0.42000 0.04500
v 3.50000 0.42000 0.04500
v 4.00000 0.42000 0.04500
v 0.00000 0.44645 0.03641
v 0.50000 0.44645 0.03641
v 1.00000 0.44645 0.03641
v 1.50000 0.44645 0.03641
v 2.00000 0.44645 0.03641
v 2.50000 0.44645 0.03641
v 3.00000 0.44645 0.03641
v 3.50000 0.44645 0.03641
v 4.00000 0.44645 0.03641
v 0.00000 0.46280 0.01391
v 0.50000 0.46280 0.01391
v 1.00000 0.46280 0.01391
v 1.50000 0.46280 0.01391
v 2.00000 0.46280 0.01391
v 2.50000 0.46280 0.01391
v 3.00000 0.46280 0.01391
v 3.50000 0.46280 0.01391
v 4.00000 0.46280 0.01391
v 0.00000 0.46280 -0.01391
v 0.50000 0.46280 -0.01391
v 1.00000 0.46280 -0.01391
v 1.50000 0.46280 -0.01391
v 2.00000 0.46280 -0.01391
v 2.50000 0.46280 -0.01391
v 3.00000 0.46280 -0.01391
v 3.50000 0.46280 -0.01391
v 4.00000 0.46280 -0.01391
v 0.00000 0.44645 -0.03641
v 0.50000 0.44645 -0.03641
v 1.00000 0.44645 -0.03641
v 1.50000 0.44645 -0.03641
v 2.00000 0.44645 -0.03641
v 2.50000 0.44645 -0.03641
v 3.00000 0.44645 -0.03641
v 3.50000 0.44645 -0.03641
v 4.00000 0.44645 -0.03641
v 0.00000 0.42000 -0.04500
v 0.50000 0.42000 -0.04500
v 1.00000 0.42000 -0.04500
v 1.50000 0.42000 -0.04500
v 2.00000 0.42000 -0.04500
v 2.50000 0.42000 -0.04500
v 3.00000 0.42000 -0.04500
v 3.50000 0.42000 -0.04500
v 4.00000 0.42000 -0.04500
v 0.00000 0.39355 -0.03641
v 0.50000 0.39355 -0.03641
v 1.00000 0.39355 -0.03641
v 1.50000 0.39355 -0.03641
v 2.00000 0.39355 -0.03641
v 2.50000 0.39355 -0.03641
v 3.00000 0.39355 -0.03641
v 3.50000 0.39355 -0.03641
v 4.00000 0.39355 -0.03641
v 0.00000 0.37720 -0.01391
v 0.50000 0.37720 -0.01391
v 1.00000 0.37720 -0.01391
v 1.50000 0.37720 -0.01391
v 2.00000 0.37720 -0.01391
v 2.50000 0.37720 -0.01391
v 3.00000 0.37720 -0.01391
v 3.50000 0.37720 -0.01391
v 4.00000 0.37720 -0.01391
v 0.00000 0.37720 0.01391
v 0.50000 0.37720 0.01391
v 1.00000 0.37720 0.01391
v 1.50000 0.37720 0.01391
v 2.00000 0.37720 0.01391
v 2.50000 0.37720 0.01391
v 3.00000 0.37720 0.01391
v 3.50000 0.37720 0.01391
v 4.00000 0.37720 0.01391
v 0.00000 0.39355 0.03641
v 0.50000 0.39355 0.03641
v 1.00000 0.39355 0.03641
v 1.50000 0.39355 0.03641
v 2.00000 0.39355 0.03641
v 2.50000 0.39355 0.03641
v 3.00000 0.39355 0.03641
v 3.50000 0.39355 0.03641
v 4.00000 0.39355 0.03641
v 0.00000 0.42000 0.04500
v 0.50000 0.42000 0.04500
v 1.00000 0.42000 0.04500
v 1.50000 0.42000 0.04500
v 2.00000 0.42000 0.04500
v 2.50000 0.42000 0.04500
v 3.00000 0.42000 0.04500
v 3.50000 0.42000 0.04500
v 4.00000 0.42000 0.04500
vt 0.00000 0.00000
vt 0.00000 0.00000
vt 0.00000 0.00000
vt 0.00000 0.00000
vt 0.00000 0.00000
vt 0.00000 0.00000
vt 0.00000 0.00000
vt 0.00000 0.00000
vt 0.00000 0.00000
vt 0.00000 0.00000
vt 0.00000 0.00000
vt 0.00000 0.00000
vt 0.00000 0.00000
vt 0.00000 0.00000
vt 0.00000 0.00000
vt 0.00000 0.00000
vt 0.00000 0.00000
vt 0.00000 0.00000
vt 0.00000 0.00000
vt 0.00000 0.00000
vt 0.00000 0.00000
vt 0.00000 0.00000
vt 0.00000 0.00000
vt 0.00000 0.00000
vt 0.00000 0.00000
vt 0.00000 0.00000
vt 0.00000 0.00000
vt 0.00000 0.00000
vt 0.00000 0.00000
vt 0.00000 0.00000
vt 0.00000 0.00000
vt 0.00000 0.00000
vt 0.00000 0.00000
vt 0.00000 0.00000
vt 0.00000 0.00000
vt 0.00000 0.00000
vt 0.00000 0.00000
vt 0.00000 0.00000
vt 0.00000 0.00000
vt 0.00000 0.00000
vt 0.00000 0.00000
vt 0.00000 0.00000
vt 0.00000 0.00000
vt 0.00000 0.00000
vt 0.00000 0.00000
vt 0.00000 0.00000
vt 0.00000 0.00000
vt 0.00000 0.00000
vt 0.00000 0.00000
vt 0.00000 0.00000
vt 0.00000 0.00000
vt 0.00000 0.00000
vt 0.00000 0.00000
vt 0.00000 0.00000
vt 0.00000 0.00000
vt 0.00000 0.00000
vt 0.00000 0.00000
vt 0.00000 0.00000
vt 0.00000 0.00000
vt 0.00000 0.00000
vt 0.00000 0.00000
vt 0.00000 0.00000
vt 0.00000 0.00000
vt 0.00000 0.00000
vt 0.00000 0.00000
vt 0.00000 0.00000
vt 0.00000 0.00000
vt 0.00000 0.00000
vt 0.00000 0.00000
vt 0.00000 0.00000
vt 0.00000 0.00000
vt 0.00000 0.00000
vt 0.00000 0.00000
vt 0.00000 0.00000
vt 0.00000 0.00000
vt 0.00000 0.00000
vt 0.00000 0.00000
vt 0.00000 0.00000
vt 0.00000 0.00000
vt 0.00000 0.00000
vt 0.00000 0.00000
vt 0.00000 0.00000
vt 0.00000 0.00000
vt 0.00000 0.00000
vt 0.00000 0.00000
vt 0.00000 0.00000
vt 0.00000 0.00000
vt 0.00000 0.00000
vt 0.00000 0.00000
vt 0.00000 0.00000
vt 0.00000 0.00000
vt 0.00000 0.00000
vt 0.00000 0.00000
vt 0.00000 0.00000
vt 0.00000 0.00000
vt 0.00000 0.00000
vt 0.00000 0.00000
vt 0.00000 0.00000
vt 0.00000 0.00000
vt 0.00000 0.00000
vt 0.00000 0.00000
vt 0.00000 0.00000
vt 0.00000 0.00000
vt 0.00000 0.00000
vt 0.00000 0.00000
vt 0.00000 0.00000
vt 0.00000 0.00000
vt 0.00000 0.00000
vt 0.00000 0.00000
vt 0.00000 0.12500
vt 0.00000 0.25000
vt 0.00000 0.37500
vt 0.00000 0.50000
vt 0.00000 0.62500
vt 0.00000 0.75000
vt 0.00000 0.87500
vt 0.00000 1.00000
vt 0.10000 0.00000
vt 0.10000 0.12500
vt 0.10000 0.25000
vt 0.10000 0.37500
vt 0.10000 0.50000
vt 0.10000 0.62500
vt 0.10000 0.75000
vt 0.10000 0.87500
vt 0.10000 1.00000
vt 0.20000 0.00000
vt 0.20000 0.12500
vt 0.20000 0.25000
vt 0.20000 0.37500
vt 0.20000 0.50000
vt 0.20000 0.62500
vt 0.20000 0.75000
vt 0.20000 0.87500
vt 0.20000 1.00000
vt 0.30000 0.00000
vt 0.30000 0.12500
vt 0.30000 0.25000
vt 0.30000 0.37500
vt 0.30000 0.50000
vt 0.30000 0.62500
vt 0.30000 0.75000
vt 0.30000 0.87500
vt 0.30000 1.00000
vt 0.40000 0.00000
vt 0.40000 0.12500
vt 0.40000 0.25000
vt 0.40000 0.37500
vt 0.40000 0.50000
vt 0.40000 0.62500
vt 0.40000 0.75000
vt 0.40000 0.87500
vt 0.40000 1.00000
vt 0.50000 0.00000
vt 0.50000 0.12500
vt 0.50000 0.25000
vt 0.50000 0.37500
vt 0.50000 0.50000
vt 0.50000 0.62500
vt 0.50000 0.75000
vt 0.50000 0.87500
vt 0.50000 1.00000
vt 0.60000 0.00000
vt 0.60000 0.12500
vt 0.60000 0.25000
vt 0.60000 0.37500
vt 0.60000 0.50000
vt 0.60000 0.62500
vt 0.60000 0.75000
vt 0.60000 0.87500
vt 0.60000 1.00000
vt 0.70000 0.00000
vt 0.70000 0.12500
vt 0.70000 0.25000
vt 0.70000 0.37500
vt 0.70000 0.50000
vt 0.70000 0.62500
vt 0.70000 0.75000
vt 0.70000 0.87500
vt 0.70000 1.00000
vt 0.80000 0.00000
vt 0.80000 0.12500
vt 0.80000 0.25000
vt 0.80000 0.37500
vt 0.80000 0.50000
vt 0.80000 0.62500
vt 0.80000 0.75000
vt 0.80000 0.87500
vt 0.80000 1.00000
vt 0.90000 0.00000
vt 0.90000 0.12500
vt 0.90000 0.25000
vt 0.90000 0.37500
vt 0.90000 0.50000
vt 0.90000 0.62500
vt 0.90000 0.75000
vt 0.90000 0.87500
vt 0.90000 1.00000
vt 1.00000 0.00000
vt 1.00000 0.12500
vt 1.00000 0.25000
vt 1.00000 0.37500
vt 1.00000 0.50000
vt 1.00000 0.62500
vt 1.00000 0.75000
vt 1.00000 0.87500
vt 1.00000 1.00000
vt 0.00000 0.00000
vt 0.00000 0.12500
vt 0.00000 0.25000
vt 0.00000 0.37500
vt 0.00000 0.50000
vt 0.00000 0.62500
vt 0.00000 0.75000
vt 0.00000 0.87500
vt 0.00000 1.00000
vt 0.10000 0.00000
vt 0.10000 0.12500
vt 0.10000 0.25000
vt 0.10000 0.37500
vt 0.10000 0.50000
vt 0.10000 0.62500
vt 0.10000 0.75000
vt 0.10000 0.87500
vt 0.10000 1.00000
vt 0.20000 0.00000
vt 0.20000 0.12500
vt 0.20000 0.25000
vt 0.20000 0.37500
vt 0.20000 0.50000
vt 0.20000 0.62500
vt 0.20000 0.75000
vt 0.20000 0.87500
vt 0.20000 1.00000
vt 0.30000 0.00000
vt 0.30000 0.12500
vt 0.30000 0.25000
vt 0.30000 0.37500
vt 0.30000 0.50000
vt 0.30000 0.62500
vt 0.30000 0.75000
vt 0.30000 0.87500
vt 0.30000 1.00000
vt 0.40000 0.00000
vt 0.40000 0.12500
vt 0.40000 0.25000
vt 0.40000 0.37500
vt 0.40000 0.50000
vt 0.40000 0.62500
vt 0.40000 0.75000
vt 0.40000 0.87500
vt 0.40000 1.00000
vt 0.50000 0.00000
vt 0.50000 0.12500
vt 0.50000 0.25000
vt 0.50000 0.37500
vt 0.50000 0.50000
vt 0.50000 0.62500
vt 0.50000 0.75000
vt 0.50000 0.87500
vt 0.50000 1.00000
vt 0.60000 0.00000
vt 0.60000 0.12500
vt 0.60000 0.25000
vt 0.60000 0.37500
vt 0.60000 0.50000
vt 0.60000 0.62500
vt 0.60000 0.75000
vt 0.60000 0.87500
vt 0.60000 1.00000
vt 0.70000 0.00000
vt 0.70000 0.12500
vt 0.70000 0.25000
vt 0.70000 0.37500
vt 0.70000 0.50000
vt 0.70000 0.62500
vt 0.70000 0.75000
vt 0.70000 0.87500
vt 0.70000 1.00000
vt 0.80000 0.00000
vt 0.80000 0.12500
vt 0.80000 0.25000
vt 0.80000 0.37500
vt 0.80000 0.50000
vt 0.80000 0.62500
vt 0.80000 0.75000
vt 0.80000 0.87500
vt 0.80000 1.00000
vt 0.90000 0.00000
vt 0.90000 0.12500
vt 0.90000 0.25000
vt 0.90000 0.37500
vt 0.90000 0.50000
vt 0.90000 0.62500
vt 0.90000 0.75000
vt 0.90000 0.87500
vt 0.90000 1.00000
vt 1.00000 0.00000
vt 1.00000 0.12500
vt 1.00000 0.25000
vt 1.00000 0.37500
vt 1.00000 0.50000
vt 1.00000 0.62500
vt 1.00000 0.75000
vt 1.00000 0.87500
vt 1.00000 1.00000
vn -1.00000 0.00000 0.00000
vn -1.00000 0.00000 0.00000
vn -1.00000 0.00000 0.00000
vn -1.00000 0.00000 0.00000
vn -1.00000 0.00000 0.00000
vn -1.00000 0.00000 0.00000
vn 1.00000 0.00000 0.00000
vn 1.00000 0.00000 0.00000
vn 1.00000 0.00000 0.00000
vn 1.00000 0.00000 0.00000
vn 1.00000 0.00000 0.00000
vn 1.00000 0.00000 0.00000
vn 0.00000 -1.00000 0.00000
vn 0.00000 -1.00000 0.00000
vn 0.00000 -1.00000 0.00000
vn 0.00000 -1.00000 0.00000
vn 0.00000 -1.00000 0.00000
vn 0.00000 -1.00000 0.00000
vn 0.00000 1.00000 0.00000
vn 0.00000 1.00000 0.00000
vn 0.00000 1.00000 0.00000
vn 0.00000 1.00000 0.00000
vn 0.00000 1.00000 0.00000
vn 0.00000 1.00000 0.00000
vn 0.00000 0.00000 -1.00000
vn 0.00000 0.00000 -1.00000
vn 0.00000 0.00000 -1.00000
vn 0.00000 0.00000 -1.00000
vn 0.00000 0.00000 -1.00000
vn 0.00000 0.00000 -1.00000
vn 0.00000 0.00000 1.00000
vn 0.00000 0.00000 1.00000
vn 0.00000 0.00000 1.00000
vn 0.00000 0.00000 1.00000
vn 0.00000 0.00000 1.00000
vn 0.00000 0.00000 1.00000
vn -1.00000 0.00000 0.00000
vn -1.00000 0.00000 0.00000
vn -1.00000 0.00000 0.00000
vn -1.00000 0.00000 0.00000
vn -1.00000 0.00000 0.00000
vn -1.00000 0.00000 0.00000
vn 1.00000 0.00000 0.00000
vn 1.00000 0.00000 0.00000
vn 1.00000 0.00000 0.00000
vn 1.00000 0.00000 0.00000
vn 1.00000 0.00000 0.00000
vn 1.00000 0.00000 0.00000
vn 0.00000 -1.00000 0.00000
vn 0.00000 -1.00000 0.00000
vn 0.00000 -1.00000 0.00000
vn 0.00000 -1.00000 0.00000
vn 0.00000 -1.00000 0.00000
vn 0.00000 -1.00000 0.00000
vn 0.00000 1.00000 0.00000
vn 0.00000 1.00000 0.00000
vn 0.00000 1.00000 0.00000
vn 0.00000 1.00000 0.00000
vn 0.00000 1.00000 0.00000
vn 0.00000 1.00000 0.00000
vn 0.00000 0.00000 -1.00000
vn 0.00000 0.00000 -1.00000
vn 0.00000 0.00000 -1.00000
vn 0.00000 0.00000 -1.00000
vn 0.00000 0.00000 -1.00000
vn 0.00000 0.00000 -1.00000
vn 0.00000 0.00000 1.00000
vn 0.00000 0.00000 1.00000
vn 0.00000 0.00000 1.00000
vn 0.00000 0.00000 1.00000
vn 0.00000 0.00000 1.00000
vn 0.00000 0.00000 1.00000
vn -1.00000 0.00000 0.00000
vn -1.00000 0.00000 0.00000
vn -1.00000 0.00000 0.00000
vn -1.00000 0.00000 0.00000
vn -1.00000 0.00000 0.00000
vn -1.00000 0.00000 0.00000
vn 1.00000 0.00000 0.00000
vn 1.00000 0.00000 0.00000
vn 1.00000 0.00000 0.00000
vn 1.00000 0.00000 0.00000
vn 1.00000 0.00000 0.00000
vn 1.00000 0.00000 0.00000
vn 0.00000 -1.00000 0.00000
vn 0.00000 -1.00000 0.00000
vn 0.00000 -1.00000 0.00000
vn 0.00000 -1.00000 0.00000
vn 0.00000 -1.00000 0.00000
vn 0.00000 -1.00000 0.00000
vn 0.00000 1.00000 0.00000
vn 0.00000 1.00000 0.00000
vn 0.00000 1.00000 0.00000
vn 0.00000 1.00000 0.00000
vn 0.00000 1.00000 0.00000
vn 0.00000 1.00000 0.00000
vn 0.00000 0.00000 -1.00000
vn 0.00000 0.00000 -1.00000
vn 0.00000 0.00000 -1.00000
vn 0.00000 0.00000 -1.00000
vn 0.00000 0.00000 -1.00000
vn 0.00000 0.00000 -1.00000
vn 0.00000 0.00000 1.00000
vn 0.00000 0.00000 1.00000
vn 0.00000 0.00000 1.00000
vn 0.00000 0.00000 1.00000
vn 0.00000 0.00000 1.00000
vn 0.00000 0.00000 1.00000
vn 0.00000 -0.00314 -1.00000
vn 0.00000 -0.00314 -1.00000
vn 0.00000 -0.00314 -1.00000
vn 0.00000 -0.00314 -1.00000
vn 0.00000 -0.00314 -1.00000
vn 0.00000 -0.00314 -1.00000
vn 0.00000 -0.00314 -1.00000
vn 0.00000 -0.00314 -1.00000
vn 0.00000 -0.00314 -1.00000
vn 0.00000 -0.58779 -0.80902
vn 0.00000 -0.58779 -0.80902
vn 0.00000 -0.58779 -0.80902
vn 0.00000 -0.58779 -0.80902
vn 0.00000 -0.58779 -0.80902
vn 0.00000 -0.58779 -0.80902
vn 0.00000 -0.58779 -0.80902
vn 0.00000 -0.58779 -0.80902
vn 0.00000 -0.58779 -0.80902
vn 0.00000 -0.95106 -0.30902
vn 0.00000 -0.95106 -0.30902
vn 0.00000 -0.95106 -0.30902
vn 0.00000 -0.95106 -0.30902
vn 0.00000 -0.95106 -0.30902
vn 0.00000 -0.95106 -0.30902
vn 0.00000 -0.95106 -0.30902
vn 0.00000 -0.95106 -0.30902
vn 0.00000 -0.95106 -0.30902
vn 0.00000 -0.95106 0.30902
vn 0.00000 -0.95106 0.30902
vn 0.00000 -0.95106 0.30902
vn 0.00000 -0.95106 0.30902
vn 0.00000 -0.95106 0.30902
vn 0.00000 -0.95106 0.30902
vn 0.00000 -0.95106 0.30902
vn 0.00000 -0.95106 0.30902
vn 0.00000 -0.95106 0.30902
vn 0.00000 -0.58779 0.80902
vn 0.00000 -0.58779 0.80902
vn 0.00000 -0.58779 0.80902
vn 0.00000 -0.58779 0.80902
vn 0.00000 -0.58779 0.80902
vn 0.00000 -0.58779 0.80902
vn 0.00000 -0.58779 0.80902
vn 0.00000 -0.58779 0.80902
vn 0.00000 -0.58779 0.80902
vn -0.00000 0.00000 1.00000
vn -0.00000 0.00000 1.00000
vn -0.00000 0.00000 1.00000
vn -0.00000 0.00000 1.00000
vn -0.00000 0.00000 1.00000
vn -0.00000 0.00000 1.00000
vn -0.00000 0.00000 1.00000
vn -0.00000 0.00000 1.00000
vn -0.00000 0.00000 1.00000
vn -0.00000 0.58779 0.80902
vn -0.00000 0.58779 0.80902
vn -0.00000 0.58779 0.80902
vn -0.00000 0.58779 0.80902
vn -0.00000 0.58779 0.80902
vn -0.00000 0.58779 0.80902
vn -0.00000 0.58779 0.80902
vn -0.00000 0.58779 0.80902
vn -0.00000 0.58779 0.80902
vn -0.00000 0.95106 0.30902
vn -0.00000 0.95106 0.30902
vn -0.00000 0.95106 0.30902
vn -0.00000 0.95106 0.30902
vn -0.00000 0.95106 0.30902
vn -0.00000 0.95106 0.30902
vn -0.00000 0.95106 0.30902
vn -0.00000 0.95106 0.30902
vn -0.00000 0.95106 0.30902
vn 0.00000 0.95106 -0.30902
vn 0.00000 0.95106 -0.30902
vn 0.00000 0.95106 -0.30902
vn 0.00000 0.95106 -0.30902
vn 0.00000 0.95106 -0.30902
vn 0.00000 0.95106 -0.30902
vn 0.00000 0.95106 -0.30902
vn 0.00000 0.95106 -0.30902
vn 0.00000 0.95106 -0.30902
vn 0.00000 0.58779 -0.80902
vn 0.00000 0.58779 -0.80902
vn 0.00000 0.58779 -0.80902
vn 0.00000 0.58779 -0.80902
vn 0.00000 0.58779 -0.80902
vn 0.00000 0.58779 -0.80902
vn 0.00000 0.58779 -0.80902
vn 0.00000 0.58779 -0.80902
vn 0.00000 0.58779 -0.80902
vn 0.00000 0.00314 -1.00000
vn 0.00000 0.00314 -1.00000
vn 0.00000 0.00314 -1.00000
vn 0.00000 0.00314 -1.00000
vn 0.00000 0.00314 -1.00000
vn 0.00000 0.00314 -1.00000
vn 0.00000 0.00314 -1.00000
vn 0.00000 0.00314 -1.00000
vn 0.00000 0.00314 -1.00000
vn 0.00000 -0.00314 -1.00000
vn 0.00000 -0.00314 -1.00000
vn 0.00000 -0.00314 -1.00000
vn 0.00000 -0.00314 -1.00000
vn 0.00000 -0.00314 -1.00000
vn 0.00000 -0.00314 -1.00000
vn 0.00000 -0.00314 -1.00000
vn 0.00000 -0.00314 -1.00000
vn 0.00000 -0.00314 -1.00000
vn 0.00000 -0.58779 -0.80902
vn 0.00000 -0.58779 -0.80902
vn 0.00000 -0.58779 -0.80902
vn 0.00000 -0.58779 -0.80902
vn 0.00000 -0.58779 -0.80902
vn 0.00000 -0.58779 -0.80902
vn 0.00000 -0.58779 -0.80902
vn 0.00000 -0.58779 -0.80902
vn 0.00000 -0.58779 -0.80902
vn 0.00000 -0.95106 -0.30902
vn 0.00000 -0.95106 -0.30902
vn 0.00000 -0.95106 -0.30902
vn 0.00000 -0.95106 -0.30902
vn 0.00000 -0.95106 -0.30902
vn 0.00000 -0.95106 -0.30902
vn 0.00000 -0.95106 -0.30902
vn 0.00000 -0.95106 -0.30902
vn 0.00000 -0.95106 -0.30902
vn 0.00000 -0.95106 0.30902
vn 0.00000 -0.95106 0.30902
vn 0.00000 -0.95106 0.30902
vn 0.00000 -0.95106 0.30902
vn 0.00000 -0.95106 0.30902
vn 0.00000 -0.95106 0.30902
vn 0.00000 -0.95106 0.30902
vn 0.00000 -0.95106 0.30902
vn 0.00000 -0.95106 0.30902
vn 0.00000 -0.58779 0.80902
vn 0.00000 -0.58779 0.80902
vn 0.00000 -0.58779 0.80902
vn 0.00000 -0.58779 0.80902
vn 0.00000 -0.58779 0.80902
vn 0.00000 -0.58779 0.80902
vn 0.00000 -0.58779 0.80902
vn 0.00000 -0.58779 0.80902
vn 0.00000 -0.58779 0.80902
vn -0.00000 0.00000 1.00000
vn -0.00000 0.00000 1.00000
vn -0.00000 0.00000 1.00000
vn -0.00000 0.00000 1.00000
vn -0.00000 0.00000 1.00000
vn -0.00000 0.00000 1.00000
vn -0.00000 0.00000 1.00000
vn -0.00000 0.00000 1.00000
vn -0.00000 0.00000 1.00000
vn -0.00000 0.58779 0.80902
vn -0.00000 0.58779 0.80902
vn -0.00000 0.58779 0.80902
vn -0.00000 0.58779 0.80902
vn -0.00000 0.58779 0.80902
vn -0.00000 0.58779 0.80902
vn -0.00000 0.58779 0.80902
vn -0.00000 0.58779 0.80902
vn -0.00000 0.58779 0.80902
vn -0.00000 0.95106 0.30902
vn -0.00000 0.95106 0.30902
vn -0.00000 0.95106 0.30902
vn -0.00000 0.95106 0.30902
vn -0.00000 0.95106 0.30902
vn -0.00000 0.95106 0.30902
vn -0.00000 0.95106 0.30902
vn -0.00000 0.95106 0.30902
vn -0.00000 0.95106 0.30902
vn 0.00000 0.95106 -0.30902
vn 0.00000 0.95106 -0.30902
vn 0.00000 0.95106 -0.30902
vn 0.00000 0.95106 -0.30902
vn 0.00000 0.95106 -0.30902
vn 0.00000 0.95106 -0.30902
vn 0.00000 0.95106 -0.30902
vn 0.00000 0.95106 -0.30902
vn 0.00000 0.95106 -0.30902
vn 0.00000 0.58779 -0.80902
vn 0.00000 0.58779 -0.80902
vn 0.00000 0.58779 -0.80902
vn 0.00000 0.58779 -0.80902
vn 0.00000 0.58779 -0.80902
vn 0.00000 0.58779 -0.80902
vn 0.00000 0.58779 -0.80902
vn 0.00000 0.58779 -0.80902
vn 0.00000 0.58779 -0.80902
vn 0.00000 0.00314 -1.00000
vn 0.00000 0.00314 -1.00000
vn 0.00000 0.00314 -1.00000
vn 0.00000 0.00314 -1.00000
vn 0.00000 0.00314 -1.00000
vn 0.00000 0.00314 -1.00000
vn 0.00000 0.00314 -1.00000
vn 0.00000 0.00314 -1.00000
vn 0.00000 0.00314 -1.00000
f 1/1/1 2/2/2 3/3/3
f 4/4/4 5/5/5 6/6/6
f 7/7/7 8/8/8 9/9/9
f 10/10/10 11/11/11 12/12/12
f 13/13/13 14/14/14 15/15/15
f 16/16/16 17/17/17 18/18/18
f 19/19/19 20/20/20 21/21/21
f 22/22/22 23/23/23 24/24/24
f 25/25/25 26/26/26 27/27/27
f 28/28/28 29/29/29 30/30/30
f 31/31/31 32/32/32 33/33/33
f 34/34/34 35/35/35 36/36/36
f 37/37/37 38/38/38 39/39/39
f 40/40/40 41/41/41 42/42/42
f 43/43/43 44/44/44 45/45/45
f 46/46/46 47/47/47 48/48/48
f 49/49/49 50/50/50 51/51/51
f 52/52/52 53/53/53 54/54/54
f 55/55/55 56/56/56 57/57/57
f 58/58/58 59/59/59 60/60/60
f 61/61/61 62/62/62 63/63/63
f 64/64/64 65/65/65 66/66/66
f 67/67/67 68/68/68 69/69/69
f 70/70/70 71/71/71 72/72/72
f 73/73/73 74/74/74 75/75/75
f 76/76/76 77/77/77 78/78/78
f 79/79/79 80/80/80 81/81/81
f 82/82/82 83/83/83 84/84/84
f 85/85/85 86/86/86 87/87/87
f 88/88/88 89/89/89 90/90/90
f 91/91/91 92/92/92 93/93/93
f 94/94/94 95/95/95 96/96/96
f 97/97/97 98/98/98 99/99/99
f 100/100/100 101/101/101 102/102/102
f 103/103/103 104/104/104 105/105/105
f 106/106/106 107/107/107 108/108/108
f 109/109/109 118/118/118 119/119/119
f 109/109/109 119/119/119 110/110/110
f 110/110/110 119/119/119 120/120/120
f 110/110/110 120/120/120 111/111/111
f 111/111/111 120/120/120 121/121/121
f 111/111/111 121/121/121 112/112/112
f 112/112/112 121/121/121 122/122/122
f 112/112/112 122/122/122 113/113/113
f 113/113/113 122/122/122 123/123/123
f 113/113/113 123/123/123 114/114/114
f 114/114/114 123/123/123 124/124/124
f 114/114/114 124/124/124 115/115/115
f 115/115/115 124/124/124 125/125/125
f 115/115/115 125/125/125 116/116/116
f 116/116/116 125/125/125 126/126/126
f 116/116/116 126/126/126 117/117/117
f 118/118/118 127/127/127 128/128/128
f 118/118/118 128/128/128 119/119/119
f 119/119/119 128/128/128 129/129/129
f 119/119/119 129/129/129 120/120/120
f 120/120/120 129/129/129 130/130/130
f 120/120/120 130/130/130 121/121/121
f 121/121/121 130/130/130 131/131/131
f 121/121/121 131/131/131 122/122/122
f 122/122/122 131/131/131 132/132/132
f 122/122/122 132/132/132 123/123/123
f 123/123/123 132/132/132 133/133/133
f 123/123/123 133/133/133 124/124/124
f 124/124/124 133/133/133 134/134/134
f 124/124/124 134/134/134 125/125/125
f 125/125/125 134/134/134 135/135/135
f 125/125/125 135/135/135 126/126/126
f 127/127/127 136/136/136 137/137/137
f 127/127/127 137/137/137 128/128/128
f 128/128/128 137/137/137 138/138/138
f 128/128/128 138/138/138 129/129/129
f 129/129/129 138/138/138 139/139/139
f 129/129/129 139/139/139 130/130/130
f 130/130/130 139/139/139 140/140/140
f 130/130/130 140/140/140 131/131/131
f 131/131/131 140/140/140 141/141/141
f 131/131/131 141/141/141 132/132/132
f 132/132/132 141/141/141 142/142/142
f 132/132/132 142/142/142 133/133/133
f 133/133/133 142/142/142 143/143/143
f 133/133/133 143/143/143 134/134/134
f 134/134/134 143/143/143 144/144/144
f 134/134/134 144/144/144 135/135/135
f 136/136/136 145/145/145 146/146/146
f 136/136/136 146/146/146 137/137/137
f 137/137/137 146/146/146 147/147/147
f 137/137/137 147/147/147 138/138/138
f 138/138/138 147/147/147 148/148/148
f 138/138/138 148/148/148 139/139/139
f 139/139/139 148/148/148 149/149/149
f 139/139/139 149/149/149 140/140/140
f 140/140/140 149/149/149 150/150/150
f 140/140/140 150/150/150 141/141/141
f 141/141/141 150/150/150 151/151/151
f 141/141/141 151/151/151 142/142/142
f 142/142/142 151/151/151 152/152/152
f 142/142/142 152/152/152 143/143/143
f 143/143/143 152/152/152 153/153/153
f 143/143/143 153/153/153 144/144/144
f 145/145/145 154/154/154 155/155/155
f 145/145/145 155/155/155 146/146/146
f 146/146/146 155/155/155 156/156/156
f 146/146/146 156/156/156 147/147/147
f 147/147/147 156/156/156 157/157/157
f 147/147/147 157/157/157 148/148/148
f 148/148/148 157/157/157 158/158/158
f 148/148/148 158/158/158 149/149/149
f 149/149/149 158/158/158 159/159/159
f 149/149/149 159/159/159 150/150/150
f 150/150/150 159/159/159 160/160/160
f 150/150/150 160/160/160 151/151/151
f 151/151/151 160/160/160 161/161/161
f 151/151/151 161/161/161 152/152/152
f 152/152/152 161/161/161 162/162/162
f 152/152/152 162/162/162 153/153/153
f 154/154/154 163/163/163 164/164/164
f 154/154/154 164/164/164 155/155/155
f 155/155/155 164/164/164 165/165/165
f 155/155/155 165/165/165 156/156/156
f 156/156/156 165/165/165 166/166/166
f 156/156/156 166/166/166 157/157/157
f 157/157/157 166/166/166 167/167/167
f 157/157/157 167/167/167 158/158/158
f 158/158/158 167/167/167 168/168/168
f 158/158/158 168/168/168 159/159/159
f 159/159/159 168/168/168 169/169/169
f 159/159/159 169/169/169 160/160/160
f 160/160/160 169/169/169 170/170/170
f 160/160/160 170/170/170 161/161/161
f 161/161/161 170/170/170 171/171/171
f 161/161/161 171/171/171 162/162/162
f 163/163/163 172/172/172 173/173/173
f 163/163/163 173/173/173 164/164/164
f 164/164/164 173/173/173 174/174/174
f 164/164/164 174/174/174 165/165/165
f 165/165/165 174/174/174 175/175/175
f 165/165/165 175/175/175 166/166/166
f 166/166/166 175/175/175 176/176/176
f 166/166/166 176/176/176 167/167/167
f 167/167/167 176/176/176 177/177/177
f 167/167/167 177/177/177 168/168/168
f 168/168/168 177/177/177 178/178/178
f 168/168/168 178/178/178 169/169/169
f 169/169/169 178/178/178 179/179/179
f 169/169/169 179/179/179 170/170/170
f 170/170/170 179/179/179 180/180/180
f 170/170/170 180/180/180 171/171/171
f 172/172/172 181/181/181 182/182/182
f 172/172/172 182/182/182 173/173/173
f 173/173/173 182/182/182 183/183/183
f 173/173/173 183/183/183 174/174/174
f 174/174/174 183/183/183 184/184/184
f 174/174/174 184/184/184 175/175/175
f 175/175/175 184/184/184 185/185/185
f 175/175/175 185/185/185 176/176/176
f 176/176/176 185/185/185 186/186/186
f 176/176/176 186/186/186 177/177/177
f 177/177/177 186/186/186 187/187/187
f 177/177/177 187/187/187 178/178/178
f 178/178/178 187/187/187 188/188/188
f 178/178/178 188/188/188 179/179/179
f 179/179/179 188/188/188 189/189/189
f 179/179/179 189/189/189 180/180/180
f 181/181/181 190/190/190 191/191/191
f 181/181/181 191/191/191 182/182/182
f 182/182/182 191/191/191 192/192/192
f 182/182/182 192/192/192 183/183/183
f 183/183/183 192/192/192 193/193/193
f 183/183/183 193/193/193 184/184/184
f 184/184/184 193/193/193 194/194/194
f 184/184/184 194/194/194 185/185/185
f 185/185/185 194/194/194 195/195/195
f 185/185/185 195/195/195 186/186/186
f 186/186/186 195/195/195 196/196/196
f 186/186/186 196/196/196 187/187/187
f 187/187/187 196/196/196 197/197/197
f 187/187/187 197/197/197 188/188/188
f 188/188/188 197/197/197 198/198/198
f 188/188/188 198/198/198 189/189/189
f 190/190/190 199/199/199 200/200/200
f 190/190/190 200/200/200 191/191/191
f 191/191/191 200/200/200 201/201/201
f 191/191/191 201/201/201 192/192/192
f 192/192/192 201/201/201 202/202/202
f 192/192/192 202/202/202 193/193/193
f 193/193/193 202/202/202 203/203/203
f 193/193/193 203/203/203 194/194/194
f 194/194/194 203/203/203 204/204/204
f 194/194/194 204/204/204 195/195/195
f 195/195/195 204/204/204 205/205/205
f 195/195/195 205/205/205 196/196/196
f 196/196/196 205/205/205 206/206/206
f 196/196/196 206/206/206 197/197/197
f 197/197/197 206/206/206 207/207/207
f 197/197/197 207/207/207 198/198/198
f 208/208/208 217/217/217 218/218/218
f 208/208/208 218/218/218 209/209/209
f 209/209/209 218/218/218 219/219/219
f 209/209/209 219/219/219 210/210/210
f 210/210/210 219/219/219 220/220/220
f 210/210/210 220/220/220 211/211/211
f 211/211/211 220/220/220 221/221/221
f 211/211/211 221/221/221 212/212/212
f 212/212/212 221/221/221 222/222/222
f 212/212/212 222/222/222 213/213/213
f 213/213/213 222/222/222 223/223/223
f 213/213/213 223/223/223 214/214/214
f 214/214/214 223/223/223 224/224/224
f 214/214/214 224/224/224 215/215/215
f 215/215/215 224/224/224 225/225/225
f 215/215/215 225/225/225 216/216/216
f 217/217/217 226/226/226 227/227/227
f 217/217/217 227/227/227 218/218/218
f 218/218/218 227/227/227 228/228/228
f 218/218/218 228/228/228 219/219/219
f 219/219/219 228/228/228 229/229/229
f 219/219/219 229/229/229 220/220/220
f 220/220/220 229/229/229 230/230/230
f 220/220/220 230/230/230 221/221/221
f 221/221/221 230/230/230 231/231/231
f 221/221/221 231/231/231 222/222/222
f 222/222/222 231/231/231 232/232/232
f 222/222/222 232/232/232 223/223/223
f 223/223/223 232/232/232 233/233/233
f 223/223/223 233/233/233 224/224/224
f 224/224/224 233/233/233 234/234/234
f 224/224/224 234/234/234 225/225/225
f 226/226/226 235/235/235 236/236/236
f 226/226/226 236/236/236 227/227/227
f 227/227/227 236/236/236 237/237/237
f 227/227/227 237/237/237 228/228/228
f 228/228/228 237/237/237 238/238/238
f 228/228/228 238/238/238 229/229/229
f 229/229/229 238/238/238 239/239/239
f 229/229/229 239/239/239 230/230/230
f 230/230/230 239/239/239 240/240/240
f 230/230/230 240/240/240 231/231/231
f 231/231/231 240/240/240 241/241/241
f 231/231/231 241/241/241 232/232/232
f 232/232/232 241/241/241 242/242/242
f 232/232/232 242/242/242 233/233/233
f 233/233/233 242/242/242 243/243/243
f 233/233/233 243/243/243 234/234/234
f 235/235/235 244/244/244 245/245/245
f 235/235/235 245/245/245 236/236/236
f 236/236/236 245/245/245 246/246/246
f 236/236/236 246/246/246 237/237/237
f 237/237/237 246/246/246 247/247/247
f 237/237/237 247/247/247 238/238/238
f 238/238/238 247/247/247 248/248/248
f 238/238/238 248/248/248 239/239/239
f 239/239/239 248/248/248 249/249/249
f 239/239/239 249/249/249 240/240/240
f 240/240/240 249/249/249 250/250/250
f 240/240/240 250/250/250 241/241/241
f 241/241/241 250/250/250 251/251/251
f 241/241/241 251/251/251 242/242/242
f 242/242/242 251/251/251 252/252/252
f 242/242/242 252/252/252 243/243/243
f 244/244/244 253/253/253 254/254/254
f 244/244/244 254/254/254 245/245/245
f 245/245/245 254/254/254 255/255/255
f 245/245/245 255/255/255 246/246/246
f 246/246/246 255/255/255 256/256/256
f 246/246/246 256/256/256 247/247/247
f 247/247/247 256/256/256 257/257/257
f 247/247/247 257/257/257 248/248/248
f 248/248/248 257/257/257 258/258/258
f 248/248/248 258/258/258 249/249/249
f 249/249/249 258/258/258 259/259/259
f 249/249/249 259/259/259 250/250/250
f 250/250/250 259/259/259 260/260/260
f 250/250/250 260/260/260 251/251/251
f 251/251/251 260/260/260 261/261/261
f 251/251/251 261/261/261 252/252/252
f 253/253/253 262/262/262 263/263/263
f 253/253/253 263/263/263 254/254/254
f 254/254/254 263/263/263 264/264/264
f 254/254/254 264/264/264 255/255/255
f 255/255/255 264/264/264 265/265/265
f 255/255/255 265/265/265 256/256/256
f 256/256/256 265/265/265 266/266/266
f 256/256/256 266/266/266 257/257/257
f 257/257/257 266/266/266 267/267/267
f 257/257/257 267/267/267 258/258/258
f 258/258/258 267/267/267 268/268/268
f 258/258/258 268/268/268 259/259/259
f 259/259/259 268/268/268 269/269/269
f 259/259/259 269/269/269 260/260/260
f 260/260/260 269/269/269 270/270/270
f 260/260/260 270/270/270 261/261/261
f 262/262/262 271/271/271 272/272/272
f 262/262/262 272/272/272 263/263/263
f 263/263/263 272/272/272 273/273/273
f 263/263/263 273/273/273 264/264/264
f 264/264/264 273/273/273 274/274/274
f 264/264/264 274/274/274 265/265/265
f 265/265/265 274/274/274 275/275/275
f 265/265/265 275/275/275 266/266/266
f 266/266/266 275/275/275 276/276/276
f 266/266/266 276/276/276 267/267/267
f 267/267/267 276/276/276 277/277/277
f 267/267/267 277/277/277 268/268/268
f 268/268/268 277/277/277 278/278/278
f 268/268/268 278/278/278 269/269/269
f 269/269/269 278/278/278 279/279/279
f 269/269/269 279/279/279 270/270/270
f 271/271/271 280/280/280 281/281/281
f 271/271/271 281/281/281 272/272/272
f 272/272/272 281/281/281 282/282/282
f 272/272/272 282/282/282 273/273/273
f 273/273/273 282/282/282 283/283/283
f 273/273/273 283/283/283 274/274/274
f 274/274/274 283/283/283 284/284/284
f 274/274/274 284/284/284 275/275/275
f 275/275/275 284/284/284 285/285/285
f 275/275/275 285/285/285 276/276/276
f 276/276/276 285/285/285 286/286/286
f 276/276/276 286/286/286 277/277/277
f 277/277/277 286/286/286 287/287/287
f 277/277/277 287/287/287 278/278/278
f 278/278/278 287/287/287 288/288/288
f 278/278/278 288/288/288 279/279/279
f 280/280/280 289/289/289 290/290/290
f 280/280/280 290/290/290 281/281/281
f 281/281/281 290/290/290 291/291/291
f 281/281/281 291/291/291 282/282/282
f 282/282/282 291/291/291 292/292/292
f 282/282/282 292/292/292 283/283/283
f 283/283/283 292/292/292 293/293/293
f 283/283/283 293/293/293 284/284/284
f 284/284/284 293/293/293 294/294/294
f 284/284/284 294/294/294 285/285/285
f 285/285/285 294/294/294 295/295/295
f 285/285/285 295/295/295 286/286/286
f 286/286/286 295/295/295 296/296/296
f 286/286/286 296/296/296 287/287/287
f 287/287/287 296/296/296 297/297/297
f 287/287/287 297/297/297 288/288/288
f 289/289/289 298/298/298 299/299/299
f 289/289/289 299/299/299 290/290/290
f 290/290/290 299/299/299 300/300/300
f 290/290/290 300/300/300 291/291/291
f 291/291/291 300/300/300 301/301/301
f 291/291/291 301/301/301 292/292/292
f 292/292/292 301/301/301 302/302/302
f 292/292/292 302/302/302 293/293/293
f 293/293/293 302/302/302 303/303/303
f 293/293/293 303/303/303 294/294/294
f 294/294/294 303/303/303 304/304/304
f 294/294/294 304/304/304 295/295/295
f 295/295/295 304/304/304 305/305/305
f 295/295/295 305/305/305 296/296/296
f 296/296/296 305/305/305 306/306/306
f 296/296/296 306/306/306 297/297/297
