# procedural asset
v -0.02600 0.00000 0.06000
v -0.02336 0.04214 0.08410
v -0.02056 0.08095 0.10819
v -0.01754 0.11643 0.13229
v -0.01420 0.14858 0.15638
v -0.01028 0.17739 0.18048
v -0.00400 0.20286 0.20458
v -0.02103 0.00737 0.04661
v -0.01890 0.04917 0.07230
v -0.01664 0.08753 0.09805
v -0.01419 0.12242 0.12389
v -0.01148 0.15375 0.14984
v -0.00831 0.18140 0.17596
v -0.00324 0.20454 0.20292
v -0.00803 0.01192 0.03833
v -0.00722 0.05351 0.06500
v -0.00635 0.09160 0.09178
v -0.00542 0.12612 0.11870
v -0.00439 0.15695 0.14579
v -0.00318 0.18388 0.17317
v -0.00124 0.20557 0.20190
v 0.00803 0.01192 0.03833
v 0.00722 0.05351 0.06500
v 0.00635 0.09160 0.09178
v 0.00542 0.12612 0.11870
v 0.00439 0.15695 0.14579
v 0.00318 0.18388 0.17317
v 0.00124 0.20557 0.20190
v 0.02103 0.00737 0.04661
v 0.01890 0.04917 0.07230
v 0.01664 0.08753 0.09805
v 0.01419 0.12242 0.12389
v 0.01148 0.15375 0.14984
v 0.00831 0.18140 0.17596
v 0.00324 0.20454 0.20292
v 0.02600 0.00000 0.06000
v 0.02336 0.04214 0.08410
v 0.02056 0.08095 0.10819
v 0.01754 0.11643 0.13229
v 0.01420 0.14858 0.15638
v 0.01028 0.17739 0.18048
v 0.00400 0.20286 0.20458
v 0.02103 -0.00737 0.07339
v 0.01890 0.03512 0.09590
v 0.01664 0.07438 0.11833
v 0.01419 0.11045 0.14068
v 0.01148 0.14340 0.16293
v 0.00831 0.17338 0.18500
v 0.00324 0.20119 0.20623
v 0.00803 -0.01192 0.08167
v 0.00722 0.03078 0.10319
v 0.00635 0.07031 0.12460
v 0.00542 0.10675 0.14587
v 0.00439 0.14020 0.16697
v 0.00318 0.17090 0.18779
v 0.00124 0.20016 0.20725
v -0.00803 -0.01192 0.08167
v -0.00722 0.03078 0.10319
v -0.00635 0.07031 0.12460
v -0.00542 0.10675 0.14587
v -0.00439 0.14020 0.16697
v -0.00318 0.17090 0.18779
v -0.00124 0.20016 0.20725
v -0.02103 -0.00737 0.07339
v -0.01890 0.03512 0.09590
v -0.01664 0.07438 0.11833
v -0.01419 0.11045 0.14068
v -0.01148 0.14340 0.16293
v -0.00831 0.17338 0.18500
v -0.00324 0.20119 0.20623
v -0.02600 -0.00000 0.06000
v -0.02336 0.04214 0.08410
v -0.02056 0.08095 0.10819
v -0.01754 0.11643 0.13229
v -0.01420 0.14858 0.15638
v -0.01028 0.17739 0.18048
v -0.00400 0.20286 0.20458
v 0.03070 0.00000 0.05774
v 0.05621 0.05383 0.07471
v 0.08181 0.10432 0.09155
v 0.10756 0.15148 0.10821
v 0.13351 0.19531 0.12463
v 0.15982 0.23580 0.14059
v 0.18759 0.27296 0.15472
v 0.02333 0.00737 0.04551
v 0.04972 0.06076 0.06383
v 0.07625 0.11073 0.08209
v 0.10295 0.15723 0.10026
v 0.12992 0.20020 0.11829
v 0.15733 0.23953 0.13610
v 0.18667 0.27449 0.15301
v 0.02496 0.01192 0.03018
v 0.05128 0.06505 0.05013
v 0.07771 0.11469 0.07010
v 0.10429 0.16078 0.09010
v 0.13108 0.20323 0.11014
v 0.15824 0.24184 0.13025
v 0.18706 0.27544 0.15076
v 0.03498 0.01192 0.01762
v 0.06028 0.06505 0.03884
v 0.08563 0.11469 0.06016
v 0.11105 0.16078 0.08162
v 0.13655 0.20323 0.10328
v 0.16220 0.24184 0.12529
v 0.18860 0.27544 0.14882
v 0.04956 0.00737 0.01262
v 0.07329 0.06076 0.03427
v 0.09699 0.11073 0.05607
v 0.12065 0.15723 0.07806
v 0.14424 0.20020 0.10034
v 0.16769 0.23953 0.12310
v 0.19071 0.27449 0.14795
v 0.06312 0.00000 0.01708
v 0.08534 0.05383 0.03817
v 0.10746 0.10432 0.05939
v 0.12944 0.15148 0.08078
v 0.15121 0.19531 0.10243
v 0.17263 0.23580 0.12452
v 0.19258 0.27296 0.14846
v 0.07049 -0.00737 0.02931
v 0.09182 0.04689 0.04905
v 0.11302 0.09791 0.06885
v 0.13404 0.14574 0.08874
v 0.15481 0.19041 0.10876
v 0.17512 0.23207 0.12902
v 0.19350 0.27143 0.15017
v 0.06886 -0.01192 0.04464
v 0.09027 0.04260 0.06275
v 0.11156 0.09395 0.08084
v 0.13271 0.14219 0.09890
v 0.15365 0.18739 0.11692
v 0.17421 0.22976 0.13487
v 0.19311 0.27048 0.15242
v 0.05884 -0.01192 0.05720
v 0.08127 0.04260 0.07404
v 0.10364 0.09395 0.09078
v 0.12595 0.14219 0.10738
v 0.14818 0.18739 0.12378
v 0.17025 0.22976 0.13983
v 0.19157 0.27048 0.15435
v 0.04426 -0.00737 0.06220
v 0.06825 0.04689 0.07861
v 0.09228 0.09791 0.09487
v 0.11634 0.14574 0.11093
v 0.14048 0.19041 0.12672
v 0.16475 0.23207 0.14202
v 0.18946 0.27143 0.15523
v 0.03070 -0.00000 0.05774
v 0.05621 0.05383 0.07471
v 0.08181 0.10432 0.09155
v 0.10756 0.15148 0.10821
v 0.13351 0.19531 0.12463
v 0.15982 0.23580 0.14059
v 0.18759 0.27296 0.15472
v 0.06428 0.00000 0.01200
v 0.09972 0.06551 0.00121
v 0.13511 0.12769 -0.00975
v 0.17046 0.18653 -0.02091
v 0.20574 0.24204 -0.03240
v 0.24089 0.29422 -0.04444
v 0.27551 0.34306 -0.05878
v 0.05012 0.00737 0.01014
v 0.08713 0.07239 -0.00050
v 0.12418 0.13399 -0.01128
v 0.16127 0.19213 -0.02225
v 0.19843 0.24676 -0.03351
v 0.23570 0.29778 -0.04527
v 0.27354 0.34451 -0.05911
v 0.03916 0.01192 -0.00070
v 0.07737 0.07664 -0.01025
v 0.11568 0.13788 -0.01988
v 0.15410 0.19558 -0.02961
v 0.19270 0.24968 -0.03948
v 0.23162 0.29999 -0.04961
v 0.27198 0.34540 -0.06081
v 0.03559 0.01192 -0.01636
v 0.07416 0.07664 -0.02433
v 0.11285 0.13788 -0.03228
v 0.15169 0.19558 -0.04018
v 0.19075 0.24968 -0.04804
v 0.23020 0.29999 -0.05580
v 0.27143 0.34540 -0.06322
v 0.04076 0.00737 -0.03088
v 0.07872 0.07239 -0.03736
v 0.11678 0.13399 -0.04372
v 0.15496 0.19213 -0.04993
v 0.19332 0.24676 -0.05590
v 0.23200 0.29778 -0.06148
v 0.27210 0.34451 -0.06542
v 0.05271 0.00000 -0.03870
v 0.08932 0.06551 -0.04435
v 0.12596 0.12769 -0.04984
v 0.16265 0.18653 -0.05512
v 0.19942 0.24204 -0.06008
v 0.23631 0.29422 -0.06448
v 0.27373 0.34306 -0.06658
v 0.06687 -0.00737 -0.03684
v 0.10190 0.05863 -0.04265
v 0.13689 0.12139 -0.04831
v 0.17184 0.18093 -0.05378
v 0.20673 0.23732 -0.05897
v 0.24150 0.29065 -0.06365
v 0.27570 0.34161 -0.06625
v 0.07783 -0.01192 -0.02601
v 0.11166 0.05438 -0.03289
v 0.14540 0.11749 -0.03970
v 0.17901 0.17747 -0.04642
v 0.21246 0.23440 -0.05299
v 0.24558 0.28845 -0.05931
v 0.27727 0.34071 -0.06455
v 0.08141 -0.01192 -0.01034
v 0.11487 0.05438 -0.01881
v 0.14822 0.11749 -0.02731
v 0.18143 0.17747 -0.03585
v 0.21441 0.23440 -0.04444
v 0.24700 0.28845 -0.05312
v 0.27782 0.34071 -0.06214
v 0.07623 -0.00737 0.00418
v 0.11031 0.05863 -0.00579
v 0.14430 0.12139 -0.01587
v 0.17816 0.18093 -0.02611
v 0.21184 0.23732 -0.03657
v 0.24520 0.29065 -0.04744
v 0.27715 0.34161 -0.05994
v 0.06428 -0.00000 0.01200
v 0.09972 0.06551 0.00121
v 0.13511 0.12769 -0.00975
v 0.17046 0.18653 -0.02091
v 0.20574 0.24204 -0.03240
v 0.24089 0.29422 -0.04444
v 0.27551 0.34306 -0.05878
v 0.04946 0.00000 -0.04278
v 0.05754 0.04214 -0.06563
v 0.06547 0.08095 -0.08856
v 0.07320 0.11643 -0.11158
v 0.08064 0.14858 -0.13474
v 0.08757 0.17739 -0.15815
v 0.09237 0.20286 -0.18258
v 0.03917 0.00737 -0.03287
v 0.04840 0.04917 -0.05693
v 0.05753 0.08753 -0.08112
v 0.06654 0.12242 -0.10546
v 0.07536 0.15375 -0.13002
v 0.08384 0.18140 -0.15493
v 0.09096 0.20454 -0.18142
v 0.02387 0.01192 -0.03105
v 0.03471 0.05351 -0.05543
v 0.04555 0.09160 -0.07994
v 0.05639 0.12612 -0.10459
v 0.06721 0.15695 -0.12945
v 0.07800 0.18388 -0.15464
v 0.08872 0.20557 -0.18137
v 0.00939 0.01192 -0.03802
v 0.02170 0.05351 -0.06170
v 0.03410 0.09160 -0.08545
v 0.04662 0.12612 -0.10930
v 0.05930 0.15695 -0.13326
v 0.07227 0.18388 -0.15740
v 0.08649 0.20557 -0.18244
v 0.00127 0.00737 -0.05112
v 0.01434 0.04917 -0.07334
v 0.02755 0.08753 -0.09556
v 0.04097 0.12242 -0.11778
v 0.05466 0.15375 -0.13998
v 0.06886 0.18140 -0.16214
v 0.08513 0.20454 -0.18423
v 0.00261 0.00000 -0.06534
v 0.01544 0.04214 -0.08591
v 0.02842 0.08095 -0.10640
v 0.04159 0.11643 -0.12680
v 0.05506 0.14858 -0.14706
v 0.06905 0.17739 -0.16707
v 0.08516 0.20286 -0.18605
v 0.01289 -0.00737 -0.07525
v 0.02458 0.03512 -0.09460
v 0.03635 0.07438 -0.11383
v 0.04825 0.11045 -0.13291
v 0.06034 0.14340 -0.15178
v 0.07278 0.17338 -0.17028
v 0.08656 0.20119 -0.18721
v 0.02819 -0.01192 -0.07706
v 0.03827 0.03078 -0.09610
v 0.04834 0.07031 -0.11502
v 0.05841 0.10675 -0.13378
v 0.06850 0.14020 -0.15234
v 0.07862 0.17090 -0.17057
v 0.08881 0.20016 -0.18726
v 0.04267 -0.01192 -0.07009
v 0.05128 0.03078 -0.08984
v 0.05979 0.07031 -0.10950
v 0.06818 0.10675 -0.12908
v 0.07640 0.14020 -0.14854
v 0.08434 0.17090 -0.16781
v 0.09104 0.20016 -0.18619
v 0.05079 -0.00737 -0.05700
v 0.05864 0.03512 -0.07820
v 0.06633 0.07438 -0.09940
v 0.07383 0.11045 -0.12059
v 0.08104 0.14340 -0.14181
v 0.08776 0.17338 -0.16307
v 0.09239 0.20119 -0.18440
v 0.04946 -0.00000 -0.04278
v 0.05754 0.04214 -0.06563
v 0.06547 0.08095 -0.08856
v 0.07320 0.11643 -0.11158
v 0.08064 0.14858 -0.13474
v 0.08757 0.17739 -0.15815
v 0.09237 0.20286 -0.18258
v -0.00261 0.00000 -0.06534
v -0.01823 0.05383 -0.09169
v -0.03399 0.10432 -0.11798
v -0.04996 0.15148 -0.14417
v -0.06621 0.19531 -0.17021
v -0.08299 0.23580 -0.19601
v -0.10189 0.27296 -0.22079
v -0.00127 0.00737 -0.05112
v -0.01710 0.06076 -0.07908
v -0.03308 0.11073 -0.10704
v -0.04926 0.15723 -0.13500
v -0.06572 0.20020 -0.16295
v -0.08270 0.23953 -0.19088
v -0.10180 0.27449 -0.21885
v -0.00939 0.01192 -0.03802
v -0.02445 0.06505 -0.06741
v -0.03960 0.11469 -0.09687
v -0.05487 0.16078 -0.12642
v -0.07031 0.20323 -0.15610
v -0.08605 0.24184 -0.18601
v -0.10312 0.27544 -0.21699
v -0.02387 0.01192 -0.03105
v -0.03746 0.06505 -0.06115
v -0.05105 0.11469 -0.09136
v -0.06463 0.16078 -0.12172
v -0.07821 0.20323 -0.15230
v -0.09177 0.24184 -0.18325
v -0.10535 0.27544 -0.21592
v -0.03917 0.00737 -0.03287
v -0.05116 0.06076 -0.06268
v -0.06306 0.11073 -0.09260
v -0.07483 0.15723 -0.12268
v -0.08642 0.20020 -0.15298
v -0.09768 0.23953 -0.18367
v -0.10763 0.27449 -0.21604
v -0.04946 0.00000 -0.04278
v -0.06033 0.05383 -0.07142
v -0.07105 0.10432 -0.10013
v -0.08157 0.15148 -0.12894
v -0.09179 0.19531 -0.15789
v -0.10151 0.23580 -0.18709
v -0.10909 0.27296 -0.21732
v -0.05079 -0.00737 -0.05700
v -0.06145 0.04689 -0.08403
v -0.07195 0.09791 -0.11107
v -0.08226 0.14574 -0.13811
v -0.09228 0.19041 -0.16516
v -0.10180 0.23207 -0.19222
v -0.10918 0.27143 -0.21925
v -0.04267 -0.01192 -0.07009
v -0.05410 0.04260 -0.09570
v -0.06544 0.09395 -0.12124
v -0.07666 0.14219 -0.14669
v -0.08770 0.18739 -0.17200
v -0.09844 0.22976 -0.19710
v -0.10786 0.27048 -0.22111
v -0.02819 -0.01192 -0.07706
v -0.04109 0.04260 -0.10197
v -0.05399 0.09395 -0.12675
v -0.06689 0.14219 -0.15139
v -0.07980 0.18739 -0.17581
v -0.09272 0.22976 -0.19985
v -0.10563 0.27048 -0.22219
v -0.01289 -0.00737 -0.07525
v -0.02739 0.04689 -0.10044
v -0.04198 0.09791 -0.12551
v -0.05669 0.14574 -0.15043
v -0.07159 0.19041 -0.17513
v -0.08682 0.23207 -0.19944
v -0.10335 0.27143 -0.22206
v -0.00261 -0.00000 -0.06534
v -0.01823 0.05383 -0.09169
v -0.03399 0.10432 -0.11798
v -0.04996 0.15148 -0.14417
v -0.06621 0.19531 -0.17021
v -0.08299 0.23580 -0.19601
v -0.10189 0.27296 -0.22079
v -0.05271 0.00000 -0.03870
v -0.08932 0.06551 -0.04435
v -0.12596 0.12769 -0.04984
v -0.16265 0.18653 -0.05512
v -0.19942 0.24204 -0.06008
v -0.23631 0.29422 -0.06448
v -0.27373 0.34306 -0.06658
v -0.04076 0.00737 -0.03088
v -0.07872 0.07239 -0.03736
v -0.11678 0.13399 -0.04372
v -0.15496 0.19213 -0.04993
v -0.19332 0.24676 -0.05590
v -0.23200 0.29778 -0.06148
v -0.27210 0.34451 -0.06542
v -0.03559 0.01192 -0.01636
v -0.07416 0.07664 -0.02433
v -0.11285 0.13788 -0.03228
v -0.15169 0.19558 -0.04018
v -0.19075 0.24968 -0.04804
v -0.23020 0.29999 -0.05580
v -0.27143 0.34540 -0.06322
v -0.03916 0.01192 -0.00070
v -0.07737 0.07664 -0.01025
v -0.11568 0.13788 -0.01988
v -0.15410 0.19558 -0.02961
v -0.19270 0.24968 -0.03948
v -0.23162 0.29999 -0.04961
v -0.27198 0.34540 -0.06081
v -0.05012 0.00737 0.01014
v -0.08713 0.07239 -0.00050
v -0.12418 0.13399 -0.01128
v -0.16127 0.19213 -0.02225
v -0.19843 0.24676 -0.03351
v -0.23570 0.29778 -0.04527
v -0.27354 0.34451 -0.05911
v -0.06428 0.00000 0.01200
v -0.09972 0.06551 0.00121
v -0.13511 0.12769 -0.00975
v -0.17046 0.18653 -0.02091
v -0.20574 0.24204 -0.03240
v -0.24089 0.29422 -0.04444
v -0.27551 0.34306 -0.05878
v -0.07623 -0.00737 0.00418
v -0.11031 0.05863 -0.00579
v -0.14430 0.12139 -0.01587
v -0.17816 0.18093 -0.02611
v -0.21184 0.23732 -0.03657
v -0.24520 0.29065 -0.04744
v -0.27715 0.34161 -0.05994
v -0.08141 -0.01192 -0.01034
v -0.11487 0.05438 -0.01881
v -0.14822 0.11749 -0.02731
v -0.18143 0.17747 -0.03585
v -0.21441 0.23440 -0.04444
v -0.24700 0.28845 -0.05312
v -0.27782 0.34071 -0.06214
v -0.07783 -0.01192 -0.02601
v -0.11166 0.05438 -0.03289
v -0.14540 0.11749 -0.03970
v -0.17901 0.17747 -0.04642
v -0.21246 0.23440 -0.05299
v -0.24558 0.28845 -0.05931
v -0.27727 0.34071 -0.06455
v -0.06687 -0.00737 -0.03684
v -0.10190 0.05863 -0.04265
v -0.13689 0.12139 -0.04831
v -0.17184 0.18093 -0.05378
v -0.20673 0.23732 -0.05897
v -0.24150 0.29065 -0.06365
v -0.27570 0.34161 -0.06625
v -0.05271 -0.00000 -0.03870
v -0.08932 0.06551 -0.04435
v -0.12596 0.12769 -0.04984
v -0.16265 0.18653 -0.05512
v -0.19942 0.24204 -0.06008
v -0.23631 0.29422 -0.06448
v -0.27373 0.34306 -0.06658
v -0.06312 0.00000 0.01708
v -0.08032 0.04214 0.03417
v -0.09741 0.08095 0.05138
v -0.11436 0.11643 0.06876
v -0.13112 0.14858 0.08640
v -0.14751 0.17739 0.10449
v -0.16244 0.20286 0.12442
v -0.04956 0.00737 0.01262
v -0.06831 0.04917 0.03030
v -0.08703 0.08753 0.04813
v -0.10571 0.12242 0.06615
v -0.12431 0.15375 0.08444
v -0.14276 0.18140 0.10321
v -0.16067 0.20454 0.12399
v -0.03498 0.01192 0.01762
v -0.05532 0.05351 0.03488
v -0.07572 0.09160 0.05226
v -0.09618 0.12612 0.06977
v -0.11672 0.15695 0.08747
v -0.13737 0.18388 0.10549
v -0.15862 0.20557 0.12492
v -0.02496 0.01192 0.03018
v -0.04632 0.05351 0.04617
v -0.06780 0.09160 0.06219
v -0.08942 0.12612 0.07825
v -0.11125 0.15695 0.09433
v -0.13341 0.18388 0.11045
v -0.15708 0.20557 0.12685
v -0.02333 0.00737 0.04551
v -0.04474 0.04917 0.05985
v -0.06629 0.08753 0.07414
v -0.08801 0.12242 0.08834
v -0.10999 0.15375 0.10240
v -0.13239 0.18140 0.11621
v -0.15663 0.20454 0.12905
v -0.03070 0.00000 0.05774
v -0.05118 0.04214 0.07070
v -0.07177 0.08095 0.08353
v -0.09249 0.11643 0.09620
v -0.11341 0.14858 0.10860
v -0.13470 0.17739 0.12056
v -0.15745 0.20286 0.13068
v -0.04426 -0.00737 0.06220
v -0.06319 0.03512 0.07457
v -0.08214 0.07438 0.08679
v -0.10114 0.11045 0.09881
v -0.12022 0.14340 0.11056
v -0.13945 0.17338 0.12184
v -0.15922 0.20119 0.13111
v -0.05884 -0.01192 0.05720
v -0.07618 0.03078 0.06998
v -0.09345 0.07031 0.08265
v -0.11067 0.10675 0.09519
v -0.12781 0.14020 0.10754
v -0.14484 0.17090 0.11957
v -0.16126 0.20016 0.13018
v -0.06886 -0.01192 0.04464
v -0.08518 0.03078 0.05869
v -0.10138 0.07031 0.07272
v -0.11743 0.10675 0.08671
v -0.13328 0.14020 0.10068
v -0.14880 0.17090 0.11460
v -0.16281 0.20016 0.12825
v -0.07049 -0.00737 0.02931
v -0.08676 0.03512 0.04501
v -0.10289 0.07438 0.06077
v -0.11884 0.11045 0.07662
v -0.13454 0.14340 0.09261
v -0.14982 0.17338 0.10884
v -0.16325 0.20119 0.12605
v -0.06312 -0.00000 0.01708
v -0.08032 0.04214 0.03417
v -0.09741 0.08095 0.05138
v -0.11436 0.11643 0.06876
v -0.13112 0.14858 0.08640
v -0.14751 0.17739 0.10449
v -0.16244 0.20286 0.12442
vt 0.00000 0.00000
vt 0.00000 0.16667
vt 0.00000 0.33333
vt 0.00000 0.50000
vt 0.00000 0.66667
vt 0.00000 0.83333
vt 0.00000 1.00000
vt 0.10000 0.00000
vt 0.10000 0.16667
vt 0.10000 0.33333
vt 0.10000 0.50000
vt 0.10000 0.66667
vt 0.10000 0.83333
vt 0.10000 1.00000
vt 0.20000 0.00000
vt 0.20000 0.16667
vt 0.20000 0.33333
vt 0.20000 0.50000
vt 0.20000 0.66667
vt 0.20000 0.83333
vt 0.20000 1.00000
vt 0.30000 0.00000
vt 0.30000 0.16667
vt 0.30000 0.33333
vt 0.30000 0.50000
vt 0.30000 0.66667
vt 0.30000 0.83333
vt 0.30000 1.00000
vt 0.40000 0.00000
vt 0.40000 0.16667
vt 0.40000 0.33333
vt 0.40000 0.50000
vt 0.40000 0.66667
vt 0.40000 0.83333
vt 0.40000 1.00000
vt 0.50000 0.00000
vt 0.50000 0.16667
vt 0.50000 0.33333
vt 0.50000 0.50000
vt 0.50000 0.66667
vt 0.50000 0.83333
vt 0.50000 1.00000
vt 0.60000 0.00000
vt 0.60000 0.16667
vt 0.60000 0.33333
vt 0.60000 0.50000
vt 0.60000 0.66667
vt 0.60000 0.83333
vt 0.60000 1.00000
vt 0.70000 0.00000
vt 0.70000 0.16667
vt 0.70000 0.33333
vt 0.70000 0.50000
vt 0.70000 0.66667
vt 0.70000 0.83333
vt 0.70000 1.00000
vt 0.80000 0.00000
vt 0.80000 0.16667
vt 0.80000 0.33333
vt 0.80000 0.50000
vt 0.80000 0.66667
vt 0.80000 0.83333
vt 0.80000 1.00000
vt 0.90000 0.00000
vt 0.90000 0.16667
vt 0.90000 0.33333
vt 0.90000 0.50000
vt 0.90000 0.66667
vt 0.90000 0.83333
vt 0.90000 1.00000
vt 1.00000 0.00000
vt 1.00000 0.16667
vt 1.00000 0.33333
vt 1.00000 0.50000
vt 1.00000 0.66667
vt 1.00000 0.83333
vt 1.00000 1.00000
vt 0.00000 0.00000
vt 0.00000 0.16667
vt 0.00000 0.33333
vt 0.00000 0.50000
vt 0.00000 0.66667
vt 0.00000 0.83333
vt 0.00000 1.00000
vt 0.10000 0.00000
vt 0.10000 0.16667
vt 0.10000 0.33333
vt 0.10000 0.50000
vt 0.10000 0.66667
vt 0.10000 0.83333
vt 0.10000 1.00000
vt 0.20000 0.00000
vt 0.20000 0.16667
vt 0.20000 0.33333
vt 0.20000 0.50000
vt 0.20000 0.66667
vt 0.20000 0.83333
vt 0.20000 1.00000
vt 0.30000 0.00000
vt 0.30000 0.16667
vt 0.30000 0.33333
vt 0.30000 0.50000
vt 0.30000 0.66667
vt 0.30000 0.83333
vt 0.30000 1.00000
vt 0.40000 0.00000
vt 0.40000 0.16667
vt 0.40000 0.33333
vt 0.40000 0.50000
vt 0.40000 0.66667
vt 0.40000 0.83333
vt 0.40000 1.00000
vt 0.50000 0.00000
vt 0.50000 0.16667
vt 0.50000 0.33333
vt 0.50000 0.50000
vt 0.50000 0.66667
vt 0.50000 0.83333
vt 0.50000 1.00000
vt 0.60000 0.00000
vt 0.60000 0.16667
vt 0.60000 0.33333
vt 0.60000 0.50000
vt 0.60000 0.66667
vt 0.60000 0.83333
vt 0.60000 1.00000
vt 0.70000 0.00000
vt 0.70000 0.16667
vt 0.70000 0.33333
vt 0.70000 0.50000
vt 0.70000 0.66667
vt 0.70000 0.83333
vt 0.70000 1.00000
vt 0.80000 0.00000
vt 0.80000 0.16667
vt 0.80000 0.33333
vt 0.80000 0.50000
vt 0.80000 0.66667
vt 0.80000 0.83333
vt 0.80000 1.00000
vt 0.90000 0.00000
vt 0.90000 0.16667
vt 0.90000 0.33333
vt 0.90000 0.50000
vt 0.90000 0.66667
vt 0.90000 0.83333
vt 0.90000 1.00000
vt 1.00000 0.00000
vt 1.00000 0.16667
vt 1.00000 0.33333
vt 1.00000 0.50000
vt 1.00000 0.66667
vt 1.00000 0.83333
vt 1.00000 1.00000
vt 0.00000 0.00000
vt 0.00000 0.16667
vt 0.00000 0.33333
vt 0.00000 0.50000
vt 0.00000 0.66667
vt 0.00000 0.83333
vt 0.00000 1.00000
vt 0.10000 0.00000
vt 0.10000 0.16667
vt 0.10000 0.33333
vt 0.10000 0.50000
vt 0.10000 0.66667
vt 0.10000 0.83333
vt 0.10000 1.00000
vt 0.20000 0.00000
vt 0.20000 0.16667
vt 0.20000 0.33333
vt 0.20000 0.50000
vt 0.20000 0.66667
vt 0.20000 0.83333
vt 0.20000 1.00000
vt 0.30000 0.00000
vt 0.30000 0.16667
vt 0.30000 0.33333
vt 0.30000 0.50000
vt 0.30000 0.66667
vt 0.30000 0.83333
vt 0.30000 1.00000
vt 0.40000 0.00000
vt 0.40000 0.16667
vt 0.40000 0.33333
vt 0.40000 0.50000
vt 0.40000 0.66667
vt 0.40000 0.83333
vt 0.40000 1.00000
vt 0.50000 0.00000
vt 0.50000 0.16667
vt 0.50000 0.33333
vt 0.50000 0.50000
vt 0.50000 0.66667
vt 0.50000 0.83333
vt 0.50000 1.00000
vt 0.60000 0.00000
vt 0.60000 0.16667
vt 0.60000 0.33333
vt 0.60000 0.50000
vt 0.60000 0.66667
vt 0.60000 0.83333
vt 0.60000 1.00000
vt 0.70000 0.00000
vt 0.70000 0.16667
vt 0.70000 0.33333
vt 0.70000 0.50000
vt 0.70000 0.66667
vt 0.70000 0.83333
vt 0.70000 1.00000
vt 0.80000 0.00000
vt 0.80000 0.16667
vt 0.80000 0.33333
vt 0.80000 0.50000
vt 0.80000 0.66667
vt 0.80000 0.83333
vt 0.80000 1.00000
vt 0.90000 0.00000
vt 0.90000 0.16667
vt 0.90000 0.33333
vt 0.90000 0.50000
vt 0.90000 0.66667
vt 0.90000 0.83333
vt 0.90000 1.00000
vt 1.00000 0.00000
vt 1.00000 0.16667
vt 1.00000 0.33333
vt 1.00000 0.50000
vt 1.00000 0.66667
vt 1.00000 0.83333
vt 1.00000 1.00000
vt 0.00000 0.00000
vt 0.00000 0.16667
vt 0.00000 0.33333
vt 0.00000 0.50000
vt 0.00000 0.66667
vt 0.00000 0.83333
vt 0.00000 1.00000
vt 0.10000 0.00000
vt 0.10000 0.16667
vt 0.10000 0.33333
vt 0.10000 0.50000
vt 0.10000 0.66667
vt 0.10000 0.83333
vt 0.10000 1.00000
vt 0.20000 0.00000
vt 0.20000 0.16667
vt 0.20000 0.33333
vt 0.20000 0.50000
vt 0.20000 0.66667
vt 0.20000 0.83333
vt 0.20000 1.00000
vt 0.30000 0.00000
vt 0.30000 0.16667
vt 0.30000 0.33333
vt 0.30000 0.50000
vt 0.30000 0.66667
vt 0.30000 0.83333
vt 0.30000 1.00000
vt 0.40000 0.00000
vt 0.40000 0.16667
vt 0.40000 0.33333
vt 0.40000 0.50000
vt 0.40000 0.66667
vt 0.40000 0.83333
vt 0.40000 1.00000
vt 0.50000 0.00000
vt 0.50000 0.16667
vt 0.50000 0.33333
vt 0.50000 0.50000
vt 0.50000 0.66667
vt 0.50000 0.83333
vt 0.50000 1.00000
vt 0.60000 0.00000
vt 0.60000 0.16667
vt 0.60000 0.33333
vt 0.60000 0.50000
vt 0.60000 0.66667
vt 0.60000 0.83333
vt 0.60000 1.00000
vt 0.70000 0.00000
vt 0.70000 0.16667
vt 0.70000 0.33333
vt 0.70000 0.50000
vt 0.70000 0.66667
vt 0.70000 0.83333
vt 0.70000 1.00000
vt 0.80000 0.00000
vt 0.80000 0.16667
vt 0.80000 0.33333
vt 0.80000 0.50000
vt 0.80000 0.66667
vt 0.80000 0.83333
vt 0.80000 1.00000
vt 0.90000 0.00000
vt 0.90000 0.16667
vt 0.90000 0.33333
vt 0.90000 0.50000
vt 0.90000 0.66667
vt 0.90000 0.83333
vt 0.90000 1.00000
vt 1.00000 0.00000
vt 1.00000 0.16667
vt 1.00000 0.33333
vt 1.00000 0.50000
vt 1.00000 0.66667
vt 1.00000 0.83333
vt 1.00000 1.00000
vt 0.00000 0.00000
vt 0.00000 0.16667
vt 0.00000 0.33333
vt 0.00000 0.50000
vt 0.00000 0.66667
vt 0.00000 0.83333
vt 0.00000 1.00000
vt 0.10000 0.00000
vt 0.10000 0.16667
vt 0.10000 0.33333
vt 0.10000 0.50000
vt 0.10000 0.66667
vt 0.10000 0.83333
vt 0.10000 1.00000
vt 0.20000 0.00000
vt 0.20000 0.16667
vt 0.20000 0.33333
vt 0.20000 0.50000
vt 0.20000 0.66667
vt 0.20000 0.83333
vt 0.20000 1.00000
vt 0.30000 0.00000
vt 0.30000 0.16667
vt 0.30000 0.33333
vt 0.30000 0.50000
vt 0.30000 0.66667
vt 0.30000 0.83333
vt 0.30000 1.00000
vt 0.40000 0.00000
vt 0.40000 0.16667
vt 0.40000 0.33333
vt 0.40000 0.50000
vt 0.40000 0.66667
vt 0.40000 0.83333
vt 0.40000 1.00000
vt 0.50000 0.00000
vt 0.50000 0.16667
vt 0.50000 0.33333
vt 0.50000 0.50000
vt 0.50000 0.66667
vt 0.50000 0.83333
vt 0.50000 1.00000
vt 0.60000 0.00000
vt 0.60000 0.16667
vt 0.60000 0.33333
vt 0.60000 0.50000
vt 0.60000 0.66667
vt 0.60000 0.83333
vt 0.60000 1.00000
vt 0.70000 0.00000
vt 0.70000 0.16667
vt 0.70000 0.33333
vt 0.70000 0.50000
vt 0.70000 0.66667
vt 0.70000 0.83333
vt 0.70000 1.00000
vt 0.80000 0.00000
vt 0.80000 0.16667
vt 0.80000 0.33333
vt 0.80000 0.50000
vt 0.80000 0.66667
vt 0.80000 0.83333
vt 0.80000 1.00000
vt 0.90000 0.00000
vt 0.90000 0.16667
vt 0.90000 0.33333
vt 0.90000 0.50000
vt 0.90000 0.66667
vt 0.90000 0.83333
vt 0.90000 1.00000
vt 1.00000 0.00000
vt 1.00000 0.16667
vt 1.00000 0.33333
vt 1.00000 0.50000
vt 1.00000 0.66667
vt 1.00000 0.83333
vt 1.00000 1.00000
vt 0.00000 0.00000
vt 0.00000 0.16667
vt 0.00000 0.33333
vt 0.00000 0.50000
vt 0.00000 0.66667
vt 0.00000 0.83333
vt 0.00000 1.00000
vt 0.10000 0.00000
vt 0.10000 0.16667
vt 0.10000 0.33333
vt 0.10000 0.50000
vt 0.10000 0.66667
vt 0.10000 0.83333
vt 0.10000 1.00000
vt 0.20000 0.00000
vt 0.20000 0.16667
vt 0.20000 0.33333
vt 0.20000 0.50000
vt 0.20000 0.66667
vt 0.20000 0.83333
vt 0.20000 1.00000
vt 0.30000 0.00000
vt 0.30000 0.16667
vt 0.30000 0.33333
vt 0.30000 0.50000
vt 0.30000 0.66667
vt 0.30000 0.83333
vt 0.30000 1.00000
vt 0.40000 0.00000
vt 0.40000 0.16667
vt 0.40000 0.33333
vt 0.40000 0.50000
vt 0.40000 0.66667
vt 0.40000 0.83333
vt 0.40000 1.00000
vt 0.50000 0.00000
vt 0.50000 0.16667
vt 0.50000 0.33333
vt 0.50000 0.50000
vt 0.50000 0.66667
vt 0.50000 0.83333
vt 0.50000 1.00000
vt 0.60000 0.00000
vt 0.60000 0.16667
vt 0.60000 0.33333
vt 0.60000 0.50000
vt 0.60000 0.66667
vt 0.60000 0.83333
vt 0.60000 1.00000
vt 0.70000 0.00000
vt 0.70000 0.16667
vt 0.70000 0.33333
vt 0.70000 0.50000
vt 0.70000 0.66667
vt 0.70000 0.83333
vt 0.70000 1.00000
vt 0.80000 0.00000
vt 0.80000 0.16667
vt 0.80000 0.33333
vt 0.80000 0.50000
vt 0.80000 0.66667
vt 0.80000 0.83333
vt 0.80000 1.00000
vt 0.90000 0.00000
vt 0.90000 0.16667
vt 0.90000 0.33333
vt 0.90000 0.50000
vt 0.90000 0.66667
vt 0.90000 0.83333
vt 0.90000 1.00000
vt 1.00000 0.00000
vt 1.00000 0.16667
vt 1.00000 0.33333
vt 1.00000 0.50000
vt 1.00000 0.66667
vt 1.00000 0.83333
vt 1.00000 1.00000
vt 0.00000 0.00000
vt 0.00000 0.16667
vt 0.00000 0.33333
vt 0.00000 0.50000
vt 0.00000 0.66667
vt 0.00000 0.83333
vt 0.00000 1.00000
vt 0.10000 0.00000
vt 0.10000 0.16667
vt 0.10000 0.33333
vt 0.10000 0.50000
vt 0.10000 0.66667
vt 0.10000 0.83333
vt 0.10000 1.00000
vt 0.20000 0.00000
vt 0.20000 0.16667
vt 0.20000 0.33333
vt 0.20000 0.50000
vt 0.20000 0.66667
vt 0.20000 0.83333
vt 0.20000 1.00000
vt 0.30000 0.00000
vt 0.30000 0.16667
vt 0.30000 0.33333
vt 0.30000 0.50000
vt 0.30000 0.66667
vt 0.30000 0.83333
vt 0.30000 1.00000
vt 0.40000 0.00000
vt 0.40000 0.16667
vt 0.40000 0.33333
vt 0.40000 0.50000
vt 0.40000 0.66667
vt 0.40000 0.83333
vt 0.40000 1.00000
vt 0.50000 0.00000
vt 0.50000 0.16667
vt 0.50000 0.33333
vt 0.50000 0.50000
vt 0.50000 0.66667
vt 0.50000 0.83333
vt 0.50000 1.00000
vt 0.60000 0.00000
vt 0.60000 0.16667
vt 0.60000 0.33333
vt 0.60000 0.50000
vt 0.60000 0.66667
vt 0.60000 0.83333
vt 0.60000 1.00000
vt 0.70000 0.00000
vt 0.70000 0.16667
vt 0.70000 0.33333
vt 0.70000 0.50000
vt 0.70000 0.66667
vt 0.70000 0.83333
vt 0.70000 1.00000
vt 0.80000 0.00000
vt 0.80000 0.16667
vt 0.80000 0.33333
vt 0.80000 0.50000
vt 0.80000 0.66667
vt 0.80000 0.83333
vt 0.80000 1.00000
vt 0.90000 0.00000
vt 0.90000 0.16667
vt 0.90000 0.33333
vt 0.90000 0.50000
vt 0.90000 0.66667
vt 0.90000 0.83333
vt 0.90000 1.00000
vt 1.00000 0.00000
vt 1.00000 0.16667
vt 1.00000 0.33333
vt 1.00000 0.50000
vt 1.00000 0.66667
vt 1.00000 0.83333
vt 1.00000 1.00000
vn -0.39761 0.00000 0.91756
vn -0.24106 0.43482 0.86765
vn -0.15045 0.59229 0.79156
vn -0.09905 0.65744 0.74697
vn -0.06567 0.68729 0.72341
vn -0.04058 0.70039 0.71260
vn -0.01388 0.70406 0.71000
vn -0.40714 0.14258 0.90217
vn -0.21131 0.54967 0.80821
vn -0.12557 0.66069 0.74008
vn -0.08122 0.70054 0.70898
vn -0.05342 0.71514 0.69694
vn -0.03288 0.71739 0.69590
vn -0.01123 0.70986 0.70426
vn -0.19625 0.29112 0.93634
vn -0.08544 0.63323 0.76923
vn -0.04895 0.70554 0.70698
vn -0.03129 0.72783 0.68504
vn -0.02047 0.73252 0.68044
vn -0.01257 0.72792 0.68554
vn -0.00429 0.71344 0.70070
vn 0.19625 0.29112 0.93634
vn 0.08544 0.63323 0.76923
vn 0.04895 0.70554 0.70698
vn 0.03129 0.72783 0.68504
vn 0.02047 0.73252 0.68044
vn 0.01257 0.72792 0.68554
vn 0.00429 0.71344 0.70070
vn 0.40714 0.14258 0.90217
vn 0.21131 0.54967 0.80821
vn 0.12557 0.66069 0.74008
vn 0.08122 0.70054 0.70898
vn 0.05342 0.71514 0.69694
vn 0.03288 0.71739 0.69590
vn 0.01123 0.70986 0.70426
vn 0.39761 0.00000 0.91756
vn 0.24106 0.43482 0.86765
vn 0.15045 0.59229 0.79156
vn 0.09905 0.65744 0.74697
vn 0.06567 0.68729 0.72341
vn 0.04058 0.70039 0.71260
vn 0.01388 0.70406 0.71000
vn 0.27425 -0.09604 0.95685
vn 0.18200 0.33814 0.92333
vn 0.11820 0.52842 0.84071
vn 0.07910 0.61558 0.78410
vn 0.05284 0.65977 0.74961
vn 0.03277 0.68345 0.72926
vn 0.01123 0.69827 0.71575
vn 0.09689 -0.14374 0.98486
vn 0.06690 0.28518 0.95614
vn 0.04437 0.49097 0.87005
vn 0.02998 0.59029 0.80664
vn 0.02012 0.64291 0.76568
vn 0.01251 0.67301 0.73953
vn 0.00429 0.69469 0.71930
vn -0.09689 -0.14374 0.98486
vn -0.06690 0.28518 0.95614
vn -0.04437 0.49097 0.87005
vn -0.02998 0.59029 0.80664
vn -0.02012 0.64291 0.76568
vn -0.01251 0.67301 0.73953
vn -0.00429 0.69469 0.71930
vn -0.27425 -0.09604 0.95685
vn -0.18200 0.33814 0.92333
vn -0.11820 0.52842 0.84071
vn -0.07910 0.61558 0.78410
vn -0.05284 0.65977 0.74961
vn -0.03277 0.68345 0.72926
vn -0.01123 0.69827 0.71575
vn -0.39761 -0.00000 0.91756
vn -0.24106 0.43482 0.86765
vn -0.15045 0.59229 0.79156
vn -0.09905 0.65744 0.74697
vn -0.06567 0.68729 0.72341
vn -0.04058 0.70039 0.71260
vn -0.01388 0.70406 0.71000
vn 0.46947 0.00000 0.88295
vn 0.52101 0.49897 0.69251
vn 0.50781 0.64750 0.56822
vn 0.50027 0.70455 0.50332
vn 0.49929 0.73040 0.46607
vn 0.50310 0.74230 0.44259
vn 0.51316 0.74669 0.42323
vn 0.45150 0.14257 0.88081
vn 0.49139 0.60052 0.63080
vn 0.48406 0.70294 0.52111
vn 0.48334 0.73813 0.47068
vn 0.48773 0.75160 0.44410
vn 0.49590 0.75502 0.42898
vn 0.51071 0.75097 0.41860
vn 0.60971 0.29111 0.73723
vn 0.52963 0.67188 0.51775
vn 0.50050 0.73868 0.45149
vn 0.49247 0.75924 0.42548
vn 0.49327 0.76478 0.41448
vn 0.49916 0.76290 0.41088
vn 0.51180 0.75361 0.41247
vn 0.85442 0.29111 0.43037
vn 0.62262 0.67188 0.40114
vn 0.55154 0.73868 0.38749
vn 0.52439 0.75924 0.38545
vn 0.51385 0.76478 0.38867
vn 0.51165 0.76290 0.39522
vn 0.51601 0.75361 0.40718
vn 0.95919 0.14257 0.24418
vn 0.72433 0.60052 0.33870
vn 0.61576 0.70294 0.35597
vn 0.56643 0.73813 0.36649
vn 0.54149 0.75160 0.37668
vn 0.52858 0.75502 0.38801
vn 0.52175 0.75097 0.40476
vn 0.96528 0.00000 0.26122
vn 0.79109 0.49897 0.35385
vn 0.66697 0.64750 0.36864
vn 0.60202 0.70455 0.37573
vn 0.56549 0.73040 0.38306
vn 0.54344 0.74230 0.39200
vn 0.52680 0.74669 0.40612
vn 0.91909 -0.09604 0.38217
vn 0.80422 0.41069 0.42960
vn 0.68653 0.59477 0.41824
vn 0.61775 0.67165 0.40898
vn 0.57672 0.70938 0.40519
vn 0.55057 0.72961 0.40563
vn 0.52925 0.74241 0.41075
vn 0.83041 -0.14373 0.53830
vn 0.76561 0.36135 0.53223
vn 0.66900 0.56341 0.48477
vn 0.60821 0.65164 0.45326
vn 0.57105 0.69647 0.43454
vn 0.54728 0.72179 0.42368
vn 0.52816 0.73977 0.41687
vn 0.70958 -0.14373 0.68981
vn 0.68925 0.36135 0.62798
vn 0.62149 0.56341 0.54436
vn 0.57723 0.65164 0.49210
vn 0.55072 0.69647 0.46004
vn 0.53484 0.72179 0.43928
vn 0.52395 0.73977 0.42216
vn 0.57711 -0.09604 0.81100
vn 0.59779 0.41069 0.68847
vn 0.56052 0.59477 0.57626
vn 0.53619 0.67165 0.51126
vn 0.52336 0.70938 0.47210
vn 0.51797 0.72961 0.44650
vn 0.51822 0.74241 0.42459
vn 0.46947 -0.00000 0.88295
vn 0.52101 0.49897 0.69251
vn 0.50781 0.64750 0.56822
vn 0.50027 0.70455 0.50332
vn 0.49929 0.73040 0.46607
vn 0.50310 0.74230 0.44259
vn 0.51316 0.74669 0.42323
vn 0.98303 0.00000 0.18346
vn 0.83573 0.54905 0.01010
vn 0.72580 0.68591 -0.05235
vn 0.67230 0.73567 -0.08248
vn 0.64431 0.75800 -0.10146
vn 0.62921 0.76852 -0.11608
vn 0.62065 0.77282 -0.13242
vn 0.97015 0.14257 0.19618
vn 0.76918 0.63901 -0.00441
vn 0.67847 0.73204 -0.06163
vn 0.64041 0.76293 -0.08836
vn 0.62317 0.77497 -0.10524
vn 0.61626 0.77860 -0.11836
vn 0.61628 0.77618 -0.13318
vn 0.95654 0.29111 -0.01703
vn 0.70734 0.70063 -0.09374
vn 0.63885 0.76145 -0.10982
vn 0.61456 0.77998 -0.11809
vn 0.60625 0.78551 -0.12422
vn 0.60596 0.78484 -0.12978
vn 0.61281 0.77826 -0.13701
vn 0.86920 0.29111 -0.39968
vn 0.67796 0.70063 -0.22244
vn 0.62323 0.76145 -0.17824
vn 0.60493 0.77998 -0.16025
vn 0.60011 0.78551 -0.15113
vn 0.60226 0.78484 -0.14598
vn 0.61157 0.77826 -0.14244
vn 0.78895 0.14257 -0.59768
vn 0.69492 0.63901 -0.32976
vn 0.63802 0.73204 -0.23886
vn 0.61533 0.76293 -0.19825
vn 0.60712 0.77497 -0.17557
vn 0.60659 0.77860 -0.16075
vn 0.61304 0.77618 -0.14740
vn 0.80607 0.00000 -0.59181
vn 0.74858 0.54905 -0.37171
vn 0.67664 0.68591 -0.26774
vn 0.64151 0.73567 -0.21739
vn 0.62453 0.75800 -0.18815
vn 0.61727 0.76852 -0.16842
vn 0.61664 0.77282 -0.14999
vn 0.87184 -0.09603 -0.48029
vn 0.81481 0.46883 -0.34101
vn 0.72342 0.64148 -0.25529
vn 0.67320 0.70881 -0.21068
vn 0.64561 0.74113 -0.18415
vn 0.63020 0.75846 -0.16609
vn 0.62102 0.76946 -0.14922
vn 0.93861 -0.14373 -0.31362
vn 0.86909 0.42326 -0.25600
vn 0.76082 0.61481 -0.20776
vn 0.69841 0.69241 -0.18110
vn 0.66234 0.73076 -0.16520
vn 0.64047 0.75225 -0.15468
vn 0.62448 0.76739 -0.14539
vn 0.98173 -0.14373 -0.12469
vn 0.89410 0.42326 -0.14643
vn 0.77561 0.61481 -0.14292
vn 0.70782 0.69241 -0.13986
vn 0.66843 0.73076 -0.13854
vn 0.64415 0.75225 -0.13853
vn 0.62572 0.76739 -0.13996
vn 0.99389 -0.09603 0.05445
vn 0.88207 0.46883 -0.04630
vn 0.76254 0.64148 -0.08387
vn 0.69794 0.70881 -0.10227
vn 0.66157 0.74113 -0.11421
vn 0.63986 0.75846 -0.12379
vn 0.62426 0.76946 -0.13501
vn 0.98303 -0.00000 0.18346
vn 0.83573 0.54905 0.01010
vn 0.72580 0.68591 -0.05235
vn 0.67230 0.73567 -0.08248
vn 0.64431 0.75800 -0.10146
vn 0.62921 0.76852 -0.11608
vn 0.62065 0.77282 -0.13242
vn 0.75634 0.00000 -0.65417
vn 0.59365 0.43482 -0.67714
vn 0.47899 0.59229 -0.64789
vn 0.41334 0.65744 -0.63002
vn 0.37304 0.68729 -0.62327
vn 0.34574 0.70039 -0.62443
vn 0.32057 0.70406 -0.63367
vn 0.75825 0.14258 -0.63618
vn 0.54105 0.54967 -0.63649
vn 0.43424 0.66069 -0.61231
vn 0.38079 0.70054 -0.60353
vn 0.35052 0.71514 -0.60474
vn 0.33156 0.71739 -0.61271
vn 0.31568 0.70986 -0.62964
vn 0.58307 0.29112 -0.75847
vn 0.41073 0.63323 -0.65598
vn 0.35084 0.70554 -0.61573
vn 0.32542 0.72783 -0.60363
vn 0.31368 0.73252 -0.60417
vn 0.30877 0.72792 -0.61220
vn 0.30789 0.71344 -0.62945
vn 0.22945 0.29112 -0.92876
vn 0.25678 0.63323 -0.73012
vn 0.26265 0.70554 -0.65820
vn 0.26904 0.72783 -0.63078
vn 0.27679 0.73252 -0.62194
vn 0.28612 0.72792 -0.62311
vn 0.30016 0.71344 -0.63317
vn 0.02462 0.14258 -0.98948
vn 0.16029 0.54967 -0.81986
vn 0.20798 0.66069 -0.72127
vn 0.23444 0.70054 -0.67400
vn 0.25426 0.71514 -0.65110
vn 0.27231 0.71739 -0.64125
vn 0.29545 0.70986 -0.63939
vn 0.03988 0.00000 -0.99920
vn 0.15928 0.43482 -0.88632
vn 0.20789 0.59229 -0.77845
vn 0.23485 0.65744 -0.71597
vn 0.25471 0.68729 -0.68026
vn 0.27263 0.70039 -0.65964
vn 0.29555 0.70406 -0.64571
vn 0.16808 -0.09604 -0.98108
vn 0.23665 0.33814 -0.91086
vn 0.25828 0.52842 -0.80874
vn 0.26894 0.61558 -0.74077
vn 0.27764 0.65977 -0.69830
vn 0.28689 0.68345 -0.67126
vn 0.30043 0.69827 -0.64974
vn 0.34002 -0.14374 -0.92937
vn 0.35458 0.28518 -0.89047
vn 0.33752 0.49097 -0.80314
vn 0.32298 0.59029 -0.73976
vn 0.31409 0.64291 -0.69858
vn 0.30960 0.67301 -0.67172
vn 0.30823 0.69469 -0.64993
vn 0.51461 -0.14374 -0.84529
vn 0.47512 0.28518 -0.83242
vn 0.41748 0.49097 -0.76463
vn 0.37699 0.59029 -0.71375
vn 0.35034 0.64291 -0.68112
vn 0.33214 0.67301 -0.66086
vn 0.31596 0.69469 -0.64620
vn 0.66225 -0.09604 -0.74310
vn 0.56459 0.33814 -0.75293
vn 0.47126 0.52842 -0.70617
vn 0.41147 0.61558 -0.67213
vn 0.37285 0.65977 -0.65245
vn 0.34594 0.68345 -0.64282
vn 0.32067 0.69827 -0.63999
vn 0.75634 -0.00000 -0.65417
vn 0.59365 0.43482 -0.67714
vn 0.47899 0.59229 -0.64789
vn 0.41334 0.65744 -0.63002
vn 0.37304 0.68729 -0.62327
vn 0.34574 0.70039 -0.62443
vn 0.32057 0.70406 -0.63367
vn -0.03988 0.00000 -0.99920
vn -0.16895 0.49897 -0.84999
vn -0.21098 0.64750 -0.73227
vn -0.23235 0.70455 -0.67053
vn -0.24762 0.73040 -0.63655
vn -0.26125 0.74230 -0.61704
vn -0.27871 0.74669 -0.60397
vn -0.02462 0.14257 -0.98948
vn -0.16903 0.60052 -0.78154
vn -0.21002 0.70294 -0.67953
vn -0.23126 0.73813 -0.63378
vn -0.24674 0.75160 -0.61174
vn -0.26066 0.75502 -0.60166
vn -0.27851 0.75097 -0.59873
vn -0.22945 0.29111 -0.92877
vn -0.25254 0.67188 -0.69627
vn -0.25504 0.73868 -0.62394
vn -0.25909 0.75924 -0.59702
vn -0.26458 0.76478 -0.58746
vn -0.27145 0.76290 -0.58677
vn -0.28215 0.75361 -0.59368
vn -0.58308 0.29111 -0.75847
vn -0.38691 0.67188 -0.63156
vn -0.32880 0.73868 -0.58842
vn -0.30522 0.75924 -0.57480
vn -0.29433 0.76478 -0.57313
vn -0.28951 0.76290 -0.57808
vn -0.28824 0.75361 -0.59075
vn -0.75826 0.14257 -0.63618
vn -0.50565 0.60052 -0.61944
vn -0.40033 0.70294 -0.58788
vn -0.35132 0.73813 -0.57596
vn -0.32443 0.75160 -0.57432
vn -0.30788 0.75502 -0.57892
vn -0.29446 0.75097 -0.59105
vn -0.75634 0.00000 -0.65417
vn -0.55921 0.49897 -0.66205
vn -0.44097 0.64750 -0.62152
vn -0.37938 0.70455 -0.59973
vn -0.34329 0.73040 -0.59048
vn -0.31954 0.74230 -0.58897
vn -0.29843 0.74669 -0.59447
vn -0.66225 -0.09604 -0.74310
vn -0.53818 0.41069 -0.73600
vn -0.43708 0.59477 -0.67470
vn -0.37913 0.67165 -0.63651
vn -0.34380 0.70938 -0.61529
vn -0.32005 0.72961 -0.60434
vn -0.29863 0.74241 -0.59970
vn -0.51461 -0.14373 -0.84529
vn -0.45886 0.36135 -0.81171
vn -0.39242 0.56341 -0.72703
vn -0.35132 0.65164 -0.67226
vn -0.32596 0.69647 -0.63928
vn -0.30925 0.72179 -0.61918
vn -0.29498 0.73977 -0.60475
vn -0.34002 -0.14373 -0.92937
vn -0.34852 0.36135 -0.86485
vn -0.32375 0.56341 -0.76010
vn -0.30655 0.65164 -0.69382
vn -0.29658 0.69647 -0.65343
vn -0.29128 0.72179 -0.62783
vn -0.28889 0.73977 -0.60768
vn -0.16808 -0.09604 -0.98108
vn -0.23988 0.41069 -0.87966
vn -0.25498 0.59477 -0.76239
vn -0.26127 0.67165 -0.69327
vn -0.26670 0.70938 -0.65242
vn -0.27295 0.72961 -0.62703
vn -0.28268 0.74241 -0.60738
vn -0.03988 -0.00000 -0.99920
vn -0.16895 0.49897 -0.84999
vn -0.21098 0.64750 -0.73227
vn -0.23235 0.70455 -0.67053
vn -0.24762 0.73040 -0.63655
vn -0.26125 0.74230 -0.61704
vn -0.27871 0.74669 -0.60397
vn -0.80607 0.00000 -0.59181
vn -0.74858 0.54905 -0.37171
vn -0.67664 0.68591 -0.26774
vn -0.64151 0.73567 -0.21739
vn -0.62453 0.75800 -0.18815
vn -0.61727 0.76852 -0.16842
vn -0.61664 0.77282 -0.14999
vn -0.78895 0.14257 -0.59768
vn -0.69492 0.63901 -0.32976
vn -0.63802 0.73204 -0.23886
vn -0.61533 0.76293 -0.19825
vn -0.60712 0.77497 -0.17557
vn -0.60659 0.77860 -0.16075
vn -0.61304 0.77618 -0.14740
vn -0.86920 0.29111 -0.39968
vn -0.67796 0.70063 -0.22244
vn -0.62323 0.76145 -0.17824
vn -0.60493 0.77998 -0.16025
vn -0.60011 0.78551 -0.15113
vn -0.60226 0.78484 -0.14598
vn -0.61157 0.77826 -0.14244
vn -0.95654 0.29111 -0.01703
vn -0.70734 0.70063 -0.09374
vn -0.63885 0.76145 -0.10982
vn -0.61456 0.77998 -0.11809
vn -0.60625 0.78551 -0.12422
vn -0.60596 0.78484 -0.12978
vn -0.61281 0.77826 -0.13701
vn -0.97015 0.14257 0.19618
vn -0.76918 0.63901 -0.00441
vn -0.67847 0.73204 -0.06163
vn -0.64041 0.76293 -0.08836
vn -0.62317 0.77497 -0.10524
vn -0.61626 0.77860 -0.11836
vn -0.61628 0.77618 -0.13318
vn -0.98303 0.00000 0.18346
vn -0.83573 0.54905 0.01010
vn -0.72580 0.68591 -0.05235
vn -0.67230 0.73567 -0.08248
vn -0.64431 0.75800 -0.10146
vn -0.62921 0.76852 -0.11608
vn -0.62065 0.77282 -0.13242
vn -0.99389 -0.09603 0.05445
vn -0.88207 0.46883 -0.04630
vn -0.76254 0.64148 -0.08387
vn -0.69794 0.70881 -0.10227
vn -0.66157 0.74113 -0.11421
vn -0.63986 0.75846 -0.12379
vn -0.62426 0.76946 -0.13501
vn -0.98173 -0.14373 -0.12469
vn -0.89410 0.42326 -0.14643
vn -0.77561 0.61481 -0.14292
vn -0.70782 0.69241 -0.13986
vn -0.66843 0.73076 -0.13854
vn -0.64415 0.75225 -0.13853
vn -0.62572 0.76739 -0.13996
vn -0.93861 -0.14373 -0.31362
vn -0.86909 0.42326 -0.25600
vn -0.76082 0.61481 -0.20776
vn -0.69841 0.69241 -0.18110
vn -0.66234 0.73076 -0.16520
vn -0.64047 0.75225 -0.15468
vn -0.62448 0.76739 -0.14539
vn -0.87184 -0.09603 -0.48029
vn -0.81481 0.46883 -0.34101
vn -0.72342 0.64148 -0.25529
vn -0.67320 0.70881 -0.21068
vn -0.64561 0.74113 -0.18415
vn -0.63020 0.75846 -0.16609
vn -0.62102 0.76946 -0.14922
vn -0.80607 -0.00000 -0.59181
vn -0.74858 0.54905 -0.37171
vn -0.67664 0.68591 -0.26774
vn -0.64151 0.73567 -0.21739
vn -0.62453 0.75800 -0.18815
vn -0.61727 0.76852 -0.16842
vn -0.61664 0.77282 -0.14999
vn -0.96528 0.00000 0.26122
vn -0.82866 0.43482 0.35251
vn -0.71267 0.59229 0.37590
vn -0.64576 0.65744 0.38828
vn -0.60653 0.68729 0.39969
vn -0.58243 0.70039 0.41258
vn -0.56376 0.70406 0.43182
vn -0.95919 0.14258 0.24418
vn -0.76364 0.54967 0.33870
vn -0.65691 0.66069 0.36326
vn -0.60494 0.70054 0.37854
vn -0.57819 0.71514 0.39277
vn -0.56457 0.71739 0.40818
vn -0.55761 0.70986 0.43032
vn -0.85442 0.29112 0.43037
vn -0.65468 0.63323 0.41281
vn -0.58325 0.70554 0.40252
vn -0.55509 0.72783 0.40266
vn -0.54476 0.73252 0.40824
vn -0.54382 0.72792 0.41760
vn -0.55051 0.71344 0.43353
vn -0.60970 0.29112 0.73723
vn -0.54814 0.63323 0.54641
vn -0.52222 0.70554 0.47906
vn -0.51608 0.72783 0.45158
vn -0.51923 0.73252 0.44026
vn -0.52814 0.72792 0.43726
vn -0.54516 0.71344 0.44024
vn -0.45150 0.14258 0.88081
vn -0.50014 0.54967 0.66912
vn -0.50033 0.66069 0.55961
vn -0.50366 0.70054 0.50554
vn -0.51158 0.71514 0.47630
vn -0.52357 0.71739 0.45959
vn -0.54361 0.70986 0.44788
vn -0.46947 0.00000 0.88295
vn -0.52806 0.43482 0.72944
vn -0.52506 0.59229 0.61115
vn -0.52224 0.65744 0.54317
vn -0.52464 0.68729 0.50238
vn -0.53184 0.70039 0.47602
vn -0.54645 0.70406 0.45353
vn -0.57711 -0.09604 0.81100
vn -0.60842 0.33814 0.71798
vn -0.58360 0.52842 0.61659
vn -0.56371 0.61558 0.55072
vn -0.55312 0.65977 0.50869
vn -0.54972 0.68345 0.48031
vn -0.55259 0.69827 0.45504
vn -0.70958 -0.14374 0.68980
vn -0.70583 0.28518 0.64844
vn -0.65256 0.49097 0.57716
vn -0.61196 0.59029 0.52637
vn -0.58609 0.64291 0.49312
vn -0.57039 0.67301 0.47086
vn -0.55970 0.69469 0.45183
vn -0.83041 -0.14374 0.53830
vn -0.78925 0.28518 0.54384
vn -0.70790 0.49097 0.50777
vn -0.64934 0.59029 0.47949
vn -0.61117 0.64291 0.46166
vn -0.58598 0.67301 0.45131
vn -0.56504 0.69469 0.44512
vn -0.91909 -0.09604 0.38217
vn -0.83536 0.33814 0.43340
vn -0.73099 0.52842 0.43177
vn -0.66235 0.61558 0.42703
vn -0.61901 0.65977 0.42606
vn -0.59059 0.68345 0.42906
vn -0.56660 0.69827 0.43748
vn -0.96528 -0.00000 0.26122
vn -0.82866 0.43482 0.35251
vn -0.71267 0.59229 0.37590
vn -0.64576 0.65744 0.38828
vn -0.60653 0.68729 0.39969
vn -0.58243 0.70039 0.41258
vn -0.56376 0.70406 0.43182
f 1/1/1 8/8/8 9/9/9
f 1/1/1 9/9/9 2/2/2
f 2/2/2 9/9/9 10/10/10
f 2/2/2 10/10/10 3/3/3
f 3/3/3 10/10/10 11/11/11
f 3/3/3 11/11/11 4/4/4
f 4/4/4 11/11/11 12/12/12
f 4/4/4 12/12/12 5/5/5
f 5/5/5 12/12/12 13/13/13
f 5/5/5 13/13/13 6/6/6
f 6/6/6 13/13/13 14/14/14
f 6/6/6 14/14/14 7/7/7
f 8/8/8 15/15/15 16/16/16
f 8/8/8 16/16/16 9/9/9
f 9/9/9 16/16/16 17/17/17
f 9/9/9 17/17/17 10/10/10
f 10/10/10 17/17/17 18/18/18
f 10/10/10 18/18/18 11/11/11
f 11/11/11 18/18/18 19/19/19
f 11/11/11 19/19/19 12/12/12
f 12/12/12 19/19/19 20/20/20
f 12/12/12 20/20/20 13/13/13
f 13/13/13 20/20/20 21/21/21
f 13/13/13 21/21/21 14/14/14
f 15/15/15 22/22/22 23/23/23
f 15/15/15 23/23/23 16/16/16
f 16/16/16 23/23/23 24/24/24
f 16/16/16 24/24/24 17/17/17
f 17/17/17 24/24/24 25/25/25
f 17/17/17 25/25/25 18/18/18
f 18/18/18 25/25/25 26/26/26
f 18/18/18 26/26/26 19/19/19
f 19/19/19 26/26/26 27/27/27
f 19/19/19 27/27/27 20/20/20
f 20/20/20 27/27/27 28/28/28
f 20/20/20 28/28/28 21/21/21
f 22/22/22 29/29/29 30/30/30
f 22/22/22 30/30/30 23/23/23
f 23/23/23 30/30/30 31/31/31
f 23/23/23 31/31/31 24/24/24
f 24/24/24 31/31/31 32/32/32
f 24/24/24 32/32/32 25/25/25
f 25/25/25 32/32/32 33/33/33
f 25/25/25 33/33/33 26/26/26
f 26/26/26 33/33/33 34/34/34
f 26/26/26 34/34/34 27/27/27
f 27/27/27 34/34/34 35/35/35
f 27/27/27 35/35/35 28/28/28
f 29/29/29 36/36/36 37/37/37
f 29/29/29 37/37/37 30/30/30
f 30/30/30 37/37/37 38/38/38
f 30/30/30 38/38/38 31/31/31
f 31/31/31 38/38/38 39/39/39
f 31/31/31 39/39/39 32/32/32
f 32/32/32 39/39/39 40/40/40
f 32/32/32 40/40/40 33/33/33
f 33/33/33 40/40/40 41/41/41
f 33/33/33 41/41/41 34/34/34
f 34/34/34 41/41/41 42/42/42
f 34/34/34 42/42/42 35/35/35
f 36/36/36 43/43/43 44/44/44
f 36/36/36 44/44/44 37/37/37
f 37/37/37 44/44/44 45/45/45
f 37/37/37 45/45/45 38/38/38
f 38/38/38 45/45/45 46/46/46
f 38/38/38 46/46/46 39/39/39
f 39/39/39 46/46/46 47/47/47
f 39/39/39 47/47/47 40/40/40
f 40/40/40 47/47/47 48/48/48
f 40/40/40 48/48/48 41/41/41
f 41/41/41 48/48/48 49/49/49
f 41/41/41 49/49/49 42/42/42
f 43/43/43 50/50/50 51/51/51
f 43/43/43 51/51/51 44/44/44
f 44/44/44 51/51/51 52/52/52
f 44/44/44 52/52/52 45/45/45
f 45/45/45 52/52/52 53/53/53
f 45/45/45 53/53/53 46/46/46
f 46/46/46 53/53/53 54/54/54
f 46/46/46 54/54/54 47/47/47
f 47/47/47 54/54/54 55/55/55
f 47/47/47 55/55/55 48/48/48
f 48/48/48 55/55/55 56/56/56
f 48/48/48 56/56/56 49/49/49
f 50/50/50 57/57/57 58/58/58
f 50/50/50 58/58/58 51/51/51
f 51/51/51 58/58/58 59/59/59
f 51/51/51 59/59/59 52/52/52
f 52/52/52 59/59/59 60/60/60
f 52/52/52 60/60/60 53/53/53
f 53/53/53 60/60/60 61/61/61
f 53/53/53 61/61/61 54/54/54
f 54/54/54 61/61/61 62/62/62
f 54/54/54 62/62/62 55/55/55
f 55/55/55 62/62/62 63/63/63
f 55/55/55 63/63/63 56/56/56
f 57/57/57 64/64/64 65/65/65
f 57/57/57 65/65/65 58/58/58
f 58/58/58 65/65/65 66/66/66
f 58/58/58 66/66/66 59/59/59
f 59/59/59 66/66/66 67/67/67
f 59/59/59 67/67/67 60/60/60
f 60/60/60 67/67/67 68/68/68
f 60/60/60 68/68/68 61/61/61
f 61/61/61 68/68/68 69/69/69
f 61/61/61 69/69/69 62/62/62
f 62/62/62 69/69/69 70/70/70
f 62/62/62 70/70/70 63/63/63
f 64/64/64 71/71/71 72/72/72
f 64/64/64 72/72/72 65/65/65
f 65/65/65 72/72/72 73/73/73
f 65/65/65 73/73/73 66/66/66
f 66/66/66 73/73/73 74/74/74
f 66/66/66 74/74/74 67/67/67
f 67/67/67 74/74/74 75/75/75
f 67/67/67 75/75/75 68/68/68
f 68/68/68 75/75/75 76/76/76
f 68/68/68 76/76/76 69/69/69
f 69/69/69 76/76/76 77/77/77
f 69/69/69 77/77/77 70/70/70
f 78/78/78 85/85/85 86/86/86
f 78/78/78 86/86/86 79/79/79
f 79/79/79 86/86/86 87/87/87
f 79/79/79 87/87/87 80/80/80
f 80/80/80 87/87/87 88/88/88
f 80/80/80 88/88/88 81/81/81
f 81/81/81 88/88/88 89/89/89
f 81/81/81 89/89/89 82/82/82
f 82/82/82 89/89/89 90/90/90
f 82/82/82 90/90/90 83/83/83
f 83/83/83 90/90/90 91/91/91
f 83/83/83 91/91/91 84/84/84
f 85/85/85 92/92/92 93/93/93
f 85/85/85 93/93/93 86/86/86
f 86/86/86 93/93/93 94/94/94
f 86/86/86 94/94/94 87/87/87
f 87/87/87 94/94/94 95/95/95
f 87/87/87 95/95/95 88/88/88
f 88/88/88 95/95/95 96/96/96
f 88/88/88 96/96/96 89/89/89
f 89/89/89 96/96/96 97/97/97
f 89/89/89 97/97/97 90/90/90
f 90/90/90 97/97/97 98/98/98
f 90/90/90 98/98/98 91/91/91
f 92/92/92 99/99/99 100/100/100
f 92/92/92 100/100/100 93/93/93
f 93/93/93 100/100/100 101/101/101
f 93/93/93 101/101/101 94/94/94
f 94/94/94 101/101/101 102/102/102
f 94/94/94 102/102/102 95/95/95
f 95/95/95 102/102/102 103/103/103
f 95/95/95 103/103/103 96/96/96
f 96/96/96 103/103/103 104/104/104
f 96/96/96 104/104/104 97/97/97
f 97/97/97 104/104/104 105/105/105
f 97/97/97 105/105/105 98/98/98
f 99/99/99 106/106/106 107/107/107
f 99/99/99 107/107/107 100/100/100
f 100/100/100 107/107/107 108/108/108
f 100/100/100 108/108/108 101/101/101
f 101/101/101 108/108/108 109/109/109
f 101/101/101 109/109/109 102/102/102
f 102/102/102 109/109/109 110/110/110
f 102/102/102 110/110/110 103/103/103
f 103/103/103 110/110/110 111/111/111
f 103/103/103 111/111/111 104/104/104
f 104/104/104 111/111/111 112/112/112
f 104/104/104 112/112/112 105/105/105
f 106/106/106 113/113/113 114/114/114
f 106/106/106 114/114/114 107/107/107
f 107/107/107 114/114/114 115/115/115
f 107/107/107 115/115/115 108/108/108
f 108/108/108 115/115/115 116/116/116
f 108/108/108 116/116/116 109/109/109
f 109/109/109 116/116/116 117/117/117
f 109/109/109 117/117/117 110/110/110
f 110/110/110 117/117/117 118/118/118
f 110/110/110 118/118/118 111/111/111
f 111/111/111 118/118/118 119/119/119
f 111/111/111 119/119/119 112/112/112
f 113/113/113 120/120/120 121/121/121
f 113/113/113 121/121/121 114/114/114
f 114/114/114 121/121/121 122/122/122
f 114/114/114 122/122/122 115/115/115
f 115/115/115 122/122/122 123/123/123
f 115/115/115 123/123/123 116/116/116
f 116/116/116 123/123/123 124/124/124
f 116/116/116 124/124/124 117/117/117
f 117/117/117 124/124/124 125/125/125
f 117/117/117 125/125/125 118/118/118
f 118/118/118 125/125/125 126/126/126
f 118/118/118 126/126/126 119/119/119
f 120/120/120 127/127/127 128/128/128
f 120/120/120 128/128/128 121/121/121
f 121/121/121 128/128/128 129/129/129
f 121/121/121 129/129/129 122/122/122
f 122/122/122 129/129/129 130/130/130
f 122/122/122 130/130/130 123/123/123
f 123/123/123 130/130/130 131/131/131
f 123/123/123 131/131/131 124/124/124
f 124/124/124 131/131/131 132/132/132
f 124/124/124 132/132/132 125/125/125
f 125/125/125 132/132/132 133/133/133
f 125/125/125 133/133/133 126/126/126
f 127/127/127 134/134/134 135/135/135
f 127/127/127 135/135/135 128/128/128
f 128/128/128 135/135/135 136/136/136
f 128/128/128 136/136/136 129/129/129
f 129/129/129 136/136/136 137/137/137
f 129/129/129 137/137/137 130/130/130
f 130/130/130 137/137/137 138/138/138
f 130/130/130 138/138/138 131/131/131
f 131/131/131 138/138/138 139/139/139
f 131/131/131 139/139/139 132/132/132
f 132/132/132 139/139/139 140/140/140
f 132/132/132 140/140/140 133/133/133
f 134/134/134 141/141/141 142/142/142
f 134/134/134 142/142/142 135/135/135
f 135/135/135 142/142/142 143/143/143
f 135/135/135 143/143/143 136/136/136
f 136/136/136 143/143/143 144/144/144
f 136/136/136 144/144/144 137/137/137
f 137/137/137 144/144/144 145/145/145
f 137/137/137 145/145/145 138/138/138
f 138/138/138 145/145/145 146/146/146
f 138/138/138 146/146/146 139/139/139
f 139/139/139 146/146/146 147/147/147
f 139/139/139 147/147/147 140/140/140
f 141/141/141 148/148/148 149/149/149
f 141/141/141 149/149/149 142/142/142
f 142/142/142 149/149/149 150/150/150
f 142/142/142 150/150/150 143/143/143
f 143/143/143 150/150/150 151/151/151
f 143/143/143 151/151/151 144/144/144
f 144/144/144 151/151/151 152/152/152
f 144/144/144 152/152/152 145/145/145
f 145/145/145 152/152/152 153/153/153
f 145/145/145 153/153/153 146/146/146
f 146/146/146 153/153/153 154/154/154
f 146/146/146 154/154/154 147/147/147
f 155/155/155 162/162/162 163/163/163
f 155/155/155 163/163/163 156/156/156
f 156/156/156 163/163/163 164/164/164
f 156/156/156 164/164/164 157/157/157
f 157/157/157 164/164/164 165/165/165
f 157/157/157 165/165/165 158/158/158
f 158/158/158 165/165/165 166/166/166
f 158/158/158 166/166/166 159/159/159
f 159/159/159 166/166/166 167/167/167
f 159/159/159 167/167/167 160/160/160
f 160/160/160 167/167/167 168/168/168
f 160/160/160 168/168/168 161/161/161
f 162/162/162 169/169/169 170/170/170
f 162/162/162 170/170/170 163/163/163
f 163/163/163 170/170/170 171/171/171
f 163/163/163 171/171/171 164/164/164
f 164/164/164 171/171/171 172/172/172
f 164/164/164 172/172/172 165/165/165
f 165/165/165 172/172/172 173/173/173
f 165/165/165 173/173/173 166/166/166
f 166/166/166 173/173/173 174/174/174
f 166/166/166 174/174/174 167/167/167
f 167/167/167 174/174/174 175/175/175
f 167/167/167 175/175/175 168/168/168
f 169/169/169 176/176/176 177/177/177
f 169/169/169 177/177/177 170/170/170
f 170/170/170 177/177/177 178/178/178
f 170/170/170 178/178/178 171/171/171
f 171/171/171 178/178/178 179/179/179
f 171/171/171 179/179/179 172/172/172
f 172/172/172 179/179/179 180/180/180
f 172/172/172 180/180/180 173/173/173
f 173/173/173 180/180/180 181/181/181
f 173/173/173 181/181/181 174/174/174
f 174/174/174 181/181/181 182/182/182
f 174/174/174 182/182/182 175/175/175
f 176/176/176 183/183/183 184/184/184
f 176/176/176 184/184/184 177/177/177
f 177/177/177 184/184/184 185/185/185
f 177/177/177 185/185/185 178/178/178
f 178/178/178 185/185/185 186/186/186
f 178/178/178 186/186/186 179/179/179
f 179/179/179 186/186/186 187/187/187
f 179/179/179 187/187/187 180/180/180
f 180/180/180 187/187/187 188/188/188
f 180/180/180 188/188/188 181/181/181
f 181/181/181 188/188/188 189/189/189
f 181/181/181 189/189/189 182/182/182
f 183/183/183 190/190/190 191/191/191
f 183/183/183 191/191/191 184/184/184
f 184/184/184 191/191/191 192/192/192
f 184/184/184 192/192/192 185/185/185
f 185/185/185 192/192/192 193/193/193
f 185/185/185 193/193/193 186/186/186
f 186/186/186 193/193/193 194/194/194
f 186/186/186 194/194/194 187/187/187
f 187/187/187 194/194/194 195/195/195
f 187/187/187 195/195/195 188/188/188
f 188/188/188 195/195/195 196/196/196
f 188/188/188 196/196/196 189/189/189
f 190/190/190 197/197/197 198/198/198
f 190/190/190 198/198/198 191/191/191
f 191/191/191 198/198/198 199/199/199
f 191/191/191 199/199/199 192/192/192
f 192/192/192 199/199/199 200/200/200
f 192/192/192 200/200/200 193/193/193
f 193/193/193 200/200/200 201/201/201
f 193/193/193 201/201/201 194/194/194
f 194/194/194 201/201/201 202/202/202
f 194/194/194 202/202/202 195/195/195
f 195/195/195 202/202/202 203/203/203
f 195/195/195 203/203/203 196/196/196
f 197/197/197 204/204/204 205/205/205
f 197/197/197 205/205/205 198/198/198
f 198/198/198 205/205/205 206/206/206
f 198/198/198 206/206/206 199/199/199
f 199/199/199 206/206/206 207/207/207
f 199/199/199 207/207/207 200/200/200
f 200/200/200 207/207/207 208/208/208
f 200/200/200 208/208/208 201/201/201
f 201/201/201 208/208/208 209/209/209
f 201/201/201 209/209/209 202/202/202
f 202/202/202 209/209/209 210/210/210
f 202/202/202 210/210/210 203/203/203
f 204/204/204 211/211/211 212/212/212
f 204/204/204 212/212/212 205/205/205
f 205/205/205 212/212/212 213/213/213
f 205/205/205 213/213/213 206/206/206
f 206/206/206 213/213/213 214/214/214
f 206/206/206 214/214/214 207/207/207
f 207/207/207 214/214/214 215/215/215
f 207/207/207 215/215/215 208/208/208
f 208/208/208 215/215/215 216/216/216
f 208/208/208 216/216/216 209/209/209
f 209/209/209 216/216/216 217/217/217
f 209/209/209 217/217/217 210/210/210
f 211/211/211 218/218/218 219/219/219
f 211/211/211 219/219/219 212/212/212
f 212/212/212 219/219/219 220/220/220
f 212/212/212 220/220/220 213/213/213
f 213/213/213 220/220/220 221/221/221
f 213/213/213 221/221/221 214/214/214
f 214/214/214 221/221/221 222/222/222
f 214/214/214 222/222/222 215/215/215
f 215/215/215 222/222/222 223/223/223
f 215/215/215 223/223/223 216/216/216
f 216/216/216 223/223/223 224/224/224
f 216/216/216 224/224/224 217/217/217
f 218/218/218 225/225/225 226/226/226
f 218/218/218 226/226/226 219/219/219
f 219/219/219 226/226/226 227/227/227
f 219/219/219 227/227/227 220/220/220
f 220/220/220 227/227/227 228/228/228
f 220/220/220 228/228/228 221/221/221
f 221/221/221 228/228/228 229/229/229
f 221/221/221 229/229/229 222/222/222
f 222/222/222 229/229/229 230/230/230
f 222/222/222 230/230/230 223/223/223
f 223/223/223 230/230/230 231/231/231
f 223/223/223 231/231/231 224/224/224
f 232/232/232 239/239/239 240/240/240
f 232/232/232 240/240/240 233/233/233
f 233/233/233 240/240/240 241/241/241
f 233/233/233 241/241/241 234/234/234
f 234/234/234 241/241/241 242/242/242
f 234/234/234 242/242/242 235/235/235
f 235/235/235 242/242/242 243/243/243
f 235/235/235 243/243/243 236/236/236
f 236/236/236 243/243/243 244/244/244
f 236/236/236 244/244/244 237/237/237
f 237/237/237 244/244/244 245/245/245
f 237/237/237 245/245/245 238/238/238
f 239/239/239 246/246/246 247/247/247
f 239/239/239 247/247/247 240/240/240
f 240/240/240 247/247/247 248/248/248
f 240/240/240 248/248/248 241/241/241
f 241/241/241 248/248/248 249/249/249
f 241/241/241 249/249/249 242/242/242
f 242/242/242 249/249/249 250/250/250
f 242/242/242 250/250/250 243/243/243
f 243/243/243 250/250/250 251/251/251
f 243/243/243 251/251/251 244/244/244
f 244/244/244 251/251/251 252/252/252
f 244/244/244 252/252/252 245/245/245
f 246/246/246 253/253/253 254/254/254
f 246/246/246 254/254/254 247/247/247
f 247/247/247 254/254/254 255/255/255
f 247/247/247 255/255/255 248/248/248
f 248/248/248 255/255/255 256/256/256
f 248/248/248 256/256/256 249/249/249
f 249/249/249 256/256/256 257/257/257
f 249/249/249 257/257/257 250/250/250
f 250/250/250 257/257/257 258/258/258
f 250/250/250 258/258/258 251/251/251
f 251/251/251 258/258/258 259/259/259
f 251/251/251 259/259/259 252/252/252
f 253/253/253 260/260/260 261/261/261
f 253/253/253 261/261/261 254/254/254
f 254/254/254 261/261/261 262/262/262
f 254/254/254 262/262/262 255/255/255
f 255/255/255 262/262/262 263/263/263
f 255/255/255 263/263/263 256/256/256
f 256/256/256 263/263/263 264/264/264
f 256/256/256 264/264/264 257/257/257
f 257/257/257 264/264/264 265/265/265
f 257/257/257 265/265/265 258/258/258
f 258/258/258 265/265/265 266/266/266
f 258/258/258 266/266/266 259/259/259
f 260/260/260 267/267/267 268/268/268
f 260/260/260 268/268/268 261/261/261
f 261/261/261 268/268/268 269/269/269
f 261/261/261 269/269/269 262/262/262
f 262/262/262 269/269/269 270/270/270
f 262/262/262 270/270/270 263/263/263
f 263/263/263 270/270/270 271/271/271
f 263/263/263 271/271/271 264/264/264
f 264/264/264 271/271/271 272/272/272
f 264/264/264 272/272/272 265/265/265
f 265/265/265 272/272/272 273/273/273
f 265/265/265 273/273/273 266/266/266
f 267/267/267 274/274/274 275/275/275
f 267/267/267 275/275/275 268/268/268
f 268/268/268 275/275/275 276/276/276
f 268/268/268 276/276/276 269/269/269
f 269/269/269 276/276/276 277/277/277
f 269/269/269 277/277/277 270/270/270
f 270/270/270 277/277/277 278/278/278
f 270/270/270 278/278/278 271/271/271
f 271/271/271 278/278/278 279/279/279
f 271/271/271 279/279/279 272/272/272
f 272/272/272 279/279/279 280/280/280
f 272/272/272 280/280/280 273/273/273
f 274/274/274 281/281/281 282/282/282
f 274/274/274 282/282/282 275/275/275
f 275/275/275 282/282/282 283/283/283
f 275/275/275 283/283/283 276/276/276
f 276/276/276 283/283/283 284/284/284
f 276/276/276 284/284/284 277/277/277
f 277/277/277 284/284/284 285/285/285
f 277/277/277 285/285/285 278/278/278
f 278/278/278 285/285/285 286/286/286
f 278/278/278 286/286/286 279/279/279
f 279/279/279 286/286/286 287/287/287
f 279/279/279 287/287/287 280/280/280
f 281/281/281 288/288/288 289/289/289
f 281/281/281 289/289/289 282/282/282
f 282/282/282 289/289/289 290/290/290
f 282/282/282 290/290/290 283/283/283
f 283/283/283 290/290/290 291/291/291
f 283/283/283 291/291/291 284/284/284
f 284/284/284 291/291/291 292/292/292
f 284/284/284 292/292/292 285/285/285
f 285/285/285 292/292/292 293/293/293
f 285/285/285 293/293/293 286/286/286
f 286/286/286 293/293/293 294/294/294
f 286/286/286 294/294/294 287/287/287
f 288/288/288 295/295/295 296/296/296
f 288/288/288 296/296/296 289/289/289
f 289/289/289 296/296/296 297/297/297
f 289/289/289 297/297/297 290/290/290
f 290/290/290 297/297/297 298/298/298
f 290/290/290 298/298/298 291/291/291
f 291/291/291 298/298/298 299/299/299
f 291/291/291 299/299/299 292/292/292
f 292/292/292 299/299/299 300/300/300
f 292/292/292 300/300/300 293/293/293
f 293/293/293 300/300/300 301/301/301
f 293/293/293 301/301/301 294/294/294
f 295/295/295 302/302/302 303/303/303
f 295/295/295 303/303/303 296/296/296
f 296/296/296 303/303/303 304/304/304
f 296/296/296 304/304/304 297/297/297
f 297/297/297 304/304/304 305/305/305
f 297/297/297 305/305/305 298/298/298
f 298/298/298 305/305/305 306/306/306
f 298/298/298 306/306/306 299/299/299
f 299/299/299 306/306/306 307/307/307
f 299/299/299 307/307/307 300/300/300
f 300/300/300 307/307/307 308/308/308
f 300/300/300 308/308/308 301/301/301
f 309/309/309 316/316/316 317/317/317
f 309/309/309 317/317/317 310/310/310
f 310/310/310 317/317/317 318/318/318
f 310/310/310 318/318/318 311/311/311
f 311/311/311 318/318/318 319/319/319
f 311/311/311 319/319/319 312/312/312
f 312/312/312 319/319/319 320/320/320
f 312/312/312 320/320/320 313/313/313
f 313/313/313 320/320/320 321/321/321
f 313/313/313 321/321/321 314/314/314
f 314/314/314 321/321/321 322/322/322
f 314/314/314 322/322/322 315/315/315
f 316/316/316 323/323/323 324/324/324
f 316/316/316 324/324/324 317/317/317
f 317/317/317 324/324/324 325/325/325
f 317/317/317 325/325/325 318/318/318
f 318/318/318 325/325/325 326/326/326
f 318/318/318 326/326/326 319/319/319
f 319/319/319 326/326/326 327/327/327
f 319/319/319 327/327/327 320/320/320
f 320/320/320 327/327/327 328/328/328
f 320/320/320 328/328/328 321/321/321
f 321/321/321 328/328/328 329/329/329
f 321/321/321 329/329/329 322/322/322
f 323/323/323 330/330/330 331/331/331
f 323/323/323 331/331/331 324/324/324
f 324/324/324 331/331/331 332/332/332
f 324/324/324 332/332/332 325/325/325
f 325/325/325 332/332/332 333/333/333
f 325/325/325 333/333/333 326/326/326
f 326/326/326 333/333/333 334/334/334
f 326/326/326 334/334/334 327/327/327
f 327/327/327 334/334/334 335/335/335
f 327/327/327 335/335/335 328/328/328
f 328/328/328 335/335/335 336/336/336
f 328/328/328 336/336/336 329/329/329
f 330/330/330 337/337/337 338/338/338
f 330/330/330 338/338/338 331/331/331
f 331/331/331 338/338/338 339/339/339
f 331/331/331 339/339/339 332/332/332
f 332/332/332 339/339/339 340/340/340
f 332/332/332 340/340/340 333/333/333
f 333/333/333 340/340/340 341/341/341
f 333/333/333 341/341/341 334/334/334
f 334/334/334 341/341/341 342/342/342
f 334/334/334 342/342/342 335/335/335
f 335/335/335 342/342/342 343/343/343
f 335/335/335 343/343/343 336/336/336
f 337/337/337 344/344/344 345/345/345
f 337/337/337 345/345/345 338/338/338
f 338/338/338 345/345/345 346/346/346
f 338/338/338 346/346/346 339/339/339
f 339/339/339 346/346/346 347/347/347
f 339/339/339 347/347/347 340/340/340
f 340/340/340 347/347/347 348/348/348
f 340/340/340 348/348/348 341/341/341
f 341/341/341 348/348/348 349/349/349
f 341/341/341 349/349/349 342/342/342
f 342/342/342 349/349/349 350/350/350
f 342/342/342 350/350/350 343/343/343
f 344/344/344 351/351/351 352/352/352
f 344/344/344 352/352/352 345/345/345
f 345/345/345 352/352/352 353/353/353
f 345/345/345 353/353/353 346/346/346
f 346/346/346 353/353/353 354/354/354
f 346/346/346 354/354/354 347/347/347
f 347/347/347 354/354/354 355/355/355
f 347/347/347 355/355/355 348/348/348
f 348/348/348 355/355/355 356/356/356
f 348/348/348 356/356/356 349/349/349
f 349/349/349 356/356/356 357/357/357
f 349/349/349 357/357/357 350/350/350
f 351/351/351 358/358/358 359/359/359
f 351/351/351 359/359/359 352/352/352
f 352/352/352 359/359/359 360/360/360
f 352/352/352 360/360/360 353/353/353
f 353/353/353 360/360/360 361/361/361
f 353/353/353 361/361/361 354/354/354
f 354/354/354 361/361/361 362/362/362
f 354/354/354 362/362/362 355/355/355
f 355/355/355 362/362/362 363/363/363
f 355/355/355 363/363/363 356/356/356
f 356/356/356 363/363/363 364/364/364
f 356/356/356 364/364/364 357/357/357
f 358/358/358 365/365/365 366/366/366
f 358/358/358 366/366/366 359/359/359
f 359/359/359 366/366/366 367/367/367
f 359/359/359 367/367/367 360/360/360
f 360/360/360 367/367/367 368/368/368
f 360/360/360 368/368/368 361/361/361
f 361/361/361 368/368/368 369/369/369
f 361/361/361 369/369/369 362/362/362
f 362/362/362 369/369/369 370/370/370
f 362/362/362 370/370/370 363/363/363
f 363/363/363 370/370/370 371/371/371
f 363/363/363 371/371/371 364/364/364
f 365/365/365 372/372/372 373/373/373
f 365/365/365 373/373/373 366/366/366
f 366/366/366 373/373/373 374/374/374
f 366/366/366 374/374/374 367/367/367
f 367/367/367 374/374/374 375/375/375
f 367/367/367 375/375/375 368/368/368
f 368/368/368 375/375/375 376/376/376
f 368/368/368 376/376/376 369/369/369
f 369/369/369 376/376/376 377/377/377
f 369/369/369 377/377/377 370/370/370
f 370/370/370 377/377/377 378/378/378
f 370/370/370 378/378/378 371/371/371
f 372/372/372 379/379/379 380/380/380
f 372/372/372 380/380/380 373/373/373
f 373/373/373 380/380/380 381/381/381
f 373/373/373 381/381/381 374/374/374
f 374/374/374 381/381/381 382/382/382
f 374/374/374 382/382/382 375/375/375
f 375/375/375 382/382/382 383/383/383
f 375/375/375 383/383/383 376/376/376
f 376/376/376 383/383/383 384/384/384
f 376/376/376 384/384/384 377/377/377
f 377/377/377 384/384/384 385/385/385
f 377/377/377 385/385/385 378/378/378
f 386/386/386 393/393/393 394/394/394
f 386/386/386 394/394/394 387/387/387
f 387/387/387 394/394/394 395/395/395
f 387/387/387 395/395/395 388/388/388
f 388/388/388 395/395/395 396/396/396
f 388/388/388 396/396/396 389/389/389
f 389/389/389 396/396/396 397/397/397
f 389/389/389 397/397/397 390/390/390
f 390/390/390 397/397/397 398/398/398
f 390/390/390 398/398/398 391/391/391
f 391/391/391 398/398/398 399/399/399
f 391/391/391 399/399/399 392/392/392
f 393/393/393 400/400/400 401/401/401
f 393/393/393 401/401/401 394/394/394
f 394/394/394 401/401/401 402/402/402
f 394/394/394 402/402/402 395/395/395
f 395/395/395 402/402/402 403/403/403
f 395/395/395 403/403/403 396/396/396
f 396/396/396 403/403/403 404/404/404
f 396/396/396 404/404/404 397/397/397
f 397/397/397 404/404/404 405/405/405
f 397/397/397 405/405/405 398/398/398
f 398/398/398 405/405/405 406/406/406
f 398/398/398 406/406/406 399/399/399
f 400/400/400 407/407/407 408/408/408
f 400/400/400 408/408/408 401/401/401
f 401/401/401 408/408/408 409/409/409
f 401/401/401 409/409/409 402/402/402
f 402/402/402 409/409/409 410/410/410
f 402/402/402 410/410/410 403/403/403
f 403/403/403 410/410/410 411/411/411
f 403/403/403 411/411/411 404/404/404
f 404/404/404 411/411/411 412/412/412
f 404/404/404 412/412/412 405/405/405
f 405/405/405 412/412/412 413/413/413
f 405/405/405 413/413/413 406/406/406
f 407/407/407 414/414/414 415/415/415
f 407/407/407 415/415/415 408/408/408
f 408/408/408 415/415/415 416/416/416
f 408/408/408 416/416/416 409/409/409
f 409/409/409 416/416/416 417/417/417
f 409/409/409 417/417/417 410/410/410
f 410/410/410 417/417/417 418/418/418
f 410/410/410 418/418/418 411/411/411
f 411/411/411 418/418/418 419/419/419
f 411/411/411 419/419/419 412/412/412
f 412/412/412 419/419/419 420/420/420
f 412/412/412 420/420/420 413/413/413
f 414/414/414 421/421/421 422/422/422
f 414/414/414 422/422/422 415/415/415
f 415/415/415 422/422/422 423/423/423
f 415/415/415 423/423/423 416/416/416
f 416/416/416 423/423/423 424/424/424
f 416/416/416 424/424/424 417/417/417
f 417/417/417 424/424/424 425/425/425
f 417/417/417 425/425/425 418/418/418
f 418/418/418 425/425/425 426/426/426
f 418/418/418 426/426/426 419/419/419
f 419/419/419 426/426/426 427/427/427
f 419/419/419 427/427/427 420/420/420
f 421/421/421 428/428/428 429/429/429
f 421/421/421 429/429/429 422/422/422
f 422/422/422 429/429/429 430/430/430
f 422/422/422 430/430/430 423/423/423
f 423/423/423 430/430/430 431/431/431
f 423/423/423 431/431/431 424/424/424
f 424/424/424 431/431/431 432/432/432
f 424/424/424 432/432/432 425/425/425
f 425/425/425 432/432/432 433/433/433
f 425/425/425 433/433/433 426/426/426
f 426/426/426 433/433/433 434/434/434
f 426/426/426 434/434/434 427/427/427
f 428/428/428 435/435/435 436/436/436
f 428/428/428 436/436/436 429/429/429
f 429/429/429 436/436/436 437/437/437
f 429/429/429 437/437/437 430/430/430
f 430/430/430 437/437/437 438/438/438
f 430/430/430 438/438/438 431/431/431
f 431/431/431 438/438/438 439/439/439
f 431/431/431 439/439/439 432/432/432
f 432/432/432 439/439/439 440/440/440
f 432/432/432 440/440/440 433/433/433
f 433/433/433 440/440/440 441/441/441
f 433/433/433 441/441/441 434/434/434
f 435/435/435 442/442/442 443/443/443
f 435/435/435 443/443/443 436/436/436
f 436/436/436 443/443/443 444/444/444
f 436/436/436 444/444/444 437/437/437
f 437/437/437 444/444/444 445/445/445
f 437/437/437 445/445/445 438/438/438
f 438/438/438 445/445/445 446/446/446
f 438/438/438 446/446/446 439/439/439
f 439/439/439 446/446/446 447/447/447
f 439/439/439 447/447/447 440/440/440
f 440/440/440 447/447/447 448/448/448
f 440/440/440 448/448/448 441/441/441
f 442/442/442 449/449/449 450/450/450
f 442/442/442 450/450/450 443/443/443
f 443/443/443 450/450/450 451/451/451
f 443/443/443 451/451/451 444/444/444
f 444/444/444 451/451/451 452/452/452
f 444/444/444 452/452/452 445/445/445
f 445/445/445 452/452/452 453/453/453
f 445/445/445 453/453/453 446/446/446
f 446/446/446 453/453/453 454/454/454
f 446/446/446 454/454/454 447/447/447
f 447/447/447 454/454/454 455/455/455
f 447/447/447 455/455/455 448/448/448
f 449/449/449 456/456/456 457/457/457
f 449/449/449 457/457/457 450/450/450
f 450/450/450 457/457/457 458/458/458
f 450/450/450 458/458/458 451/451/451
f 451/451/451 458/458/458 459/459/459
f 451/451/451 459/459/459 452/452/452
f 452/452/452 459/459/459 460/460/460
f 452/452/452 460/460/460 453/453/453
f 453/453/453 460/460/460 461/461/461
f 453/453/453 461/461/461 454/454/454
f 454/454/454 461/461/461 462/462/462
f 454/454/454 462/462/462 455/455/455
f 463/463/463 470/470/470 471/471/471
f 463/463/463 471/471/471 464/464/464
f 464/464/464 471/471/471 472/472/472
f 464/464/464 472/472/472 465/465/465
f 465/465/465 472/472/472 473/473/473
f 465/465/465 473/473/473 466/466/466
f 466/466/466 473/473/473 474/474/474
f 466/466/466 474/474/474 467/467/467
f 467/467/467 474/474/474 475/475/475
f 467/467/467 475/475/475 468/468/468
f 468/468/468 475/475/475 476/476/476
f 468/468/468 476/476/476 469/469/469
f 470/470/470 477/477/477 478/478/478
f 470/470/470 478/478/478 471/471/471
f 471/471/471 478/478/478 479/479/479
f 471/471/471 479/479/479 472/472/472
f 472/472/472 479/479/479 480/480/480
f 472/472/472 480/480/480 473/473/473
f 473/473/473 480/480/480 481/481/481
f 473/473/473 481/481/481 474/474/474
f 474/474/474 481/481/481 482/482/482
f 474/474/474 482/482/482 475/475/475
f 475/475/475 482/482/482 483/483/483
f 475/475/475 483/483/483 476/476/476
f 477/477/477 484/484/484 485/485/485
f 477/477/477 485/485/485 478/478/478
f 478/478/478 485/485/485 486/486/486
f 478/478/478 486/486/486 479/479/479
f 479/479/479 486/486/486 487/487/487
f 479/479/479 487/487/487 480/480/480
f 480/480/480 487/487/487 488/488/488
f 480/480/480 488/488/488 481/481/481
f 481/481/481 488/488/488 489/489/489
f 481/481/481 489/489/489 482/482/482
f 482/482/482 489/489/489 490/490/490
f 482/482/482 490/490/490 483/483/483
f 484/484/484 491/491/491 492/492/492
f 484/484/484 492/492/492 485/485/485
f 485/485/485 492/492/492 493/493/493
f 485/485/485 493/493/493 486/486/486
f 486/486/486 493/493/493 494/494/494
f 486/486/486 494/494/494 487/487/487
f 487/487/487 494/494/494 495/495/495
f 487/487/487 495/495/495 488/488/488
f 488/488/488 495/495/495 496/496/496
f 488/488/488 496/496/496 489/489/489
f 489/489/489 496/496/496 497/497/497
f 489/489/489 497/497/497 490/490/490
f 491/491/491 498/498/498 499/499/499
f 491/491/491 499/499/499 492/492/492
f 492/492/492 499/499/499 500/500/500
f 492/492/492 500/500/500 493/493/493
f 493/493/493 500/500/500 501/501/501
f 493/493/493 501/501/501 494/494/494
f 494/494/494 501/501/501 502/502/502
f 494/494/494 502/502/502 495/495/495
f 495/495/495 502/502/502 503/503/503
f 495/495/495 503/503/503 496/496/496
f 496/496/496 503/503/503 504/504/504
f 496/496/496 504/504/504 497/497/497
f 498/498/498 505/505/505 506/506/506
f 498/498/498 506/506/506 499/499/499
f 499/499/499 506/506/506 507/507/507
f 499/499/499 507/507/507 500/500/500
f 500/500/500 507/507/507 508/508/508
f 500/500/500 508/508/508 501/501/501
f 501/501/501 508/508/508 509/509/509
f 501/501/501 509/509/509 502/502/502
f 502/502/502 509/509/509 510/510/510
f 502/502/502 510/510/510 503/503/503
f 503/503/503 510/510/510 511/511/511
f 503/503/503 511/511/511 504/504/504
f 505/505/505 512/512/512 513/513/513
f 505/505/505 513/513/513 506/506/506
f 506/506/506 513/513/513 514/514/514
f 506/506/506 514/514/514 507/507/507
f 507/507/507 514/514/514 515/515/515
f 507/507/507 515/515/515 508/508/508
f 508/508/508 515/515/515 516/516/516
f 508/508/508 516/516/516 509/509/509
f 509/509/509 516/516/516 517/517/517
f 509/509/509 517/517/517 510/510/510
f 510/510/510 517/517/517 518/518/518
f 510/510/510 518/518/518 511/511/511
f 512/512/512 519/519/519 520/520/520
f 512/512/512 520/520/520 513/513/513
f 513/513/513 520/520/520 521/521/521
f 513/513/513 521/521/521 514/514/514
f 514/514/514 521/521/521 522/522/522
f 514/514/514 522/522/522 515/515/515
f 515/515/515 522/522/522 523/523/523
f 515/515/515 523/523/523 516/516/516
f 516/516/516 523/523/523 524/524/524
f 516/516/516 524/524/524 517/517/517
f 517/517/517 524/524/524 525/525/525
f 517/517/517 525/525/525 518/518/518
f 519/519/519 526/526/526 527/527/527
f 519/519/519 527/527/527 520/520/520
f 520/520/520 527/527/527 528/528/528
f 520/520/520 528/528/528 521/521/521
f 521/521/521 528/528/528 529/529/529
f 521/521/521 529/529/529 522/522/522
f 522/522/522 529/529/529 530/530/530
f 522/522/522 530/530/530 523/523/523
f 523/523/523 530/530/530 531/531/531
f 523/523/523 531/531/531 524/524/524
f 524/524/524 531/531/531 532/532/532
f 524/524/524 532/532/532 525/525/525
f 526/526/526 533/533/533 534/534/534
f 526/526/526 534/534/534 527/527/527
f 527/527/527 534/534/534 535/535/535
f 527/527/527 535/535/535 528/528/528
f 528/528/528 535/535/535 536/536/536
f 528/528/528 536/536/536 529/529/529
f 529/529/529 536/536/536 537/537/537
f 529/529/529 537/537/537 530/530/530
f 530/530/530 537/537/537 538/538/538
f 530/530/530 538/538/538 531/531/531
f 531/531/531 538/538/538 539/539/539
f 531/531/531 539/539/539 532/532/532
