# procedural asset
v 0.00000 0.00000 -0.04500
v 0.00000 0.57500 -0.04500
v 0.00000 1.15000 -0.04500
v 0.00000 1.72500 -0.04500
v 0.00000 2.30000 -0.04500
v 0.02645 0.00000 -0.03641
v 0.02645 0.57500 -0.03641
v 0.02645 1.15000 -0.03641
v 0.02645 1.72500 -0.03641
v 0.02645 2.30000 -0.03641
v 0.04280 0.00000 -0.01391
v 0.04280 0.57500 -0.01391
v 0.04280 1.15000 -0.01391
v 0.04280 1.72500 -0.01391
v 0.04280 2.30000 -0.01391
v 0.04280 0.00000 0.01391
v 0.04280 0.57500 0.01391
v 0.04280 1.15000 0.01391
v 0.04280 1.72500 0.01391
v 0.04280 2.30000 0.01391
v 0.02645 0.00000 0.03641
v 0.02645 0.57500 0.03641
v 0.02645 1.15000 0.03641
v 0.02645 1.72500 0.03641
v 0.02645 2.30000 0.03641
v 0.00000 0.00000 0.04500
v 0.00000 0.57500 0.04500
v 0.00000 1.15000 0.04500
v 0.00000 1.72500 0.04500
v 0.00000 2.30000 0.04500
v -0.02645 0.00000 0.03641
v -0.02645 0.57500 0.03641
v -0.02645 1.15000 0.03641
v -0.02645 1.72500 0.03641
v -0.02645 2.30000 0.03641
v -0.04280 0.00000 0.01391
v -0.04280 0.57500 0.01391
v -0.04280 1.15000 0.01391
v -0.04280 1.72500 0.01391
v -0.04280 2.30000 0.01391
v -0.04280 0.00000 -0.01391
v -0.04280 0.57500 -0.01391
v -0.04280 1.15000 -0.01391
v -0.04280 1.72500 -0.01391
v -0.04280 2.30000 -0.01391
v -0.02645 0.00000 -0.03641
v -0.02645 0.57500 -0.03641
v -0.02645 1.15000 -0.03641
v -0.02645 1.72500 -0.03641
v -0.02645 2.30000 -0.03641
v -0.00000 0.00000 -0.04500
v -0.00000 0.57500 -0.04500
v -0.00000 1.15000 -0.04500
v -0.00000 1.72500 -0.04500
v -0.00000 2.30000 -0.04500
v -0.31000 2.04000 -0.02000
v -0.31000 2.04000 0.02000
v -0.31000 2.66000 0.02000
v -0.31000 2.04000 -0.02000
v -0.31000 2.66000 0.02000
v -0.31000 2.66000 -0.02000
v 0.31000 2.04000 -0.02000
v 0.31000 2.66000 -0.02000
v 0.31000 2.66000 0.02000
v 0.31000 2.04000 -0.02000
v 0.31000 2.66000 0.02000
v 0.31000 2.04000 0.02000
v -0.31000 2.04000 -0.02000
v 0.31000 2.04000 -0.02000
v 0.31000 2.04000 0.02000
v -0.31000 2.04000 -0.02000
v 0.31000 2.04000 0.02000
v -0.31000 2.04000 0.02000
v -0.31000 2.66000 -0.02000
v -0.31000 2.66000 0.02000
v 0.31000 2.66000 0.02000
v -0.31000 2.66000 -0.02000
v 0.31000 2.66000 0.02000
v 0.31000 2.66000 -0.02000
v -0.31000 2.04000 -0.02000
v -0.31000 2.66000 -0.02000
v 0.31000 2.66000 -0.02000
v -0.31000 2.04000 -0.02000
v 0.31000 2.66000 -0.02000
v 0.31000 2.04000 -0.02000
v -0.31000 2.04000 0.02000
v 0.31000 2.04000 0.02000
v 0.31000 2.66000 0.02000
v -0.31000 2.04000 0.02000
v 0.31000 2.66000 0.02000
v -0.31000 2.66000 0.02000
vt 0.00000 0.00000
vt 0.00000 0.25000
vt 0.00000 0.50000
vt 0.00000 0.75000
vt 0.00000 1.00000
vt 0.10000 0.00000
vt 0.10000 0.25000
vt 0.10000 0.50000
vt 0.10000 0.75000
vt 0.10000 1.00000
vt 0.20000 0.00000
vt 0.20000 0.25000
vt 0.20000 0.50000
vt 0.20000 0.75000
vt 0.20000 1.00000
vt 0.30000 0.00000
vt 0.30000 0.25000
vt 0.30000 0.50000
vt 0.30000 0.75000
vt 0.30000 1.00000
vt 0.40000 0.00000
vt 0.40000 0.25000
vt 0.40000 0.50000
vt 0.40000 0.75000
vt 0.40000 1.00000
vt 0.50000 0.00000
vt 0.50000 0.25000
vt 0.50000 0.50000
vt 0.50000 0.75000
vt 0.50000 1.00000
vt 0.60000 0.00000
vt 0.60000 0.25000
vt 0.60000 0.50000
vt 0.60000 0.75000
vt 0.60000 1.00000
vt 0.70000 0.00000
vt 0.70000 0.25000
vt 0.70000 0.50000
vt 0.70000 0.75000
vt 0.70000 1.00000
vt 0.80000 0.00000
vt 0.80000 0.25000
vt 0.80000 0.50000
vt 0.80000 0.75000
vt 0.80000 1.00000
vt 0.90000 0.00000
vt 0.90000 0.25000
vt 0.90000 0.50000
vt 0.90000 0.75000
vt 0.90000 1.00000
vt 1.00000 0.00000
vt 1.00000 0.25000
vt 1.00000 0.50000
vt 1.00000 0.75000
vt 1.00000 1.00000
vt 0.00000 0.00000
vt 0.00000 0.00000
vt 0.00000 0.00000
vt 0.00000 0.00000
vt 0.00000 0.00000
vt 0.00000 0.00000
vt 0.00000 0.00000
vt 0.00000 0.00000
vt 0.00000 0.00000
vt 0.00000 0.00000
vt 0.00000 0.00000
vt 0.00000 0.00000
vt 0.00000 0.00000
vt 0.00000 0.00000
vt 0.00000 0.00000
vt 0.00000 0.00000
vt 0.00000 0.00000
vt 0.00000 0.00000
vt 0.00000 0.00000
vt 0.00000 0.00000
vt 0.00000 0.00000
vt 0.00000 0.00000
vt 0.00000 0.00000
vt 0.00000 0.00000
vt 0.00000 0.00000
vt 0.00000 0.00000
vt 0.00000 0.00000
vt 0.00000 0.00000
vt 0.00000 0.00000
vt 0.00000 0.00000
vt 0.00000 0.00000
vt 0.00000 0.00000
vt 0.00000 0.00000
vt 0.00000 0.00000
vt 0.00000 0.00000
vt 0.00000 0.00000
vn 0.00000 0.00000 -1.00000
vn -0.00314 0.00000 1.00000
vn -0.00314 0.00000 1.00000
vn -0.00314 0.00000 1.00000
vn 0.00000 0.99981 -0.01956
vn -0.58779 0.00000 0.80902
vn -0.58779 0.00000 0.80902
vn -0.58779 0.00000 0.80902
vn -0.58779 0.00000 0.80902
vn -0.58779 0.00000 0.80902
vn -0.95106 0.00000 0.30902
vn -0.95106 0.00000 0.30902
vn -0.95106 0.00000 0.30902
vn -0.95106 0.00000 0.30902
vn -0.95106 0.00000 0.30902
vn -0.95106 0.00000 -0.30902
vn -0.95106 0.00000 -0.30902
vn -0.95106 0.00000 -0.30902
vn -0.95106 0.00000 -0.30902
vn -0.95106 0.00000 -0.30902
vn -0.58779 0.00000 -0.80902
vn -0.58779 0.00000 -0.80902
vn -0.58779 0.00000 -0.80902
vn -0.58779 0.00000 -0.80902
vn -0.58779 0.00000 -0.80902
vn 0.00000 0.00000 -1.00000
vn 0.00000 0.00000 -1.00000
vn 0.00000 0.00000 -1.00000
vn 0.00000 0.00000 -1.00000
vn 0.00000 0.00000 -1.00000
vn 0.58779 0.00000 -0.80902
vn 0.58779 0.00000 -0.80902
vn 0.58779 0.00000 -0.80902
vn 0.58779 0.00000 -0.80902
vn 0.58779 0.00000 -0.80902
vn 0.95106 0.00000 -0.30902
vn 0.95106 0.00000 -0.30902
vn 0.95106 0.00000 -0.30902
vn 0.95106 0.00000 -0.30902
vn 0.95106 0.00000 -0.30902
vn 0.95106 -0.00000 0.30902
vn 0.95106 -0.00000 0.30902
vn 0.95106 -0.00000 0.30902
vn 0.95106 -0.00000 0.30902
vn 0.95106 -0.00000 0.30902
vn 0.58779 -0.00000 0.80902
vn 0.58779 -0.00000 0.80902
vn 0.58779 -0.00000 0.80902
vn 0.58779 -0.00000 0.80902
vn 0.58779 -0.00000 0.80902
vn -0.00000 0.00000 -1.00000
vn 0.00314 -0.00000 1.00000
vn 0.00314 -0.00000 1.00000
vn 0.00314 -0.00000 1.00000
vn -0.00000 0.99981 -0.01956
vn -1.00000 0.00000 0.00000
vn -1.00000 0.00000 0.00000
vn -1.00000 0.00000 0.00000
vn -1.00000 0.00000 0.00000
vn -1.00000 0.00000 0.00000
vn -1.00000 0.00000 0.00000
vn 1.00000 0.00000 0.00000
vn 1.00000 0.00000 0.00000
vn 1.00000 0.00000 0.00000
vn 1.00000 0.00000 0.00000
vn 1.00000 0.00000 0.00000
vn 1.00000 0.00000 0.00000
vn 0.00000 -1.00000 0.00000
vn 0.00000 -1.00000 0.00000
vn 0.00000 -1.00000 0.00000
vn 0.00000 -1.00000 0.00000
vn 0.00000 -1.00000 0.00000
vn 0.00000 -1.00000 0.00000
vn 0.00000 1.00000 0.00000
vn 0.00000 1.00000 0.00000
vn 0.00000 1.00000 0.00000
vn 0.00000 1.00000 0.00000
vn 0.00000 1.00000 0.00000
vn 0.00000 1.00000 0.00000
vn 0.00000 0.00000 -1.00000
vn 0.00000 0.00000 -1.00000
vn 0.00000 0.00000 -1.00000
vn 0.00000 0.00000 -1.00000
vn 0.00000 0.00000 -1.00000
vn 0.00000 0.00000 -1.00000
vn 0.00000 0.00000 1.00000
vn 0.00000 0.00000 1.00000
vn 0.00000 0.00000 1.00000
vn 0.00000 0.00000 1.00000
vn 0.00000 0.00000 1.00000
vn 0.00000 0.00000 1.00000
f 1/1/1 6/6/6 7/7/7
f 1/1/1 7/7/7 2/2/2
f 2/2/2 7/7/7 8/8/8
f 2/2/2 8/8/8 3/3/3
f 3/3/3 8/8/8 9/9/9
f 3/3/3 9/9/9 4/4/4
f 4/4/4 9/9/9 10/10/10
f 4/4/4 10/10/10 5/5/5
f 6/6/6 11/11/11 12/12/12
f 6/6/6 12/12/12 7/7/7
f 7/7/7 12/12/12 13/13/13
f 7/7/7 13/13/13 8/8/8
f 8/8/8 13/13/13 14/14/14
f 8/8/8 14/14/14 9/9/9
f 9/9/9 14/14/14 15/15/15
f 9/9/9 15/15/15 10/10/10
f 11/11/11 16/16/16 17/17/17
f 11/11/11 17/17/17 12/12/12
f 12/12/12 17/17/17 18/18/18
f 12/12/12 18/18/18 13/13/13
f 13/13/13 18/18/18 19/19/19
f 13/13/13 19/19/19 14/14/14
f 14/14/14 19/19/19 20/20/20
f 14/14/14 20/20/20 15/15/15
f 16/16/16 21/21/21 22/22/22
f 16/16/16 22/22/22 17/17/17
f 17/17/17 22/22/22 23/23/23
f 17/17/17 23/23/23 18/18/18
f 18/18/18 23/23/23 24/24/24
f 18/18/18 24/24/24 19/19/19
f 19/19/19 24/24/24 25/25/25
f 19/19/19 25/25/25 20/20/20
f 21/21/21 26/26/26 27/27/27
f 21/21/21 27/27/27 22/22/22
f 22/22/22 27/27/27 28/28/28
f 22/22/22 28/28/28 23/23/23
f 23/23/23 28/28/28 29/29/29
f 23/23/23 29/29/29 24/24/24
f 24/24/24 29/29/29 30/30/30
f 24/24/24 30/30/30 25/25/25
f 26/26/26 31/31/31 32/32/32
f 26/26/26 32/32/32 27/27/27
f 27/27/27 32/32/32 33/33/33
f 27/27/27 33/33/33 28/28/28
f 28/28/28 33/33/33 34/34/34
f 28/28/28 34/34/34 29/29/29
f 29/29/29 34/34/34 35/35/35
f 29/29/29 35/35/35 30/30/30
f 31/31/31 36/36/36 37/37/37
f 31/31/31 37/37/37 32/32/32
f 32/32/32 37/37/37 38/38/38
f 32/32/32 38/38/38 33/33/33
f 33/33/33 38/38/38 39/39/39
f 33/33/33 39/39/39 34/34/34
f 34/34/34 39/39/39 40/40/40
f 34/34/34 40/40/40 35/35/35
f 36/36/36 41/41/41 42/42/42
f 36/36/36 42/42/42 37/37/37
f 37/37/37 42/42/42 43/43/43
f 37/37/37 43/43/43 38/38/38
f 38/38/38 43/43/43 44/44/44
f 38/38/38 44/44/44 39/39/39
f 39/39/39 44/44/44 45/45/45
f 39/39/39 45/45/45 40/40/40
f 41/41/41 46/46/46 47/47/47
f 41/41/41 47/47/47 42/42/42
f 42/42/42 47/47/47 48/48/48
f 42/42/42 48/48/48 43/43/43
f 43/43/43 48/48/48 49/49/49
f 43/43/43 49/49/49 44/44/44
f 44/44/44 49/49/49 50/50/50
f 44/44/44 50/50/50 45/45/45
f 46/46/46 51/51/51 52/52/52
f 46/46/46 52/52/52 47/47/47
f 47/47/47 52/52/52 53/53/53
f 47/47/47 53/53/53 48/48/48
f 48/48/48 53/53/53 54/54/54
f 48/48/48 54/54/54 49/49/49
f 49/49/49 54/54/54 55/55/55
f 49/49/49 55/55/55 50/50/50
f 56/56/56 57/57/57 58/58/58
f 59/59/59 60/60/60 61/61/61
f 62/62/62 63/63/63 64/64/64
f 65/65/65 66/66/66 67/67/67
f 68/68/68 69/69/69 70/70/70
f 71/71/71 72/72/72 73/73/73
f 74/74/74 75/75/75 76/76/76
f 77/77/77 78/78/78 79/79/79
f 80/80/80 81/81/81 82/82/82
f 83/83/83 84/84/84 85/85/85
f 86/86/86 87/87/87 88/88/88
f 89/89/89 90/90/90 91/91/91
