# procedural asset
v -1.20000 0.00000 -1.00000
v -1.20000 0.00000 1.00000
v -1.20000 2.20000 1.00000
v -1.20000 0.00000 -1.00000
v -1.20000 2.20000 1.00000
v -1.20000 2.20000 -1.00000
v 1.20000 0.00000 -1.00000
v 1.20000 2.20000 -1.00000
v 1.20000 2.20000 1.00000
v 1.20000 0.00000 -1.00000
v 1.20000 2.20000 1.00000
v 1.20000 0.00000 1.00000
v -1.20000 0.00000 -1.00000
v 1.20000 0.00000 -1.00000
v 1.20000 0.00000 1.00000
v -1.20000 0.00000 -1.00000
v 1.20000 0.00000 1.00000
v -1.20000 0.00000 1.00000
v -1.20000 2.20000 -1.00000
v -1.20000 2.20000 1.00000
v 1.20000 2.20000 1.00000
v -1.20000 2.20000 -1.00000
v 1.20000 2.20000 1.00000
v 1.20000 2.20000 -1.00000
v -1.20000 0.00000 -1.00000
v -1.20000 2.20000 -1.00000
v 1.20000 2.20000 -1.00000
v -1.20000 0.00000 -1.00000
v 1.20000 2.20000 -1.00000
v 1.20000 0.00000 -1.00000
v -1.20000 0.00000 1.00000
v 1.20000 0.00000 1.00000
v 1.20000 2.20000 1.00000
v -1.20000 0.00000 1.00000
v 1.20000 2.20000 1.00000
v -1.20000 2.20000 1.00000
v 0.00000 2.20000 0.00000
v 0.20556 2.29444 0.00000
v 0.41111 2.38889 0.00000
v 0.61667 2.48333 0.00000
v 0.82222 2.57778 0.00000
v 1.02778 2.67222 0.00000
v 1.23333 2.76667 0.00000
v 1.43889 2.86111 0.00000
v 1.64444 2.95556 0.00000
v 1.85000 3.05000 0.00000
v 1.64444 3.05000 0.00000
v 1.43889 3.05000 0.00000
v 1.23333 3.05000 0.00000
v 1.02778 3.05000 0.00000
v 0.82222 3.05000 0.00000
v 0.61667 3.05000 0.00000
v 0.41111 3.05000 0.00000
v 0.20556 3.05000 0.00000
v 0.00000 3.05000 0.00000
v 0.00000 2.20000 0.00000
v 0.00000 2.29444 0.20556
v 0.00000 2.38889 0.41111
v 0.00000 2.48333 0.61667
v 0.00000 2.57778 0.82222
v 0.00000 2.67222 1.02778
v 0.00000 2.76667 1.23333
v 0.00000 2.86111 1.43889
v 0.00000 2.95556 1.64444
v 0.00000 3.05000 1.85000
v 0.00000 3.05000 1.64444
v 0.00000 3.05000 1.43889
v 0.00000 3.05000 1.23333
v 0.00000 3.05000 1.02778
v 0.00000 3.05000 0.82222
v 0.00000 3.05000 0.61667
v 0.00000 3.05000 0.41111
v 0.00000 3.05000 0.20556
v 0.00000 3.05000 0.00000
v 0.00000 2.20000 0.00000
v -0.20556 2.29444 0.00000
v -0.41111 2.38889 0.00000
v -0.61667 2.48333 0.00000
v -0.82222 2.57778 0.00000
v -1.02778 2.67222 0.00000
v -1.23333 2.76667 0.00000
v -1.43889 2.86111 0.00000
v -1.64444 2.95556 0.00000
v -1.85000 3.05000 0.00000
v -1.64444 3.05000 0.00000
v -1.43889 3.05000 0.00000
v -1.23333 3.05000 0.00000
v -1.02778 3.05000 0.00000
v -0.82222 3.05000 0.00000
v -0.61667 3.05000 0.00000
v -0.41111 3.05000 0.00000
v -0.20556 3.05000 0.00000
v 0.00000 3.05000 0.00000
v 0.00000 2.20000 0.00000
v -0.00000 2.29444 -0.20556
v -0.00000 2.38889 -0.41111
v -0.00000 2.48333 -0.61667
v -0.00000 2.57778 -0.82222
v -0.00000 2.67222 -1.02778
v -0.00000 2.76667 -1.23333
v -0.00000 2.86111 -1.43889
v -0.00000 2.95556 -1.64444
v -0.00000 3.05000 -1.85000
v -0.00000 3.05000 -1.64444
v -0.00000 3.05000 -1.43889
v -0.00000 3.05000 -1.23333
v -0.00000 3.05000 -1.02778
v -0.00000 3.05000 -0.82222
v -0.00000 3.05000 -0.61667
v -0.00000 3.05000 -0.41111
v -0.00000 3.05000 -0.20556
v 0.00000 3.05000 0.00000
v 0.00000 2.20000 0.00000
v 0.20556 2.29444 -0.00000
v 0.41111 2.38889 -0.00000
v 0.61667 2.48333 -0.00000
v 0.82222 2.57778 -0.00000
v 1.02778 2.67222 -0.00000
v 1.23333 2.76667 -0.00000
v 1.43889 2.86111 -0.00000
v 1.64444 2.95556 -0.00000
v 1.85000 3.05000 -0.00000
v 1.64444 3.05000 -0.00000
v 1.43889 3.05000 -0.00000
v 1.23333 3.05000 -0.00000
v 1.02778 3.05000 -0.00000
v 0.82222 3.05000 -0.00000
v 0.61667 3.05000 -0.00000
v 0.41111 3.05000 -0.00000
v 0.20556 3.05000 -0.00000
v 0.00000 3.05000 0.00000
v -0.35000 0.00000 0.97000
v -0.35000 0.00000 1.05000
v -0.35000 1.10000 1.05000
v -0.35000 0.00000 0.97000
v -0.35000 1.10000 1.05000
v -0.35000 1.10000 0.97000
v 0.35000 0.00000 0.97000
v 0.35000 1.10000 0.97000
v 0.35000 1.10000 1.05000
v 0.35000 0.00000 0.97000
v 0.35000 1.10000 1.05000
v 0.35000 0.00000 1.05000
v -0.35000 0.00000 0.97000
v 0.35000 0.00000 0.97000
v 0.35000 0.00000 1.05000
v -0.35000 0.00000 0.97000
v 0.35000 0.00000 1.05000
v -0.35000 0.00000 1.05000
v -0.35000 1.10000 0.97000
v -0.35000 1.10000 1.05000
v 0.35000 1.10000 1.05000
v -0.35000 1.10000 0.97000
v 0.35000 1.10000 1.05000
v 0.35000 1.10000 0.97000
v -0.35000 0.00000 0.97000
v -0.35000 1.10000 0.97000
v 0.35000 1.10000 0.97000
v -0.35000 0.00000 0.97000
v 0.35000 1.10000 0.97000
v 0.35000 0.00000 0.97000
v -0.35000 0.00000 1.05000
v 0.35000 0.00000 1.05000
v 0.35000 1.10000 1.05000
v -0.35000 0.00000 1.05000
v 0.35000 1.10000 1.05000
v -0.35000 1.10000 1.05000
vt 0.00000 0.00000
vt 0.00000 0.00000
vt 0.00000 0.00000
vt 0.00000 0.00000
vt 0.00000 0.00000
vt 0.00000 0.00000
vt 0.00000 0.00000
vt 0.00000 0.00000
vt 0.00000 0.00000
vt 0.00000 0.00000
vt 0.00000 0.00000
vt 0.00000 0.00000
vt 0.00000 0.00000
vt 0.00000 0.00000
vt 0.00000 0.00000
vt 0.00000 0.00000
vt 0.00000 0.00000
vt 0.00000 0.00000
vt 0.00000 0.00000
vt 0.00000 0.00000
vt 0.00000 0.00000
vt 0.00000 0.00000
vt 0.00000 0.00000
vt 0.00000 0.00000
vt 0.00000 0.00000
vt 0.00000 0.00000
vt 0.00000 0.00000
vt 0.00000 0.00000
vt 0.00000 0.00000
vt 0.00000 0.00000
vt 0.00000 0.00000
vt 0.00000 0.00000
vt 0.00000 0.00000
vt 0.00000 0.00000
vt 0.00000 0.00000
vt 0.00000 0.00000
vt 0.00000 0.00000
vt 0.00000 0.05556
vt 0.00000 0.11111
vt 0.00000 0.16667
vt 0.00000 0.22222
vt 0.00000 0.27778
vt 0.00000 0.33333
vt 0.00000 0.38889
vt 0.00000 0.44444
vt 0.00000 0.50000
vt 0.00000 0.55556
vt 0.00000 0.61111
vt 0.00000 0.66667
vt 0.00000 0.72222
vt 0.00000 0.77778
vt 0.00000 0.83333
vt 0.00000 0.88889
vt 0.00000 0.94444
vt 0.00000 1.00000
vt 0.25000 0.00000
vt 0.25000 0.05556
vt 0.25000 0.11111
vt 0.25000 0.16667
vt 0.25000 0.22222
vt 0.25000 0.27778
vt 0.25000 0.33333
vt 0.25000 0.38889
vt 0.25000 0.44444
vt 0.25000 0.50000
vt 0.25000 0.55556
vt 0.25000 0.61111
vt 0.25000 0.66667
vt 0.25000 0.72222
vt 0.25000 0.77778
vt 0.25000 0.83333
vt 0.25000 0.88889
vt 0.25000 0.94444
vt 0.25000 1.00000
vt 0.50000 0.00000
vt 0.50000 0.05556
vt 0.50000 0.11111
vt 0.50000 0.16667
vt 0.50000 0.22222
vt 0.50000 0.27778
vt 0.50000 0.33333
vt 0.50000 0.38889
vt 0.50000 0.44444
vt 0.50000 0.50000
vt 0.50000 0.55556
vt 0.50000 0.61111
vt 0.50000 0.66667
vt 0.50000 0.72222
vt 0.50000 0.77778
vt 0.50000 0.83333
vt 0.50000 0.88889
vt 0.50000 0.94444
vt 0.50000 1.00000
vt 0.75000 0.00000
vt 0.75000 0.05556
vt 0.75000 0.11111
vt 0.75000 0.16667
vt 0.75000 0.22222
vt 0.75000 0.27778
vt 0.75000 0.33333
vt 0.75000 0.38889
vt 0.75000 0.44444
vt 0.75000 0.50000
vt 0.75000 0.55556
vt 0.75000 0.61111
vt 0.75000 0.66667
vt 0.75000 0.72222
vt 0.75000 0.77778
vt 0.75000 0.83333
vt 0.75000 0.88889
vt 0.75000 0.94444
vt 0.75000 1.00000
vt 1.00000 0.00000
vt 1.00000 0.05556
vt 1.00000 0.11111
vt 1.00000 0.16667
vt 1.00000 0.22222
vt 1.00000 0.27778
vt 1.00000 0.33333
vt 1.00000 0.38889
vt 1.00000 0.44444
vt 1.00000 0.50000
vt 1.00000 0.55556
vt 1.00000 0.61111
vt 1.00000 0.66667
vt 1.00000 0.72222
vt 1.00000 0.77778
vt 1.00000 0.83333
vt 1.00000 0.88889
vt 1.00000 0.94444
vt 1.00000 1.00000
vt 0.00000 0.00000
vt 0.00000 0.00000
vt 0.00000 0.00000
vt 0.00000 0.00000
vt 0.00000 0.00000
vt 0.00000 0.00000
vt 0.00000 0.00000
vt 0.00000 0.00000
vt 0.00000 0.00000
vt 0.00000 0.00000
vt 0.00000 0.00000
vt 0.00000 0.00000
vt 0.00000 0.00000
vt 0.00000 0.00000
vt 0.00000 0.00000
vt 0.00000 0.00000
vt 0.00000 0.00000
vt 0.00000 0.00000
vt 0.00000 0.00000
vt 0.00000 0.00000
vt 0.00000 0.00000
vt 0.00000 0.00000
vt 0.00000 0.00000
vt 0.00000 0.00000
vt 0.00000 0.00000
vt 0.00000 0.00000
vt 0.00000 0.00000
vt 0.00000 0.00000
vt 0.00000 0.00000
vt 0.00000 0.00000
vt 0.00000 0.00000
vt 0.00000 0.00000
vt 0.00000 0.00000
vt 0.00000 0.00000
vt 0.00000 0.00000
vt 0.00000 0.00000
vn -1.00000 0.00000 0.00000
vn -1.00000 0.00000 0.00000
vn -1.00000 0.00000 0.00000
vn -1.00000 0.00000 0.00000
vn -1.00000 0.00000 0.00000
vn -1.00000 0.00000 0.00000
vn 1.00000 0.00000 0.00000
vn 1.00000 0.00000 0.00000
vn 1.00000 0.00000 0.00000
vn 1.00000 0.00000 0.00000
vn 1.00000 0.00000 0.00000
vn 1.00000 0.00000 0.00000
vn 0.00000 -1.00000 0.00000
vn 0.00000 -1.00000 0.00000
vn 0.00000 -1.00000 0.00000
vn 0.00000 -1.00000 0.00000
vn 0.00000 -1.00000 0.00000
vn 0.00000 -1.00000 0.00000
vn 0.00000 1.00000 0.00000
vn 0.00000 1.00000 0.00000
vn 0.00000 1.00000 0.00000
vn 0.00000 1.00000 0.00000
vn 0.00000 1.00000 0.00000
vn 0.00000 1.00000 0.00000
vn 0.00000 0.00000 -1.00000
vn 0.00000 0.00000 -1.00000
vn 0.00000 0.00000 -1.00000
vn 0.00000 0.00000 -1.00000
vn 0.00000 0.00000 -1.00000
vn 0.00000 0.00000 -1.00000
vn 0.00000 0.00000 1.00000
vn 0.00000 0.00000 1.00000
vn 0.00000 0.00000 1.00000
vn 0.00000 0.00000 1.00000
vn 0.00000 0.00000 1.00000
vn 0.00000 0.00000 1.00000
vn 0.00000 1.00000 0.00000
vn -0.41750 0.90868 -0.00131
vn -0.41750 0.90868 -0.00131
vn -0.41750 0.90868 -0.00131
vn -0.41750 0.90868 -0.00131
vn -0.41750 0.90868 -0.00131
vn -0.41750 0.90868 -0.00131
vn -0.41750 0.90868 -0.00131
vn -0.41750 0.90868 -0.00131
vn -1.00000 0.00000 -0.00314
vn 0.00000 -1.00000 0.00000
vn 0.00000 -1.00000 0.00000
vn 0.00000 -1.00000 0.00000
vn 0.00000 -1.00000 0.00000
vn 0.00000 -1.00000 0.00000
vn 0.00000 -1.00000 0.00000
vn 0.00000 -1.00000 0.00000
vn 0.00000 -1.00000 0.00000
vn 0.00000 1.00000 0.00000
vn 0.00000 1.00000 0.00000
vn 0.00000 0.90868 -0.41750
vn 0.00000 0.90868 -0.41750
vn 0.00000 0.90868 -0.41750
vn 0.00000 0.90868 -0.41750
vn 0.00000 0.90868 -0.41750
vn 0.00000 0.90868 -0.41750
vn 0.00000 0.90868 -0.41750
vn 0.00000 0.90868 -0.41750
vn 0.00000 0.00000 -1.00000
vn -0.00000 -1.00000 0.00000
vn -0.00000 -1.00000 0.00000
vn -0.00000 -1.00000 0.00000
vn -0.00000 -1.00000 0.00000
vn -0.00000 -1.00000 0.00000
vn -0.00000 -1.00000 0.00000
vn -0.00000 -1.00000 0.00000
vn -0.00000 -1.00000 0.00000
vn 0.00000 1.00000 0.00000
vn 0.00000 1.00000 0.00000
vn 0.41750 0.90868 0.00000
vn 0.41750 0.90868 0.00000
vn 0.41750 0.90868 0.00000
vn 0.41750 0.90868 0.00000
vn 0.41750 0.90868 0.00000
vn 0.41750 0.90868 0.00000
vn 0.41750 0.90868 0.00000
vn 0.41750 0.90868 0.00000
vn 1.00000 -0.00000 0.00000
vn 0.00000 -1.00000 0.00000
vn 0.00000 -1.00000 0.00000
vn 0.00000 -1.00000 0.00000
vn 0.00000 -1.00000 0.00000
vn 0.00000 -1.00000 0.00000
vn 0.00000 -1.00000 0.00000
vn 0.00000 -1.00000 0.00000
vn 0.00000 -1.00000 0.00000
vn 0.00000 1.00000 0.00000
vn 0.00000 1.00000 0.00000
vn -0.00000 0.90868 0.41750
vn -0.00000 0.90868 0.41750
vn -0.00000 0.90868 0.41750
vn -0.00000 0.90868 0.41750
vn -0.00000 0.90868 0.41750
vn -0.00000 0.90868 0.41750
vn -0.00000 0.90868 0.41750
vn -0.00000 0.90868 0.41750
vn 0.00000 0.00000 1.00000
vn 0.00000 -1.00000 0.00000
vn 0.00000 -1.00000 0.00000
vn 0.00000 -1.00000 0.00000
vn 0.00000 -1.00000 0.00000
vn 0.00000 -1.00000 0.00000
vn 0.00000 -1.00000 0.00000
vn 0.00000 -1.00000 0.00000
vn 0.00000 -1.00000 0.00000
vn 0.00000 1.00000 0.00000
vn 0.00000 1.00000 0.00000
vn -0.41750 0.90868 0.00131
vn -0.41750 0.90868 0.00131
vn -0.41750 0.90868 0.00131
vn -0.41750 0.90868 0.00131
vn -0.41750 0.90868 0.00131
vn -0.41750 0.90868 0.00131
vn -0.41750 0.90868 0.00131
vn -0.41750 0.90868 0.00131
vn -1.00000 0.00000 0.00314
vn 0.00000 -1.00000 0.00000
vn 0.00000 -1.00000 0.00000
vn 0.00000 -1.00000 0.00000
vn 0.00000 -1.00000 0.00000
vn 0.00000 -1.00000 0.00000
vn 0.00000 -1.00000 0.00000
vn 0.00000 -1.00000 0.00000
vn 0.00000 -1.00000 0.00000
vn 0.00000 1.00000 0.00000
vn -1.00000 0.00000 0.00000
vn -1.00000 0.00000 0.00000
vn -1.00000 0.00000 0.00000
vn -1.00000 0.00000 0.00000
vn -1.00000 0.00000 0.00000
vn -1.00000 0.00000 0.00000
vn 1.00000 0.00000 0.00000
vn 1.00000 0.00000 0.00000
vn 1.00000 0.00000 0.00000
vn 1.00000 0.00000 0.00000
vn 1.00000 0.00000 0.00000
vn 1.00000 0.00000 0.00000
vn 0.00000 -1.00000 0.00000
vn 0.00000 -1.00000 0.00000
vn 0.00000 -1.00000 0.00000
vn 0.00000 -1.00000 0.00000
vn 0.00000 -1.00000 0.00000
vn 0.00000 -1.00000 0.00000
vn 0.00000 1.00000 0.00000
vn 0.00000 1.00000 0.00000
vn 0.00000 1.00000 0.00000
vn 0.00000 1.00000 0.00000
vn 0.00000 1.00000 0.00000
vn 0.00000 1.00000 0.00000
vn 0.00000 0.00000 -1.00000
vn 0.00000 0.00000 -1.00000
vn 0.00000 0.00000 -1.00000
vn 0.00000 0.00000 -1.00000
vn 0.00000 0.00000 -1.00000
vn 0.00000 0.00000 -1.00000
vn 0.00000 0.00000 1.00000
vn 0.00000 0.00000 1.00000
vn 0.00000 0.00000 1.00000
vn 0.00000 0.00000 1.00000
vn 0.00000 0.00000 1.00000
vn 0.00000 0.00000 1.00000
f 1/1/1 2/2/2 3/3/3
f 4/4/4 5/5/5 6/6/6
f 7/7/7 8/8/8 9/9/9
f 10/10/10 11/11/11 12/12/12
f 13/13/13 14/14/14 15/15/15
f 16/16/16 17/17/17 18/18/18
f 19/19/19 20/20/20 21/21/21
f 22/22/22 23/23/23 24/24/24
f 25/25/25 26/26/26 27/27/27
f 28/28/28 29/29/29 30/30/30
f 31/31/31 32/32/32 33/33/33
f 34/34/34 35/35/35 36/36/36
f 37/37/37 56/56/56 57/57/57
f 37/37/37 57/57/57 38/38/38
f 38/38/38 57/57/57 58/58/58
f 38/38/38 58/58/58 39/39/39
f 39/39/39 58/58/58 59/59/59
f 39/39/39 59/59/59 40/40/40
f 40/40/40 59/59/59 60/60/60
f 40/40/40 60/60/60 41/41/41
f 41/41/41 60/60/60 61/61/61
f 41/41/41 61/61/61 42/42/42
f 42/42/42 61/61/61 62/62/62
f 42/42/42 62/62/62 43/43/43
f 43/43/43 62/62/62 63/63/63
f 43/43/43 63/63/63 44/44/44
f 44/44/44 63/63/63 64/64/64
f 44/44/44 64/64/64 45/45/45
f 45/45/45 64/64/64 65/65/65
f 45/45/45 65/65/65 46/46/46
f 46/46/46 65/65/65 66/66/66
f 46/46/46 66/66/66 47/47/47
f 47/47/47 66/66/66 67/67/67
f 47/47/47 67/67/67 48/48/48
f 48/48/48 67/67/67 68/68/68
f 48/48/48 68/68/68 49/49/49
f 49/49/49 68/68/68 69/69/69
f 49/49/49 69/69/69 50/50/50
f 50/50/50 69/69/69 70/70/70
f 50/50/50 70/70/70 51/51/51
f 51/51/51 70/70/70 71/71/71
f 51/51/51 71/71/71 52/52/52
f 52/52/52 71/71/71 72/72/72
f 52/52/52 72/72/72 53/53/53
f 53/53/53 72/72/72 73/73/73
f 53/53/53 73/73/73 54/54/54
f 54/54/54 73/73/73 74/74/74
f 54/54/54 74/74/74 55/55/55
f 56/56/56 75/75/75 76/76/76
f 56/56/56 76/76/76 57/57/57
f 57/57/57 76/76/76 77/77/77
f 57/57/57 77/77/77 58/58/58
f 58/58/58 77/77/77 78/78/78
f 58/58/58 78/78/78 59/59/59
f 59/59/59 78/78/78 79/79/79
f 59/59/59 79/79/79 60/60/60
f 60/60/60 79/79/79 80/80/80
f 60/60/60 80/80/80 61/61/61
f 61/61/61 80/80/80 81/81/81
f 61/61/61 81/81/81 62/62/62
f 62/62/62 81/81/81 82/82/82
f 62/62/62 82/82/82 63/63/63
f 63/63/63 82/82/82 83/83/83
f 63/63/63 83/83/83 64/64/64
f 64/64/64 83/83/83 84/84/84
f 64/64/64 84/84/84 65/65/65
f 65/65/65 84/84/84 85/85/85
f 65/65/65 85/85/85 66/66/66
f 66/66/66 85/85/85 86/86/86
f 66/66/66 86/86/86 67/67/67
f 67/67/67 86/86/86 87/87/87
f 67/67/67 87/87/87 68/68/68
f 68/68/68 87/87/87 88/88/88
f 68/68/68 88/88/88 69/69/69
f 69/69/69 88/88/88 89/89/89
f 69/69/69 89/89/89 70/70/70
f 70/70/70 89/89/89 90/90/90
f 70/70/70 90/90/90 71/71/71
f 71/71/71 90/90/90 91/91/91
f 71/71/71 91/91/91 72/72/72
f 72/72/72 91/91/91 92/92/92
f 72/72/72 92/92/92 73/73/73
f 73/73/73 92/92/92 93/93/93
f 73/73/73 93/93/93 74/74/74
f 75/75/75 94/94/94 95/95/95
f 75/75/75 95/95/95 76/76/76
f 76/76/76 95/95/95 96/96/96
f 76/76/76 96/96/96 77/77/77
f 77/77/77 96/96/96 97/97/97
f 77/77/77 97/97/97 78/78/78
f 78/78/78 97/97/97 98/98/98
f 78/78/78 98/98/98 79/79/79
f 79/79/79 98/98/98 99/99/99
f 79/79/79 99/99/99 80/80/80
f 80/80/80 99/99/99 100/100/100
f 80/80/80 100/100/100 81/81/81
f 81/81/81 100/100/100 101/101/101
f 81/81/81 101/101/101 82/82/82
f 82/82/82 101/101/101 102/102/102
f 82/82/82 102/102/102 83/83/83
f 83/83/83 102/102/102 103/103/103
f 83/83/83 103/103/103 84/84/84
f 84/84/84 103/103/103 104/104/104
f 84/84/84 104/104/104 85/85/85
f 85/85/85 104/104/104 105/105/105
f 85/85/85 105/105/105 86/86/86
f 86/86/86 105/105/105 106/106/106
f 86/86/86 106/106/106 87/87/87
f 87/87/87 106/106/106 107/107/107
f 87/87/87 107/107/107 88/88/88
f 88/88/88 107/107/107 108/108/108
f 88/88/88 108/108/108 89/89/89
f 89/89/89 108/108/108 109/109/109
f 89/89/89 109/109/109 90/90/90
f 90/90/90 109/109/109 110/110/110
f 90/90/90 110/110/110 91/91/91
f 91/91/91 110/110/110 111/111/111
f 91/91/91 111/111/111 92/92/92
f 92/92/92 111/111/111 112/112/112
f 92/92/92 112/112/112 93/93/93
f 94/94/94 113/113/113 114/114/114
f 94/94/94 114/114/114 95/95/95
f 95/95/95 114/114/114 115/115/115
f 95/95/95 115/115/115 96/96/96
f 96/96/96 115/115/115 116/116/116
f 96/96/96 116/116/116 97/97/97
f 97/97/97 116/116/116 117/117/117
f 97/97/97 117/117/117 98/98/98
f 98/98/98 117/117/117 118/118/118
f 98/98/98 118/118/118 99/99/99
f 99/99/99 118/118/118 119/119/119
f 99/99/99 119/119/119 100/100/100
f 100/100/100 119/119/119 120/120/120
f 100/100/100 120/120/120 101/101/101
f 101/101/101 120/120/120 121/121/121
f 101/101/101 121/121/121 102/102/102
f 102/102/102 121/121/121 122/122/122
f 102/102/102 122/122/122 103/103/103
f 103/103/103 122/122/122 123/123/123
f 103/103/103 123/123/123 104/104/104
f 104/104/104 123/123/123 124/124/124
f 104/104/104 124/124/124 105/105/105
f 105/105/105 124/124/124 125/125/125
f 105/105/105 125/125/125 106/106/106
f 106/106/106 125/125/125 126/126/126
f 106/106/106 126/126/126 107/107/107
f 107/107/107 126/126/126 127/127/127
f 107/107/107 127/127/127 108/108/108
f 108/108/108 127/127/127 128/128/128
f 108/108/108 128/128/128 109/109/109
f 109/109/109 128/128/128 129/129/129
f 109/109/109 129/129/129 110/110/110
f 110/110/110 129/129/129 130/130/130
f 110/110/110 130/130/130 111/111/111
f 111/111/111 130/130/130 131/131/131
f 111/111/111 131/131/131 112/112/112
f 132/132/132 133/133/133 134/134/134
f 135/135/135 136/136/136 137/137/137
f 138/138/138 139/139/139 140/140/140
f 141/141/141 142/142/142 143/143/143
f 144/144/144 145/145/145 146/146/146
f 147/147/147 148/148/148 149/149/149
f 150/150/150 151/151/151 152/152/152
f 153/153/153 154/154/154 155/155/155
f 156/156/156 157/157/157 158/158/158
f 159/159/159 160/160/160 161/161/161
f 162/162/162 163/163/163 164/164/164
f 165/165/165 166/166/166 167/167/167
