# procedural asset
v -0.04000 0.05000 -0.04000
v -0.04000 0.05000 0.04000
v -0.04000 1.05000 0.04000
v -0.04000 0.05000 -0.04000
v -0.04000 1.05000 0.04000
v -0.04000 1.05000 -0.04000
v 0.04000 0.05000 -0.04000
v 0.04000 1.05000 -0.04000
v 0.04000 1.05000 0.04000
v 0.04000 0.05000 -0.04000
v 0.04000 1.05000 0.04000
v 0.04000 0.05000 0.04000
v -0.04000 0.05000 -0.04000
v 0.04000 0.05000 -0.04000
v 0.04000 0.05000 0.04000
v -0.04000 0.05000 -0.04000
v 0.04000 0.05000 0.04000
v -0.04000 0.05000 0.04000
v -0.04000 1.05000 -0.04000
v -0.04000 1.05000 0.04000
v 0.04000 1.05000 0.04000
v -0.04000 1.05000 -0.04000
v 0.04000 1.05000 0.04000
v 0.04000 1.05000 -0.04000
v -0.04000 0.05000 -0.04000
v -0.04000 1.05000 -0.04000
v 0.04000 1.05000 -0.04000
v -0.04000 0.05000 -0.04000
v 0.04000 1.05000 -0.04000
v 0.04000 0.05000 -0.04000
v -0.04000 0.05000 0.04000
v 0.04000 0.05000 0.04000
v 0.04000 1.05000 0.04000
v -0.04000 0.05000 0.04000
v 0.04000 1.05000 0.04000
v -0.04000 1.05000 0.04000
v 1.10286 0.05000 -0.04000
v 1.10286 0.05000 0.04000
v 1.10286 1.05000 0.04000
v 1.10286 0.05000 -0.04000
v 1.10286 1.05000 0.04000
v 1.10286 1.05000 -0.04000
v 1.18286 0.05000 -0.04000
v 1.18286 1.05000 -0.04000
v 1.18286 1.05000 0.04000
v 1.18286 0.05000 -0.04000
v 1.18286 1.05000 0.04000
v 1.18286 0.05000 0.04000
v 1.10286 0.05000 -0.04000
v 1.18286 0.05000 -0.04000
v 1.18286 0.05000 0.04000
v 1.10286 0.05000 -0.04000
v 1.18286 0.05000 0.04000
v 1.10286 0.05000 0.04000
v 1.10286 1.05000 -0.04000
v 1.10286 1.05000 0.04000
v 1.18286 1.05000 0.04000
v 1.10286 1.05000 -0.04000
v 1.18286 1.05000 0.04000
v 1.18286 1.05000 -0.04000
v 1.10286 0.05000 -0.04000
v 1.10286 1.05000 -0.04000
v 1.18286 1.05000 -0.04000
v 1.10286 0.05000 -0.04000
v 1.18286 1.05000 -0.04000
v 1.18286 0.05000 -0.04000
v 1.10286 0.05000 0.04000
v 1.18286 0.05000 0.04000
v 1.18286 1.05000 0.04000
v 1.10286 0.05000 0.04000
v 1.18286 1.05000 0.04000
v 1.10286 1.05000 0.04000
v 2.24571 0.05000 -0.04000
v 2.24571 0.05000 0.04000
v 2.24571 1.05000 0.04000
v 2.24571 0.05000 -0.04000
v 2.24571 1.05000 0.04000
v 2.24571 1.05000 -0.04000
v 2.32571 0.05000 -0.04000
v 2.32571 1.05000 -0.04000
v 2.32571 1.05000 0.04000
v 2.32571 0.05000 -0.04000
v 2.32571 1.05000 0.04000
v 2.32571 0.05000 0.04000
v 2.24571 0.05000 -0.04000
v 2.32571 0.05000 -0.04000
v 2.32571 0.05000 0.04000
v 2.24571 0.05000 -0.04000
v 2.32571 0.05000 0.04000
v 2.24571 0.05000 0.04000
v 2.24571 1.05000 -0.04000
v 2.24571 1.05000 0.04000
v 2.32571 1.05000 0.04000
v 2.24571 1.05000 -0.04000
v 2.32571 1.05000 0.04000
v 2.32571 1.05000 -0.04000
v 2.24571 0.05000 -0.04000
v 2.24571 1.05000 -0.04000
v 2.32571 1.05000 -0.04000
v 2.24571 0.05000 -0.04000
v 2.32571 1.05000 -0.04000
v 2.32571 0.05000 -0.04000
v 2.24571 0.05000 0.04000
v 2.32571 0.05000 0.04000
v 2.32571 1.05000 0.04000
v 2.24571 0.05000 0.04000
v 2.32571 1.05000 0.04000
v 2.24571 1.05000 0.04000
v 3.38857 0.05000 -0.04000
v 3.38857 0.05000 0.04000
v 3.38857 1.05000 0.04000
v 3.38857 0.05000 -0.04000
v 3.38857 1.05000 0.04000
v 3.38857 1.05000 -0.04000
v 3.46857 0.05000 -0.04000
v 3.46857 1.05000 -0.04000
v 3.46857 1.05000 0.04000
v 3.46857 0.05000 -0.04000
v 3.46857 1.05000 0.04000
v 3.46857 0.05000 0.04000
v 3.38857 0.05000 -0.04000
v 3.46857 0.05000 -0.04000
v 3.46857 0.05000 0.04000
v 3.38857 0.05000 -0.04000
v 3.46857 0.05000 0.04000
v 3.38857 0.05000 0.04000
v 3.38857 1.05000 -0.04000
v 3.38857 1.05000 0.04000
v 3.46857 1.05000 0.04000
v 3.38857 1.05000 -0.04000
v 3.46857 1.05000 0.04000
v 3.46857 1.05000 -0.04000
v 3.38857 0.05000 -0.04000
v 3.38857 1.05000 -0.04000
v 3.46857 1.05000 -0.04000
v 3.38857 0.05000 -0.04000
v 3.46857 1.05000 -0.04000
v 3.46857 0.05000 -0.04000
v 3.38857 0.05000 0.04000
v 3.46857 0.05000 0.04000
v 3.46857 1.05000 0.04000
v 3.38857 0.05000 0.04000
v 3.46857 1.05000 0.04000
v 3.38857 1.05000 0.04000
v 4.53143 0.05000 -0.04000
v 4.53143 0.05000 0.04000
v 4.53143 1.05000 0.04000
v 4.53143 0.05000 -0.04000
v 4.53143 1.05000 0.04000
v 4.53143 1.05000 -0.04000
v 4.61143 0.05000 -0.04000
v 4.61143 1.05000 -0.04000
v 4.61143 1.05000 0.04000
v 4.61143 0.05000 -0.04000
v 4.61143 1.05000 0.04000
v 4.61143 0.05000 0.04000
v 4.53143 0.05000 -0.04000
v 4.61143 0.05000 -0.04000
v 4.61143 0.05000 0.04000
v 4.53143 0.05000 -0.04000
v 4.61143 0.05000 0.04000
v 4.53143 0.05000 0.04000
v 4.53143 1.05000 -0.04000
v 4.53143 1.05000 0.04000
v 4.61143 1.05000 0.04000
v 4.53143 1.05000 -0.04000
v 4.61143 1.05000 0.04000
v 4.61143 1.05000 -0.04000
v 4.53143 0.05000 -0.04000
v 4.53143 1.05000 -0.04000
v 4.61143 1.05000 -0.04000
v 4.53143 0.05000 -0.04000
v 4.61143 1.05000 -0.04000
v 4.61143 0.05000 -0.04000
v 4.53143 0.05000 0.04000
v 4.61143 0.05000 0.04000
v 4.61143 1.05000 0.04000
v 4.53143 0.05000 0.04000
v 4.61143 1.05000 0.04000
v 4.53143 1.05000 0.04000
v 5.67429 0.05000 -0.04000
v 5.67429 0.05000 0.04000
v 5.67429 1.05000 0.04000
v 5.67429 0.05000 -0.04000
v 5.67429 1.05000 0.04000
v 5.67429 1.05000 -0.04000
v 5.75429 0.05000 -0.04000
v 5.75429 1.05000 -0.04000
v 5.75429 1.05000 0.04000
v 5.75429 0.05000 -0.04000
v 5.75429 1.05000 0.04000
v 5.75429 0.05000 0.04000
v 5.67429 0.05000 -0.04000
v 5.75429 0.05000 -0.04000
v 5.75429 0.05000 0.04000
v 5.67429 0.05000 -0.04000
v 5.75429 0.05000 0.04000
v 5.67429 0.05000 0.04000
v 5.67429 1.05000 -0.04000
v 5.67429 1.05000 0.04000
v 5.75429 1.05000 0.04000
v 5.67429 1.05000 -0.04000
v 5.75429 1.05000 0.04000
v 5.75429 1.05000 -0.04000
v 5.67429 0.05000 -0.04000
v 5.67429 1.05000 -0.04000
v 5.75429 1.05000 -0.04000
v 5.67429 0.05000 -0.04000
v 5.75429 1.05000 -0.04000
v 5.75429 0.05000 -0.04000
v 5.67429 0.05000 0.04000
v 5.75429 0.05000 0.04000
v 5.75429 1.05000 0.04000
v 5.67429 0.05000 0.04000
v 5.75429 1.05000 0.04000
v 5.67429 1.05000 0.04000
v 6.81714 0.05000 -0.04000
v 6.81714 0.05000 0.04000
v 6.81714 1.05000 0.04000
v 6.81714 0.05000 -0.04000
v 6.81714 1.05000 0.04000
v 6.81714 1.05000 -0.04000
v 6.89714 0.05000 -0.04000
v 6.89714 1.05000 -0.04000
v 6.89714 1.05000 0.04000
v 6.89714 0.05000 -0.04000
v 6.89714 1.05000 0.04000
v 6.89714 0.05000 0.04000
v 6.81714 0.05000 -0.04000
v 6.89714 0.05000 -0.04000
v 6.89714 0.05000 0.04000
v 6.81714 0.05000 -0.04000
v 6.89714 0.05000 0.04000
v 6.81714 0.05000 0.04000
v 6.81714 1.05000 -0.04000
v 6.81714 1.05000 0.04000
v 6.89714 1.05000 0.04000
v 6.81714 1.05000 -0.04000
v 6.89714 1.05000 0.04000
v 6.89714 1.05000 -0.04000
v 6.81714 0.05000 -0.04000
v 6.81714 1.05000 -0.04000
v 6.89714 1.05000 -0.04000
v 6.81714 0.05000 -0.04000
v 6.89714 1.05000 -0.04000
v 6.89714 0.05000 -0.04000
v 6.81714 0.05000 0.04000
v 6.89714 0.05000 0.04000
v 6.89714 1.05000 0.04000
v 6.81714 0.05000 0.04000
v 6.89714 1.05000 0.04000
v 6.81714 1.05000 0.04000
v 7.96000 0.05000 -0.04000
v 7.96000 0.05000 0.04000
v 7.96000 1.05000 0.04000
v 7.96000 0.05000 -0.04000
v 7.96000 1.05000 0.04000
v 7.96000 1.05000 -0.04000
v 8.04000 0.05000 -0.04000
v 8.04000 1.05000 -0.04000
v 8.04000 1.05000 0.04000
v 8.04000 0.05000 -0.04000
v 8.04000 1.05000 0.04000
v 8.04000 0.05000 0.04000
v 7.96000 0.05000 -0.04000
v 8.04000 0.05000 -0.04000
v 8.04000 0.05000 0.04000
v 7.96000 0.05000 -0.04000
v 8.04000 0.05000 0.04000
v 7.96000 0.05000 0.04000
v 7.96000 1.05000 -0.04000
v 7.96000 1.05000 0.04000
v 8.04000 1.05000 0.04000
v 7.96000 1.05000 -0.04000
v 8.04000 1.05000 0.04000
v 8.04000 1.05000 -0.04000
v 7.96000 0.05000 -0.04000
v 7.96000 1.05000 -0.04000
v 8.04000 1.05000 -0.04000
v 7.96000 0.05000 -0.04000
v 8.04000 1.05000 -0.04000
v 8.04000 0.05000 -0.04000
v 7.96000 0.05000 0.04000
v 8.04000 0.05000 0.04000
v 8.04000 1.05000 0.04000
v 7.96000 0.05000 0.04000
v 8.04000 1.05000 0.04000
v 7.96000 1.05000 0.04000
v 0.00000 0.86000 0.04500
v 1.33333 0.86000 0.04500
v 2.66667 0.86000 0.04500
v 4.00000 0.86000 0.04500
v 5.33333 0.86000 0.04500
v 6.66667 0.86000 0.04500
v 8.00000 0.86000 0.04500
v 0.00000 0.89182 0.03182
v 1.33333 0.89182 0.03182
v 2.66667 0.89182 0.03182
v 4.00000 0.89182 0.03182
v 5.33333 0.89182 0.03182
v 6.66667 0.89182 0.03182
v 8.00000 0.89182 0.03182
v 0.00000 0.90500 0.00000
v 1.33333 0.90500 0.00000
v 2.66667 0.90500 0.00000
v 4.00000 0.90500 0.00000
v 5.33333 0.90500 0.00000
v 6.66667 0.90500 0.00000
v 8.00000 0.90500 0.00000
v 0.00000 0.89182 -0.03182
v 1.33333 0.89182 -0.03182
v 2.66667 0.89182 -0.03182
v 4.00000 0.89182 -0.03182
v 5.33333 0.89182 -0.03182
v 6.66667 0.89182 -0.03182
v 8.00000 0.89182 -0.03182
v 0.00000 0.86000 -0.04500
v 1.33333 0.86000 -0.04500
v 2.66667 0.86000 -0.04500
v 4.00000 0.86000 -0.04500
v 5.33333 0.86000 -0.04500
v 6.66667 0.86000 -0.04500
v 8.00000 0.86000 -0.04500
v 0.00000 0.82818 -0.03182
v 1.33333 0.82818 -0.03182
v 2.66667 0.82818 -0.03182
v 4.00000 0.82818 -0.03182
v 5.33333 0.82818 -0.03182
v 6.66667 0.82818 -0.03182
v 8.00000 0.82818 -0.03182
v 0.00000 0.81500 -0.00000
v 1.33333 0.81500 -0.00000
v 2.66667 0.81500 -0.00000
v 4.00000 0.81500 -0.00000
v 5.33333 0.81500 -0.00000
v 6.66667 0.81500 -0.00000
v 8.00000 0.81500 -0.00000
v 0.00000 0.82818 0.03182
v 1.33333 0.82818 0.03182
v 2.66667 0.82818 0.03182
v 4.00000 0.82818 0.03182
v 5.33333 0.82818 0.03182
v 6.66667 0.82818 0.03182
v 8.00000 0.82818 0.03182
v 0.00000 0.86000 0.04500
v 1.33333 0.86000 0.04500
v 2.66667 0.86000 0.04500
v 4.00000 0.86000 0.04500
v 5.33333 0.86000 0.04500
v 6.66667 0.86000 0.04500
v 8.00000 0.86000 0.04500
v 0.00000 0.48000 0.04000
v 1.33333 0.48000 0.04000
v 2.66667 0.48000 0.04000
v 4.00000 0.48000 0.04000
v 5.33333 0.48000 0.04000
v 6.66667 0.48000 0.04000
v 8.00000 0.48000 0.04000
v 0.00000 0.50828 0.02828
v 1.33333 0.50828 0.02828
v 2.66667 0.50828 0.02828
v 4.00000 0.50828 0.02828
v 5.33333 0.50828 0.02828
v 6.66667 0.50828 0.02828
v 8.00000 0.50828 0.02828
v 0.00000 0.52000 0.00000
v 1.33333 0.52000 0.00000
v 2.66667 0.52000 0.00000
v 4.00000 0.52000 0.00000
v 5.33333 0.52000 0.00000
v 6.66667 0.52000 0.00000
v 8.00000 0.52000 0.00000
v 0.00000 0.50828 -0.02828
v 1.33333 0.50828 -0.02828
v 2.66667 0.50828 -0.02828
v 4.00000 0.50828 -0.02828
v 5.33333 0.50828 -0.02828
v 6.66667 0.50828 -0.02828
v 8.00000 0.50828 -0.02828
v 0.00000 0.48000 -0.04000
v 1.33333 0.48000 -0.04000
v 2.66667 0.48000 -0.04000
v 4.00000 0.48000 -0.04000
v 5.33333 0.48000 -0.04000
v 6.66667 0.48000 -0.04000
v 8.00000 0.48000 -0.04000
v 0.00000 0.45172 -0.02828
v 1.33333 0.45172 -0.02828
v 2.66667 0.45172 -0.02828
v 4.00000 0.45172 -0.02828
v 5.33333 0.45172 -0.02828
v 6.66667 0.45172 -0.02828
v 8.00000 0.45172 -0.02828
v 0.00000 0.44000 -0.00000
v 1.33333 0.44000 -0.00000
v 2.66667 0.44000 -0.00000
v 4.00000 0.44000 -0.00000
v 5.33333 0.44000 -0.00000
v 6.66667 0.44000 -0.00000
v 8.00000 0.44000 -0.00000
v 0.00000 0.45172 0.02828
v 1.33333 0.45172 0.02828
v 2.66667 0.45172 0.02828
v 4.00000 0.45172 0.02828
v 5.33333 0.45172 0.02828
v 6.66667 0.45172 0.02828
v 8.00000 0.45172 0.02828
v 0.00000 0.48000 0.04000
v 1.33333 0.48000 0.04000
v 2.66667 0.48000 0.04000
v 4.00000 0.48000 0.04000
v 5.33333 0.48000 0.04000
v 6.66667 0.48000 0.04000
v 8.00000 0.48000 0.04000
vt 0.00000 0.00000
vt 0.00000 0.00000
vt 0.00000 0.00000
vt 0.00000 0.00000
vt 0.00000 0.00000
vt 0.00000 0.00000
vt 0.00000 0.00000
vt 0.00000 0.00000
vt 0.00000 0.00000
vt 0.00000 0.00000
vt 0.00000 0.00000
vt 0.00000 0.00000
vt 0.00000 0.00000
vt 0.00000 0.00000
vt 0.00000 0.00000
vt 0.00000 0.00000
vt 0.00000 0.00000
vt 0.00000 0.00000
vt 0.00000 0.00000
vt 0.00000 0.00000
vt 0.00000 0.00000
vt 0.00000 0.00000
vt 0.00000 0.00000
vt 0.00000 0.00000
vt 0.00000 0.00000
vt 0.00000 0.00000
vt 0.00000 0.00000
vt 0.00000 0.00000
vt 0.00000 0.00000
vt 0.00000 0.00000
vt 0.00000 0.00000
vt 0.00000 0.00000
vt 0.00000 0.00000
vt 0.00000 0.00000
vt 0.00000 0.00000
vt 0.00000 0.00000
vt 0.00000 0.00000
vt 0.00000 0.00000
vt 0.00000 0.00000
vt 0.00000 0.00000
vt 0.00000 0.00000
vt 0.00000 0.00000
vt 0.00000 0.00000
vt 0.00000 0.00000
vt 0.00000 0.00000
vt 0.00000 0.00000
vt 0.00000 0.00000
vt 0.00000 0.00000
vt 0.00000 0.00000
vt 0.00000 0.00000
vt 0.00000 0.00000
vt 0.00000 0.00000
vt 0.00000 0.00000
vt 0.00000 0.00000
vt 0.00000 0.00000
vt 0.00000 0.00000
vt 0.00000 0.00000
vt 0.00000 0.00000
vt 0.00000 0.00000
vt 0.00000 0.00000
vt 0.00000 0.00000
vt 0.00000 0.00000
vt 0.00000 0.00000
vt 0.00000 0.00000
vt 0.00000 0.00000
vt 0.00000 0.00000
vt 0.00000 0.00000
vt 0.00000 0.00000
vt 0.00000 0.00000
vt 0.00000 0.00000
vt 0.00000 0.00000
vt 0.00000 0.00000
vt 0.00000 0.00000
vt 0.00000 0.00000
vt 0.00000 0.00000
vt 0.00000 0.00000
vt 0.00000 0.00000
vt 0.00000 0.00000
vt 0.00000 0.00000
vt 0.00000 0.00000
vt 0.00000 0.00000
vt 0.00000 0.00000
vt 0.00000 0.00000
vt 0.00000 0.00000
vt 0.00000 0.00000
vt 0.00000 0.00000
vt 0.00000 0.00000
vt 0.00000 0.00000
vt 0.00000 0.00000
vt 0.00000 0.00000
vt 0.00000 0.00000
vt 0.00000 0.00000
vt 0.00000 0.00000
vt 0.00000 0.00000
vt 0.00000 0.00000
vt 0.00000 0.00000
vt 0.00000 0.00000
vt 0.00000 0.00000
vt 0.00000 0.00000
vt 0.00000 0.00000
vt 0.00000 0.00000
vt 0.00000 0.00000
vt 0.00000 0.00000
vt 0.00000 0.00000
vt 0.00000 0.00000
vt 0.00000 0.00000
vt 0.00000 0.00000
vt 0.00000 0.00000
vt 0.00000 0.00000
vt 0.00000 0.00000
vt 0.00000 0.00000
vt 0.00000 0.00000
vt 0.00000 0.00000
vt 0.00000 0.00000
vt 0.00000 0.00000
vt 0.00000 0.00000
vt 0.00000 0.00000
vt 0.00000 0.00000
vt 0.00000 0.00000
vt 0.00000 0.00000
vt 0.00000 0.00000
vt 0.00000 0.00000
vt 0.00000 0.00000
vt 0.00000 0.00000
vt 0.00000 0.00000
vt 0.00000 0.00000
vt 0.00000 0.00000
vt 0.00000 0.00000
vt 0.00000 0.00000
vt 0.00000 0.00000
vt 0.00000 0.00000
vt 0.00000 0.00000
vt 0.00000 0.00000
vt 0.00000 0.00000
vt 0.00000 0.00000
vt 0.00000 0.00000
vt 0.00000 0.00000
vt 0.00000 0.00000
vt 0.00000 0.00000
vt 0.00000 0.00000
vt 0.00000 0.00000
vt 0.00000 0.00000
vt 0.00000 0.00000
vt 0.00000 0.00000
vt 0.00000 0.00000
vt 0.00000 0.00000
vt 0.00000 0.00000
vt 0.00000 0.00000
vt 0.00000 0.00000
vt 0.00000 0.00000
vt 0.00000 0.00000
vt 0.00000 0.00000
vt 0.00000 0.00000
vt 0.00000 0.00000
vt 0.00000 0.00000
vt 0.00000 0.00000
vt 0.00000 0.00000
vt 0.00000 0.00000
vt 0.00000 0.00000
vt 0.00000 0.00000
vt 0.00000 0.00000
vt 0.00000 0.00000
vt 0.00000 0.00000
vt 0.00000 0.00000
vt 0.00000 0.00000
vt 0.00000 0.00000
vt 0.00000 0.00000
vt 0.00000 0.00000
vt 0.00000 0.00000
vt 0.00000 0.00000
vt 0.00000 0.00000
vt 0.00000 0.00000
vt 0.00000 0.00000
vt 0.00000 0.00000
vt 0.00000 0.00000
vt 0.00000 0.00000
vt 0.00000 0.00000
vt 0.00000 0.00000
vt 0.00000 0.00000
vt 0.00000 0.00000
vt 0.00000 0.00000
vt 0.00000 0.00000
vt 0.00000 0.00000
vt 0.00000 0.00000
vt 0.00000 0.00000
vt 0.00000 0.00000
vt 0.00000 0.00000
vt 0.00000 0.00000
vt 0.00000 0.00000
vt 0.00000 0.00000
vt 0.00000 0.00000
vt 0.00000 0.00000
vt 0.00000 0.00000
vt 0.00000 0.00000
vt 0.00000 0.00000
vt 0.00000 0.00000
vt 0.00000 0.00000
vt 0.00000 0.00000
vt 0.00000 0.00000
vt 0.00000 0.00000
vt 0.00000 0.00000
vt 0.00000 0.00000
vt 0.00000 0.00000
vt 0.00000 0.00000
vt 0.00000 0.00000
vt 0.00000 0.00000
vt 0.00000 0.00000
vt 0.00000 0.00000
vt 0.00000 0.00000
vt 0.00000 0.00000
vt 0.00000 0.00000
vt 0.00000 0.00000
vt 0.00000 0.00000
vt 0.00000 0.00000
vt 0.00000 0.00000
vt 0.00000 0.00000
vt 0.00000 0.00000
vt 0.00000 0.00000
vt 0.00000 0.00000
vt 0.00000 0.00000
vt 0.00000 0.00000
vt 0.00000 0.00000
vt 0.00000 0.00000
vt 0.00000 0.00000
vt 0.00000 0.00000
vt 0.00000 0.00000
vt 0.00000 0.00000
vt 0.00000 0.00000
vt 0.00000 0.00000
vt 0.00000 0.00000
vt 0.00000 0.00000
vt 0.00000 0.00000
vt 0.00000 0.00000
vt 0.00000 0.00000
vt 0.00000 0.00000
vt 0.00000 0.00000
vt 0.00000 0.00000
vt 0.00000 0.00000
vt 0.00000 0.00000
vt 0.00000 0.00000
vt 0.00000 0.00000
vt 0.00000 0.00000
vt 0.00000 0.00000
vt 0.00000 0.00000
vt 0.00000 0.00000
vt 0.00000 0.00000
vt 0.00000 0.00000
vt 0.00000 0.00000
vt 0.00000 0.00000
vt 0.00000 0.00000
vt 0.00000 0.00000
vt 0.00000 0.00000
vt 0.00000 0.00000
vt 0.00000 0.00000
vt 0.00000 0.00000
vt 0.00000 0.00000
vt 0.00000 0.00000
vt 0.00000 0.00000
vt 0.00000 0.00000
vt 0.00000 0.00000
vt 0.00000 0.00000
vt 0.00000 0.00000
vt 0.00000 0.00000
vt 0.00000 0.00000
vt 0.00000 0.00000
vt 0.00000 0.00000
vt 0.00000 0.00000
vt 0.00000 0.00000
vt 0.00000 0.00000
vt 0.00000 0.00000
vt 0.00000 0.00000
vt 0.00000 0.00000
vt 0.00000 0.00000
vt 0.00000 0.00000
vt 0.00000 0.00000
vt 0.00000 0.00000
vt 0.00000 0.00000
vt 0.00000 0.00000
vt 0.00000 0.00000
vt 0.00000 0.00000
vt 0.00000 0.00000
vt 0.00000 0.00000
vt 0.00000 0.00000
vt 0.00000 0.00000
vt 0.00000 0.00000
vt 0.00000 0.00000
vt 0.00000 0.00000
vt 0.00000 0.00000
vt 0.00000 0.00000
vt 0.00000 0.16667
vt 0.00000 0.33333
vt 0.00000 0.50000
vt 0.00000 0.66667
vt 0.00000 0.83333
vt 0.00000 1.00000
vt 0.12500 0.00000
vt 0.12500 0.16667
vt 0.12500 0.33333
vt 0.12500 0.50000
vt 0.12500 0.66667
vt 0.12500 0.83333
vt 0.12500 1.00000
vt 0.25000 0.00000
vt 0.25000 0.16667
vt 0.25000 0.33333
vt 0.25000 0.50000
vt 0.25000 0.66667
vt 0.25000 0.83333
vt 0.25000 1.00000
vt 0.37500 0.00000
vt 0.37500 0.16667
vt 0.37500 0.33333
vt 0.37500 0.50000
vt 0.37500 0.66667
vt 0.37500 0.83333
vt 0.37500 1.00000
vt 0.50000 0.00000
vt 0.50000 0.16667
vt 0.50000 0.33333
vt 0.50000 0.50000
vt 0.50000 0.66667
vt 0.50000 0.83333
vt 0.50000 1.00000
vt 0.62500 0.00000
vt 0.62500 0.16667
vt 0.62500 0.33333
vt 0.62500 0.50000
vt 0.62500 0.66667
vt 0.62500 0.83333
vt 0.62500 1.00000
vt 0.75000 0.00000
vt 0.75000 0.16667
vt 0.75000 0.33333
vt 0.75000 0.50000
vt 0.75000 0.66667
vt 0.75000 0.83333
vt 0.75000 1.00000
vt 0.87500 0.00000
vt 0.87500 0.16667
vt 0.87500 0.33333
vt 0.87500 0.50000
vt 0.87500 0.66667
vt 0.87500 0.83333
vt 0.87500 1.00000
vt 1.00000 0.00000
vt 1.00000 0.16667
vt 1.00000 0.33333
vt 1.00000 0.50000
vt 1.00000 0.66667
vt 1.00000 0.83333
vt 1.00000 1.00000
vt 0.00000 0.00000
vt 0.00000 0.16667
vt 0.00000 0.33333
vt 0.00000 0.50000
vt 0.00000 0.66667
vt 0.00000 0.83333
vt 0.00000 1.00000
vt 0.12500 0.00000
vt 0.12500 0.16667
vt 0.12500 0.33333
vt 0.12500 0.50000
vt 0.12500 0.66667
vt 0.12500 0.83333
vt 0.12500 1.00000
vt 0.25000 0.00000
vt 0.25000 0.16667
vt 0.25000 0.33333
vt 0.25000 0.50000
vt 0.25000 0.66667
vt 0.25000 0.83333
vt 0.25000 1.00000
vt 0.37500 0.00000
vt 0.37500 0.16667
vt 0.37500 0.33333
vt 0.37500 0.50000
vt 0.37500 0.66667
vt 0.37500 0.83333
vt 0.37500 1.00000
vt 0.50000 0.00000
vt 0.50000 0.16667
vt 0.50000 0.33333
vt 0.50000 0.50000
vt 0.50000 0.66667
vt 0.50000 0.83333
vt 0.50000 1.00000
vt 0.62500 0.00000
vt 0.62500 0.16667
vt 0.62500 0.33333
vt 0.62500 0.50000
vt 0.62500 0.66667
vt 0.62500 0.83333
vt 0.62500 1.00000
vt 0.75000 0.00000
vt 0.75000 0.16667
vt 0.75000 0.33333
vt 0.75000 0.50000
vt 0.75000 0.66667
vt 0.75000 0.83333
vt 0.75000 1.00000
vt 0.87500 0.00000
vt 0.87500 0.16667
vt 0.87500 0.33333
vt 0.87500 0.50000
vt 0.87500 0.66667
vt 0.87500 0.83333
vt 0.87500 1.00000
vt 1.00000 0.00000
vt 1.00000 0.16667
vt 1.00000 0.33333
vt 1.00000 0.50000
vt 1.00000 0.66667
vt 1.00000 0.83333
vt 1.00000 1.00000
vn -1.00000 0.00000 0.00000
vn -1.00000 0.00000 0.00000
vn -1.00000 0.00000 0.00000
vn -1.00000 0.00000 0.00000
vn -1.00000 0.00000 0.00000
vn -1.00000 0.00000 0.00000
vn 1.00000 0.00000 0.00000
vn 1.00000 0.00000 0.00000
vn 1.00000 0.00000 0.00000
vn 1.00000 0.00000 0.00000
vn 1.00000 0.00000 0.00000
vn 1.00000 0.00000 0.00000
vn 0.00000 -1.00000 0.00000
vn 0.00000 -1.00000 0.00000
vn 0.00000 -1.00000 0.00000
vn 0.00000 -1.00000 0.00000
vn 0.00000 -1.00000 0.00000
vn 0.00000 -1.00000 0.00000
vn 0.00000 1.00000 0.00000
vn 0.00000 1.00000 0.00000
vn 0.00000 1.00000 0.00000
vn 0.00000 1.00000 0.00000
vn 0.00000 1.00000 0.00000
vn 0.00000 1.00000 0.00000
vn 0.00000 0.00000 -1.00000
vn 0.00000 0.00000 -1.00000
vn 0.00000 0.00000 -1.00000
vn 0.00000 0.00000 -1.00000
vn 0.00000 0.00000 -1.00000
vn 0.00000 0.00000 -1.00000
vn 0.00000 0.00000 1.00000
vn 0.00000 0.00000 1.00000
vn 0.00000 0.00000 1.00000
vn 0.00000 0.00000 1.00000
vn 0.00000 0.00000 1.00000
vn 0.00000 0.00000 1.00000
vn -1.00000 0.00000 0.00000
vn -1.00000 0.00000 0.00000
vn -1.00000 0.00000 0.00000
vn -1.00000 0.00000 0.00000
vn -1.00000 0.00000 0.00000
vn -1.00000 0.00000 0.00000
vn 1.00000 0.00000 0.00000
vn 1.00000 0.00000 0.00000
vn 1.00000 0.00000 0.00000
vn 1.00000 0.00000 0.00000
vn 1.00000 0.00000 0.00000
vn 1.00000 0.00000 0.00000
vn 0.00000 -1.00000 0.00000
vn 0.00000 -1.00000 0.00000
vn 0.00000 -1.00000 0.00000
vn 0.00000 -1.00000 0.00000
vn 0.00000 -1.00000 0.00000
vn 0.00000 -1.00000 0.00000
vn 0.00000 1.00000 0.00000
vn 0.00000 1.00000 0.00000
vn 0.00000 1.00000 0.00000
vn 0.00000 1.00000 0.00000
vn 0.00000 1.00000 0.00000
vn 0.00000 1.00000 0.00000
vn 0.00000 0.00000 -1.00000
vn 0.00000 0.00000 -1.00000
vn 0.00000 0.00000 -1.00000
vn 0.00000 0.00000 -1.00000
vn 0.00000 0.00000 -1.00000
vn 0.00000 0.00000 -1.00000
vn 0.00000 0.00000 1.00000
vn 0.00000 0.00000 1.00000
vn 0.00000 0.00000 1.00000
vn 0.00000 0.00000 1.00000
vn 0.00000 0.00000 1.00000
vn 0.00000 0.00000 1.00000
vn -1.00000 0.00000 0.00000
vn -1.00000 0.00000 0.00000
vn -1.00000 0.00000 0.00000
vn -1.00000 0.00000 0.00000
vn -1.00000 0.00000 0.00000
vn -1.00000 0.00000 0.00000
vn 1.00000 0.00000 0.00000
vn 1.00000 0.00000 0.00000
vn 1.00000 0.00000 0.00000
vn 1.00000 0.00000 0.00000
vn 1.00000 0.00000 0.00000
vn 1.00000 0.00000 0.00000
vn 0.00000 -1.00000 0.00000
vn 0.00000 -1.00000 0.00000
vn 0.00000 -1.00000 0.00000
vn 0.00000 -1.00000 0.00000
vn 0.00000 -1.00000 0.00000
vn 0.00000 -1.00000 0.00000
vn 0.00000 1.00000 0.00000
vn 0.00000 1.00000 0.00000
vn 0.00000 1.00000 0.00000
vn 0.00000 1.00000 0.00000
vn 0.00000 1.00000 0.00000
vn 0.00000 1.00000 0.00000
vn 0.00000 0.00000 -1.00000
vn 0.00000 0.00000 -1.00000
vn 0.00000 0.00000 -1.00000
vn 0.00000 0.00000 -1.00000
vn 0.00000 0.00000 -1.00000
vn 0.00000 0.00000 -1.00000
vn 0.00000 0.00000 1.00000
vn 0.00000 0.00000 1.00000
vn 0.00000 0.00000 1.00000
vn 0.00000 0.00000 1.00000
vn 0.00000 0.00000 1.00000
vn 0.00000 0.00000 1.00000
vn -1.00000 0.00000 0.00000
vn -1.00000 0.00000 0.00000
vn -1.00000 0.00000 0.00000
vn -1.00000 0.00000 0.00000
vn -1.00000 0.00000 0.00000
vn -1.00000 0.00000 0.00000
vn 1.00000 0.00000 0.00000
vn 1.00000 0.00000 0.00000
vn 1.00000 0.00000 0.00000
vn 1.00000 0.00000 0.00000
vn 1.00000 0.00000 0.00000
vn 1.00000 0.00000 0.00000
vn 0.00000 -1.00000 0.00000
vn 0.00000 -1.00000 0.00000
vn 0.00000 -1.00000 0.00000
vn 0.00000 -1.00000 0.00000
vn 0.00000 -1.00000 0.00000
vn 0.00000 -1.00000 0.00000
vn 0.00000 1.00000 0.00000
vn 0.00000 1.00000 0.00000
vn 0.00000 1.00000 0.00000
vn 0.00000 1.00000 0.00000
vn 0.00000 1.00000 0.00000
vn 0.00000 1.00000 0.00000
vn 0.00000 0.00000 -1.00000
vn 0.00000 0.00000 -1.00000
vn 0.00000 0.00000 -1.00000
vn 0.00000 0.00000 -1.00000
vn 0.00000 0.00000 -1.00000
vn 0.00000 0.00000 -1.00000
vn 0.00000 0.00000 1.00000
vn 0.00000 0.00000 1.00000
vn 0.00000 0.00000 1.00000
vn 0.00000 0.00000 1.00000
vn 0.00000 0.00000 1.00000
vn 0.00000 0.00000 1.00000
vn -1.00000 0.00000 0.00000
vn -1.00000 0.00000 0.00000
vn -1.00000 0.00000 0.00000
vn -1.00000 0.00000 0.00000
vn -1.00000 0.00000 0.00000
vn -1.00000 0.00000 0.00000
vn 1.00000 0.00000 0.00000
vn 1.00000 0.00000 0.00000
vn 1.00000 0.00000 0.00000
vn 1.00000 0.00000 0.00000
vn 1.00000 0.00000 0.00000
vn 1.00000 0.00000 0.00000
vn 0.00000 -1.00000 0.00000
vn 0.00000 -1.00000 0.00000
vn 0.00000 -1.00000 0.00000
vn 0.00000 -1.00000 0.00000
vn 0.00000 -1.00000 0.00000
vn 0.00000 -1.00000 0.00000
vn 0.00000 1.00000 0.00000
vn 0.00000 1.00000 0.00000
vn 0.00000 1.00000 0.00000
vn 0.00000 1.00000 0.00000
vn 0.00000 1.00000 0.00000
vn 0.00000 1.00000 0.00000
vn 0.00000 0.00000 -1.00000
vn 0.00000 0.00000 -1.00000
vn 0.00000 0.00000 -1.00000
vn 0.00000 0.00000 -1.00000
vn 0.00000 0.00000 -1.00000
vn 0.00000 0.00000 -1.00000
vn 0.00000 0.00000 1.00000
vn 0.00000 0.00000 1.00000
vn 0.00000 0.00000 1.00000
vn 0.00000 0.00000 1.00000
vn 0.00000 0.00000 1.00000
vn 0.00000 0.00000 1.00000
vn -1.00000 0.00000 0.00000
vn -1.00000 0.00000 0.00000
vn -1.00000 0.00000 0.00000
vn -1.00000 0.00000 0.00000
vn -1.00000 0.00000 0.00000
vn -1.00000 0.00000 0.00000
vn 1.00000 0.00000 0.00000
vn 1.00000 0.00000 0.00000
vn 1.00000 0.00000 0.00000
vn 1.00000 0.00000 0.00000
vn 1.00000 0.00000 0.00000
vn 1.00000 0.00000 0.00000
vn 0.00000 -1.00000 0.00000
vn 0.00000 -1.00000 0.00000
vn 0.00000 -1.00000 0.00000
vn 0.00000 -1.00000 0.00000
vn 0.00000 -1.00000 0.00000
vn 0.00000 -1.00000 0.00000
vn 0.00000 1.00000 0.00000
vn 0.00000 1.00000 0.00000
vn 0.00000 1.00000 0.00000
vn 0.00000 1.00000 0.00000
vn 0.00000 1.00000 0.00000
vn 0.00000 1.00000 0.00000
vn 0.00000 0.00000 -1.00000
vn 0.00000 0.00000 -1.00000
vn 0.00000 0.00000 -1.00000
vn 0.00000 0.00000 -1.00000
vn 0.00000 0.00000 -1.00000
vn 0.00000 0.00000 -1.00000
vn 0.00000 0.00000 1.00000
vn 0.00000 0.00000 1.00000
vn 0.00000 0.00000 1.00000
vn 0.00000 0.00000 1.00000
vn 0.00000 0.00000 1.00000
vn 0.00000 0.00000 1.00000
vn -1.00000 0.00000 0.00000
vn -1.00000 0.00000 0.00000
vn -1.00000 0.00000 0.00000
vn -1.00000 0.00000 0.00000
vn -1.00000 0.00000 0.00000
vn -1.00000 0.00000 0.00000
vn 1.00000 0.00000 0.00000
vn 1.00000 0.00000 0.00000
vn 1.00000 0.00000 0.00000
vn 1.00000 0.00000 0.00000
vn 1.00000 0.00000 0.00000
vn 1.00000 0.00000 0.00000
vn 0.00000 -1.00000 0.00000
vn 0.00000 -1.00000 0.00000
vn 0.00000 -1.00000 0.00000
vn 0.00000 -1.00000 0.00000
vn 0.00000 -1.00000 0.00000
vn 0.00000 -1.00000 0.00000
vn 0.00000 1.00000 0.00000
vn 0.00000 1.00000 0.00000
vn 0.00000 1.00000 0.00000
vn 0.00000 1.00000 0.00000
vn 0.00000 1.00000 0.00000
vn 0.00000 1.00000 0.00000
vn 0.00000 0.00000 -1.00000
vn 0.00000 0.00000 -1.00000
vn 0.00000 0.00000 -1.00000
vn 0.00000 0.00000 -1.00000
vn 0.00000 0.00000 -1.00000
vn 0.00000 0.00000 -1.00000
vn 0.00000 0.00000 1.00000
vn 0.00000 0.00000 1.00000
vn 0.00000 0.00000 1.00000
vn 0.00000 0.00000 1.00000
vn 0.00000 0.00000 1.00000
vn 0.00000 0.00000 1.00000
vn -1.00000 0.00000 0.00000
vn -1.00000 0.00000 0.00000
vn -1.00000 0.00000 0.00000
vn -1.00000 0.00000 0.00000
vn -1.00000 0.00000 0.00000
vn -1.00000 0.00000 0.00000
vn 1.00000 0.00000 0.00000
vn 1.00000 0.00000 0.00000
vn 1.00000 0.00000 0.00000
vn 1.00000 0.00000 0.00000
vn 1.00000 0.00000 0.00000
vn 1.00000 0.00000 0.00000
vn 0.00000 -1.00000 0.00000
vn 0.00000 -1.00000 0.00000
vn 0.00000 -1.00000 0.00000
vn 0.00000 -1.00000 0.00000
vn 0.00000 -1.00000 0.00000
vn 0.00000 -1.00000 0.00000
vn 0.00000 1.00000 0.00000
vn 0.00000 1.00000 0.00000
vn 0.00000 1.00000 0.00000
vn 0.00000 1.00000 0.00000
vn 0.00000 1.00000 0.00000
vn 0.00000 1.00000 0.00000
vn 0.00000 0.00000 -1.00000
vn 0.00000 0.00000 -1.00000
vn 0.00000 0.00000 -1.00000
vn 0.00000 0.00000 -1.00000
vn 0.00000 0.00000 -1.00000
vn 0.00000 0.00000 -1.00000
vn 0.00000 0.00000 1.00000
vn 0.00000 0.00000 1.00000
vn 0.00000 0.00000 1.00000
vn 0.00000 0.00000 1.00000
vn 0.00000 0.00000 1.00000
vn 0.00000 0.00000 1.00000
vn 0.00000 -0.00314 -1.00000
vn 0.00000 -0.00314 -1.00000
vn 0.00000 -0.00314 -1.00000
vn 0.00000 -0.00314 -1.00000
vn 0.00000 -0.00314 -1.00000
vn 0.00000 -0.00314 -1.00000
vn 0.00000 -0.00314 -1.00000
vn 0.00000 -0.70711 -0.70711
vn 0.00000 -0.70711 -0.70711
vn 0.00000 -0.70711 -0.70711
vn 0.00000 -0.70711 -0.70711
vn 0.00000 -0.70711 -0.70711
vn 0.00000 -0.70711 -0.70711
vn 0.00000 -0.70711 -0.70711
vn 0.00000 -1.00000 0.00000
vn 0.00000 -1.00000 0.00000
vn 0.00000 -1.00000 0.00000
vn 0.00000 -1.00000 0.00000
vn 0.00000 -1.00000 0.00000
vn 0.00000 -1.00000 0.00000
vn 0.00000 -1.00000 0.00000
vn 0.00000 -0.70711 0.70711
vn 0.00000 -0.70711 0.70711
vn 0.00000 -0.70711 0.70711
vn 0.00000 -0.70711 0.70711
vn 0.00000 -0.70711 0.70711
vn 0.00000 -0.70711 0.70711
vn 0.00000 -0.70711 0.70711
vn -0.00000 0.00000 1.00000
vn -0.00000 0.00000 1.00000
vn -0.00000 0.00000 1.00000
vn -0.00000 0.00000 1.00000
vn -0.00000 0.00000 1.00000
vn -0.00000 0.00000 1.00000
vn -0.00000 0.00000 1.00000
vn -0.00000 0.70711 0.70711
vn -0.00000 0.70711 0.70711
vn -0.00000 0.70711 0.70711
vn -0.00000 0.70711 0.70711
vn -0.00000 0.70711 0.70711
vn -0.00000 0.70711 0.70711
vn -0.00000 0.70711 0.70711
vn 0.00000 1.00000 0.00000
vn 0.00000 1.00000 0.00000
vn 0.00000 1.00000 0.00000
vn 0.00000 1.00000 0.00000
vn 0.00000 1.00000 0.00000
vn 0.00000 1.00000 0.00000
vn 0.00000 1.00000 0.00000
vn 0.00000 0.70711 -0.70711
vn 0.00000 0.70711 -0.70711
vn 0.00000 0.70711 -0.70711
vn 0.00000 0.70711 -0.70711
vn 0.00000 0.70711 -0.70711
vn 0.00000 0.70711 -0.70711
vn 0.00000 0.70711 -0.70711
vn 0.00000 0.00314 -1.00000
vn 0.00000 0.00314 -1.00000
vn 0.00000 0.00314 -1.00000
vn 0.00000 0.00314 -1.00000
vn 0.00000 0.00314 -1.00000
vn 0.00000 0.00314 -1.00000
vn 0.00000 0.00314 -1.00000
vn 0.00000 -0.00314 -1.00000
vn 0.00000 -0.00314 -1.00000
vn 0.00000 -0.00314 -1.00000
vn 0.00000 -0.00314 -1.00000
vn 0.00000 -0.00314 -1.00000
vn 0.00000 -0.00314 -1.00000
vn 0.00000 -0.00314 -1.00000
vn 0.00000 -0.70711 -0.70711
vn 0.00000 -0.70711 -0.70711
vn 0.00000 -0.70711 -0.70711
vn 0.00000 -0.70711 -0.70711
vn 0.00000 -0.70711 -0.70711
vn 0.00000 -0.70711 -0.70711
vn 0.00000 -0.70711 -0.70711
vn 0.00000 -1.00000 0.00000
vn 0.00000 -1.00000 0.00000
vn 0.00000 -1.00000 0.00000
vn 0.00000 -1.00000 0.00000
vn 0.00000 -1.00000 0.00000
vn 0.00000 -1.00000 0.00000
vn 0.00000 -1.00000 0.00000
vn 0.00000 -0.70711 0.70711
vn 0.00000 -0.70711 0.70711
vn 0.00000 -0.70711 0.70711
vn 0.00000 -0.70711 0.70711
vn 0.00000 -0.70711 0.70711
vn 0.00000 -0.70711 0.70711
vn 0.00000 -0.70711 0.70711
vn -0.00000 0.00000 1.00000
vn -0.00000 0.00000 1.00000
vn -0.00000 0.00000 1.00000
vn -0.00000 0.00000 1.00000
vn -0.00000 0.00000 1.00000
vn -0.00000 0.00000 1.00000
vn -0.00000 0.00000 1.00000
vn -0.00000 0.70711 0.70711
vn -0.00000 0.70711 0.70711
vn -0.00000 0.70711 0.70711
vn -0.00000 0.70711 0.70711
vn -0.00000 0.70711 0.70711
vn -0.00000 0.70711 0.70711
vn -0.00000 0.70711 0.70711
vn 0.00000 1.00000 0.00000
vn 0.00000 1.00000 0.00000
vn 0.00000 1.00000 0.00000
vn 0.00000 1.00000 0.00000
vn 0.00000 1.00000 0.00000
vn 0.00000 1.00000 0.00000
vn 0.00000 1.00000 0.00000
vn 0.00000 0.70711 -0.70711
vn 0.00000 0.70711 -0.70711
vn 0.00000 0.70711 -0.70711
vn 0.00000 0.70711 -0.70711
vn 0.00000 0.70711 -0.70711
vn 0.00000 0.70711 -0.70711
vn 0.00000 0.70711 -0.70711
vn 0.00000 0.00314 -1.00000
vn 0.00000 0.00314 -1.00000
vn 0.00000 0.00314 -1.00000
vn 0.00000 0.00314 -1.00000
vn 0.00000 0.00314 -1.00000
vn 0.00000 0.00314 -1.00000
vn 0.00000 0.00314 -1.00000
f 1/1/1 2/2/2 3/3/3
f 4/4/4 5/5/5 6/6/6
f 7/7/7 8/8/8 9/9/9
f 10/10/10 11/11/11 12/12/12
f 13/13/13 14/14/14 15/15/15
f 16/16/16 17/17/17 18/18/18
f 19/19/19 20/20/20 21/21/21
f 22/22/22 23/23/23 24/24/24
f 25/25/25 26/26/26 27/27/27
f 28/28/28 29/29/29 30/30/30
f 31/31/31 32/32/32 33/33/33
f 34/34/34 35/35/35 36/36/36
f 37/37/37 38/38/38 39/39/39
f 40/40/40 41/41/41 42/42/42
f 43/43/43 44/44/44 45/45/45
f 46/46/46 47/47/47 48/48/48
f 49/49/49 50/50/50 51/51/51
f 52/52/52 53/53/53 54/54/54
f 55/55/55 56/56/56 57/57/57
f 58/58/58 59/59/59 60/60/60
f 61/61/61 62/62/62 63/63/63
f 64/64/64 65/65/65 66/66/66
f 67/67/67 68/68/68 69/69/69
f 70/70/70 71/71/71 72/72/72
f 73/73/73 74/74/74 75/75/75
f 76/76/76 77/77/77 78/78/78
f 79/79/79 80/80/80 81/81/81
f 82/82/82 83/83/83 84/84/84
f 85/85/85 86/86/86 87/87/87
f 88/88/88 89/89/89 90/90/90
f 91/91/91 92/92/92 93/93/93
f 94/94/94 95/95/95 96/96/96
f 97/97/97 98/98/98 99/99/99
f 100/100/100 101/101/101 102/102/102
f 103/103/103 104/104/104 105/105/105
f 106/106/106 107/107/107 108/108/108
f 109/109/109 110/110/110 111/111/111
f 112/112/112 113/113/113 114/114/114
f 115/115/115 116/116/116 117/117/117
f 118/118/118 119/119/119 120/120/120
f 121/121/121 122/122/122 123/123/123
f 124/124/124 125/125/125 126/126/126
f 127/127/127 128/128/128 129/129/129
f 130/130/130 131/131/131 132/132/132
f 133/133/133 134/134/134 135/135/135
f 136/136/136 137/137/137 138/138/138
f 139/139/139 140/140/140 141/141/141
f 142/142/142 143/143/143 144/144/144
f 145/145/145 146/146/146 147/147/147
f 148/148/148 149/149/149 150/150/150
f 151/151/151 152/152/152 153/153/153
f 154/154/154 155/155/155 156/156/156
f 157/157/157 158/158/158 159/159/159
f 160/160/160 161/161/161 162/162/162
f 163/163/163 164/164/164 165/165/165
f 166/166/166 167/167/167 168/168/168
f 169/169/169 170/170/170 171/171/171
f 172/172/172 173/173/173 174/174/174
f 175/175/175 176/176/176 177/177/177
f 178/178/178 179/179/179 180/180/180
f 181/181/181 182/182/182 183/183/183
f 184/184/184 185/185/185 186/186/186
f 187/187/187 188/188/188 189/189/189
f 190/190/190 191/191/191 192/192/192
f 193/193/193 194/194/194 195/195/195
f 196/196/196 197/197/197 198/198/198
f 199/199/199 200/200/200 201/201/201
f 202/202/202 203/203/203 204/204/204
f 205/205/205 206/206/206 207/207/207
f 208/208/208 209/209/209 210/210/210
f 211/211/211 212/212/212 213/213/213
f 214/214/214 215/215/215 216/216/216
f 217/217/217 218/218/218 219/219/219
f 220/220/220 221/221/221 222/222/222
f 223/223/223 224/224/224 225/225/225
f 226/226/226 227/227/227 228/228/228
f 229/229/229 230/230/230 231/231/231
f 232/232/232 233/233/233 234/234/234
f 235/235/235 236/236/236 237/237/237
f 238/238/238 239/239/239 240/240/240
f 241/241/241 242/242/242 243/243/243
f 244/244/244 245/245/245 246/246/246
f 247/247/247 248/248/248 249/249/249
f 250/250/250 251/251/251 252/252/252
f 253/253/253 254/254/254 255/255/255
f 256/256/256 257/257/257 258/258/258
f 259/259/259 260/260/260 261/261/261
f 262/262/262 263/263/263 264/264/264
f 265/265/265 266/266/266 267/267/267
f 268/268/268 269/269/269 270/270/270
f 271/271/271 272/272/272 273/273/273
f 274/274/274 275/275/275 276/276/276
f 277/277/277 278/278/278 279/279/279
f 280/280/280 281/281/281 282/282/282
f 283/283/283 284/284/284 285/285/285
f 286/286/286 287/287/287 288/288/288
f 289/289/289 296/296/296 297/297/297
f 289/289/289 297/297/297 290/290/290
f 290/290/290 297/297/297 298/298/298
f 290/290/290 298/298/298 291/291/291
f 291/291/291 298/298/298 299/299/299
f 291/291/291 299/299/299 292/292/292
f 292/292/292 299/299/299 300/300/300
f 292/292/292 300/300/300 293/293/293
f 293/293/293 300/300/300 301/301/301
f 293/293/293 301/301/301 294/294/294
f 294/294/294 301/301/301 302/302/302
f 294/294/294 302/302/302 295/295/295
f 296/296/296 303/303/303 304/304/304
f 296/296/296 304/304/304 297/297/297
f 297/297/297 304/304/304 305/305/305
f 297/297/297 305/305/305 298/298/298
f 298/298/298 305/305/305 306/306/306
f 298/298/298 306/306/306 299/299/299
f 299/299/299 306/306/306 307/307/307
f 299/299/299 307/307/307 300/300/300
f 300/300/300 307/307/307 308/308/308
f 300/300/300 308/308/308 301/301/301
f 301/301/301 308/308/308 309/309/309
f 301/301/301 309/309/309 302/302/302
f 303/303/303 310/310/310 311/311/311
f 303/303/303 311/311/311 304/304/304
f 304/304/304 311/311/311 312/312/312
f 304/304/304 312/312/312 305/305/305
f 305/305/305 312/312/312 313/313/313
f 305/305/305 313/313/313 306/306/306
f 306/306/306 313/313/313 314/314/314
f 306/306/306 314/314/314 307/307/307
f 307/307/307 314/314/314 315/315/315
f 307/307/307 315/315/315 308/308/308
f 308/308/308 315/315/315 316/316/316
f 308/308/308 316/316/316 309/309/309
f 310/310/310 317/317/317 318/318/318
f 310/310/310 318/318/318 311/311/311
f 311/311/311 318/318/318 319/319/319
f 311/311/311 319/319/319 312/312/312
f 312/312/312 319/319/319 320/320/320
f 312/312/312 320/320/320 313/313/313
f 313/313/313 320/320/320 321/321/321
f 313/313/313 321/321/321 314/314/314
f 314/314/314 321/321/321 322/322/322
f 314/314/314 322/322/322 315/315/315
f 315/315/315 322/322/322 323/323/323
f 315/315/315 323/323/323 316/316/316
f 317/317/317 324/324/324 325/325/325
f 317/317/317 325/325/325 318/318/318
f 318/318/318 325/325/325 326/326/326
f 318/318/318 326/326/326 319/319/319
f 319/319/319 326/326/326 327/327/327
f 319/319/319 327/327/327 320/320/320
f 320/320/320 327/327/327 328/328/328
f 320/320/320 328/328/328 321/321/321
f 321/321/321 328/328/328 329/329/329
f 321/321/321 329/329/329 322/322/322
f 322/322/322 329/329/329 330/330/330
f 322/322/322 330/330/330 323/323/323
f 324/324/324 331/331/331 332/332/332
f 324/324/324 332/332/332 325/325/325
f 325/325/325 332/332/332 333/333/333
f 325/325/325 333/333/333 326/326/326
f 326/326/326 333/333/333 334/334/334
f 326/326/326 334/334/334 327/327/327
f 327/327/327 334/334/334 335/335/335
f 327/327/327 335/335/335 328/328/328
f 328/328/328 335/335/335 336/336/336
f 328/328/328 336/336/336 329/329/329
f 329/329/329 336/336/336 337/337/337
f 329/329/329 337/337/337 330/330/330
f 331/331/331 338/338/338 339/339/339
f 331/331/331 339/339/339 332/332/332
f 332/332/332 339/339/339 340/340/340
f 332/332/332 340/340/340 333/333/333
f 333/333/333 340/340/340 341/341/341
f 333/333/333 341/341/341 334/334/334
f 334/334/334 341/341/341 342/342/342
f 334/334/334 342/342/342 335/335/335
f 335/335/335 342/342/342 343/343/343
f 335/335/335 343/343/343 336/336/336
f 336/336/336 343/343/343 344/344/344
f 336/336/336 344/344/344 337/337/337
f 338/338/338 345/345/345 346/346/346
f 338/338/338 346/346/346 339/339/339
f 339/339/339 346/346/346 347/347/347
f 339/339/339 347/347/347 340/340/340
f 340/340/340 347/347/347 348/348/348
f 340/340/340 348/348/348 341/341/341
f 341/341/341 348/348/348 349/349/349
f 341/341/341 349/349/349 342/342/342
f 342/342/342 349/349/349 350/350/350
f 342/342/342 350/350/350 343/343/343
f 343/343/343 350/350/350 351/351/351
f 343/343/343 351/351/351 344/344/344
f 352/352/352 359/359/359 360/360/360
f 352/352/352 360/360/360 353/353/353
f 353/353/353 360/360/360 361/361/361
f 353/353/353 361/361/361 354/354/354
f 354/354/354 361/361/361 362/362/362
f 354/354/354 362/362/362 355/355/355
f 355/355/355 362/362/362 363/363/363
f 355/355/355 363/363/363 356/356/356
f 356/356/356 363/363/363 364/364/364
f 356/356/356 364/364/364 357/357/357
f 357/357/357 364/364/364 365/365/365
f 357/357/357 365/365/365 358/358/358
f 359/359/359 366/366/366 367/367/367
f 359/359/359 367/367/367 360/360/360
f 360/360/360 367/367/367 368/368/368
f 360/360/360 368/368/368 361/361/361
f 361/361/361 368/368/368 369/369/369
f 361/361/361 369/369/369 362/362/362
f 362/362/362 369/369/369 370/370/370
f 362/362/362 370/370/370 363/363/363
f 363/363/363 370/370/370 371/371/371
f 363/363/363 371/371/371 364/364/364
f 364/364/364 371/371/371 372/372/372
f 364/364/364 372/372/372 365/365/365
f 366/366/366 373/373/373 374/374/374
f 366/366/366 374/374/374 367/367/367
f 367/367/367 374/374/374 375/375/375
f 367/367/367 375/375/375 368/368/368
f 368/368/368 375/375/375 376/376/376
f 368/368/368 376/376/376 369/369/369
f 369/369/369 376/376/376 377/377/377
f 369/369/369 377/377/377 370/370/370
f 370/370/370 377/377/377 378/378/378
f 370/370/370 378/378/378 371/371/371
f 371/371/371 378/378/378 379/379/379
f 371/371/371 379/379/379 372/372/372
f 373/373/373 380/380/380 381/381/381
f 373/373/373 381/381/381 374/374/374
f 374/374/374 381/381/381 382/382/382
f 374/374/374 382/382/382 375/375/375
f 375/375/375 382/382/382 383/383/383
f 375/375/375 383/383/383 376/376/376
f 376/376/376 383/383/383 384/384/384
f 376/376/376 384/384/384 377/377/377
f 377/377/377 384/384/384 385/385/385
f 377/377/377 385/385/385 378/378/378
f 378/378/378 385/385/385 386/386/386
f 378/378/378 386/386/386 379/379/379
f 380/380/380 387/387/387 388/388/388
f 380/380/380 388/388/388 381/381/381
f 381/381/381 388/388/388 389/389/389
f 381/381/381 389/389/389 382/382/382
f 382/382/382 389/389/389 390/390/390
f 382/382/382 390/390/390 383/383/383
f 383/383/383 390/390/390 391/391/391
f 383/383/383 391/391/391 384/384/384
f 384/384/384 391/391/391 392/392/392
f 384/384/384 392/392/392 385/385/385
f 385/385/385 392/392/392 393/393/393
f 385/385/385 393/393/393 386/386/386
f 387/387/387 394/394/394 395/395/395
f 387/387/387 395/395/395 388/388/388
f 388/388/388 395/395/395 396/396/396
f 388/388/388 396/396/396 389/389/389
f 389/389/389 396/396/396 397/397/397
f 389/389/389 397/397/397 390/390/390
f 390/390/390 397/397/397 398/398/398
f 390/390/390 398/398/398 391/391/391
f 391/391/391 398/398/398 399/399/399
f 391/391/391 399/399/399 392/392/392
f 392/392/392 399/399/399 400/400/400
f 392/392/392 400/400/400 393/393/393
f 394/394/394 401/401/401 402/402/402
f 394/394/394 402/402/402 395/395/395
f 395/395/395 402/402/402 403/403/403
f 395/395/395 403/403/403 396/396/396
f 396/396/396 403/403/403 404/404/404
f 396/396/396 404/404/404 397/397/397
f 397/397/397 404/404/404 405/405/405
f 397/397/397 405/405/405 398/398/398
f 398/398/398 405/405/405 406/406/406
f 398/398/398 406/406/406 399/399/399
f 399/399/399 406/406/406 407/407/407
f 399/399/399 407/407/407 400/400/400
f 401/401/401 408/408/408 409/409/409
f 401/401/401 409/409/409 402/402/402
f 402/402/402 409/409/409 410/410/410
f 402/402/402 410/410/410 403/403/403
f 403/403/403 410/410/410 411/411/411
f 403/403/403 411/411/411 404/404/404
f 404/404/404 411/411/411 412/412/412
f 404/404/404 412/412/412 405/405/405
f 405/405/405 412/412/412 413/413/413
f 405/405/405 413/413/413 406/406/406
f 406/406/406 413/413/413 414/414/414
f 406/406/406 414/414/414 407/407/407
