# procedural asset
v 0.00000 0.00000 -0.20000
v 0.00000 0.30000 -0.18833
v 0.00000 0.60000 -0.17667
v 0.00000 0.90000 -0.16500
v 0.00000 1.20000 -0.15333
v 0.00000 1.50000 -0.14167
v 0.00000 1.80000 -0.13000
v 0.08678 0.00000 -0.18019
v 0.08171 0.30000 -0.16968
v 0.07665 0.60000 -0.15917
v 0.07159 0.90000 -0.14866
v 0.06653 1.20000 -0.13815
v 0.06147 1.50000 -0.12764
v 0.05640 1.80000 -0.11713
v 0.15637 0.00000 -0.12470
v 0.14724 0.30000 -0.11742
v 0.13812 0.60000 -0.11015
v 0.12900 0.90000 -0.10288
v 0.11988 1.20000 -0.09560
v 0.11076 1.50000 -0.08833
v 0.10164 1.80000 -0.08105
v 0.19499 0.00000 -0.04450
v 0.18361 0.30000 -0.04191
v 0.17224 0.60000 -0.03931
v 0.16086 0.90000 -0.03672
v 0.14949 1.20000 -0.03412
v 0.13811 1.50000 -0.03152
v 0.12674 1.80000 -0.02893
v 0.19499 0.00000 0.04450
v 0.18361 0.30000 0.04191
v 0.17224 0.60000 0.03931
v 0.16086 0.90000 0.03672
v 0.14949 1.20000 0.03412
v 0.13811 1.50000 0.03152
v 0.12674 1.80000 0.02893
v 0.15637 0.00000 0.12470
v 0.14724 0.30000 0.11742
v 0.13812 0.60000 0.11015
v 0.12900 0.90000 0.10288
v 0.11988 1.20000 0.09560
v 0.11076 1.50000 0.08833
v 0.10164 1.80000 0.08105
v 0.08678 0.00000 0.18019
v 0.08171 0.30000 0.16968
v 0.07665 0.60000 0.15917
v 0.07159 0.90000 0.14866
v 0.06653 1.20000 0.13815
v 0.06147 1.50000 0.12764
v 0.05640 1.80000 0.11713
v 0.00000 0.00000 0.20000
v 0.00000 0.30000 0.18833
v 0.00000 0.60000 0.17667
v 0.00000 0.90000 0.16500
v 0.00000 1.20000 0.15333
v 0.00000 1.50000 0.14167
v 0.00000 1.80000 0.13000
v -0.08678 0.00000 0.18019
v -0.08171 0.30000 0.16968
v -0.07665 0.60000 0.15917
v -0.07159 0.90000 0.14866
v -0.06653 1.20000 0.13815
v -0.06147 1.50000 0.12764
v -0.05640 1.80000 0.11713
v -0.15637 0.00000 0.12470
v -0.14724 0.30000 0.11742
v -0.13812 0.60000 0.11015
v -0.12900 0.90000 0.10288
v -0.11988 1.20000 0.09560
v -0.11076 1.50000 0.08833
v -0.10164 1.80000 0.08105
v -0.19499 0.00000 0.04450
v -0.18361 0.30000 0.04191
v -0.17224 0.60000 0.03931
v -0.16086 0.90000 0.03672
v -0.14949 1.20000 0.03412
v -0.13811 1.50000 0.03152
v -0.12674 1.80000 0.02893
v -0.19499 0.00000 -0.04450
v -0.18361 0.30000 -0.04191
v -0.17224 0.60000 -0.03931
v -0.16086 0.90000 -0.03672
v -0.14949 1.20000 -0.03412
v -0.13811 1.50000 -0.03152
v -0.12674 1.80000 -0.02893
v -0.15637 0.00000 -0.12470
v -0.14724 0.30000 -0.11742
v -0.13812 0.60000 -0.11015
v -0.12900 0.90000 -0.10288
v -0.11988 1.20000 -0.09560
v -0.11076 1.50000 -0.08833
v -0.10164 1.80000 -0.08105
v -0.08678 0.00000 -0.18019
v -0.08171 0.30000 -0.16968
v -0.07665 0.60000 -0.15917
v -0.07159 0.90000 -0.14866
v -0.06653 1.20000 -0.13815
v -0.06147 1.50000 -0.12764
v -0.05640 1.80000 -0.11713
v -0.00000 0.00000 -0.20000
v -0.00000 0.30000 -0.18833
v -0.00000 0.60000 -0.17667
v -0.00000 0.90000 -0.16500
v -0.00000 1.20000 -0.15333
v -0.00000 1.50000 -0.14167
v -0.00000 1.80000 -0.13000
vt 0.00000 0.00000
vt 0.00000 0.16667
vt 0.00000 0.33333
vt 0.00000 0.50000
vt 0.00000 0.66667
vt 0.00000 0.83333
vt 0.00000 1.00000
vt 0.07143 0.00000
vt 0.07143 0.16667
vt 0.07143 0.33333
vt 0.07143 0.50000
vt 0.07143 0.66667
vt 0.07143 0.83333
vt 0.07143 1.00000
vt 0.14286 0.00000
vt 0.14286 0.16667
vt 0.14286 0.33333
vt 0.14286 0.50000
vt 0.14286 0.66667
vt 0.14286 0.83333
vt 0.14286 1.00000
vt 0.21429 0.00000
vt 0.21429 0.16667
vt 0.21429 0.33333
vt 0.21429 0.50000
vt 0.21429 0.66667
vt 0.21429 0.83333
vt 0.21429 1.00000
vt 0.28571 0.00000
vt 0.28571 0.16667
vt 0.28571 0.33333
vt 0.28571 0.50000
vt 0.28571 0.66667
vt 0.28571 0.83333
vt 0.28571 1.00000
vt 0.35714 0.00000
vt 0.35714 0.16667
vt 0.35714 0.33333
vt 0.35714 0.50000
vt 0.35714 0.66667
vt 0.35714 0.83333
vt 0.35714 1.00000
vt 0.42857 0.00000
vt 0.42857 0.16667
vt 0.42857 0.33333
vt 0.42857 0.50000
vt 0.42857 0.66667
vt 0.42857 0.83333
vt 0.42857 1.00000
vt 0.50000 0.00000
vt 0.50000 0.16667
vt 0.50000 0.33333
vt 0.50000 0.50000
vt 0.50000 0.66667
vt 0.50000 0.83333
vt 0.50000 1.00000
vt 0.57143 0.00000
vt 0.57143 0.16667
vt 0.57143 0.33333
vt 0.57143 0.50000
vt 0.57143 0.66667
vt 0.57143 0.83333
vt 0.57143 1.00000
vt 0.64286 0.00000
vt 0.64286 0.16667
vt 0.64286 0.33333
vt 0.64286 0.50000
vt 0.64286 0.66667
vt 0.64286 0.83333
vt 0.64286 1.00000
vt 0.71429 0.00000
vt 0.71429 0.16667
vt 0.71429 0.33333
vt 0.71429 0.50000
vt 0.71429 0.66667
vt 0.71429 0.83333
vt 0.71429 1.00000
vt 0.78571 0.00000
vt 0.78571 0.16667
vt 0.78571 0.33333
vt 0.78571 0.50000
vt 0.78571 0.66667
vt 0.78571 0.83333
vt 0.78571 1.00000
vt 0.85714 0.00000
vt 0.85714 0.16667
vt 0.85714 0.33333
vt 0.85714 0.50000
vt 0.85714 0.66667
vt 0.85714 0.83333
vt 0.85714 1.00000
vt 0.92857 0.00000
vt 0.92857 0.16667
vt 0.92857 0.33333
vt 0.92857 0.50000
vt 0.92857 0.66667
vt 0.92857 0.83333
vt 0.92857 1.00000
vt 1.00000 0.00000
vt 1.00000 0.16667
vt 1.00000 0.33333
vt 1.00000 0.50000
vt 1.00000 0.66667
vt 1.00000 0.83333
vt 1.00000 1.00000
vn -0.00314 -0.03886 0.99924
vn -0.00314 -0.03886 0.99924
vn -0.00314 -0.03886 0.99924
vn -0.00314 -0.03886 0.99924
vn -0.00314 -0.03886 0.99924
vn -0.00314 -0.03886 0.99924
vn -0.00314 -0.03886 0.99924
vn -0.43356 -0.03886 0.90029
vn -0.43356 -0.03886 0.90029
vn -0.43356 -0.03886 0.90029
vn -0.43356 -0.03886 0.90029
vn -0.43356 -0.03886 0.90029
vn -0.43356 -0.03886 0.90029
vn -0.43356 -0.03886 0.90029
vn -0.78124 -0.03886 0.62302
vn -0.78124 -0.03886 0.62302
vn -0.78124 -0.03886 0.62302
vn -0.78124 -0.03886 0.62302
vn -0.78124 -0.03886 0.62302
vn -0.78124 -0.03886 0.62302
vn -0.78124 -0.03886 0.62302
vn -0.97419 -0.03886 0.22235
vn -0.97419 -0.03886 0.22235
vn -0.97419 -0.03886 0.22235
vn -0.97419 -0.03886 0.22235
vn -0.97419 -0.03886 0.22235
vn -0.97419 -0.03886 0.22235
vn -0.97419 -0.03886 0.22235
vn -0.97419 -0.03886 -0.22235
vn -0.97419 -0.03886 -0.22235
vn -0.97419 -0.03886 -0.22235
vn -0.97419 -0.03886 -0.22235
vn -0.97419 -0.03886 -0.22235
vn -0.97419 -0.03886 -0.22235
vn -0.97419 -0.03886 -0.22235
vn -0.78124 -0.03886 -0.62302
vn -0.78124 -0.03886 -0.62302
vn -0.78124 -0.03886 -0.62302
vn -0.78124 -0.03886 -0.62302
vn -0.78124 -0.03886 -0.62302
vn -0.78124 -0.03886 -0.62302
vn -0.78124 -0.03886 -0.62302
vn -0.43356 -0.03886 -0.90029
vn -0.43356 -0.03886 -0.90029
vn -0.43356 -0.03886 -0.90029
vn -0.43356 -0.03886 -0.90029
vn -0.43356 -0.03886 -0.90029
vn -0.43356 -0.03886 -0.90029
vn -0.43356 -0.03886 -0.90029
vn -0.00000 -0.03886 -0.99924
vn -0.00000 -0.03886 -0.99924
vn -0.00000 -0.03886 -0.99924
vn -0.00000 -0.03886 -0.99924
vn -0.00000 -0.03886 -0.99924
vn -0.00000 -0.03886 -0.99924
vn -0.00000 -0.03886 -0.99924
vn 0.43356 -0.03886 -0.90029
vn 0.43356 -0.03886 -0.90029
vn 0.43356 -0.03886 -0.90029
vn 0.43356 -0.03886 -0.90029
vn 0.43356 -0.03886 -0.90029
vn 0.43356 -0.03886 -0.90029
vn 0.43356 -0.03886 -0.90029
vn 0.78124 -0.03886 -0.62302
vn 0.78124 -0.03886 -0.62302
vn 0.78124 -0.03886 -0.62302
vn 0.78124 -0.03886 -0.62302
vn 0.78124 -0.03886 -0.62302
vn 0.78124 -0.03886 -0.62302
vn 0.78124 -0.03886 -0.62302
vn 0.97419 -0.03886 -0.22235
vn 0.97419 -0.03886 -0.22235
vn 0.97419 -0.03886 -0.22235
vn 0.97419 -0.03886 -0.22235
vn 0.97419 -0.03886 -0.22235
vn 0.97419 -0.03886 -0.22235
vn 0.97419 -0.03886 -0.22235
vn 0.97419 -0.03886 0.22235
vn 0.97419 -0.03886 0.22235
vn 0.97419 -0.03886 0.22235
vn 0.97419 -0.03886 0.22235
vn 0.97419 -0.03886 0.22235
vn 0.97419 -0.03886 0.22235
vn 0.97419 -0.03886 0.22235
vn 0.78124 -0.03886 0.62302
vn 0.78124 -0.03886 0.62302
vn 0.78124 -0.03886 0.62302
vn 0.78124 -0.03886 0.62302
vn 0.78124 -0.03886 0.62302
vn 0.78124 -0.03886 0.62302
vn 0.78124 -0.03886 0.62302
vn 0.43356 -0.03886 0.90029
vn 0.43356 -0.03886 0.90029
vn 0.43356 -0.03886 0.90029
vn 0.43356 -0.03886 0.90029
vn 0.43356 -0.03886 0.90029
vn 0.43356 -0.03886 0.90029
vn 0.43356 -0.03886 0.90029
vn 0.00314 -0.03886 0.99924
vn 0.00314 -0.03886 0.99924
vn 0.00314 -0.03886 0.99924
vn 0.00314 -0.03886 0.99924
vn 0.00314 -0.03886 0.99924
vn 0.00314 -0.03886 0.99924
vn 0.00314 -0.03886 0.99924
f 1/1/1 8/8/8 9/9/9
f 1/1/1 9/9/9 2/2/2
f 2/2/2 9/9/9 10/10/10
f 2/2/2 10/10/10 3/3/3
f 3/3/3 10/10/10 11/11/11
f 3/3/3 11/11/11 4/4/4
f 4/4/4 11/11/11 12/12/12
f 4/4/4 12/12/12 5/5/5
f 5/5/5 12/12/12 13/13/13
f 5/5/5 13/13/13 6/6/6
f 6/6/6 13/13/13 14/14/14
f 6/6/6 14/14/14 7/7/7
f 8/8/8 15/15/15 16/16/16
f 8/8/8 16/16/16 9/9/9
f 9/9/9 16/16/16 17/17/17
f 9/9/9 17/17/17 10/10/10
f 10/10/10 17/17/17 18/18/18
f 10/10/10 18/18/18 11/11/11
f 11/11/11 18/18/18 19/19/19
f 11/11/11 19/19/19 12/12/12
f 12/12/12 19/19/19 20/20/20
f 12/12/12 20/20/20 13/13/13
f 13/13/13 20/20/20 21/21/21
f 13/13/13 21/21/21 14/14/14
f 15/15/15 22/22/22 23/23/23
f 15/15/15 23/23/23 16/16/16
f 16/16/16 23/23/23 24/24/24
f 16/16/16 24/24/24 17/17/17
f 17/17/17 24/24/24 25/25/25
f 17/17/17 25/25/25 18/18/18
f 18/18/18 25/25/25 26/26/26
f 18/18/18 26/26/26 19/19/19
f 19/19/19 26/26/26 27/27/27
f 19/19/19 27/27/27 20/20/20
f 20/20/20 27/27/27 28/28/28
f 20/20/20 28/28/28 21/21/21
f 22/22/22 29/29/29 30/30/30
f 22/22/22 30/30/30 23/23/23
f 23/23/23 30/30/30 31/31/31
f 23/23/23 31/31/31 24/24/24
f 24/24/24 31/31/31 32/32/32
f 24/24/24 32/32/32 25/25/25
f 25/25/25 32/32/32 33/33/33
f 25/25/25 33/33/33 26/26/26
f 26/26/26 33/33/33 34/34/34
f 26/26/26 34/34/34 27/27/27
f 27/27/27 34/34/34 35/35/35
f 27/27/27 35/35/35 28/28/28
f 29/29/29 36/36/36 37/37/37
f 29/29/29 37/37/37 30/30/30
f 30/30/30 37/37/37 38/38/38
f 30/30/30 38/38/38 31/31/31
f 31/31/31 38/38/38 39/39/39
f 31/31/31 39/39/39 32/32/32
f 32/32/32 39/39/39 40/40/40
f 32/32/32 40/40/40 33/33/33
f 33/33/33 40/40/40 41/41/41
f 33/33/33 41/41/41 34/34/34
f 34/34/34 41/41/41 42/42/42
f 34/34/34 42/42/42 35/35/35
f 36/36/36 43/43/43 44/44/44
f 36/36/36 44/44/44 37/37/37
f 37/37/37 44/44/44 45/45/45
f 37/37/37 45/45/45 38/38/38
f 38/38/38 45/45/45 46/46/46
f 38/38/38 46/46/46 39/39/39
f 39/39/39 46/46/46 47/47/47
f 39/39/39 47/47/47 40/40/40
f 40/40/40 47/47/47 48/48/48
f 40/40/40 48/48/48 41/41/41
f 41/41/41 48/48/48 49/49/49
f 41/41/41 49/49/49 42/42/42
f 43/43/43 50/50/50 51/51/51
f 43/43/43 51/51/51 44/44/44
f 44/44/44 51/51/51 52/52/52
f 44/44/44 52/52/52 45/45/45
f 45/45/45 52/52/52 53/53/53
f 45/45/45 53/53/53 46/46/46
f 46/46/46 53/53/53 54/54/54
f 46/46/46 54/54/54 47/47/47
f 47/47/47 54/54/54 55/55/55
f 47/47/47 55/55/55 48/48/48
f 48/48/48 55/55/55 56/56/56
f 48/48/48 56/56/56 49/49/49
f 50/50/50 57/57/57 58/58/58
f 50/50/50 58/58/58 51/51/51
f 51/51/51 58/58/58 59/59/59
f 51/51/51 59/59/59 52/52/52
f 52/52/52 59/59/59 60/60/60
f 52/52/52 60/60/60 53/53/53
f 53/53/53 60/60/60 61/61/61
f 53/53/53 61/61/61 54/54/54
f 54/54/54 61/61/61 62/62/62
f 54/54/54 62/62/62 55/55/55
f 55/55/55 62/62/62 63/63/63
f 55/55/55 63/63/63 56/56/56
f 57/57/57 64/64/64 65/65/65
f 57/57/57 65/65/65 58/58/58
f 58/58/58 65/65/65 66/66/66
f 58/58/58 66/66/66 59/59/59
f 59/59/59 66/66/66 67/67/67
f 59/59/59 67/67/67 60/60/60
f 60/60/60 67/67/67 68/68/68
f 60/60/60 68/68/68 61/61/61
f 61/61/61 68/68/68 69/69/69
f 61/61/61 69/69/69 62/62/62
f 62/62/62 69/69/69 70/70/70
f 62/62/62 70/70/70 63/63/63
f 64/64/64 71/71/71 72/72/72
f 64/64/64 72/72/72 65/65/65
f 65/65/65 72/72/72 73/73/73
f 65/65/65 73/73/73 66/66/66
f 66/66/66 73/73/73 74/74/74
f 66/66/66 74/74/74 67/67/67
f 67/67/67 74/74/74 75/75/75
f 67/67/67 75/75/75 68/68/68
f 68/68/68 75/75/75 76/76/76
f 68/68/68 76/76/76 69/69/69
f 69/69/69 76/76/76 77/77/77
f 69/69/69 77/77/77 70/70/70
f 71/71/71 78/78/78 79/79/79
f 71/71/71 79/79/79 72/72/72
f 72/72/72 79/79/79 80/80/80
f 72/72/72 80/80/80 73/73/73
f 73/73/73 80/80/80 81/81/81
f 73/73/73 81/81/81 74/74/74
f 74/74/74 81/81/81 82/82/82
f 74/74/74 82/82/82 75/75/75
f 75/75/75 82/82/82 83/83/83
f 75/75/75 83/83/83 76/76/76
f 76/76/76 83/83/83 84/84/84
f 76/76/76 84/84/84 77/77/77
f 78/78/78 85/85/85 86/86/86
f 78/78/78 86/86/86 79/79/79
f 79/79/79 86/86/86 87/87/87
f 79/79/79 87/87/87 80/80/80
f 80/80/80 87/87/87 88/88/88
f 80/80/80 88/88/88 81/81/81
f 81/81/81 88/88/88 89/89/89
f 81/81/81 89/89/89 82/82/82
f 82/82/82 89/89/89 90/90/90
f 82/82/82 90/90/90 83/83/83
f 83/83/83 90/90/90 91/91/91
f 83/83/83 91/91/91 84/84/84
f 85/85/85 92/92/92 93/93/93
f 85/85/85 93/93/93 86/86/86
f 86/86/86 93/93/93 94/94/94
f 86/86/86 94/94/94 87/87/87
f 87/87/87 94/94/94 95/95/95
f 87/87/87 95/95/95 88/88/88
f 88/88/88 95/95/95 96/96/96
f 88/88/88 96/96/96 89/89/89
f 89/89/89 96/96/96 97/97/97
f 89/89/89 97/97/97 90/90/90
f 90/90/90 97/97/97 98/98/98
f 90/90/90 98/98/98 91/91/91
f 92/92/92 99/99/99 100/100/100
f 92/92/92 100/100/100 93/93/93
f 93/93/93 100/100/100 101/101/101
f 93/93/93 101/101/101 94/94/94
f 94/94/94 101/101/101 102/102/102
f 94/94/94 102/102/102 95/95/95
f 95/95/95 102/102/102 103/103/103
f 95/95/95 103/103/103 96/96/96
f 96/96/96 103/103/103 104/104/104
f 96/96/96 104/104/104 97/97/97
f 97/97/97 104/104/104 105/105/105
f 97/97/97 105/105/105 98/98/98
